<?xml version="1.0" standalone="no"?>
<!DOCTYPE svg PUBLIC "-//W3C//DTD SVG 1.1//EN" "http://www.w3.org/Graphics/SVG/1.1/DTD/svg11.dtd" >
<svg xmlns="http://www.w3.org/2000/svg" xmlns:xlink="http://www.w3.org/1999/xlink" version="1.1">
<metadata>
Created by FontForge 20170731 at Mon Mar 20 13:25:14 2017
 By Aleksey,,,
(c) 2016 Klim Type Foundry. All Rights Reserved.
</metadata>
<defs>
<font id="UntitledSans-Regular" horiz-adv-x="660" >
  <font-face 
    font-family="Untitled Sans"
    font-weight="400"
    font-stretch="normal"
    units-per-em="1000"
    panose-1="2 11 5 3 3 2 2 6 2 3"
    ascent="800"
    descent="-200"
    x-height="503"
    cap-height="714"
    bbox="-201 -224 1048 963"
    underline-thickness="50"
    underline-position="-200"
    unicode-range="U+0020-2212"
  />
<missing-glyph horiz-adv-x="1178" 
d="M992 473v-55q-24 -8 -53 -8q-84 0 -84 84v125h-36v52h36v65h74v-65h57v-52h-57v-116q0 -34 30 -34q14 0 33 4zM320 671v-40q21 47 79 47q45 0 70 -26t25 -73v-165h-75v148q0 59 -47 59q-52 0 -52 -68v-139h-75v257h75zM533 544q0 62 37 98t97 36q59 0 96 -36.5t37 -97.5
q0 -62 -37 -98.5t-96 -36.5q-60 0 -97 36.5t-37 98.5zM607 544q0 -82 60 -82q28 0 43 22t15 60t-15 59t-43 21q-60 0 -60 -80zM100 414v85h85v-85h-85zM992 303q-19 4 -33 4q-30 0 -30 -34v-15h57v-52h-57v-206h-74v206h-36v52h36v24q0 84 84 84q29 0 53 -8v-55zM420 0v41
q-9 -20 -30.5 -33.5t-49.5 -13.5q-51 0 -82 37.5t-31 97.5t31 97.5t82 37.5q55 0 79 -46v145h75v-363h-74zM794 81q-24 -87 -125 -87q-60 0 -98 36t-38 98q0 61 39 98t97 37q62 0 95.5 -37.5t33.5 -92.5v-23h-193q8 -63 64 -63q41 0 53 34h72zM669 211q-51 0 -62 -56h118
q-1 24 -15 40t-41 16zM421 124v9q0 36 -16 56.5t-44 20.5t-44 -22t-16 -59q0 -38 16 -60t44 -22t44 20.5t16 56.5z" />
    <glyph glyph-name="f_idieresis" unicode="f&#xef;" horiz-adv-x="579" 
d="M102 440h-73v63h73v67q0 78 47 123.5t126 45.5q49 0 81 -15v-67q-25 13 -79 13q-93 0 -93 -104v-63h108v-63h-108v-440h-82v440zM482 608v101h86v-101h-86zM406 503h84v-503h-84v503z" />
    <glyph glyph-name=".notdef" horiz-adv-x="1178" 
d="M992 473v-55q-24 -8 -53 -8q-84 0 -84 84v125h-36v52h36v65h74v-65h57v-52h-57v-116q0 -34 30 -34q14 0 33 4zM320 671v-40q21 47 79 47q45 0 70 -26t25 -73v-165h-75v148q0 59 -47 59q-52 0 -52 -68v-139h-75v257h75zM533 544q0 62 37 98t97 36q59 0 96 -36.5t37 -97.5
q0 -62 -37 -98.5t-96 -36.5q-60 0 -97 36.5t-37 98.5zM607 544q0 -82 60 -82q28 0 43 22t15 60t-15 59t-43 21q-60 0 -60 -80zM100 414v85h85v-85h-85zM992 303q-19 4 -33 4q-30 0 -30 -34v-15h57v-52h-57v-206h-74v206h-36v52h36v24q0 84 84 84q29 0 53 -8v-55zM420 0v41
q-9 -20 -30.5 -33.5t-49.5 -13.5q-51 0 -82 37.5t-31 97.5t31 97.5t82 37.5q55 0 79 -46v145h75v-363h-74zM794 81q-24 -87 -125 -87q-60 0 -98 36t-38 98q0 61 39 98t97 37q62 0 95.5 -37.5t33.5 -92.5v-23h-193q8 -63 64 -63q41 0 53 34h72zM669 211q-51 0 -62 -56h118
q-1 24 -15 40t-41 16zM421 124v9q0 36 -16 56.5t-44 20.5t-44 -22t-16 -59q0 -38 16 -60t44 -22t44 20.5t16 56.5z" />
    <glyph glyph-name=".null" horiz-adv-x="0" 
 />
    <glyph glyph-name="nonmarkingreturn" horiz-adv-x="333" 
 />
    <glyph glyph-name="space" unicode=" " horiz-adv-x="217" 
 />
    <glyph glyph-name="exclam" unicode="!" horiz-adv-x="308" 
d="M105 714h98l-15 -497h-67zM99 0v108h109v-108h-109z" />
    <glyph glyph-name="quotedbl" unicode="&#x22;" horiz-adv-x="418" 
d="M263 462l-13 274h87l-13 -274h-61zM94 462l-13 274h88l-12 -274h-63z" />
    <glyph glyph-name="numbersign" unicode="#" horiz-adv-x="728" 
d="M361 40l48 190h-157l-48 -190h-69l48 190h-121l12 58h123l38 151h-128l11 59h132l48 190h69l-48 -190h157l48 190h69l-48 -190h121l-12 -59h-124l-38 -151h130l-13 -58h-131l-48 -190h-69zM266 288h157l38 151h-157z" />
    <glyph glyph-name="dollar" unicode="$" horiz-adv-x="656" 
d="M595 196q0 -85 -65.5 -142t-167.5 -63v-100h-60v101q-104 9 -174 65.5t-76 152.5h80q6 -68 52.5 -105t117.5 -45v266l-50 10q-81 16 -129 58.5t-48 127.5t63 142t164 61v94h60v-96q95 -9 152 -57.5t66 -133.5h-79q-13 104 -139 120v-258l58 -11q175 -36 175 -187z
M278 411l24 -5v248q-69 -4 -108.5 -39.5t-39.5 -89.5q0 -51 28.5 -76t95.5 -38zM388 310l-26 5v-256q70 5 111.5 40t41.5 93q0 47 -29 76t-98 42z" />
    <glyph glyph-name="percent" unicode="%" horiz-adv-x="841" 
d="M70 567q0 66 46.5 112.5t111.5 46.5q67 0 113.5 -46.5t46.5 -112.5t-46.5 -112.5t-113.5 -46.5q-65 0 -111.5 46.5t-46.5 112.5zM615 714h71l-458 -713h-72zM132 567q0 -42 28.5 -70.5t67.5 -28.5q41 0 69.5 28.5t28.5 70.5q0 41 -28.5 70t-69.5 29q-39 0 -67.5 -29
t-28.5 -70zM453 145q0 66 46.5 113t111.5 47q67 0 113.5 -47t46.5 -113t-46.5 -112t-113.5 -46q-65 0 -111.5 46t-46.5 112zM515 145q0 -41 28.5 -69.5t67.5 -28.5q41 0 69.5 28.5t28.5 69.5q0 42 -28.5 71t-69.5 29q-39 0 -67.5 -29t-28.5 -71z" />
    <glyph glyph-name="ampersand" unicode="&#x26;" horiz-adv-x="728" 
d="M601 0l-77 76q-98 -88 -233 -88q-100 0 -167.5 54t-67.5 141q0 69 39.5 114.5t119.5 86.5q-84 89 -84 167q0 74 52.5 124.5t138.5 50.5q84 0 133 -45.5t49 -117.5q0 -62 -40.5 -104.5t-127.5 -85.5l191 -192q50 75 59 180h75q-11 -130 -85 -229l132 -132h-107zM213 554
q0 -35 19 -65.5t57 -68.5q76 35 106 66t30 77q0 40 -28 69.5t-75 29.5q-46 0 -77.5 -29t-31.5 -79zM140 188q0 -57 45 -94.5t109 -37.5q108 0 183 67l-216 214q-61 -31 -91 -64t-30 -85z" />
    <glyph glyph-name="quotesingle" unicode="'" horiz-adv-x="251" 
d="M94 462l-13 274h88l-12 -274h-63z" />
    <glyph glyph-name="parenleft" unicode="(" horiz-adv-x="392" 
d="M172 314q0 -217 161 -422h-81q-163 200 -163 422t163 422h81q-161 -219 -161 -422z" />
    <glyph glyph-name="parenright" unicode=")" horiz-adv-x="392" 
d="M59 -108q161 205 161 422q0 203 -161 422h81q163 -200 163 -422t-163 -422h-81z" />
    <glyph glyph-name="asterisk" unicode="*" horiz-adv-x="409" 
d="M176 726h58v-134l124 42l18 -55l-126 -42l77 -106l-46 -35l-76 108l-76 -108l-47 35l77 106l-126 42l18 55l125 -42v134z" />
    <glyph glyph-name="plus" unicode="+" 
d="M590 299h-226v-227h-68v227h-227v68h227v227h68v-227h226v-68z" />
    <glyph glyph-name="comma" unicode="," horiz-adv-x="307" 
d="M99 1v108h109v-126q0 -64 -37 -102t-104 -38v51q40 0 60 20.5t20 68.5v18h-48z" />
    <glyph glyph-name="hyphen" unicode="-" horiz-adv-x="451" 
d="M87 244v73h277v-73h-277z" />
    <glyph glyph-name="period" unicode="." horiz-adv-x="307" 
d="M99 0v109h109v-109h-109z" />
    <glyph glyph-name="slash" unicode="/" horiz-adv-x="507" 
d="M50 -108l326 844h81l-326 -844h-81z" />
    <glyph glyph-name="zero" unicode="0" horiz-adv-x="677" 
d="M54 357q0 162 78 265.5t206 103.5q129 0 206.5 -103t77.5 -266t-77.5 -266t-206.5 -103q-128 0 -206 103.5t-78 265.5zM142 357q0 -135 50.5 -215t145.5 -80q96 0 146.5 80t50.5 215t-50.5 215t-146.5 80q-95 0 -145.5 -80t-50.5 -215z" />
    <glyph glyph-name="one" unicode="1" horiz-adv-x="365" 
d="M25 551v58q89 0 129.5 25.5t53.5 82.5h53v-717h-86v551h-150z" />
    <glyph glyph-name="two" unicode="2" horiz-adv-x="572" 
d="M523 518q0 -20 -4 -38.5t-8 -33t-15.5 -31.5t-18 -27t-24 -26t-24.5 -23t-30 -22.5t-29.5 -20t-33 -21.5t-31.5 -20q-41 -27 -65 -45t-52.5 -43t-42 -48.5t-13.5 -46.5h398v-72h-490v39q0 45 19.5 87t56.5 78t71 61.5t82 55.5q44 28 68.5 46t52 43.5t39.5 51.5t12 56
q0 57 -35.5 96.5t-109.5 39.5q-71 0 -113.5 -46t-47.5 -114h-81q6 99 70.5 165.5t172.5 66.5q107 0 166.5 -61.5t59.5 -146.5z" />
    <glyph glyph-name="three" unicode="3" horiz-adv-x="607" 
d="M553 194q0 -87 -66.5 -146.5t-182.5 -59.5q-114 0 -184 59.5t-78 161.5h84q5 -68 51.5 -109.5t126.5 -41.5q78 0 123 37t45 102q0 61 -42 95.5t-114 34.5h-78v70h75q62 0 101 30t39 95q0 58 -38 96t-108 38q-73 0 -116.5 -44.5t-47.5 -111.5h-81q6 98 70 162t175 64
q109 0 169 -59t60 -144q0 -64 -37 -107.5t-91 -51.5q64 -10 104.5 -57t40.5 -113z" />
    <glyph glyph-name="four" unicode="4" horiz-adv-x="661" 
d="M475 714v-449h153v-69h-153v-196h-84v196h-354v70l341 448h97zM391 625l-271 -360h271v360z" />
    <glyph glyph-name="five" unicode="5" horiz-adv-x="606" 
d="M307 405q-102 0 -152 -80h-77l40 389h402v-73h-340l-24 -236q24 30 67 50t91 20q109 0 175.5 -69.5t66.5 -173.5q0 -105 -67.5 -174.5t-181.5 -69.5q-109 0 -179.5 60.5t-78.5 163.5h85q5 -69 52 -111.5t122 -42.5q80 0 122.5 50.5t42.5 123.5t-43 123t-123 50z" />
    <glyph glyph-name="six" unicode="6" horiz-adv-x="625" 
d="M335 654q-96 0 -148.5 -89t-52.5 -233q19 61 72 103t130 42q105 0 170.5 -68.5t65.5 -172.5q0 -109 -68 -178.5t-179 -69.5q-120 0 -195.5 97.5t-75.5 259.5q0 169 79 275t203 106q95 0 156 -52.5t73 -142.5h-79q-26 123 -151 123zM325 58q75 0 120.5 49.5t45.5 125.5
q0 77 -45 125.5t-121 48.5q-75 0 -121.5 -49t-46.5 -125t47 -125.5t121 -49.5z" />
    <glyph glyph-name="seven" unicode="7" horiz-adv-x="571" 
d="M435 641h-408v73h502v-61q-123 -149 -177 -306t-56 -347h-90q4 355 229 641z" />
    <glyph glyph-name="eight" unicode="8" horiz-adv-x="640" 
d="M319 726q103 0 169.5 -53.5t66.5 -143.5q0 -59 -31.5 -102t-86.5 -65q60 -11 105 -58.5t45 -108.5q0 -93 -73 -150t-195 -57q-121 0 -194 57t-73 150q0 61 45 108.5t105 58.5q-54 22 -86 65t-32 102q0 90 66.5 143.5t168.5 53.5zM319 399q68 0 112.5 33.5t44.5 96.5
q0 62 -44.5 95.5t-112.5 33.5t-112 -33.5t-44 -95.5q0 -63 44 -96.5t112 -33.5zM319 57q85 0 133.5 37.5t48.5 100.5t-48.5 99t-133.5 36q-84 0 -132.5 -36.5t-48.5 -98.5q0 -63 48.5 -100.5t132.5 -37.5z" />
    <glyph glyph-name="nine" unicode="9" horiz-adv-x="625" 
d="M290 60q96 0 148.5 89t52.5 233q-19 -61 -72 -103t-130 -42q-105 0 -170.5 68.5t-65.5 172.5q0 109 68 178.5t179 69.5q120 0 195.5 -97.5t75.5 -259.5q0 -169 -79 -275t-203 -106q-95 0 -156 52.5t-73 142.5h79q26 -123 151 -123zM300 656q-75 0 -120.5 -49.5
t-45.5 -125.5q0 -77 45 -125.5t121 -48.5q75 0 121.5 49t46.5 125t-47 125.5t-121 49.5z" />
    <glyph glyph-name="colon" unicode=":" horiz-adv-x="307" 
d="M99 340v109h109v-109h-109zM99 0v109h109v-109h-109z" />
    <glyph glyph-name="semicolon" unicode=";" horiz-adv-x="307" 
d="M99 340v109h109v-109h-109zM99 1v108h109v-126q0 -64 -37 -102t-104 -38v51q40 0 60 20.5t20 68.5v18h-48z" />
    <glyph glyph-name="less" unicode="&#x3c;" 
d="M98 289v83l445 217v-79l-371 -179l371 -179v-80z" />
    <glyph glyph-name="equal" unicode="=" 
d="M77 385v67h505v-67h-505zM77 198v66h505v-66h-505z" />
    <glyph glyph-name="greater" unicode="&#x3e;" 
d="M561 289l-445 -217v80l371 179l-371 179v79l445 -217v-83z" />
    <glyph glyph-name="question" unicode="?" horiz-adv-x="565" 
d="M518 519q0 -49 -24 -92.5t-49 -66t-69 -55.5q-22 -17 -34 -28t-24 -33t-13 -50h-83q1 51 28.5 90t82.5 81q31 24 49 40.5t36 48t18 64.5q0 57 -35.5 97t-108.5 40q-74 0 -116 -46t-46 -114h-82q6 99 70.5 165t173.5 66q107 0 166.5 -60.5t59.5 -146.5zM209 0v106h109
v-106h-109z" />
    <glyph glyph-name="at" unicode="@" horiz-adv-x="917" 
d="M660 441l-51 -290q-12 -64 46 -64q63 0 104.5 60t41.5 164q0 126 -86 202.5t-227 76.5q-162 0 -265 -106t-103 -265q0 -87 31.5 -153.5t85 -104.5t117.5 -57t135 -19q119 0 221 42l20 -48q-108 -50 -241 -50q-84 0 -159.5 23t-137 69t-97.5 122.5t-36 175.5
q0 180 120.5 304t308.5 124q166 0 270 -95.5t104 -240.5q0 -131 -65.5 -204t-152.5 -73q-40 0 -69 18.5t-39 51.5q-18 -29 -51 -48t-71 -19q-70 0 -109.5 48t-39.5 121q0 98 58 171t149 73q38 0 67 -19.5t40 -46.5l10 57h71zM550 214l6 42q11 62 -12.5 95.5t-66.5 33.5
q-60 0 -98.5 -52t-39.5 -120q-1 -51 23.5 -81t67.5 -30q39 0 74 29t46 83z" />
    <glyph glyph-name="A" unicode="A" horiz-adv-x="710" 
d="M603 0l-79 199h-342l-79 -199h-86l289 714h97l290 -714h-90zM352 628l-142 -358h286l-141 358h-3z" />
    <glyph glyph-name="B" unicode="B" horiz-adv-x="674" 
d="M376 0h-283v714h251q120 0 185.5 -49t65.5 -142q0 -49 -32.5 -93.5t-78.5 -58.5q66 -17 104.5 -62.5t38.5 -108.5q0 -97 -65.5 -148.5t-185.5 -51.5zM178 399h171q79 0 119 32t40 91q0 122 -158 122h-172v-245zM178 332v-262h194q81 0 125 34t44 96t-45 97t-126 35h-192z
" />
    <glyph glyph-name="C" unicode="C" horiz-adv-x="686" 
d="M138 358q0 -135 61.5 -216t170.5 -81q159 0 188 147h84q-18 -101 -88 -160.5t-184 -59.5q-140 0 -230 101.5t-90 268.5q0 166 90 267t230 101q114 0 184 -59.5t88 -160.5h-84q-29 147 -188 147q-109 0 -170.5 -80t-61.5 -215z" />
    <glyph glyph-name="D" unicode="D" horiz-adv-x="744" 
d="M346 714q156 0 252 -98.5t96 -258.5q0 -161 -96 -259t-252 -98h-253v714h253zM346 642h-168v-570h168q123 0 191 76.5t68 208.5q0 131 -68 208t-191 77z" />
    <glyph glyph-name="E" unicode="E" horiz-adv-x="642" 
d="M576 0h-483v714h482v-72h-397v-249h353v-73h-353v-248h398v-72z" />
    <glyph glyph-name="F" unicode="F" horiz-adv-x="614" 
d="M93 0v714h457v-72h-371v-261h337v-72h-337v-309h-86z" />
    <glyph glyph-name="G" unicode="G" horiz-adv-x="746" 
d="M50 358q0 166 93 267t237 101q116 0 188 -59t91 -161h-86q-15 69 -64 108t-129 39q-113 0 -177.5 -80t-64.5 -215t63.5 -216t175.5 -81q91 0 150 52t59 138v37h-169v68h253v-356h-68l-8 119q-20 -57 -83 -94t-135 -37q-143 0 -234.5 101.5t-91.5 268.5z" />
    <glyph glyph-name="H" unicode="H" horiz-adv-x="776" 
d="M93 0v714h86v-315h418v315h86v-714h-86v327h-418v-327h-86z" />
    <glyph glyph-name="I" unicode="I" horiz-adv-x="273" 
d="M93 0v714h86v-714h-86z" />
    <glyph glyph-name="J" unicode="J" horiz-adv-x="569" 
d="M401 252v462h86v-461q0 -122 -64.5 -193.5t-176.5 -71.5q-100 0 -165.5 57.5t-68.5 160.5h83q4 -73 45 -111.5t106 -38.5q79 0 117 51.5t38 144.5z" />
    <glyph glyph-name="K" unicode="K" horiz-adv-x="708" 
d="M574 0l-286 340l-109 -111v-229h-86v714h86v-388l376 388h104l-311 -314l330 -400h-104z" />
    <glyph glyph-name="L" unicode="L" horiz-adv-x="621" 
d="M93 0v714h86v-642h384v-72h-470z" />
    <glyph glyph-name="M" unicode="M" horiz-adv-x="889" 
d="M479 0h-70l-232 626h-2v-626h-82v714h133l220 -602h2l220 602h128v-714h-83v626h-2z" />
    <glyph glyph-name="N" unicode="N" horiz-adv-x="759" 
d="M199 714l381 -570h2v570h83v-714h-80l-406 609h-2v-609h-84v714h106z" />
    <glyph glyph-name="O" unicode="O" horiz-adv-x="750" 
d="M700 357q0 -163 -89 -266t-236 -103t-236 103t-89 266q0 162 89 265.5t236 103.5t236 -103.5t89 -265.5zM611 357q0 133 -61 214.5t-175 81.5t-175.5 -81t-61.5 -215t61.5 -215t175.5 -81t175 81t61 215z" />
    <glyph glyph-name="P" unicode="P" horiz-adv-x="651" 
d="M358 287h-180v-287h-85v714h264q120 0 185.5 -54.5t65.5 -158.5q0 -105 -65 -159.5t-185 -54.5zM178 359h177q167 0 167 142q0 141 -167 141h-177v-283z" />
    <glyph glyph-name="Q" unicode="Q" horiz-adv-x="750" 
d="M658 -7l-48 -44l-75 80q-68 -41 -160 -41q-147 0 -236 103t-89 266q0 162 89 265.5t236 103.5t236 -103.5t89 -265.5q0 -185 -112 -289zM138 357q0 -134 61.5 -215t175.5 -81q59 0 107 24l-84 90l49 45l88 -95q76 79 76 232q0 133 -61 214.5t-175 81.5t-175.5 -81
t-61.5 -215z" />
    <glyph glyph-name="R" unicode="R" horiz-adv-x="689" 
d="M178 0h-85v714h275q120 0 185.5 -55t65.5 -157q0 -81 -47.5 -132.5t-117.5 -67.5l196 -302h-97l-185 289h-190v-289zM178 361h185q82 0 125.5 36t43.5 105q0 67 -44 103.5t-125 36.5h-185v-281z" />
    <glyph glyph-name="S" unicode="S" horiz-adv-x="656" 
d="M47 211h83q8 -81 65.5 -117.5t145.5 -36.5q78 0 127.5 36t49.5 99q0 47 -30 75.5t-100 41.5l-136 27q-182 34 -182 185q0 89 69.5 147t179.5 58q117 0 187.5 -50t80.5 -145h-83q-9 60 -58 93t-126 33q-76 0 -121 -37.5t-45 -95.5q0 -51 29.5 -75.5t97.5 -37.5l140 -29
q88 -18 134 -61.5t46 -124.5q0 -91 -73 -149.5t-186 -58.5q-124 0 -206 56t-89 167z" />
    <glyph glyph-name="T" unicode="T" horiz-adv-x="699" 
d="M306 0v642h-266v72h619v-72h-267v-642h-86z" />
    <glyph glyph-name="U" unicode="U" horiz-adv-x="743" 
d="M660 291q0 -146 -75.5 -224.5t-213.5 -78.5q-137 0 -213 79t-76 226v421h86v-428q0 -112 53.5 -168.5t149.5 -56.5q97 0 150 56.5t53 168.5v428h86v-423z" />
    <glyph glyph-name="V" unicode="V" horiz-adv-x="710" 
d="M305 0l-288 714h90l248 -626h2l248 626h88l-290 -714h-98z" />
    <glyph glyph-name="W" unicode="W" horiz-adv-x="972" 
d="M648 0l-161 600h-2l-162 -600h-97l-201 714h91l164 -607h2l161 607h91l162 -607h2l163 607h86l-201 -714h-98z" />
    <glyph glyph-name="X" unicode="X" horiz-adv-x="702" 
d="M585 0l-239 315l-236 -315h-93l283 375l-256 339h101l205 -274l205 274h93l-252 -333l289 -381h-100z" />
    <glyph glyph-name="Y" unicode="Y" horiz-adv-x="664" 
d="M375 0h-86v296l-272 418h95l223 -341h2l216 341h95l-273 -418v-296z" />
    <glyph glyph-name="Z" unicode="Z" horiz-adv-x="666" 
d="M607 646l-444 -574h447v-72h-557v61l446 581h-431v72h539v-68z" />
    <glyph glyph-name="bracketleft" unicode="[" horiz-adv-x="395" 
d="M184 672v-716h141v-64h-220v844h220v-64h-141z" />
    <glyph glyph-name="backslash" unicode="\" horiz-adv-x="507" 
d="M50 736h81l326 -844h-81z" />
    <glyph glyph-name="bracketright" unicode="]" horiz-adv-x="395" 
d="M211 -44v716h-141v64h220v-844h-220v64h141z" />
    <glyph glyph-name="asciicircum" unicode="^" horiz-adv-x="441" 
d="M186 726h69l156 -248h-78l-113 177l-113 -177h-78z" />
    <glyph glyph-name="underscore" unicode="_" horiz-adv-x="436" 
d="M33 -118v67h370v-67h-370z" />
    <glyph glyph-name="grave" unicode="`" horiz-adv-x="565" 
d="M363 580h-52l-110 156h106z" />
    <glyph glyph-name="a" unicode="a" horiz-adv-x="552" 
d="M397 0q-9 42 -9 85q-16 -44 -64 -70t-111 -26q-69 0 -116 38.5t-47 105.5q0 131 174 151l162 21v29q0 58 -32 86t-86 28q-50 0 -80 -24.5t-35 -68.5h-80q7 75 61 117.5t136 42.5q94 0 146 -45t52 -134v-231q0 -65 12 -105h-83zM230 52q63 0 109.5 38.5t46.5 107.5v45
l-137 -15q-56 -8 -85.5 -27t-29.5 -66q0 -37 25 -60t71 -23z" />
    <glyph glyph-name="b" unicode="b" horiz-adv-x="615" 
d="M169 88v-88h-80v736h83v-322q19 42 62.5 71.5t104.5 29.5q97 0 160.5 -73t63.5 -191t-63.5 -190.5t-160.5 -72.5q-59 0 -104.5 29t-65.5 71zM168 259v-14q0 -87 41 -139.5t113 -52.5q73 0 115 54.5t42 143.5q0 90 -42 144.5t-115 54.5q-72 0 -113 -52t-41 -139z" />
    <glyph glyph-name="c" unicode="c" horiz-adv-x="539" 
d="M52 251q0 120 65.5 192t171.5 72q84 0 137 -45t65 -126h-79q-22 104 -123 104q-73 0 -114 -53.5t-41 -143.5t41 -143t114 -53q101 0 123 104h79q-12 -81 -65 -126t-137 -45q-106 0 -171.5 71.5t-65.5 191.5z" />
    <glyph glyph-name="d" unicode="d" horiz-adv-x="615" 
d="M446 0v88q-20 -42 -65.5 -71t-104.5 -29q-97 0 -160.5 72.5t-63.5 190.5t63.5 191t160.5 73q61 0 104.5 -29.5t62.5 -71.5v322h83v-736h-80zM447 245v14q0 87 -41 139t-113 52q-73 0 -115 -54.5t-42 -144.5q0 -89 42 -143.5t115 -54.5q72 0 113 52.5t41 139.5z" />
    <glyph glyph-name="e" unicode="e" horiz-adv-x="557" 
d="M502 148q-17 -77 -74 -118.5t-134 -41.5q-108 0 -175 70.5t-67 190.5q0 121 67 193.5t170 72.5q106 0 161 -71.5t55 -176.5v-33h-372q3 -86 45.5 -133t115.5 -47q98 0 130 94h78zM289 448q-61 0 -102 -39.5t-51 -114.5h288q-2 69 -36 111.5t-99 42.5z" />
    <glyph glyph-name="f" unicode="f" horiz-adv-x="311" 
d="M102 440h-73v63h73v94q0 69 40 105.5t106 36.5q31 0 56 -5v-66q-20 3 -51 3q-69 0 -69 -75v-93h108v-63h-108v-440h-82v440z" />
    <glyph glyph-name="g" unicode="g" horiz-adv-x="614" 
d="M441 32v74q-19 -41 -62 -69t-105 -28q-98 0 -160.5 69t-62.5 185q0 112 62.5 182t160.5 70q61 0 105.5 -29.5t64.5 -70.5v88h81v-465q0 -114 -65.5 -171t-172.5 -57q-92 0 -150 37.5t-73 109.5h84q22 -83 138 -83q75 0 115 40t40 118zM447 251v24q0 78 -44 126.5
t-114 48.5q-73 0 -114.5 -51t-41.5 -136t42 -136.5t114 -51.5q70 0 114 49t44 127z" />
    <glyph glyph-name="h" unicode="h" horiz-adv-x="597" 
d="M172 411q18 48 61 76t100 28q85 0 132.5 -50.5t47.5 -140.5v-324h-83v306q0 141 -120 141q-62 0 -100 -42t-38 -128v-277h-83v736h83v-325z" />
    <glyph glyph-name="i" unicode="i" horiz-adv-x="261" 
d="M83 608v101h94v-101h-94zM89 0v503h83v-503h-83z" />
    <glyph glyph-name="j" unicode="j" horiz-adv-x="261" 
d="M83 608v101h94v-101h-94zM37 -184q-23 0 -43 4v66q14 -3 27 -3q37 0 52.5 15t15.5 54v551h83v-548q0 -71 -33 -105t-102 -34z" />
    <glyph glyph-name="k" unicode="k" horiz-adv-x="558" 
d="M428 0l-191 237l-65 -63v-174h-83v736h83v-474l248 241h99l-222 -213l231 -290h-100z" />
    <glyph glyph-name="l" unicode="l" horiz-adv-x="261" 
d="M172 0h-83v736h83v-736z" />
    <glyph glyph-name="m" unicode="m" horiz-adv-x="906" 
d="M481 407q23 51 68 79.5t101 28.5q85 0 129 -50.5t44 -140.5v-324h-84v306q0 141 -109 141q-59 0 -95.5 -43t-36.5 -127v-277h-84v306q0 141 -109 141q-60 0 -96.5 -43t-36.5 -127v-277h-83v503h80v-92q18 48 61 76t98 28q118 0 153 -108z" />
    <glyph glyph-name="n" unicode="n" horiz-adv-x="597" 
d="M169 503v-92q18 47 62.5 75.5t101.5 28.5q85 0 132.5 -50.5t47.5 -140.5v-324h-83v306q0 141 -120 141q-62 0 -100 -42t-38 -128v-277h-83v503h80z" />
    <glyph glyph-name="o" unicode="o" horiz-adv-x="582" 
d="M530 251q0 -120 -66.5 -191.5t-172.5 -71.5t-172.5 71.5t-66.5 191.5t66.5 192t172.5 72t172.5 -72t66.5 -192zM134 251q0 -91 42 -143.5t115 -52.5t115 52.5t42 143.5t-42 144t-115 53t-115 -53t-42 -144z" />
    <glyph glyph-name="p" unicode="p" horiz-adv-x="615" 
d="M172 88v-266h-83v681h80v-92q19 43 64 73.5t106 30.5q97 0 160.5 -73t63.5 -191t-63.5 -190.5t-160.5 -72.5q-58 0 -102 29t-65 71zM168 259v-14q0 -87 41 -139.5t113 -52.5q73 0 115 54.5t42 143.5q0 90 -42 144.5t-115 54.5q-72 0 -113 -52t-41 -139z" />
    <glyph glyph-name="q" unicode="q" horiz-adv-x="615" 
d="M443 -178v266q-21 -42 -65 -71t-102 -29q-97 0 -160.5 72.5t-63.5 190.5t63.5 191t160.5 73q61 0 106 -30.5t64 -73.5v92h80v-681h-83zM447 245v14q0 87 -41 139t-113 52q-73 0 -115 -54.5t-42 -144.5q0 -89 42 -143.5t115 -54.5q72 0 113 52.5t41 139.5z" />
    <glyph glyph-name="r" unicode="r" horiz-adv-x="385" 
d="M368 510v-76q-16 4 -43 4q-64 0 -108.5 -49.5t-44.5 -140.5v-248h-83v503h80v-119q16 61 59.5 95.5t100.5 34.5q23 0 39 -4z" />
    <glyph glyph-name="s" unicode="s" horiz-adv-x="516" 
d="M46 149h80q4 -49 43.5 -73.5t94.5 -24.5q53 0 86 23t33 63q0 57 -88 73l-89 18q-67 12 -103.5 43t-36.5 93q0 65 52.5 108t134.5 43q88 0 139 -37t58 -108h-77q-4 38 -36 59.5t-84 21.5q-50 0 -80 -22.5t-30 -59.5q0 -31 21 -47t67 -25l100 -19q130 -25 130 -137
q0 -66 -55.5 -109.5t-140.5 -43.5q-93 0 -152.5 41t-66.5 120z" />
    <glyph glyph-name="t" unicode="t" horiz-adv-x="369" 
d="M323 74v-68q-47 -14 -88 -14q-139 0 -139 137v311h-74v63h74v128h82v-128h132v-63h-133v-307q0 -71 73 -71q35 0 73 12z" />
    <glyph glyph-name="u" unicode="u" horiz-adv-x="592" 
d="M503 0h-81v91q-18 -48 -60.5 -75.5t-99.5 -27.5q-85 0 -131.5 49.5t-46.5 141.5v324h84v-308q0 -142 118 -142q60 0 96.5 43t36.5 130v277h84v-503z" />
    <glyph glyph-name="v" unicode="v" horiz-adv-x="544" 
d="M229 0l-201 503h85l162 -421h2l155 421h83l-193 -503h-93z" />
    <glyph glyph-name="w" unicode="w" horiz-adv-x="765" 
d="M426 503l114 -413h2l116 413h80l-152 -503h-86l-116 407h-3l-114 -407h-87l-152 503h82l117 -413h3l112 413h84z" />
    <glyph glyph-name="x" unicode="x" horiz-adv-x="556" 
d="M127 0h-89l191 259l-181 244h98l134 -185l133 185h90l-178 -240l194 -263h-97l-149 202z" />
    <glyph glyph-name="y" unicode="y" horiz-adv-x="542" 
d="M230 -4l-202 507h87l160 -411h2l151 411h86l-203 -518q-36 -94 -73.5 -132t-104.5 -39q-22 0 -49 5v68q16 -4 40 -4q37 0 59 24t47 89z" />
    <glyph glyph-name="z" unicode="z" horiz-adv-x="519" 
d="M455 442l-300 -378h311v-64h-414v54l302 385h-290v64h391v-61z" />
    <glyph glyph-name="braceleft" unicode="{" horiz-adv-x="416" 
d="M33 281v66h51q52 0 52 54v230q0 105 114 105h96v-64h-80q-28 0 -41 -9t-13 -36v-231q0 -69 -69 -82q69 -13 69 -82v-231q0 -27 13 -36t41 -9h80v-64h-96q-114 0 -114 105v230q0 54 -52 54h-51z" />
    <glyph glyph-name="bar" unicode="|" horiz-adv-x="307" 
d="M116 736h75v-844h-75v844z" />
    <glyph glyph-name="braceright" unicode="}" horiz-adv-x="416" 
d="M383 347v-66h-51q-52 0 -52 -54v-230q0 -105 -114 -105h-96v64h80q28 0 41 9t13 36v231q0 69 69 82q-69 13 -69 82v231q0 27 -13 36t-41 9h-80v64h96q114 0 114 -105v-230q0 -54 52 -54h51z" />
    <glyph glyph-name="asciitilde" unicode="~" horiz-adv-x="511" 
d="M186 310q-40 0 -44 -73h-55q0 64 24.5 103t69.5 39q26 0 53.5 -18.5t50.5 -36.5t39 -18q40 0 44 73h56q0 -65 -25 -103.5t-70 -38.5q-34 0 -79.5 36.5t-63.5 36.5z" />
    <glyph glyph-name="uni00A0" unicode="&#xa0;" horiz-adv-x="217" 
 />
    <glyph glyph-name="exclamdown" unicode="&#xa1;" horiz-adv-x="308" 
d="M99 606v108h109v-108h-109zM203 0h-98l16 497h67z" />
    <glyph glyph-name="cent" unicode="&#xa2;" horiz-adv-x="558" 
d="M510 163q-12 -75 -61.5 -119.5t-123.5 -51.5v-98h-58v99q-95 11 -153.5 82t-58.5 181t58.5 181.5t153.5 82.5v120h58v-119q74 -7 123.5 -52t61.5 -119h-72q-20 95 -113 107v-401q93 12 113 107h72zM132 256q0 -81 35.5 -133.5t99.5 -64.5v397q-63 -12 -99 -65t-36 -134z
" />
    <glyph glyph-name="sterling" unicode="&#xa3;" horiz-adv-x="631" 
d="M581 72v-72h-521v72h12q48 0 78 47t30 120q0 26 -7 56h-97v66h71q-1 2 -8 16.5t-8.5 18.5t-7.5 17t-8 19.5t-6 19t-5 21.5t-2.5 21t-1.5 24q0 80 63 144t169 64q112 0 170.5 -64.5t64.5 -166.5h-80q-5 71 -42 115.5t-113 44.5q-69 0 -108.5 -41.5t-39.5 -97.5
q0 -20 5.5 -42.5t10.5 -36t17.5 -40t16.5 -36.5h206v-66h-185q6 -25 6 -54q0 -109 -69 -169h389z" />
    <glyph glyph-name="yen" unicode="&#xa5;" horiz-adv-x="671" 
d="M587 165h-209v-165h-85v165h-209v61h209v91h-209v61h175l-228 336h94l212 -317h2l207 317h94l-228 -336h176v-61h-210v-91h209v-61z" />
    <glyph glyph-name="section" unicode="&#xa7;" horiz-adv-x="580" 
d="M468 12q0 -66 -51.5 -108.5t-135.5 -42.5q-87 0 -139 40.5t-60 112.5h75q6 -40 40 -65t84 -25q51 0 80.5 24t29.5 62q0 31 -16.5 51t-56.5 44l-119 70q-70 40 -100 78t-30 92q0 78 75 126q-40 42 -40 105q0 65 50.5 107.5t133.5 42.5q87 0 138.5 -37t59.5 -108h-76
q-5 39 -38 60.5t-83 21.5q-51 0 -79 -24t-28 -61q0 -32 16 -52t55 -44l120 -69q70 -41 100 -79.5t30 -91.5q0 -77 -76 -126q41 -43 41 -104zM345 175q3 -2 9.5 -5.5t11.5 -6.5t9 -6q54 27 54 83q0 32 -19 54t-71 53l-112 65q-3 2 -9.5 5.5t-11.5 6.5t-9 6q-54 -27 -54 -83
q0 -32 18.5 -54t70.5 -52z" />
    <glyph glyph-name="dieresis" unicode="&#xa8;" horiz-adv-x="565" 
d="M331 608v101h85v-101h-85zM149 608v101h84v-101h-84z" />
    <glyph glyph-name="copyright" unicode="&#xa9;" horiz-adv-x="870" 
d="M804 356q0 -152 -108 -260t-261 -108q-152 0 -261 108t-109 260q0 154 108.5 262.5t261.5 108.5t261 -108.5t108 -262.5zM109 356q0 -134 95.5 -229.5t230.5 -95.5t230.5 95.5t95.5 229.5q0 136 -95.5 232t-230.5 96t-230.5 -96t-95.5 -232zM310 358q0 -72 34 -114.5
t97 -43.5q47 1 73 23.5t33 57.5h70q-12 -66 -56.5 -104.5t-119.5 -38.5q-89 0 -146 61t-57 159t57 159t146 61q75 0 119.5 -38.5t56.5 -104.5h-70q-7 35 -33 58t-73 23q-63 0 -97 -43t-34 -115z" />
    <glyph glyph-name="ordfeminine" unicode="&#xaa;" horiz-adv-x="397" 
d="M267 438q-12 -29 -42.5 -45.5t-71.5 -16.5q-47 0 -78.5 26t-31.5 71q0 85 117 99l104 12v19q0 69 -70 69q-31 0 -49.5 -15.5t-20.5 -41.5h-66q4 52 42 81.5t95 29.5q66 0 101.5 -31.5t35.5 -93.5v-141q0 -42 7 -76h-67q-5 22 -5 54zM264 513v29l-83 -10q-33 -4 -51 -16
t-18 -40q0 -23 15 -37.5t43 -14.5q38 0 66 24t28 65zM54 251v53h287v-53h-287z" />
    <glyph glyph-name="guillemotleft" unicode="&#xab;" horiz-adv-x="511" 
d="M450 45h-62l-132 196l132 196h62l-109 -196zM255 45h-61l-133 196l133 196h61l-107 -196z" />
    <glyph glyph-name="registered" unicode="&#xae;" horiz-adv-x="571" 
d="M286 726q96 0 163 -66t67 -165q0 -100 -67 -166t-163 -66q-97 0 -164 66t-67 166q0 99 67.5 165t163.5 66zM286 293q84 0 141 57.5t57 144.5t-57.5 144t-140.5 57t-140.5 -57t-57.5 -144t57 -144.5t141 -57.5zM242 376h-48v245h106q42 0 66 -20t24 -57q0 -53 -49 -71
l58 -97h-53l-54 89h-50v-89zM242 505h51q48 0 48 39q0 38 -48 38h-51v-77z" />
    <glyph glyph-name="macron" unicode="&#xaf;" horiz-adv-x="565" 
d="M140 608v62h285v-62h-285z" />
    <glyph glyph-name="degree" unicode="&#xb0;" horiz-adv-x="357" 
d="M179 451q-60 0 -100 39t-40 98q0 60 40 99t100 39t100 -39t40 -99q0 -58 -40.5 -97.5t-99.5 -39.5zM179 673q-38 0 -62.5 -24t-24.5 -61q0 -36 25 -60t62 -24t61.5 24t24.5 60q0 37 -24.5 61t-61.5 24z" />
    <glyph glyph-name="twosuperior" unicode="&#xb2;" horiz-adv-x="359" 
d="M318 605q0 -26 -8.5 -46.5t-29.5 -39t-35.5 -28t-46.5 -29.5q-87 -51 -88 -86h217v-53h-289v26q0 34 21 66t44.5 50.5t59.5 40.5q49 30 70.5 50.5t21.5 48.5q0 27 -18 45.5t-53 18.5t-55.5 -22.5t-22.5 -54.5h-64q4 55 42 92.5t101 37.5q60 0 96.5 -34t36.5 -83z" />
    <glyph glyph-name="threesuperior" unicode="&#xb3;" horiz-adv-x="373" 
d="M331 429q0 -48 -38.5 -80.5t-104.5 -32.5t-106.5 33t-45.5 89h64q3 -32 26.5 -51t61.5 -19q37 0 58.5 17.5t21.5 47.5q0 29 -21 45t-56 16h-40v51h38q30 0 49.5 15t19.5 45q0 28 -18.5 46.5t-51.5 18.5q-35 0 -55.5 -20.5t-22.5 -52.5h-62q3 54 40 90t100 36
q64 0 98.5 -33.5t34.5 -82.5q0 -34 -20 -58.5t-50 -29.5q36 -6 58 -30.5t22 -59.5z" />
    <glyph glyph-name="acute" unicode="&#xb4;" horiz-adv-x="565" 
d="M254 580h-52l56 156h106z" />
    <glyph glyph-name="paragraph" unicode="&#xb6;" horiz-adv-x="624" 
d="M281 -127v457q-115 0 -178 51t-63 141t63 141t178 51h248v-841h-71v773h-106v-773h-71z" />
    <glyph glyph-name="periodcentered" unicode="&#xb7;" horiz-adv-x="283" 
d="M87 228v109h109v-109h-109z" />
    <glyph glyph-name="cedilla" unicode="&#xb8;" horiz-adv-x="627" 
d="M417 -109q0 -41 -34 -63t-80 -22q-48 0 -86 19v49q41 -21 86 -21q56 0 56 34q0 26 -31 31.5t-55 -5.5l-20 21l57 92h43l-42 -66q41 4 73.5 -13t32.5 -56z" />
    <glyph glyph-name="onesuperior" unicode="&#xb9;" horiz-adv-x="332" 
d="M310 373v-50h-267v50h101v237h-100v47q67 0 90 13t31 46h44v-343h101z" />
    <glyph glyph-name="ordmasculine" unicode="&#xba;" horiz-adv-x="415" 
d="M44 551q0 80 45.5 127.5t118.5 47.5q72 0 118 -47.5t46 -127.5q0 -81 -46 -128.5t-118 -47.5q-73 0 -118.5 47.5t-45.5 128.5zM113 551q0 -58 25 -90.5t70 -32.5q44 0 69 32.5t25 90.5q0 56 -25 88.5t-69 32.5q-45 0 -70 -32.5t-25 -88.5zM64 251v53h287v-53h-287z" />
    <glyph glyph-name="guillemotright" unicode="&#xbb;" horiz-adv-x="511" 
d="M123 42h-62l109 196l-109 196h62l132 -196zM317 42h-61l107 196l-107 196h61l133 -196z" />
    <glyph glyph-name="onequarter" unicode="&#xbc;" horiz-adv-x="925" 
d="M231 -12h-70l516 739h69zM335 373v-50h-267v50h101v237h-100v47q67 0 90 13t31 46h44v-343h101zM771 391v-248h80v-49h-80v-94h-63v94h-195v50l185 247h73zM708 327l-135 -184h135v184z" />
    <glyph glyph-name="onehalf" unicode="&#xbd;" horiz-adv-x="936" 
d="M239 -12h-70l516 739h69zM335 373v-50h-267v50h101v237h-100v47q67 0 90 13t31 46h44v-343h101zM859 282q0 -26 -8.5 -46.5t-29.5 -39t-35.5 -28t-46.5 -29.5q-87 -51 -88 -86h217v-53h-289v26q0 34 21 66t44.5 50.5t59.5 40.5q49 30 70.5 50.5t21.5 48.5q0 27 -18 45.5
t-53 18.5t-55.5 -22.5t-22.5 -54.5h-64q4 55 42 92.5t101 37.5q60 0 96.5 -34t36.5 -83z" />
    <glyph glyph-name="threequarters" unicode="&#xbe;" horiz-adv-x="944" 
d="M257 -12h-70l516 739h69zM356 429q0 -48 -38.5 -80.5t-104.5 -32.5t-106.5 33t-45.5 89h64q3 -32 26.5 -51t61.5 -19q37 0 58.5 17.5t21.5 47.5q0 29 -21 45t-56 16h-40v51h38q30 0 49.5 15t19.5 45q0 28 -18.5 46.5t-51.5 18.5q-35 0 -55.5 -20.5t-22.5 -52.5h-62
q3 54 40 90t100 36q64 0 98.5 -33.5t34.5 -82.5q0 -34 -20 -58.5t-50 -29.5q36 -6 58 -30.5t22 -59.5zM799 391v-248h80v-49h-80v-94h-63v94h-195v50l185 247h73zM736 327l-135 -184h135v184z" />
    <glyph glyph-name="questiondown" unicode="&#xbf;" horiz-adv-x="565" 
d="M356 714v-106h-109v106h109zM47 195q0 49 24 92.5t49 66t69 55.5q22 17 34 28t24 33t13 50h83q-1 -51 -28.5 -90t-82.5 -81q-31 -24 -49 -40.5t-36 -48t-18 -64.5q0 -57 35.5 -97t108.5 -40q74 0 116 46t46 114h82q-6 -99 -70.5 -165t-173.5 -66q-107 0 -166.5 60.5
t-59.5 146.5z" />
    <glyph glyph-name="Agrave" unicode="&#xc0;" horiz-adv-x="710" 
d="M383 767h-51l-112 148h106zM603 0l-79 199h-342l-79 -199h-86l289 714h97l290 -714h-90zM352 628l-142 -358h286l-141 358h-3z" />
    <glyph glyph-name="Aacute" unicode="&#xc1;" horiz-adv-x="710" 
d="M380 767h-51l57 148h106zM603 0l-79 199h-342l-79 -199h-86l289 714h97l290 -714h-90zM352 628l-142 -358h286l-141 358h-3z" />
    <glyph glyph-name="Acircumflex" unicode="&#xc2;" horiz-adv-x="710" 
d="M310 915h91l92 -150h-52l-85 93l-85 -93h-53zM603 0l-79 199h-342l-79 -199h-86l289 714h97l290 -714h-90zM352 628l-142 -358h286l-141 358h-3z" />
    <glyph glyph-name="Atilde" unicode="&#xc3;" horiz-adv-x="710" 
d="M288 843q-39 0 -43 -72h-53q0 63 23.5 100.5t67.5 37.5q33 0 78 -36t62 -36q41 0 43 73h54q0 -63 -23.5 -101t-68.5 -38q-26 0 -52.5 18t-49 36t-38.5 18zM603 0l-79 199h-342l-79 -199h-86l289 714h97l290 -714h-90zM352 628l-142 -358h286l-141 358h-3z" />
    <glyph glyph-name="Adieresis" unicode="&#xc4;" horiz-adv-x="710" 
d="M404 785v101h85v-101h-85zM222 785v101h84v-101h-84zM603 0l-79 199h-342l-79 -199h-86l289 714h97l290 -714h-90zM352 628l-142 -358h286l-141 358h-3z" />
    <glyph glyph-name="Aring" unicode="&#xc5;" horiz-adv-x="710" 
d="M182 199l-79 -199h-86l276 682q-59 37 -59 105q0 50 36 86.5t86 36.5q51 0 86 -36t35 -87q0 -70 -60 -107l276 -680h-90l-79 199h-342zM356 856q-29 0 -49.5 -20.5t-20.5 -48.5q0 -29 21 -49.5t49 -20.5t48 20.5t20 49.5t-20 49t-48 20zM352 628l-142 -358h286l-141 358
h-3z" />
    <glyph glyph-name="AE" unicode="&#xc6;" horiz-adv-x="1095" 
d="M547 0v201h-305l-136 -201h-89l482 714h530v-72h-397v-249h353v-73h-353v-248h397v-72h-482zM547 653l-257 -381h257v381z" />
    <glyph glyph-name="Ccedilla" unicode="&#xc7;" horiz-adv-x="686" 
d="M469 -109q0 -41 -34 -63t-80 -22q-48 0 -86 19v49q41 -21 86 -21q56 0 56 34q0 26 -31 31.5t-55 -5.5l-20 21l34 55q-128 12 -208.5 112t-80.5 257q0 166 90 267t230 101q114 0 184 -59.5t88 -160.5h-84q-29 147 -188 147q-109 0 -170.5 -80t-61.5 -215t61.5 -216
t170.5 -81q159 0 188 147h84q-17 -98 -84.5 -157.5t-176.5 -62.5l-18 -28q41 4 73.5 -13t32.5 -56z" />
    <glyph glyph-name="Egrave" unicode="&#xc8;" horiz-adv-x="642" 
d="M370 767h-51l-112 148h106zM576 0h-483v714h482v-72h-397v-249h353v-73h-353v-248h398v-72z" />
    <glyph glyph-name="Eacute" unicode="&#xc9;" horiz-adv-x="642" 
d="M353 767h-51l57 148h106zM576 0h-483v714h482v-72h-397v-249h353v-73h-353v-248h398v-72z" />
    <glyph glyph-name="Ecircumflex" unicode="&#xca;" horiz-adv-x="642" 
d="M290 915h91l92 -150h-52l-85 93l-85 -93h-53zM576 0h-483v714h482v-72h-397v-249h353v-73h-353v-248h398v-72z" />
    <glyph glyph-name="Edieresis" unicode="&#xcb;" horiz-adv-x="642" 
d="M384 785v101h85v-101h-85zM202 785v101h84v-101h-84zM576 0h-483v714h482v-72h-397v-249h353v-73h-353v-248h398v-72z" />
    <glyph glyph-name="Igrave" unicode="&#xcc;" horiz-adv-x="273" 
d="M169 767h-51l-112 148h106zM93 0v714h86v-714h-86z" />
    <glyph glyph-name="Iacute" unicode="&#xcd;" horiz-adv-x="273" 
d="M161 767h-51l57 148h106zM93 0v714h86v-714h-86z" />
    <glyph glyph-name="Icircumflex" unicode="&#xce;" horiz-adv-x="273" 
d="M91 915h91l92 -150h-52l-85 93l-85 -93h-53zM93 0v714h86v-714h-86z" />
    <glyph glyph-name="Idieresis" unicode="&#xcf;" horiz-adv-x="273" 
d="M185 785v101h85v-101h-85zM3 785v101h84v-101h-84zM93 0v714h86v-714h-86z" />
    <glyph glyph-name="Eth" unicode="&#xd0;" horiz-adv-x="757" 
d="M707 357q0 -161 -96 -259t-252 -98h-253v327h-80v71h80v316h253q156 0 252 -98.5t96 -258.5zM191 72h168q123 0 191 76.5t68 208.5q0 131 -68 208t-191 77h-168v-244h153v-71h-153v-255z" />
    <glyph glyph-name="Ntilde" unicode="&#xd1;" horiz-adv-x="759" 
d="M308 843q-39 0 -43 -72h-53q0 63 23.5 100.5t67.5 37.5q33 0 78 -36t62 -36q41 0 43 73h54q0 -63 -23.5 -101t-68.5 -38q-26 0 -52.5 18t-49 36t-38.5 18zM199 714l381 -570h2v570h83v-714h-80l-406 609h-2v-609h-84v714h106z" />
    <glyph glyph-name="Ograve" unicode="&#xd2;" horiz-adv-x="750" 
d="M411 767h-51l-112 148h106zM700 357q0 -163 -89 -266t-236 -103t-236 103t-89 266q0 162 89 265.5t236 103.5t236 -103.5t89 -265.5zM611 357q0 133 -61 214.5t-175 81.5t-175.5 -81t-61.5 -215t61.5 -215t175.5 -81t175 81t61 215z" />
    <glyph glyph-name="Oacute" unicode="&#xd3;" horiz-adv-x="750" 
d="M397 767h-51l57 148h106zM700 357q0 -163 -89 -266t-236 -103t-236 103t-89 266q0 162 89 265.5t236 103.5t236 -103.5t89 -265.5zM611 357q0 133 -61 214.5t-175 81.5t-175.5 -81t-61.5 -215t61.5 -215t175.5 -81t175 81t61 215z" />
    <glyph glyph-name="Ocircumflex" unicode="&#xd4;" horiz-adv-x="750" 
d="M330 915h91l92 -150h-52l-85 93l-85 -93h-53zM700 357q0 -163 -89 -266t-236 -103t-236 103t-89 266q0 162 89 265.5t236 103.5t236 -103.5t89 -265.5zM611 357q0 133 -61 214.5t-175 81.5t-175.5 -81t-61.5 -215t61.5 -215t175.5 -81t175 81t61 215z" />
    <glyph glyph-name="Otilde" unicode="&#xd5;" horiz-adv-x="750" 
d="M307 843q-39 0 -43 -72h-53q0 63 23.5 100.5t67.5 37.5q33 0 78 -36t62 -36q41 0 43 73h54q0 -63 -23.5 -101t-68.5 -38q-26 0 -52.5 18t-49 36t-38.5 18zM700 357q0 -163 -89 -266t-236 -103t-236 103t-89 266q0 162 89 265.5t236 103.5t236 -103.5t89 -265.5zM611 357
q0 133 -61 214.5t-175 81.5t-175.5 -81t-61.5 -215t61.5 -215t175.5 -81t175 81t61 215z" />
    <glyph glyph-name="Odieresis" unicode="&#xd6;" horiz-adv-x="750" 
d="M424 785v101h85v-101h-85zM242 785v101h84v-101h-84zM700 357q0 -163 -89 -266t-236 -103t-236 103t-89 266q0 162 89 265.5t236 103.5t236 -103.5t89 -265.5zM611 357q0 133 -61 214.5t-175 81.5t-175.5 -81t-61.5 -215t61.5 -215t175.5 -81t175 81t61 215z" />
    <glyph glyph-name="multiply" unicode="&#xd7;" 
d="M513 102l-181 181l-182 -182l-48 48l182 182l-182 183l47 47l182 -183l182 182l48 -48l-182 -182l181 -181z" />
    <glyph glyph-name="Oslash" unicode="&#xd8;" horiz-adv-x="750" 
d="M375 -12q-114 0 -195 64l-62 -82l-47 35l67 88q-88 102 -88 264t89 265.5t236 103.5q114 0 196 -65l61 80l46 -35l-65 -86q87 -101 87 -263q0 -163 -89 -266t-236 -103zM138 357q0 -122 50 -199l336 442q-59 53 -149 53q-114 0 -175.5 -81t-61.5 -215zM611 357
q0 121 -49 197l-335 -441q58 -52 148 -52q114 0 175 81t61 215z" />
    <glyph glyph-name="Ugrave" unicode="&#xd9;" horiz-adv-x="743" 
d="M414 767h-51l-112 148h106zM660 291q0 -146 -75.5 -224.5t-213.5 -78.5q-137 0 -213 79t-76 226v421h86v-428q0 -112 53.5 -168.5t149.5 -56.5q97 0 150 56.5t53 168.5v428h86v-423z" />
    <glyph glyph-name="Uacute" unicode="&#xda;" horiz-adv-x="743" 
d="M380 767h-51l57 148h106zM660 291q0 -146 -75.5 -224.5t-213.5 -78.5q-137 0 -213 79t-76 226v421h86v-428q0 -112 53.5 -168.5t149.5 -56.5q97 0 150 56.5t53 168.5v428h86v-423z" />
    <glyph glyph-name="Ucircumflex" unicode="&#xdb;" horiz-adv-x="743" 
d="M326 915h91l92 -150h-52l-85 93l-85 -93h-53zM660 291q0 -146 -75.5 -224.5t-213.5 -78.5q-137 0 -213 79t-76 226v421h86v-428q0 -112 53.5 -168.5t149.5 -56.5q97 0 150 56.5t53 168.5v428h86v-423z" />
    <glyph glyph-name="Udieresis" unicode="&#xdc;" horiz-adv-x="743" 
d="M420 785v101h85v-101h-85zM238 785v101h84v-101h-84zM660 291q0 -146 -75.5 -224.5t-213.5 -78.5q-137 0 -213 79t-76 226v421h86v-428q0 -112 53.5 -168.5t149.5 -56.5q97 0 150 56.5t53 168.5v428h86v-423z" />
    <glyph glyph-name="Yacute" unicode="&#xdd;" horiz-adv-x="664" 
d="M354 767h-51l57 148h106zM375 0h-86v296l-272 418h95l223 -341h2l216 341h95l-273 -418v-296z" />
    <glyph glyph-name="Thorn" unicode="&#xde;" horiz-adv-x="651" 
d="M358 153h-180v-153h-85v714h85v-134h179q120 0 185.5 -55t65.5 -159t-65 -158.5t-185 -54.5zM178 225h177q167 0 167 141t-167 141h-177v-282z" />
    <glyph glyph-name="germandbls" unicode="&#xdf;" horiz-adv-x="618" 
d="M409 431q67 -16 112 -71t45 -132q0 -113 -70 -174t-172 -61q-33 0 -61 7v69q20 -6 53 -6q72 0 122.5 44t50.5 123q0 70 -48 115t-127 45h-37v69h35q55 0 88.5 30.5t33.5 83.5q0 49 -31 78.5t-88 29.5q-67 0 -105.5 -50t-38.5 -132v-499h-82v499q0 111 61.5 180t164.5 69
q91 0 143.5 -47t52.5 -123q0 -56 -31.5 -95.5t-70.5 -51.5z" />
    <glyph glyph-name="agrave" unicode="&#xe0;" horiz-adv-x="552" 
d="M310 580h-52l-110 156h106zM397 0q-9 42 -9 85q-16 -44 -64 -70t-111 -26q-69 0 -116 38.5t-47 105.5q0 131 174 151l162 21v29q0 58 -32 86t-86 28q-50 0 -80 -24.5t-35 -68.5h-80q7 75 61 117.5t136 42.5q94 0 146 -45t52 -134v-231q0 -65 12 -105h-83zM230 52
q63 0 109.5 38.5t46.5 107.5v45l-137 -15q-56 -8 -85.5 -27t-29.5 -66q0 -37 25 -60t71 -23z" />
    <glyph glyph-name="aacute" unicode="&#xe1;" horiz-adv-x="552" 
d="M291 580h-52l56 156h106zM397 0q-9 42 -9 85q-16 -44 -64 -70t-111 -26q-69 0 -116 38.5t-47 105.5q0 131 174 151l162 21v29q0 58 -32 86t-86 28q-50 0 -80 -24.5t-35 -68.5h-80q7 75 61 117.5t136 42.5q94 0 146 -45t52 -134v-231q0 -65 12 -105h-83zM230 52
q63 0 109.5 38.5t46.5 107.5v45l-137 -15q-56 -8 -85.5 -27t-29.5 -66q0 -37 25 -60t71 -23z" />
    <glyph glyph-name="acircumflex" unicode="&#xe2;" horiz-adv-x="552" 
d="M230 736h87l94 -158h-52l-85 104l-85 -104h-53zM397 0q-9 42 -9 85q-16 -44 -64 -70t-111 -26q-69 0 -116 38.5t-47 105.5q0 131 174 151l162 21v29q0 58 -32 86t-86 28q-50 0 -80 -24.5t-35 -68.5h-80q7 75 61 117.5t136 42.5q94 0 146 -45t52 -134v-231q0 -65 12 -105
h-83zM230 52q63 0 109.5 38.5t46.5 107.5v45l-137 -15q-56 -8 -85.5 -27t-29.5 -66q0 -37 25 -60t71 -23z" />
    <glyph glyph-name="atilde" unicode="&#xe3;" horiz-adv-x="552" 
d="M207 661q-40 0 -43 -76h-53q0 63 23.5 100.5t67.5 37.5q33 0 78 -37.5t62 -37.5q41 0 43 75h54q0 -63 -23.5 -100.5t-68.5 -37.5q-26 0 -52.5 19t-49 38t-38.5 19zM397 0q-9 42 -9 85q-16 -44 -64 -70t-111 -26q-69 0 -116 38.5t-47 105.5q0 131 174 151l162 21v29
q0 58 -32 86t-86 28q-50 0 -80 -24.5t-35 -68.5h-80q7 75 61 117.5t136 42.5q94 0 146 -45t52 -134v-231q0 -65 12 -105h-83zM230 52q63 0 109.5 38.5t46.5 107.5v45l-137 -15q-56 -8 -85.5 -27t-29.5 -66q0 -37 25 -60t71 -23z" />
    <glyph glyph-name="adieresis" unicode="&#xe4;" horiz-adv-x="552" 
d="M322 608v101h85v-101h-85zM140 608v101h84v-101h-84zM397 0q-9 42 -9 85q-16 -44 -64 -70t-111 -26q-69 0 -116 38.5t-47 105.5q0 131 174 151l162 21v29q0 58 -32 86t-86 28q-50 0 -80 -24.5t-35 -68.5h-80q7 75 61 117.5t136 42.5q94 0 146 -45t52 -134v-231
q0 -65 12 -105h-83zM230 52q63 0 109.5 38.5t46.5 107.5v45l-137 -15q-56 -8 -85.5 -27t-29.5 -66q0 -37 25 -60t71 -23z" />
    <glyph glyph-name="aring" unicode="&#xe5;" horiz-adv-x="552" 
d="M175 671q0 42 29.5 71.5t70.5 29.5t70 -29.5t29 -71.5q0 -41 -29 -70t-70 -29t-70.5 29.5t-29.5 69.5zM327 671q0 23 -15 38.5t-37 15.5t-37.5 -16t-15.5 -38q0 -21 15.5 -36.5t37.5 -15.5t37 15.5t15 36.5zM397 0q-9 42 -9 85q-16 -44 -64 -70t-111 -26q-69 0 -116 38.5
t-47 105.5q0 131 174 151l162 21v29q0 58 -32 86t-86 28q-50 0 -80 -24.5t-35 -68.5h-80q7 75 61 117.5t136 42.5q94 0 146 -45t52 -134v-231q0 -65 12 -105h-83zM230 52q63 0 109.5 38.5t46.5 107.5v45l-137 -15q-56 -8 -85.5 -27t-29.5 -66q0 -37 25 -60t71 -23z" />
    <glyph glyph-name="ae" unicode="&#xe6;" horiz-adv-x="886" 
d="M830 148q-16 -77 -73 -118.5t-135 -41.5q-65 0 -117 27.5t-83 77.5q-67 -104 -198 -104q-74 0 -124 39t-50 108q0 76 58 114t154 38h124v47q0 58 -31.5 86t-85.5 28q-51 0 -81 -25t-35 -69h-80q7 76 61 118.5t135 42.5q123 0 169 -90q69 90 179 90q106 0 161.5 -73
t55.5 -179v-31h-373q4 -85 46.5 -132t114.5 -47q97 0 131 94h77zM617 450q-62 0 -103.5 -41.5t-50.5 -120.5h290q-2 72 -36.5 117t-99.5 45zM235 53q66 0 108.5 37.5t42.5 107.5v35h-123q-129 0 -129 -94q0 -38 26 -62t75 -24z" />
    <glyph glyph-name="ccedilla" unicode="&#xe7;" horiz-adv-x="539" 
d="M385 -109q0 -41 -34 -63t-80 -22q-48 0 -86 19v49q41 -21 86 -21q56 0 56 34q0 26 -31 31.5t-55 -5.5l-20 21l35 56q-93 11 -148.5 81t-55.5 180q0 120 65.5 192t171.5 72q84 0 137 -45t65 -126h-79q-22 104 -123 104q-73 0 -114 -53.5t-41 -143.5t41 -143t114 -53
q101 0 123 104h79q-12 -79 -63 -124t-131 -47l-18 -28q41 4 73.5 -13t32.5 -56z" />
    <glyph glyph-name="egrave" unicode="&#xe8;" horiz-adv-x="557" 
d="M322 580h-52l-110 156h106zM502 148q-17 -77 -74 -118.5t-134 -41.5q-108 0 -175 70.5t-67 190.5q0 121 67 193.5t170 72.5q106 0 161 -71.5t55 -176.5v-33h-372q3 -86 45.5 -133t115.5 -47q98 0 130 94h78zM289 448q-61 0 -102 -39.5t-51 -114.5h288q-2 69 -36 111.5
t-99 42.5z" />
    <glyph glyph-name="eacute" unicode="&#xe9;" horiz-adv-x="557" 
d="M312 580h-52l56 156h106zM502 148q-17 -77 -74 -118.5t-134 -41.5q-108 0 -175 70.5t-67 190.5q0 121 67 193.5t170 72.5q106 0 161 -71.5t55 -176.5v-33h-372q3 -86 45.5 -133t115.5 -47q98 0 130 94h78zM289 448q-61 0 -102 -39.5t-51 -114.5h288q-2 69 -36 111.5
t-99 42.5z" />
    <glyph glyph-name="ecircumflex" unicode="&#xea;" horiz-adv-x="557" 
d="M246 736h87l94 -158h-52l-85 104l-85 -104h-53zM502 148q-17 -77 -74 -118.5t-134 -41.5q-108 0 -175 70.5t-67 190.5q0 121 67 193.5t170 72.5q106 0 161 -71.5t55 -176.5v-33h-372q3 -86 45.5 -133t115.5 -47q98 0 130 94h78zM289 448q-61 0 -102 -39.5t-51 -114.5h288
q-2 69 -36 111.5t-99 42.5z" />
    <glyph glyph-name="edieresis" unicode="&#xeb;" horiz-adv-x="557" 
d="M338 608v101h85v-101h-85zM156 608v101h84v-101h-84zM502 148q-17 -77 -74 -118.5t-134 -41.5q-108 0 -175 70.5t-67 190.5q0 121 67 193.5t170 72.5q106 0 161 -71.5t55 -176.5v-33h-372q3 -86 45.5 -133t115.5 -47q98 0 130 94h78zM289 448q-61 0 -102 -39.5
t-51 -114.5h288q-2 69 -36 111.5t-99 42.5z" />
    <glyph glyph-name="igrave" unicode="&#xec;" horiz-adv-x="261" 
d="M162 580h-52l-110 156h106zM89 503h83v-503h-83v503z" />
    <glyph glyph-name="iacute" unicode="&#xed;" horiz-adv-x="261" 
d="M153 580h-52l56 156h106zM89 503h83v-503h-83v503z" />
    <glyph glyph-name="icircumflex" unicode="&#xee;" horiz-adv-x="261" 
d="M88 736h87l94 -158h-52l-85 104l-85 -104h-53zM89 503h83v-503h-83v503z" />
    <glyph glyph-name="idieresis" unicode="&#xef;" horiz-adv-x="261" 
d="M180 608v101h85v-101h-85zM-2 608v101h84v-101h-84zM89 503h83v-503h-83v503z" />
    <glyph glyph-name="eth" unicode="&#xf0;" horiz-adv-x="582" 
d="M530 265q0 -128 -67 -202.5t-172 -74.5q-106 0 -172.5 72t-66.5 192q0 118 67 189.5t171 71.5q75 0 120 -48q-49 84 -104 141l-146 -47l-15 42l125 40q-49 45 -120 89v6h100q52 -32 93 -71l90 29l16 -42l-70 -23q71 -77 111 -171.5t40 -192.5zM134 252q0 -92 42 -144.5
t115 -52.5t114.5 52.5t41.5 144.5q0 90 -41.5 142.5t-114.5 52.5t-115 -52.5t-42 -142.5z" />
    <glyph glyph-name="ntilde" unicode="&#xf1;" horiz-adv-x="597" 
d="M236 661q-40 0 -43 -76h-53q0 63 23.5 100.5t67.5 37.5q33 0 78 -37.5t62 -37.5q41 0 43 75h54q0 -63 -23.5 -100.5t-68.5 -37.5q-26 0 -52.5 19t-49 38t-38.5 19zM169 503v-92q18 47 62.5 75.5t101.5 28.5q85 0 132.5 -50.5t47.5 -140.5v-324h-83v306q0 141 -120 141
q-62 0 -100 -42t-38 -128v-277h-83v503h80z" />
    <glyph glyph-name="ograve" unicode="&#xf2;" horiz-adv-x="582" 
d="M335 580h-52l-110 156h106zM530 251q0 -120 -66.5 -191.5t-172.5 -71.5t-172.5 71.5t-66.5 191.5t66.5 192t172.5 72t172.5 -72t66.5 -192zM134 251q0 -91 42 -143.5t115 -52.5t115 52.5t42 143.5t-42 144t-115 53t-115 -53t-42 -144z" />
    <glyph glyph-name="oacute" unicode="&#xf3;" horiz-adv-x="582" 
d="M305 580h-52l56 156h106zM530 251q0 -120 -66.5 -191.5t-172.5 -71.5t-172.5 71.5t-66.5 191.5t66.5 192t172.5 72t172.5 -72t66.5 -192zM134 251q0 -91 42 -143.5t115 -52.5t115 52.5t42 143.5t-42 144t-115 53t-115 -53t-42 -144z" />
    <glyph glyph-name="ocircumflex" unicode="&#xf4;" horiz-adv-x="582" 
d="M248 736h87l94 -158h-52l-85 104l-85 -104h-53zM530 251q0 -120 -66.5 -191.5t-172.5 -71.5t-172.5 71.5t-66.5 191.5t66.5 192t172.5 72t172.5 -72t66.5 -192zM134 251q0 -91 42 -143.5t115 -52.5t115 52.5t42 143.5t-42 144t-115 53t-115 -53t-42 -144z" />
    <glyph glyph-name="otilde" unicode="&#xf5;" horiz-adv-x="582" 
d="M223 661q-40 0 -43 -76h-53q0 63 23.5 100.5t67.5 37.5q33 0 78 -37.5t62 -37.5q41 0 43 75h54q0 -63 -23.5 -100.5t-68.5 -37.5q-26 0 -52.5 19t-49 38t-38.5 19zM530 251q0 -120 -66.5 -191.5t-172.5 -71.5t-172.5 71.5t-66.5 191.5t66.5 192t172.5 72t172.5 -72
t66.5 -192zM134 251q0 -91 42 -143.5t115 -52.5t115 52.5t42 143.5t-42 144t-115 53t-115 -53t-42 -144z" />
    <glyph glyph-name="odieresis" unicode="&#xf6;" horiz-adv-x="582" 
d="M340 608v101h85v-101h-85zM158 608v101h84v-101h-84zM530 251q0 -120 -66.5 -191.5t-172.5 -71.5t-172.5 71.5t-66.5 191.5t66.5 192t172.5 72t172.5 -72t66.5 -192zM134 251q0 -91 42 -143.5t115 -52.5t115 52.5t42 143.5t-42 144t-115 53t-115 -53t-42 -144z" />
    <glyph glyph-name="divide" unicode="&#xf7;" 
d="M281 498v97h99v-97h-99zM69 298v69h521v-69h-521zM281 70v97h99v-97h-99z" />
    <glyph glyph-name="oslash" unicode="&#xf8;" horiz-adv-x="582" 
d="M291 -12q-80 0 -140 43l-51 -65l-40 32l53 67q-61 74 -61 186q0 120 66.5 192t172.5 72q82 0 143 -45l48 61l39 -32l-51 -64q60 -71 60 -184q0 -120 -66.5 -191.5t-172.5 -71.5zM133 251q0 -74 28 -125l229 288q-40 35 -99 35q-74 0 -116 -53t-42 -145zM449 251
q0 74 -27 122l-227 -287q39 -33 96 -33q74 0 116 53t42 145z" />
    <glyph glyph-name="ugrave" unicode="&#xf9;" horiz-adv-x="592" 
d="M328 580h-52l-110 156h106zM503 0h-81v91q-18 -48 -60.5 -75.5t-99.5 -27.5q-85 0 -131.5 49.5t-46.5 141.5v324h84v-308q0 -142 118 -142q60 0 96.5 43t36.5 130v277h84v-503z" />
    <glyph glyph-name="uacute" unicode="&#xfa;" horiz-adv-x="592" 
d="M315 580h-52l56 156h106zM503 0h-81v91q-18 -48 -60.5 -75.5t-99.5 -27.5q-85 0 -131.5 49.5t-46.5 141.5v324h84v-308q0 -142 118 -142q60 0 96.5 43t36.5 130v277h84v-503z" />
    <glyph glyph-name="ucircumflex" unicode="&#xfb;" horiz-adv-x="592" 
d="M253 736h87l94 -158h-52l-85 104l-85 -104h-53zM503 0h-81v91q-18 -48 -60.5 -75.5t-99.5 -27.5q-85 0 -131.5 49.5t-46.5 141.5v324h84v-308q0 -142 118 -142q60 0 96.5 43t36.5 130v277h84v-503z" />
    <glyph glyph-name="udieresis" unicode="&#xfc;" horiz-adv-x="592" 
d="M345 608v101h85v-101h-85zM163 608v101h84v-101h-84zM503 0h-81v91q-18 -48 -60.5 -75.5t-99.5 -27.5q-85 0 -131.5 49.5t-46.5 141.5v324h84v-308q0 -142 118 -142q60 0 96.5 43t36.5 130v277h84v-503z" />
    <glyph glyph-name="yacute" unicode="&#xfd;" horiz-adv-x="542" 
d="M297 580h-52l56 156h106zM230 -4l-202 507h87l160 -411h2l151 411h86l-203 -518q-36 -94 -73.5 -132t-104.5 -39q-22 0 -49 5v68q16 -4 40 -4q37 0 59 24t47 89z" />
    <glyph glyph-name="thorn" unicode="&#xfe;" horiz-adv-x="615" 
d="M172 88v-266h-83v914h83v-322q18 42 62 71.5t105 29.5q97 0 160.5 -73t63.5 -191t-63.5 -190.5t-160.5 -72.5q-58 0 -102 29t-65 71zM168 259v-14q0 -87 41 -139.5t113 -52.5q73 0 115 54.5t42 143.5q0 90 -42 144.5t-115 54.5q-72 0 -113 -52t-41 -139z" />
    <glyph glyph-name="ydieresis" unicode="&#xff;" horiz-adv-x="542" 
d="M326 608v101h85v-101h-85zM144 608v101h84v-101h-84zM230 -4l-202 507h87l160 -411h2l151 411h86l-203 -518q-36 -94 -73.5 -132t-104.5 -39q-22 0 -49 5v68q16 -4 40 -4q37 0 59 24t47 89z" />
    <glyph glyph-name="Amacron" unicode="&#x100;" horiz-adv-x="710" 
d="M208 786v63h293v-63h-293zM603 0l-79 199h-342l-79 -199h-86l289 714h97l290 -714h-90zM352 628l-142 -358h286l-141 358h-3z" />
    <glyph glyph-name="amacron" unicode="&#x101;" horiz-adv-x="552" 
d="M131 608v62h285v-62h-285zM397 0q-9 42 -9 85q-16 -44 -64 -70t-111 -26q-69 0 -116 38.5t-47 105.5q0 131 174 151l162 21v29q0 58 -32 86t-86 28q-50 0 -80 -24.5t-35 -68.5h-80q7 75 61 117.5t136 42.5q94 0 146 -45t52 -134v-231q0 -65 12 -105h-83zM230 52
q63 0 109.5 38.5t46.5 107.5v45l-137 -15q-56 -8 -85.5 -27t-29.5 -66q0 -37 25 -60t71 -23z" />
    <glyph glyph-name="Abreve" unicode="&#x102;" horiz-adv-x="710" 
d="M356 763q-61 0 -98 41.5t-37 111.5h62q0 -43 19 -66.5t54 -23.5t54 23.5t19 66.5h61q0 -71 -36.5 -112t-97.5 -41zM603 0l-79 199h-342l-79 -199h-86l289 714h97l290 -714h-90zM352 628l-142 -358h286l-141 358h-3z" />
    <glyph glyph-name="abreve" unicode="&#x103;" horiz-adv-x="552" 
d="M274 584q-61 0 -98 41t-37 111h58q3 -93 77 -93q73 0 76 93h58q0 -70 -36.5 -111t-97.5 -41zM397 0q-9 42 -9 85q-16 -44 -64 -70t-111 -26q-69 0 -116 38.5t-47 105.5q0 131 174 151l162 21v29q0 58 -32 86t-86 28q-50 0 -80 -24.5t-35 -68.5h-80q7 75 61 117.5
t136 42.5q94 0 146 -45t52 -134v-231q0 -65 12 -105h-83zM230 52q63 0 109.5 38.5t46.5 107.5v45l-137 -15q-56 -8 -85.5 -27t-29.5 -66q0 -37 25 -60t71 -23z" />
    <glyph glyph-name="Aogonek" unicode="&#x104;" horiz-adv-x="710" 
d="M668 -183q-21 -7 -48 -7q-35 0 -60 19.5t-25 57.5q0 29 15.5 56t48.5 67l-75 189h-342l-79 -199h-86l289 714h97l290 -714h-45q-32 -42 -43 -62t-11 -39q0 -36 42 -36q17 0 32 4v-50zM352 628l-142 -358h286l-141 358h-3z" />
    <glyph glyph-name="aogonek" unicode="&#x105;" horiz-adv-x="552" 
d="M465 -183q-21 -7 -48 -7q-35 0 -60 19.5t-25 57.5q0 29 15.5 56.5t47.5 65.5q-7 36 -7 76q-16 -44 -64 -70t-111 -26q-69 0 -116 38.5t-47 105.5q0 131 174 151l162 21v29q0 58 -32 86t-86 28q-50 0 -80 -24.5t-35 -68.5h-80q7 75 61 117.5t136 42.5q94 0 146 -45
t52 -134v-231q0 -65 12 -105h-35q-32 -42 -43 -62t-11 -39q0 -36 42 -36q17 0 32 4v-50zM230 52q63 0 109.5 38.5t46.5 107.5v45l-137 -15q-56 -8 -85.5 -27t-29.5 -66q0 -37 25 -60t71 -23z" />
    <glyph glyph-name="Cacute" unicode="&#x106;" horiz-adv-x="686" 
d="M389 767h-51l57 148h106zM138 358q0 -135 61.5 -216t170.5 -81q159 0 188 147h84q-18 -101 -88 -160.5t-184 -59.5q-140 0 -230 101.5t-90 268.5q0 166 90 267t230 101q114 0 184 -59.5t88 -160.5h-84q-29 147 -188 147q-109 0 -170.5 -80t-61.5 -215z" />
    <glyph glyph-name="cacute" unicode="&#x107;" horiz-adv-x="539" 
d="M313 580h-52l56 156h106zM52 251q0 120 65.5 192t171.5 72q84 0 137 -45t65 -126h-79q-22 104 -123 104q-73 0 -114 -53.5t-41 -143.5t41 -143t114 -53q101 0 123 104h79q-12 -81 -65 -126t-137 -45q-106 0 -171.5 71.5t-65.5 191.5z" />
    <glyph glyph-name="Ccircumflex" unicode="&#x108;" horiz-adv-x="686" 
d="M324 915h91l92 -150h-52l-85 93l-85 -93h-53zM138 358q0 -135 61.5 -216t170.5 -81q159 0 188 147h84q-18 -101 -88 -160.5t-184 -59.5q-140 0 -230 101.5t-90 268.5q0 166 90 267t230 101q114 0 184 -59.5t88 -160.5h-84q-29 147 -188 147q-109 0 -170.5 -80t-61.5 -215
z" />
    <glyph glyph-name="ccircumflex" unicode="&#x109;" horiz-adv-x="539" 
d="M246 736h87l94 -158h-52l-85 104l-85 -104h-53zM52 251q0 120 65.5 192t171.5 72q84 0 137 -45t65 -126h-79q-22 104 -123 104q-73 0 -114 -53.5t-41 -143.5t41 -143t114 -53q101 0 123 104h79q-12 -81 -65 -126t-137 -45q-106 0 -171.5 71.5t-65.5 191.5z" />
    <glyph glyph-name="Cdotaccent" unicode="&#x10a;" horiz-adv-x="686" 
d="M323 785v101h94v-101h-94zM138 358q0 -135 61.5 -216t170.5 -81q159 0 188 147h84q-18 -101 -88 -160.5t-184 -59.5q-140 0 -230 101.5t-90 268.5q0 166 90 267t230 101q114 0 184 -59.5t88 -160.5h-84q-29 147 -188 147q-109 0 -170.5 -80t-61.5 -215z" />
    <glyph glyph-name="cdotaccent" unicode="&#x10b;" horiz-adv-x="539" 
d="M243 608v101h94v-101h-94zM52 251q0 120 65.5 192t171.5 72q84 0 137 -45t65 -126h-79q-22 104 -123 104q-73 0 -114 -53.5t-41 -143.5t41 -143t114 -53q101 0 123 104h79q-12 -81 -65 -126t-137 -45q-106 0 -171.5 71.5t-65.5 191.5z" />
    <glyph glyph-name="Ccaron" unicode="&#x10c;" horiz-adv-x="686" 
d="M415 765h-91l-92 150h53l85 -93l85 93h52zM138 358q0 -135 61.5 -216t170.5 -81q159 0 188 147h84q-18 -101 -88 -160.5t-184 -59.5q-140 0 -230 101.5t-90 268.5q0 166 90 267t230 101q114 0 184 -59.5t88 -160.5h-84q-29 147 -188 147q-109 0 -170.5 -80t-61.5 -215z
" />
    <glyph glyph-name="ccaron" unicode="&#x10d;" horiz-adv-x="539" 
d="M333 578h-87l-94 158h53l85 -104l85 104h52zM52 251q0 120 65.5 192t171.5 72q84 0 137 -45t65 -126h-79q-22 104 -123 104q-73 0 -114 -53.5t-41 -143.5t41 -143t114 -53q101 0 123 104h79q-12 -81 -65 -126t-137 -45q-106 0 -171.5 71.5t-65.5 191.5z" />
    <glyph glyph-name="Dcaron" unicode="&#x10e;" horiz-adv-x="744" 
d="M390 765h-91l-92 150h53l85 -93l85 93h52zM346 714q156 0 252 -98.5t96 -258.5q0 -161 -96 -259t-252 -98h-253v714h253zM346 642h-168v-570h168q123 0 191 76.5t68 208.5q0 131 -68 208t-191 77z" />
    <glyph glyph-name="dcaron" unicode="&#x10f;" horiz-adv-x="620" 
d="M446 0v88q-20 -42 -65.5 -71t-104.5 -29q-97 0 -160.5 72.5t-63.5 190.5t63.5 191t160.5 73q61 0 104.5 -29.5t62.5 -71.5v322h83v-736h-80zM646 528h-42l26 208h96zM447 245v14q0 87 -41 139t-113 52q-73 0 -115 -54.5t-42 -144.5q0 -89 42 -143.5t115 -54.5
q72 0 113 52.5t41 139.5z" />
    <glyph glyph-name="Dcroat" unicode="&#x110;" horiz-adv-x="757" 
d="M707 357q0 -161 -96 -259t-252 -98h-253v327h-80v71h80v316h253q156 0 252 -98.5t96 -258.5zM191 72h168q123 0 191 76.5t68 208.5q0 131 -68 208t-191 77h-168v-244h153v-71h-153v-255z" />
    <glyph glyph-name="dcroat" unicode="&#x111;" horiz-adv-x="627" 
d="M446 88q-20 -42 -65.5 -71t-104.5 -29q-97 0 -160.5 72.5t-63.5 190.5t63.5 191t160.5 73q61 0 104.5 -29.5t62.5 -71.5v174h-126v56h126v92h83v-92h80v-56h-80v-588h-80v88zM447 245v14q0 87 -41 139t-113 52q-73 0 -115 -54.5t-42 -144.5q0 -89 42 -143.5t115 -54.5
q72 0 113 52.5t41 139.5z" />
    <glyph glyph-name="Emacron" unicode="&#x112;" horiz-adv-x="642" 
d="M189 786v63h293v-63h-293zM576 0h-483v714h482v-72h-397v-249h353v-73h-353v-248h398v-72z" />
    <glyph glyph-name="emacron" unicode="&#x113;" horiz-adv-x="557" 
d="M147 608v62h285v-62h-285zM502 148q-17 -77 -74 -118.5t-134 -41.5q-108 0 -175 70.5t-67 190.5q0 121 67 193.5t170 72.5q106 0 161 -71.5t55 -176.5v-33h-372q3 -86 45.5 -133t115.5 -47q98 0 130 94h78zM289 448q-61 0 -102 -39.5t-51 -114.5h288q-2 69 -36 111.5
t-99 42.5z" />
    <glyph glyph-name="Ebreve" unicode="&#x114;" horiz-adv-x="642" 
d="M335 763q-61 0 -98 41.5t-37 111.5h62q0 -43 19 -66.5t54 -23.5t54 23.5t19 66.5h61q0 -71 -36.5 -112t-97.5 -41zM576 0h-483v714h482v-72h-397v-249h353v-73h-353v-248h398v-72z" />
    <glyph glyph-name="ebreve" unicode="&#x115;" horiz-adv-x="557" 
d="M288 584q-61 0 -98 41t-37 111h58q3 -93 77 -93q73 0 76 93h58q0 -70 -36.5 -111t-97.5 -41zM502 148q-17 -77 -74 -118.5t-134 -41.5q-108 0 -175 70.5t-67 190.5q0 121 67 193.5t170 72.5q106 0 161 -71.5t55 -176.5v-33h-372q3 -86 45.5 -133t115.5 -47q98 0 130 94
h78zM289 448q-61 0 -102 -39.5t-51 -114.5h288q-2 69 -36 111.5t-99 42.5z" />
    <glyph glyph-name="Edotaccent" unicode="&#x116;" horiz-adv-x="642" 
d="M289 785v101h94v-101h-94zM576 0h-483v714h482v-72h-397v-249h353v-73h-353v-248h398v-72z" />
    <glyph glyph-name="edotaccent" unicode="&#x117;" horiz-adv-x="557" 
d="M243 608v101h94v-101h-94zM502 148q-17 -77 -74 -118.5t-134 -41.5q-108 0 -175 70.5t-67 190.5q0 121 67 193.5t170 72.5q106 0 161 -71.5t55 -176.5v-33h-372q3 -86 45.5 -133t115.5 -47q98 0 130 94h78zM289 448q-61 0 -102 -39.5t-51 -114.5h288q-2 69 -36 111.5
t-99 42.5z" />
    <glyph glyph-name="Eogonek" unicode="&#x118;" horiz-adv-x="642" 
d="M541 -183q-21 -7 -48 -7q-35 0 -60 19.5t-25 57.5q0 45 56 113h-371v714h482v-72h-397v-249h353v-73h-353v-248h398v-72h-55q-32 -42 -43 -62t-11 -39q0 -36 42 -36q17 0 32 4v-50z" />
    <glyph glyph-name="eogonek" unicode="&#x119;" horiz-adv-x="557" 
d="M413 -184q-18 -6 -48 -6q-35 0 -60.5 19.5t-25.5 57.5q0 48 48 103q-22 -2 -33 -2q-108 0 -175 70.5t-67 190.5q0 121 67 193.5t170 72.5q106 0 161 -71.5t55 -176.5v-33h-372q3 -86 45.5 -133t115.5 -47q98 0 130 94h78q-15 -71 -99 -139q-64 -51 -64 -108q0 -38 42 -38
q17 0 32 4v-51zM289 448q-61 0 -102 -39.5t-51 -114.5h288q-2 69 -36 111.5t-99 42.5z" />
    <glyph glyph-name="Ecaron" unicode="&#x11a;" horiz-adv-x="642" 
d="M381 765h-91l-92 150h53l85 -93l85 93h52zM576 0h-483v714h482v-72h-397v-249h353v-73h-353v-248h398v-72z" />
    <glyph glyph-name="ecaron" unicode="&#x11b;" horiz-adv-x="557" 
d="M333 578h-87l-94 158h53l85 -104l85 104h52zM502 148q-17 -77 -74 -118.5t-134 -41.5q-108 0 -175 70.5t-67 190.5q0 121 67 193.5t170 72.5q106 0 161 -71.5t55 -176.5v-33h-372q3 -86 45.5 -133t115.5 -47q98 0 130 94h78zM289 448q-61 0 -102 -39.5t-51 -114.5h288
q-2 69 -36 111.5t-99 42.5z" />
    <glyph glyph-name="Gcircumflex" unicode="&#x11c;" horiz-adv-x="746" 
d="M339 915h91l92 -150h-52l-85 93l-85 -93h-53zM50 358q0 166 93 267t237 101q116 0 188 -59t91 -161h-86q-15 69 -64 108t-129 39q-113 0 -177.5 -80t-64.5 -215t63.5 -216t175.5 -81q91 0 150 52t59 138v37h-169v68h253v-356h-68l-8 119q-20 -57 -83 -94t-135 -37
q-143 0 -234.5 101.5t-91.5 268.5z" />
    <glyph glyph-name="gcircumflex" unicode="&#x11d;" horiz-adv-x="614" 
d="M253 736h87l94 -158h-52l-85 104l-85 -104h-53zM441 32v74q-19 -41 -62 -69t-105 -28q-98 0 -160.5 69t-62.5 185q0 112 62.5 182t160.5 70q61 0 105.5 -29.5t64.5 -70.5v88h81v-465q0 -114 -65.5 -171t-172.5 -57q-92 0 -150 37.5t-73 109.5h84q22 -83 138 -83
q75 0 115 40t40 118zM447 251v24q0 78 -44 126.5t-114 48.5q-73 0 -114.5 -51t-41.5 -136t42 -136.5t114 -51.5q70 0 114 49t44 127z" />
    <glyph glyph-name="Gbreve" unicode="&#x11e;" horiz-adv-x="746" 
d="M384 763q-61 0 -98 41.5t-37 111.5h62q0 -43 19 -66.5t54 -23.5t54 23.5t19 66.5h61q0 -71 -36.5 -112t-97.5 -41zM50 358q0 166 93 267t237 101q116 0 188 -59t91 -161h-86q-15 69 -64 108t-129 39q-113 0 -177.5 -80t-64.5 -215t63.5 -216t175.5 -81q91 0 150 52
t59 138v37h-169v68h253v-356h-68l-8 119q-20 -57 -83 -94t-135 -37q-143 0 -234.5 101.5t-91.5 268.5z" />
    <glyph glyph-name="gbreve" unicode="&#x11f;" horiz-adv-x="614" 
d="M297 584q-61 0 -98 41t-37 111h58q3 -93 77 -93q73 0 76 93h58q0 -70 -36.5 -111t-97.5 -41zM441 32v74q-19 -41 -62 -69t-105 -28q-98 0 -160.5 69t-62.5 185q0 112 62.5 182t160.5 70q61 0 105.5 -29.5t64.5 -70.5v88h81v-465q0 -114 -65.5 -171t-172.5 -57
q-92 0 -150 37.5t-73 109.5h84q22 -83 138 -83q75 0 115 40t40 118zM447 251v24q0 78 -44 126.5t-114 48.5q-73 0 -114.5 -51t-41.5 -136t42 -136.5t114 -51.5q70 0 114 49t44 127z" />
    <glyph glyph-name="Gdotaccent" unicode="&#x120;" horiz-adv-x="746" 
d="M337 785v101h94v-101h-94zM50 358q0 166 93 267t237 101q116 0 188 -59t91 -161h-86q-15 69 -64 108t-129 39q-113 0 -177.5 -80t-64.5 -215t63.5 -216t175.5 -81q91 0 150 52t59 138v37h-169v68h253v-356h-68l-8 119q-20 -57 -83 -94t-135 -37q-143 0 -234.5 101.5
t-91.5 268.5z" />
    <glyph glyph-name="gdotaccent" unicode="&#x121;" horiz-adv-x="614" 
d="M249 608v101h94v-101h-94zM441 32v74q-19 -41 -62 -69t-105 -28q-98 0 -160.5 69t-62.5 185q0 112 62.5 182t160.5 70q61 0 105.5 -29.5t64.5 -70.5v88h81v-465q0 -114 -65.5 -171t-172.5 -57q-92 0 -150 37.5t-73 109.5h84q22 -83 138 -83q75 0 115 40t40 118zM447 251
v24q0 78 -44 126.5t-114 48.5q-73 0 -114.5 -51t-41.5 -136t42 -136.5t114 -51.5q70 0 114 49t44 127z" />
    <glyph glyph-name="uni0122" unicode="&#x122;" horiz-adv-x="746" 
d="M50 358q0 166 93 267t237 101q116 0 188 -59t91 -161h-86q-15 69 -64 108t-129 39q-113 0 -177.5 -80t-64.5 -215t63.5 -216t175.5 -81q91 0 150 52t59 138v37h-169v68h253v-356h-68l-8 119q-20 -57 -83 -94t-135 -37q-143 0 -234.5 101.5t-91.5 268.5zM334 -125v72h100
v-64q0 -107 -104 -107v39q27 0 38 15t11 45h-45z" />
    <glyph glyph-name="uni0123" unicode="&#x123;" horiz-adv-x="614" 
d="M343 656v-72h-100v64q0 107 104 107v-39q-27 0 -38 -15t-11 -45h45zM441 32v74q-19 -41 -62 -69t-105 -28q-98 0 -160.5 69t-62.5 185q0 112 62.5 182t160.5 70q61 0 105.5 -29.5t64.5 -70.5v88h81v-465q0 -114 -65.5 -171t-172.5 -57q-92 0 -150 37.5t-73 109.5h84
q22 -83 138 -83q75 0 115 40t40 118zM447 251v24q0 78 -44 126.5t-114 48.5q-73 0 -114.5 -51t-41.5 -136t42 -136.5t114 -51.5q70 0 114 49t44 127z" />
    <glyph glyph-name="Hcircumflex" unicode="&#x124;" horiz-adv-x="776" 
d="M343 915h91l92 -150h-52l-85 93l-85 -93h-53zM93 0v714h86v-315h418v315h86v-714h-86v327h-418v-327h-86z" />
    <glyph glyph-name="hcircumflex" unicode="&#x125;" horiz-adv-x="597" 
d="M258 918h91l92 -150h-52l-85 93l-85 -93h-53zM172 411q18 48 61 76t100 28q85 0 132.5 -50.5t47.5 -140.5v-324h-83v306q0 141 -120 141q-62 0 -100 -42t-38 -128v-277h-83v736h83v-325z" />
    <glyph glyph-name="Hbar" unicode="&#x126;" horiz-adv-x="803" 
d="M193 278v-278h-86v496h-81v70h81v148h86v-148h418v148h86v-148h80v-70h-80v-496h-86v278h-418zM193 350h418v146h-418v-146z" />
    <glyph glyph-name="hbar" unicode="&#x127;" horiz-adv-x="609" 
d="M184 277v-277h-83v588h-80v55h80v93h83v-93h126v-55h-126v-177q18 48 61 76t100 28q85 0 132.5 -50.5t47.5 -140.5v-324h-83v306q0 141 -120 141q-62 0 -100 -42t-38 -128z" />
    <glyph glyph-name="Itilde" unicode="&#x128;" horiz-adv-x="273" 
d="M68 843q-39 0 -43 -72h-53q0 63 23.5 100.5t67.5 37.5q33 0 78 -36t62 -36q41 0 43 73h54q0 -63 -23.5 -101t-68.5 -38q-26 0 -52.5 18t-49 36t-38.5 18zM93 0v714h86v-714h-86z" />
    <glyph glyph-name="itilde" unicode="&#x129;" horiz-adv-x="261" 
d="M79 661q-40 0 -43 -76h-53q0 63 23.5 100.5t67.5 37.5q21 0 37.5 -11.5t26 -26t21 -26t23.5 -11.5q41 0 43 75h54q0 -63 -23.5 -100.5t-68.5 -37.5q-21 0 -37.5 12t-26 26t-21 26t-23.5 12zM89 503h83v-503h-83v503z" />
    <glyph glyph-name="Imacron" unicode="&#x12a;" horiz-adv-x="273" 
d="M-10 786v63h293v-63h-293zM93 0v714h86v-714h-86z" />
    <glyph glyph-name="imacron" unicode="&#x12b;" horiz-adv-x="261" 
d="M8 608v62h246v-62h-246zM89 503h83v-503h-83v503z" />
    <glyph glyph-name="Ibreve" unicode="&#x12c;" horiz-adv-x="273" 
d="M137 763q-61 0 -98 41.5t-37 111.5h62q0 -43 19 -66.5t54 -23.5t54 23.5t19 66.5h61q0 -71 -36.5 -112t-97.5 -41zM93 0v714h86v-714h-86z" />
    <glyph glyph-name="ibreve" unicode="&#x12d;" horiz-adv-x="261" 
d="M131 584q-61 0 -98 41t-37 111h58q3 -93 77 -93q73 0 76 93h58q0 -70 -36.5 -111t-97.5 -41zM89 503h83v-503h-83v503z" />
    <glyph glyph-name="Iogonek" unicode="&#x12e;" horiz-adv-x="273" 
d="M180 -183q-21 -7 -48 -7q-35 0 -60.5 19.5t-25.5 57.5q0 48 60 113h-13v714h86v-714q-73 -49 -73 -100q0 -37 42 -37q16 0 32 4v-50z" />
    <glyph glyph-name="iogonek" unicode="&#x12f;" horiz-adv-x="261" 
d="M83 608v101h94v-101h-94zM43 -113q0 52 58 113h-12v503h83v-503q-69 -46 -69 -100q0 -37 42 -37q16 0 32 4v-50q-21 -7 -49 -7q-34 0 -59.5 19.5t-25.5 57.5z" />
    <glyph glyph-name="Idotaccent" unicode="&#x130;" horiz-adv-x="273" 
d="M89 785v101h94v-101h-94zM93 0v714h86v-714h-86z" />
    <glyph glyph-name="dotlessi" unicode="&#x131;" horiz-adv-x="261" 
d="M89 503h83v-503h-83v503z" />
    <glyph glyph-name="Jcircumflex" unicode="&#x134;" horiz-adv-x="569" 
d="M395 915h91l92 -150h-52l-85 93l-85 -93h-53zM401 252v462h86v-461q0 -122 -64.5 -193.5t-176.5 -71.5q-100 0 -165.5 57.5t-68.5 160.5h83q4 -73 45 -111.5t106 -38.5q79 0 117 51.5t38 144.5z" />
    <glyph glyph-name="jcircumflex" unicode="&#x135;" horiz-adv-x="261" 
d="M86 736h87l94 -158h-52l-85 104l-85 -104h-53zM37 -184q-23 0 -43 4v66q14 -3 27 -3q37 0 52.5 15t15.5 54v551h83v-548q0 -71 -33 -105t-102 -34z" />
    <glyph glyph-name="uni0136" unicode="&#x136;" horiz-adv-x="708" 
d="M574 0l-286 340l-109 -111v-229h-86v714h86v-388l376 388h104l-311 -314l330 -400h-104zM300 -125v72h100v-64q0 -107 -104 -107v39q27 0 38 15t11 45h-45z" />
    <glyph glyph-name="uni0137" unicode="&#x137;" horiz-adv-x="558" 
d="M428 0l-191 237l-65 -63v-174h-83v736h83v-474l248 241h99l-222 -213l231 -290h-100zM255 -125v72h100v-64q0 -107 -104 -107v39q27 0 38 15t11 45h-45z" />
    <glyph glyph-name="kgreenlandic" unicode="&#x138;" horiz-adv-x="558" 
d="M428 0l-191 237l-65 -63v-174h-83v503h83v-241l248 241h99l-222 -213l231 -290h-100z" />
    <glyph glyph-name="Lacute" unicode="&#x139;" horiz-adv-x="621" 
d="M168 767h-51l57 148h106zM93 0v714h86v-642h384v-72h-470z" />
    <glyph glyph-name="lacute" unicode="&#x13a;" horiz-adv-x="261" 
d="M163 770h-51l57 148h106zM172 0h-83v736h83v-736z" />
    <glyph glyph-name="uni013B" unicode="&#x13b;" horiz-adv-x="621" 
d="M93 0v714h86v-642h384v-72h-470zM282 -125v72h100v-64q0 -107 -104 -107v39q27 0 38 15t11 45h-45z" />
    <glyph glyph-name="uni013C" unicode="&#x13c;" horiz-adv-x="261" 
d="M172 0h-83v736h83v-736zM83 -125v72h100v-64q0 -107 -104 -107v39q27 0 38 15t11 45h-45z" />
    <glyph glyph-name="Lcaron" unicode="&#x13d;" horiz-adv-x="621" 
d="M93 0v714h86v-642h384v-72h-470zM370 506h-42l26 208h96z" />
    <glyph glyph-name="lcaron" unicode="&#x13e;" horiz-adv-x="267" 
d="M172 0h-83v736h83v-736zM292 528h-42l26 208h96z" />
    <glyph glyph-name="Ldot" unicode="&#x13f;" horiz-adv-x="621" 
d="M93 0v714h86v-642h384v-72h-470zM399 338v101h94v-101h-94z" />
    <glyph glyph-name="ldot" unicode="&#x140;" horiz-adv-x="421" 
d="M172 0h-83v736h83v-736zM288 294v101h94v-101h-94z" />
    <glyph glyph-name="Lslash" unicode="&#x141;" horiz-adv-x="625" 
d="M576 72v-72h-470v298l-80 -28v67l80 28v349h86v-321l169 60v-67l-169 -61v-253h384z" />
    <glyph glyph-name="lslash" unicode="&#x142;" horiz-adv-x="333" 
d="M308 445l-100 -53v-392h-83v353l-99 -53v70l99 53v313h83v-275l100 54v-70z" />
    <glyph glyph-name="Nacute" unicode="&#x143;" horiz-adv-x="759" 
d="M393 767h-51l57 148h106zM199 714l381 -570h2v570h83v-714h-80l-406 609h-2v-609h-84v714h106z" />
    <glyph glyph-name="nacute" unicode="&#x144;" horiz-adv-x="597" 
d="M323 580h-52l56 156h106zM169 503v-92q18 47 62.5 75.5t101.5 28.5q85 0 132.5 -50.5t47.5 -140.5v-324h-83v306q0 141 -120 141q-62 0 -100 -42t-38 -128v-277h-83v503h80z" />
    <glyph glyph-name="uni0145" unicode="&#x145;" horiz-adv-x="759" 
d="M199 714l381 -570h2v570h83v-714h-80l-406 609h-2v-609h-84v714h106zM329 -125v72h100v-64q0 -107 -104 -107v39q27 0 38 15t11 45h-45z" />
    <glyph glyph-name="uni0146" unicode="&#x146;" horiz-adv-x="597" 
d="M169 503v-92q18 47 62.5 75.5t101.5 28.5q85 0 132.5 -50.5t47.5 -140.5v-324h-83v306q0 141 -120 141q-62 0 -100 -42t-38 -128v-277h-83v503h80zM257 -125v72h100v-64q0 -107 -104 -107v39q27 0 38 15t11 45h-45z" />
    <glyph glyph-name="Ncaron" unicode="&#x147;" horiz-adv-x="759" 
d="M421 765h-91l-92 150h53l85 -93l85 93h52zM199 714l381 -570h2v570h83v-714h-80l-406 609h-2v-609h-84v714h106z" />
    <glyph glyph-name="ncaron" unicode="&#x148;" horiz-adv-x="597" 
d="M347 578h-87l-94 158h53l85 -104l85 104h52zM169 503v-92q18 47 62.5 75.5t101.5 28.5q85 0 132.5 -50.5t47.5 -140.5v-324h-83v306q0 141 -120 141q-62 0 -100 -42t-38 -128v-277h-83v503h80z" />
    <glyph glyph-name="Eng" unicode="&#x14a;" horiz-adv-x="759" 
d="M530 -184q-23 0 -42 4v66q14 -3 27 -3q36 0 51.5 15t15.5 54v53l-403 604h-2v-609h-84v714h106l381 -570h2v570h83v-759q0 -71 -32.5 -105t-102.5 -34z" />
    <glyph glyph-name="eng" unicode="&#x14b;" horiz-adv-x="597" 
d="M378 -184q-23 0 -42 4v66q12 -3 27 -3q36 0 51.5 15t15.5 54v354q0 141 -120 141q-62 0 -100 -42t-38 -128v-277h-83v503h80v-92q18 47 62.5 75.5t101.5 28.5q85 0 132.5 -50.5t47.5 -140.5v-369q0 -71 -33 -105t-102 -34z" />
    <glyph glyph-name="Omacron" unicode="&#x14c;" horiz-adv-x="750" 
d="M228 786v63h293v-63h-293zM700 357q0 -163 -89 -266t-236 -103t-236 103t-89 266q0 162 89 265.5t236 103.5t236 -103.5t89 -265.5zM611 357q0 133 -61 214.5t-175 81.5t-175.5 -81t-61.5 -215t61.5 -215t175.5 -81t175 81t61 215z" />
    <glyph glyph-name="omacron" unicode="&#x14d;" horiz-adv-x="582" 
d="M148 608v62h285v-62h-285zM530 251q0 -120 -66.5 -191.5t-172.5 -71.5t-172.5 71.5t-66.5 191.5t66.5 192t172.5 72t172.5 -72t66.5 -192zM134 251q0 -91 42 -143.5t115 -52.5t115 52.5t42 143.5t-42 144t-115 53t-115 -53t-42 -144z" />
    <glyph glyph-name="Obreve" unicode="&#x14e;" horiz-adv-x="750" 
d="M375 763q-61 0 -98 41.5t-37 111.5h62q0 -43 19 -66.5t54 -23.5t54 23.5t19 66.5h61q0 -71 -36.5 -112t-97.5 -41zM700 357q0 -163 -89 -266t-236 -103t-236 103t-89 266q0 162 89 265.5t236 103.5t236 -103.5t89 -265.5zM611 357q0 133 -61 214.5t-175 81.5t-175.5 -81
t-61.5 -215t61.5 -215t175.5 -81t175 81t61 215z" />
    <glyph glyph-name="obreve" unicode="&#x14f;" horiz-adv-x="582" 
d="M292 584q-61 0 -98 41t-37 111h58q3 -93 77 -93q73 0 76 93h58q0 -70 -36.5 -111t-97.5 -41zM530 251q0 -120 -66.5 -191.5t-172.5 -71.5t-172.5 71.5t-66.5 191.5t66.5 192t172.5 72t172.5 -72t66.5 -192zM134 251q0 -91 42 -143.5t115 -52.5t115 52.5t42 143.5t-42 144
t-115 53t-115 -53t-42 -144z" />
    <glyph glyph-name="Ohungarumlaut" unicode="&#x150;" horiz-adv-x="750" 
d="M417 767l57 148h98l-107 -148h-48zM262 767l58 148h97l-106 -148h-49zM700 357q0 -163 -89 -266t-236 -103t-236 103t-89 266q0 162 89 265.5t236 103.5t236 -103.5t89 -265.5zM611 357q0 133 -61 214.5t-175 81.5t-175.5 -81t-61.5 -215t61.5 -215t175.5 -81t175 81
t61 215z" />
    <glyph glyph-name="ohungarumlaut" unicode="&#x151;" horiz-adv-x="582" 
d="M340 580l57 156h98l-107 -156h-48zM185 580l58 156h97l-106 -156h-49zM530 251q0 -120 -66.5 -191.5t-172.5 -71.5t-172.5 71.5t-66.5 191.5t66.5 192t172.5 72t172.5 -72t66.5 -192zM134 251q0 -91 42 -143.5t115 -52.5t115 52.5t42 143.5t-42 144t-115 53t-115 -53
t-42 -144z" />
    <glyph glyph-name="OE" unicode="&#x152;" horiz-adv-x="1114" 
d="M398 0q-156 0 -252 98.5t-96 258.5q0 161 96 259t252 98h650v-72h-397v-249h353v-73h-353v-248h397v-72h-650zM398 72h167v570h-167q-123 0 -191.5 -77t-68.5 -208t68.5 -208t191.5 -77z" />
    <glyph glyph-name="oe" unicode="&#x153;" horiz-adv-x="949" 
d="M894 148q-17 -77 -74 -118.5t-134 -41.5q-131 0 -200 120q-69 -120 -195 -120q-106 0 -172.5 71.5t-66.5 191.5t66.5 192t172.5 72q128 0 196 -123q69 123 193 123q106 0 161.5 -72t55.5 -178v-32h-373q4 -85 47 -132t115 -47q96 0 130 94h78zM680 449q-61 0 -103 -41
t-51 -119h290q-2 72 -36.5 116t-99.5 44zM134 251q0 -91 42 -143.5t115 -52.5t114.5 53t41.5 144t-41.5 143.5t-114.5 52.5t-115 -53t-42 -144z" />
    <glyph glyph-name="Racute" unicode="&#x154;" horiz-adv-x="689" 
d="M351 767h-51l57 148h106zM178 0h-85v714h275q120 0 185.5 -55t65.5 -157q0 -81 -47.5 -132.5t-117.5 -67.5l196 -302h-97l-185 289h-190v-289zM178 361h185q82 0 125.5 36t43.5 105q0 67 -44 103.5t-125 36.5h-185v-281z" />
    <glyph glyph-name="racute" unicode="&#x155;" horiz-adv-x="385" 
d="M239 580h-52l56 156h106zM368 510v-76q-16 4 -43 4q-64 0 -108.5 -49.5t-44.5 -140.5v-248h-83v503h80v-119q16 61 59.5 95.5t100.5 34.5q23 0 39 -4z" />
    <glyph glyph-name="uni0156" unicode="&#x156;" horiz-adv-x="689" 
d="M178 0h-85v714h275q120 0 185.5 -55t65.5 -157q0 -81 -47.5 -132.5t-117.5 -67.5l196 -302h-97l-185 289h-190v-289zM178 361h185q82 0 125.5 36t43.5 105q0 67 -44 103.5t-125 36.5h-185v-281zM292 -125v72h100v-64q0 -107 -104 -107v39q27 0 38 15t11 45h-45z" />
    <glyph glyph-name="uni0157" unicode="&#x157;" horiz-adv-x="385" 
d="M368 510v-76q-16 4 -43 4q-64 0 -108.5 -49.5t-44.5 -140.5v-248h-83v503h80v-119q16 61 59.5 95.5t100.5 34.5q23 0 39 -4zM83 -125v72h100v-64q0 -107 -104 -107v39q27 0 38 15t11 45h-45z" />
    <glyph glyph-name="Rcaron" unicode="&#x158;" horiz-adv-x="689" 
d="M379 765h-91l-92 150h53l85 -93l85 93h52zM178 0h-85v714h275q120 0 185.5 -55t65.5 -157q0 -81 -47.5 -132.5t-117.5 -67.5l196 -302h-97l-185 289h-190v-289zM178 361h185q82 0 125.5 36t43.5 105q0 67 -44 103.5t-125 36.5h-185v-281z" />
    <glyph glyph-name="rcaron" unicode="&#x159;" horiz-adv-x="385" 
d="M265 578h-87l-94 158h53l85 -104l85 104h52zM368 510v-76q-16 4 -43 4q-64 0 -108.5 -49.5t-44.5 -140.5v-248h-83v503h80v-119q16 61 59.5 95.5t100.5 34.5q23 0 39 -4z" />
    <glyph glyph-name="Sacute" unicode="&#x15a;" horiz-adv-x="656" 
d="M348 767h-51l57 148h106zM47 211h83q8 -81 65.5 -117.5t145.5 -36.5q78 0 127.5 36t49.5 99q0 47 -30 75.5t-100 41.5l-136 27q-182 34 -182 185q0 89 69.5 147t179.5 58q117 0 187.5 -50t80.5 -145h-83q-9 60 -58 93t-126 33q-76 0 -121 -37.5t-45 -95.5
q0 -51 29.5 -75.5t97.5 -37.5l140 -29q88 -18 134 -61.5t46 -124.5q0 -91 -73 -149.5t-186 -58.5q-124 0 -206 56t-89 167z" />
    <glyph glyph-name="sacute" unicode="&#x15b;" horiz-adv-x="516" 
d="M280 580h-52l56 156h106zM46 149h80q4 -49 43.5 -73.5t94.5 -24.5q53 0 86 23t33 63q0 57 -88 73l-89 18q-67 12 -103.5 43t-36.5 93q0 65 52.5 108t134.5 43q88 0 139 -37t58 -108h-77q-4 38 -36 59.5t-84 21.5q-50 0 -80 -22.5t-30 -59.5q0 -31 21 -47t67 -25l100 -19
q130 -25 130 -137q0 -66 -55.5 -109.5t-140.5 -43.5q-93 0 -152.5 41t-66.5 120z" />
    <glyph glyph-name="Scircumflex" unicode="&#x15c;" horiz-adv-x="656" 
d="M292 915h91l92 -150h-52l-85 93l-85 -93h-53zM47 211h83q8 -81 65.5 -117.5t145.5 -36.5q78 0 127.5 36t49.5 99q0 47 -30 75.5t-100 41.5l-136 27q-182 34 -182 185q0 89 69.5 147t179.5 58q117 0 187.5 -50t80.5 -145h-83q-9 60 -58 93t-126 33q-76 0 -121 -37.5
t-45 -95.5q0 -51 29.5 -75.5t97.5 -37.5l140 -29q88 -18 134 -61.5t46 -124.5q0 -91 -73 -149.5t-186 -58.5q-124 0 -206 56t-89 167z" />
    <glyph glyph-name="scircumflex" unicode="&#x15d;" horiz-adv-x="516" 
d="M217 736h87l94 -158h-52l-85 104l-85 -104h-53zM46 149h80q4 -49 43.5 -73.5t94.5 -24.5q53 0 86 23t33 63q0 57 -88 73l-89 18q-67 12 -103.5 43t-36.5 93q0 65 52.5 108t134.5 43q88 0 139 -37t58 -108h-77q-4 38 -36 59.5t-84 21.5q-50 0 -80 -22.5t-30 -59.5
q0 -31 21 -47t67 -25l100 -19q130 -25 130 -137q0 -66 -55.5 -109.5t-140.5 -43.5q-93 0 -152.5 41t-66.5 120z" />
    <glyph glyph-name="uni015E" unicode="&#x15e;" horiz-adv-x="656" 
d="M433 -109q0 -41 -34 -63t-80 -22q-48 0 -86 19v49q41 -21 86 -21q56 0 56 34q0 26 -31 31.5t-55 -5.5l-20 21l34 55q-109 9 -179.5 64.5t-76.5 157.5h83q8 -81 65.5 -117.5t145.5 -36.5q78 0 127.5 36t49.5 99q0 47 -30 75.5t-100 41.5l-136 27q-182 34 -182 185
q0 89 69.5 147t179.5 58q117 0 187.5 -50t80.5 -145h-83q-9 60 -58 93t-126 33q-76 0 -121 -37.5t-45 -95.5q0 -51 29.5 -75.5t97.5 -37.5l140 -29q88 -18 134 -61.5t46 -124.5q0 -91 -72.5 -149.5t-183.5 -58.5l-18 -28q41 4 73.5 -13t32.5 -56z" />
    <glyph glyph-name="uni015F" unicode="&#x15f;" horiz-adv-x="516" 
d="M357 -109q0 -41 -34 -63t-80 -22q-48 0 -86 19v49q41 -21 86 -21q56 0 56 34q0 26 -31 31.5t-55 -5.5l-20 21l35 56q-78 8 -127 48.5t-55 110.5h80q4 -49 43.5 -73.5t94.5 -24.5q53 0 86 23t33 63q0 57 -88 73l-89 18q-67 12 -103.5 43t-36.5 93q0 65 52.5 108t134.5 43
q88 0 139 -37t58 -108h-77q-4 38 -36 59.5t-84 21.5q-50 0 -80 -22.5t-30 -59.5q0 -31 21 -47t67 -25l100 -19q130 -25 130 -137q0 -66 -55 -109.5t-137 -43.5l-18 -28q41 4 73.5 -13t32.5 -56z" />
    <glyph glyph-name="Scaron" unicode="&#x160;" horiz-adv-x="656" 
d="M383 765h-91l-92 150h53l85 -93l85 93h52zM47 211h83q8 -81 65.5 -117.5t145.5 -36.5q78 0 127.5 36t49.5 99q0 47 -30 75.5t-100 41.5l-136 27q-182 34 -182 185q0 89 69.5 147t179.5 58q117 0 187.5 -50t80.5 -145h-83q-9 60 -58 93t-126 33q-76 0 -121 -37.5
t-45 -95.5q0 -51 29.5 -75.5t97.5 -37.5l140 -29q88 -18 134 -61.5t46 -124.5q0 -91 -73 -149.5t-186 -58.5q-124 0 -206 56t-89 167z" />
    <glyph glyph-name="scaron" unicode="&#x161;" horiz-adv-x="516" 
d="M298 578h-87l-94 158h53l85 -104l85 104h52zM46 149h80q4 -49 43.5 -73.5t94.5 -24.5q53 0 86 23t33 63q0 57 -88 73l-89 18q-67 12 -103.5 43t-36.5 93q0 65 52.5 108t134.5 43q88 0 139 -37t58 -108h-77q-4 38 -36 59.5t-84 21.5q-50 0 -80 -22.5t-30 -59.5
q0 -31 21 -47t67 -25l100 -19q130 -25 130 -137q0 -66 -55.5 -109.5t-140.5 -43.5q-93 0 -152.5 41t-66.5 120z" />
    <glyph glyph-name="Tcommaaccent" unicode="&#x162;" horiz-adv-x="699" 
d="M437 -109q0 -41 -34 -63t-80 -22q-48 0 -86 19v49q41 -21 86 -21q56 0 56 34q0 26 -31 31.5t-55 -5.5l-20 21l41 66h-8v642h-266v72h619v-72h-267v-642h-36l-25 -40q41 4 73.5 -13t32.5 -56z" />
    <glyph glyph-name="tcommaaccent" unicode="&#x163;" horiz-adv-x="369" 
d="M295 -109q0 -41 -34 -63t-80 -22q-48 0 -86 19v49q41 -21 86 -21q56 0 56 34q0 26 -31 31.5t-55 -5.5l-20 21l42 67q-77 26 -77 128v311h-74v63h74v128h82v-128h132v-63h-133v-307q0 -71 73 -71q35 0 73 12v-68q-47 -14 -88 -14q-17 0 -25 1l-21 -33q41 4 73.5 -13
t32.5 -56z" />
    <glyph glyph-name="Tcaron" unicode="&#x164;" horiz-adv-x="699" 
d="M395 765h-91l-92 150h53l85 -93l85 93h52zM306 0v642h-266v72h619v-72h-267v-642h-86z" />
    <glyph glyph-name="tcaron" unicode="&#x165;" horiz-adv-x="369" 
d="M275 565h-42l26 208h96zM323 74v-68q-47 -14 -88 -14q-139 0 -139 137v311h-74v63h74v128h82v-128h132v-63h-133v-307q0 -71 73 -71q35 0 73 12z" />
    <glyph glyph-name="Tbar" unicode="&#x166;" horiz-adv-x="699" 
d="M516 327h-124v-327h-86v327h-124v71h124v244h-266v72h619v-72h-267v-244h124v-71z" />
    <glyph glyph-name="tbar" unicode="&#x167;" horiz-adv-x="401" 
d="M345 6q-48 -14 -89 -14q-139 0 -139 137v137h-74v60h74v116h-74v61h74v128h83v-128h132v-61h-133v-116h130v-60h-130v-133q0 -71 72 -71q36 0 74 12v-68z" />
    <glyph glyph-name="Utilde" unicode="&#x168;" horiz-adv-x="743" 
d="M304 843q-39 0 -43 -72h-53q0 63 23.5 100.5t67.5 37.5q33 0 78 -36t62 -36q41 0 43 73h54q0 -63 -23.5 -101t-68.5 -38q-26 0 -52.5 18t-49 36t-38.5 18zM660 291q0 -146 -75.5 -224.5t-213.5 -78.5q-137 0 -213 79t-76 226v421h86v-428q0 -112 53.5 -168.5t149.5 -56.5
q97 0 150 56.5t53 168.5v428h86v-423z" />
    <glyph glyph-name="utilde" unicode="&#x169;" horiz-adv-x="592" 
d="M228 661q-40 0 -43 -76h-53q0 63 23.5 100.5t67.5 37.5q33 0 78 -37.5t62 -37.5q41 0 43 75h54q0 -63 -23.5 -100.5t-68.5 -37.5q-26 0 -52.5 19t-49 38t-38.5 19zM503 0h-81v91q-18 -48 -60.5 -75.5t-99.5 -27.5q-85 0 -131.5 49.5t-46.5 141.5v324h84v-308
q0 -142 118 -142q60 0 96.5 43t36.5 130v277h84v-503z" />
    <glyph glyph-name="Umacron" unicode="&#x16a;" horiz-adv-x="743" 
d="M225 786v63h293v-63h-293zM660 291q0 -146 -75.5 -224.5t-213.5 -78.5q-137 0 -213 79t-76 226v421h86v-428q0 -112 53.5 -168.5t149.5 -56.5q97 0 150 56.5t53 168.5v428h86v-423z" />
    <glyph glyph-name="umacron" unicode="&#x16b;" horiz-adv-x="592" 
d="M154 608v62h285v-62h-285zM503 0h-81v91q-18 -48 -60.5 -75.5t-99.5 -27.5q-85 0 -131.5 49.5t-46.5 141.5v324h84v-308q0 -142 118 -142q60 0 96.5 43t36.5 130v277h84v-503z" />
    <glyph glyph-name="Ubreve" unicode="&#x16c;" horiz-adv-x="743" 
d="M372 763q-61 0 -98 41.5t-37 111.5h62q0 -43 19 -66.5t54 -23.5t54 23.5t19 66.5h61q0 -71 -36.5 -112t-97.5 -41zM660 291q0 -146 -75.5 -224.5t-213.5 -78.5q-137 0 -213 79t-76 226v421h86v-428q0 -112 53.5 -168.5t149.5 -56.5q97 0 150 56.5t53 168.5v428h86v-423z
" />
    <glyph glyph-name="ubreve" unicode="&#x16d;" horiz-adv-x="592" 
d="M297 584q-61 0 -98 41t-37 111h58q3 -93 77 -93q73 0 76 93h58q0 -70 -36.5 -111t-97.5 -41zM503 0h-81v91q-18 -48 -60.5 -75.5t-99.5 -27.5q-85 0 -131.5 49.5t-46.5 141.5v324h84v-308q0 -142 118 -142q60 0 96.5 43t36.5 130v277h84v-503z" />
    <glyph glyph-name="Uring" unicode="&#x16e;" horiz-adv-x="743" 
d="M372 717q-50 0 -86 36.5t-36 86.5t36 86.5t86 36.5q51 0 86 -36t35 -87t-35 -87t-86 -36zM372 909q-29 0 -49.5 -20.5t-20.5 -48.5t21 -49t49 -21t48 20.5t20 49.5t-20 49t-48 20zM660 291q0 -146 -75.5 -224.5t-213.5 -78.5q-137 0 -213 79t-76 226v421h86v-428
q0 -112 53.5 -168.5t149.5 -56.5q97 0 150 56.5t53 168.5v428h86v-423z" />
    <glyph glyph-name="uring" unicode="&#x16f;" horiz-adv-x="592" 
d="M197 671q0 42 29.5 71.5t70.5 29.5t70 -29.5t29 -71.5q0 -41 -29 -70t-70 -29t-70.5 29.5t-29.5 69.5zM349 671q0 23 -15 38.5t-37 15.5t-37.5 -16t-15.5 -38q0 -21 15.5 -36.5t37.5 -15.5t37 15.5t15 36.5zM503 0h-81v91q-18 -48 -60.5 -75.5t-99.5 -27.5
q-85 0 -131.5 49.5t-46.5 141.5v324h84v-308q0 -142 118 -142q60 0 96.5 43t36.5 130v277h84v-503z" />
    <glyph glyph-name="Uhungarumlaut" unicode="&#x170;" horiz-adv-x="743" 
d="M405 767l57 148h98l-107 -148h-48zM250 767l58 148h97l-106 -148h-49zM660 291q0 -146 -75.5 -224.5t-213.5 -78.5q-137 0 -213 79t-76 226v421h86v-428q0 -112 53.5 -168.5t149.5 -56.5q97 0 150 56.5t53 168.5v428h86v-423z" />
    <glyph glyph-name="uhungarumlaut" unicode="&#x171;" horiz-adv-x="592" 
d="M333 580l57 156h98l-107 -156h-48zM178 580l58 156h97l-106 -156h-49zM503 0h-81v91q-18 -48 -60.5 -75.5t-99.5 -27.5q-85 0 -131.5 49.5t-46.5 141.5v324h84v-308q0 -142 118 -142q60 0 96.5 43t36.5 130v277h84v-503z" />
    <glyph glyph-name="Uogonek" unicode="&#x172;" horiz-adv-x="743" 
d="M519 -183q-21 -7 -48 -7q-35 0 -60.5 20t-25.5 58q0 49 48 105q-32 -5 -62 -5q-137 0 -213 79t-76 226v421h86v-428q0 -112 53.5 -168.5t149.5 -56.5q97 0 150 56.5t53 168.5v428h86v-423q0 -209 -149 -276q-66 -51 -66 -115q0 -37 42 -37q17 0 32 4v-50z" />
    <glyph glyph-name="uogonek" unicode="&#x173;" horiz-adv-x="592" 
d="M491 -183q-21 -7 -48 -7q-35 0 -60 19.5t-25 57.5q0 29 15.5 56t48.5 67v81q-18 -48 -60.5 -75.5t-99.5 -27.5q-85 0 -131.5 49.5t-46.5 141.5v324h84v-308q0 -142 118 -142q60 0 96.5 43t36.5 130v277h84v-503h-32q-32 -42 -43 -62t-11 -39q0 -36 42 -36q17 0 32 4v-50z
" />
    <glyph glyph-name="Wcircumflex" unicode="&#x174;" horiz-adv-x="972" 
d="M441 915h91l92 -150h-52l-85 93l-85 -93h-53zM648 0l-161 600h-2l-162 -600h-97l-201 714h91l164 -607h2l161 607h91l162 -607h2l163 607h86l-201 -714h-98z" />
    <glyph glyph-name="wcircumflex" unicode="&#x175;" horiz-adv-x="765" 
d="M340 736h87l94 -158h-52l-85 104l-85 -104h-53zM426 503l114 -413h2l116 413h80l-152 -503h-86l-116 407h-3l-114 -407h-87l-152 503h82l117 -413h3l112 413h84z" />
    <glyph glyph-name="Ycircumflex" unicode="&#x176;" horiz-adv-x="664" 
d="M287 915h91l92 -150h-52l-85 93l-85 -93h-53zM375 0h-86v296l-272 418h95l223 -341h2l216 341h95l-273 -418v-296z" />
    <glyph glyph-name="ycircumflex" unicode="&#x177;" horiz-adv-x="542" 
d="M235 736h87l94 -158h-52l-85 104l-85 -104h-53zM230 -4l-202 507h87l160 -411h2l151 411h86l-203 -518q-36 -94 -73.5 -132t-104.5 -39q-22 0 -49 5v68q16 -4 40 -4q37 0 59 24t47 89z" />
    <glyph glyph-name="Ydieresis" unicode="&#x178;" horiz-adv-x="664" 
d="M381 785v101h85v-101h-85zM199 785v101h84v-101h-84zM375 0h-86v296l-272 418h95l223 -341h2l216 341h95l-273 -418v-296z" />
    <glyph glyph-name="Zacute" unicode="&#x179;" horiz-adv-x="666" 
d="M350 767h-51l57 148h106zM607 646l-444 -574h447v-72h-557v61l446 581h-431v72h539v-68z" />
    <glyph glyph-name="zacute" unicode="&#x17a;" horiz-adv-x="519" 
d="M283 580h-52l56 156h106zM455 442l-300 -378h311v-64h-414v54l302 385h-290v64h391v-61z" />
    <glyph glyph-name="Zdotaccent" unicode="&#x17b;" horiz-adv-x="666" 
d="M286 785v101h94v-101h-94zM607 646l-444 -574h447v-72h-557v61l446 581h-431v72h539v-68z" />
    <glyph glyph-name="zdotaccent" unicode="&#x17c;" horiz-adv-x="519" 
d="M218 608v101h94v-101h-94zM455 442l-300 -378h311v-64h-414v54l302 385h-290v64h391v-61z" />
    <glyph glyph-name="Zcaron" unicode="&#x17d;" horiz-adv-x="666" 
d="M379 765h-91l-92 150h53l85 -93l85 93h52zM607 646l-444 -574h447v-72h-557v61l446 581h-431v72h539v-68z" />
    <glyph glyph-name="zcaron" unicode="&#x17e;" horiz-adv-x="519" 
d="M308 578h-87l-94 158h53l85 -104l85 104h52zM455 442l-300 -378h311v-64h-414v54l302 385h-290v64h391v-61z" />
    <glyph glyph-name="uni0192" unicode="&#x192;" horiz-adv-x="507" 
d="M390 340h-126l-80 -450h-81l80 450h-86v64h98l33 187q14 74 57.5 115.5t109.5 41.5q33 0 68 -13v-77q-28 14 -63 14q-76 0 -94 -100l-30 -168h114v-64z" />
    <glyph glyph-name="AEacute" unicode="&#x1fc;" horiz-adv-x="1095" 
d="M770 767h-51l57 148h106zM547 0v201h-305l-136 -201h-89l482 714h530v-72h-397v-249h353v-73h-353v-248h397v-72h-482zM547 653l-257 -381h257v381z" />
    <glyph glyph-name="aeacute" unicode="&#x1fd;" horiz-adv-x="886" 
d="M455 580h-52l56 156h106zM830 148q-16 -77 -73 -118.5t-135 -41.5q-65 0 -117 27.5t-83 77.5q-67 -104 -198 -104q-74 0 -124 39t-50 108q0 76 58 114t154 38h124v47q0 58 -31.5 86t-85.5 28q-51 0 -81 -25t-35 -69h-80q7 76 61 118.5t135 42.5q123 0 169 -90
q69 90 179 90q106 0 161.5 -73t55.5 -179v-31h-373q4 -85 46.5 -132t114.5 -47q97 0 131 94h77zM617 450q-62 0 -103.5 -41.5t-50.5 -120.5h290q-2 72 -36.5 117t-99.5 45zM235 53q66 0 108.5 37.5t42.5 107.5v35h-123q-129 0 -129 -94q0 -38 26 -62t75 -24z" />
    <glyph glyph-name="Oslashacute" unicode="&#x1fe;" horiz-adv-x="750" 
d="M397 767h-51l57 148h106zM375 -12q-114 0 -195 64l-62 -82l-47 35l67 88q-88 102 -88 264t89 265.5t236 103.5q114 0 196 -65l61 80l46 -35l-65 -86q87 -101 87 -263q0 -163 -89 -266t-236 -103zM138 357q0 -122 50 -199l336 442q-59 53 -149 53q-114 0 -175.5 -81
t-61.5 -215zM611 357q0 121 -49 197l-335 -441q58 -52 148 -52q114 0 175 81t61 215z" />
    <glyph glyph-name="oslashacute" unicode="&#x1ff;" horiz-adv-x="582" 
d="M315 580h-52l56 156h106zM291 -12q-80 0 -140 43l-51 -65l-40 32l53 67q-61 74 -61 186q0 120 66.5 192t172.5 72q82 0 143 -45l48 61l39 -32l-51 -64q60 -71 60 -184q0 -120 -66.5 -191.5t-172.5 -71.5zM133 251q0 -74 28 -125l229 288q-40 35 -99 35q-74 0 -116 -53
t-42 -145zM449 251q0 74 -27 122l-227 -287q39 -33 96 -33q74 0 116 53t42 145z" />
    <glyph glyph-name="uni0218" unicode="&#x218;" horiz-adv-x="656" 
d="M47 211h83q8 -81 65.5 -117.5t145.5 -36.5q78 0 127.5 36t49.5 99q0 47 -30 75.5t-100 41.5l-136 27q-182 34 -182 185q0 89 69.5 147t179.5 58q117 0 187.5 -50t80.5 -145h-83q-9 60 -58 93t-126 33q-76 0 -121 -37.5t-45 -95.5q0 -51 29.5 -75.5t97.5 -37.5l140 -29
q88 -18 134 -61.5t46 -124.5q0 -91 -73 -149.5t-186 -58.5q-124 0 -206 56t-89 167zM281 -125v72h100v-64q0 -107 -104 -107v39q27 0 38 15t11 45h-45z" />
    <glyph glyph-name="uni0219" unicode="&#x219;" horiz-adv-x="516" 
d="M46 149h80q4 -49 43.5 -73.5t94.5 -24.5q53 0 86 23t33 63q0 57 -88 73l-89 18q-67 12 -103.5 43t-36.5 93q0 65 52.5 108t134.5 43q88 0 139 -37t58 -108h-77q-4 38 -36 59.5t-84 21.5q-50 0 -80 -22.5t-30 -59.5q0 -31 21 -47t67 -25l100 -19q130 -25 130 -137
q0 -66 -55.5 -109.5t-140.5 -43.5q-93 0 -152.5 41t-66.5 120zM219 -125v72h100v-64q0 -107 -104 -107v39q27 0 38 15t11 45h-45z" />
    <glyph glyph-name="uni021A" unicode="&#x21a;" horiz-adv-x="699" 
d="M306 0v642h-266v72h619v-72h-267v-642h-86zM299 -125v72h100v-64q0 -107 -104 -107v39q27 0 38 15t11 45h-45z" />
    <glyph glyph-name="uni021B" unicode="&#x21b;" horiz-adv-x="369" 
d="M323 74v-68q-47 -14 -88 -14q-139 0 -139 137v311h-74v63h74v128h82v-128h132v-63h-133v-307q0 -71 73 -71q35 0 73 12zM160 -125v72h100v-64q0 -107 -104 -107v39q27 0 38 15t11 45h-45z" />
    <glyph glyph-name="uni0237" unicode="&#x237;" horiz-adv-x="261" 
d="M37 -184q-23 0 -43 4v66q14 -3 27 -3q37 0 52.5 15t15.5 54v551h83v-548q0 -71 -33 -105t-102 -34z" />
    <glyph glyph-name="circumflex" unicode="&#x2c6;" horiz-adv-x="565" 
d="M239 736h87l94 -158h-52l-85 104l-85 -104h-53z" />
    <glyph glyph-name="caron" unicode="&#x2c7;" horiz-adv-x="565" 
d="M326 578h-87l-94 158h53l85 -104l85 104h52z" />
    <glyph glyph-name="breve" unicode="&#x2d8;" horiz-adv-x="565" 
d="M281 584q-61 0 -98 41t-37 111h58q3 -93 77 -93q73 0 76 93h58q0 -70 -36.5 -111t-97.5 -41z" />
    <glyph glyph-name="dotaccent" unicode="&#x2d9;" horiz-adv-x="565" 
d="M236 608v101h94v-101h-94z" />
    <glyph glyph-name="ring" unicode="&#x2da;" horiz-adv-x="565" 
d="M183 671q0 42 29.5 71.5t70.5 29.5t70 -29.5t29 -71.5q0 -41 -29 -70t-70 -29t-70.5 29.5t-29.5 69.5zM335 671q0 23 -15 38.5t-37 15.5t-37.5 -16t-15.5 -38q0 -21 15.5 -36.5t37.5 -15.5t37 15.5t15 36.5z" />
    <glyph glyph-name="ogonek" unicode="&#x2db;" horiz-adv-x="565" 
d="M231 -113q0 21 10.5 44t22 39t35.5 45h57q-40 -51 -53 -73.5t-13 -42.5q0 -36 42 -36q17 0 32 4v-50q-21 -7 -48 -7q-35 0 -60 19.5t-25 57.5z" />
    <glyph glyph-name="tilde" unicode="&#x2dc;" horiz-adv-x="565" 
d="M216 661q-40 0 -43 -76h-53q0 63 23.5 100.5t67.5 37.5q33 0 78 -37.5t62 -37.5q41 0 43 75h54q0 -63 -23.5 -100.5t-68.5 -37.5q-26 0 -52.5 19t-49 38t-38.5 19z" />
    <glyph glyph-name="hungarumlaut" unicode="&#x2dd;" horiz-adv-x="565" 
d="M281 580l57 156h98l-107 -156h-48zM126 580l58 156h97l-106 -156h-49z" />
    <glyph glyph-name="Wgrave" unicode="&#x1e80;" horiz-adv-x="972" 
d="M522 767h-51l-112 148h106zM648 0l-161 600h-2l-162 -600h-97l-201 714h91l164 -607h2l161 607h91l162 -607h2l163 607h86l-201 -714h-98z" />
    <glyph glyph-name="wgrave" unicode="&#x1e81;" horiz-adv-x="765" 
d="M420 580h-52l-110 156h106zM426 503l114 -413h2l116 413h80l-152 -503h-86l-116 407h-3l-114 -407h-87l-152 503h82l117 -413h3l112 413h84z" />
    <glyph glyph-name="Wacute" unicode="&#x1e82;" horiz-adv-x="972" 
d="M516 767h-51l57 148h106zM648 0l-161 600h-2l-162 -600h-97l-201 714h91l164 -607h2l161 607h91l162 -607h2l163 607h86l-201 -714h-98z" />
    <glyph glyph-name="wacute" unicode="&#x1e83;" horiz-adv-x="765" 
d="M402 580h-52l56 156h106zM426 503l114 -413h2l116 413h80l-152 -503h-86l-116 407h-3l-114 -407h-87l-152 503h82l117 -413h3l112 413h84z" />
    <glyph glyph-name="Wdieresis" unicode="&#x1e84;" horiz-adv-x="972" 
d="M535 785v101h85v-101h-85zM353 785v101h84v-101h-84zM648 0l-161 600h-2l-162 -600h-97l-201 714h91l164 -607h2l161 607h91l162 -607h2l163 607h86l-201 -714h-98z" />
    <glyph glyph-name="wdieresis" unicode="&#x1e85;" horiz-adv-x="765" 
d="M432 608v101h85v-101h-85zM250 608v101h84v-101h-84zM426 503l114 -413h2l116 413h80l-152 -503h-86l-116 407h-3l-114 -407h-87l-152 503h82l117 -413h3l112 413h84z" />
    <glyph glyph-name="Ygrave" unicode="&#x1ef2;" horiz-adv-x="664" 
d="M364 767h-51l-112 148h106zM375 0h-86v296l-272 418h95l223 -341h2l216 341h95l-273 -418v-296z" />
    <glyph glyph-name="ygrave" unicode="&#x1ef3;" horiz-adv-x="542" 
d="M310 580h-52l-110 156h106zM230 -4l-202 507h87l160 -411h2l151 411h86l-203 -518q-36 -94 -73.5 -132t-104.5 -39q-22 0 -49 5v68q16 -4 40 -4q37 0 59 24t47 89z" />
    <glyph glyph-name="endash" unicode="&#x2013;" horiz-adv-x="677" 
d="M87 246v66h503v-66h-503z" />
    <glyph glyph-name="emdash" unicode="&#x2014;" horiz-adv-x="1003" 
d="M87 246v66h829v-66h-829z" />
    <glyph glyph-name="quoteleft" unicode="&#x2018;" horiz-adv-x="308" 
d="M208 585v-98h-109v111q0 64 37 102t103 38v-50q-82 0 -82 -89v-14h51z" />
    <glyph glyph-name="quoteright" unicode="&#x2019;" horiz-adv-x="308" 
d="M100 638v98h109v-111q0 -64 -37 -102t-103 -38v50q82 0 82 89v14h-51z" />
    <glyph glyph-name="quotesinglbase" unicode="&#x201a;" horiz-adv-x="308" 
d="M100 29v98h109v-111q0 -64 -37 -102t-103 -38v50q82 0 82 89v14h-51z" />
    <glyph glyph-name="quotedblleft" unicode="&#x201c;" horiz-adv-x="522" 
d="M422 585v-98h-109v111q0 64 37 102t103 38v-50q-82 0 -82 -89v-14h51zM208 585v-98h-109v111q0 64 37 102t103 38v-50q-82 0 -82 -89v-14h51z" />
    <glyph glyph-name="quotedblright" unicode="&#x201d;" horiz-adv-x="522" 
d="M100 638v98h109v-111q0 -64 -37 -102t-103 -38v50q82 0 82 89v14h-51zM314 638v98h109v-111q0 -64 -37 -102t-103 -38v50q82 0 82 89v14h-51z" />
    <glyph glyph-name="quotedblbase" unicode="&#x201e;" horiz-adv-x="522" 
d="M100 29v98h109v-111q0 -64 -37 -102t-103 -38v50q82 0 82 89v14h-51zM314 29v98h109v-111q0 -64 -37 -102t-103 -38v50q82 0 82 89v14h-51z" />
    <glyph glyph-name="dagger" unicode="&#x2020;" horiz-adv-x="369" 
d="M332 556h-119v-251h-58v251h-118v56h118v114h58v-114h119v-56z" />
    <glyph glyph-name="daggerdbl" unicode="&#x2021;" horiz-adv-x="369" 
d="M332 414h-119v-109h-58v109h-118v55h118v94h-118v55h118v108h58v-108h119v-55h-119v-94h119v-55z" />
    <glyph glyph-name="bullet" unicode="&#x2022;" horiz-adv-x="440" 
d="M87 297q0 55 39 93.5t95 38.5q55 0 93.5 -38.5t38.5 -93.5t-38.5 -93.5t-93.5 -38.5q-56 0 -95 38.5t-39 93.5z" />
    <glyph glyph-name="ellipsis" unicode="&#x2026;" horiz-adv-x="708" 
d="M500 0v109h109v-109h-109zM300 0v109h109v-109h-109zM99 0v109h109v-109h-109z" />
    <glyph glyph-name="guilsinglleft" unicode="&#x2039;" horiz-adv-x="318" 
d="M256 45h-62l-133 196l133 196h62l-107 -196z" />
    <glyph glyph-name="guilsinglright" unicode="&#x203a;" horiz-adv-x="318" 
d="M124 42h-62l107 196l-107 196h62l133 -196z" />
    <glyph glyph-name="fraction" unicode="&#x2044;" horiz-adv-x="184" 
d="M-131 -12h-70l516 739h69z" />
    <glyph glyph-name="uni2070" unicode="&#x2070;" horiz-adv-x="417" 
d="M208 316q-74 0 -119 57t-45 146q0 90 45 147t119 57t119.5 -57t45.5 -147q0 -89 -45.5 -146t-119.5 -57zM208 370q48 0 72.5 40t24.5 109q0 70 -24.5 110t-72.5 40q-47 0 -71.5 -40t-24.5 -110q0 -69 24.5 -109t71.5 -40z" />
    <glyph glyph-name="uni2074" unicode="&#x2074;" horiz-adv-x="407" 
d="M293 714v-248h80v-49h-80v-94h-63v94h-195v50l185 247h73zM230 650l-135 -184h135v184z" />
    <glyph glyph-name="uni2075" unicode="&#x2075;" horiz-adv-x="376" 
d="M190 534q-47 0 -73 -38h-60l21 218h234v-54h-185l-12 -110q30 34 85 34q61 0 97.5 -37.5t36.5 -95.5q0 -59 -39 -97.5t-105 -38.5q-65 0 -105 34t-45 91h68q2 -32 24.5 -53t57.5 -21q39 0 59 24t20 61q0 35 -20.5 59t-58.5 24z" />
    <glyph glyph-name="uni2076" unicode="&#x2076;" horiz-adv-x="384" 
d="M204 670q-46 0 -72 -42.5t-26 -108.5q28 65 102 65q59 0 96.5 -37t37.5 -94q0 -60 -39.5 -98.5t-103.5 -38.5q-69 0 -112 53t-43 143q0 94 44.5 152.5t115.5 58.5q55 0 90.5 -30.5t43.5 -80.5h-61q-14 58 -73 58zM199 367q36 0 58.5 23.5t22.5 60.5t-22.5 60.5
t-58.5 23.5t-58.5 -23.5t-22.5 -60.5q0 -36 22.5 -60t58.5 -24z" />
    <glyph glyph-name="uni2077" unicode="&#x2077;" horiz-adv-x="354" 
d="M248 661h-215v53h283v-50q-66 -82 -93.5 -161.5t-28.5 -179.5h-70q1 182 124 338z" />
    <glyph glyph-name="uni2078" unicode="&#x2078;" horiz-adv-x="391" 
d="M195 316q-69 0 -110.5 31t-41.5 83q0 34 24 60.5t55 32.5q-62 25 -62 89q0 51 38.5 81t96.5 30q59 0 97.5 -30t38.5 -81q0 -63 -61 -89q31 -6 54.5 -32.5t23.5 -60.5q0 -52 -41.5 -83t-111.5 -31zM195 673q-32 0 -53.5 -16t-21.5 -46t21.5 -47t53.5 -17q33 0 54 17t21 47
t-21 46t-54 16zM195 499q-41 0 -64 -18t-23 -48q0 -31 23 -49t64 -18q42 0 65.5 18t23.5 49q0 30 -23.5 48t-65.5 18z" />
    <glyph glyph-name="uni2079" unicode="&#x2079;" horiz-adv-x="384" 
d="M182 369q46 0 72 42.5t26 108.5q-12 -29 -39 -47.5t-65 -18.5q-58 0 -95 38t-37 95q0 59 39 97.5t103 38.5q69 0 112.5 -53.5t43.5 -142.5q0 -94 -45 -152.5t-117 -58.5q-54 0 -89.5 30t-43.5 81h62q14 -58 73 -58zM186 671q-36 0 -58 -23t-22 -60q0 -38 22 -61.5
t58 -23.5q37 0 59.5 23.5t22.5 61.5q0 36 -23 59.5t-59 23.5z" />
    <glyph glyph-name="uni2080" unicode="&#x2080;" horiz-adv-x="417" 
d="M208 -147q-74 0 -119 57t-45 146q0 90 45 147t119 57t119.5 -57t45.5 -147q0 -89 -45.5 -146t-119.5 -57zM208 -93q48 0 72.5 40t24.5 109q0 70 -24.5 110t-72.5 40q-47 0 -71.5 -40t-24.5 -110q0 -69 24.5 -109t71.5 -40z" />
    <glyph glyph-name="uni2081" unicode="&#x2081;" horiz-adv-x="334" 
d="M310 -90v-50h-267v50h101v237h-100v47q67 0 90 13t31 46h44v-343h101z" />
    <glyph glyph-name="uni2082" unicode="&#x2082;" horiz-adv-x="359" 
d="M318 142q0 -26 -8.5 -46.5t-29.5 -39t-35.5 -28t-46.5 -29.5q-87 -51 -88 -86h217v-53h-289v26q0 34 21 66t44.5 50.5t59.5 40.5q49 30 70.5 50.5t21.5 48.5q0 27 -18 45.5t-53 18.5t-55.5 -22.5t-22.5 -54.5h-64q4 55 42 92.5t101 37.5q60 0 96.5 -34t36.5 -83z" />
    <glyph glyph-name="uni2083" unicode="&#x2083;" horiz-adv-x="373" 
d="M331 -34q0 -48 -38.5 -80.5t-104.5 -32.5t-106.5 33t-45.5 89h64q3 -32 26.5 -51t61.5 -19q37 0 58.5 17.5t21.5 47.5q0 29 -21 45t-56 16h-40v51h38q30 0 49.5 15t19.5 45q0 28 -18.5 46.5t-51.5 18.5q-35 0 -55.5 -20.5t-22.5 -52.5h-62q3 54 40 90t100 36
q64 0 98.5 -33.5t34.5 -82.5q0 -34 -20 -58.5t-50 -29.5q36 -6 58 -30.5t22 -59.5z" />
    <glyph glyph-name="uni2084" unicode="&#x2084;" horiz-adv-x="407" 
d="M293 251v-248h80v-49h-80v-94h-63v94h-195v50l185 247h73zM230 187l-135 -184h135v184z" />
    <glyph glyph-name="uni2085" unicode="&#x2085;" horiz-adv-x="376" 
d="M190 72q-47 0 -73 -38h-60l21 218h234v-54h-185l-12 -110q30 34 85 34q61 0 97.5 -37.5t36.5 -95.5q0 -59 -39 -97.5t-105 -38.5q-65 0 -105 34t-45 91h68q2 -32 24.5 -53t57.5 -21q39 0 59 24t20 61q0 35 -20.5 59t-58.5 24z" />
    <glyph glyph-name="uni2086" unicode="&#x2086;" horiz-adv-x="384" 
d="M204 207q-46 0 -72 -42.5t-26 -108.5q28 65 102 65q59 0 96.5 -37t37.5 -94q0 -60 -39.5 -98.5t-103.5 -38.5q-69 0 -112 53t-43 143q0 94 44.5 152.5t115.5 58.5q55 0 90.5 -30.5t43.5 -80.5h-61q-14 58 -73 58zM199 -96q36 0 58.5 23.5t22.5 60.5t-22.5 60.5
t-58.5 23.5t-58.5 -23.5t-22.5 -60.5q0 -36 22.5 -60t58.5 -24z" />
    <glyph glyph-name="uni2087" unicode="&#x2087;" horiz-adv-x="354" 
d="M248 198h-215v53h283v-50q-66 -82 -93.5 -161.5t-28.5 -179.5h-70q1 182 124 338z" />
    <glyph glyph-name="uni2088" unicode="&#x2088;" horiz-adv-x="391" 
d="M195 -147q-69 0 -110.5 31t-41.5 83q0 34 24 60.5t55 32.5q-62 25 -62 89q0 51 38.5 81t96.5 30q59 0 97.5 -30t38.5 -81q0 -63 -61 -89q31 -6 54.5 -32.5t23.5 -60.5q0 -52 -41.5 -83t-111.5 -31zM195 210q-32 0 -53.5 -16t-21.5 -46t21.5 -47t53.5 -17q33 0 54 17
t21 47t-21 46t-54 16zM195 36q-41 0 -64 -18t-23 -48q0 -31 23 -49t64 -18q42 0 65.5 18t23.5 49q0 30 -23.5 48t-65.5 18z" />
    <glyph glyph-name="uni2089" unicode="&#x2089;" horiz-adv-x="384" 
d="M182 -94q46 0 72 42.5t26 108.5q-12 -29 -39 -47.5t-65 -18.5q-58 0 -95 38t-37 95q0 59 39 97.5t103 38.5q69 0 112.5 -53.5t43.5 -142.5q0 -94 -45 -152.5t-117 -58.5q-54 0 -89.5 30t-43.5 81h62q14 -58 73 -58zM186 208q-36 0 -58 -23t-22 -60q0 -38 22 -61.5
t58 -23.5q37 0 59.5 23.5t22.5 61.5q0 36 -23 59.5t-59 23.5z" />
    <glyph glyph-name="Euro" unicode="&#x20ac;" horiz-adv-x="703" 
d="M658 208q-16 -101 -80 -160.5t-170 -59.5q-107 0 -184 71.5t-102 195.5h-75v60h68q-2 28 -2 43q0 27 1 40h-67v60h75q23 124 100.5 196t185.5 72q106 0 170 -59t80 -160h-81q-26 146 -168 146q-80 0 -132 -51.5t-70 -143.5h241l-11 -60h-238q-1 -13 -1 -40q0 -15 2 -43
h219l-11 -60h-200q18 -91 70 -142.5t131 -51.5q142 0 168 147h81z" />
    <glyph glyph-name="trademark" unicode="&#x2122;" horiz-adv-x="847" 
d="M219 398h-64v261h-110v55h285v-55h-111v-261zM578 398h-48l-79 255h-3v-255h-57v316h95l69 -233h3l70 233h92v-316h-62v255h-2z" />
    <glyph glyph-name="uni2153" unicode="&#x2153;" horiz-adv-x="924" 
d="M239 -12h-70l516 739h69zM335 373v-50h-267v50h101v237h-100v47q67 0 90 13t31 46h44v-343h101zM862 106q0 -48 -38.5 -80.5t-104.5 -32.5t-106.5 33t-45.5 89h64q3 -32 26.5 -51t61.5 -19q37 0 58.5 17.5t21.5 47.5q0 29 -21 45t-56 16h-40v51h38q30 0 49.5 15t19.5 45
q0 28 -18.5 46.5t-51.5 18.5q-35 0 -55.5 -20.5t-22.5 -52.5h-62q3 54 40 90t100 36q64 0 98.5 -33.5t34.5 -82.5q0 -34 -20 -58.5t-50 -29.5q36 -6 58 -30.5t22 -59.5z" />
    <glyph glyph-name="uni2154" unicode="&#x2154;" horiz-adv-x="944" 
d="M260 -12h-70l516 739h69zM343 605q0 -26 -8.5 -46.5t-29.5 -39t-35.5 -28t-46.5 -29.5q-87 -51 -88 -86h217v-53h-289v26q0 34 21 66t44.5 50.5t59.5 40.5q49 30 70.5 50.5t21.5 48.5q0 27 -18 45.5t-53 18.5t-55.5 -22.5t-22.5 -54.5h-64q4 55 42 92.5t101 37.5
q60 0 96.5 -34t36.5 -83zM883 106q0 -48 -38.5 -80.5t-104.5 -32.5t-106.5 33t-45.5 89h64q3 -32 26.5 -51t61.5 -19q37 0 58.5 17.5t21.5 47.5q0 29 -21 45t-56 16h-40v51h38q30 0 49.5 15t19.5 45q0 28 -18.5 46.5t-51.5 18.5q-35 0 -55.5 -20.5t-22.5 -52.5h-62
q3 54 40 90t100 36q64 0 98.5 -33.5t34.5 -82.5q0 -34 -20 -58.5t-50 -29.5q36 -6 58 -30.5t22 -59.5z" />
    <glyph glyph-name="uni215B" unicode="&#x215b;" horiz-adv-x="940" 
d="M239 -12h-70l516 739h69zM335 373v-50h-267v50h101v237h-100v47q67 0 90 13t31 46h44v-343h101zM726 -7q-69 0 -110.5 31t-41.5 83q0 34 24 60.5t55 32.5q-62 25 -62 89q0 51 38.5 81t96.5 30q59 0 97.5 -30t38.5 -81q0 -63 -61 -89q31 -6 54.5 -32.5t23.5 -60.5
q0 -52 -41.5 -83t-111.5 -31zM726 350q-32 0 -53.5 -16t-21.5 -46t21.5 -47t53.5 -17q33 0 54 17t21 47t-21 46t-54 16zM726 176q-41 0 -64 -18t-23 -48q0 -31 23 -49t64 -18q42 0 65.5 18t23.5 49q0 30 -23.5 48t-65.5 18z" />
    <glyph glyph-name="uni215C" unicode="&#x215c;" horiz-adv-x="958" 
d="M257 -12h-70l516 739h69zM356 429q0 -48 -38.5 -80.5t-104.5 -32.5t-106.5 33t-45.5 89h64q3 -32 26.5 -51t61.5 -19q37 0 58.5 17.5t21.5 47.5q0 29 -21 45t-56 16h-40v51h38q30 0 49.5 15t19.5 45q0 28 -18.5 46.5t-51.5 18.5q-35 0 -55.5 -20.5t-22.5 -52.5h-62
q3 54 40 90t100 36q64 0 98.5 -33.5t34.5 -82.5q0 -34 -20 -58.5t-50 -29.5q36 -6 58 -30.5t22 -59.5zM744 -7q-69 0 -110.5 31t-41.5 83q0 34 24 60.5t55 32.5q-62 25 -62 89q0 51 38.5 81t96.5 30q59 0 97.5 -30t38.5 -81q0 -63 -61 -89q31 -6 54.5 -32.5t23.5 -60.5
q0 -52 -41.5 -83t-111.5 -31zM744 350q-32 0 -53.5 -16t-21.5 -46t21.5 -47t53.5 -17q33 0 54 17t21 47t-21 46t-54 16zM744 176q-41 0 -64 -18t-23 -48q0 -31 23 -49t64 -18q42 0 65.5 18t23.5 49q0 30 -23.5 48t-65.5 18z" />
    <glyph glyph-name="uni215D" unicode="&#x215d;" horiz-adv-x="945" 
d="M244 -12h-70l516 739h69zM215 534q-47 0 -73 -38h-60l21 218h234v-54h-185l-12 -110q30 34 85 34q61 0 97.5 -37.5t36.5 -95.5q0 -59 -39 -97.5t-105 -38.5q-65 0 -105 34t-45 91h68q2 -32 24.5 -53t57.5 -21q39 0 59 24t20 61q0 35 -20.5 59t-58.5 24zM731 -7
q-69 0 -110.5 31t-41.5 83q0 34 24 60.5t55 32.5q-62 25 -62 89q0 51 38.5 81t96.5 30q59 0 97.5 -30t38.5 -81q0 -63 -61 -89q31 -6 54.5 -32.5t23.5 -60.5q0 -52 -41.5 -83t-111.5 -31zM731 350q-32 0 -53.5 -16t-21.5 -46t21.5 -47t53.5 -17q33 0 54 17t21 47t-21 46
t-54 16zM731 176q-41 0 -64 -18t-23 -48q0 -31 23 -49t64 -18q42 0 65.5 18t23.5 49q0 30 -23.5 48t-65.5 18z" />
    <glyph glyph-name="uni215E" unicode="&#x215e;" horiz-adv-x="880" 
d="M179 -12h-70l516 739h69zM273 661h-215v53h283v-50q-66 -82 -93.5 -161.5t-28.5 -179.5h-70q1 182 124 338zM666 -7q-69 0 -110.5 31t-41.5 83q0 34 24 60.5t55 32.5q-62 25 -62 89q0 51 38.5 81t96.5 30q59 0 97.5 -30t38.5 -81q0 -63 -61 -89q31 -6 54.5 -32.5
t23.5 -60.5q0 -52 -41.5 -83t-111.5 -31zM666 350q-32 0 -53.5 -16t-21.5 -46t21.5 -47t53.5 -17q33 0 54 17t21 47t-21 46t-54 16zM666 176q-41 0 -64 -18t-23 -48q0 -31 23 -49t64 -18q42 0 65.5 18t23.5 49q0 30 -23.5 48t-65.5 18z" />
    <glyph glyph-name="minus" unicode="&#x2212;" 
d="M69 299v68h521v-68h-521z" />
    <glyph glyph-name="i.dot" horiz-adv-x="261" 
d="M84 608v101h94v-101h-94zM89 503h83v-503h-83v503z" />
    <glyph glyph-name="a.ord" horiz-adv-x="397" 
d="M267 371q-12 -29 -42.5 -45.5t-71.5 -16.5q-47 0 -78.5 26t-31.5 71q0 85 117 99l104 12v19q0 69 -70 69q-31 0 -49.5 -15.5t-20.5 -41.5h-66q4 52 42 81.5t95 29.5q66 0 101.5 -31.5t35.5 -93.5v-141q0 -42 7 -76h-67q-5 23 -5 54zM264 446v29l-83 -10q-33 -4 -51 -16
t-18 -40q0 -23 15 -37.5t43 -14.5q38 0 66 24t28 65z" />
    <glyph glyph-name="b.ord" horiz-adv-x="437" 
d="M135 375v-59h-67v485h69v-206q14 27 42.5 45t65.5 18q66 0 107.5 -48.5t41.5 -126.5q0 -79 -41.5 -127t-107.5 -48q-39 0 -68 19.5t-42 47.5zM135 488v-10q0 -55 24.5 -87t68.5 -32t69.5 34t25.5 90t-25.5 89.5t-69.5 33.5t-68.5 -32.5t-24.5 -85.5z" />
    <glyph glyph-name="c.ord" horiz-adv-x="388" 
d="M44 484q0 79 45 127t117 48q59 0 95.5 -31.5t44.5 -86.5h-65q-14 64 -76 64q-43 0 -67.5 -33t-24.5 -88q0 -56 24 -89.5t68 -33.5q62 0 76 65h65q-8 -56 -44.5 -87t-95.5 -31q-72 0 -117 48t-45 128z" />
    <glyph glyph-name="d.ord" horiz-adv-x="437" 
d="M302 316v59q-13 -28 -42 -47.5t-68 -19.5q-66 0 -107.5 48t-41.5 127q0 78 41.5 126.5t107.5 48.5q37 0 65.5 -18t42.5 -45v206h69v-485h-67zM302 478v10q0 53 -24.5 85.5t-68.5 32.5t-69.5 -33.5t-25.5 -89.5t25.5 -90t69.5 -34t68.5 32t24.5 87z" />
    <glyph glyph-name="e.ord" horiz-adv-x="398" 
d="M352 417q-11 -52 -49.5 -80.5t-93.5 -28.5q-73 0 -119 47t-46 127q0 81 45.5 129t115.5 48q73 0 111.5 -48.5t38.5 -119.5v-22h-244q3 -52 28.5 -80t69.5 -28q61 0 79 56h64zM205 605q-37 0 -61.5 -24.5t-30.5 -71.5h175q-1 43 -22 69.5t-61 26.5z" />
    <glyph glyph-name="f.ord" horiz-adv-x="239" 
d="M76 599h-46v51h46v57q0 47 28 72t76 25q23 0 43 -3v-54q-20 2 -34 2q-43 0 -43 -45v-54h68v-51h-68v-283h-70v283z" />
    <glyph glyph-name="g.ord" horiz-adv-x="435" 
d="M300 337v49q-11 -27 -39.5 -44.5t-67.5 -17.5q-66 0 -107 45.5t-41 121.5q0 75 41 121t107 46q39 0 68 -19t42 -46v57h67v-306q0 -77 -45 -115.5t-119 -38.5q-64 0 -103.5 26t-49.5 75h69q14 -51 84 -51q94 0 94 97zM304 483v16q0 47 -26.5 77t-69.5 30
q-44 0 -69.5 -31.5t-25.5 -83.5t25.5 -83.5t69.5 -31.5q43 0 69.5 30t26.5 77z" />
    <glyph glyph-name="h.ord" horiz-adv-x="428" 
d="M137 592q28 66 106 66q56 0 88 -34t32 -93v-215h-69v199q0 88 -74 88q-37 0 -60 -26t-23 -78v-183h-69v485h69v-209z" />
    <glyph glyph-name="i.ord" horiz-adv-x="205" 
d="M65 712v74h75v-74h-75zM68 650h69v-334h-69v334z" />
    <glyph glyph-name="j.ord" horiz-adv-x="205" 
d="M65 712v74h75v-74h-75zM40 195q-15 0 -33 3v53q7 -1 18 -1q24 0 33.5 8.5t9.5 32.5v359h69v-358q0 -97 -97 -97z" />
    <glyph glyph-name="k.ord" horiz-adv-x="406" 
d="M297 316l-119 149l-41 -39v-110h-69v485h69v-302l154 151h80l-144 -141l151 -193h-81z" />
    <glyph glyph-name="l.ord" horiz-adv-x="205" 
d="M137 316h-69v485h69v-485z" />
    <glyph glyph-name="m.ord" horiz-adv-x="634" 
d="M341 590q36 68 113 68q56 0 85.5 -33.5t29.5 -93.5v-215h-69v200q0 87 -67 87q-36 0 -57.5 -26t-21.5 -77v-184h-70v200q0 87 -67 87q-36 0 -58 -26t-22 -77v-184h-69v334h67v-58q13 30 40.5 48t63.5 18q77 0 102 -68z" />
    <glyph glyph-name="n.ord" horiz-adv-x="428" 
d="M135 650v-58q12 30 41 48t67 18q56 0 88 -34t32 -93v-215h-69v199q0 88 -74 88q-37 0 -60 -26t-23 -78v-183h-69v334h67z" />
    <glyph glyph-name="o.ord" horiz-adv-x="415" 
d="M44 484q0 80 45.5 127.5t118.5 47.5q72 0 118 -47.5t46 -127.5q0 -81 -46 -128.5t-118 -47.5q-73 0 -118.5 47.5t-45.5 128.5zM113 484q0 -58 25 -90.5t70 -32.5q44 0 69 32.5t25 90.5q0 56 -25 88.5t-69 32.5q-45 0 -70 -32.5t-25 -88.5z" />
    <glyph glyph-name="p.ord" horiz-adv-x="438" 
d="M137 372v-173h-69v451h67v-59q13 28 42 48t68 20q66 0 107.5 -48.5t41.5 -126.5q0 -79 -41.5 -127.5t-107.5 -48.5q-37 0 -65.5 18.5t-42.5 45.5zM135 488v-10q0 -54 24.5 -86t68.5 -32q45 0 70 33.5t25 90.5q0 55 -25.5 88.5t-69.5 33.5t-68.5 -32.5t-24.5 -85.5z" />
    <glyph glyph-name="q.ord" horiz-adv-x="438" 
d="M301 199v173q-14 -27 -42.5 -45.5t-65.5 -18.5q-66 0 -107.5 48.5t-41.5 127.5q0 78 41.5 126.5t107.5 48.5q39 0 68 -20t42 -48v59h67v-451h-69zM303 478v10q0 53 -24.5 85.5t-68.5 32.5t-69.5 -33.5t-25.5 -88.5q0 -57 25 -90.5t70 -33.5q44 0 68.5 32t24.5 86z" />
    <glyph glyph-name="r.ord" horiz-adv-x="290" 
d="M265 654v-64q-8 2 -30 2q-42 0 -70 -30t-28 -86v-160h-69v334h67v-78q11 40 39 62t65 22q12 0 26 -2z" />
    <glyph glyph-name="s.ord" horiz-adv-x="372" 
d="M40 415h65q3 -29 27.5 -44t57.5 -15q31 0 51 13.5t20 38.5q0 33 -55 44l-59 11q-96 19 -96 93q0 46 36.5 74.5t92.5 28.5q61 0 97.5 -26t41.5 -74h-62q-4 24 -25 38t-52 14q-29 0 -47 -14.5t-18 -36.5q0 -18 13.5 -28t42.5 -16l65 -12q89 -17 89 -93q0 -46 -37.5 -74.5
t-96.5 -28.5q-64 0 -105 27.5t-46 79.5z" />
    <glyph glyph-name="t.ord" horiz-adv-x="274" 
d="M234 374v-53q-29 -10 -63 -10q-97 0 -97 93v195h-49v51h49v84h68v-84h83v-51h-84v-187q0 -45 46 -45q19 0 47 7z" />
    <glyph glyph-name="u.ord" horiz-adv-x="423" 
d="M287 316v57q-11 -30 -39 -48t-65 -18q-56 0 -87.5 33.5t-31.5 93.5v216h70v-202q0 -87 71 -87q37 0 59 26t22 79v184h69v-334h-68z" />
    <glyph glyph-name="v.ord" horiz-adv-x="397" 
d="M162 316l-132 334h70l100 -267h2l96 267h69l-128 -334h-77z" />
    <glyph glyph-name="w.ord" horiz-adv-x="548" 
d="M309 650l70 -261h1l72 261h66l-101 -334h-71l-72 256h-1l-71 -256h-71l-101 334h69l72 -261h2l69 261h67z" />
    <glyph glyph-name="x.ord" horiz-adv-x="406" 
d="M109 316h-74l127 172l-119 162h80l82 -113l81 113h75l-119 -160l128 -174h-80l-90 125z" />
    <glyph glyph-name="y.ord" horiz-adv-x="396" 
d="M162 317l-132 334h72l99 -261h1l95 261h69l-133 -341q-23 -63 -51.5 -89t-77.5 -26q-18 0 -35 3v54q20 -2 25 -2q24 0 38 14t30 53z" />
    <glyph glyph-name="z.ord" horiz-adv-x="372" 
d="M320 600l-190 -232h198v-52h-282v45l190 236h-184v53h268v-50z" />
    <glyph glyph-name="caron.Slovak" horiz-adv-x="565" 
d="M259 528h-42l26 208h96z" />
    <glyph glyph-name="commaturn" horiz-adv-x="565" 
d="M330 656v-72h-100v64q0 107 104 107v-39q-27 0 -38 -15t-11 -45h45z" />
    <glyph glyph-name="uni00200326" horiz-adv-x="565" 
d="M236 -125v72h100v-64q0 -107 -104 -107v39q27 0 38 15t11 45h-45z" />
    <glyph glyph-name="guilsinglleft.cap" horiz-adv-x="318" 
d="M256 122h-62l-133 196l133 196h62l-107 -196z" />
    <glyph glyph-name="guilsinglright.cap" horiz-adv-x="318" 
d="M124 122h-62l107 196l-107 196h62l133 -196z" />
    <glyph glyph-name="guillemotleft.cap" horiz-adv-x="511" 
d="M450 122h-62l-132 196l132 196h62l-109 -196zM255 122h-61l-133 196l133 196h61l-107 -196z" />
    <glyph glyph-name="guillemotright.cap" horiz-adv-x="511" 
d="M123 122h-62l109 196l-109 196h62l132 -196zM317 122h-61l107 196l-107 196h61l133 -196z" />
    <glyph glyph-name="slash.cap" horiz-adv-x="507" 
d="M50 -75l326 844h81l-326 -844h-81z" />
    <glyph glyph-name="backslash.cap" horiz-adv-x="507" 
d="M50 769h81l326 -844h-81z" />
    <glyph glyph-name="bar.cap" horiz-adv-x="307" 
d="M116 769h75v-844h-75v844z" />
    <glyph glyph-name="periodcentered.cap" horiz-adv-x="283" 
d="M87 288v109h109v-109h-109z" />
    <glyph glyph-name="bullet.cap" horiz-adv-x="440" 
d="M87 357q0 55 39 93.5t95 38.5q55 0 93.5 -38.5t38.5 -93.5t-38.5 -93.5t-93.5 -38.5q-56 0 -95 38.5t-39 93.5z" />
    <glyph glyph-name="hyphen.cap" horiz-adv-x="451" 
d="M87 304v73h277v-73h-277z" />
    <glyph glyph-name="endash.cap" horiz-adv-x="677" 
d="M87 306v66h503v-66h-503z" />
    <glyph glyph-name="emdash.cap" horiz-adv-x="1003" 
d="M87 306v66h829v-66h-829z" />
    <glyph glyph-name="parenleft.cap" horiz-adv-x="392" 
d="M172 347q0 -217 161 -422h-81q-163 200 -163 422t163 422h81q-161 -219 -161 -422z" />
    <glyph glyph-name="parenright.cap" horiz-adv-x="392" 
d="M59 -75q161 205 161 422q0 203 -161 422h81q163 -200 163 -422t-163 -422h-81z" />
    <glyph glyph-name="bracketleft.cap" horiz-adv-x="395" 
d="M184 705v-716h141v-64h-220v844h220v-64h-141z" />
    <glyph glyph-name="bracketright.cap" horiz-adv-x="395" 
d="M211 -11v716h-141v64h220v-844h-220v64h141z" />
    <glyph glyph-name="braceleft.cap" horiz-adv-x="416" 
d="M33 314v66h51q52 0 52 54v230q0 105 114 105h96v-64h-80q-28 0 -41 -9t-13 -36v-231q0 -69 -69 -82q69 -13 69 -82v-231q0 -27 13 -36t41 -9h80v-64h-96q-114 0 -114 105v230q0 54 -52 54h-51z" />
    <glyph glyph-name="braceright.cap" horiz-adv-x="416" 
d="M383 380v-66h-51q-52 0 -52 -54v-230q0 -105 -114 -105h-96v64h80q28 0 41 9t13 36v231q0 69 69 82q-69 13 -69 82v231q0 27 -13 36t-41 9h-80v64h96q114 0 114 -105v-230q0 -54 52 -54h51z" />
    <glyph glyph-name="at.cap" horiz-adv-x="917" 
d="M660 542l-51 -290q-12 -64 46 -64q63 0 104.5 60t41.5 164q0 126 -86 202.5t-227 76.5q-162 0 -265 -106t-103 -265q0 -87 31.5 -153.5t85 -104.5t117.5 -57t135 -19q119 0 221 42l20 -48q-108 -50 -241 -50q-84 0 -159.5 23t-137 69t-97.5 122.5t-36 175.5
q0 180 120.5 304t308.5 124q166 0 270 -95.5t104 -240.5q0 -131 -65.5 -204t-152.5 -73q-40 0 -69 18.5t-39 51.5q-18 -29 -51 -48t-71 -19q-70 0 -109.5 48t-39.5 121q0 98 58 171t149 73q38 0 67 -19.5t40 -46.5l10 57h71zM550 315l6 42q11 62 -12.5 95.5t-66.5 33.5
q-60 0 -98.5 -52t-39.5 -120q-1 -51 23.5 -81t67.5 -30q39 0 74 29t46 83z" />
    <glyph glyph-name="uni0192.lt" 
d="M491 340h-126l-80 -450h-81l80 450h-86v64h98l33 187q14 74 57.5 115.5t109.5 41.5q33 0 68 -13v-77q-28 14 -63 14q-76 0 -94 -100l-30 -168h114v-64z" />
    <glyph glyph-name="Euro.lt" 
d="M631 208q-16 -101 -79.5 -160.5t-167.5 -59.5q-107 0 -183 71.5t-100 195.5h-73v60h66q-2 28 -2 43q0 27 1 40h-65v60h73q23 124 99.5 196t183.5 72q104 0 168 -59t79 -160h-79q-26 146 -167 146q-79 0 -130.5 -51.5t-69.5 -143.5h239l-11 -60h-236q-1 -13 -1 -40
q0 -15 2 -43h217l-11 -60h-198q18 -91 69.5 -142.5t129.5 -51.5q141 0 167 147h79z" />
    <glyph glyph-name="dollar.lt" 
d="M591 196q0 -85 -64.5 -142.5t-166.5 -62.5v-100h-59v101q-104 9 -173 65.5t-75 152.5h79q6 -68 52.5 -105t116.5 -45v267l-49 9q-81 16 -128.5 58.5t-47.5 127.5t62 142t163 61v94h59v-96q95 -9 151.5 -57.5t65.5 -133.5h-78q-13 104 -139 120v-257l58 -12
q173 -36 173 -187zM277 411l24 -5v248q-69 -4 -108 -39.5t-39 -89.5q0 -51 28.5 -76t94.5 -38zM387 310l-27 5v-256q70 5 111.5 40t41.5 93q0 47 -28.5 76t-97.5 42z" />
    <glyph glyph-name="cent.lt" 
d="M567 163q-12 -75 -61.5 -119.5t-123.5 -51.5v-98h-58v99q-95 11 -153.5 82t-58.5 181t58.5 181.5t153.5 82.5v120h58v-119q74 -7 123.5 -52t61.5 -119h-72q-20 95 -113 107v-401q93 12 113 107h72zM189 256q0 -81 35.5 -133.5t99.5 -64.5v397q-63 -12 -99 -65t-36 -134z
" />
    <glyph glyph-name="sterling.lt" 
d="M591 72v-72h-521v72h12q48 0 78 47t30 120q0 26 -7 56h-97v66h71q-1 2 -8 16.5t-8.5 18.5t-7.5 17t-8 19.5t-6 19t-5 21.5t-2.5 21t-1.5 24q0 80 63 144t169 64q112 0 170.5 -64.5t64.5 -166.5h-80q-5 71 -42 115.5t-113 44.5q-69 0 -108.5 -41.5t-39.5 -97.5
q0 -20 5.5 -42.5t10.5 -36t17.5 -40t16.5 -36.5h206v-66h-185q6 -25 6 -54q0 -109 -69 -169h389z" />
    <glyph glyph-name="yen.lt" 
d="M575 165h-203v-165h-83v165h-203v61h203v91h-203v61h170l-220 336h91l205 -315h2l200 315h91l-220 -336h171v-61h-204v-91h203v-61z" />
    <glyph glyph-name="zero.lt" 
d="M330 -12q-125 0 -201.5 103.5t-76.5 265.5t76.5 265.5t201.5 103.5t201.5 -103.5t76.5 -265.5t-76.5 -265.5t-201.5 -103.5zM330 62q94 0 143.5 80t49.5 215t-49.5 215t-143.5 80t-143.5 -80t-49.5 -215t49.5 -215t143.5 -80z" />
    <glyph glyph-name="one.lt" 
d="M593 69v-69h-515v69h224v482h-200v58q88 0 136.5 12.5t68 33.5t29.5 61h52v-647h205z" />
    <glyph glyph-name="two.lt" 
d="M568 518q0 -20 -4 -38.5t-8 -33t-15.5 -31.5t-18 -27t-24 -26t-24.5 -23t-30 -22.5t-29.5 -20t-33 -21.5t-31.5 -20q-41 -27 -65 -45t-52.5 -43t-42 -48.5t-13.5 -46.5h398v-72h-490v39q0 45 19.5 87t56.5 78t71 61.5t82 55.5q44 28 68.5 46t52 43.5t39.5 51.5t12 56
q0 57 -35.5 96.5t-109.5 39.5q-71 0 -113.5 -46t-47.5 -114h-81q6 99 70.5 165.5t172.5 66.5q107 0 166.5 -61.5t59.5 -146.5z" />
    <glyph glyph-name="three.lt" 
d="M575 194q0 -87 -66.5 -146.5t-182.5 -59.5q-114 0 -184 59.5t-78 161.5h84q5 -68 51.5 -109.5t126.5 -41.5q78 0 123 37t45 102q0 61 -42 95.5t-114 34.5h-78v70h75q62 0 101 30t39 95q0 58 -38 96t-108 38q-73 0 -116.5 -44.5t-47.5 -111.5h-81q6 98 70 162t175 64
q109 0 169 -59t60 -144q0 -64 -37 -107.5t-91 -51.5q64 -10 104.5 -57t40.5 -113z" />
    <glyph glyph-name="four.lt" 
d="M471 714v-449h149v-69h-149v-196h-85v196h-348v70l334 448h99zM386 626l-267 -361h267v361z" />
    <glyph glyph-name="five.lt" 
d="M333 405q-102 0 -152 -80h-77l40 389h402v-73h-340l-24 -236q24 30 67 50t91 20q109 0 175.5 -69.5t66.5 -173.5q0 -105 -67.5 -174.5t-181.5 -69.5q-109 0 -179.5 60.5t-78.5 163.5h85q5 -69 52 -111.5t122 -42.5q80 0 122.5 50.5t42.5 123.5t-43 123t-123 50z" />
    <glyph glyph-name="six.lt" 
d="M352 654q-96 0 -148.5 -89t-52.5 -233q19 61 72 103t130 42q105 0 170.5 -68.5t65.5 -172.5q0 -109 -68 -178.5t-179 -69.5q-120 0 -195.5 97.5t-75.5 259.5q0 169 79 275t203 106q95 0 156 -52.5t73 -142.5h-79q-26 123 -151 123zM342 58q75 0 120.5 49.5t45.5 125.5
q0 77 -45 125.5t-121 48.5q-75 0 -121.5 -49t-46.5 -125t47 -125.5t121 -49.5z" />
    <glyph glyph-name="seven.lt" 
d="M507 642h-438v72h533v-61q-130 -158 -195.5 -316.5t-66.5 -336.5h-92q5 316 259 642z" />
    <glyph glyph-name="eight.lt" 
d="M329 726q103 0 169.5 -53.5t66.5 -143.5q0 -59 -31.5 -102t-86.5 -65q60 -11 105 -58.5t45 -108.5q0 -93 -73 -150t-195 -57q-121 0 -194 57t-73 150q0 61 45 108.5t105 58.5q-54 22 -86 65t-32 102q0 90 66.5 143.5t168.5 53.5zM329 399q68 0 112.5 33.5t44.5 96.5
q0 62 -44.5 95.5t-112.5 33.5t-112 -33.5t-44 -95.5q0 -63 44 -96.5t112 -33.5zM329 57q85 0 133.5 37.5t48.5 100.5t-48.5 99t-133.5 36q-84 0 -132.5 -36.5t-48.5 -98.5q0 -63 48.5 -100.5t132.5 -37.5z" />
    <glyph glyph-name="nine.lt" 
d="M308 60q96 0 148.5 89t52.5 233q-19 -61 -72 -103t-130 -42q-105 0 -170.5 68.5t-65.5 172.5q0 109 68 178.5t179 69.5q120 0 195.5 -97.5t75.5 -259.5q0 -169 -79 -275t-203 -106q-95 0 -156 52.5t-73 142.5h79q26 -123 151 -123zM318 656q-75 0 -120.5 -49.5
t-45.5 -125.5q0 -77 45 -125.5t121 -48.5q75 0 121.5 49t46.5 125t-47 125.5t-121 49.5z" />
    <glyph glyph-name="zero.dnom" horiz-adv-x="417" 
d="M208 -7q-74 0 -119 57t-45 146q0 90 45 147t119 57t119.5 -57t45.5 -147q0 -89 -45.5 -146t-119.5 -57zM208 47q48 0 72.5 40t24.5 109q0 70 -24.5 110t-72.5 40q-47 0 -71.5 -40t-24.5 -110q0 -69 24.5 -109t71.5 -40z" />
    <glyph glyph-name="one.dnom" horiz-adv-x="334" 
d="M310 50v-50h-267v50h101v237h-100v47q67 0 90 13t31 46h44v-343h101z" />
    <glyph glyph-name="two.dnom" horiz-adv-x="359" 
d="M318 282q0 -26 -8.5 -46.5t-29.5 -39t-35.5 -28t-46.5 -29.5q-87 -51 -88 -86h217v-53h-289v26q0 34 21 66t44.5 50.5t59.5 40.5q49 30 70.5 50.5t21.5 48.5q0 27 -18 45.5t-53 18.5t-55.5 -22.5t-22.5 -54.5h-64q4 55 42 92.5t101 37.5q60 0 96.5 -34t36.5 -83z" />
    <glyph glyph-name="three.dnom" horiz-adv-x="373" 
d="M331 106q0 -48 -38.5 -80.5t-104.5 -32.5t-106.5 33t-45.5 89h64q3 -32 26.5 -51t61.5 -19q37 0 58.5 17.5t21.5 47.5q0 29 -21 45t-56 16h-40v51h38q30 0 49.5 15t19.5 45q0 28 -18.5 46.5t-51.5 18.5q-35 0 -55.5 -20.5t-22.5 -52.5h-62q3 54 40 90t100 36
q64 0 98.5 -33.5t34.5 -82.5q0 -34 -20 -58.5t-50 -29.5q36 -6 58 -30.5t22 -59.5z" />
    <glyph glyph-name="four.dnom" horiz-adv-x="407" 
d="M293 391v-248h80v-49h-80v-94h-63v94h-195v50l185 247h73zM230 327l-135 -184h135v184z" />
    <glyph glyph-name="five.dnom" horiz-adv-x="376" 
d="M190 212q-47 0 -73 -38h-60l21 218h234v-54h-185l-12 -110q30 34 85 34q61 0 97.5 -37.5t36.5 -95.5q0 -59 -39 -97.5t-105 -38.5q-65 0 -105 34t-45 91h68q2 -32 24.5 -53t57.5 -21q39 0 59 24t20 61q0 35 -20.5 59t-58.5 24z" />
    <glyph glyph-name="six.dnom" horiz-adv-x="384" 
d="M204 347q-46 0 -72 -42.5t-26 -108.5q28 65 102 65q59 0 96.5 -37t37.5 -94q0 -60 -39.5 -98.5t-103.5 -38.5q-69 0 -112 53t-43 143q0 94 44.5 152.5t115.5 58.5q55 0 90.5 -30.5t43.5 -80.5h-61q-14 58 -73 58zM199 44q36 0 58.5 23.5t22.5 60.5t-22.5 60.5t-58.5 23.5
t-58.5 -23.5t-22.5 -60.5q0 -36 22.5 -60t58.5 -24z" />
    <glyph glyph-name="seven.dnom" horiz-adv-x="354" 
d="M248 338h-215v53h283v-50q-66 -82 -93.5 -161.5t-28.5 -179.5h-70q1 182 124 338z" />
    <glyph glyph-name="eight.dnom" horiz-adv-x="391" 
d="M195 -7q-69 0 -110.5 31t-41.5 83q0 34 24 60.5t55 32.5q-62 25 -62 89q0 51 38.5 81t96.5 30q59 0 97.5 -30t38.5 -81q0 -63 -61 -89q31 -6 54.5 -32.5t23.5 -60.5q0 -52 -41.5 -83t-111.5 -31zM195 350q-32 0 -53.5 -16t-21.5 -46t21.5 -47t53.5 -17q33 0 54 17t21 47
t-21 46t-54 16zM195 176q-41 0 -64 -18t-23 -48q0 -31 23 -49t64 -18q42 0 65.5 18t23.5 49q0 30 -23.5 48t-65.5 18z" />
    <glyph glyph-name="nine.dnom" horiz-adv-x="384" 
d="M182 46q46 0 72 42.5t26 108.5q-12 -29 -39 -47.5t-65 -18.5q-58 0 -95 38t-37 95q0 59 39 97.5t103 38.5q69 0 112.5 -53.5t43.5 -142.5q0 -94 -45 -152.5t-117 -58.5q-54 0 -89.5 30t-43.5 81h62q14 -58 73 -58zM186 348q-36 0 -58 -23t-22 -60q0 -38 22 -61.5
t58 -23.5q37 0 59.5 23.5t22.5 61.5q0 36 -23 59.5t-59 23.5z" />
    <glyph glyph-name="percent.lt" 
d="M16 570q0 65 45.5 110.5t109.5 45.5q65 0 111 -45.5t46 -110.5t-46 -110.5t-111 -45.5q-64 0 -109.5 45.5t-45.5 110.5zM519 714h72l-463 -713h-72zM77 570q0 -41 27.5 -69t66.5 -28q40 0 67.5 28t27.5 69t-27.5 69t-67.5 28q-38 0 -66 -28.5t-28 -68.5zM332 143
q0 65 46 111t110 46q65 0 110.5 -46t45.5 -111t-45.5 -110.5t-110.5 -45.5t-110.5 45.5t-45.5 110.5zM394 143q0 -40 27.5 -68t66.5 -28q40 0 67.5 28t27.5 68q0 41 -27.5 69t-67.5 28q-39 0 -66.5 -28.5t-27.5 -68.5z" />
    <glyph glyph-name="period.tab" horiz-adv-x="330" 
d="M111 0v109h109v-109h-109z" />
    <glyph glyph-name="comma.tab" horiz-adv-x="330" 
d="M112 1v108h109v-126q0 -64 -37 -102t-104 -38v51q40 0 60 20.5t20 68.5v18h-48z" />
    <glyph glyph-name="colon.tab" horiz-adv-x="330" 
d="M111 340v109h109v-109h-109zM111 0v109h109v-109h-109z" />
    <glyph glyph-name="semicolon.tab" horiz-adv-x="330" 
d="M112 340v109h109v-109h-109zM112 1v108h109v-126q0 -64 -37 -102t-104 -38v51q40 0 60 20.5t20 68.5v18h-48z" />
    <glyph glyph-name="space.tab" horiz-adv-x="330" 
 />
    <glyph glyph-name="thinspace" horiz-adv-x="64" 
 />
    <glyph glyph-name="zero.slash" horiz-adv-x="677" 
d="M54 357q0 162 78 265.5t206 103.5q129 0 206.5 -103t77.5 -266t-77.5 -266t-206.5 -103q-128 0 -206 103.5t-78 265.5zM140 357q0 -162 70 -241l213 517q-38 21 -84 21q-96 0 -147.5 -81t-51.5 -216zM537 357q0 159 -68 238l-213 -515q37 -20 83 -20q95 0 146.5 81
t51.5 216z" />
    <glyph glyph-name="zero.slashlt" 
d="M330 -12q-125 0 -201.5 103.5t-76.5 265.5t76.5 265.5t201.5 103.5t201.5 -103.5t76.5 -265.5t-76.5 -265.5t-201.5 -103.5zM136 357q0 -158 65 -238l216 512q-37 23 -87 23q-95 0 -144.5 -80.5t-49.5 -216.5zM524 357q0 155 -63 235l-216 -510q38 -22 85 -22
q95 0 144.5 80.5t49.5 216.5z" />
    <glyph glyph-name="CR" horiz-adv-x="221" 
 />
    </font>
</defs>
</svg>
