<?xml version="1.0" standalone="no"?>
<!DOCTYPE svg PUBLIC "-//W3C//DTD SVG 1.1//EN" "http://www.w3.org/Graphics/SVG/1.1/DTD/svg11.dtd" >
<svg xmlns="http://www.w3.org/2000/svg" xmlns:xlink="http://www.w3.org/1999/xlink" version="1.1">
<metadata>
Created by FontForge 20170731 at Mon Mar 20 13:25:10 2017
 By Aleksey,,,
(c) 2016 Klim Type Foundry. All Rights Reserved.
</metadata>
<defs>
<font id="UntitledSans-BoldItalic" horiz-adv-x="660" >
  <font-face 
    font-family="Untitled Sans"
    font-weight="700"
    font-style="italic"
    font-stretch="normal"
    units-per-em="1000"
    panose-1="2 11 8 3 3 2 2 13 2 3"
    ascent="800"
    descent="-200"
    x-height="512"
    cap-height="714"
    bbox="-258 -240 1158 983"
    underline-thickness="50"
    underline-position="-200"
    slope="-9"
    unicode-range="U+0020-2212"
  />
<missing-glyph horiz-adv-x="1232" 
d="M1031 473v-55q-24 -8 -53 -8q-84 0 -84 84v125h-36v52h36v65h74v-65h57v-52h-57v-116q0 -34 30 -34q14 0 33 4zM359 671v-40q21 47 79 47q45 0 70 -26t25 -73v-165h-75v148q0 59 -47 59q-52 0 -52 -68v-139h-75v257h75zM572 544q0 62 37 98t97 36q59 0 96 -36.5t37 -97.5
q0 -62 -37 -98.5t-96 -36.5q-60 0 -97 36.5t-37 98.5zM646 544q0 -82 60 -82q28 0 43 22t15 60t-15 59t-43 21q-60 0 -60 -80zM139 414v85h85v-85h-85zM1031 303q-19 4 -33 4q-30 0 -30 -34v-15h57v-52h-57v-206h-74v206h-36v52h36v24q0 84 84 84q29 0 53 -8v-55zM459 0v41
q-9 -20 -30.5 -33.5t-49.5 -13.5q-51 0 -82 37.5t-31 97.5t31 97.5t82 37.5q55 0 79 -46v145h75v-363h-74zM833 81q-24 -87 -125 -87q-60 0 -98 36t-38 98q0 61 39 98t97 37q62 0 95.5 -37.5t33.5 -92.5v-23h-193q8 -63 64 -63q41 0 53 34h72zM708 211q-51 0 -62 -56h118
q-1 24 -15 40t-41 16zM460 124v9q0 36 -16 56.5t-44 20.5t-44 -22t-16 -59q0 -38 16 -60t44 -22t44 20.5t16 56.5z" />
    <glyph glyph-name="f_idieresis" unicode="f&#xef;" horiz-adv-x="671" 
d="M296 538l-4 -26h100l-19 -117h-100l-62 -395h-167l62 395h-67l19 117h67l5 30q14 91 86 144.5t172 53.5q49 0 105 -12l-20 -127q-31 11 -78 11q-86 0 -99 -74zM597 583l23 145h147l-23 -145h-147zM476 512h168l-81 -512h-168z" />
    <glyph glyph-name=".notdef" horiz-adv-x="1232" 
d="M1031 473v-55q-24 -8 -53 -8q-84 0 -84 84v125h-36v52h36v65h74v-65h57v-52h-57v-116q0 -34 30 -34q14 0 33 4zM359 671v-40q21 47 79 47q45 0 70 -26t25 -73v-165h-75v148q0 59 -47 59q-52 0 -52 -68v-139h-75v257h75zM572 544q0 62 37 98t97 36q59 0 96 -36.5t37 -97.5
q0 -62 -37 -98.5t-96 -36.5q-60 0 -97 36.5t-37 98.5zM646 544q0 -82 60 -82q28 0 43 22t15 60t-15 59t-43 21q-60 0 -60 -80zM139 414v85h85v-85h-85zM1031 303q-19 4 -33 4q-30 0 -30 -34v-15h57v-52h-57v-206h-74v206h-36v52h36v24q0 84 84 84q29 0 53 -8v-55zM459 0v41
q-9 -20 -30.5 -33.5t-49.5 -13.5q-51 0 -82 37.5t-31 97.5t31 97.5t82 37.5q55 0 79 -46v145h75v-363h-74zM833 81q-24 -87 -125 -87q-60 0 -98 36t-38 98q0 61 39 98t97 37q62 0 95.5 -37.5t33.5 -92.5v-23h-193q8 -63 64 -63q41 0 53 34h72zM708 211q-51 0 -62 -56h118
q-1 24 -15 40t-41 16zM460 124v9q0 36 -16 56.5t-44 20.5t-44 -22t-16 -59q0 -38 16 -60t44 -22t44 20.5t16 56.5z" />
    <glyph glyph-name=".null" horiz-adv-x="0" 
 />
    <glyph glyph-name="nonmarkingreturn" horiz-adv-x="333" 
 />
    <glyph glyph-name="space" unicode=" " horiz-adv-x="205" 
 />
    <glyph glyph-name="exclam" unicode="!" horiz-adv-x="343" 
d="M149 714h192l-101 -464h-137zM39 0l29 177h184l-28 -177h-185z" />
    <glyph glyph-name="quotedbl" unicode="&#x22;" horiz-adv-x="506" 
d="M336 426l26 310h158l-79 -310h-105zM113 426l26 310h160l-80 -310h-106z" />
    <glyph glyph-name="numbersign" unicode="#" horiz-adv-x="731" 
d="M315 40l69 168h-128l-69 -168h-112l69 168h-110l39 101h112l44 108h-113l38 102h117l69 168h113l-69 -168h127l69 168h112l-69 -168h110l-39 -102h-113l-44 -108h114l-38 -101h-117l-69 -168h-112zM298 309h127l44 108h-127z" />
    <glyph glyph-name="dollar" unicode="$" horiz-adv-x="680" 
d="M643 240q0 -108 -84.5 -177t-214.5 -74l-17 -99h-85l18 103q-110 13 -174 71t-66 155h161q6 -86 99 -104l31 179l-57 11q-71 14 -118 59t-47 116q0 108 83.5 174.5t211.5 69.5l16 94h83l-17 -99q101 -15 154.5 -70.5t55.5 -140.5h-152q-2 64 -79 86l-28 -172l62 -12
q79 -16 121.5 -61t42.5 -109zM247 508q0 -29 21 -44.5t67 -24.5l28 161q-53 -5 -84.5 -30t-31.5 -62zM395 278l-3 1l-28 -167q60 6 91 31t31 66q0 28 -20.5 43.5t-70.5 25.5z" />
    <glyph glyph-name="percent" unicode="%" horiz-adv-x="855" 
d="M239 383q-65 0 -107 42.5t-42 105.5q0 79 59.5 137t138.5 58q65 0 107.5 -42.5t42.5 -105.5q0 -79 -59.5 -137t-139.5 -58zM695 714h113l-615 -714h-112zM252 472q38 0 66 28.5t28 65.5q0 32 -20 52t-51 20q-38 0 -65.5 -29t-27.5 -66q0 -31 19.5 -51t50.5 -20zM600 -12
q-65 0 -107.5 42.5t-42.5 105.5q0 79 59.5 137t139.5 58q65 0 107 -42t42 -105q0 -80 -59.5 -138t-138.5 -58zM613 77q38 0 65.5 28.5t27.5 65.5q0 32 -20 52t-51 20q-37 0 -65 -29t-28 -66q0 -31 20 -51t51 -20z" />
    <glyph glyph-name="ampersand" unicode="&#x26;" horiz-adv-x="789" 
d="M545 0l-47 53q-111 -65 -235 -65q-103 0 -168 50.5t-65 130.5q0 72 43.5 123.5t132.5 94.5q-50 66 -50 126q0 95 73.5 154t182.5 59q91 0 147 -45t56 -111q0 -68 -45.5 -114.5t-148.5 -91.5l110 -126q47 61 75 145h147q-36 -135 -139 -239l126 -144h-195zM307 530
q0 -32 42 -84q69 28 93.5 51.5t24.5 57.5q0 26 -19 44t-51 18q-38 0 -64 -24.5t-26 -62.5zM193 194q0 -38 28 -60.5t73 -22.5q67 0 126 31l-142 161q-43 -21 -64 -46.5t-21 -62.5z" />
    <glyph glyph-name="quotesingle" unicode="'" horiz-adv-x="287" 
d="M113 426l26 310h163l-79 -310h-110z" />
    <glyph glyph-name="parenleft" unicode="(" horiz-adv-x="451" 
d="M487 736q-234 -262 -234 -509q0 -173 101 -335h-154q-109 156 -109 341q0 267 239 503h157z" />
    <glyph glyph-name="parenright" unicode=")" horiz-adv-x="452" 
d="M-16 -108q234 262 234 509q0 173 -101 335h154q109 -156 109 -341q0 -267 -239 -503h-157z" />
    <glyph glyph-name="asterisk" unicode="*" horiz-adv-x="446" 
d="M252 726l91 -16l-19 -116l116 18l16 -92l-118 -18l53 -106l-82 -42l-53 106l-84 -83l-66 65l85 83l-106 55l42 83l106 -56z" />
    <glyph glyph-name="plus" unicode="+" 
d="M601 273h-209l-33 -208h-117l33 208h-210l19 119h209l33 208h117l-33 -208h210z" />
    <glyph glyph-name="comma" unicode="," horiz-adv-x="345" 
d="M41 6l28 179h185l-30 -189q-13 -84 -72.5 -128t-151.5 -44l13 85q48 1 76 19t36 67l2 11h-86z" />
    <glyph glyph-name="hyphen" unicode="-" horiz-adv-x="457" 
d="M82 220l21 137h284l-23 -137h-282z" />
    <glyph glyph-name="period" unicode="." horiz-adv-x="345" 
d="M40 0l29 185h185l-29 -185h-185z" />
    <glyph glyph-name="slash" unicode="/" horiz-adv-x="561" 
d="M-19 -108l459 844h160l-459 -844h-160z" />
    <glyph glyph-name="zero" unicode="0" horiz-adv-x="715" 
d="M330 -12q-128 0 -203.5 83.5t-75.5 218.5q0 114 42.5 212t128 161t196.5 63q129 0 204 -83.5t75 -218.5q0 -114 -42.5 -212t-128 -161t-196.5 -63zM341 118q68 0 111.5 60t61.5 168q9 50 9 92q0 76 -29.5 117t-85.5 41q-68 0 -112 -60t-62 -167q-9 -51 -9 -93
q0 -76 29.5 -117t86.5 -41z" />
    <glyph glyph-name="one" unicode="1" horiz-adv-x="441" 
d="M71 495l18 114q90 0 138 25t70 81h124l-113 -715h-173l79 495h-143z" />
    <glyph glyph-name="two" unicode="2" horiz-adv-x="617" 
d="M620 532q0 -51 -18.5 -92.5t-58 -75.5t-79 -57.5t-102.5 -54.5q-76 -37 -111.5 -63.5t-44.5 -54.5h355l-21 -134h-549l10 61q28 177 275 302q106 54 142.5 84.5t36.5 74.5q0 33 -21.5 53t-62.5 20q-49 0 -84 -33.5t-45 -83.5h-167q23 109 104.5 178.5t205.5 69.5
q106 0 170.5 -53.5t64.5 -140.5z" />
    <glyph glyph-name="three" unicode="3" horiz-adv-x="630" 
d="M587 213q0 -88 -77 -156.5t-215 -68.5q-130 0 -203.5 63t-73.5 166h165q0 -51 32 -76t90 -25q56 0 90 29t34 71q0 80 -107 80h-68l19 122h68q55 0 88 27t33 74q0 34 -24 56t-66 22q-50 0 -83.5 -28t-43.5 -75h-159q23 100 101 166t198 66q113 0 175 -54t62 -135
q0 -66 -45 -116t-111 -62q55 -11 88 -51t33 -95z" />
    <glyph glyph-name="four" unicode="4" horiz-adv-x="706" 
d="M618 714l-66 -420h132l-20 -131h-132l-27 -163h-165l26 163h-353l21 132l399 419h185zM429 559l-248 -265h205z" />
    <glyph glyph-name="five" unicode="5" horiz-adv-x="644" 
d="M341 359q-69 0 -113 -52h-157l106 407h463l-21 -134h-337l-37 -142q23 19 62.5 33.5t84.5 14.5q98 0 155.5 -56.5t57.5 -149.5q0 -123 -87 -207.5t-227 -84.5q-128 0 -196.5 63t-68.5 170h174q0 -50 26.5 -78t75.5 -28q61 0 97.5 42t36.5 104q0 44 -23.5 71t-71.5 27z
" />
    <glyph glyph-name="six" unicode="6" horiz-adv-x="656" 
d="M407 597q-67 0 -118.5 -57.5t-65.5 -143.5q68 81 175 81q88 0 154.5 -58t66.5 -153q0 -115 -87 -196.5t-218 -81.5q-117 0 -191 76.5t-74 204.5q0 188 106.5 322.5t265.5 134.5q101 0 168 -55.5t69 -151.5h-154q-7 78 -97 78zM322 111q59 0 98 41.5t39 100.5
q0 49 -31.5 77t-78.5 28q-59 0 -98 -41t-39 -100q0 -49 31.5 -77.5t78.5 -28.5z" />
    <glyph glyph-name="seven" unicode="7" horiz-adv-x="597" 
d="M448 580h-370l21 134h541l-22 -136q-141 -144 -207.5 -274.5t-95.5 -303.5h-178q52 303 311 580z" />
    <glyph glyph-name="eight" unicode="8" horiz-adv-x="662" 
d="M306 -12q-126 0 -202.5 51.5t-76.5 139.5q0 71 53.5 125t121.5 64q-90 44 -90 133q0 101 80.5 163t203.5 62q108 0 177 -48t69 -132q0 -65 -39.5 -115t-102.5 -72q50 -13 83.5 -52.5t33.5 -92.5q0 -100 -88 -163t-223 -63zM367 422q55 0 89 28.5t34 78.5q0 40 -29 59.5
t-75 19.5q-55 0 -89 -28.5t-34 -78.5q0 -40 29.5 -59.5t74.5 -19.5zM332 305q-65 0 -102.5 -31.5t-37.5 -79.5q0 -39 33.5 -62t93.5 -23q66 0 102.5 32.5t36.5 79.5q0 39 -33 61.5t-93 22.5z" />
    <glyph glyph-name="nine" unicode="9" horiz-adv-x="656" 
d="M282 118q67 0 118.5 57.5t65.5 143.5q-68 -81 -175 -81q-88 0 -154.5 58t-66.5 153q0 115 87 196.5t218 81.5q117 0 191 -76.5t74 -204.5q0 -188 -106.5 -322.5t-265.5 -134.5q-101 0 -168 55.5t-69 151.5h154q7 -78 97 -78zM367 604q-59 0 -98 -41.5t-39 -100.5
q0 -49 31.5 -77t78.5 -28q59 0 98 41t39 100q0 49 -31.5 77.5t-78.5 28.5z" />
    <glyph glyph-name="colon" unicode=":" horiz-adv-x="345" 
d="M89 311l29 185h185l-29 -185h-185zM40 0l29 185h185l-29 -185h-185z" />
    <glyph glyph-name="semicolon" unicode=";" horiz-adv-x="345" 
d="M89 311l29 185h185l-29 -185h-185zM41 6l28 179h185l-30 -189q-13 -84 -72.5 -128t-151.5 -44l13 85q48 1 76 19t36 67l2 11h-86z" />
    <glyph glyph-name="less" unicode="&#x3c;" 
d="M89 252l26 156l504 187l-22 -136l-370 -132l329 -131l-21 -132z" />
    <glyph glyph-name="equal" unicode="=" 
d="M84 378l17 108h530l-17 -108h-530zM51 167l17 108h530l-17 -108h-530z" />
    <glyph glyph-name="greater" unicode="&#x3e;" 
d="M570 252l-504 -188l21 137l371 131l-329 132l21 131l445 -187z" />
    <glyph glyph-name="question" unicode="?" horiz-adv-x="607" 
d="M615 536q0 -134 -169 -231q-62 -35 -71 -74h-164q14 82 139 161q53 33 77.5 61t24.5 68q0 34 -22 54.5t-64 20.5q-51 0 -85 -33t-45 -84h-167q25 108 107.5 177.5t204.5 69.5q107 0 170.5 -51.5t63.5 -138.5zM164 0l27 169h184l-27 -169h-184z" />
    <glyph glyph-name="at" unicode="@" horiz-adv-x="915" 
d="M707 457l-76 -289q-4 -12 -4 -22q0 -32 36 -32q60 0 99.5 65.5t39.5 167.5q0 112 -77.5 176t-206.5 64q-171 0 -282.5 -115t-111.5 -284q0 -79 29.5 -137t79.5 -89.5t107 -46.5t121 -15q121 0 231 45l26 -69q-118 -56 -264 -56q-84 0 -158 22.5t-133.5 66t-94.5 116
t-35 164.5q0 96 37.5 183.5t102 153t156.5 104t196 38.5q163 0 263.5 -90.5t100.5 -230.5q0 -142 -79 -228t-187 -86q-85 0 -120 63q-20 -27 -55.5 -43t-71.5 -16q-69 0 -106.5 44.5t-37.5 115.5q0 47 16 94t45.5 86.5t76 64t101.5 24.5q34 0 61 -15.5t36 -37.5l13 44h126z
M519 227q13 48 13 66q0 29 -15 46t-40 17q-50 0 -80 -45.5t-30 -97.5q0 -68 60 -68q29 0 55 20.5t37 61.5z" />
    <glyph glyph-name="A" unicode="A" horiz-adv-x="777" 
d="M556 0l-31 153h-300l-84 -153h-174l402 714h195l167 -714h-175zM442 548l-144 -263h200l-54 263h-2z" />
    <glyph glyph-name="B" unicode="B" horiz-adv-x="717" 
d="M372 0h-341l113 714h321q233 0 233 -173q0 -63 -38.5 -111t-91.5 -63q48 -15 77 -52t29 -90q0 -99 -79.5 -162t-222.5 -63zM268 423h144q60 0 90 25.5t30 70.5q0 72 -93 72h-145zM249 303l-28 -180h156q64 0 96 28.5t32 74.5q0 77 -101 77h-155z" />
    <glyph glyph-name="C" unicode="C" horiz-adv-x="727" 
d="M363 -12q-147 0 -231 84t-84 223q0 180 112 305.5t289 125.5q134 0 206 -67.5t77 -183.5h-169q-2 53 -33.5 85.5t-88.5 32.5q-102 0 -159.5 -88.5t-57.5 -212.5q0 -79 38.5 -125t107.5 -46q115 0 156 118h168q-35 -116 -117.5 -183.5t-213.5 -67.5z" />
    <glyph glyph-name="D" unicode="D" horiz-adv-x="764" 
d="M144 714h286q153 0 235.5 -81t82.5 -219q0 -183 -115.5 -298.5t-303.5 -115.5h-298zM404 581h-111l-71 -447h121q104 0 167 75t63 202q0 170 -169 170z" />
    <glyph glyph-name="E" unicode="E" horiz-adv-x="665" 
d="M31 0l113 714h541l-21 -133h-372l-24 -156h326l-22 -133h-325l-25 -158h377l-21 -134h-547z" />
    <glyph glyph-name="F" unicode="F" horiz-adv-x="644" 
d="M31 0l113 714h525l-20 -133h-353l-29 -182h311l-21 -133h-311l-42 -266h-173z" />
    <glyph glyph-name="G" unicode="G" horiz-adv-x="778" 
d="M341 -12q-129 0 -211 83t-82 221q0 182 111.5 308t288.5 126q135 0 209.5 -67.5t79.5 -179.5h-169q-2 51 -35.5 82.5t-91.5 31.5q-102 0 -159.5 -88.5t-57.5 -212.5q0 -78 38 -124.5t108 -46.5t115 33.5t56 95.5h-111l19 122h286l-59 -372h-134l4 86q-26 -44 -82.5 -71
t-122.5 -27z" />
    <glyph glyph-name="H" unicode="H" horiz-adv-x="808" 
d="M31 0l113 714h173l-45 -286h321l45 286h173l-113 -714h-173l47 296h-321l-47 -296h-173z" />
    <glyph glyph-name="I" unicode="I" horiz-adv-x="315" 
d="M144 714h173l-113 -714h-173z" />
    <glyph glyph-name="J" unicode="J" horiz-adv-x="637" 
d="M401 255l73 459h173l-72 -453q-20 -127 -101.5 -200t-214.5 -73q-120 0 -188 67.5t-58 179.5h162q-3 -122 98 -122q56 0 86.5 35t41.5 107z" />
    <glyph glyph-name="K" unicode="K" horiz-adv-x="757" 
d="M521 0l-180 286l-107 -99l-30 -187h-173l113 714h173l-52 -327l338 327h200l-336 -311l250 -403h-196z" />
    <glyph glyph-name="L" unicode="L" horiz-adv-x="645" 
d="M31 0l113 714h173l-92 -580h356l-21 -134h-529z" />
    <glyph glyph-name="M" unicode="M" horiz-adv-x="944" 
d="M487 0h-119l-98 513h-2l-81 -513h-157l113 714h235l91 -488h2l242 488h233l-113 -714h-165l81 513h-3z" />
    <glyph glyph-name="N" unicode="N" horiz-adv-x="797" 
d="M337 714l224 -454h2l72 454h164l-113 -714h-154l-254 508h-2l-80 -508h-165l113 714h193z" />
    <glyph glyph-name="O" unicode="O" horiz-adv-x="776" 
d="M447 726q147 0 231 -84t84 -224q0 -114 -48 -211.5t-140.5 -158t-210.5 -60.5q-147 0 -231 84.5t-84 223.5q0 85 28.5 163t79.5 137.5t126.5 94.5t164.5 35zM439 593q-69 0 -119 -44t-73 -110.5t-23 -146.5t38 -125.5t109 -45.5q68 0 118 44t73 111t23 146
q0 81 -37.5 126t-108.5 45z" />
    <glyph glyph-name="P" unicode="P" horiz-adv-x="699" 
d="M392 241h-153l-38 -241h-170l113 714h318q118 0 184 -52.5t66 -149.5q0 -129 -87 -200t-233 -71zM260 374h133q147 0 147 121q0 86 -114 86h-133z" />
    <glyph glyph-name="Q" unicode="Q" horiz-adv-x="776" 
d="M648 17l-98 -74l-51 68q-64 -23 -136 -23q-147 0 -231 84.5t-84 223.5q0 85 28.5 163t79.5 137.5t126.5 94.5t164.5 35q147 0 231 -84t84 -224q0 -103 -41 -194t-114 -152zM224 292q0 -80 38 -125.5t109 -45.5q15 0 41 4l-56 75l100 74l61 -81q68 86 68 229
q0 81 -37.5 126t-108.5 45q-69 0 -119 -44t-73 -110.5t-23 -146.5z" />
    <glyph glyph-name="R" unicode="R" horiz-adv-x="725" 
d="M201 0h-170l113 714h333q116 0 178.5 -53.5t62.5 -149.5q0 -88 -50.5 -150t-126.5 -88l119 -273h-180l-105 247h-135zM261 380h140q147 0 147 116q0 85 -115 85h-140z" />
    <glyph glyph-name="S" unicode="S" horiz-adv-x="674" 
d="M14 220h167q3 -55 44.5 -81.5t101.5 -26.5q64 0 102.5 26.5t38.5 70.5q0 27 -22 42t-74 27l-124 27q-74 16 -119.5 60t-45.5 115q0 111 86.5 178.5t218.5 67.5q135 0 207.5 -59t74.5 -160h-160q-2 44 -37 69.5t-94 25.5t-93.5 -26t-34.5 -67q0 -29 21.5 -44t70.5 -26
l131 -29q163 -36 163 -169q0 -112 -90 -182.5t-226 -70.5q-139 0 -222.5 60.5t-84.5 171.5z" />
    <glyph glyph-name="T" unicode="T" horiz-adv-x="739" 
d="M243 0l92 581h-247l21 133h667l-20 -133h-248l-92 -581h-173z" />
    <glyph glyph-name="U" unicode="U" horiz-adv-x="764" 
d="M706 287q-23 -146 -116.5 -222.5t-245.5 -76.5q-133 0 -206.5 62t-73.5 175q0 26 5 63l67 426h173l-66 -420q-4 -24 -4 -50q0 -121 122 -121q145 0 173 171l66 420h173z" />
    <glyph glyph-name="V" unicode="V" horiz-adv-x="759" 
d="M229 0l-149 714h180l95 -522h2l286 522h183l-413 -714h-184z" />
    <glyph glyph-name="W" unicode="W" horiz-adv-x="1022" 
d="M567 0l-24 511h-2l-220 -511h-181l-58 714h175l28 -503h2l214 503h172l17 -503h2l224 503h170l-336 -714h-183z" />
    <glyph glyph-name="X" unicode="X" horiz-adv-x="757" 
d="M521 0l-143 251l-224 -251h-187l334 368l-198 346h189l125 -219l193 219h187l-305 -336l218 -378h-189z" />
    <glyph glyph-name="Y" unicode="Y" horiz-adv-x="737" 
d="M415 0h-174l47 291l-210 423h186l132 -275h3l216 275h190l-344 -423z" />
    <glyph glyph-name="Z" unicode="Z" horiz-adv-x="689" 
d="M693 586l-451 -452h387l-21 -134h-607l19 122l456 459h-371l20 133h588z" />
    <glyph glyph-name="bracketleft" unicode="[" horiz-adv-x="427" 
d="M312 622l-98 -616h122l-17 -114h-283l134 844h282l-19 -114h-121z" />
    <glyph glyph-name="backslash" unicode="\" horiz-adv-x="549" 
d="M115 736h145l193 -844h-145z" />
    <glyph glyph-name="bracketright" unicode="]" horiz-adv-x="427" 
d="M135 6l98 616h-122l17 114h283l-134 -844h-282l19 114h121z" />
    <glyph glyph-name="asciicircum" unicode="^" horiz-adv-x="503" 
d="M250 726h152l100 -279h-137l-53 159l-104 -159h-146z" />
    <glyph glyph-name="underscore" unicode="_" horiz-adv-x="437" 
d="M-29 -141l18 114h370l-18 -114h-370z" />
    <glyph glyph-name="grave" unicode="`" horiz-adv-x="564" 
d="M449 575h-110l-98 161h174z" />
    <glyph glyph-name="a" unicode="a" horiz-adv-x="592" 
d="M342 0q0 38 6 76q-54 -88 -176 -88q-70 0 -113.5 37t-43.5 97q0 152 213 174l148 15q5 26 5 38q0 56 -65 56q-34 0 -56.5 -18t-30.5 -47h-160q22 88 90 136t173 48q103 0 157.5 -43t54.5 -125q0 -25 -6 -61l-24 -148q-14 -90 -18 -147h-154zM358 194l4 26l-93 -11
q-44 -6 -66 -21t-22 -45q0 -22 15 -34.5t43 -12.5q44 0 78 25.5t41 72.5z" />
    <glyph glyph-name="b" unicode="b" horiz-adv-x="650" 
d="M207 81l-13 -81h-165l117 736h168l-48 -300q58 89 159 89q91 0 142 -60.5t51 -161.5q0 -130 -72 -222.5t-187 -92.5q-54 0 -96 26.5t-56 66.5zM361 405q-49 0 -82.5 -36.5t-43.5 -101.5q-5 -38 -5 -54q0 -50 23.5 -77.5t64.5 -27.5q61 0 96.5 52.5t35.5 136.5
q0 51 -22.5 79.5t-66.5 28.5z" />
    <glyph glyph-name="c" unicode="c" horiz-adv-x="572" 
d="M34 212q0 140 88 226t217 86q105 0 162.5 -54.5t53.5 -143.5h-158q1 35 -16.5 56t-52.5 21q-56 0 -92 -56t-36 -134q0 -48 21.5 -75.5t58.5 -27.5q36 0 60 21.5t34 55.5h160q-25 -91 -94.5 -145t-171.5 -54t-168 60.5t-66 163.5z" />
    <glyph glyph-name="d" unicode="d" horiz-adv-x="651" 
d="M444 435l48 301h167l-116 -736h-166l12 79q-26 -41 -68 -66t-94 -25q-89 0 -141.5 59.5t-52.5 155.5q0 133 72 227.5t189 94.5q53 0 94.5 -25.5t55.5 -64.5zM291 108q49 0 82.5 36.5t43.5 100.5q6 45 6 55q0 49 -24 77t-65 28q-61 0 -96.5 -54.5t-35.5 -139.5
q0 -47 23 -75t66 -28z" />
    <glyph glyph-name="e" unicode="e" horiz-adv-x="593" 
d="M541 167q-29 -84 -97.5 -131.5t-164.5 -47.5q-111 0 -178 61.5t-67 165.5q0 136 85 222.5t219 86.5q107 0 166 -57.5t59 -157.5q0 -35 -12 -90h-358v-1q0 -53 24.5 -82.5t71.5 -29.5q68 0 98 61h154zM330 407q-44 0 -76 -26.5t-47 -72.5h203q1 7 1 18q0 36 -20.5 58.5
t-60.5 22.5z" />
    <glyph glyph-name="f" unicode="f" horiz-adv-x="363" 
d="M106 394h-67l19 118h67l8 53q13 85 69.5 130t145.5 45q37 0 83 -10l-19 -123q-25 6 -48 6q-58 0 -66 -56l-7 -45h100l-19 -118h-100l-62 -394h-166z" />
    <glyph glyph-name="g" unicode="g" horiz-adv-x="652" 
d="M381 35l12 74q-60 -92 -164 -92q-89 0 -140.5 59t-51.5 156q0 117 69.5 204.5t180.5 87.5q57 0 101.5 -26.5t57.5 -66.5l13 81h165l-72 -453q-20 -125 -99 -187t-206 -62q-109 0 -174.5 46t-71.5 122h165q9 -55 90 -55q108 0 125 112zM420 261q5 34 5 47q0 46 -25 72
t-67 26q-59 0 -94.5 -46.5t-35.5 -119.5q0 -50 23.5 -77.5t67.5 -27.5q50 0 83 33t43 93z" />
    <glyph glyph-name="h" unicode="h" horiz-adv-x="645" 
d="M314 736l-49 -303q26 41 69.5 66t96.5 25q77 0 121.5 -42.5t44.5 -116.5q0 -14 -4 -42l-51 -323h-168l46 288q2 18 2 32q0 75 -72 75q-90 0 -110 -120l-43 -275h-168l117 736h168z" />
    <glyph glyph-name="i" unicode="i" horiz-adv-x="306" 
d="M118 583l23 145h173l-23 -145h-173zM110 512h168l-81 -512h-168z" />
    <glyph glyph-name="j" unicode="j" horiz-adv-x="306" 
d="M118 583l23 145h173l-23 -145h-173zM-8 -185q-46 0 -82 9l19 119q17 -4 37 -4q29 0 43 12.5t19 43.5l82 517h168l-83 -525q-27 -172 -203 -172z" />
    <glyph glyph-name="k" unicode="k" horiz-adv-x="629" 
d="M400 0l-112 202l-68 -58l-23 -144h-168l117 736h168l-67 -421l219 197h188l-240 -210l168 -302h-182z" />
    <glyph glyph-name="l" unicode="l" horiz-adv-x="306" 
d="M197 0h-168l117 736h168z" />
    <glyph glyph-name="m" unicode="m" horiz-adv-x="969" 
d="M430 524q117 0 148 -91q72 91 183 91q75 0 117 -43t42 -114q0 -20 -3 -41l-52 -326h-167l46 290q2 24 2 31q0 74 -68 74q-83 0 -103 -119l-44 -276h-167l46 290q2 24 2 31q0 74 -68 74q-83 0 -103 -119l-44 -276h-168l81 512h166l-13 -79q25 41 70.5 66t96.5 25z" />
    <glyph glyph-name="n" unicode="n" horiz-adv-x="645" 
d="M276 512l-13 -79q26 41 70.5 66t97.5 25q77 0 121.5 -42.5t44.5 -116.5q0 -14 -4 -42l-51 -323h-168l46 288q2 18 2 32q0 75 -72 75q-90 0 -110 -120l-43 -275h-168l81 512h166z" />
    <glyph glyph-name="o" unicode="o" horiz-adv-x="616" 
d="M279 -12q-110 0 -177.5 61.5t-67.5 166.5q0 135 84.5 221.5t219.5 86.5q110 0 177 -61.5t67 -165.5q0 -135 -84 -222t-219 -87zM289 108q60 0 92.5 57t32.5 138q0 49 -22.5 75t-64.5 26q-60 0 -92.5 -57t-32.5 -137q0 -49 23 -75.5t64 -26.5z" />
    <glyph glyph-name="p" unicode="p" horiz-adv-x="651" 
d="M210 79l-40 -257h-168l109 690h165l-12 -77q25 40 67.5 64.5t94.5 24.5q91 0 142 -60.5t51 -160.5q0 -130 -72.5 -222.5t-187.5 -92.5q-52 0 -92.5 25t-56.5 66zM362 405q-49 0 -82.5 -36.5t-43.5 -101.5q-6 -45 -6 -54q0 -50 24 -77.5t65 -27.5q61 0 96.5 52.5
t35.5 136.5q0 51 -22.5 79.5t-66.5 28.5z" />
    <glyph glyph-name="q" unicode="q" horiz-adv-x="651" 
d="M446 433l13 79h164l-109 -690h-168l40 255q-58 -89 -159 -89q-89 0 -141.5 59t-52.5 156q0 132 72 226.5t189 94.5q53 0 95.5 -26t56.5 -65zM290 108q50 0 83.5 36t43.5 101q6 45 6 54q0 50 -24 78t-65 28q-61 0 -96.5 -55t-35.5 -139q0 -48 23 -75.5t65 -27.5z" />
    <glyph glyph-name="r" unicode="r" horiz-adv-x="447" 
d="M465 515l-24 -154q-24 4 -54 4q-59 0 -101 -36t-54 -105l-35 -224h-168l81 512h166l-18 -109q28 56 72.5 86.5t99.5 30.5q26 0 35 -5z" />
    <glyph glyph-name="s" unicode="s" horiz-adv-x="546" 
d="M10 159h156q1 -31 27 -46.5t62 -15.5q37 0 59 13t22 37q0 16 -14 24.5t-48 16.5l-89 19q-126 29 -126 130q0 83 67.5 135t173.5 52q105 0 161.5 -45t60.5 -120h-149q-6 57 -83 57q-33 0 -52 -12.5t-19 -35.5q0 -16 13.5 -25t46.5 -16l94 -21q122 -27 122 -131
q0 -87 -69 -137t-175 -50q-108 0 -174 44t-67 127z" />
    <glyph glyph-name="t" unicode="t" horiz-adv-x="402" 
d="M344 130l-19 -122q-63 -16 -113 -16q-70 0 -110 29.5t-40 89.5q0 17 3 36l38 248h-65l19 117h69l21 127h160l-20 -127h113l-19 -117h-113l-35 -207q-3 -15 -3 -25q0 -22 12.5 -31t39.5 -9q30 0 62 7z" />
    <glyph glyph-name="u" unicode="u" horiz-adv-x="638" 
d="M363 0l12 79q-26 -41 -69 -66t-96 -25q-76 0 -118 42.5t-42 116.5q0 23 3 45l51 320h168l-46 -290q-3 -18 -3 -32q0 -72 68 -72q40 0 68.5 29.5t37.5 90.5l44 274h167l-81 -512h-164z" />
    <glyph glyph-name="v" unicode="v" horiz-adv-x="604" 
d="M149 0l-95 512h164l49 -348h3l195 348h168l-310 -512h-174z" />
    <glyph glyph-name="w" unicode="w" horiz-adv-x="856" 
d="M541 512l12 -340h2l164 340h165l-273 -512h-161l-22 331h-2l-158 -331h-162l-52 512h165l18 -340h2l153 340h149z" />
    <glyph glyph-name="x" unicode="x" horiz-adv-x="611" 
d="M156 0h-183l246 264l-142 248h181l73 -137l119 137h184l-228 -245l152 -267h-182l-82 154z" />
    <glyph glyph-name="y" unicode="y" horiz-adv-x="604" 
d="M149 7l-95 505h166l52 -354h2l192 354h167l-298 -515q-58 -100 -120 -141.5t-157 -41.5q-40 0 -70 10l20 121q24 -7 39 -7q34 0 57 15t45 54z" />
    <glyph glyph-name="z" unicode="z" horiz-adv-x="548" 
d="M521 399l-292 -278h256l-19 -121h-462l17 109l293 283h-240l19 120h447z" />
    <glyph glyph-name="braceleft" unicode="{" horiz-adv-x="445" 
d="M38 256l19 116h39q26 0 43.5 16t21.5 42l30 182q19 124 166 124h114l-18 -113h-66q-46 0 -52 -41l-27 -173q-7 -41 -39 -66t-76 -29q39 -4 62.5 -24t23.5 -54q0 -14 -15 -101t-15 -99q0 -31 41 -31h65l-18 -113h-114q-129 0 -129 97q0 17 15.5 115t15.5 107q0 45 -48 45
h-39z" />
    <glyph glyph-name="bar" unicode="|" horiz-adv-x="351" 
d="M180 736h145l-134 -844h-145z" />
    <glyph glyph-name="braceright" unicode="}" horiz-adv-x="445" 
d="M427 372l-19 -116h-39q-26 0 -43.5 -16t-21.5 -42l-30 -182q-19 -124 -166 -124h-114l18 113h66q46 0 52 41l27 173q7 41 39 66t76 29q-39 4 -62.5 24t-23.5 54q0 14 15 101t15 99q0 31 -41 31h-65l18 113h114q129 0 129 -97q0 -17 -15.5 -115t-15.5 -107q0 -45 48 -45
h39z" />
    <glyph glyph-name="asciitilde" unicode="~" horiz-adv-x="587" 
d="M230 281q-16 0 -29.5 -16.5t-20.5 -44.5h-98q14 84 53 135t90 51q37 0 85 -31.5t65 -31.5q34 0 51 60h98q-14 -85 -53 -135.5t-91 -50.5q-37 0 -84.5 32t-65.5 32z" />
    <glyph glyph-name="uni00A0" unicode="&#xa0;" horiz-adv-x="205" 
 />
    <glyph glyph-name="exclamdown" unicode="&#xa1;" horiz-adv-x="343" 
d="M337 714l-29 -177h-184l28 177h185zM227 0h-192l101 464h137z" />
    <glyph glyph-name="cent" unicode="&#xa2;" horiz-adv-x="580" 
d="M538 194q-24 -86 -85.5 -139.5t-153.5 -62.5l-17 -98h-84l18 102q-82 16 -131 77t-49 149q0 127 78.5 215.5t197.5 99.5l19 109h84l-20 -112q80 -13 122.5 -65.5t42.5 -133.5h-130q-4 66 -55 84l-54 -307q59 15 81 82h136zM182 225q0 -81 55 -108l53 300
q-55 -18 -81.5 -70.5t-26.5 -121.5z" />
    <glyph glyph-name="sterling" unicode="&#xa3;" horiz-adv-x="656" 
d="M600 134l-21 -134h-574l21 134h15q41 0 71 37t34 100h-91l18 115h60q-9 47 -9 83q0 108 81 182.5t206 74.5q117 0 180 -61.5t63 -160.5q0 -7 -2 -25h-161q1 9 1 21q0 43 -22 69.5t-68 26.5q-51 0 -82 -33t-31 -87q0 -13 2 -27t6.5 -34t6.5 -29h152l-18 -115h-134
q-15 -81 -82 -137h378z" />
    <glyph glyph-name="yen" unicode="&#xa5;" horiz-adv-x="745" 
d="M645 170h-199l-27 -170h-173l27 170h-200l15 92h200l9 60h-199l14 92h140l-162 300h184l132 -258h2l204 258h189l-256 -300h139l-14 -92h-200l-9 -60h199z" />
    <glyph glyph-name="section" unicode="&#xa7;" horiz-adv-x="639" 
d="M499 60q0 -87 -72.5 -143t-177.5 -56q-103 0 -157.5 45.5t-54.5 123.5h147q0 -27 22 -45t57 -18q36 0 57 18.5t21 46.5q0 29 -47 56l-124 65q-62 33 -89 66.5t-27 81.5q0 112 110 170q-13 26 -13 57q0 86 72 142t177 56q104 0 158 -44.5t54 -121.5h-148q0 27 -21 43.5
t-57 16.5q-37 0 -57.5 -18t-20.5 -47t49 -55l123 -65q62 -33 89 -67t27 -80q0 -115 -110 -171q13 -26 13 -57zM380 201q4 -2 11.5 -6t11.5 -6q47 22 47 68q0 17 -12 31t-43 31l-126 67q-11 5 -23 13q-46 -22 -46 -68q0 -18 12 -31.5t43 -30.5z" />
    <glyph glyph-name="dieresis" unicode="&#xa8;" horiz-adv-x="564" 
d="M368 583l23 145h147l-23 -145h-147zM153 583l23 145h147l-23 -145h-147z" />
    <glyph glyph-name="copyright" unicode="&#xa9;" horiz-adv-x="879" 
d="M825 356q0 -152 -108 -260t-261 -108t-261.5 108t-108.5 260q0 154 108.5 262.5t261.5 108.5t261 -108.5t108 -262.5zM130 356q0 -134 95.5 -229.5t230.5 -95.5t230.5 95.5t95.5 229.5q0 136 -95.5 232t-230.5 96t-230.5 -96t-95.5 -232zM365 358q0 -60 24.5 -96
t70.5 -37q64 3 75 66h116q-29 -151 -189 -154q-97 1 -154.5 62.5t-57.5 159.5q0 97 58 158t154 61q160 0 189 -153h-116q-11 65 -75 65q-46 0 -70.5 -35.5t-24.5 -96.5z" />
    <glyph glyph-name="ordfeminine" unicode="&#xaa;" horiz-adv-x="418" 
d="M281 379q1 14 5 48q-36 -57 -115 -57q-48 0 -76.5 24.5t-28.5 64.5q0 104 143 116l95 8q3 18 3 24q0 34 -39 34q-42 0 -52 -39h-115q14 59 60 92t118 33q70 0 107.5 -29.5t37.5 -86.5q0 -13 -3 -30l-15 -100q-10 -58 -14 -102h-111zM292 507l2 15l-56 -7q-52 -6 -52 -41
q0 -29 34 -29q26 0 46.5 16.5t25.5 45.5zM48 228l14 86h311l-14 -86h-311z" />
    <glyph glyph-name="guillemotleft" unicode="&#xab;" horiz-adv-x="578" 
d="M495 43h-109l-111 211l172 211h115l-143 -211zM269 43h-109l-110 211l172 211h115l-143 -211z" />
    <glyph glyph-name="registered" unicode="&#xae;" horiz-adv-x="576" 
d="M326 726q96 0 163.5 -66t67.5 -165q0 -100 -67 -166t-164 -66q-96 0 -163 66t-67 166q0 99 67 165t163 66zM326 293q84 0 141 57.5t57 144.5t-57.5 144t-140.5 57t-140.5 -57t-57.5 -144t57.5 -144.5t140.5 -57.5zM290 376h-64v245h118q46 0 71 -21t25 -61q0 -50 -46 -71
l53 -92h-70l-46 81h-41v-81zM290 508h45q41 0 41 31t-41 31h-45v-62z" />
    <glyph glyph-name="macron" unicode="&#xaf;" horiz-adv-x="564" 
d="M171 583l17 105h325l-17 -105h-325z" />
    <glyph glyph-name="degree" unicode="&#xb0;" horiz-adv-x="387" 
d="M94 564q0 69 48.5 115.5t117.5 46.5q61 0 98.5 -36.5t37.5 -95.5q0 -70 -48 -116t-117 -46q-61 0 -99 37t-38 95zM175 572q0 -28 17 -45t46 -17q33 0 56 21t23 56q0 27 -18 44.5t-46 17.5q-33 0 -55.5 -21t-22.5 -56z" />
    <glyph glyph-name="twosuperior" unicode="&#xb2;" horiz-adv-x="380" 
d="M401 611q0 -53 -34.5 -85.5t-105.5 -65.5q-72 -34 -80 -54h190l-14 -84h-312l6 37q9 58 49.5 95t102.5 70q61 31 77.5 44.5t16.5 36.5q0 34 -39 34q-23 0 -39.5 -16t-21.5 -40h-107q13 61 59.5 99.5t117.5 38.5q60 0 97 -29.5t37 -80.5z" />
    <glyph glyph-name="threesuperior" unicode="&#xb3;" horiz-adv-x="384" 
d="M379 440q0 -49 -43 -87t-121 -38q-74 0 -115.5 36t-41.5 91h104q0 -46 60 -46q26 0 41.5 13.5t15.5 32.5q0 37 -52 37h-37l12 77h36q28 0 43.5 13t15.5 35q0 16 -11 26.5t-31 10.5q-51 0 -59 -46h-102q14 55 57.5 90.5t112.5 35.5q65 0 100 -30.5t35 -75.5q0 -36 -24 -63
t-61 -35q30 -6 47.5 -26.5t17.5 -50.5z" />
    <glyph glyph-name="acute" unicode="&#xb4;" horiz-adv-x="564" 
d="M216 575l76 161h183l-149 -161h-110z" />
    <glyph glyph-name="paragraph" unicode="&#xb6;" horiz-adv-x="714" 
d="M240 -127l68 428q-104 0 -165.5 48t-61.5 130q0 104 80 169.5t213 65.5h330l-133 -841h-115l116 735h-100l-116 -735h-116z" />
    <glyph glyph-name="periodcentered" unicode="&#xb7;" horiz-adv-x="358" 
d="M79 200l29 185h185l-29 -185h-185z" />
    <glyph glyph-name="cedilla" unicode="&#xb8;" horiz-adv-x="835" 
d="M468 -102q0 -48 -44 -76t-103 -28q-57 0 -95 18l11 67q52 -21 90 -21q23 0 37.5 8.5t14.5 22.5q0 25 -41 25q-14 0 -34 -6l-22 24l64 82h60l-41 -52q3 0 5.5 0.5t4 1t3.5 0.5h4q36 0 61 -17t25 -49z" />
    <glyph glyph-name="onesuperior" unicode="&#xb9;" horiz-adv-x="357" 
d="M348 394l-12 -72h-285l11 72h93l31 194h-93l10 68q64 0 88 12.5t37 45.5h81l-51 -320h90z" />
    <glyph glyph-name="ordmasculine" unicode="&#xba;" horiz-adv-x="434" 
d="M245 370q-75 0 -120.5 41t-45.5 110q0 91 56.5 148.5t148.5 57.5q74 0 119.5 -41.5t45.5 -111.5q0 -90 -56.5 -147t-147.5 -57zM276 640q-36 0 -56 -36.5t-20 -86.5q0 -61 52 -61q37 0 57 36.5t20 86.5q0 61 -53 61zM59 228l14 86h311l-14 -86h-311z" />
    <glyph glyph-name="guillemotright" unicode="&#xbb;" horiz-adv-x="578" 
d="M84 465h109l111 -211l-172 -211h-115l143 211zM310 465h109l110 -211l-172 -211h-115l143 211z" />
    <glyph glyph-name="onequarter" unicode="&#xbc;" horiz-adv-x="901" 
d="M204 -12h-100l633 739h100zM356 394l-12 -72h-285l11 72h93l31 194h-93l10 68q64 0 88 12.5t37 45.5h81l-51 -320h90zM819 391l-38 -238h75l-12 -74h-76l-12 -79h-99l12 79h-194l13 74l219 238h112zM703 294l-125 -141h103z" />
    <glyph glyph-name="onehalf" unicode="&#xbd;" horiz-adv-x="908" 
d="M207 -12h-100l633 739h100zM356 394l-12 -72h-285l11 72h93l31 194h-93l10 68q64 0 88 12.5t37 45.5h81l-51 -320h90zM879 289q0 -53 -34.5 -85.5t-105.5 -65.5q-72 -34 -80 -54h190l-14 -84h-312l6 37q9 58 49.5 95t102.5 70q61 31 77.5 44.5t16.5 36.5q0 34 -39 34
q-23 0 -39.5 -16t-21.5 -40h-107q13 61 59.5 99.5t117.5 38.5q60 0 97 -29.5t37 -80.5z" />
    <glyph glyph-name="threequarters" unicode="&#xbe;" horiz-adv-x="923" 
d="M218 -12h-100l633 739h100zM387 440q0 -49 -43 -87t-121 -38q-74 0 -115.5 36t-41.5 91h104q0 -46 60 -46q26 0 41.5 13.5t15.5 32.5q0 37 -52 37h-37l12 77h36q28 0 43.5 13t15.5 35q0 16 -11 26.5t-31 10.5q-51 0 -59 -46h-102q14 55 57.5 90.5t112.5 35.5
q65 0 100 -30.5t35 -75.5q0 -36 -24 -63t-61 -35q30 -6 47.5 -26.5t17.5 -50.5zM840 391l-38 -238h75l-12 -74h-76l-12 -79h-99l12 79h-194l13 74l219 238h112zM724 294l-125 -141h103z" />
    <glyph glyph-name="questiondown" unicode="&#xbf;" horiz-adv-x="607" 
d="M476 714l-27 -169h-184l27 169h184zM25 178q0 134 169 231q62 35 71 74h164q-14 -82 -139 -161q-53 -33 -77.5 -61t-24.5 -68q0 -34 22 -54.5t64 -20.5q51 0 85 33t45 84h167q-25 -108 -107.5 -177.5t-204.5 -69.5q-107 0 -170.5 51.5t-63.5 138.5z" />
    <glyph glyph-name="Agrave" unicode="&#xc0;" horiz-adv-x="777" 
d="M535 761h-111l-107 159h183zM556 0l-31 153h-300l-84 -153h-174l402 714h195l167 -714h-175zM442 548l-144 -263h200l-54 263h-2z" />
    <glyph glyph-name="Aacute" unicode="&#xc1;" horiz-adv-x="777" 
d="M418 761l76 159h192l-158 -159h-110zM556 0l-31 153h-300l-84 -153h-174l402 714h195l167 -714h-175zM442 548l-144 -263h200l-54 263h-2z" />
    <glyph glyph-name="Acircumflex" unicode="&#xc2;" horiz-adv-x="777" 
d="M426 920h143l77 -160h-88l-70 69l-94 -69h-97zM556 0l-31 153h-300l-84 -153h-174l402 714h195l167 -714h-175zM442 548l-144 -263h200l-54 263h-2z" />
    <glyph glyph-name="Atilde" unicode="&#xc3;" horiz-adv-x="777" 
d="M422 823q-35 0 -46 -56h-91q11 76 47 122.5t83 46.5q33 0 76 -29t59 -29q15 0 27.5 14.5t18.5 41.5h91q-12 -77 -48 -123.5t-83 -46.5q-33 0 -75.5 29.5t-58.5 29.5zM556 0l-31 153h-300l-84 -153h-174l402 714h195l167 -714h-175zM442 548l-144 -263h200l-54 263h-2z
" />
    <glyph glyph-name="Adieresis" unicode="&#xc4;" horiz-adv-x="777" 
d="M512 766l23 145h147l-23 -145h-147zM297 766l23 145h147l-23 -145h-147zM556 0l-31 153h-300l-84 -153h-174l402 714h195l167 -714h-175zM442 548l-144 -263h200l-54 263h-2z" />
    <glyph glyph-name="Aring" unicode="&#xc5;" horiz-adv-x="777" 
d="M225 153l-84 -153h-174l393 699q-21 31 -21 70q0 61 43.5 105t108.5 44q52 0 85.5 -35.5t33.5 -85.5q0 -60 -41 -103l162 -694h-175l-31 153h-300zM482 843q-28 0 -47.5 -19.5t-19.5 -47.5q0 -23 15.5 -38t36.5 -15q28 0 47.5 19t19.5 47q0 23 -15 38.5t-37 15.5z
M442 548l-144 -263h200l-54 263h-2z" />
    <glyph glyph-name="AE" unicode="&#xc6;" horiz-adv-x="1139" 
d="M504 0l25 161h-260l-121 -161h-183l541 714h652l-21 -133h-371l-25 -156h326l-21 -133h-326l-25 -158h377l-21 -134h-547zM599 600l-230 -306h182z" />
    <glyph glyph-name="Ccedilla" unicode="&#xc7;" horiz-adv-x="727" 
d="M433 -102q0 -48 -44 -76t-103 -28q-57 0 -95 18l11 67q52 -21 90 -21q23 0 37.5 8.5t14.5 22.5q0 25 -41 25q-14 0 -34 -6l-22 24l48 61q-117 19 -182 99.5t-65 202.5q0 180 112 305.5t289 125.5q134 0 206 -67.5t77 -183.5h-169q-2 53 -33.5 85.5t-88.5 32.5
q-102 0 -159.5 -88.5t-57.5 -212.5q0 -79 38.5 -125t107.5 -46q115 0 156 118h168q-35 -116 -117.5 -183.5t-213.5 -67.5h-12l-21 -26q3 0 5.5 0.5t4 1t3.5 0.5h4q35 0 60.5 -17t25.5 -49z" />
    <glyph glyph-name="Egrave" unicode="&#xc8;" horiz-adv-x="665" 
d="M498 761h-111l-107 159h183zM31 0l113 714h541l-21 -133h-372l-24 -156h326l-22 -133h-325l-25 -158h377l-21 -134h-547z" />
    <glyph glyph-name="Eacute" unicode="&#xc9;" horiz-adv-x="665" 
d="M352 761l76 159h192l-158 -159h-110zM31 0l113 714h541l-21 -133h-372l-24 -156h326l-22 -133h-325l-25 -158h377l-21 -134h-547z" />
    <glyph glyph-name="Ecircumflex" unicode="&#xca;" horiz-adv-x="665" 
d="M376 920h143l77 -160h-88l-70 69l-94 -69h-97zM31 0l113 714h541l-21 -133h-372l-24 -156h326l-22 -133h-325l-25 -158h377l-21 -134h-547z" />
    <glyph glyph-name="Edieresis" unicode="&#xcb;" horiz-adv-x="665" 
d="M463 766l23 145h147l-23 -145h-147zM248 766l23 145h147l-23 -145h-147zM31 0l113 714h541l-21 -133h-372l-24 -156h326l-22 -133h-325l-25 -158h377l-21 -134h-547z" />
    <glyph glyph-name="Igrave" unicode="&#xcc;" horiz-adv-x="315" 
d="M304 761h-111l-107 159h183zM144 714h173l-113 -714h-173z" />
    <glyph glyph-name="Iacute" unicode="&#xcd;" horiz-adv-x="315" 
d="M181 761l76 159h192l-158 -159h-110zM144 714h173l-113 -714h-173z" />
    <glyph glyph-name="Icircumflex" unicode="&#xce;" horiz-adv-x="315" 
d="M194 920h143l77 -160h-88l-70 69l-94 -69h-97zM144 714h173l-113 -714h-173z" />
    <glyph glyph-name="Idieresis" unicode="&#xcf;" horiz-adv-x="315" 
d="M272 766l23 145h147l-23 -145h-147zM57 766l23 145h147l-23 -145h-147zM144 714h173l-113 -714h-173z" />
    <glyph glyph-name="Eth" unicode="&#xd0;" horiz-adv-x="789" 
d="M773 414q0 -183 -115.5 -298.5t-303.5 -115.5h-298l47 299h-66l20 126h66l46 289h286q153 0 235.5 -81t82.5 -219zM247 134h121q104 0 167 75t63 202q0 170 -169 170h-111l-25 -156h101l-20 -126h-101z" />
    <glyph glyph-name="Ntilde" unicode="&#xd1;" horiz-adv-x="797" 
d="M425 823q-35 0 -46 -56h-91q11 76 47 122.5t83 46.5q33 0 76 -29t59 -29q15 0 27.5 14.5t18.5 41.5h91q-12 -77 -48 -123.5t-83 -46.5q-33 0 -75.5 29.5t-58.5 29.5zM337 714l224 -454h2l72 454h164l-113 -714h-154l-254 508h-2l-80 -508h-165l113 714h193z" />
    <glyph glyph-name="Ograve" unicode="&#xd2;" horiz-adv-x="776" 
d="M522 761h-111l-107 159h183zM447 726q147 0 231 -84t84 -224q0 -114 -48 -211.5t-140.5 -158t-210.5 -60.5q-147 0 -231 84.5t-84 223.5q0 85 28.5 163t79.5 137.5t126.5 94.5t164.5 35zM439 593q-69 0 -119 -44t-73 -110.5t-23 -146.5t38 -125.5t109 -45.5q68 0 118 44
t73 111t23 146q0 81 -37.5 126t-108.5 45z" />
    <glyph glyph-name="Oacute" unicode="&#xd3;" horiz-adv-x="776" 
d="M409 761l76 159h192l-158 -159h-110zM447 726q147 0 231 -84t84 -224q0 -114 -48 -211.5t-140.5 -158t-210.5 -60.5q-147 0 -231 84.5t-84 223.5q0 85 28.5 163t79.5 137.5t126.5 94.5t164.5 35zM439 593q-69 0 -119 -44t-73 -110.5t-23 -146.5t38 -125.5t109 -45.5
q68 0 118 44t73 111t23 146q0 81 -37.5 126t-108.5 45z" />
    <glyph glyph-name="Ocircumflex" unicode="&#xd4;" horiz-adv-x="776" 
d="M428 920h143l77 -160h-88l-70 69l-94 -69h-97zM447 726q147 0 231 -84t84 -224q0 -114 -48 -211.5t-140.5 -158t-210.5 -60.5q-147 0 -231 84.5t-84 223.5q0 85 28.5 163t79.5 137.5t126.5 94.5t164.5 35zM439 593q-69 0 -119 -44t-73 -110.5t-23 -146.5t38 -125.5
t109 -45.5q68 0 118 44t73 111t23 146q0 81 -37.5 126t-108.5 45z" />
    <glyph glyph-name="Otilde" unicode="&#xd5;" horiz-adv-x="776" 
d="M415 823q-35 0 -46 -56h-91q11 76 47 122.5t83 46.5q33 0 76 -29t59 -29q15 0 27.5 14.5t18.5 41.5h91q-12 -77 -48 -123.5t-83 -46.5q-33 0 -75.5 29.5t-58.5 29.5zM447 726q147 0 231 -84t84 -224q0 -114 -48 -211.5t-140.5 -158t-210.5 -60.5q-147 0 -231 84.5
t-84 223.5q0 85 28.5 163t79.5 137.5t126.5 94.5t164.5 35zM439 593q-69 0 -119 -44t-73 -110.5t-23 -146.5t38 -125.5t109 -45.5q68 0 118 44t73 111t23 146q0 81 -37.5 126t-108.5 45z" />
    <glyph glyph-name="Odieresis" unicode="&#xd6;" horiz-adv-x="776" 
d="M513 766l23 145h147l-23 -145h-147zM298 766l23 145h147l-23 -145h-147zM447 726q147 0 231 -84t84 -224q0 -114 -48 -211.5t-140.5 -158t-210.5 -60.5q-147 0 -231 84.5t-84 223.5q0 85 28.5 163t79.5 137.5t126.5 94.5t164.5 35zM439 593q-69 0 -119 -44t-73 -110.5
t-23 -146.5t38 -125.5t109 -45.5q68 0 118 44t73 111t23 146q0 81 -37.5 126t-108.5 45z" />
    <glyph glyph-name="multiply" unicode="&#xd7;" 
d="M469 89l-137 163l-193 -166l-68 82l192 166l-138 165l91 76l137 -163l193 167l69 -82l-193 -167l139 -165z" />
    <glyph glyph-name="Oslash" unicode="&#xd8;" horiz-adv-x="776" 
d="M363 -12q-117 0 -198 57l-71 -74l-67 52l78 82q-57 79 -57 191q0 85 28.5 163t79.5 137.5t126.5 94.5t164.5 35q117 0 196 -55l60 62l66 -52l-65 -69q58 -78 58 -194q0 -114 -48 -211.5t-140.5 -158t-210.5 -60.5zM224 292q0 -30 6 -56l307 323q-37 34 -98 34
q-69 0 -119 -44t-73 -110.5t-23 -146.5zM585 422q0 32 -6 59l-308 -324q38 -36 100 -36q68 0 118 44t73 111t23 146z" />
    <glyph glyph-name="Ugrave" unicode="&#xd9;" horiz-adv-x="764" 
d="M523 761h-111l-107 159h183zM706 287q-23 -146 -116.5 -222.5t-245.5 -76.5q-133 0 -206.5 62t-73.5 175q0 26 5 63l67 426h173l-66 -420q-4 -24 -4 -50q0 -121 122 -121q145 0 173 171l66 420h173z" />
    <glyph glyph-name="Uacute" unicode="&#xda;" horiz-adv-x="764" 
d="M399 761l76 159h192l-158 -159h-110zM706 287q-23 -146 -116.5 -222.5t-245.5 -76.5q-133 0 -206.5 62t-73.5 175q0 26 5 63l67 426h173l-66 -420q-4 -24 -4 -50q0 -121 122 -121q145 0 173 171l66 420h173z" />
    <glyph glyph-name="Ucircumflex" unicode="&#xdb;" horiz-adv-x="764" 
d="M416 920h143l77 -160h-88l-70 69l-94 -69h-97zM706 287q-23 -146 -116.5 -222.5t-245.5 -76.5q-133 0 -206.5 62t-73.5 175q0 26 5 63l67 426h173l-66 -420q-4 -24 -4 -50q0 -121 122 -121q145 0 173 171l66 420h173z" />
    <glyph glyph-name="Udieresis" unicode="&#xdc;" horiz-adv-x="764" 
d="M498 766l23 145h147l-23 -145h-147zM283 766l23 145h147l-23 -145h-147zM706 287q-23 -146 -116.5 -222.5t-245.5 -76.5q-133 0 -206.5 62t-73.5 175q0 26 5 63l67 426h173l-66 -420q-4 -24 -4 -50q0 -121 122 -121q145 0 173 171l66 420h173z" />
    <glyph glyph-name="Yacute" unicode="&#xdd;" horiz-adv-x="737" 
d="M379 761l76 159h192l-158 -159h-110zM415 0h-174l47 291l-210 423h186l132 -275h3l216 275h190l-344 -423z" />
    <glyph glyph-name="Thorn" unicode="&#xde;" horiz-adv-x="699" 
d="M374 129h-153l-20 -129h-170l113 714h169l-18 -112h149q117 0 183.5 -52.5t66.5 -149.5q0 -130 -86.5 -200.5t-233.5 -70.5zM242 261h133q147 0 147 121q0 44 -27 65t-87 21h-133z" />
    <glyph glyph-name="germandbls" unicode="&#xdf;" horiz-adv-x="651" 
d="M496 406q51 -16 84 -59t33 -100q0 -117 -81 -185t-200 -68q-33 0 -70 10l20 127q21 -6 45 -6q60 0 97 29.5t37 86.5q0 43 -28.5 67.5t-83.5 24.5h-26l20 125h20q46 0 72 25.5t26 68.5q0 32 -20 51t-54 19q-91 0 -110 -118l-80 -504h-167l78 495q19 118 96 185.5t197 67.5
q99 0 156 -49t57 -122q0 -63 -35.5 -107t-82.5 -64z" />
    <glyph glyph-name="agrave" unicode="&#xe0;" horiz-adv-x="592" 
d="M407 575h-110l-98 161h174zM342 0q0 38 6 76q-54 -88 -176 -88q-70 0 -113.5 37t-43.5 97q0 152 213 174l148 15q5 26 5 38q0 56 -65 56q-34 0 -56.5 -18t-30.5 -47h-160q22 88 90 136t173 48q103 0 157.5 -43t54.5 -125q0 -25 -6 -61l-24 -148q-14 -90 -18 -147h-154z
M358 194l4 26l-93 -11q-44 -6 -66 -21t-22 -45q0 -22 15 -34.5t43 -12.5q44 0 78 25.5t41 72.5z" />
    <glyph glyph-name="aacute" unicode="&#xe1;" horiz-adv-x="592" 
d="M287 575l76 161h183l-149 -161h-110zM342 0q0 38 6 76q-54 -88 -176 -88q-70 0 -113.5 37t-43.5 97q0 152 213 174l148 15q5 26 5 38q0 56 -65 56q-34 0 -56.5 -18t-30.5 -47h-160q22 88 90 136t173 48q103 0 157.5 -43t54.5 -125q0 -25 -6 -61l-24 -148
q-14 -90 -18 -147h-154zM358 194l4 26l-93 -11q-44 -6 -66 -21t-22 -45q0 -22 15 -34.5t43 -12.5q44 0 78 25.5t41 72.5z" />
    <glyph glyph-name="acircumflex" unicode="&#xe2;" horiz-adv-x="592" 
d="M324 736h142l60 -162h-89l-55 73l-102 -73h-98zM342 0q0 38 6 76q-54 -88 -176 -88q-70 0 -113.5 37t-43.5 97q0 152 213 174l148 15q5 26 5 38q0 56 -65 56q-34 0 -56.5 -18t-30.5 -47h-160q22 88 90 136t173 48q103 0 157.5 -43t54.5 -125q0 -25 -6 -61l-24 -148
q-14 -90 -18 -147h-154zM358 194l4 26l-93 -11q-44 -6 -66 -21t-22 -45q0 -22 15 -34.5t43 -12.5q44 0 78 25.5t41 72.5z" />
    <glyph glyph-name="atilde" unicode="&#xe3;" horiz-adv-x="592" 
d="M300 624q-33 0 -46 -57h-91q13 77 48.5 123t82.5 46q33 0 75 -29.5t59 -29.5q34 0 47 57h90q-12 -77 -48 -123.5t-83 -46.5q-33 0 -75 30t-59 30zM342 0q0 38 6 76q-54 -88 -176 -88q-70 0 -113.5 37t-43.5 97q0 152 213 174l148 15q5 26 5 38q0 56 -65 56
q-34 0 -56.5 -18t-30.5 -47h-160q22 88 90 136t173 48q103 0 157.5 -43t54.5 -125q0 -25 -6 -61l-24 -148q-14 -90 -18 -147h-154zM358 194l4 26l-93 -11q-44 -6 -66 -21t-22 -45q0 -22 15 -34.5t43 -12.5q44 0 78 25.5t41 72.5z" />
    <glyph glyph-name="adieresis" unicode="&#xe4;" horiz-adv-x="592" 
d="M388 583l23 145h147l-23 -145h-147zM173 583l23 145h147l-23 -145h-147zM342 0q0 38 6 76q-54 -88 -176 -88q-70 0 -113.5 37t-43.5 97q0 152 213 174l148 15q5 26 5 38q0 56 -65 56q-34 0 -56.5 -18t-30.5 -47h-160q22 88 90 136t173 48q103 0 157.5 -43t54.5 -125
q0 -25 -6 -61l-24 -148q-14 -90 -18 -147h-154zM358 194l4 26l-93 -11q-44 -6 -66 -21t-22 -45q0 -22 15 -34.5t43 -12.5q44 0 78 25.5t41 72.5z" />
    <glyph glyph-name="aring" unicode="&#xe5;" horiz-adv-x="592" 
d="M386 801q47 0 77 -31t30 -77q0 -54 -38.5 -93t-96.5 -39q-46 0 -76.5 31t-30.5 76q0 55 38.5 94t96.5 39zM366 629q25 0 42 16.5t17 41.5q0 20 -13.5 33t-33.5 13q-25 0 -41.5 -16t-16.5 -41q0 -20 13.5 -33.5t32.5 -13.5zM342 0q0 38 6 76q-54 -88 -176 -88
q-70 0 -113.5 37t-43.5 97q0 152 213 174l148 15q5 26 5 38q0 56 -65 56q-34 0 -56.5 -18t-30.5 -47h-160q22 88 90 136t173 48q103 0 157.5 -43t54.5 -125q0 -25 -6 -61l-24 -148q-14 -90 -18 -147h-154zM358 194l4 26l-93 -11q-44 -6 -66 -21t-22 -45q0 -22 15 -34.5
t43 -12.5q44 0 78 25.5t41 72.5z" />
    <glyph glyph-name="ae" unicode="&#xe6;" horiz-adv-x="914" 
d="M862 168q-29 -85 -97.5 -132.5t-164.5 -47.5q-129 0 -196 84q-80 -84 -195 -84q-87 0 -139.5 41t-52.5 109q0 75 58.5 120.5t162.5 45.5h137l4 23q2 16 2 22q0 54 -66 54q-34 0 -57 -17t-30 -46h-161q23 87 89.5 135.5t164.5 48.5q109 0 156 -65q75 65 182 65t166 -57.5
t59 -156.5q0 -39 -11 -89h-358v-3q0 -111 95 -111q69 0 98 61h154zM650 408q-44 0 -76 -28t-47 -76h204q1 7 1 18q0 39 -21 62.5t-61 23.5zM245 100q47 0 77 26.5t36 68.5l4 26h-90q-92 0 -92 -67q0 -26 18 -40t47 -14z" />
    <glyph glyph-name="ccedilla" unicode="&#xe7;" horiz-adv-x="572" 
d="M356 -102q0 -48 -44 -76t-103 -28q-57 0 -95 18l11 67q52 -21 90 -21q23 0 37.5 8.5t14.5 22.5q0 25 -41 25q-14 0 -34 -6l-22 24l47 60q-82 15 -132.5 73t-50.5 147q0 140 88 226t217 86q105 0 162.5 -54.5t53.5 -143.5h-158q1 35 -16.5 56t-52.5 21q-56 0 -92 -56
t-36 -134q0 -48 21.5 -75.5t58.5 -27.5q36 0 60 21.5t34 55.5h160q-25 -91 -93.5 -145t-166.5 -54l-21 -26q3 0 5.5 0.5t4 1t3.5 0.5h4q36 0 61 -17t25 -49z" />
    <glyph glyph-name="egrave" unicode="&#xe8;" horiz-adv-x="593" 
d="M418 575h-110l-98 161h174zM541 167q-29 -84 -97.5 -131.5t-164.5 -47.5q-111 0 -178 61.5t-67 165.5q0 136 85 222.5t219 86.5q107 0 166 -57.5t59 -157.5q0 -35 -12 -90h-358v-1q0 -53 24.5 -82.5t71.5 -29.5q68 0 98 61h154zM330 407q-44 0 -76 -26.5t-47 -72.5h203
q1 7 1 18q0 36 -20.5 58.5t-60.5 22.5z" />
    <glyph glyph-name="eacute" unicode="&#xe9;" horiz-adv-x="593" 
d="M288 575l76 161h183l-149 -161h-110zM541 167q-29 -84 -97.5 -131.5t-164.5 -47.5q-111 0 -178 61.5t-67 165.5q0 136 85 222.5t219 86.5q107 0 166 -57.5t59 -157.5q0 -35 -12 -90h-358v-1q0 -53 24.5 -82.5t71.5 -29.5q68 0 98 61h154zM330 407q-44 0 -76 -26.5
t-47 -72.5h203q1 7 1 18q0 36 -20.5 58.5t-60.5 22.5z" />
    <glyph glyph-name="ecircumflex" unicode="&#xea;" horiz-adv-x="593" 
d="M323 736h142l60 -162h-89l-55 73l-102 -73h-98zM541 167q-29 -84 -97.5 -131.5t-164.5 -47.5q-111 0 -178 61.5t-67 165.5q0 136 85 222.5t219 86.5q107 0 166 -57.5t59 -157.5q0 -35 -12 -90h-358v-1q0 -53 24.5 -82.5t71.5 -29.5q68 0 98 61h154zM330 407
q-44 0 -76 -26.5t-47 -72.5h203q1 7 1 18q0 36 -20.5 58.5t-60.5 22.5z" />
    <glyph glyph-name="edieresis" unicode="&#xeb;" horiz-adv-x="593" 
d="M390 583l23 145h147l-23 -145h-147zM175 583l23 145h147l-23 -145h-147zM541 167q-29 -84 -97.5 -131.5t-164.5 -47.5q-111 0 -178 61.5t-67 165.5q0 136 85 222.5t219 86.5q107 0 166 -57.5t59 -157.5q0 -35 -12 -90h-358v-1q0 -53 24.5 -82.5t71.5 -29.5q68 0 98 61
h154zM330 407q-44 0 -76 -26.5t-47 -72.5h203q1 7 1 18q0 36 -20.5 58.5t-60.5 22.5z" />
    <glyph glyph-name="igrave" unicode="&#xec;" horiz-adv-x="306" 
d="M278 575h-110l-98 161h174zM110 512h168l-81 -512h-168z" />
    <glyph glyph-name="iacute" unicode="&#xed;" horiz-adv-x="306" 
d="M148 575l76 161h183l-149 -161h-110zM110 512h168l-81 -512h-168z" />
    <glyph glyph-name="icircumflex" unicode="&#xee;" horiz-adv-x="306" 
d="M174 736h142l60 -162h-89l-55 73l-102 -73h-98zM110 512h168l-81 -512h-168z" />
    <glyph glyph-name="idieresis" unicode="&#xef;" horiz-adv-x="306" 
d="M239 583l23 145h147l-23 -145h-147zM24 583l23 145h147l-23 -145h-147zM110 512h168l-81 -512h-168z" />
    <glyph glyph-name="eth" unicode="&#xf0;" horiz-adv-x="613" 
d="M583 327q0 -91 -33.5 -166.5t-104 -124t-167.5 -48.5q-110 0 -177.5 61.5t-67.5 166.5q0 133 82.5 216.5t208.5 83.5q47 0 72 -22q-18 49 -57 98l-141 -44l-23 58l119 37q-48 47 -111 87v6h188q37 -25 62 -49l99 31l23 -58l-75 -24q103 -127 103 -309zM327 399
q-60 0 -93 -56t-33 -135q0 -48 23 -74t64 -26q60 0 93 56.5t33 135.5q0 48 -23 73.5t-64 25.5z" />
    <glyph glyph-name="ntilde" unicode="&#xf1;" horiz-adv-x="645" 
d="M326 624q-33 0 -46 -57h-91q13 77 48.5 123t82.5 46q33 0 75 -29.5t59 -29.5q34 0 47 57h90q-12 -77 -48 -123.5t-83 -46.5q-33 0 -75 30t-59 30zM276 512l-13 -79q26 41 70.5 66t97.5 25q77 0 121.5 -42.5t44.5 -116.5q0 -14 -4 -42l-51 -323h-168l46 288q2 18 2 32
q0 75 -72 75q-90 0 -110 -120l-43 -275h-168l81 512h166z" />
    <glyph glyph-name="ograve" unicode="&#xf2;" horiz-adv-x="616" 
d="M413 575h-110l-98 161h174zM279 -12q-110 0 -177.5 61.5t-67.5 166.5q0 135 84.5 221.5t219.5 86.5q110 0 177 -61.5t67 -165.5q0 -135 -84 -222t-219 -87zM289 108q60 0 92.5 57t32.5 138q0 49 -22.5 75t-64.5 26q-60 0 -92.5 -57t-32.5 -137q0 -49 23 -75.5t64 -26.5z
" />
    <glyph glyph-name="oacute" unicode="&#xf3;" horiz-adv-x="616" 
d="M301 575l76 161h183l-149 -161h-110zM279 -12q-110 0 -177.5 61.5t-67.5 166.5q0 135 84.5 221.5t219.5 86.5q110 0 177 -61.5t67 -165.5q0 -135 -84 -222t-219 -87zM289 108q60 0 92.5 57t32.5 138q0 49 -22.5 75t-64.5 26q-60 0 -92.5 -57t-32.5 -137q0 -49 23 -75.5
t64 -26.5z" />
    <glyph glyph-name="ocircumflex" unicode="&#xf4;" horiz-adv-x="616" 
d="M330 736h142l60 -162h-89l-55 73l-102 -73h-98zM279 -12q-110 0 -177.5 61.5t-67.5 166.5q0 135 84.5 221.5t219.5 86.5q110 0 177 -61.5t67 -165.5q0 -135 -84 -222t-219 -87zM289 108q60 0 92.5 57t32.5 138q0 49 -22.5 75t-64.5 26q-60 0 -92.5 -57t-32.5 -137
q0 -49 23 -75.5t64 -26.5z" />
    <glyph glyph-name="otilde" unicode="&#xf5;" horiz-adv-x="615" 
d="M307 624q-33 0 -46 -57h-91q13 77 48.5 123t82.5 46q33 0 75 -29.5t59 -29.5q34 0 47 57h90q-12 -77 -48 -123.5t-83 -46.5q-33 0 -75 30t-59 30zM279 -12q-110 0 -177.5 61.5t-67.5 166.5q0 135 84.5 221.5t219.5 86.5q110 0 177 -61.5t67 -165.5q0 -135 -84 -222
t-219 -87zM289 108q60 0 92.5 57t32.5 138q0 49 -22.5 75t-64.5 26q-60 0 -92.5 -57t-32.5 -137q0 -49 23 -75.5t64 -26.5z" />
    <glyph glyph-name="odieresis" unicode="&#xf6;" horiz-adv-x="616" 
d="M401 583l23 145h147l-23 -145h-147zM186 583l23 145h147l-23 -145h-147zM279 -12q-110 0 -177.5 61.5t-67.5 166.5q0 135 84.5 221.5t219.5 86.5q110 0 177 -61.5t67 -165.5q0 -135 -84 -222t-219 -87zM289 108q60 0 92.5 57t32.5 138q0 49 -22.5 75t-64.5 26
q-60 0 -92.5 -57t-32.5 -137q0 -49 23 -75.5t64 -26.5z" />
    <glyph glyph-name="divide" unicode="&#xf7;" 
d="M299 483l22 138h144l-22 -138h-144zM65 273l20 119h535l-19 -119h-536zM230 43l22 139h144l-22 -139h-144z" />
    <glyph glyph-name="oslash" unicode="&#xf8;" horiz-adv-x="616" 
d="M279 -12q-85 0 -143 36l-56 -58l-53 52l53 54q-46 60 -46 144q0 135 84.5 221.5t219.5 86.5q85 0 146 -38l48 50l52 -53l-45 -47q43 -57 43 -139q0 -135 -84 -222t-219 -87zM192 207q0 -13 1 -19l198 204q-24 19 -62 19q-67 0 -102 -59t-35 -145zM424 306v12l-196 -200
q23 -17 59 -17q67 0 102 59.5t35 145.5z" />
    <glyph glyph-name="ugrave" unicode="&#xf9;" horiz-adv-x="638" 
d="M427 575h-110l-98 161h174zM363 0l12 79q-26 -41 -69 -66t-96 -25q-76 0 -118 42.5t-42 116.5q0 23 3 45l51 320h168l-46 -290q-3 -18 -3 -32q0 -72 68 -72q40 0 68.5 29.5t37.5 90.5l44 274h167l-81 -512h-164z" />
    <glyph glyph-name="uacute" unicode="&#xfa;" horiz-adv-x="638" 
d="M299 575l76 161h183l-149 -161h-110zM363 0l12 79q-26 -41 -69 -66t-96 -25q-76 0 -118 42.5t-42 116.5q0 23 3 45l51 320h168l-46 -290q-3 -18 -3 -32q0 -72 68 -72q40 0 68.5 29.5t37.5 90.5l44 274h167l-81 -512h-164z" />
    <glyph glyph-name="ucircumflex" unicode="&#xfb;" horiz-adv-x="638" 
d="M335 736h142l60 -162h-89l-55 73l-102 -73h-98zM363 0l12 79q-26 -41 -69 -66t-96 -25q-76 0 -118 42.5t-42 116.5q0 23 3 45l51 320h168l-46 -290q-3 -18 -3 -32q0 -72 68 -72q40 0 68.5 29.5t37.5 90.5l44 274h167l-81 -512h-164z" />
    <glyph glyph-name="udieresis" unicode="&#xfc;" horiz-adv-x="638" 
d="M401 583l23 145h147l-23 -145h-147zM186 583l23 145h147l-23 -145h-147zM363 0l12 79q-26 -41 -69 -66t-96 -25q-76 0 -118 42.5t-42 116.5q0 23 3 45l51 320h168l-46 -290q-3 -18 -3 -32q0 -72 68 -72q40 0 68.5 29.5t37.5 90.5l44 274h167l-81 -512h-164z" />
    <glyph glyph-name="yacute" unicode="&#xfd;" horiz-adv-x="604" 
d="M290 575l76 161h183l-149 -161h-110zM149 7l-95 505h166l52 -354h2l192 354h167l-298 -515q-58 -100 -120 -141.5t-157 -41.5q-40 0 -70 10l20 121q24 -7 39 -7q34 0 57 15t45 54z" />
    <glyph glyph-name="thorn" unicode="&#xfe;" horiz-adv-x="650" 
d="M209 79l-40 -257h-168l145 914h168l-49 -300q57 88 160 88q91 0 142 -60.5t51 -160.5q0 -130 -72 -222.5t-187 -92.5q-53 0 -93.5 25t-56.5 66zM361 405q-49 0 -82.5 -36.5t-43.5 -101.5q-5 -38 -5 -54q0 -50 23.5 -77.5t64.5 -27.5q61 0 96.5 52.5t35.5 136.5
q0 51 -22.5 79.5t-66.5 28.5z" />
    <glyph glyph-name="ydieresis" unicode="&#xff;" horiz-adv-x="604" 
d="M384 583l23 145h147l-23 -145h-147zM169 583l23 145h147l-23 -145h-147zM149 7l-95 505h166l52 -354h2l192 354h167l-298 -515q-58 -100 -120 -141.5t-157 -41.5q-40 0 -70 10l20 121q24 -7 39 -7q34 0 57 15t45 54z" />
    <glyph glyph-name="Amacron" unicode="&#x100;" horiz-adv-x="777" 
d="M296 774l17 105h355l-16 -105h-356zM556 0l-31 153h-300l-84 -153h-174l402 714h195l167 -714h-175zM442 548l-144 -263h200l-54 263h-2z" />
    <glyph glyph-name="amacron" unicode="&#x101;" horiz-adv-x="592" 
d="M189 583l17 105h325l-17 -105h-325zM342 0q0 38 6 76q-54 -88 -176 -88q-70 0 -113.5 37t-43.5 97q0 152 213 174l148 15q5 26 5 38q0 56 -65 56q-34 0 -56.5 -18t-30.5 -47h-160q22 88 90 136t173 48q103 0 157.5 -43t54.5 -125q0 -25 -6 -61l-24 -148q-14 -90 -18 -147
h-154zM358 194l4 26l-93 -11q-44 -6 -66 -21t-22 -45q0 -22 15 -34.5t43 -12.5q44 0 78 25.5t41 72.5z" />
    <glyph glyph-name="Abreve" unicode="&#x102;" horiz-adv-x="777" 
d="M668 926q-12 -76 -61 -122t-121 -46q-62 0 -96.5 35.5t-34.5 96.5q0 16 3 36h95q-1 -7 -1 -18q0 -52 48 -52q28 0 46.5 19t23.5 51h98zM556 0l-31 153h-300l-84 -153h-174l402 714h195l167 -714h-175zM442 548l-144 -263h200l-54 263h-2z" />
    <glyph glyph-name="abreve" unicode="&#x103;" horiz-adv-x="592" 
d="M359 569q-62 0 -97 35t-35 96q0 12 4 36h95q-1 -7 -1 -17q0 -24 13 -38.5t36 -14.5q27 0 45.5 18.5t24.5 51.5h97q-12 -76 -61.5 -121.5t-120.5 -45.5zM342 0q0 38 6 76q-54 -88 -176 -88q-70 0 -113.5 37t-43.5 97q0 152 213 174l148 15q5 26 5 38q0 56 -65 56
q-34 0 -56.5 -18t-30.5 -47h-160q22 88 90 136t173 48q103 0 157.5 -43t54.5 -125q0 -25 -6 -61l-24 -148q-14 -90 -18 -147h-154zM358 194l4 26l-93 -11q-44 -6 -66 -21t-22 -45q0 -22 15 -34.5t43 -12.5q44 0 78 25.5t41 72.5z" />
    <glyph glyph-name="Aogonek" unicode="&#x104;" horiz-adv-x="777" 
d="M647 -178q-36 -12 -74 -12q-39 0 -64.5 19.5t-25.5 53.5q0 52 72 122l-30 148h-300l-84 -153h-174l402 714h195l167 -714h-93q-35 -37 -44.5 -51.5t-9.5 -29.5q0 -23 29 -23q19 0 47 6zM442 548l-144 -263h200l-54 263h-2z" />
    <glyph glyph-name="aogonek" unicode="&#x105;" horiz-adv-x="592" 
d="M427 -178q-36 -12 -74 -12q-39 0 -64.5 19.5t-25.5 53.5q0 32 19 60.5t60 69.5q1 31 6 63q-54 -88 -176 -88q-70 0 -113.5 37t-43.5 97q0 152 213 174l148 15q5 26 5 38q0 56 -65 56q-34 0 -56.5 -18t-30.5 -47h-160q22 88 90 136t173 48q103 0 157.5 -43t54.5 -125
q0 -25 -6 -61l-24 -148q-14 -90 -18 -147h-78q-35 -37 -44.5 -51.5t-9.5 -29.5q0 -23 29 -23q19 0 47 6zM358 194l4 26l-93 -11q-44 -6 -66 -21t-22 -45q0 -22 15 -34.5t43 -12.5q44 0 78 25.5t41 72.5z" />
    <glyph glyph-name="Cacute" unicode="&#x106;" horiz-adv-x="727" 
d="M398 761l76 159h192l-158 -159h-110zM363 -12q-147 0 -231 84t-84 223q0 180 112 305.5t289 125.5q134 0 206 -67.5t77 -183.5h-169q-2 53 -33.5 85.5t-88.5 32.5q-102 0 -159.5 -88.5t-57.5 -212.5q0 -79 38.5 -125t107.5 -46q115 0 156 118h168q-35 -116 -117.5 -183.5
t-213.5 -67.5z" />
    <glyph glyph-name="cacute" unicode="&#x107;" horiz-adv-x="572" 
d="M298 575l76 161h183l-149 -161h-110zM34 212q0 140 88 226t217 86q105 0 162.5 -54.5t53.5 -143.5h-158q1 35 -16.5 56t-52.5 21q-56 0 -92 -56t-36 -134q0 -48 21.5 -75.5t58.5 -27.5q36 0 60 21.5t34 55.5h160q-25 -91 -94.5 -145t-171.5 -54t-168 60.5t-66 163.5z" />
    <glyph glyph-name="Ccircumflex" unicode="&#x108;" horiz-adv-x="727" 
d="M422 920h143l77 -160h-88l-70 69l-94 -69h-97zM363 -12q-147 0 -231 84t-84 223q0 180 112 305.5t289 125.5q134 0 206 -67.5t77 -183.5h-169q-2 53 -33.5 85.5t-88.5 32.5q-102 0 -159.5 -88.5t-57.5 -212.5q0 -79 38.5 -125t107.5 -46q115 0 156 118h168
q-35 -116 -117.5 -183.5t-213.5 -67.5z" />
    <glyph glyph-name="ccircumflex" unicode="&#x109;" horiz-adv-x="572" 
d="M321 736h142l60 -162h-89l-55 73l-102 -73h-98zM34 212q0 140 88 226t217 86q105 0 162.5 -54.5t53.5 -143.5h-158q1 35 -16.5 56t-52.5 21q-56 0 -92 -56t-36 -134q0 -48 21.5 -75.5t58.5 -27.5q36 0 60 21.5t34 55.5h160q-25 -91 -94.5 -145t-171.5 -54t-168 60.5
t-66 163.5z" />
    <glyph glyph-name="Cdotaccent" unicode="&#x10a;" horiz-adv-x="727" 
d="M381 766l23 145h172l-23 -145h-172zM363 -12q-147 0 -231 84t-84 223q0 180 112 305.5t289 125.5q134 0 206 -67.5t77 -183.5h-169q-2 53 -33.5 85.5t-88.5 32.5q-102 0 -159.5 -88.5t-57.5 -212.5q0 -79 38.5 -125t107.5 -46q115 0 156 118h168q-35 -116 -117.5 -183.5
t-213.5 -67.5z" />
    <glyph glyph-name="cdotaccent" unicode="&#x10b;" horiz-adv-x="572" 
d="M273 583l23 145h173l-23 -145h-173zM34 212q0 140 88 226t217 86q105 0 162.5 -54.5t53.5 -143.5h-158q1 35 -16.5 56t-52.5 21q-56 0 -92 -56t-36 -134q0 -48 21.5 -75.5t58.5 -27.5q36 0 60 21.5t34 55.5h160q-25 -91 -94.5 -145t-171.5 -54t-168 60.5t-66 163.5z" />
    <glyph glyph-name="Ccaron" unicode="&#x10c;" horiz-adv-x="727" 
d="M533 760h-143l-77 160h88l70 -69l94 69h97zM363 -12q-147 0 -231 84t-84 223q0 180 112 305.5t289 125.5q134 0 206 -67.5t77 -183.5h-169q-2 53 -33.5 85.5t-88.5 32.5q-102 0 -159.5 -88.5t-57.5 -212.5q0 -79 38.5 -125t107.5 -46q115 0 156 118h168
q-35 -116 -117.5 -183.5t-213.5 -67.5z" />
    <glyph glyph-name="ccaron" unicode="&#x10d;" horiz-adv-x="572" 
d="M427 574h-142l-60 162h89l55 -73l102 73h98zM34 212q0 140 88 226t217 86q105 0 162.5 -54.5t53.5 -143.5h-158q1 35 -16.5 56t-52.5 21q-56 0 -92 -56t-36 -134q0 -48 21.5 -75.5t58.5 -27.5q36 0 60 21.5t34 55.5h160q-25 -91 -94.5 -145t-171.5 -54t-168 60.5
t-66 163.5z" />
    <glyph glyph-name="Dcaron" unicode="&#x10e;" horiz-adv-x="764" 
d="M499 760h-143l-77 160h88l70 -69l94 69h97zM144 714h286q153 0 235.5 -81t82.5 -219q0 -183 -115.5 -298.5t-303.5 -115.5h-298zM404 581h-111l-71 -447h121q104 0 167 75t63 202q0 170 -169 170z" />
    <glyph glyph-name="dcaron" unicode="&#x10f;" horiz-adv-x="674" 
d="M444 435l48 301h167l-116 -736h-166l12 79q-26 -41 -68 -66t-94 -25q-89 0 -141.5 59.5t-52.5 155.5q0 133 72 227.5t189 94.5q53 0 94.5 -25.5t55.5 -64.5zM781 537h-80l54 199h169zM291 108q49 0 82.5 36.5t43.5 100.5q6 45 6 55q0 49 -24 77t-65 28q-61 0 -96.5 -54.5
t-35.5 -139.5q0 -47 23 -75t66 -28z" />
    <glyph glyph-name="Dcroat" unicode="&#x110;" horiz-adv-x="789" 
d="M773 414q0 -183 -115.5 -298.5t-303.5 -115.5h-298l47 299h-66l20 126h66l46 289h286q153 0 235.5 -81t82.5 -219zM247 134h121q104 0 167 75t63 202q0 170 -169 170h-111l-25 -156h101l-20 -126h-101z" />
    <glyph glyph-name="dcroat" unicode="&#x111;" horiz-adv-x="666" 
d="M389 79q-26 -41 -68 -66t-94 -25q-89 0 -141.5 59.5t-52.5 155.5q0 133 72 227.5t189 94.5q53 0 94.5 -25.5t55.5 -64.5l21 134h-109l15 94h109l12 73h167l-12 -73h66l-14 -94h-66l-90 -569h-166zM291 108q49 0 82.5 36.5t43.5 100.5q6 45 6 55q0 49 -24 77t-65 28
q-61 0 -96.5 -54.5t-35.5 -139.5q0 -47 23 -75t66 -28z" />
    <glyph glyph-name="Emacron" unicode="&#x112;" horiz-adv-x="665" 
d="M249 774l17 105h355l-16 -105h-356zM31 0l113 714h541l-21 -133h-372l-24 -156h326l-22 -133h-325l-25 -158h377l-21 -134h-547z" />
    <glyph glyph-name="emacron" unicode="&#x113;" horiz-adv-x="593" 
d="M192 583l17 105h325l-17 -105h-325zM541 167q-29 -84 -97.5 -131.5t-164.5 -47.5q-111 0 -178 61.5t-67 165.5q0 136 85 222.5t219 86.5q107 0 166 -57.5t59 -157.5q0 -35 -12 -90h-358v-1q0 -53 24.5 -82.5t71.5 -29.5q68 0 98 61h154zM330 407q-44 0 -76 -26.5
t-47 -72.5h203q1 7 1 18q0 36 -20.5 58.5t-60.5 22.5z" />
    <glyph glyph-name="Ebreve" unicode="&#x114;" horiz-adv-x="665" 
d="M605 926q-12 -76 -61 -122t-121 -46q-62 0 -96.5 35.5t-34.5 96.5q0 16 3 36h95q-1 -7 -1 -18q0 -52 48 -52q28 0 46.5 19t23.5 51h98zM31 0l113 714h541l-21 -133h-372l-24 -156h326l-22 -133h-325l-25 -158h377l-21 -134h-547z" />
    <glyph glyph-name="ebreve" unicode="&#x115;" horiz-adv-x="593" 
d="M356 569q-62 0 -97 35t-35 96q0 12 4 36h95q-1 -7 -1 -17q0 -24 13 -38.5t36 -14.5q27 0 45.5 18.5t24.5 51.5h97q-12 -76 -61.5 -121.5t-120.5 -45.5zM541 167q-29 -84 -97.5 -131.5t-164.5 -47.5q-111 0 -178 61.5t-67 165.5q0 136 85 222.5t219 86.5q107 0 166 -57.5
t59 -157.5q0 -35 -12 -90h-358v-1q0 -53 24.5 -82.5t71.5 -29.5q68 0 98 61h154zM330 407q-44 0 -76 -26.5t-47 -72.5h203q1 7 1 18q0 36 -20.5 58.5t-60.5 22.5z" />
    <glyph glyph-name="Edotaccent" unicode="&#x116;" horiz-adv-x="665" 
d="M342 766l23 145h172l-23 -145h-172zM31 0l113 714h541l-21 -133h-372l-24 -156h326l-22 -133h-325l-25 -158h377l-21 -134h-547z" />
    <glyph glyph-name="edotaccent" unicode="&#x117;" horiz-adv-x="593" 
d="M268 583l23 145h173l-23 -145h-173zM541 167q-29 -84 -97.5 -131.5t-164.5 -47.5q-111 0 -178 61.5t-67 165.5q0 136 85 222.5t219 86.5q107 0 166 -57.5t59 -157.5q0 -35 -12 -90h-358v-1q0 -53 24.5 -82.5t71.5 -29.5q68 0 98 61h154zM330 407q-44 0 -76 -26.5
t-47 -72.5h203q1 7 1 18q0 36 -20.5 58.5t-60.5 22.5z" />
    <glyph glyph-name="Eogonek" unicode="&#x118;" horiz-adv-x="665" 
d="M516 -178q-36 -12 -74 -12q-39 0 -64.5 19.5t-25.5 53.5q0 50 67 117h-388l113 714h541l-21 -133h-372l-24 -156h326l-22 -133h-325l-25 -158h377l-21 -134h-71q-35 -37 -44.5 -51.5t-9.5 -29.5q0 -23 29 -23q19 0 47 6z" />
    <glyph glyph-name="eogonek" unicode="&#x119;" horiz-adv-x="593" 
d="M408 -178q-35 -12 -73 -12q-40 0 -65.5 19.5t-25.5 53.5q0 47 56 105h-21q-111 0 -178 61.5t-67 165.5q0 136 85 222.5t219 86.5q107 0 166 -57.5t59 -157.5q0 -35 -12 -90h-358v-1q0 -53 24.5 -82.5t71.5 -29.5q68 0 98 61h154q-31 -87 -120 -149q-75 -56 -75 -98
q0 -24 28 -24q19 0 47 6zM330 407q-44 0 -76 -26.5t-47 -72.5h203q1 7 1 18q0 36 -20.5 58.5t-60.5 22.5z" />
    <glyph glyph-name="Ecaron" unicode="&#x11a;" horiz-adv-x="665" 
d="M498 760h-143l-77 160h88l70 -69l94 69h97zM31 0l113 714h541l-21 -133h-372l-24 -156h326l-22 -133h-325l-25 -158h377l-21 -134h-547z" />
    <glyph glyph-name="ecaron" unicode="&#x11b;" horiz-adv-x="593" 
d="M419 574h-142l-60 162h89l55 -73l102 73h98zM541 167q-29 -84 -97.5 -131.5t-164.5 -47.5q-111 0 -178 61.5t-67 165.5q0 136 85 222.5t219 86.5q107 0 166 -57.5t59 -157.5q0 -35 -12 -90h-358v-1q0 -53 24.5 -82.5t71.5 -29.5q68 0 98 61h154zM330 407q-44 0 -76 -26.5
t-47 -72.5h203q1 7 1 18q0 36 -20.5 58.5t-60.5 22.5z" />
    <glyph glyph-name="Gcircumflex" unicode="&#x11c;" horiz-adv-x="778" 
d="M416 920h143l77 -160h-88l-70 69l-94 -69h-97zM341 -12q-129 0 -211 83t-82 221q0 182 111.5 308t288.5 126q135 0 209.5 -67.5t79.5 -179.5h-169q-2 51 -35.5 82.5t-91.5 31.5q-102 0 -159.5 -88.5t-57.5 -212.5q0 -78 38 -124.5t108 -46.5t115 33.5t56 95.5h-111
l19 122h286l-59 -372h-134l4 86q-26 -44 -82.5 -71t-122.5 -27z" />
    <glyph glyph-name="gcircumflex" unicode="&#x11d;" horiz-adv-x="652" 
d="M346 736h142l60 -162h-89l-55 73l-102 -73h-98zM381 35l12 74q-60 -92 -164 -92q-89 0 -140.5 59t-51.5 156q0 117 69.5 204.5t180.5 87.5q57 0 101.5 -26.5t57.5 -66.5l13 81h165l-72 -453q-20 -125 -99 -187t-206 -62q-109 0 -174.5 46t-71.5 122h165q9 -55 90 -55
q108 0 125 112zM420 261q5 34 5 47q0 46 -25 72t-67 26q-59 0 -94.5 -46.5t-35.5 -119.5q0 -50 23.5 -77.5t67.5 -27.5q50 0 83 33t43 93z" />
    <glyph glyph-name="Gbreve" unicode="&#x11e;" horiz-adv-x="778" 
d="M649 926q-12 -76 -61 -122t-121 -46q-62 0 -96.5 35.5t-34.5 96.5q0 16 3 36h95q-1 -7 -1 -18q0 -52 48 -52q28 0 46.5 19t23.5 51h98zM341 -12q-129 0 -211 83t-82 221q0 182 111.5 308t288.5 126q135 0 209.5 -67.5t79.5 -179.5h-169q-2 51 -35.5 82.5t-91.5 31.5
q-102 0 -159.5 -88.5t-57.5 -212.5q0 -78 38 -124.5t108 -46.5t115 33.5t56 95.5h-111l19 122h286l-59 -372h-134l4 86q-26 -44 -82.5 -71t-122.5 -27z" />
    <glyph glyph-name="gbreve" unicode="&#x11f;" horiz-adv-x="652" 
d="M383 569q-62 0 -97 35t-35 96q0 12 4 36h95q-1 -7 -1 -17q0 -24 13 -38.5t36 -14.5q27 0 45.5 18.5t24.5 51.5h97q-12 -76 -61.5 -121.5t-120.5 -45.5zM381 35l12 74q-60 -92 -164 -92q-89 0 -140.5 59t-51.5 156q0 117 69.5 204.5t180.5 87.5q57 0 101.5 -26.5
t57.5 -66.5l13 81h165l-72 -453q-20 -125 -99 -187t-206 -62q-109 0 -174.5 46t-71.5 122h165q9 -55 90 -55q108 0 125 112zM420 261q5 34 5 47q0 46 -25 72t-67 26q-59 0 -94.5 -46.5t-35.5 -119.5q0 -50 23.5 -77.5t67.5 -27.5q50 0 83 33t43 93z" />
    <glyph glyph-name="Gdotaccent" unicode="&#x120;" horiz-adv-x="778" 
d="M381 766l23 145h172l-23 -145h-172zM341 -12q-129 0 -211 83t-82 221q0 182 111.5 308t288.5 126q135 0 209.5 -67.5t79.5 -179.5h-169q-2 51 -35.5 82.5t-91.5 31.5q-102 0 -159.5 -88.5t-57.5 -212.5q0 -78 38 -124.5t108 -46.5t115 33.5t56 95.5h-111l19 122h286
l-59 -372h-134l4 86q-26 -44 -82.5 -71t-122.5 -27z" />
    <glyph glyph-name="gdotaccent" unicode="&#x121;" horiz-adv-x="652" 
d="M293 583l23 145h173l-23 -145h-173zM381 35l12 74q-60 -92 -164 -92q-89 0 -140.5 59t-51.5 156q0 117 69.5 204.5t180.5 87.5q57 0 101.5 -26.5t57.5 -66.5l13 81h165l-72 -453q-20 -125 -99 -187t-206 -62q-109 0 -174.5 46t-71.5 122h165q9 -55 90 -55q108 0 125 112z
M420 261q5 34 5 47q0 46 -25 72t-67 26q-59 0 -94.5 -46.5t-35.5 -119.5q0 -50 23.5 -77.5t67.5 -27.5q50 0 83 33t43 93z" />
    <glyph glyph-name="uni0122" unicode="&#x122;" horiz-adv-x="778" 
d="M341 -12q-129 0 -211 83t-82 221q0 182 111.5 308t288.5 126q135 0 209.5 -67.5t79.5 -179.5h-169q-2 51 -35.5 82.5t-91.5 31.5q-102 0 -159.5 -88.5t-57.5 -212.5q0 -78 38 -124.5t108 -46.5t115 33.5t56 95.5h-111l19 122h286l-59 -372h-134l4 86q-26 -44 -82.5 -71
t-122.5 -27zM252 -138l14 93h153l-9 -62q-11 -71 -53 -102t-122 -31l9 55q57 0 63 47h-55z" />
    <glyph glyph-name="uni0123" unicode="&#x123;" horiz-adv-x="652" 
d="M473 669l-14 -93h-153l9 62q11 71 53 102t122 31l-9 -55q-57 0 -63 -47h55zM381 35l12 74q-60 -92 -164 -92q-89 0 -140.5 59t-51.5 156q0 117 69.5 204.5t180.5 87.5q57 0 101.5 -26.5t57.5 -66.5l13 81h165l-72 -453q-20 -125 -99 -187t-206 -62q-109 0 -174.5 46
t-71.5 122h165q9 -55 90 -55q108 0 125 112zM420 261q5 34 5 47q0 46 -25 72t-67 26q-59 0 -94.5 -46.5t-35.5 -119.5q0 -50 23.5 -77.5t67.5 -27.5q50 0 83 33t43 93z" />
    <glyph glyph-name="Hcircumflex" unicode="&#x124;" horiz-adv-x="808" 
d="M428 920h143l77 -160h-88l-70 69l-94 -69h-97zM31 0l113 714h173l-45 -286h321l45 286h173l-113 -714h-173l47 296h-321l-47 -296h-173z" />
    <glyph glyph-name="hcircumflex" unicode="&#x125;" horiz-adv-x="645" 
d="M328 935h143l77 -160h-88l-70 69l-94 -69h-97zM314 736l-49 -303q26 41 69.5 66t96.5 25q77 0 121.5 -42.5t44.5 -116.5q0 -14 -4 -42l-51 -323h-168l46 288q2 18 2 32q0 75 -72 75q-90 0 -110 -120l-43 -275h-168l117 736h168z" />
    <glyph glyph-name="Hbar" unicode="&#x126;" horiz-adv-x="859" 
d="M264 218l-34 -218h-173l73 461h-67l20 127h67l20 126h173l-20 -126h320l20 126h173l-20 -126h66l-20 -127h-66l-73 -461h-173l35 218h-321zM285 351h321l17 110h-320z" />
    <glyph glyph-name="hbar" unicode="&#x127;" 
d="M255 275l-43 -275h-168l90 569h-66l15 94h66l12 73h168l-12 -73h108l-14 -94h-109l-22 -136q26 41 69.5 66t96.5 25q77 0 121.5 -42.5t44.5 -116.5q0 -14 -4 -42l-51 -323h-168l46 288q2 18 2 32q0 75 -72 75q-90 0 -110 -120z" />
    <glyph glyph-name="Itilde" unicode="&#x128;" horiz-adv-x="315" 
d="M190 823q-35 0 -46 -56h-91q11 76 47 122.5t83 46.5q33 0 76 -29t59 -29q15 0 27.5 14.5t18.5 41.5h91q-12 -77 -48 -123.5t-83 -46.5q-33 0 -75.5 29.5t-58.5 29.5zM144 714h173l-113 -714h-173z" />
    <glyph glyph-name="itilde" unicode="&#x129;" horiz-adv-x="306" 
d="M167 624q-32 0 -43 -57h-88q12 77 46 123t81 46q25 0 43 -15t31.5 -29.5t27.5 -14.5q33 0 44 57h88q-12 -77 -46 -123.5t-81 -46.5q-25 0 -43 15t-31.5 30t-28.5 15zM110 512h168l-81 -512h-168z" />
    <glyph glyph-name="Imacron" unicode="&#x12a;" horiz-adv-x="315" 
d="M60 774l17 105h355l-16 -105h-356zM144 714h173l-113 -714h-173z" />
    <glyph glyph-name="imacron" unicode="&#x12b;" horiz-adv-x="306" 
d="M63 583l16 105h285l-16 -105h-285zM110 512h168l-81 -512h-168z" />
    <glyph glyph-name="Ibreve" unicode="&#x12c;" horiz-adv-x="315" 
d="M419 926q-12 -76 -61 -122t-121 -46q-62 0 -96.5 35.5t-34.5 96.5q0 16 3 36h95q-1 -7 -1 -18q0 -52 48 -52q28 0 46.5 19t23.5 51h98zM144 714h173l-113 -714h-173z" />
    <glyph glyph-name="ibreve" unicode="&#x12d;" horiz-adv-x="306" 
d="M202 569q-62 0 -97 35t-35 96q0 12 4 36h95q-1 -7 -1 -17q0 -24 13 -38.5t36 -14.5q27 0 45.5 18.5t24.5 51.5h97q-12 -76 -61.5 -121.5t-120.5 -45.5zM110 512h168l-81 -512h-168z" />
    <glyph glyph-name="Iogonek" unicode="&#x12e;" horiz-adv-x="315" 
d="M175 -178q-35 -12 -74 -12t-64.5 19.5t-25.5 53.5q0 49 68 117h-48l113 714h173l-113 -714q-43 -16 -67 -37.5t-24 -43.5q0 -23 28 -23q19 0 47 6z" />
    <glyph glyph-name="iogonek" unicode="&#x12f;" horiz-adv-x="306" 
d="M118 583l23 145h173l-23 -145h-173zM72 0h-43l81 512h168l-81 -512q-43 -16 -67 -37.5t-24 -43.5q0 -23 28 -23q19 0 47 6l-13 -80q-35 -12 -74 -12t-64.5 19.5t-25.5 53.5q0 49 68 117z" />
    <glyph glyph-name="Idotaccent" unicode="&#x130;" horiz-adv-x="315" 
d="M153 766l23 145h172l-23 -145h-172zM144 714h173l-113 -714h-173z" />
    <glyph glyph-name="dotlessi" unicode="&#x131;" horiz-adv-x="306" 
d="M110 512h168l-81 -512h-168z" />
    <glyph glyph-name="Jcircumflex" unicode="&#x134;" horiz-adv-x="637" 
d="M514 920h143l77 -160h-88l-70 69l-94 -69h-97zM401 255l73 459h173l-72 -453q-20 -127 -101.5 -200t-214.5 -73q-120 0 -188 67.5t-58 179.5h162q-3 -122 98 -122q56 0 86.5 35t41.5 107z" />
    <glyph glyph-name="jcircumflex" unicode="&#x135;" horiz-adv-x="306" 
d="M172 736h142l60 -162h-89l-55 73l-102 -73h-98zM-8 -185q-46 0 -82 9l19 119q17 -4 37 -4q29 0 43 12.5t19 43.5l82 517h168l-83 -525q-27 -172 -203 -172z" />
    <glyph glyph-name="uni0136" unicode="&#x136;" horiz-adv-x="757" 
d="M521 0l-180 286l-107 -99l-30 -187h-173l113 714h173l-52 -327l338 327h200l-336 -311l250 -403h-196zM248 -138l14 93h153l-9 -62q-11 -71 -53 -102t-122 -31l9 55q57 0 63 47h-55z" />
    <glyph glyph-name="uni0137" unicode="&#x137;" horiz-adv-x="629" 
d="M400 0l-112 202l-68 -58l-23 -144h-168l117 736h168l-67 -421l219 197h188l-240 -210l168 -302h-182zM191 -138l14 93h153l-9 -62q-11 -71 -53 -102t-122 -31l9 55q57 0 63 47h-55z" />
    <glyph glyph-name="kgreenlandic" unicode="&#x138;" horiz-adv-x="629" 
d="M400 0l-112 202l-68 -58l-23 -144h-168l81 512h168l-31 -197l219 197h188l-240 -210l168 -302h-182z" />
    <glyph glyph-name="Lacute" unicode="&#x139;" horiz-adv-x="645" 
d="M185 761l76 159h192l-158 -159h-110zM31 0l113 714h173l-92 -580h356l-21 -134h-529z" />
    <glyph glyph-name="lacute" unicode="&#x13a;" horiz-adv-x="306" 
d="M180 776l76 159h192l-158 -159h-110zM197 0h-168l117 736h168z" />
    <glyph glyph-name="uni013B" unicode="&#x13b;" horiz-adv-x="645" 
d="M31 0l113 714h173l-92 -580h356l-21 -134h-529zM208 -138l14 93h153l-9 -62q-11 -71 -53 -102t-122 -31l9 55q57 0 63 47h-55z" />
    <glyph glyph-name="uni013C" unicode="&#x13c;" horiz-adv-x="306" 
d="M197 0h-168l117 736h168zM13 -138l14 93h153l-9 -62q-11 -71 -53 -102t-122 -31l9 55q57 0 63 47h-55z" />
    <glyph glyph-name="Lcaron" unicode="&#x13d;" horiz-adv-x="645" 
d="M31 0l113 714h173l-92 -580h356l-21 -134h-529zM469 515h-80l54 199h169z" />
    <glyph glyph-name="lcaron" unicode="&#x13e;" horiz-adv-x="328" 
d="M197 0h-168l117 736h168zM435 537h-80l54 199h169z" />
    <glyph glyph-name="Ldot" unicode="&#x13f;" horiz-adv-x="645" 
d="M31 0l113 714h173l-92 -580h356l-21 -134h-529zM390 309l23 145h173l-23 -145h-173z" />
    <glyph glyph-name="ldot" unicode="&#x140;" horiz-adv-x="509" 
d="M197 0h-168l117 736h168zM322 279l23 145h173l-23 -145h-173z" />
    <glyph glyph-name="Lslash" unicode="&#x141;" horiz-adv-x="673" 
d="M609 134l-21 -134h-529l42 268l-72 -24l24 131l69 23l50 316h173l-42 -264l152 50l-20 -130l-152 -50l-30 -186h356z" />
    <glyph glyph-name="lslash" unicode="&#x142;" horiz-adv-x="363" 
d="M373 407l-90 -34l-59 -373h-168l50 316l-86 -31l19 117l86 32l48 302h168l-39 -245l89 33z" />
    <glyph glyph-name="Nacute" unicode="&#x143;" horiz-adv-x="797" 
d="M405 761l76 159h192l-158 -159h-110zM337 714l224 -454h2l72 454h164l-113 -714h-154l-254 508h-2l-80 -508h-165l113 714h193z" />
    <glyph glyph-name="nacute" unicode="&#x144;" horiz-adv-x="645" 
d="M307 575l76 161h183l-149 -161h-110zM276 512l-13 -79q26 41 70.5 66t97.5 25q77 0 121.5 -42.5t44.5 -116.5q0 -14 -4 -42l-51 -323h-168l46 288q2 18 2 32q0 75 -72 75q-90 0 -110 -120l-43 -275h-168l81 512h166z" />
    <glyph glyph-name="uni0145" unicode="&#x145;" horiz-adv-x="797" 
d="M337 714l224 -454h2l72 454h164l-113 -714h-154l-254 508h-2l-80 -508h-165l113 714h193zM273 -138l14 93h153l-9 -62q-11 -71 -53 -102t-122 -31l9 55q57 0 63 47h-55z" />
    <glyph glyph-name="uni0146" unicode="&#x146;" horiz-adv-x="645" 
d="M276 512l-13 -79q26 41 70.5 66t97.5 25q77 0 121.5 -42.5t44.5 -116.5q0 -14 -4 -42l-51 -323h-168l46 288q2 18 2 32q0 75 -72 75q-90 0 -110 -120l-43 -275h-168l81 512h166zM186 -138l14 93h153l-9 -62q-11 -71 -53 -102t-122 -31l9 55q57 0 63 47h-55z" />
    <glyph glyph-name="Ncaron" unicode="&#x147;" horiz-adv-x="797" 
d="M547 760h-143l-77 160h88l70 -69l94 69h97zM337 714l224 -454h2l72 454h164l-113 -714h-154l-254 508h-2l-80 -508h-165l113 714h193z" />
    <glyph glyph-name="ncaron" unicode="&#x148;" horiz-adv-x="645" 
d="M438 574h-142l-60 162h89l55 -73l102 73h98zM276 512l-13 -79q26 41 70.5 66t97.5 25q77 0 121.5 -42.5t44.5 -116.5q0 -14 -4 -42l-51 -323h-168l46 288q2 18 2 32q0 75 -72 75q-90 0 -110 -120l-43 -275h-168l81 512h166z" />
    <glyph glyph-name="Eng" unicode="&#x14a;" horiz-adv-x="797" 
d="M481 -185q-45 0 -81 9l19 119q16 -4 36 -4q58 0 66 56l5 27l-248 486h-2l-80 -508h-165l113 714h193l224 -454h2l72 454h164l-115 -727q-26 -172 -203 -172z" />
    <glyph glyph-name="eng" unicode="&#x14b;" horiz-adv-x="645" 
d="M337 -185q-47 0 -81 9l19 119q16 -4 36 -4q29 0 43 12.5t19 43.5l47 293q2 18 2 32q0 75 -72 75q-90 0 -110 -120l-43 -275h-168l81 512h166l-13 -79q26 41 70.5 66t97.5 25q77 0 121.5 -42.5t44.5 -116.5q0 -14 -4 -42l-53 -336q-26 -172 -203 -172z" />
    <glyph glyph-name="Omacron" unicode="&#x14c;" horiz-adv-x="776" 
d="M303 774l17 105h355l-16 -105h-356zM447 726q147 0 231 -84t84 -224q0 -114 -48 -211.5t-140.5 -158t-210.5 -60.5q-147 0 -231 84.5t-84 223.5q0 85 28.5 163t79.5 137.5t126.5 94.5t164.5 35zM439 593q-69 0 -119 -44t-73 -110.5t-23 -146.5t38 -125.5t109 -45.5
q68 0 118 44t73 111t23 146q0 81 -37.5 126t-108.5 45z" />
    <glyph glyph-name="omacron" unicode="&#x14d;" horiz-adv-x="616" 
d="M199 583l17 105h325l-17 -105h-325zM279 -12q-110 0 -177.5 61.5t-67.5 166.5q0 135 84.5 221.5t219.5 86.5q110 0 177 -61.5t67 -165.5q0 -135 -84 -222t-219 -87zM289 108q60 0 92.5 57t32.5 138q0 49 -22.5 75t-64.5 26q-60 0 -92.5 -57t-32.5 -137q0 -49 23 -75.5
t64 -26.5z" />
    <glyph glyph-name="Obreve" unicode="&#x14e;" horiz-adv-x="776" 
d="M661 926q-12 -76 -61 -122t-121 -46q-62 0 -96.5 35.5t-34.5 96.5q0 16 3 36h95q-1 -7 -1 -18q0 -52 48 -52q28 0 46.5 19t23.5 51h98zM447 726q147 0 231 -84t84 -224q0 -114 -48 -211.5t-140.5 -158t-210.5 -60.5q-147 0 -231 84.5t-84 223.5q0 85 28.5 163t79.5 137.5
t126.5 94.5t164.5 35zM439 593q-69 0 -119 -44t-73 -110.5t-23 -146.5t38 -125.5t109 -45.5q68 0 118 44t73 111t23 146q0 81 -37.5 126t-108.5 45z" />
    <glyph glyph-name="obreve" unicode="&#x14f;" horiz-adv-x="616" 
d="M367 569q-62 0 -97 35t-35 96q0 12 4 36h95q-1 -7 -1 -17q0 -24 13 -38.5t36 -14.5q27 0 45.5 18.5t24.5 51.5h97q-12 -76 -61.5 -121.5t-120.5 -45.5zM279 -12q-110 0 -177.5 61.5t-67.5 166.5q0 135 84.5 221.5t219.5 86.5q110 0 177 -61.5t67 -165.5q0 -135 -84 -222
t-219 -87zM289 108q60 0 92.5 57t32.5 138q0 49 -22.5 75t-64.5 26q-60 0 -92.5 -57t-32.5 -137q0 -49 23 -75.5t64 -26.5z" />
    <glyph glyph-name="Ohungarumlaut" unicode="&#x150;" horiz-adv-x="776" 
d="M511 761l77 159h159l-140 -159h-96zM313 761l77 159h159l-141 -159h-95zM447 726q147 0 231 -84t84 -224q0 -114 -48 -211.5t-140.5 -158t-210.5 -60.5q-147 0 -231 84.5t-84 223.5q0 85 28.5 163t79.5 137.5t126.5 94.5t164.5 35zM439 593q-69 0 -119 -44t-73 -110.5
t-23 -146.5t38 -125.5t109 -45.5q68 0 118 44t73 111t23 146q0 81 -37.5 126t-108.5 45z" />
    <glyph glyph-name="ohungarumlaut" unicode="&#x151;" horiz-adv-x="615" 
d="M391 575l78 161h158l-140 -161h-96zM192 575l78 161h158l-140 -161h-96zM279 -12q-110 0 -177.5 61.5t-67.5 166.5q0 135 84.5 221.5t219.5 86.5q110 0 177 -61.5t67 -165.5q0 -135 -84 -222t-219 -87zM289 108q60 0 92.5 57t32.5 138q0 49 -22.5 75t-64.5 26
q-60 0 -92.5 -57t-32.5 -137q0 -49 23 -75.5t64 -26.5z" />
    <glyph glyph-name="OE" unicode="&#x152;" horiz-adv-x="1121" 
d="M367 0q-153 0 -235.5 81t-82.5 219q0 183 115.5 298.5t303.5 115.5h672l-21 -133h-371l-25 -156h326l-21 -133h-326l-25 -158h377l-21 -134h-666zM393 134h111l71 447h-121q-104 0 -167 -75t-63 -203q0 -85 41 -127t128 -42z" />
    <glyph glyph-name="oe" unicode="&#x153;" horiz-adv-x="964" 
d="M913 168q-29 -85 -97 -132.5t-165 -47.5q-111 0 -178 87q-37 -38 -88 -62.5t-106 -24.5q-110 0 -177.5 61.5t-67.5 166.5q0 135 84.5 221.5t219.5 86.5q110 0 175 -87q91 87 198 87t165.5 -57.5t58.5 -156.5q0 -39 -11 -89h-359v-3q0 -53 24.5 -82t71.5 -29q69 0 98 61
h154zM702 408q-44 0 -76.5 -28t-47.5 -76h204q2 7 2 18q0 38 -21 62t-61 24zM289 108q60 0 92.5 57t32.5 138q0 49 -22.5 75t-64.5 26q-60 0 -92.5 -57t-32.5 -137q0 -49 23 -75.5t64 -26.5z" />
    <glyph glyph-name="Racute" unicode="&#x154;" horiz-adv-x="725" 
d="M348 761l76 159h192l-158 -159h-110zM201 0h-170l113 714h333q116 0 178.5 -53.5t62.5 -149.5q0 -88 -50.5 -150t-126.5 -88l119 -273h-180l-105 247h-135zM261 380h140q147 0 147 116q0 85 -115 85h-140z" />
    <glyph glyph-name="racute" unicode="&#x155;" horiz-adv-x="447" 
d="M234 575l76 161h183l-149 -161h-110zM465 515l-24 -154q-24 4 -54 4q-59 0 -101 -36t-54 -105l-35 -224h-168l81 512h166l-18 -109q28 56 72.5 86.5t99.5 30.5q26 0 35 -5z" />
    <glyph glyph-name="uni0156" unicode="&#x156;" horiz-adv-x="725" 
d="M201 0h-170l113 714h333q116 0 178.5 -53.5t62.5 -149.5q0 -88 -50.5 -150t-126.5 -88l119 -273h-180l-105 247h-135zM261 380h140q147 0 147 116q0 85 -115 85h-140zM235 -138l14 93h153l-9 -62q-11 -71 -53 -102t-122 -31l9 55q57 0 63 47h-55z" />
    <glyph glyph-name="uni0157" unicode="&#x157;" horiz-adv-x="447" 
d="M465 515l-24 -154q-24 4 -54 4q-59 0 -101 -36t-54 -105l-35 -224h-168l81 512h166l-18 -109q28 56 72.5 86.5t99.5 30.5q26 0 35 -5zM15 -138l14 93h153l-9 -62q-11 -71 -53 -102t-122 -31l9 55q57 0 63 47h-55z" />
    <glyph glyph-name="Rcaron" unicode="&#x158;" horiz-adv-x="725" 
d="M493 760h-143l-77 160h88l70 -69l94 69h97zM201 0h-170l113 714h333q116 0 178.5 -53.5t62.5 -149.5q0 -88 -50.5 -150t-126.5 -88l119 -273h-180l-105 247h-135zM261 380h140q147 0 147 116q0 85 -115 85h-140z" />
    <glyph glyph-name="rcaron" unicode="&#x159;" horiz-adv-x="447" 
d="M365 574h-142l-60 162h89l55 -73l102 73h98zM465 515l-24 -154q-24 4 -54 4q-59 0 -101 -36t-54 -105l-35 -224h-168l81 512h166l-18 -109q28 56 72.5 86.5t99.5 30.5q26 0 35 -5z" />
    <glyph glyph-name="Sacute" unicode="&#x15a;" horiz-adv-x="674" 
d="M347 761l76 159h192l-158 -159h-110zM14 220h167q3 -55 44.5 -81.5t101.5 -26.5q64 0 102.5 26.5t38.5 70.5q0 27 -22 42t-74 27l-124 27q-74 16 -119.5 60t-45.5 115q0 111 86.5 178.5t218.5 67.5q135 0 207.5 -59t74.5 -160h-160q-2 44 -37 69.5t-94 25.5t-93.5 -26
t-34.5 -67q0 -29 21.5 -44t70.5 -26l131 -29q163 -36 163 -169q0 -112 -90 -182.5t-226 -70.5q-139 0 -222.5 60.5t-84.5 171.5z" />
    <glyph glyph-name="sacute" unicode="&#x15b;" horiz-adv-x="546" 
d="M261 575l76 161h183l-149 -161h-110zM10 159h156q1 -31 27 -46.5t62 -15.5q37 0 59 13t22 37q0 16 -14 24.5t-48 16.5l-89 19q-126 29 -126 130q0 83 67.5 135t173.5 52q105 0 161.5 -45t60.5 -120h-149q-6 57 -83 57q-33 0 -52 -12.5t-19 -35.5q0 -16 13.5 -25t46.5 -16
l94 -21q122 -27 122 -131q0 -87 -69 -137t-175 -50q-108 0 -174 44t-67 127z" />
    <glyph glyph-name="Scircumflex" unicode="&#x15c;" horiz-adv-x="674" 
d="M371 920h143l77 -160h-88l-70 69l-94 -69h-97zM14 220h167q3 -55 44.5 -81.5t101.5 -26.5q64 0 102.5 26.5t38.5 70.5q0 27 -22 42t-74 27l-124 27q-74 16 -119.5 60t-45.5 115q0 111 86.5 178.5t218.5 67.5q135 0 207.5 -59t74.5 -160h-160q-2 44 -37 69.5t-94 25.5
t-93.5 -26t-34.5 -67q0 -29 21.5 -44t70.5 -26l131 -29q163 -36 163 -169q0 -112 -90 -182.5t-226 -70.5q-139 0 -222.5 60.5t-84.5 171.5z" />
    <glyph glyph-name="scircumflex" unicode="&#x15d;" horiz-adv-x="546" 
d="M296 736h142l60 -162h-89l-55 73l-102 -73h-98zM10 159h156q1 -31 27 -46.5t62 -15.5q37 0 59 13t22 37q0 16 -14 24.5t-48 16.5l-89 19q-126 29 -126 130q0 83 67.5 135t173.5 52q105 0 161.5 -45t60.5 -120h-149q-6 57 -83 57q-33 0 -52 -12.5t-19 -35.5
q0 -16 13.5 -25t46.5 -16l94 -21q122 -27 122 -131q0 -87 -69 -137t-175 -50q-108 0 -174 44t-67 127z" />
    <glyph glyph-name="uni015E" unicode="&#x15e;" horiz-adv-x="674" 
d="M404 -102q0 -48 -44 -76t-103 -28q-57 0 -95 18l11 67q52 -21 90 -21q23 0 37.5 8.5t14.5 22.5q0 25 -41 25q-14 0 -34 -6l-22 24l46 59q-115 12 -182 71t-68 158h167q3 -55 44.5 -81.5t101.5 -26.5q64 0 102.5 26.5t38.5 70.5q0 27 -22 42t-74 27l-124 27
q-74 16 -119.5 60t-45.5 115q0 111 86.5 178.5t218.5 67.5q135 0 207.5 -59t74.5 -160h-160q-2 44 -37 69.5t-94 25.5t-93.5 -26t-34.5 -67q0 -29 21.5 -44t70.5 -26l131 -29q163 -36 163 -169q0 -112 -90 -182.5t-225 -70.5l-21 -26q3 0 5.5 0.5t4 1t3.5 0.5h4q36 0 61 -17
t25 -49z" />
    <glyph glyph-name="uni015F" unicode="&#x15f;" horiz-adv-x="546" 
d="M324 -102q0 -48 -44 -76t-103 -28q-57 0 -95 18l11 67q52 -21 90 -21q23 0 37.5 8.5t14.5 22.5q0 25 -41 25q-14 0 -34 -6l-22 24l47 61q-80 12 -127 54t-48 112h156q1 -31 27 -46.5t62 -15.5q37 0 59 13t22 37q0 16 -14 24.5t-48 16.5l-89 19q-126 29 -126 130
q0 83 67.5 135t173.5 52q105 0 161.5 -45t60.5 -120h-149q-6 57 -83 57q-33 0 -52 -12.5t-19 -35.5q0 -16 13.5 -25t46.5 -16l94 -21q122 -27 122 -131q0 -87 -69 -137t-175 -50h-9l-21 -26q3 0 5.5 0.5t4 1t3.5 0.5h4q36 0 61 -17t25 -49z" />
    <glyph glyph-name="Scaron" unicode="&#x160;" horiz-adv-x="674" 
d="M480 760h-143l-77 160h88l70 -69l94 69h97zM14 220h167q3 -55 44.5 -81.5t101.5 -26.5q64 0 102.5 26.5t38.5 70.5q0 27 -22 42t-74 27l-124 27q-74 16 -119.5 60t-45.5 115q0 111 86.5 178.5t218.5 67.5q135 0 207.5 -59t74.5 -160h-160q-2 44 -37 69.5t-94 25.5
t-93.5 -26t-34.5 -67q0 -29 21.5 -44t70.5 -26l131 -29q163 -36 163 -169q0 -112 -90 -182.5t-226 -70.5q-139 0 -222.5 60.5t-84.5 171.5z" />
    <glyph glyph-name="scaron" unicode="&#x161;" horiz-adv-x="546" 
d="M393 574h-142l-60 162h89l55 -73l102 73h98zM10 159h156q1 -31 27 -46.5t62 -15.5q37 0 59 13t22 37q0 16 -14 24.5t-48 16.5l-89 19q-126 29 -126 130q0 83 67.5 135t173.5 52q105 0 161.5 -45t60.5 -120h-149q-6 57 -83 57q-33 0 -52 -12.5t-19 -35.5q0 -16 13.5 -25
t46.5 -16l94 -21q122 -27 122 -131q0 -87 -69 -137t-175 -50q-108 0 -174 44t-67 127z" />
    <glyph glyph-name="Tcommaaccent" unicode="&#x162;" horiz-adv-x="739" 
d="M430 -102q0 -48 -44 -76t-103 -28q-57 0 -95 18l11 67q52 -21 90 -21q23 0 37.5 8.5t14.5 22.5q0 25 -41 25q-14 0 -34 -6l-22 24l53 68h-54l92 581h-247l21 133h667l-20 -133h-248l-92 -581h-59l-30 -38q3 0 5.5 0.5t4 1t3.5 0.5h4q36 0 61 -17t25 -49z" />
    <glyph glyph-name="tcommaaccent" unicode="&#x163;" horiz-adv-x="402" 
d="M275 -102q0 -48 -44 -76t-103 -28q-57 0 -95 18l11 67q52 -21 90 -21q23 0 37.5 8.5t14.5 22.5q0 25 -41 25q-14 0 -34 -6l-22 24l54 69q-81 24 -81 110q0 17 3 36l38 248h-65l19 117h69l21 127h160l-20 -127h113l-19 -117h-113l-35 -207q-3 -15 -3 -25q0 -22 12.5 -31
t39.5 -9q30 0 62 7l-19 -122q-63 -16 -113 -16h-16l-24 -30q3 0 5.5 0.5t4 1t3.5 0.5h4q35 0 60.5 -17t25.5 -49z" />
    <glyph glyph-name="Tcaron" unicode="&#x164;" horiz-adv-x="739" 
d="M518 760h-143l-77 160h88l70 -69l94 69h97zM243 0l92 581h-247l21 133h667l-20 -133h-248l-92 -581h-173z" />
    <glyph glyph-name="tcaron" unicode="&#x165;" horiz-adv-x="402" 
d="M427 562h-80l54 199h169zM344 130l-19 -122q-63 -16 -113 -16q-70 0 -110 29.5t-40 89.5q0 17 3 36l38 248h-65l19 117h69l21 127h160l-20 -127h113l-19 -117h-113l-35 -207q-3 -15 -3 -25q0 -22 12.5 -31t39.5 -9q30 0 62 7z" />
    <glyph glyph-name="Tbar" unicode="&#x166;" horiz-adv-x="742" 
d="M567 299h-104l-47 -299h-173l47 299h-104l21 126h103l25 156h-247l21 133h667l-20 -133h-248l-25 -156h104z" />
    <glyph glyph-name="tbar" unicode="&#x167;" horiz-adv-x="434" 
d="M343 8q-63 -16 -114 -16q-70 0 -110 29.5t-40 89.5q0 17 3 36l13 83h-66l17 105h65l11 69h-65l18 108h69l21 127h160l-20 -127h112l-17 -108h-116l-11 -69h119l-17 -105h-118l-7 -42q-3 -15 -3 -25q0 -22 12.5 -31t39.5 -9q31 0 63 7z" />
    <glyph glyph-name="Utilde" unicode="&#x168;" horiz-adv-x="764" 
d="M408 823q-35 0 -46 -56h-91q11 76 47 122.5t83 46.5q33 0 76 -29t59 -29q15 0 27.5 14.5t18.5 41.5h91q-12 -77 -48 -123.5t-83 -46.5q-33 0 -75.5 29.5t-58.5 29.5zM706 287q-23 -146 -116.5 -222.5t-245.5 -76.5q-133 0 -206.5 62t-73.5 175q0 26 5 63l67 426h173
l-66 -420q-4 -24 -4 -50q0 -121 122 -121q145 0 173 171l66 420h173z" />
    <glyph glyph-name="utilde" unicode="&#x169;" horiz-adv-x="638" 
d="M305 624q-33 0 -46 -57h-91q13 77 48.5 123t82.5 46q33 0 75 -29.5t59 -29.5q34 0 47 57h90q-12 -77 -48 -123.5t-83 -46.5q-33 0 -75 30t-59 30zM363 0l12 79q-26 -41 -69 -66t-96 -25q-76 0 -118 42.5t-42 116.5q0 23 3 45l51 320h168l-46 -290q-3 -18 -3 -32
q0 -72 68 -72q40 0 68.5 29.5t37.5 90.5l44 274h167l-81 -512h-164z" />
    <glyph glyph-name="Umacron" unicode="&#x16a;" horiz-adv-x="764" 
d="M288 774l17 105h355l-16 -105h-356zM706 287q-23 -146 -116.5 -222.5t-245.5 -76.5q-133 0 -206.5 62t-73.5 175q0 26 5 63l67 426h173l-66 -420q-4 -24 -4 -50q0 -121 122 -121q145 0 173 171l66 420h173z" />
    <glyph glyph-name="umacron" unicode="&#x16b;" horiz-adv-x="638" 
d="M203 583l17 105h325l-17 -105h-325zM363 0l12 79q-26 -41 -69 -66t-96 -25q-76 0 -118 42.5t-42 116.5q0 23 3 45l51 320h168l-46 -290q-3 -18 -3 -32q0 -72 68 -72q40 0 68.5 29.5t37.5 90.5l44 274h167l-81 -512h-164z" />
    <glyph glyph-name="Ubreve" unicode="&#x16c;" horiz-adv-x="764" 
d="M647 926q-12 -76 -61 -122t-121 -46q-62 0 -96.5 35.5t-34.5 96.5q0 16 3 36h95q-1 -7 -1 -18q0 -52 48 -52q28 0 46.5 19t23.5 51h98zM706 287q-23 -146 -116.5 -222.5t-245.5 -76.5q-133 0 -206.5 62t-73.5 175q0 26 5 63l67 426h173l-66 -420q-4 -24 -4 -50
q0 -121 122 -121q145 0 173 171l66 420h173z" />
    <glyph glyph-name="ubreve" unicode="&#x16d;" horiz-adv-x="638" 
d="M372 569q-62 0 -97 35t-35 96q0 12 4 36h95q-1 -7 -1 -17q0 -24 13 -38.5t36 -14.5q27 0 45.5 18.5t24.5 51.5h97q-12 -76 -61.5 -121.5t-120.5 -45.5zM363 0l12 79q-26 -41 -69 -66t-96 -25q-76 0 -118 42.5t-42 116.5q0 23 3 45l51 320h168l-46 -290q-3 -18 -3 -32
q0 -72 68 -72q40 0 68.5 29.5t37.5 90.5l44 274h167l-81 -512h-164z" />
    <glyph glyph-name="Uring" unicode="&#x16e;" horiz-adv-x="764" 
d="M455 713q-52 0 -86 35t-34 86q0 61 43.5 105t108.5 44q52 0 85.5 -35.5t33.5 -85.5q0 -62 -43.5 -105.5t-107.5 -43.5zM478 908q-28 0 -47.5 -19t-19.5 -48q0 -23 15.5 -38t36.5 -15q28 0 47.5 19t19.5 47q0 24 -15 39t-37 15zM706 287q-23 -146 -116.5 -222.5
t-245.5 -76.5q-133 0 -206.5 62t-73.5 175q0 26 5 63l67 426h173l-66 -420q-4 -24 -4 -50q0 -121 122 -121q145 0 173 171l66 420h173z" />
    <glyph glyph-name="uring" unicode="&#x16f;" horiz-adv-x="638" 
d="M398 801q47 0 77 -31t30 -77q0 -54 -38.5 -93t-96.5 -39q-46 0 -76.5 31t-30.5 76q0 55 38.5 94t96.5 39zM378 629q25 0 42 16.5t17 41.5q0 20 -13.5 33t-33.5 13q-25 0 -41.5 -16t-16.5 -41q0 -20 13.5 -33.5t32.5 -13.5zM363 0l12 79q-26 -41 -69 -66t-96 -25
q-76 0 -118 42.5t-42 116.5q0 23 3 45l51 320h168l-46 -290q-3 -18 -3 -32q0 -72 68 -72q40 0 68.5 29.5t37.5 90.5l44 274h167l-81 -512h-164z" />
    <glyph glyph-name="Uhungarumlaut" unicode="&#x170;" horiz-adv-x="764" 
d="M505 761l77 159h159l-140 -159h-96zM307 761l77 159h159l-141 -159h-95zM706 287q-23 -146 -116.5 -222.5t-245.5 -76.5q-133 0 -206.5 62t-73.5 175q0 26 5 63l67 426h173l-66 -420q-4 -24 -4 -50q0 -121 122 -121q145 0 173 171l66 420h173z" />
    <glyph glyph-name="uhungarumlaut" unicode="&#x171;" horiz-adv-x="638" 
d="M403 575l78 161h158l-140 -161h-96zM204 575l78 161h158l-140 -161h-96zM363 0l12 79q-26 -41 -69 -66t-96 -25q-76 0 -118 42.5t-42 116.5q0 23 3 45l51 320h168l-46 -290q-3 -18 -3 -32q0 -72 68 -72q40 0 68.5 29.5t37.5 90.5l44 274h167l-81 -512h-164z" />
    <glyph glyph-name="Uogonek" unicode="&#x172;" horiz-adv-x="764" 
d="M507 -178q-36 -12 -74 -12q-39 0 -64.5 19.5t-25.5 53.5q0 51 57 108q-27 -3 -56 -3q-133 0 -206.5 62t-73.5 175q0 26 5 63l67 426h173l-66 -420q-4 -24 -4 -50q0 -121 122 -121q145 0 173 171l66 420h173l-67 -427q-31 -198 -190 -267q-72 -54 -72 -99q0 -11 8 -18
t21 -7q19 0 47 6z" />
    <glyph glyph-name="uogonek" unicode="&#x173;" horiz-adv-x="638" 
d="M448 -178q-36 -12 -74 -12q-39 0 -64.5 19.5t-25.5 53.5q0 32 19.5 61t61.5 71l10 64q-26 -41 -69 -66t-96 -25q-76 0 -118 42.5t-42 116.5q0 23 3 45l51 320h168l-46 -290q-3 -18 -3 -32q0 -72 68 -72q40 0 68.5 29.5t37.5 90.5l44 274h167l-81 -512h-88
q-35 -37 -44.5 -51.5t-9.5 -29.5q0 -23 29 -23q19 0 47 6z" />
    <glyph glyph-name="Wcircumflex" unicode="&#x174;" horiz-adv-x="1022" 
d="M556 920h143l77 -160h-88l-70 69l-94 -69h-97zM567 0l-24 511h-2l-220 -511h-181l-58 714h175l28 -503h2l214 503h172l17 -503h2l224 503h170l-336 -714h-183z" />
    <glyph glyph-name="wcircumflex" unicode="&#x175;" horiz-adv-x="856" 
d="M451 736h142l60 -162h-89l-55 73l-102 -73h-98zM541 512l12 -340h2l164 340h165l-273 -512h-161l-22 331h-2l-158 -331h-162l-52 512h165l18 -340h2l153 340h149z" />
    <glyph glyph-name="Ycircumflex" unicode="&#x176;" horiz-adv-x="737" 
d="M397 920h143l77 -160h-88l-70 69l-94 -69h-97zM415 0h-174l47 291l-210 423h186l132 -275h3l216 275h190l-344 -423z" />
    <glyph glyph-name="ycircumflex" unicode="&#x177;" horiz-adv-x="604" 
d="M318 736h142l60 -162h-89l-55 73l-102 -73h-98zM149 7l-95 505h166l52 -354h2l192 354h167l-298 -515q-58 -100 -120 -141.5t-157 -41.5q-40 0 -70 10l20 121q24 -7 39 -7q34 0 57 15t45 54z" />
    <glyph glyph-name="Ydieresis" unicode="&#x178;" horiz-adv-x="737" 
d="M482 766l23 145h147l-23 -145h-147zM267 766l23 145h147l-23 -145h-147zM415 0h-174l47 291l-210 423h186l132 -275h3l216 275h190l-344 -423z" />
    <glyph glyph-name="Zacute" unicode="&#x179;" horiz-adv-x="689" 
d="M353 761l76 159h192l-158 -159h-110zM693 586l-451 -452h387l-21 -134h-607l19 122l456 459h-371l20 133h588z" />
    <glyph glyph-name="zacute" unicode="&#x17a;" horiz-adv-x="548" 
d="M266 575l76 161h183l-149 -161h-110zM521 399l-292 -278h256l-19 -121h-462l17 109l293 283h-240l19 120h447z" />
    <glyph glyph-name="Zdotaccent" unicode="&#x17b;" horiz-adv-x="689" 
d="M335 766l23 145h172l-23 -145h-172zM693 586l-451 -452h387l-21 -134h-607l19 122l456 459h-371l20 133h588z" />
    <glyph glyph-name="zdotaccent" unicode="&#x17c;" horiz-adv-x="548" 
d="M247 583l23 145h173l-23 -145h-173zM521 399l-292 -278h256l-19 -121h-462l17 109l293 283h-240l19 120h447z" />
    <glyph glyph-name="Zcaron" unicode="&#x17d;" horiz-adv-x="689" 
d="M498 760h-143l-77 160h88l70 -69l94 69h97zM693 586l-451 -452h387l-21 -134h-607l19 122l456 459h-371l20 133h588z" />
    <glyph glyph-name="zcaron" unicode="&#x17e;" horiz-adv-x="548" 
d="M398 574h-142l-60 162h89l55 -73l102 73h98zM521 399l-292 -278h256l-19 -121h-462l17 109l293 283h-240l19 120h447z" />
    <glyph glyph-name="uni0192" unicode="&#x192;" horiz-adv-x="513" 
d="M421 278h-120l-129 -387h-161l130 387h-75l19 127h99l51 151q33 97 98 144.5t151 47.5q47 0 76 -12l-24 -150q-24 9 -54 9q-77 0 -105 -88l-34 -102h98z" />
    <glyph glyph-name="AEacute" unicode="&#x1fc;" horiz-adv-x="1139" 
d="M756 761l76 159h192l-158 -159h-110zM504 0l25 161h-260l-121 -161h-183l541 714h652l-21 -133h-371l-25 -156h326l-21 -133h-326l-25 -158h377l-21 -134h-547zM599 600l-230 -306h182z" />
    <glyph glyph-name="aeacute" unicode="&#x1fd;" horiz-adv-x="914" 
d="M461 575l76 161h183l-149 -161h-110zM862 168q-29 -85 -97.5 -132.5t-164.5 -47.5q-129 0 -196 84q-80 -84 -195 -84q-87 0 -139.5 41t-52.5 109q0 75 58.5 120.5t162.5 45.5h137l4 23q2 16 2 22q0 54 -66 54q-34 0 -57 -17t-30 -46h-161q23 87 89.5 135.5t164.5 48.5
q109 0 156 -65q75 65 182 65t166 -57.5t59 -156.5q0 -39 -11 -89h-358v-3q0 -111 95 -111q69 0 98 61h154zM650 408q-44 0 -76 -28t-47 -76h204q1 7 1 18q0 39 -21 62.5t-61 23.5zM245 100q47 0 77 26.5t36 68.5l4 26h-90q-92 0 -92 -67q0 -26 18 -40t47 -14z" />
    <glyph glyph-name="Oslashacute" unicode="&#x1fe;" horiz-adv-x="776" 
d="M389 761l76 159h192l-158 -159h-110zM363 -12q-117 0 -198 57l-71 -74l-67 52l78 82q-57 79 -57 191q0 85 28.5 163t79.5 137.5t126.5 94.5t164.5 35q117 0 196 -55l60 62l66 -52l-65 -69q58 -78 58 -194q0 -114 -48 -211.5t-140.5 -158t-210.5 -60.5zM224 292
q0 -30 6 -56l307 323q-37 34 -98 34q-69 0 -119 -44t-73 -110.5t-23 -146.5zM585 422q0 32 -6 59l-308 -324q38 -36 100 -36q68 0 118 44t73 111t23 146z" />
    <glyph glyph-name="oslashacute" unicode="&#x1ff;" horiz-adv-x="616" 
d="M293 575l76 161h183l-149 -161h-110zM279 -12q-85 0 -143 36l-56 -58l-53 52l53 54q-46 60 -46 144q0 135 84.5 221.5t219.5 86.5q85 0 146 -38l48 50l52 -53l-45 -47q43 -57 43 -139q0 -135 -84 -222t-219 -87zM192 207q0 -13 1 -19l198 204q-24 19 -62 19
q-67 0 -102 -59t-35 -145zM424 306v12l-196 -200q23 -17 59 -17q67 0 102 59.5t35 145.5z" />
    <glyph glyph-name="uni0218" unicode="&#x218;" horiz-adv-x="674" 
d="M14 220h167q3 -55 44.5 -81.5t101.5 -26.5q64 0 102.5 26.5t38.5 70.5q0 27 -22 42t-74 27l-124 27q-74 16 -119.5 60t-45.5 115q0 111 86.5 178.5t218.5 67.5q135 0 207.5 -59t74.5 -160h-160q-2 44 -37 69.5t-94 25.5t-93.5 -26t-34.5 -67q0 -29 21.5 -44t70.5 -26
l131 -29q163 -36 163 -169q0 -112 -90 -182.5t-226 -70.5q-139 0 -222.5 60.5t-84.5 171.5zM217 -138l14 93h153l-9 -62q-11 -71 -53 -102t-122 -31l9 55q57 0 63 47h-55z" />
    <glyph glyph-name="uni0219" unicode="&#x219;" horiz-adv-x="546" 
d="M10 159h156q1 -31 27 -46.5t62 -15.5q37 0 59 13t22 37q0 16 -14 24.5t-48 16.5l-89 19q-126 29 -126 130q0 83 67.5 135t173.5 52q105 0 161.5 -45t60.5 -120h-149q-6 57 -83 57q-33 0 -52 -12.5t-19 -35.5q0 -16 13.5 -25t46.5 -16l94 -21q122 -27 122 -131
q0 -87 -69 -137t-175 -50q-108 0 -174 44t-67 127zM137 -138l14 93h153l-9 -62q-11 -71 -53 -102t-122 -31l9 55q57 0 63 47h-55z" />
    <glyph glyph-name="uni021A" unicode="&#x21a;" horiz-adv-x="739" 
d="M243 0l92 581h-247l21 133h667l-20 -133h-248l-92 -581h-173zM233 -138l14 93h153l-9 -62q-11 -71 -53 -102t-122 -31l9 55q57 0 63 47h-55z" />
    <glyph glyph-name="uni021B" unicode="&#x21b;" horiz-adv-x="401" 
d="M344 130l-19 -122q-63 -16 -113 -16q-70 0 -110 29.5t-40 89.5q0 17 3 36l38 248h-65l19 117h69l21 127h160l-20 -127h113l-19 -117h-113l-35 -207q-3 -15 -3 -25q0 -22 12.5 -31t39.5 -9q30 0 62 7zM89 -138l14 93h153l-9 -62q-11 -71 -53 -102t-122 -31l9 55
q57 0 63 47h-55z" />
    <glyph glyph-name="uni0237" unicode="&#x237;" horiz-adv-x="306" 
d="M-8 -185q-46 0 -82 9l19 119q17 -4 37 -4q29 0 43 12.5t19 43.5l82 517h168l-83 -525q-27 -172 -203 -172z" />
    <glyph glyph-name="circumflex" unicode="&#x2c6;" horiz-adv-x="564" 
d="M306 736h142l60 -162h-89l-55 73l-102 -73h-98z" />
    <glyph glyph-name="caron" unicode="&#x2c7;" horiz-adv-x="564" 
d="M388 574h-142l-60 162h89l55 -73l102 73h98z" />
    <glyph glyph-name="breve" unicode="&#x2d8;" horiz-adv-x="564" 
d="M328 569q-62 0 -97 35t-35 96q0 12 4 36h95q-1 -7 -1 -17q0 -24 13 -38.5t36 -14.5q27 0 45.5 18.5t24.5 51.5h97q-12 -76 -61.5 -121.5t-120.5 -45.5z" />
    <glyph glyph-name="dotaccent" unicode="&#x2d9;" horiz-adv-x="563" 
d="M248 583l23 145h173l-23 -145h-173z" />
    <glyph glyph-name="ring" unicode="&#x2da;" horiz-adv-x="564" 
d="M363 801q47 0 77 -31t30 -77q0 -54 -38.5 -93t-96.5 -39q-46 0 -76.5 31t-30.5 76q0 55 38.5 94t96.5 39zM343 629q25 0 42 16.5t17 41.5q0 20 -13.5 33t-33.5 13q-25 0 -41.5 -16t-16.5 -41q0 -20 13.5 -33.5t32.5 -13.5z" />
    <glyph glyph-name="ogonek" unicode="&#x2db;" horiz-adv-x="564" 
d="M260 24h87q-51 -53 -64 -70.5t-13 -34.5q0 -23 29 -23q19 0 47 6l-13 -80q-36 -12 -74 -12q-39 0 -64.5 19.5t-25.5 53.5t21.5 64.5t69.5 76.5z" />
    <glyph glyph-name="tilde" unicode="&#x2dc;" horiz-adv-x="563" 
d="M280 624q-33 0 -46 -57h-91q13 77 48.5 123t82.5 46q33 0 75 -29.5t59 -29.5q34 0 47 57h90q-12 -77 -48 -123.5t-83 -46.5q-33 0 -75 30t-59 30z" />
    <glyph glyph-name="hungarumlaut" unicode="&#x2dd;" horiz-adv-x="563" 
d="M324 575l78 161h158l-140 -161h-96zM125 575l78 161h158l-140 -161h-96z" />
    <glyph glyph-name="Wgrave" unicode="&#x1e80;" horiz-adv-x="1022" 
d="M652 761h-111l-107 159h183zM567 0l-24 511h-2l-220 -511h-181l-58 714h175l28 -503h2l214 503h172l17 -503h2l224 503h170l-336 -714h-183z" />
    <glyph glyph-name="wgrave" unicode="&#x1e81;" horiz-adv-x="856" 
d="M528 575h-110l-98 161h174zM541 512l12 -340h2l164 340h165l-273 -512h-161l-22 331h-2l-158 -331h-162l-52 512h165l18 -340h2l153 340h149z" />
    <glyph glyph-name="Wacute" unicode="&#x1e82;" horiz-adv-x="1022" 
d="M546 761l76 159h192l-158 -159h-110zM567 0l-24 511h-2l-220 -511h-181l-58 714h175l28 -503h2l214 503h172l17 -503h2l224 503h170l-336 -714h-183z" />
    <glyph glyph-name="wacute" unicode="&#x1e83;" horiz-adv-x="856" 
d="M427 575l76 161h183l-149 -161h-110zM541 512l12 -340h2l164 340h165l-273 -512h-161l-22 331h-2l-158 -331h-162l-52 512h165l18 -340h2l153 340h149z" />
    <glyph glyph-name="Wdieresis" unicode="&#x1e84;" horiz-adv-x="1022" 
d="M629 766l23 145h147l-23 -145h-147zM414 766l23 145h147l-23 -145h-147zM567 0l-24 511h-2l-220 -511h-181l-58 714h175l28 -503h2l214 503h172l17 -503h2l224 503h170l-336 -714h-183z" />
    <glyph glyph-name="wdieresis" unicode="&#x1e85;" horiz-adv-x="856" 
d="M517 583l23 145h147l-23 -145h-147zM302 583l23 145h147l-23 -145h-147zM541 512l12 -340h2l164 340h165l-273 -512h-161l-22 331h-2l-158 -331h-162l-52 512h165l18 -340h2l153 340h149z" />
    <glyph glyph-name="Ygrave" unicode="&#x1ef2;" horiz-adv-x="737" 
d="M501 761h-111l-107 159h183zM415 0h-174l47 291l-210 423h186l132 -275h3l216 275h190l-344 -423z" />
    <glyph glyph-name="ygrave" unicode="&#x1ef3;" horiz-adv-x="604" 
d="M410 575h-110l-98 161h174zM149 7l-95 505h166l52 -354h2l192 354h167l-298 -515q-58 -100 -120 -141.5t-157 -41.5q-40 0 -70 10l20 121q24 -7 39 -7q34 0 57 15t45 54z" />
    <glyph glyph-name="endash" unicode="&#x2013;" horiz-adv-x="677" 
d="M83 228l18 119h504l-19 -119h-503z" />
    <glyph glyph-name="emdash" unicode="&#x2014;" horiz-adv-x="1003" 
d="M83 228l19 119h829l-19 -119h-829z" />
    <glyph glyph-name="quoteleft" unicode="&#x2018;" horiz-adv-x="347" 
d="M315 565l-26 -160h-185l27 168q14 85 72.5 128.5t150.5 43.5l-13 -85q-48 -1 -76 -18.5t-36 -66.5l-1 -10h87z" />
    <glyph glyph-name="quoteright" unicode="&#x2019;" horiz-adv-x="347" 
d="M133 576l26 160h185l-27 -168q-14 -85 -72.5 -128.5t-150.5 -43.5l13 85q48 1 76 18.5t36 66.5l1 10h-87z" />
    <glyph glyph-name="quotesinglbase" unicode="&#x201a;" horiz-adv-x="348" 
d="M45 19l26 160h185l-27 -168q-14 -85 -72.5 -128.5t-150.5 -43.5l13 85q48 1 76 18.5t36 66.5l1 10h-87z" />
    <glyph glyph-name="quotedblleft" unicode="&#x201c;" horiz-adv-x="602" 
d="M570 565l-26 -160h-185l27 168q14 85 72.5 128.5t150.5 43.5l-13 -85q-48 -1 -76 -18.5t-36 -66.5l-1 -10h87zM315 565l-26 -160h-185l27 168q14 85 72.5 128.5t150.5 43.5l-13 -85q-48 -1 -76 -18.5t-36 -66.5l-1 -10h87z" />
    <glyph glyph-name="quotedblright" unicode="&#x201d;" horiz-adv-x="602" 
d="M133 576l26 160h185l-27 -168q-14 -85 -72.5 -128.5t-150.5 -43.5l13 85q48 1 76 18.5t36 66.5l1 10h-87zM387 576l26 160h185l-27 -168q-14 -85 -72.5 -128.5t-150.5 -43.5l13 85q48 1 76 18.5t36 66.5l1 10h-87z" />
    <glyph glyph-name="quotedblbase" unicode="&#x201e;" horiz-adv-x="602" 
d="M45 19l26 160h185l-27 -168q-14 -85 -72.5 -128.5t-150.5 -43.5l13 85q48 1 76 18.5t36 66.5l1 10h-87zM300 19l26 160h185l-27 -168q-14 -85 -72.5 -128.5t-150.5 -43.5l13 85q48 1 76 18.5t36 66.5l1 10h-87z" />
    <glyph glyph-name="dagger" unicode="&#x2020;" horiz-adv-x="404" 
d="M414 530h-121l-34 -214h-93l34 214h-122l15 90h121l17 106h94l-17 -106h120z" />
    <glyph glyph-name="daggerdbl" unicode="&#x2021;" horiz-adv-x="404" 
d="M393 399h-121l-14 -83h-93l13 83h-120l13 86h121l12 73h-121l13 87h122l13 81h94l-13 -81h119l-13 -87h-120l-12 -73h120z" />
    <glyph glyph-name="bullet" unicode="&#x2022;" horiz-adv-x="523" 
d="M98 309q0 70 51.5 120.5t122.5 50.5t121.5 -50t50.5 -121t-50.5 -122t-121.5 -51t-122.5 51t-51.5 122z" />
    <glyph glyph-name="ellipsis" unicode="&#x2026;" horiz-adv-x="885" 
d="M580 0l29 185h185l-29 -185h-185zM310 0l29 185h185l-29 -185h-185zM40 0l29 185h185l-29 -185h-185z" />
    <glyph glyph-name="guilsinglleft" unicode="&#x2039;" horiz-adv-x="356" 
d="M274 43h-115l-109 211l172 211h119l-147 -211z" />
    <glyph glyph-name="guilsinglright" unicode="&#x203a;" horiz-adv-x="356" 
d="M83 465h115l109 -211l-172 -211h-119l147 211z" />
    <glyph glyph-name="fraction" unicode="&#x2044;" horiz-adv-x="184" 
d="M-158 -12h-100l633 739h100z" />
    <glyph glyph-name="uni2070" unicode="&#x2070;" horiz-adv-x="437" 
d="M238 315q-74 0 -117.5 47t-43.5 122q0 96 56 167t151 71q74 0 117.5 -46.5t43.5 -121.5q0 -97 -56.5 -168t-150.5 -71zM278 641q-64 0 -85 -116q-6 -25 -6 -51q0 -37 15 -58t42 -21q63 0 85 117q5 28 5 51q0 78 -56 78z" />
    <glyph glyph-name="uni2074" unicode="&#x2074;" horiz-adv-x="428" 
d="M397 714l-38 -238h75l-12 -74h-76l-12 -79h-99l12 79h-194l13 74l219 238h112zM281 617l-125 -141h103z" />
    <glyph glyph-name="uni2075" unicode="&#x2075;" horiz-adv-x="394" 
d="M238 511q-35 0 -53 -24h-99l58 227h265l-14 -84h-186l-17 -65q31 22 80 22q54 0 86 -30t32 -80q0 -69 -49 -115.5t-129 -46.5q-74 0 -112 35.5t-38 94.5h110q0 -50 48 -50q28 0 45.5 20t17.5 50q0 46 -45 46z" />
    <glyph glyph-name="uni2076" unicode="&#x2076;" horiz-adv-x="400" 
d="M274 640q-32 0 -56.5 -26t-31.5 -65q35 33 90 33q48 0 85.5 -30.5t37.5 -83.5q0 -63 -50 -108t-124 -45q-67 0 -108.5 42t-41.5 114q0 98 59.5 174.5t148.5 76.5q57 0 95.5 -31.5t39.5 -85.5h-98q-4 35 -46 35zM231 392q28 0 46.5 20t18.5 48q0 24 -15 37t-37 13
q-28 0 -47 -20t-19 -48q0 -24 15.5 -37t37.5 -13z" />
    <glyph glyph-name="uni2077" unicode="&#x2077;" horiz-adv-x="367" 
d="M288 631h-197l14 83h303l-14 -87q-76 -78 -110 -145t-50 -159h-114q28 156 168 308z" />
    <glyph glyph-name="uni2078" unicode="&#x2078;" horiz-adv-x="402" 
d="M222 315q-71 0 -114.5 28.5t-43.5 78.5q0 38 28.5 67.5t64.5 35.5q-47 23 -47 71q0 56 45 91t115 35q61 0 101 -27.5t40 -74.5q0 -34 -21 -61.5t-55 -40.5q26 -6 44 -27.5t18 -50.5q0 -56 -49.5 -90.5t-125.5 -34.5zM256 558q26 0 42.5 13.5t16.5 37.5q0 39 -51 39
q-26 0 -42.5 -14t-16.5 -38q0 -38 51 -38zM235 486q-32 0 -49 -15.5t-17 -38.5q0 -41 61 -41q32 0 49 15.5t17 38.5q0 41 -61 41z" />
    <glyph glyph-name="uni2079" unicode="&#x2079;" horiz-adv-x="400" 
d="M210 396q31 0 55.5 26.5t31.5 65.5q-37 -34 -88 -34q-49 0 -86 31t-37 83q0 64 49 109t123 45q68 0 109.5 -42t41.5 -114q0 -99 -59 -175t-149 -76q-57 0 -95.5 31.5t-39.5 85.5h98q4 -36 46 -36zM253 644q-28 0 -46.5 -19.5t-18.5 -47.5q0 -24 15.5 -37t37.5 -13
q28 0 46.5 20t18.5 48q0 24 -15.5 36.5t-37.5 12.5z" />
    <glyph glyph-name="uni2080" unicode="&#x2080;" horiz-adv-x="437" 
d="M165 -147q-74 0 -117.5 47t-43.5 122q0 96 56 167t151 71q74 0 117.5 -46.5t43.5 -121.5q0 -97 -56.5 -168t-150.5 -71zM205 179q-64 0 -85 -116q-6 -25 -6 -51q0 -37 15 -58t42 -21q63 0 85 117q5 28 5 51q0 78 -56 78z" />
    <glyph glyph-name="uni2081" unicode="&#x2081;" horiz-adv-x="357" 
d="M275 -68l-12 -72h-285l11 72h93l31 194h-93l10 68q64 0 88 12.5t37 45.5h81l-51 -320h90z" />
    <glyph glyph-name="uni2082" unicode="&#x2082;" horiz-adv-x="380" 
d="M328 149q0 -53 -34.5 -85.5t-105.5 -65.5q-72 -34 -80 -54h190l-14 -84h-312l6 37q9 58 49.5 95t102.5 70q61 31 77.5 44.5t16.5 36.5q0 34 -39 34q-23 0 -39.5 -16t-21.5 -40h-107q13 61 59.5 99.5t117.5 38.5q60 0 97 -29.5t37 -80.5z" />
    <glyph glyph-name="uni2083" unicode="&#x2083;" horiz-adv-x="384" 
d="M306 -22q0 -49 -43 -87t-121 -38q-74 0 -115.5 36t-41.5 91h104q0 -46 60 -46q26 0 41.5 13.5t15.5 32.5q0 37 -52 37h-37l12 77h36q28 0 43.5 13t15.5 35q0 16 -11 26.5t-31 10.5q-51 0 -59 -46h-102q14 55 57.5 90.5t112.5 35.5q65 0 100 -30.5t35 -75.5q0 -36 -24 -63
t-61 -35q30 -6 47.5 -26.5t17.5 -50.5z" />
    <glyph glyph-name="uni2084" unicode="&#x2084;" horiz-adv-x="428" 
d="M324 251l-38 -238h75l-12 -74h-76l-12 -79h-99l12 79h-194l13 74l219 238h112zM208 154l-125 -141h103z" />
    <glyph glyph-name="uni2085" unicode="&#x2085;" horiz-adv-x="394" 
d="M165 49q-35 0 -53 -24h-99l58 227h265l-14 -84h-186l-17 -65q31 22 80 22q54 0 86 -30t32 -80q0 -69 -49 -115.5t-129 -46.5q-74 0 -112 35.5t-38 94.5h110q0 -50 48 -50q28 0 45.5 20t17.5 50q0 46 -45 46z" />
    <glyph glyph-name="uni2086" unicode="&#x2086;" horiz-adv-x="400" 
d="M201 178q-32 0 -56.5 -26t-31.5 -65q35 33 90 33q48 0 85.5 -30.5t37.5 -83.5q0 -63 -50 -108t-124 -45q-67 0 -108.5 42t-41.5 114q0 98 59.5 174.5t148.5 76.5q57 0 95.5 -31.5t39.5 -85.5h-98q-3 35 -46 35zM158 -70q28 0 46.5 20t18.5 48q0 24 -15 37t-37 13
q-28 0 -47 -20t-19 -48q0 -24 15.5 -37t37.5 -13z" />
    <glyph glyph-name="uni2087" unicode="&#x2087;" horiz-adv-x="367" 
d="M215 168h-197l14 83h303l-14 -87q-76 -78 -110 -145t-50 -159h-114q28 156 168 308z" />
    <glyph glyph-name="uni2088" unicode="&#x2088;" horiz-adv-x="402" 
d="M149 -147q-71 0 -114.5 28.5t-43.5 78.5q0 38 28.5 67.5t64.5 35.5q-47 23 -47 71q0 56 45 91t115 35q61 0 101 -27.5t40 -74.5q0 -34 -21 -61.5t-55 -40.5q26 -6 44 -27.5t18 -50.5q0 -56 -49.5 -90.5t-125.5 -34.5zM183 96q26 0 42.5 13.5t16.5 37.5q0 39 -51 39
q-26 0 -42.5 -14t-16.5 -38q0 -38 51 -38zM162 24q-32 0 -49 -15.5t-17 -38.5q0 -41 61 -41q32 0 49 15.5t17 38.5q0 41 -61 41z" />
    <glyph glyph-name="uni2089" unicode="&#x2089;" horiz-adv-x="400" 
d="M137 -66q31 0 55.5 26.5t31.5 65.5q-37 -34 -88 -34q-49 0 -86 31t-37 83q0 64 49 109t123 45q68 0 109.5 -42t41.5 -114q0 -99 -59 -175t-149 -76q-57 0 -95.5 31.5t-39.5 85.5h98q4 -36 46 -36zM180 182q-28 0 -46.5 -19.5t-18.5 -47.5q0 -24 15.5 -37t37.5 -13
q28 0 46.5 20t18.5 48q0 24 -15.5 36.5t-37.5 12.5z" />
    <glyph glyph-name="Euro" unicode="&#x20ac;" horiz-adv-x="726" 
d="M691 239q-37 -116 -117 -183.5t-198 -67.5q-113 0 -181 67t-79 183h-81l15 92h66q4 38 8 58h-64l14 91h76q44 113 131.5 180t199.5 67q118 0 178 -67t62 -183h-156q-2 117 -100 117q-46 0 -85.5 -30t-66.5 -84h172l-25 -91h-177q-7 -30 -8 -58h167l-25 -92h-140
q19 -117 120 -117q99 0 137 118h157z" />
    <glyph glyph-name="trademark" unicode="&#x2122;" horiz-adv-x="920" 
d="M272 382h-97l39 247h-110l14 85h319l-14 -85h-112zM664 382h-68l-28 235h-2l-37 -235h-91l54 332h145l17 -211h3l92 211h132l-54 -332h-95l37 235h-2z" />
    <glyph glyph-name="uni2153" unicode="&#x2153;" horiz-adv-x="910" 
d="M207 -12h-100l633 739h100zM356 394l-12 -72h-285l11 72h93l31 194h-93l10 68q64 0 88 12.5t37 45.5h81l-51 -320h90zM854 118q0 -49 -43 -87t-121 -38q-74 0 -115.5 36t-41.5 91h104q0 -46 60 -46q26 0 41.5 13.5t15.5 32.5q0 37 -52 37h-37l12 77h36q28 0 43.5 13
t15.5 35q0 16 -11 26.5t-31 10.5q-51 0 -59 -46h-102q14 55 57.5 90.5t112.5 35.5q65 0 100 -30.5t35 -75.5q0 -36 -24 -63t-61 -35q30 -6 47.5 -26.5t17.5 -50.5z" />
    <glyph glyph-name="uni2154" unicode="&#x2154;" horiz-adv-x="936" 
d="M233 -12h-100l633 739h100zM409 611q0 -53 -34.5 -85.5t-105.5 -65.5q-72 -34 -80 -54h190l-14 -84h-312l6 37q9 58 49.5 95t102.5 70q61 31 77.5 44.5t16.5 36.5q0 34 -39 34q-23 0 -39.5 -16t-21.5 -40h-107q13 61 59.5 99.5t117.5 38.5q60 0 97 -29.5t37 -80.5z
M880 118q0 -49 -43 -87t-121 -38q-74 0 -115.5 36t-41.5 91h104q0 -46 60 -46q26 0 41.5 13.5t15.5 32.5q0 37 -52 37h-37l12 77h36q28 0 43.5 13t15.5 35q0 16 -11 26.5t-31 10.5q-51 0 -59 -46h-102q14 55 57.5 90.5t112.5 35.5q65 0 100 -30.5t35 -75.5q0 -36 -24 -63
t-61 -35q30 -6 47.5 -26.5t17.5 -50.5z" />
    <glyph glyph-name="uni215B" unicode="&#x215b;" horiz-adv-x="927" 
d="M207 -12h-100l633 739h100zM356 394l-12 -72h-285l11 72h93l31 194h-93l10 68q64 0 88 12.5t37 45.5h81l-51 -320h90zM697 -7q-71 0 -114.5 28.5t-43.5 78.5q0 38 28.5 67.5t64.5 35.5q-47 23 -47 71q0 56 45 91t115 35q61 0 101 -27.5t40 -74.5q0 -34 -21 -61.5
t-55 -40.5q26 -6 44 -27.5t18 -50.5q0 -56 -49.5 -90.5t-125.5 -34.5zM731 236q26 0 42.5 13.5t16.5 37.5q0 39 -51 39q-26 0 -42.5 -14t-16.5 -38q0 -38 51 -38zM710 164q-32 0 -49 -15.5t-17 -38.5q0 -41 61 -41q32 0 49 15.5t17 38.5q0 41 -61 41z" />
    <glyph glyph-name="uni215C" unicode="&#x215c;" horiz-adv-x="939" 
d="M218 -12h-100l633 739h100zM387 440q0 -49 -43 -87t-121 -38q-74 0 -115.5 36t-41.5 91h104q0 -46 60 -46q26 0 41.5 13.5t15.5 32.5q0 37 -52 37h-37l12 77h36q28 0 43.5 13t15.5 35q0 16 -11 26.5t-31 10.5q-51 0 -59 -46h-102q14 55 57.5 90.5t112.5 35.5
q65 0 100 -30.5t35 -75.5q0 -36 -24 -63t-61 -35q30 -6 47.5 -26.5t17.5 -50.5zM708 -7q-71 0 -114.5 28.5t-43.5 78.5q0 38 28.5 67.5t64.5 35.5q-47 23 -47 71q0 56 45 91t115 35q61 0 101 -27.5t40 -74.5q0 -34 -21 -61.5t-55 -40.5q26 -6 44 -27.5t18 -50.5
q0 -56 -49.5 -90.5t-125.5 -34.5zM742 236q26 0 42.5 13.5t16.5 37.5q0 39 -51 39q-26 0 -42.5 -14t-16.5 -38q0 -38 51 -38zM721 164q-32 0 -49 -15.5t-17 -38.5q0 -41 61 -41q32 0 49 15.5t17 38.5q0 41 -61 41z" />
    <glyph glyph-name="uni215D" unicode="&#x215d;" horiz-adv-x="932" 
d="M212 -12h-100l633 739h100zM246 511q-35 0 -53 -24h-99l58 227h265l-14 -84h-186l-17 -65q31 22 80 22q54 0 86 -30t32 -80q0 -69 -49 -115.5t-129 -46.5q-74 0 -112 35.5t-38 94.5h110q0 -50 48 -50q28 0 45.5 20t17.5 50q0 46 -45 46zM702 -7q-71 0 -114.5 28.5
t-43.5 78.5q0 38 28.5 67.5t64.5 35.5q-47 23 -47 71q0 56 45 91t115 35q61 0 101 -27.5t40 -74.5q0 -34 -21 -61.5t-55 -40.5q26 -6 44 -27.5t18 -50.5q0 -56 -49.5 -90.5t-125.5 -34.5zM736 236q26 0 42.5 13.5t16.5 37.5q0 39 -51 39q-26 0 -42.5 -14t-16.5 -38
q0 -38 51 -38zM715 164q-32 0 -49 -15.5t-17 -38.5q0 -41 61 -41q32 0 49 15.5t17 38.5q0 41 -61 41z" />
    <glyph glyph-name="uni215E" unicode="&#x215e;" horiz-adv-x="867" 
d="M147 -12h-100l633 739h100zM296 631h-197l14 83h303l-14 -87q-76 -78 -110 -145t-50 -159h-114q28 156 168 308zM637 -7q-71 0 -114.5 28.5t-43.5 78.5q0 38 28.5 67.5t64.5 35.5q-47 23 -47 71q0 56 45 91t115 35q61 0 101 -27.5t40 -74.5q0 -34 -21 -61.5t-55 -40.5
q26 -6 44 -27.5t18 -50.5q0 -56 -49.5 -90.5t-125.5 -34.5zM671 236q26 0 42.5 13.5t16.5 37.5q0 39 -51 39q-26 0 -42.5 -14t-16.5 -38q0 -38 51 -38zM650 164q-32 0 -49 -15.5t-17 -38.5q0 -41 61 -41q32 0 49 15.5t17 38.5q0 41 -61 41z" />
    <glyph glyph-name="minus" unicode="&#x2212;" 
d="M65 273l19 119h536l-19 -119h-536z" />
    <glyph glyph-name="i.dot" horiz-adv-x="306" 
d="M119 583l23 145h173l-23 -145h-173zM110 512h168l-81 -512h-168z" />
    <glyph glyph-name="a.ord" horiz-adv-x="419" 
d="M273 316q1 14 5 48q-36 -57 -115 -57q-48 0 -76.5 24.5t-28.5 64.5q0 104 143 116l95 8q3 18 3 24q0 34 -39 34q-42 0 -52 -39h-115q14 59 60 92t118 33q70 0 107.5 -29.5t37.5 -86.5q0 -14 -3 -30l-15 -100q-10 -58 -14 -102h-111zM284 444l2 15l-56 -7q-52 -6 -52 -41
q0 -29 34 -29q26 0 46.5 16.5t25.5 45.5z" />
    <glyph glyph-name="b.ord" horiz-adv-x="464" 
d="M191 366l-7 -50h-120l77 484h121l-31 -195q38 59 103 59q60 0 94 -41t34 -107q0 -86 -48 -147.5t-124 -61.5q-34 0 -61.5 16.5t-37.5 42.5zM287 577q-63 0 -76 -84q-4 -27 -4 -36q0 -30 14.5 -47t38.5 -17q37 0 59 32.5t22 85.5q0 66 -54 66z" />
    <glyph glyph-name="c.ord" horiz-adv-x="406" 
d="M68 459q0 93 59 149.5t146 56.5q72 0 111 -37.5t37 -98.5h-115q2 21 -9 35t-32 14q-34 0 -55.5 -35.5t-21.5 -85.5q0 -29 12.5 -45.5t35.5 -16.5q21 0 35.5 14t20.5 34h115q-17 -62 -64 -98.5t-117 -36.5q-68 0 -113 41t-45 110z" />
    <glyph glyph-name="d.ord" horiz-adv-x="456" 
d="M337 604l31 196h121l-77 -484h-119l7 48q-38 -57 -105 -57q-60 0 -93.5 39t-33.5 103q0 89 47.5 152t124.5 63q33 0 60 -17t37 -43zM243 393q29 0 49 22.5t27 62.5q3 19 3 35q0 30 -14 47t-38 17q-37 0 -59.5 -34t-22.5 -87q0 -28 14.5 -45.5t40.5 -17.5z" />
    <glyph glyph-name="e.ord" horiz-adv-x="417" 
d="M412 429q-19 -57 -65.5 -89t-112.5 -32q-75 0 -120.5 41t-45.5 110q0 90 57.5 148t147.5 58q73 0 112.5 -40t39.5 -102q0 -28 -7 -57h-235v-4q0 -69 58 -69q43 0 59 36h112zM267 580q-56 0 -76 -63h125q0 1 0.5 5t0.5 6q0 22 -13 37t-37 15z" />
    <glyph glyph-name="f.ord" horiz-adv-x="267" 
d="M114 570h-44l14 85h44l5 30q18 120 143 120q33 0 62 -6l-13 -89q-24 4 -32 4q-35 0 -42 -36l-3 -23h64l-13 -85h-65l-40 -254h-120z" />
    <glyph glyph-name="g.ord" horiz-adv-x="455" 
d="M295 339l8 49q-38 -59 -105 -59q-60 0 -93.5 39t-33.5 104q0 76 45.5 134t117.5 58q37 0 67 -17.5t38 -43.5l8 52h120l-47 -297q-14 -84 -68 -126t-140 -42q-76 0 -120 31t-47 82h119q7 -33 54 -33q67 0 77 69zM321 489q4 23 4 30q0 28 -15 44t-40 16q-36 0 -57.5 -28.5
t-21.5 -73.5q0 -64 54 -64q30 0 50 19.5t26 56.5z" />
    <glyph glyph-name="h.ord" horiz-adv-x="454" 
d="M262 801l-31 -195q40 58 108 58q51 0 80.5 -29t29.5 -78q0 -18 -2 -28l-34 -213h-121l30 189q2 12 2 19q0 46 -45 46q-54 0 -65 -74l-29 -180h-121l77 485h121z" />
    <glyph glyph-name="i.ord" horiz-adv-x="229" 
d="M123 697l16 101h123l-15 -101h-124zM118 655h121l-54 -339h-121z" />
    <glyph glyph-name="j.ord" horiz-adv-x="229" 
d="M123 697l17 101h122l-15 -101h-124zM38 194q-24 0 -52 5l15 85q16 -2 23 -2q19 0 28 8t13 27l53 338h121l-54 -344q-19 -117 -147 -117z" />
    <glyph glyph-name="k.ord" horiz-adv-x="446" 
d="M311 316l-69 128l-43 -37l-14 -91h-121l77 485h121l-43 -272l136 126h135l-158 -138l110 -201h-131z" />
    <glyph glyph-name="l.ord" horiz-adv-x="229" 
d="M185 316h-121l77 485h121z" />
    <glyph glyph-name="m.ord" horiz-adv-x="669" 
d="M338 664q76 0 100 -58q51 58 120 58q50 0 78.5 -29.5t28.5 -77.5q0 -8 -2 -26l-35 -215h-121l30 190q2 14 2 19q0 45 -42 45q-50 0 -61 -71l-29 -183h-122l31 190q1 7 1 19q0 45 -42 45q-50 0 -61 -71l-29 -183h-121l54 339h119l-8 -50q16 25 46.5 42t62.5 17z" />
    <glyph glyph-name="n.ord" horiz-adv-x="454" 
d="M237 655l-8 -50q17 26 46.5 42.5t63.5 16.5q51 0 80.5 -29t29.5 -78q0 -18 -2 -28l-34 -213h-121l30 188q2 14 2 20q0 46 -45 46q-54 0 -65 -74l-29 -180h-121l54 339h119z" />
    <glyph glyph-name="o.ord" horiz-adv-x="433" 
d="M235 308q-75 0 -120.5 41t-45.5 110q0 91 56.5 148.5t148.5 57.5q74 0 119.5 -41.5t45.5 -111.5q0 -90 -56.5 -147t-147.5 -57zM266 578q-36 0 -56 -36.5t-20 -86.5q0 -61 52 -61q37 0 57 36.5t20 86.5q0 61 -53 61z" />
    <glyph glyph-name="p.ord" horiz-adv-x="457" 
d="M194 365l-27 -167h-122l73 457h119l-7 -50q38 58 104 58q60 0 94 -40.5t34 -107.5q0 -86 -48 -147t-124 -61q-34 0 -60.5 16t-35.5 42zM287 577q-63 0 -76 -84q-4 -27 -4 -35q0 -30 14.5 -47.5t38.5 -17.5q37 0 59 32.5t22 85.5q0 66 -54 66z" />
    <glyph glyph-name="q.ord" horiz-adv-x="457" 
d="M337 605l9 50h120l-72 -457h-122l27 167q-39 -58 -103 -58q-60 0 -94 39.5t-34 103.5q0 88 47.5 150.5t124.5 62.5q34 0 61.5 -16.5t35.5 -41.5zM243 393q30 0 50 22.5t26 61.5q4 27 4 36q0 30 -14.5 47t-38.5 17q-37 0 -59.5 -34t-22.5 -86q0 -30 14.5 -47t40.5 -17z
" />
    <glyph glyph-name="r.ord" horiz-adv-x="325" 
d="M361 657l-17 -111q-24 2 -36 2q-39 0 -66 -22t-34 -65l-23 -145h-121l54 339h119l-11 -71q36 76 112 76q17 0 23 -3z" />
    <glyph glyph-name="s.ord" horiz-adv-x="393" 
d="M55 421h111q1 -18 17.5 -28t37.5 -10q48 0 48 32q0 10 -8.5 14.5t-31.5 9.5l-58 12q-87 17 -87 86q0 56 46 92t118 36q74 0 112.5 -30.5t38.5 -81.5h-106q-2 36 -51 36q-43 0 -43 -31q0 -16 38 -24l63 -13q83 -18 83 -86q0 -60 -46.5 -93.5t-117.5 -33.5q-75 0 -119.5 29
t-44.5 84z" />
    <glyph glyph-name="t.ord" horiz-adv-x="292" 
d="M281 408l-14 -87q-39 -11 -78 -11q-102 0 -102 79q0 16 2 26l25 156h-44l14 84h45l14 83h116l-13 -83h71l-15 -84h-71l-23 -133q-1 -4 -1 -10q0 -24 33 -24q18 0 41 4z" />
    <glyph glyph-name="u.ord" horiz-adv-x="449" 
d="M286 316l8 50q-39 -59 -108 -59q-50 0 -78 29t-28 78q0 20 2 29l33 212h121l-30 -191q-2 -14 -2 -21q0 -43 42 -43q52 0 63 74l28 181h122l-54 -339h-119z" />
    <glyph glyph-name="v.ord" horiz-adv-x="434" 
d="M152 316l-68 339h118l34 -221h1l119 221h121l-200 -339h-125z" />
    <glyph glyph-name="w.ord" horiz-adv-x="604" 
d="M417 655l11 -215h2l97 215h119l-171 -339h-116l-19 209h-1l-94 -209h-116l-45 339h120l15 -215h2l90 215h106z" />
    <glyph glyph-name="x.ord" horiz-adv-x="442" 
d="M164 316h-132l162 174l-94 165h133l44 -81l71 81h133l-150 -161l99 -178h-133l-49 92z" />
    <glyph glyph-name="y.ord" horiz-adv-x="434" 
d="M145 323l-61 334h120l31 -227h1l121 227h120l-196 -339q-38 -66 -81.5 -94t-107.5 -28q-30 0 -48 6l14 87q11 -4 26 -4q39 0 61 38z" />
    <glyph glyph-name="z.ord" horiz-adv-x="387" 
d="M395 574l-183 -171h163l-14 -87h-311l12 78l184 174h-152l13 87h301z" />
    <glyph glyph-name="caron.Slovak" horiz-adv-x="563" 
d="M322 537h-80l54 199h169z" />
    <glyph glyph-name="commaturn" horiz-adv-x="564" 
d="M424 669l-14 -93h-153l9 62q11 71 53 102t122 31l-9 -55q-57 0 -63 -47h55z" />
    <glyph glyph-name="uni00200326" horiz-adv-x="564" 
d="M145 -138l14 93h153l-9 -62q-11 -71 -53 -102t-122 -31l9 55q57 0 63 47h-55z" />
    <glyph glyph-name="guilsinglleft.cap" horiz-adv-x="356" 
d="M287 122h-115l-109 211l172 211h119l-147 -211z" />
    <glyph glyph-name="guilsinglright.cap" horiz-adv-x="356" 
d="M95 544h115l109 -211l-172 -211h-119l147 211z" />
    <glyph glyph-name="guillemotleft.cap" horiz-adv-x="578" 
d="M508 122h-109l-111 211l172 211h115l-143 -211zM282 122h-109l-110 211l172 211h115l-143 -211z" />
    <glyph glyph-name="guillemotright.cap" horiz-adv-x="578" 
d="M96 544h109l111 -211l-172 -211h-115l143 211zM322 544h109l110 -211l-172 -211h-115l143 211z" />
    <glyph glyph-name="slash.cap" horiz-adv-x="562" 
d="M-14 -75l460 844h160l-460 -844h-160z" />
    <glyph glyph-name="backslash.cap" horiz-adv-x="553" 
d="M120 769h151l192 -844h-149z" />
    <glyph glyph-name="bar.cap" horiz-adv-x="351" 
d="M185 769h145l-134 -844h-145z" />
    <glyph glyph-name="periodcentered.cap" horiz-adv-x="358" 
d="M88 260l29 185h185l-29 -185h-185z" />
    <glyph glyph-name="bullet.cap" horiz-adv-x="523" 
d="M108 369q0 70 51 120.5t122 50.5q72 0 122 -50t50 -121q0 -72 -50 -122.5t-122 -50.5q-71 0 -122 51t-51 122z" />
    <glyph glyph-name="hyphen.cap" horiz-adv-x="457" 
d="M91 280l23 137h282l-21 -137h-284z" />
    <glyph glyph-name="endash.cap" horiz-adv-x="678" 
d="M94 288l18 119h503l-18 -119h-503z" />
    <glyph glyph-name="emdash.cap" horiz-adv-x="1004" 
d="M94 288l18 119h830l-19 -119h-829z" />
    <glyph glyph-name="parenleft.cap" horiz-adv-x="452" 
d="M493 769q-234 -262 -234 -509q0 -173 101 -335h-154q-109 156 -109 341q0 267 239 503h157z" />
    <glyph glyph-name="parenright.cap" horiz-adv-x="452" 
d="M-11 -75q234 262 234 509q0 173 -101 335h154q109 -156 109 -341q0 -267 -239 -503h-157z" />
    <glyph glyph-name="bracketleft.cap" horiz-adv-x="426" 
d="M317 655l-98 -616h122l-17 -114h-283l134 844h282l-19 -114h-121z" />
    <glyph glyph-name="bracketright.cap" horiz-adv-x="427" 
d="M140 39l98 616h-122l17 114h283l-134 -844h-282l19 114h121z" />
    <glyph glyph-name="braceleft.cap" horiz-adv-x="445" 
d="M43 289l19 116h39q26 0 43.5 16t21.5 42l30 182q19 124 166 124h114l-18 -113h-66q-46 0 -52 -41l-27 -173q-7 -41 -39 -66t-76 -29q39 -4 62.5 -24t23.5 -54q0 -14 -15 -101t-15 -99q0 -31 41 -31h65l-18 -113h-114q-129 0 -129 97q0 17 15.5 115t15.5 107q0 45 -48 45
h-39z" />
    <glyph glyph-name="braceright.cap" horiz-adv-x="445" 
d="M432 405l-19 -116h-39q-26 0 -43.5 -16t-21.5 -42l-30 -182q-19 -124 -166 -124h-114l18 113h66q46 0 52 41l27 173q7 41 39 66t76 29q-39 4 -62.5 24t-23.5 54q0 14 15 101t15 99q0 31 -41 31h-65l18 113h114q129 0 129 -97q0 -17 -15.5 -115t-15.5 -107q0 -45 48 -45
h39z" />
    <glyph glyph-name="at.cap" horiz-adv-x="915" 
d="M722 556l-76 -289q-4 -12 -4 -22q0 -32 36 -32q60 0 99.5 65.5t39.5 167.5q0 112 -77.5 176t-206.5 64q-171 0 -282.5 -115t-111.5 -284q0 -79 29.5 -137t79.5 -89.5t107 -46.5t121 -15q121 0 231 45l26 -69q-118 -56 -264 -56q-84 0 -158 22.5t-133.5 66t-94.5 116
t-35 164.5q0 96 37.5 183.5t102 153t156.5 104t196 38.5q163 0 263.5 -90.5t100.5 -230.5q0 -142 -79 -228t-187 -86q-85 0 -120 63q-20 -27 -55.5 -43t-71.5 -16q-69 0 -106.5 44.5t-37.5 115.5q0 47 16 94t45.5 86.5t76 64t101.5 24.5q34 0 61 -15.5t36 -37.5l13 44h126z
M534 326q13 48 13 66q0 29 -15 46t-40 17q-50 0 -80 -45.5t-30 -97.5q0 -68 60 -68q29 0 55 20.5t37 61.5z" />
    <glyph glyph-name="uni0192.lt" 
d="M494 278h-120l-129 -387h-161l130 387h-75l19 127h99l51 151q33 97 98 144.5t151 47.5q47 0 76 -12l-24 -150q-24 9 -54 9q-77 0 -105 -88l-34 -102h98z" />
    <glyph glyph-name="Euro.lt" 
d="M640 239q-35 -116 -111 -183.5t-189 -67.5q-108 0 -169.5 67t-70.5 183h-79l14 92h65q1 20 7 58h-62l14 91h71q40 113 122 180t190 67q112 0 169 -66.5t59 -183.5h-150q-2 117 -93 117q-93 0 -142 -114h165l-26 -91h-166q-3 -18 -7 -58h156l-26 -92h-128
q14 -117 107 -117q95 0 130 118h150z" />
    <glyph glyph-name="dollar.lt" 
d="M627 240q0 -108 -82.5 -177t-208.5 -74l-17 -99h-84l17 103q-107 14 -168.5 72t-63.5 154h157q4 -86 96 -103l30 178l-55 11q-68 14 -114.5 59t-46.5 116q0 108 81.5 175t207.5 69l16 94h85l-17 -100q96 -15 147 -70.5t53 -139.5h-147q-2 63 -74 85l-29 -171l58 -12
q76 -16 117.5 -60.5t41.5 -109.5zM241 508q0 -28 20.5 -44t66.5 -26l27 162q-51 -4 -82.5 -29t-31.5 -63zM386 278h-1l-28 -166q58 6 88.5 31t30.5 66q0 27 -20.5 43t-69.5 26z" />
    <glyph glyph-name="cent.lt" 
d="M576 194q-24 -86 -85.5 -139.5t-153.5 -62.5l-17 -98h-84l18 102q-82 16 -131 77t-49 149q0 127 78.5 215.5t197.5 99.5l19 109h84l-20 -112q80 -13 122.5 -65.5t42.5 -133.5h-130q-4 66 -55 84l-54 -307q59 15 81 82h136zM220 225q0 -81 55 -108l53 300
q-55 -18 -81.5 -70.5t-26.5 -121.5z" />
    <glyph glyph-name="sterling.lt" 
d="M598 134l-21 -134h-574l21 134h15q41 0 71 37t34 100h-91l18 115h60q-9 47 -9 83q0 108 81 182.5t206 74.5q117 0 180 -61.5t63 -160.5q0 -7 -2 -25h-161q1 9 1 21q0 43 -22 69.5t-68 26.5q-51 0 -82 -33t-31 -87q0 -13 2 -27t6.5 -34t6.5 -29h152l-18 -115h-134
q-15 -81 -82 -137h378z" />
    <glyph glyph-name="yen.lt" 
d="M572 170h-172l-27 -170h-164l27 170h-173l15 92h173l9 60h-172l15 92h120l-131 300h176l102 -252h1l171 252h173l-225 -300h122l-14 -92h-174l-9 -60h172z" />
    <glyph glyph-name="zero.lt" 
d="M305 -12q-118 0 -187.5 83.5t-69.5 218.5q0 113 40 212t119.5 162t181.5 63q118 0 187 -83.5t70 -218.5q-1 -113 -41 -211.5t-119 -162t-181 -63.5zM312 118q59 0 99.5 61t56.5 167q8 53 8 100q0 150 -94 150q-60 0 -100.5 -60.5t-55.5 -166.5q-8 -53 -8 -100
q0 -151 94 -151z" />
    <glyph glyph-name="one.lt" 
d="M601 132l-20 -132h-548l21 132h199l58 363h-181l18 114q124 0 174 23t73 82h124l-93 -582h175z" />
    <glyph glyph-name="two.lt" 
d="M640 532q0 -51 -18.5 -92.5t-58 -75.5t-79 -57.5t-102.5 -54.5q-76 -37 -111.5 -63.5t-44.5 -54.5h355l-21 -134h-549l10 61q28 177 275 302q106 54 142.5 84.5t36.5 74.5q0 33 -21.5 53t-62.5 20q-49 0 -84 -33.5t-45 -83.5h-167q23 109 104.5 178.5t205.5 69.5
q106 0 170.5 -53.5t64.5 -140.5z" />
    <glyph glyph-name="three.lt" 
d="M597 213q0 -88 -77 -156.5t-215 -68.5q-130 0 -203.5 63t-73.5 166h165q0 -51 32 -76t90 -25q56 0 90 29t34 71q0 80 -107 80h-68l19 122h68q55 0 88 27t33 74q0 34 -24 56t-66 22q-50 0 -83.5 -28t-43.5 -75h-159q23 100 101 166t198 66q113 0 175 -54t62 -135
q0 -66 -45 -116t-111 -62q55 -11 88 -51t33 -95z" />
    <glyph glyph-name="four.lt" 
d="M595 714l-67 -420h118l-20 -131h-117l-26 -163h-165l26 163h-338l21 132l372 419h196zM406 559l-238 -265h196z" />
    <glyph glyph-name="five.lt" 
d="M351 359q-69 0 -113 -52h-157l106 407h463l-21 -134h-337l-37 -142q23 19 62.5 33.5t84.5 14.5q98 0 155.5 -56.5t57.5 -149.5q0 -123 -87 -207.5t-227 -84.5q-128 0 -196.5 63t-68.5 170h174q0 -50 26.5 -78t75.5 -28q61 0 97.5 42t36.5 104q0 44 -23.5 71t-71.5 27z
" />
    <glyph glyph-name="six.lt" 
d="M410 597q-67 0 -118.5 -57.5t-65.5 -143.5q68 81 175 81q88 0 154.5 -58t66.5 -153q0 -115 -87 -196.5t-218 -81.5q-117 0 -191 76.5t-74 204.5q0 188 106.5 322.5t265.5 134.5q101 0 168 -55.5t69 -151.5h-154q-7 78 -97 78zM325 111q59 0 98 41.5t39 100.5
q0 49 -31.5 77t-78.5 28q-59 0 -98 -41t-39 -100q0 -49 31.5 -77.5t78.5 -28.5z" />
    <glyph glyph-name="seven.lt" 
d="M471 580h-392l21 134h561l-22 -136q-147 -150 -220.5 -281.5t-101.5 -296.5h-178q28 160 113.5 300t218.5 280z" />
    <glyph glyph-name="eight.lt" 
d="M305 -12q-126 0 -202.5 51.5t-76.5 139.5q0 71 53.5 125t121.5 64q-90 44 -90 133q0 101 80.5 163t203.5 62q108 0 177 -48t69 -132q0 -65 -39.5 -115t-102.5 -72q50 -13 83.5 -52.5t33.5 -92.5q0 -100 -88 -163t-223 -63zM366 422q55 0 89 28.5t34 78.5q0 40 -29 59.5
t-75 19.5q-55 0 -89 -28.5t-34 -78.5q0 -40 29.5 -59.5t74.5 -19.5zM331 305q-65 0 -102.5 -31.5t-37.5 -79.5q0 -39 33.5 -62t93.5 -23q66 0 102.5 32.5t36.5 79.5q0 39 -33 61.5t-93 22.5z" />
    <glyph glyph-name="nine.lt" 
d="M284 117q67 0 118.5 57.5t65.5 143.5q-68 -81 -175 -81q-88 0 -154.5 58t-66.5 153q0 115 87 196.5t218 81.5q117 0 191 -76.5t74 -204.5q0 -188 -106.5 -322.5t-265.5 -134.5q-101 0 -168 55.5t-69 151.5h154q7 -78 97 -78zM369 603q-59 0 -98 -41.5t-39 -100.5
q0 -49 31.5 -77t78.5 -28q59 0 98 41t39 100q0 49 -31.5 77.5t-78.5 28.5z" />
    <glyph glyph-name="zero.dnom" horiz-adv-x="437" 
d="M187 -7q-74 0 -117.5 47t-43.5 122q0 96 56 167t151 71q74 0 117.5 -46.5t43.5 -121.5q0 -97 -56.5 -168t-150.5 -71zM227 319q-64 0 -85 -116q-6 -25 -6 -51q0 -37 15 -58t42 -21q63 0 85 117q5 28 5 51q0 78 -56 78z" />
    <glyph glyph-name="one.dnom" horiz-adv-x="357" 
d="M297 72l-12 -72h-285l11 72h93l31 194h-93l10 68q64 0 88 12.5t37 45.5h81l-51 -320h90z" />
    <glyph glyph-name="two.dnom" horiz-adv-x="379" 
d="M350 289q0 -53 -34.5 -85.5t-105.5 -65.5q-72 -34 -80 -54h190l-14 -84h-312l6 37q9 58 49.5 95t102.5 70q61 31 77.5 44.5t16.5 36.5q0 34 -39 34q-23 0 -39.5 -16t-21.5 -40h-107q13 61 59.5 99.5t117.5 38.5q60 0 97 -29.5t37 -80.5z" />
    <glyph glyph-name="three.dnom" horiz-adv-x="384" 
d="M328 118q0 -49 -43 -87t-121 -38q-74 0 -115.5 36t-41.5 91h104q0 -46 60 -46q26 0 41.5 13.5t15.5 32.5q0 37 -52 37h-37l12 77h36q28 0 43.5 13t15.5 35q0 16 -11 26.5t-31 10.5q-51 0 -59 -46h-102q14 55 57.5 90.5t112.5 35.5q65 0 100 -30.5t35 -75.5q0 -36 -24 -63
t-61 -35q30 -6 47.5 -26.5t17.5 -50.5z" />
    <glyph glyph-name="four.dnom" horiz-adv-x="428" 
d="M346 391l-38 -238h75l-12 -74h-76l-12 -79h-99l12 79h-194l13 74l219 238h112zM230 294l-125 -141h103z" />
    <glyph glyph-name="five.dnom" horiz-adv-x="394" 
d="M187 189q-35 0 -53 -24h-99l58 227h265l-14 -84h-186l-17 -65q31 22 80 22q54 0 86 -30t32 -80q0 -69 -49 -115.5t-129 -46.5q-74 0 -112 35.5t-38 94.5h110q0 -50 48 -50q28 0 45.5 20t17.5 50q0 46 -45 46z" />
    <glyph glyph-name="six.dnom" horiz-adv-x="399" 
d="M223 318q-32 0 -56.5 -26t-31.5 -65q35 33 90 33q48 0 85.5 -30.5t37.5 -83.5q0 -63 -50 -108t-124 -45q-67 0 -108.5 42t-41.5 114q0 98 59.5 174.5t148.5 76.5q57 0 95.5 -31.5t39.5 -85.5h-98q-3 35 -46 35zM180 70q28 0 46.5 20t18.5 48q0 24 -15 37t-37 13
q-28 0 -47 -20t-19 -48q0 -24 15.5 -37t37.5 -13z" />
    <glyph glyph-name="seven.dnom" horiz-adv-x="367" 
d="M237 308h-197l14 83h303l-14 -87q-76 -78 -110 -145t-50 -159h-114q28 156 168 308z" />
    <glyph glyph-name="eight.dnom" horiz-adv-x="402" 
d="M171 -7q-71 0 -114.5 28.5t-43.5 78.5q0 38 28.5 67.5t64.5 35.5q-47 23 -47 71q0 56 45 91t115 35q61 0 101 -27.5t40 -74.5q0 -34 -21 -61.5t-55 -40.5q26 -6 44 -27.5t18 -50.5q0 -56 -49.5 -90.5t-125.5 -34.5zM205 236q26 0 42.5 13.5t16.5 37.5q0 39 -51 39
q-26 0 -42.5 -14t-16.5 -38q0 -38 51 -38zM184 164q-32 0 -49 -15.5t-17 -38.5q0 -41 61 -41q32 0 49 15.5t17 38.5q0 41 -61 41z" />
    <glyph glyph-name="nine.dnom" horiz-adv-x="400" 
d="M159 74q31 0 55.5 26.5t31.5 65.5q-37 -34 -88 -34q-49 0 -86 31t-37 83q0 64 49 109t123 45q68 0 109.5 -42t41.5 -114q0 -99 -59 -175t-149 -76q-57 0 -95.5 31.5t-39.5 85.5h98q4 -36 46 -36zM202 322q-28 0 -46.5 -19.5t-18.5 -47.5q0 -24 15.5 -37t37.5 -13
q28 0 46.5 20t18.5 48q0 24 -15.5 36.5t-37.5 12.5z" />
    <glyph glyph-name="percent.lt" 
d="M195 406q-61 0 -100 39.5t-39 98.5q0 74 55 128t129 54q60 0 100 -39.5t40 -98.5q0 -74 -55.5 -128t-129.5 -54zM611 714h99l-628 -714h-99zM207 488q35 0 61.5 27t26.5 62q0 29 -19 48t-48 19q-35 0 -61 -27t-26 -62q0 -29 18.5 -48t47.5 -19zM453 -12q-60 0 -99.5 39.5
t-39.5 98.5q0 74 55 128t129 54q61 0 100.5 -39.5t39.5 -97.5q0 -74 -55.5 -128.5t-129.5 -54.5zM465 70q36 0 62 27t26 62q0 29 -18.5 48t-47.5 19q-36 0 -62 -26.5t-26 -61.5q0 -30 18.5 -49t47.5 -19z" />
    <glyph glyph-name="period.tab" horiz-adv-x="330" 
d="M33 0l29 185h185l-29 -185h-185z" />
    <glyph glyph-name="comma.tab" horiz-adv-x="330" 
d="M34 6l28 179h185l-30 -189q-13 -84 -72.5 -128t-151.5 -44l13 85q48 1 76 19t36 67l2 11h-86z" />
    <glyph glyph-name="colon.tab" horiz-adv-x="330" 
d="M82 311l29 185h185l-29 -185h-185zM33 0l29 185h185l-29 -185h-185z" />
    <glyph glyph-name="semicolon.tab" horiz-adv-x="330" 
d="M82 311l29 185h185l-29 -185h-185zM34 6l28 179h185l-30 -189q-13 -84 -72.5 -128t-151.5 -44l13 85q48 1 76 19t36 67l2 11h-86z" />
    <glyph glyph-name="space.tab" horiz-adv-x="330" 
 />
    <glyph glyph-name="thinspace" horiz-adv-x="61" 
 />
    <glyph glyph-name="zero.slash" horiz-adv-x="715" 
d="M330 -12q-128 0 -203.5 83.5t-75.5 218.5q0 114 42.5 212t128 161t196.5 63q129 0 204 -83.5t75 -218.5q0 -114 -42.5 -212t-128 -161t-196.5 -63zM217 274q0 -53 16 -93l227 413q-24 11 -52 11q-70 0 -117 -63t-65 -173q-9 -51 -9 -95zM531 441q0 47 -12 82l-224 -406
q22 -8 45 -8q70 0 116.5 63.5t65.5 172.5q9 53 9 96z" />
    <glyph glyph-name="zero.slashlt" 
d="M305 -12q-118 0 -187.5 83.5t-69.5 218.5q0 113 40 212t119.5 162t181.5 63q118 0 187 -83.5t70 -218.5q-1 -113 -41 -211.5t-119 -162t-181 -63.5zM210 266q0 -31 4 -51l225 370q-23 20 -56 20q-64 0 -106.5 -63t-58.5 -173q-8 -64 -8 -103zM484 449q0 27 -5 54
l-226 -372q24 -21 58 -21q64 0 106 63t59 173q6 47 8 103z" />
    <glyph glyph-name="CR" horiz-adv-x="221" 
 />
    </font>
</defs>
</svg>
