<?xml version="1.0" standalone="no"?>
<!DOCTYPE svg PUBLIC "-//W3C//DTD SVG 1.1//EN" "http://www.w3.org/Graphics/SVG/1.1/DTD/svg11.dtd" >
<svg xmlns="http://www.w3.org/2000/svg" xmlns:xlink="http://www.w3.org/1999/xlink" version="1.1">
<metadata>
Created by FontForge 20170731 at Mon Mar 20 13:25:11 2017
 By Aleksey,,,
(c) 2016 Klim Type Foundry. All Rights Reserved.
</metadata>
<defs>
<font id="UntitledSans-MediumItalic" horiz-adv-x="660" >
  <font-face 
    font-family="Untitled Sans Medium"
    font-weight="500"
    font-style="italic"
    font-stretch="normal"
    units-per-em="1000"
    panose-1="2 11 6 3 3 2 2 13 2 3"
    ascent="800"
    descent="-200"
    x-height="508"
    cap-height="714"
    bbox="-251 -232 1133 972"
    underline-thickness="50"
    underline-position="-200"
    slope="-9"
    unicode-range="U+0020-2212"
  />
<missing-glyph horiz-adv-x="1232" 
d="M1031 473v-55q-24 -8 -53 -8q-84 0 -84 84v125h-36v52h36v65h74v-65h57v-52h-57v-116q0 -34 30 -34q14 0 33 4zM359 671v-40q21 47 79 47q45 0 70 -26t25 -73v-165h-75v148q0 59 -47 59q-52 0 -52 -68v-139h-75v257h75zM572 544q0 62 37 98t97 36q59 0 96 -36.5t37 -97.5
q0 -62 -37 -98.5t-96 -36.5q-60 0 -97 36.5t-37 98.5zM646 544q0 -82 60 -82q28 0 43 22t15 60t-15 59t-43 21q-60 0 -60 -80zM139 414v85h85v-85h-85zM1031 303q-19 4 -33 4q-30 0 -30 -34v-15h57v-52h-57v-206h-74v206h-36v52h36v24q0 84 84 84q29 0 53 -8v-55zM459 0v41
q-9 -20 -30.5 -33.5t-49.5 -13.5q-51 0 -82 37.5t-31 97.5t31 97.5t82 37.5q55 0 79 -46v145h75v-363h-74zM833 81q-24 -87 -125 -87q-60 0 -98 36t-38 98q0 61 39 98t97 37q62 0 95.5 -37.5t33.5 -92.5v-23h-193q8 -63 64 -63q41 0 53 34h72zM708 211q-51 0 -62 -56h118
q-1 24 -15 40t-41 16zM460 124v9q0 36 -16 56.5t-44 20.5t-44 -22t-16 -59q0 -38 16 -60t44 -22t44 20.5t16 56.5z" />
    <glyph glyph-name="f_idieresis" unicode="f&#xef;" horiz-adv-x="628" 
d="M267 551l-7 -43h104l-15 -92h-104l-65 -416h-128l66 416h-70l15 92h70l7 47q13 85 76 134.5t153 49.5q52 0 95 -13l-16 -99q-33 12 -77 12q-90 0 -104 -88zM575 594l20 125h118l-20 -125h-118zM462 508h128l-80 -508h-129z" />
    <glyph glyph-name=".notdef" horiz-adv-x="1232" 
d="M1031 473v-55q-24 -8 -53 -8q-84 0 -84 84v125h-36v52h36v65h74v-65h57v-52h-57v-116q0 -34 30 -34q14 0 33 4zM359 671v-40q21 47 79 47q45 0 70 -26t25 -73v-165h-75v148q0 59 -47 59q-52 0 -52 -68v-139h-75v257h75zM572 544q0 62 37 98t97 36q59 0 96 -36.5t37 -97.5
q0 -62 -37 -98.5t-96 -36.5q-60 0 -97 36.5t-37 98.5zM646 544q0 -82 60 -82q28 0 43 22t15 60t-15 59t-43 21q-60 0 -60 -80zM139 414v85h85v-85h-85zM1031 303q-19 4 -33 4q-30 0 -30 -34v-15h57v-52h-57v-206h-74v206h-36v52h36v24q0 84 84 84q29 0 53 -8v-55zM459 0v41
q-9 -20 -30.5 -33.5t-49.5 -13.5q-51 0 -82 37.5t-31 97.5t31 97.5t82 37.5q55 0 79 -46v145h75v-363h-74zM833 81q-24 -87 -125 -87q-60 0 -98 36t-38 98q0 61 39 98t97 37q62 0 95.5 -37.5t33.5 -92.5v-23h-193q8 -63 64 -63q41 0 53 34h72zM708 211q-51 0 -62 -56h118
q-1 24 -15 40t-41 16zM460 124v9q0 36 -16 56.5t-44 20.5t-44 -22t-16 -59q0 -38 16 -60t44 -22t44 20.5t16 56.5z" />
    <glyph glyph-name=".null" horiz-adv-x="0" 
 />
    <glyph glyph-name="nonmarkingreturn" horiz-adv-x="333" 
 />
    <glyph glyph-name="space" unicode=" " horiz-adv-x="210" 
 />
    <glyph glyph-name="exclam" unicode="!" horiz-adv-x="326" 
d="M162 714h148l-98 -480h-104zM48 0l23 145h150l-23 -145h-150z" />
    <glyph glyph-name="quotedbl" unicode="&#x22;" horiz-adv-x="465" 
d="M317 443l29 293h125l-69 -293h-85zM120 443l28 293h126l-69 -293h-85z" />
    <glyph glyph-name="numbersign" unicode="#" horiz-adv-x="706" 
d="M309 40l73 178h-142l-73 -178h-92l73 178h-115l31 81h117l53 128h-121l30 82h125l73 179h91l-73 -179h142l73 179h91l-73 -179h116l-31 -82h-119l-52 -128h122l-31 -81h-124l-73 -178h-91zM273 299h142l52 128h-142z" />
    <glyph glyph-name="dollar" unicode="$" horiz-adv-x="668" 
d="M620 231q0 -103 -81 -170t-205 -71l-17 -99h-72l17 102q-106 12 -169 69t-64 153h124q6 -107 125 -126l37 221l-55 12q-70 14 -115.5 55.5t-45.5 110.5q0 105 81.5 171t203.5 66l16 94h72l-17 -99q94 -14 145.5 -67t53.5 -134h-118q-3 79 -97 101l-36 -213l58 -12
q76 -17 117.5 -58.5t41.5 -105.5zM321 425l13 -3l34 204q-68 -3 -107.5 -36.5t-39.5 -82.5q0 -34 23.5 -52t76.5 -30zM398 293l-13 3l-35 -209q69 5 109 37.5t40 82.5q0 33 -23 53t-78 33z" />
    <glyph glyph-name="percent" unicode="%" horiz-adv-x="832" 
d="M236 395q-62 0 -103 41t-41 102q0 76 57 132t133 56q62 0 103 -41t41 -102q0 -75 -57.5 -131.5t-132.5 -56.5zM694 714h96l-620 -714h-94zM247 470q41 0 71 31.5t30 71.5q0 34 -21.5 56t-55.5 22q-41 0 -71 -31.5t-30 -71.5q0 -34 21.5 -56t55.5 -22zM583 -11
q-63 0 -103.5 41t-40.5 102q0 75 57 131.5t132 56.5q63 0 104 -41.5t41 -102.5q0 -75 -57.5 -131t-132.5 -56zM594 63q41 0 71 31.5t30 71.5q0 35 -21.5 57t-55.5 22q-41 0 -71 -31.5t-30 -71.5q0 -35 21.5 -57t55.5 -22z" />
    <glyph glyph-name="ampersand" unicode="&#x26;" horiz-adv-x="770" 
d="M554 0l-53 62q-112 -74 -243 -74q-97 0 -158.5 50t-61.5 129q0 76 45 127t138 94q-53 70 -53 133q0 89 67.5 147t168.5 58q85 0 136 -43t51 -106q0 -71 -47.5 -117t-154.5 -92l136 -158q54 68 81 163h113q-35 -137 -130 -237l117 -136h-152zM286 533q0 -40 46 -98
q83 33 113 60.5t30 69.5q0 32 -22.5 53t-59.5 21q-45 0 -76 -30.5t-31 -75.5zM163 185q0 -44 32.5 -72t84.5 -28q89 0 160 47l-163 189q-57 -27 -85.5 -58t-28.5 -78z" />
    <glyph glyph-name="quotesingle" unicode="'" horiz-adv-x="270" 
d="M120 443l28 293h128l-68 -293h-88z" />
    <glyph glyph-name="parenleft" unicode="(" horiz-adv-x="423" 
d="M450 736q-234 -262 -234 -509q0 -173 101 -335h-119q-106 158 -106 339q0 267 236 505h122z" />
    <glyph glyph-name="parenright" unicode=")" horiz-adv-x="424" 
d="M-7 -108q234 262 234 509q0 173 -101 335h119q106 -158 106 -339q0 -267 -236 -505h-122z" />
    <glyph glyph-name="asterisk" unicode="*" horiz-adv-x="431" 
d="M254 726l75 -13l-21 -124l122 19l13 -76l-124 -19l55 -111l-68 -35l-55 113l-89 -88l-53 54l89 87l-111 59l35 68l110 -59z" />
    <glyph glyph-name="plus" unicode="+" 
d="M599 285h-217l-34 -217h-94l34 217h-218l16 95h217l34 217h95l-34 -217h217z" />
    <glyph glyph-name="comma" unicode="," horiz-adv-x="327" 
d="M49 4l23 145h150l-26 -159q-11 -74 -63 -115.5t-132 -41.5l11 69q44 0 70 19.5t33 68.5l3 14h-69z" />
    <glyph glyph-name="hyphen" unicode="-" horiz-adv-x="454" 
d="M83 231l17 107h281l-18 -107h-280z" />
    <glyph glyph-name="period" unicode="." horiz-adv-x="327" 
d="M49 0l23 149h150l-24 -149h-149z" />
    <glyph glyph-name="slash" unicode="/" horiz-adv-x="536" 
d="M-14 -108l459 844h124l-459 -844h-124z" />
    <glyph glyph-name="zero" unicode="0" horiz-adv-x="695" 
d="M318 -12q-121 0 -190.5 81.5t-69.5 214.5q0 116 42 216t124 163t186 63q120 0 189.5 -81.5t69.5 -214.5q0 -116 -42 -216t-123.5 -163t-185.5 -63zM326 92q79 0 131.5 69t71.5 188q8 49 8 91q0 86 -34.5 134t-100.5 48q-80 0 -132 -69t-71 -188q-8 -49 -8 -91
q0 -86 34.5 -134t100.5 -48z" />
    <glyph glyph-name="one" unicode="1" horiz-adv-x="405" 
d="M72 521l13 88q89 0 135.5 25t68.5 82h91l-113 -716h-133l83 521h-145z" />
    <glyph glyph-name="two" unicode="2" horiz-adv-x="596" 
d="M595 539q0 -35 -9 -65.5t-29 -57t-40 -47t-54.5 -43t-60 -37t-67.5 -36.5q-82 -44 -125.5 -78.5t-51.5 -69.5h375l-17 -105h-521l9 51q25 160 273 293q106 57 149 95.5t43 92.5q0 40 -26 65.5t-78 25.5q-60 0 -101 -39t-54 -98h-127q22 105 99 172.5t193 67.5
q102 0 161 -52.5t59 -134.5z" />
    <glyph glyph-name="three" unicode="3" horiz-adv-x="621" 
d="M569 211q0 -87 -74.5 -155t-207.5 -68q-120 0 -190.5 61t-70.5 164h127q0 -60 37 -92t104 -32q70 0 111 36.5t41 88.5q0 46 -32.5 71t-89.5 25h-71l16 98h70q62 0 101 32t39 90q0 41 -28.5 68t-79.5 27q-61 0 -101.5 -35.5t-52.5 -92.5h-122q21 99 96 164t189 65
q106 0 165 -53t59 -132q0 -69 -46.5 -118.5t-112.5 -61.5q55 -12 89.5 -53.5t34.5 -96.5z" />
    <glyph glyph-name="four" unicode="4" horiz-adv-x="689" 
d="M586 714l-69 -434h143l-16 -101h-142l-29 -179h-127l29 179h-354l16 102l405 433h144zM440 590l-286 -310h237z" />
    <glyph glyph-name="five" unicode="5" horiz-adv-x="628" 
d="M338 381q-85 0 -137 -66h-120l104 399h436l-17 -105h-339l-49 -187q26 24 69 41.5t89 17.5q98 0 153.5 -57t55.5 -148q0 -120 -83 -204t-215 -84q-119 0 -185 61t-66 168h131q0 -60 33 -94.5t94 -34.5q75 0 118.5 51.5t43.5 122.5q0 52 -29 85.5t-87 33.5z" />
    <glyph glyph-name="six" unicode="6" horiz-adv-x="643" 
d="M403 624q-80 0 -139.5 -73t-74.5 -181q67 107 193 107q90 0 153 -59.5t63 -151.5q0 -114 -83.5 -196t-208.5 -82q-112 0 -181 75.5t-69 203.5q0 189 103.5 324t253.5 135q99 0 161 -54t63 -148h-119q-3 48 -32.5 74t-82.5 26zM313 86q70 0 116 50t46 121q0 56 -35.5 90
t-92.5 34q-69 0 -116 -48.5t-47 -118.5q0 -58 36 -93t93 -35z" />
    <glyph glyph-name="seven" unicode="7" horiz-adv-x="585" 
d="M470 609h-387l17 105h522l-16 -101q-144 -147 -216.5 -290t-102.5 -323h-137q57 328 320 609z" />
    <glyph glyph-name="eight" unicode="8" horiz-adv-x="652" 
d="M298 -12q-120 0 -193 51t-73 136q0 74 55 128.5t126 64.5q-93 42 -93 135q0 100 78 161.5t195 61.5q102 0 166.5 -47t64.5 -128q0 -68 -40.5 -119t-106.5 -73q52 -12 87 -52.5t35 -93.5q0 -99 -85.5 -162t-215.5 -63zM359 410q64 0 105.5 34.5t41.5 93.5q0 46 -34.5 69.5
t-87.5 23.5q-64 0 -105 -34t-41 -93q0 -46 34.5 -70t86.5 -24zM328 317q-76 0 -121.5 -36.5t-45.5 -94.5q0 -47 39 -74.5t108 -27.5q78 0 122 38.5t44 94.5q0 46 -38.5 73t-107.5 27z" />
    <glyph glyph-name="nine" unicode="9" horiz-adv-x="643" 
d="M274 93q80 0 139.5 73t74.5 181q-67 -107 -193 -107q-90 0 -153 59.5t-63 151.5q0 114 83.5 196t208.5 82q112 0 181 -75.5t69 -203.5q0 -189 -103.5 -324t-253.5 -135q-99 0 -161 54t-63 148h119q3 -48 32.5 -74t82.5 -26zM364 631q-70 0 -116 -50t-46 -121
q0 -56 35.5 -90t92.5 -34q69 0 116 48.5t47 118.5q0 58 -36 93t-93 35z" />
    <glyph glyph-name="colon" unicode=":" horiz-adv-x="327" 
d="M100 325l23 149h150l-24 -149h-149zM49 0l23 149h150l-24 -149h-149z" />
    <glyph glyph-name="semicolon" unicode=";" horiz-adv-x="327" 
d="M100 325l23 149h150l-24 -149h-149zM49 4l23 145h150l-26 -159q-11 -74 -63 -115.5t-132 -41.5l11 69q44 0 70 19.5t33 68.5l3 14h-69z" />
    <glyph glyph-name="less" unicode="&#x3c;" 
d="M96 269l20 122l492 201l-17 -110l-385 -154l336 -154l-17 -106z" />
    <glyph glyph-name="equal" unicode="=" 
d="M90 381l15 89h517l-13 -89h-519zM59 181l14 89h518l-14 -89h-518z" />
    <glyph glyph-name="greater" unicode="&#x3e;" 
d="M569 269l-493 -201l17 111l385 154l-336 153l17 106l430 -201z" />
    <glyph glyph-name="question" unicode="?" horiz-adv-x="587" 
d="M590 541q0 -76 -46 -131t-127 -105q-35 -22 -54 -41t-26 -50h-125q15 86 137 165q57 37 86 70t29 81q0 41 -26 67.5t-79 26.5q-61 0 -101.5 -39t-53.5 -98h-127q22 104 100 171.5t193 67.5q103 0 161.5 -51.5t58.5 -133.5zM166 0l22 139h149l-22 -139h-149z" />
    <glyph glyph-name="at" unicode="@" horiz-adv-x="914" 
d="M690 449l-73 -289q-4 -12 -4 -23q0 -35 41 -35q65 0 107.5 67.5t42.5 170.5q0 114 -79.5 181t-211.5 67q-175 0 -284 -116.5t-109 -281.5q0 -79 29.5 -138.5t79.5 -93t108.5 -49.5t124.5 -16q121 0 228 44l22 -59q-115 -54 -255 -54q-82 0 -155 22.5t-131.5 65.5
t-93 114.5t-34.5 162.5q0 94 36 180t98 150t151.5 101.5t190.5 37.5q161 0 260 -89.5t99 -227.5q0 -136 -75 -221.5t-178 -85.5q-85 0 -112 66q-20 -29 -55 -46t-72 -17q-67 0 -103.5 44.5t-36.5 113.5q0 98 63 180.5t167 82.5q36 0 63.5 -17.5t36.5 -41.5l14 50h100z
M531 221q14 53 14 75q0 35 -18 54.5t-47 19.5q-57 0 -92.5 -52.5t-35.5 -112.5q0 -38 18.5 -59.5t52.5 -21.5t65 25t43 72z" />
    <glyph glyph-name="A" unicode="A" horiz-adv-x="746" 
d="M560 0l-38 175h-318l-98 -175h-135l406 714h149l168 -714h-134zM432 585l-171 -307h239l-66 307h-2z" />
    <glyph glyph-name="B" unicode="B" horiz-adv-x="699" 
d="M358 0h-316l113 714h290q227 0 227 -170q0 -64 -39 -113.5t-94 -64.5q52 -14 82 -52t30 -91q0 -100 -78.5 -161.5t-214.5 -61.5zM237 412h159q148 0 148 117q0 87 -115 87h-160zM222 317l-35 -219h177q77 0 117 34.5t40 89.5q0 95 -124 95h-175z" />
    <glyph glyph-name="C" unicode="C" horiz-adv-x="708" 
d="M355 -12q-139 0 -219.5 84t-80.5 222q0 180 108.5 306t279.5 126q124 0 192.5 -64.5t73.5 -171.5h-130q-2 58 -38.5 94.5t-104.5 36.5q-113 0 -179.5 -96.5t-66.5 -233.5q0 -91 44.5 -144.5t126.5 -53.5q129 0 176 131h130q-34 -109 -112 -172.5t-200 -63.5z" />
    <glyph glyph-name="D" unicode="D" horiz-adv-x="754" 
d="M154 714h268q148 0 228.5 -81t80.5 -218q0 -184 -115.5 -299.5t-296.5 -115.5h-278zM403 609h-134l-81 -504h143q120 0 192.5 84t72.5 224q0 196 -193 196z" />
    <glyph glyph-name="E" unicode="E" horiz-adv-x="654" 
d="M41 0l113 714h514l-16 -105h-384l-32 -199h339l-17 -105h-339l-31 -200h387l-17 -105h-517z" />
    <glyph glyph-name="F" unicode="F" horiz-adv-x="630" 
d="M41 0l113 714h494l-16 -105h-361l-35 -218h323l-17 -105h-323l-45 -286h-133z" />
    <glyph glyph-name="G" unicode="G" horiz-adv-x="763" 
d="M340 -12q-127 0 -206 83.5t-79 220.5q0 181 108.5 307.5t279.5 126.5q125 0 195 -64.5t75 -170.5h-129q-3 57 -41 93.5t-106 36.5q-114 0 -180.5 -96.5t-66.5 -233.5q0 -90 44 -144.5t126 -54.5q83 0 137.5 45t66.5 131h-138l15 96h271l-58 -363h-103l7 101
q-27 -52 -87 -83t-131 -31z" />
    <glyph glyph-name="H" unicode="H" horiz-adv-x="793" 
d="M41 0l113 714h132l-47 -300h367l47 300h132l-113 -714h-132l49 310h-367l-49 -310h-132z" />
    <glyph glyph-name="I" unicode="I" horiz-adv-x="294" 
d="M154 714h132l-113 -714h-132z" />
    <glyph glyph-name="J" unicode="J" horiz-adv-x="604" 
d="M399 253l73 461h132l-72 -457q-20 -126 -94.5 -197.5t-197.5 -71.5q-112 0 -174.5 63.5t-56.5 169.5h124q-1 -62 28 -98.5t88 -36.5q125 0 150 167z" />
    <glyph glyph-name="K" unicode="K" horiz-adv-x="734" 
d="M530 0l-205 313l-119 -107l-33 -206h-132l113 714h132l-56 -355l384 355h157l-349 -313l258 -401h-150z" />
    <glyph glyph-name="L" unicode="L" horiz-adv-x="634" 
d="M42 0l113 714h132l-97 -609h370l-17 -105h-501z" />
    <glyph glyph-name="M" unicode="M" horiz-adv-x="918" 
d="M464 0h-96l-114 567h-2l-90 -567h-121l113 714h185l107 -543h2l277 543h185l-113 -714h-126l90 567h-3z" />
    <glyph glyph-name="N" unicode="N" horiz-adv-x="779" 
d="M304 714l258 -510h2l80 510h126l-113 -714h-117l-282 556h-2l-88 -556h-127l113 714h150z" />
    <glyph glyph-name="O" unicode="O" horiz-adv-x="762" 
d="M441 726q139 0 219 -84.5t80 -222.5q0 -115 -46.5 -213t-135.5 -158t-203 -60q-139 0 -219.5 84.5t-80.5 222.5q0 115 46.5 213t136 158t203.5 60zM434 621q-114 0 -179 -96t-65 -234q0 -91 44.5 -144.5t126.5 -53.5q114 0 179 96t65 234q0 91 -44.5 144.5t-126.5 53.5z
" />
    <glyph glyph-name="P" unicode="P" horiz-adv-x="678" 
d="M378 263h-165l-42 -263h-130l113 714h293q112 0 174 -50t62 -142q0 -124 -82.5 -191.5t-222.5 -67.5zM229 367h154q83 0 125.5 36.5t42.5 105.5q0 100 -129 100h-154z" />
    <glyph glyph-name="Q" unicode="Q" horiz-adv-x="762" 
d="M629 5l-78 -59l-53 70q-67 -28 -143 -28q-139 0 -219.5 84.5t-80.5 222.5q0 115 46.5 213t136 158t203.5 60q139 0 219 -84.5t80 -222.5q0 -107 -41.5 -200t-115.5 -153zM190 291q0 -91 44.5 -144.5t126.5 -53.5q35 0 70 11l-65 85l79 60l69 -91q91 93 91 265
q0 91 -44.5 144.5t-126.5 53.5q-114 0 -179 -96t-65 -234z" />
    <glyph glyph-name="R" unicode="R" horiz-adv-x="707" 
d="M171 0h-130l113 714h306q112 0 171.5 -51.5t59.5 -145.5q0 -89 -55 -149.5t-132 -81.5l132 -286h-138l-121 267h-163zM230 371h162q82 0 125 36t43 101q0 101 -131 101h-161z" />
    <glyph glyph-name="S" unicode="S" horiz-adv-x="662" 
d="M21 216h128q4 -67 51.5 -98.5t118.5 -31.5q73 0 119 34t46 87q0 33 -24 52.5t-79 32.5l-128 29q-72 17 -116.5 58t-44.5 109q0 105 82 171.5t207 66.5t194.5 -56t72.5 -152h-124q-2 51 -42.5 80t-107.5 29q-71 0 -112 -34t-41 -85q0 -33 23.5 -51t76.5 -31l134 -31
q159 -37 159 -163q0 -107 -85.5 -175.5t-215.5 -68.5t-210.5 59.5t-81.5 168.5z" />
    <glyph glyph-name="T" unicode="T" horiz-adv-x="720" 
d="M254 0l97 609h-257l17 105h644l-16 -105h-256l-97 -609h-132z" />
    <glyph glyph-name="U" unicode="U" horiz-adv-x="754" 
d="M687 289q-22 -146 -112 -223.5t-235 -77.5q-127 0 -197 61.5t-70 174.5q0 29 5 67l67 423h132l-67 -424q-5 -32 -5 -53q0 -69 37.5 -106t109.5 -37q85 0 136.5 50.5t66.5 145.5l67 424h130z" />
    <glyph glyph-name="V" unicode="V" horiz-adv-x="736" 
d="M240 0l-156 714h137l115 -571h2l320 571h140l-415 -714h-143z" />
    <glyph glyph-name="W" unicode="W" horiz-adv-x="998" 
d="M577 0l-35 557h-2l-246 -557h-141l-63 714h132l40 -553h2l243 553h135l31 -553h2l249 553h131l-335 -714h-143z" />
    <glyph glyph-name="X" unicode="X" horiz-adv-x="732" 
d="M535 0l-165 281l-253 -281h-146l339 372l-201 342h146l143 -247l218 247h146l-305 -336l223 -378h-145z" />
    <glyph glyph-name="Y" unicode="Y" horiz-adv-x="702" 
d="M377 0h-132l46 293l-208 421h142l149 -306h3l242 306h146l-341 -421z" />
    <glyph glyph-name="Z" unicode="Z" horiz-adv-x="678" 
d="M682 614l-490 -509h415l-16 -105h-584l15 93l495 516h-400l16 105h565z" />
    <glyph glyph-name="bracketleft" unicode="[" horiz-adv-x="412" 
d="M283 645l-105 -662h131l-13 -91h-254l134 844h252l-14 -91h-131z" />
    <glyph glyph-name="backslash" unicode="\" horiz-adv-x="527" 
d="M121 736h112l193 -844h-112z" />
    <glyph glyph-name="bracketright" unicode="]" horiz-adv-x="412" 
d="M149 -17l105 662h-131l13 91h254l-134 -844h-252l14 91h131z" />
    <glyph glyph-name="asciicircum" unicode="^" horiz-adv-x="474" 
d="M255 726h112l110 -265h-109l-68 168l-121 -168h-116z" />
    <glyph glyph-name="underscore" unicode="_" horiz-adv-x="436" 
d="M-28 -130l15 92h370l-14 -92h-371z" />
    <glyph glyph-name="grave" unicode="`" horiz-adv-x="564" 
d="M433 577h-83l-93 159h140z" />
    <glyph glyph-name="a" unicode="a" horiz-adv-x="573" 
d="M349 0q-1 41 5 81q-25 -43 -72.5 -67.5t-105.5 -24.5q-68 0 -110.5 36t-42.5 95q0 75 53.5 117.5t149.5 53.5l159 18q6 32 6 47q0 69 -81 69q-42 0 -70.5 -21t-38.5 -57h-123q21 82 85.5 127.5t157.5 45.5t144 -40.5t51 -115.5q0 -22 -6 -60l-28 -176q-11 -64 -14 -128
h-119zM368 196l5 32l-116 -13q-54 -7 -80.5 -24t-26.5 -55q0 -27 19 -42.5t53 -15.5q55 0 96 30.5t50 87.5z" />
    <glyph glyph-name="b" unicode="b" horiz-adv-x="634" 
d="M178 89l-14 -89h-125l117 736h128l-49 -310q59 94 166 94q89 0 141 -59t52 -159q0 -129 -72.5 -221.5t-186.5 -92.5q-56 0 -99.5 29.5t-57.5 71.5zM358 426q-61 0 -101.5 -44t-52.5 -119q-5 -38 -5 -57q0 -57 30 -90.5t80 -33.5q71 0 114 61.5t43 154.5q0 60 -28 94
t-80 34z" />
    <glyph glyph-name="c" unicode="c" horiz-adv-x="555" 
d="M41 208q0 137 84 224.5t207 87.5q94 0 147.5 -51t51.5 -135h-120q-2 42 -24.5 66t-62.5 24q-69 0 -112.5 -63t-43.5 -152q0 -58 27 -91.5t73 -33.5q88 0 116 90h122q-25 -87 -89.5 -136.5t-157.5 -49.5q-96 0 -157 59.5t-61 160.5z" />
    <glyph glyph-name="d" unicode="d" horiz-adv-x="634" 
d="M454 422l50 314h128l-116 -735h-125l13 85q-27 -42 -71 -70t-100 -28q-87 0 -139.5 58.5t-52.5 155.5q0 131 72 225t186 94q56 0 98.5 -28t56.5 -71zM277 82q61 0 101 44t53 120q5 36 5 57q0 57 -30 90.5t-81 33.5q-71 0 -113.5 -63t-42.5 -157q0 -57 28 -91t80 -34z" />
    <glyph glyph-name="e" unicode="e" horiz-adv-x="576" 
d="M516 158q-28 -81 -93.5 -125.5t-152.5 -44.5q-105 0 -167 59.5t-62 161.5q0 135 82 223t208 88q100 0 154 -56.5t54 -152.5q0 -33 -11 -88h-365v-11q0 -62 30 -96t86 -34q80 0 119 76h118zM324 425q-51 0 -90 -32t-57 -87h243q1 9 1 21q0 45 -24.5 71.5t-72.5 26.5z" />
    <glyph glyph-name="f" unicode="f" horiz-adv-x="339" 
d="M118 415h-70l15 93h70l11 74q12 77 62.5 117t127.5 40q41 0 73 -8l-16 -96q-25 5 -48 5q-63 0 -73 -63l-11 -69h104l-15 -93h-104l-65 -415h-127z" />
    <glyph glyph-name="g" unicode="g" horiz-adv-x="635" 
d="M393 33l12 77q-60 -97 -171 -97q-87 0 -139 57.5t-52 153.5q0 119 70.5 207.5t181.5 88.5q58 0 103.5 -29.5t58.5 -71.5l14 89h125l-73 -460q-19 -121 -93.5 -179.5t-191.5 -58.5q-100 0 -161.5 42.5t-66.5 115.5h127q8 -68 107 -68q129 0 149 133zM432 259q5 34 5 51
q0 54 -30.5 85.5t-81.5 31.5q-70 0 -112.5 -56.5t-42.5 -141.5q0 -58 28 -90t81 -32q60 0 100.5 40.5t52.5 111.5z" />
    <glyph glyph-name="h" unicode="h" horiz-adv-x="623" 
d="M284 736l-50 -312q25 44 69.5 70t99.5 26q76 0 119 -41.5t43 -114.5q0 -19 -3 -40l-51 -324h-129l47 297q3 33 3 35q0 87 -86 87q-51 0 -87.5 -35t-47.5 -108l-44 -276h-128l117 736h128z" />
    <glyph glyph-name="i" unicode="i" horiz-adv-x="286" 
d="M128 594l20 125h136l-20 -125h-136zM119 508h129l-81 -508h-128z" />
    <glyph glyph-name="j" unicode="j" horiz-adv-x="286" 
d="M128 594l20 125h136l-20 -125h-136zM-14 -184q-39 0 -68 9l15 93q20 -5 35 -5q31 0 46 14t21 49l84 532h129l-85 -535q-24 -157 -177 -157z" />
    <glyph glyph-name="k" unicode="k" horiz-adv-x="597" 
d="M402 0l-134 221l-76 -64l-25 -157h-128l117 736h128l-71 -444l249 216h148l-247 -211l179 -297h-140z" />
    <glyph glyph-name="l" unicode="l" horiz-adv-x="286" 
d="M167 0h-128l117 736h128z" />
    <glyph glyph-name="m" unicode="m" horiz-adv-x="941" 
d="M401 520q118 0 144 -99q70 99 183 99q74 0 114.5 -41t40.5 -111q0 -23 -4 -43l-51 -325h-129l47 298q3 21 3 38q0 83 -79 83q-49 0 -82.5 -35t-45.5 -107l-44 -277h-129l48 298q3 21 3 37q0 84 -80 84q-49 0 -83 -35t-46 -107l-44 -277h-128l80 508h126l-14 -85
q26 44 71.5 70.5t98.5 26.5z" />
    <glyph glyph-name="n" unicode="n" horiz-adv-x="623" 
d="M245 508l-14 -85q25 44 71 70.5t101 26.5q76 0 119 -41.5t43 -114.5q0 -19 -3 -40l-51 -324h-129l47 297q3 33 3 35q0 87 -86 87q-51 0 -87.5 -35t-47.5 -108l-44 -276h-128l80 508h126z" />
    <glyph glyph-name="o" unicode="o" horiz-adv-x="600" 
d="M269 -12q-103 0 -165.5 60t-62.5 163q0 133 81 221t208 88q103 0 166 -60t63 -163q0 -133 -81 -221t-209 -88zM278 83q71 0 112 63.5t41 154.5q0 59 -28.5 91.5t-80.5 32.5q-71 0 -112 -63.5t-41 -154.5q0 -59 28.5 -91.5t80.5 -32.5z" />
    <glyph glyph-name="p" unicode="p" horiz-adv-x="634" 
d="M181 87l-41 -265h-129l109 686h125l-13 -84q26 42 70 69t100 27q88 0 140 -59t52 -159q0 -129 -72 -221.5t-186 -92.5q-56 0 -97.5 28t-57.5 71zM358 426q-60 0 -100.5 -44t-52.5 -119q-6 -45 -6 -57q0 -58 30 -91t81 -33q71 0 113.5 61.5t42.5 154.5q0 60 -28 94t-80 34
z" />
    <glyph glyph-name="q" unicode="q" horiz-adv-x="634" 
d="M457 420l14 88h125l-108 -686h-129l41 260q-59 -94 -167 -94q-87 0 -140 58t-53 155q0 131 72.5 225t186.5 94q56 0 100 -29t58 -71zM276 82q61 0 101.5 43.5t53.5 118.5q5 37 5 58q0 57 -30 90.5t-81 33.5q-71 0 -113.5 -63t-42.5 -156q0 -58 28 -91.5t79 -33.5z" />
    <glyph glyph-name="r" unicode="r" horiz-adv-x="419" 
d="M440 512l-20 -117q-20 4 -48 4q-61 0 -108 -42.5t-60 -121.5l-37 -235h-128l80 508h126l-18 -114q27 59 73.5 91t101.5 32q26 0 38 -5z" />
    <glyph glyph-name="s" unicode="s" horiz-adv-x="523" 
d="M14 154h122q1 -38 32.5 -57.5t75.5 -19.5q45 0 73 18.5t28 49.5q0 19 -16 31t-53 21l-89 21q-122 29 -122 127q0 76 62 125.5t159 49.5q95 0 150.5 -41t56.5 -115h-117q-8 66 -98 66q-43 0 -67 -16.5t-24 -46.5q0 -21 15.5 -31.5t52.5 -20.5l95 -24q116 -29 116 -125
q0 -81 -64 -129.5t-163 -48.5q-100 0 -162 41.5t-63 124.5z" />
    <glyph glyph-name="t" unicode="t" horiz-adv-x="386" 
d="M322 105l-14 -97q-53 -16 -102 -16q-64 0 -100.5 28t-36.5 85q0 15 3 34l43 277h-68l14 92h72l22 127h122l-20 -127h121l-14 -92h-123l-42 -253q-2 -18 -2 -23q0 -25 14 -35.5t43 -10.5q33 0 68 11z" />
    <glyph glyph-name="u" unicode="u" horiz-adv-x="616" 
d="M372 0l13 85q-26 -44 -70 -70.5t-99 -26.5q-74 0 -115.5 41t-41.5 114q0 22 3 43l51 322h129l-47 -298q-4 -28 -4 -36q0 -85 83 -85q50 0 85 35t46 108l44 276h128l-80 -508h-125z" />
    <glyph glyph-name="v" unicode="v" horiz-adv-x="577" 
d="M158 0l-97 508h126l61 -382h3l216 382h129l-304 -508h-134z" />
    <glyph glyph-name="w" unicode="w" horiz-adv-x="815" 
d="M503 508l21 -374h2l183 374h126l-267 -508h-126l-28 367h-2l-175 -367h-127l-49 508h126l24 -374h2l172 374h118z" />
    <glyph glyph-name="x" unicode="x" horiz-adv-x="586" 
d="M125 0h-140l243 262l-141 246h139l87 -160l142 160h141l-226 -244l151 -264h-139l-97 177z" />
    <glyph glyph-name="y" unicode="y" horiz-adv-x="577" 
d="M159 3l-98 505h127l64 -384h2l214 384h128l-301 -516q-57 -97 -111.5 -137.5t-136.5 -40.5q-34 0 -61 10l16 95q21 -7 39 -7q36 0 62.5 20.5t55.5 70.5z" />
    <glyph glyph-name="z" unicode="z" horiz-adv-x="535" 
d="M509 419l-328 -325h282l-15 -94h-440l14 83l328 331h-262l14 94h421z" />
    <glyph glyph-name="braceleft" unicode="{" horiz-adv-x="438" 
d="M44 268l15 92h45q26 0 42.5 15t20.5 41l33 205q18 115 149 115h106l-14 -90h-73q-26 0 -39.5 -9t-17.5 -34l-31 -200q-13 -77 -99 -89q72 -10 72 -71q0 -17 -17 -117t-17 -112q0 -18 10.5 -25t33.5 -7h73l-15 -90h-106q-115 0 -115 88q0 20 17.5 127t17.5 118
q0 43 -46 43h-45z" />
    <glyph glyph-name="bar" unicode="|" horiz-adv-x="330" 
d="M186 736h112l-134 -844h-112z" />
    <glyph glyph-name="braceright" unicode="}" horiz-adv-x="438" 
d="M413 360l-15 -92h-45q-26 0 -42.5 -15t-20.5 -41l-33 -205q-18 -115 -149 -115h-106l14 90h73q26 0 39.5 9t17.5 34l31 200q13 77 99 89q-72 10 -72 71q0 17 17 117t17 112q0 18 -10.5 25t-33.5 7h-73l15 90h106q115 0 115 -88q0 -20 -17.5 -127t-17.5 -118q0 -43 46 -43
h45z" />
    <glyph glyph-name="asciitilde" unicode="~" horiz-adv-x="552" 
d="M215 295q-18 0 -32 -18.5t-21 -48.5h-79q12 75 47 120.5t83 45.5q36 0 79.5 -34t60.5 -34q37 0 54 66h80q-13 -75 -48 -120.5t-83 -45.5q-22 0 -43.5 11t-36 23.5t-31.5 23.5t-30 11z" />
    <glyph glyph-name="uni00A0" unicode="&#xa0;" horiz-adv-x="210" 
 />
    <glyph glyph-name="exclamdown" unicode="&#xa1;" horiz-adv-x="326" 
d="M311 714l-23 -145h-150l23 145h150zM197 0h-148l98 480h104z" />
    <glyph glyph-name="cent" unicode="&#xa2;" horiz-adv-x="562" 
d="M510 179q-24 -81 -82.5 -130.5t-143.5 -56.5l-17 -98h-71l18 101q-77 14 -123.5 73.5t-46.5 146.5q0 126 75.5 214.5t188.5 99.5l20 114h72l-21 -116q75 -12 115 -60.5t41 -124.5h-103q-2 36 -19.5 61t-49.5 33l-62 -350q73 13 102 93h107zM158 218q0 -102 72 -128
l61 345q-65 -16 -99 -76.5t-34 -140.5z" />
    <glyph glyph-name="sterling" unicode="&#xa3;" horiz-adv-x="644" 
d="M578 105l-17 -105h-549l17 105h14q49 0 84.5 49.5t35.5 125.5v2h-95l15 92h65q-16 64 -16 105q0 101 75 174t196 73q111 0 170 -59.5t59 -153.5q0 -17 -1 -26h-124q1 9 1 19q0 52 -27.5 85t-83.5 33q-63 0 -100.5 -38.5t-37.5 -100.5q0 -13 2 -28.5t4.5 -26t7.5 -29.5
t7 -27h177l-15 -92h-155q-8 -109 -92 -177h383z" />
    <glyph glyph-name="yen" unicode="&#xa5;" horiz-adv-x="710" 
d="M611 168h-203l-27 -168h-132l27 168h-205l13 77h204l12 74h-204l12 78h156l-168 317h141l146 -286h2l228 286h147l-269 -317h158l-13 -78h-204l-12 -74h204z" />
    <glyph glyph-name="section" unicode="&#xa7;" horiz-adv-x="611" 
d="M465 52q0 -82 -64.5 -136.5t-163.5 -54.5q-94 0 -146.5 43t-52.5 118h114q0 -33 26 -54t68 -21q46 0 72 24t26 59q0 36 -51 68l-116 67q-59 35 -85 67t-26 77q0 105 106 162q-19 29 -19 65q0 81 64 135.5t164 54.5q94 0 145.5 -41.5t51.5 -114.5h-113q0 32 -25.5 51
t-69.5 19q-46 0 -71.5 -23t-25.5 -60q0 -36 53 -68l115 -67q59 -35 85 -67t26 -75q0 -107 -105 -163q18 -29 18 -65zM357 189q9 -5 25 -15q58 27 58 84q0 35 -64 75l-115 65q-4 3 -12.5 8t-12.5 7q-57 -27 -57 -82q0 -21 14 -37.5t49 -38.5z" />
    <glyph glyph-name="dieresis" unicode="&#xa8;" horiz-adv-x="564" 
d="M377 594l20 125h118l-20 -125h-118zM177 594l20 125h118l-20 -125h-118z" />
    <glyph glyph-name="copyright" unicode="&#xa9;" horiz-adv-x="879" 
d="M825 356q0 -152 -108 -260t-261 -108t-261.5 108t-108.5 260q0 154 108.5 262.5t261.5 108.5t261 -108.5t108 -262.5zM130 356q0 -134 95.5 -229.5t230.5 -95.5t230.5 95.5t95.5 229.5q0 136 -95.5 232t-230.5 96t-230.5 -96t-95.5 -232zM349 358q0 -66 29 -104.5
t83 -39.5q75 1 90 72h94q-13 -68 -58.5 -108t-124.5 -40q-93 0 -150.5 61t-57.5 159t57.5 159t150.5 61q79 0 124.5 -39.5t58.5 -108.5h-94q-15 72 -90 72q-54 0 -83 -39t-29 -105z" />
    <glyph glyph-name="ordfeminine" unicode="&#xaa;" horiz-adv-x="409" 
d="M288 381q1 20 5 51q-36 -59 -117 -59q-46 0 -74.5 24t-28.5 63q0 51 36.5 79.5t101.5 34.5l101 9q4 29 4 30q0 42 -49 42q-52 0 -65 -47h-93q14 56 57.5 87t108.5 31q64 0 99.5 -28t35.5 -80q0 -13 -3 -28l-19 -119q-7 -49 -10 -90h-90zM300 510l4 21l-70 -9
q-33 -4 -48.5 -15.5t-15.5 -35.5q0 -16 11.5 -26t31.5 -10q32 0 57 20t30 55zM50 239l11 70h300l-12 -70h-299z" />
    <glyph glyph-name="guillemotleft" unicode="&#xab;" horiz-adv-x="546" 
d="M459 44h-87l-107 204l167 204h92l-142 -204zM247 44h-85l-108 204l167 204h92l-142 -204z" />
    <glyph glyph-name="registered" unicode="&#xae;" horiz-adv-x="576" 
d="M326 726q97 0 164 -66t67 -165q0 -100 -67 -166t-164 -66q-96 0 -163 66t-67 166q0 99 67 165t163 66zM326 293q84 0 141 57.5t57 144.5t-57.5 144t-140.5 57t-140.5 -57t-57.5 -144t57.5 -144.5t140.5 -57.5zM287 376h-57v245h112q93 0 93 -80q0 -52 -47 -71l55 -94h-62
l-49 85h-45v-85zM287 506h47q45 0 45 35q0 34 -45 34h-47v-69z" />
    <glyph glyph-name="macron" unicode="&#xaf;" horiz-adv-x="564" 
d="M182 594l14 86h306l-13 -86h-307z" />
    <glyph glyph-name="degree" unicode="&#xb0;" horiz-adv-x="376" 
d="M94 570q0 65 47.5 110.5t113.5 45.5q58 0 95 -36t37 -93q0 -66 -47.5 -111t-113.5 -45q-58 0 -95 36t-37 93zM162 575q0 -31 19 -49.5t51 -18.5q36 0 61.5 23.5t25.5 61.5q0 30 -19.5 49t-50.5 19q-36 0 -61.5 -23.5t-25.5 -61.5z" />
    <glyph glyph-name="twosuperior" unicode="&#xb2;" horiz-adv-x="367" 
d="M389 616q0 -54 -35 -87t-107 -68q-44 -22 -64.5 -37t-24.5 -31h199l-12 -70h-298l5 32q5 29 19.5 54t38.5 45.5t43.5 33t49.5 29.5q59 31 79.5 48.5t20.5 45.5q0 42 -48 42q-28 0 -48.5 -19t-25.5 -47h-88q13 59 57.5 97t111.5 38q58 0 92.5 -29t34.5 -77z" />
    <glyph glyph-name="threesuperior" unicode="&#xb3;" horiz-adv-x="379" 
d="M370 440q0 -49 -42 -86.5t-117 -37.5q-70 0 -110 34.5t-40 90.5h86q0 -58 69 -58q32 0 51.5 17t19.5 42q0 44 -59 44h-39l10 65h38q31 0 49.5 16t18.5 43q0 20 -13.5 32.5t-37.5 12.5q-60 0 -72 -56h-84q13 54 55 88.5t108 34.5q61 0 94.5 -29.5t33.5 -73.5
q0 -38 -24.5 -66t-60.5 -34q30 -7 48 -28t18 -51z" />
    <glyph glyph-name="acute" unicode="&#xb4;" horiz-adv-x="564" 
d="M233 577l77 159h148l-141 -159h-84z" />
    <glyph glyph-name="paragraph" unicode="&#xb6;" horiz-adv-x="672" 
d="M230 -127l70 442q-103 0 -161.5 45.5t-58.5 124.5q0 103 77 166t207 63h292l-134 -841h-94l120 753h-104l-119 -753h-95z" />
    <glyph glyph-name="periodcentered" unicode="&#xb7;" horiz-adv-x="323" 
d="M81 213l23 149h150l-24 -149h-149z" />
    <glyph glyph-name="cedilla" unicode="&#xb8;" horiz-adv-x="738" 
d="M410 -103q0 -44 -41 -70.5t-95 -26.5q-55 0 -91 18l9 58q48 -21 86 -21q26 0 42 9.5t16 26.5q0 26 -43 26q-15 0 -37 -6l-19 22l68 87h52l-47 -59q7 1 18 1q33 0 57.5 -16.5t24.5 -48.5z" />
    <glyph glyph-name="onesuperior" unicode="&#xb9;" horiz-adv-x="346" 
d="M338 385l-10 -62h-277l10 62h97l34 214h-96l9 58q65 0 89.5 12.5t37.5 45.5h63l-52 -330h95z" />
    <glyph glyph-name="ordmasculine" unicode="&#xba;" horiz-adv-x="427" 
d="M240 373q-70 0 -113 40t-43 108q0 89 55 147.5t141 58.5q70 0 112.5 -40t42.5 -109q0 -89 -54.5 -147t-140.5 -58zM274 655q-44 0 -68.5 -40t-24.5 -97q0 -36 17 -55.5t48 -19.5q43 0 68 41t25 97q0 36 -17 55t-48 19zM61 239l11 70h300l-11 -70h-300z" />
    <glyph glyph-name="guillemotright" unicode="&#xbb;" horiz-adv-x="547" 
d="M86 452h87l107 -204l-167 -204h-92l142 204zM298 452h85l108 -204l-167 -204h-92l142 204z" />
    <glyph glyph-name="onequarter" unicode="&#xbc;" horiz-adv-x="894" 
d="M197 -12h-86l633 739h86zM354 385l-10 -62h-277l10 62h97l34 214h-96l9 58q65 0 89.5 12.5t37.5 45.5h63l-52 -330h95zM806 391l-39 -243h78l-10 -62h-78l-13 -86h-82l13 86h-194l10 63l222 242h93zM710 309l-143 -161h118z" />
    <glyph glyph-name="onehalf" unicode="&#xbd;" horiz-adv-x="901" 
d="M202 -12h-86l633 739h86zM354 385l-10 -62h-277l10 62h97l34 214h-96l9 58q65 0 89.5 12.5t37.5 45.5h63l-52 -330h95zM872 293q0 -54 -35 -87t-107 -68q-44 -22 -64.5 -37t-24.5 -31h199l-12 -70h-298l5 32q5 29 19.5 54t38.5 45.5t43.5 33t49.5 29.5q59 31 79.5 48.5
t20.5 45.5q0 42 -48 42q-28 0 -48.5 -19t-25.5 -47h-88q13 59 57.5 97t111.5 38q58 0 92.5 -29t34.5 -77z" />
    <glyph glyph-name="threequarters" unicode="&#xbe;" horiz-adv-x="918" 
d="M216 -12h-86l633 739h86zM386 440q0 -49 -42 -86.5t-117 -37.5q-70 0 -110 34.5t-40 90.5h86q0 -58 69 -58q32 0 51.5 17t19.5 42q0 44 -59 44h-39l10 65h38q31 0 49.5 16t18.5 43q0 20 -13.5 32.5t-37.5 12.5q-60 0 -72 -56h-84q13 54 55 88.5t108 34.5q61 0 94.5 -29.5
t33.5 -73.5q0 -38 -24.5 -66t-60.5 -34q30 -7 48 -28t18 -51zM830 391l-39 -243h78l-10 -62h-78l-13 -86h-82l13 86h-194l10 63l222 242h93zM734 309l-143 -161h118z" />
    <glyph glyph-name="questiondown" unicode="&#xbf;" horiz-adv-x="587" 
d="M454 714l-22 -139h-149l22 139h149zM30 173q0 76 46 131t127 105q35 22 54 41t26 50h125q-15 -86 -137 -165q-57 -37 -86 -70t-29 -81q0 -41 26 -67.5t79 -26.5q61 0 101.5 39t53.5 98h127q-22 -104 -100 -171.5t-193 -67.5q-103 0 -161.5 51.5t-58.5 133.5z" />
    <glyph glyph-name="Agrave" unicode="&#xc0;" horiz-adv-x="746" 
d="M504 764h-84l-100 153h147zM560 0l-38 175h-318l-98 -175h-135l406 714h149l168 -714h-134zM432 585l-171 -307h239l-66 307h-2z" />
    <glyph glyph-name="Aacute" unicode="&#xc1;" horiz-adv-x="746" 
d="M416 764l78 153h154l-148 -153h-84zM560 0l-38 175h-318l-98 -175h-135l406 714h149l168 -714h-134zM432 585l-171 -307h239l-66 307h-2z" />
    <glyph glyph-name="Acircumflex" unicode="&#xc2;" horiz-adv-x="746" 
d="M420 917h119l76 -154h-71l-72 80l-102 -80h-77zM560 0l-38 175h-318l-98 -175h-135l406 714h149l168 -714h-134zM432 585l-171 -307h239l-66 307h-2z" />
    <glyph glyph-name="Atilde" unicode="&#xc3;" horiz-adv-x="746" 
d="M405 832q-36 0 -50 -63h-74q11 70 44 112.5t79 42.5q33 0 74 -32.5t57 -32.5q38 0 51 63h73q-11 -70 -44 -112.5t-79 -42.5q-33 0 -73.5 32.5t-57.5 32.5zM560 0l-38 175h-318l-98 -175h-135l406 714h149l168 -714h-134zM432 585l-171 -307h239l-66 307h-2z" />
    <glyph glyph-name="Adieresis" unicode="&#xc4;" horiz-adv-x="746" 
d="M504 775l19 125h118l-20 -125h-117zM304 775l20 125h118l-20 -125h-118zM560 0l-38 175h-318l-98 -175h-135l406 714h149l168 -714h-134zM432 585l-171 -307h239l-66 307h-2z" />
    <glyph glyph-name="Aring" unicode="&#xc5;" horiz-adv-x="746" 
d="M204 175l-98 -175h-135l391 688q-32 34 -32 82q0 58 41.5 100.5t103.5 42.5q50 0 82.5 -33t32.5 -82q0 -70 -57 -114l161 -684h-134l-38 175h-318zM467 848q-30 0 -50.5 -20.5t-20.5 -50.5q0 -25 16 -41t40 -16q31 0 51.5 21t20.5 50q0 25 -16.5 41t-40.5 16zM432 585
l-171 -307h239l-66 307h-2z" />
    <glyph glyph-name="AE" unicode="&#xc6;" horiz-adv-x="1117" 
d="M506 0l28 179h-281l-141 -179h-142l565 714h598l-17 -105h-384l-32 -199h339l-17 -105h-338l-32 -200h387l-17 -105h-516zM604 625l-269 -342h215z" />
    <glyph glyph-name="Ccedilla" unicode="&#xc7;" horiz-adv-x="708" 
d="M413 -103q0 -44 -41 -70.5t-95 -26.5q-55 0 -91 18l9 58q48 -21 86 -21q26 0 42 9.5t16 26.5q0 26 -43 26q-15 0 -37 -6l-19 22l48 61q-110 20 -171.5 100.5t-61.5 199.5q0 180 108.5 306t279.5 126q124 0 192.5 -64.5t73.5 -171.5h-130q-2 58 -38.5 94.5t-104.5 36.5
q-113 0 -179.5 -96.5t-66.5 -233.5q0 -91 44.5 -144.5t126.5 -53.5q129 0 176 131h130q-34 -109 -112 -172.5t-200 -63.5h-20l-22 -27q7 1 18 1q33 0 57.5 -16.5t24.5 -48.5z" />
    <glyph glyph-name="Egrave" unicode="&#xc8;" horiz-adv-x="654" 
d="M477 764h-84l-100 153h147zM41 0l113 714h514l-16 -105h-384l-32 -199h339l-17 -105h-339l-31 -200h387l-17 -105h-517z" />
    <glyph glyph-name="Eacute" unicode="&#xc9;" horiz-adv-x="654" 
d="M359 764l78 153h154l-148 -153h-84zM41 0l113 714h514l-16 -105h-384l-32 -199h339l-17 -105h-339l-31 -200h387l-17 -105h-517z" />
    <glyph glyph-name="Ecircumflex" unicode="&#xca;" horiz-adv-x="654" 
d="M386 917h119l76 -154h-71l-72 80l-102 -80h-77zM41 0l113 714h514l-16 -105h-384l-32 -199h339l-17 -105h-339l-31 -200h387l-17 -105h-517z" />
    <glyph glyph-name="Edieresis" unicode="&#xcb;" horiz-adv-x="654" 
d="M469 775l19 125h118l-20 -125h-117zM269 775l20 125h118l-20 -125h-118zM41 0l113 714h514l-16 -105h-384l-32 -199h339l-17 -105h-339l-31 -200h387l-17 -105h-517z" />
    <glyph glyph-name="Igrave" unicode="&#xcc;" horiz-adv-x="294" 
d="M278 764h-84l-100 153h147zM154 714h132l-113 -714h-132z" />
    <glyph glyph-name="Iacute" unicode="&#xcd;" horiz-adv-x="294" 
d="M186 764l78 153h154l-148 -153h-84zM154 714h132l-113 -714h-132z" />
    <glyph glyph-name="Icircumflex" unicode="&#xce;" horiz-adv-x="294" 
d="M195 917h119l76 -154h-71l-72 80l-102 -80h-77zM154 714h132l-113 -714h-132z" />
    <glyph glyph-name="Idieresis" unicode="&#xcf;" horiz-adv-x="294" 
d="M271 775l19 125h118l-20 -125h-117zM71 775l20 125h118l-20 -125h-118zM154 714h132l-113 -714h-132z" />
    <glyph glyph-name="Eth" unicode="&#xd0;" horiz-adv-x="774" 
d="M751 415q0 -184 -115.5 -299.5t-296.5 -115.5h-278l49 312h-73l16 101h73l48 301h268q148 0 228.5 -81t80.5 -218zM208 105h143q120 0 192.5 84t72.5 224q0 196 -193 196h-134l-31 -196h124l-17 -101h-124z" />
    <glyph glyph-name="Ntilde" unicode="&#xd1;" horiz-adv-x="779" 
d="M414 832q-36 0 -50 -63h-74q11 70 44 112.5t79 42.5q33 0 74 -32.5t57 -32.5q38 0 51 63h73q-11 -70 -44 -112.5t-79 -42.5q-33 0 -73.5 32.5t-57.5 32.5zM304 714l258 -510h2l80 510h126l-113 -714h-117l-282 556h-2l-88 -556h-127l113 714h150z" />
    <glyph glyph-name="Ograve" unicode="&#xd2;" horiz-adv-x="762" 
d="M504 764h-84l-100 153h147zM441 726q139 0 219 -84.5t80 -222.5q0 -115 -46.5 -213t-135.5 -158t-203 -60q-139 0 -219.5 84.5t-80.5 222.5q0 115 46.5 213t136 158t203.5 60zM434 621q-114 0 -179 -96t-65 -234q0 -91 44.5 -144.5t126.5 -53.5q114 0 179 96t65 234
q0 91 -44.5 144.5t-126.5 53.5z" />
    <glyph glyph-name="Oacute" unicode="&#xd3;" horiz-adv-x="762" 
d="M411 764l78 153h154l-148 -153h-84zM441 726q139 0 219 -84.5t80 -222.5q0 -115 -46.5 -213t-135.5 -158t-203 -60q-139 0 -219.5 84.5t-80.5 222.5q0 115 46.5 213t136 158t203.5 60zM434 621q-114 0 -179 -96t-65 -234q0 -91 44.5 -144.5t126.5 -53.5q114 0 179 96
t65 234q0 91 -44.5 144.5t-126.5 53.5z" />
    <glyph glyph-name="Ocircumflex" unicode="&#xd4;" horiz-adv-x="762" 
d="M428 917h119l76 -154h-71l-72 80l-102 -80h-77zM441 726q139 0 219 -84.5t80 -222.5q0 -115 -46.5 -213t-135.5 -158t-203 -60q-139 0 -219.5 84.5t-80.5 222.5q0 115 46.5 213t136 158t203.5 60zM434 621q-114 0 -179 -96t-65 -234q0 -91 44.5 -144.5t126.5 -53.5
q114 0 179 96t65 234q0 91 -44.5 144.5t-126.5 53.5z" />
    <glyph glyph-name="Otilde" unicode="&#xd5;" horiz-adv-x="762" 
d="M405 832q-36 0 -50 -63h-74q11 70 44 112.5t79 42.5q33 0 74 -32.5t57 -32.5q38 0 51 63h73q-11 -70 -44 -112.5t-79 -42.5q-33 0 -73.5 32.5t-57.5 32.5zM441 726q139 0 219 -84.5t80 -222.5q0 -115 -46.5 -213t-135.5 -158t-203 -60q-139 0 -219.5 84.5t-80.5 222.5
q0 115 46.5 213t136 158t203.5 60zM434 621q-114 0 -179 -96t-65 -234q0 -91 44.5 -144.5t126.5 -53.5q114 0 179 96t65 234q0 91 -44.5 144.5t-126.5 53.5z" />
    <glyph glyph-name="Odieresis" unicode="&#xd6;" horiz-adv-x="762" 
d="M510 775l19 125h118l-20 -125h-117zM310 775l20 125h118l-20 -125h-118zM441 726q139 0 219 -84.5t80 -222.5q0 -115 -46.5 -213t-135.5 -158t-203 -60q-139 0 -219.5 84.5t-80.5 222.5q0 115 46.5 213t136 158t203.5 60zM434 621q-114 0 -179 -96t-65 -234
q0 -91 44.5 -144.5t126.5 -53.5q114 0 179 96t65 234q0 91 -44.5 144.5t-126.5 53.5z" />
    <glyph glyph-name="multiply" unicode="&#xd7;" 
d="M479 96l-144 172l-203 -175l-56 67l203 175l-145 172l73 61l144 -171l201 174l57 -67l-202 -174l145 -173z" />
    <glyph glyph-name="Oslash" unicode="&#xd8;" horiz-adv-x="762" 
d="M355 -12q-119 0 -196 63l-77 -81l-56 46l83 88q-54 79 -54 191q0 115 46.5 213t136 158t203.5 60q118 0 195 -63l67 71l55 -45l-73 -78q55 -78 55 -192q0 -115 -46.5 -213t-135.5 -158t-203 -60zM190 291q0 -51 13 -87l351 371q-44 46 -120 46q-114 0 -179 -96t-65 -234z
M605 423q0 47 -13 89l-351 -373q44 -46 120 -46q114 0 179 96t65 234z" />
    <glyph glyph-name="Ugrave" unicode="&#xd9;" horiz-adv-x="754" 
d="M504 764h-84l-100 153h147zM687 289q-22 -146 -112 -223.5t-235 -77.5q-127 0 -197 61.5t-70 174.5q0 29 5 67l67 423h132l-67 -424q-5 -32 -5 -53q0 -69 37.5 -106t109.5 -37q85 0 136.5 50.5t66.5 145.5l67 424h130z" />
    <glyph glyph-name="Uacute" unicode="&#xda;" horiz-adv-x="754" 
d="M401 764l78 153h154l-148 -153h-84zM687 289q-22 -146 -112 -223.5t-235 -77.5q-127 0 -197 61.5t-70 174.5q0 29 5 67l67 423h132l-67 -424q-5 -32 -5 -53q0 -69 37.5 -106t109.5 -37q85 0 136.5 50.5t66.5 145.5l67 424h130z" />
    <glyph glyph-name="Ucircumflex" unicode="&#xdb;" horiz-adv-x="754" 
d="M424 917h119l76 -154h-71l-72 80l-102 -80h-77zM687 289q-22 -146 -112 -223.5t-235 -77.5q-127 0 -197 61.5t-70 174.5q0 29 5 67l67 423h132l-67 -424q-5 -32 -5 -53q0 -69 37.5 -106t109.5 -37q85 0 136.5 50.5t66.5 145.5l67 424h130z" />
    <glyph glyph-name="Udieresis" unicode="&#xdc;" horiz-adv-x="754" 
d="M499 775l19 125h118l-20 -125h-117zM299 775l20 125h118l-20 -125h-118zM687 289q-22 -146 -112 -223.5t-235 -77.5q-127 0 -197 61.5t-70 174.5q0 29 5 67l67 423h132l-67 -424q-5 -32 -5 -53q0 -69 37.5 -106t109.5 -37q85 0 136.5 50.5t66.5 145.5l67 424h130z" />
    <glyph glyph-name="Yacute" unicode="&#xdd;" horiz-adv-x="702" 
d="M377 764l78 153h154l-148 -153h-84zM377 0h-132l46 293l-208 421h142l149 -306h3l242 306h146l-341 -421z" />
    <glyph glyph-name="Thorn" unicode="&#xde;" horiz-adv-x="678" 
d="M359 140h-166l-22 -140h-130l113 714h129l-19 -123h163q112 0 174 -50t62 -142q0 -123 -82.5 -191t-221.5 -68zM210 244h154q167 0 167 142q0 51 -31 75.5t-98 24.5h-154z" />
    <glyph glyph-name="germandbls" unicode="&#xdf;" horiz-adv-x="634" 
d="M467 415q53 -15 88 -60t35 -106q0 -121 -81.5 -188t-196.5 -67q-32 0 -67 9l16 100q22 -7 48 -7q71 0 117.5 38t46.5 111q0 53 -33.5 83.5t-95.5 30.5h-31l16 99h28q54 0 86 30t32 79q0 37 -24.5 60t-65.5 23q-115 0 -137 -149l-80 -501h-128l79 496q18 117 90.5 184.5
t185.5 67.5q91 0 144 -46.5t53 -118.5q0 -63 -39 -107.5t-86 -60.5z" />
    <glyph glyph-name="agrave" unicode="&#xe0;" horiz-adv-x="573" 
d="M388 577h-83l-93 159h140zM349 0q-1 41 5 81q-25 -43 -72.5 -67.5t-105.5 -24.5q-68 0 -110.5 36t-42.5 95q0 75 53.5 117.5t149.5 53.5l159 18q6 32 6 47q0 69 -81 69q-42 0 -70.5 -21t-38.5 -57h-123q21 82 85.5 127.5t157.5 45.5t144 -40.5t51 -115.5q0 -22 -6 -60
l-28 -176q-11 -64 -14 -128h-119zM368 196l5 32l-116 -13q-54 -7 -80.5 -24t-26.5 -55q0 -27 19 -42.5t53 -15.5q55 0 96 30.5t50 87.5z" />
    <glyph glyph-name="aacute" unicode="&#xe1;" horiz-adv-x="573" 
d="M292 577l77 159h148l-141 -159h-84zM349 0q-1 41 5 81q-25 -43 -72.5 -67.5t-105.5 -24.5q-68 0 -110.5 36t-42.5 95q0 75 53.5 117.5t149.5 53.5l159 18q6 32 6 47q0 69 -81 69q-42 0 -70.5 -21t-38.5 -57h-123q21 82 85.5 127.5t157.5 45.5t144 -40.5t51 -115.5
q0 -22 -6 -60l-28 -176q-11 -64 -14 -128h-119zM368 196l5 32l-116 -13q-54 -7 -80.5 -24t-26.5 -55q0 -27 19 -42.5t53 -15.5q55 0 96 30.5t50 87.5z" />
    <glyph glyph-name="acircumflex" unicode="&#xe2;" horiz-adv-x="573" 
d="M321 736h117l60 -160h-71l-57 87l-106 -87h-77zM349 0q-1 41 5 81q-25 -43 -72.5 -67.5t-105.5 -24.5q-68 0 -110.5 36t-42.5 95q0 75 53.5 117.5t149.5 53.5l159 18q6 32 6 47q0 69 -81 69q-42 0 -70.5 -21t-38.5 -57h-123q21 82 85.5 127.5t157.5 45.5t144 -40.5
t51 -115.5q0 -22 -6 -60l-28 -176q-11 -64 -14 -128h-119zM368 196l5 32l-116 -13q-54 -7 -80.5 -24t-26.5 -55q0 -27 19 -42.5t53 -15.5q55 0 96 30.5t50 87.5z" />
    <glyph glyph-name="atilde" unicode="&#xe3;" horiz-adv-x="573" 
d="M291 641q-36 0 -50 -66h-74q11 70 44 112.5t79 42.5q33 0 73 -33.5t58 -33.5q35 0 51 66h73q-11 -70 -44 -112.5t-79 -42.5q-32 0 -72.5 33.5t-58.5 33.5zM349 0q-1 41 5 81q-25 -43 -72.5 -67.5t-105.5 -24.5q-68 0 -110.5 36t-42.5 95q0 75 53.5 117.5t149.5 53.5
l159 18q6 32 6 47q0 69 -81 69q-42 0 -70.5 -21t-38.5 -57h-123q21 82 85.5 127.5t157.5 45.5t144 -40.5t51 -115.5q0 -22 -6 -60l-28 -176q-11 -64 -14 -128h-119zM368 196l5 32l-116 -13q-54 -7 -80.5 -24t-26.5 -55q0 -27 19 -42.5t53 -15.5q55 0 96 30.5t50 87.5z" />
    <glyph glyph-name="adieresis" unicode="&#xe4;" horiz-adv-x="573" 
d="M385 594l20 125h118l-20 -125h-118zM185 594l20 125h118l-20 -125h-118zM349 0q-1 41 5 81q-25 -43 -72.5 -67.5t-105.5 -24.5q-68 0 -110.5 36t-42.5 95q0 75 53.5 117.5t149.5 53.5l159 18q6 32 6 47q0 69 -81 69q-42 0 -70.5 -21t-38.5 -57h-123q21 82 85.5 127.5
t157.5 45.5t144 -40.5t51 -115.5q0 -22 -6 -60l-28 -176q-11 -64 -14 -128h-119zM368 196l5 32l-116 -13q-54 -7 -80.5 -24t-26.5 -55q0 -27 19 -42.5t53 -15.5q55 0 96 30.5t50 87.5z" />
    <glyph glyph-name="aring" unicode="&#xe5;" horiz-adv-x="573" 
d="M373 787q43 0 71.5 -28.5t27.5 -70.5q1 -50 -34.5 -86t-89.5 -36q-43 0 -71 28t-28 70q0 50 35.5 86.5t88.5 36.5zM354 624q26 0 42.5 16.5t16.5 41.5q0 20 -13.5 33.5t-33.5 13.5q-25 0 -41.5 -17t-16.5 -41q0 -20 13.5 -33.5t32.5 -13.5zM349 0q-1 41 5 81
q-25 -43 -72.5 -67.5t-105.5 -24.5q-68 0 -110.5 36t-42.5 95q0 75 53.5 117.5t149.5 53.5l159 18q6 32 6 47q0 69 -81 69q-42 0 -70.5 -21t-38.5 -57h-123q21 82 85.5 127.5t157.5 45.5t144 -40.5t51 -115.5q0 -22 -6 -60l-28 -176q-11 -64 -14 -128h-119zM368 196l5 32
l-116 -13q-54 -7 -80.5 -24t-26.5 -55q0 -27 19 -42.5t53 -15.5q55 0 96 30.5t50 87.5z" />
    <glyph glyph-name="ae" unicode="&#xe6;" horiz-adv-x="901" 
d="M841 158q-28 -81 -93.5 -125.5t-152.5 -44.5q-132 0 -190 97q-81 -96 -205 -96q-78 0 -127 39t-49 105q0 73 57.5 118t164.5 45h138l5 33q2 20 2 26q0 69 -83 69q-42 0 -70.5 -20.5t-38.5 -56.5h-123q21 82 84.5 127.5t152.5 45.5q117 0 159 -78q76 78 184 78
q100 0 153.5 -56.5t53.5 -152.5q0 -40 -9 -85h-363v-14q0 -62 28.5 -96t84.5 -34q80 0 119 76h118zM648 427q-53 0 -91.5 -35.5t-54.5 -95.5h243q1 10 1 23q0 50 -24.5 79t-73.5 29zM227 78q55 0 94 32t47 86l5 30h-109q-115 0 -115 -82q0 -32 21.5 -49t56.5 -17z" />
    <glyph glyph-name="ccedilla" unicode="&#xe7;" horiz-adv-x="555" 
d="M335 -103q0 -44 -41 -70.5t-95 -26.5q-55 0 -91 18l9 58q48 -21 86 -21q26 0 42 9.5t16 26.5q0 26 -43 26q-15 0 -37 -6l-19 22l47 60q-76 15 -122 71.5t-46 143.5q0 137 84 224.5t207 87.5q94 0 147.5 -51t51.5 -135h-120q-2 42 -24.5 66t-62.5 24q-69 0 -112.5 -63
t-43.5 -152q0 -58 27 -91.5t73 -33.5q88 0 116 90h122q-25 -87 -89.5 -136.5t-157.5 -49.5h-2l-22 -27q7 1 18 1q33 0 57.5 -16.5t24.5 -48.5z" />
    <glyph glyph-name="egrave" unicode="&#xe8;" horiz-adv-x="576" 
d="M399 577h-83l-93 159h140zM516 158q-28 -81 -93.5 -125.5t-152.5 -44.5q-105 0 -167 59.5t-62 161.5q0 135 82 223t208 88q100 0 154 -56.5t54 -152.5q0 -33 -11 -88h-365v-11q0 -62 30 -96t86 -34q80 0 119 76h118zM324 425q-51 0 -90 -32t-57 -87h243q1 9 1 21
q0 45 -24.5 71.5t-72.5 26.5z" />
    <glyph glyph-name="eacute" unicode="&#xe9;" horiz-adv-x="576" 
d="M294 577l77 159h148l-141 -159h-84zM516 158q-28 -81 -93.5 -125.5t-152.5 -44.5q-105 0 -167 59.5t-62 161.5q0 135 82 223t208 88q100 0 154 -56.5t54 -152.5q0 -33 -11 -88h-365v-11q0 -62 30 -96t86 -34q80 0 119 76h118zM324 425q-51 0 -90 -32t-57 -87h243
q1 9 1 21q0 45 -24.5 71.5t-72.5 26.5z" />
    <glyph glyph-name="ecircumflex" unicode="&#xea;" horiz-adv-x="576" 
d="M325 736h117l60 -160h-71l-57 87l-106 -87h-77zM516 158q-28 -81 -93.5 -125.5t-152.5 -44.5q-105 0 -167 59.5t-62 161.5q0 135 82 223t208 88q100 0 154 -56.5t54 -152.5q0 -33 -11 -88h-365v-11q0 -62 30 -96t86 -34q80 0 119 76h118zM324 425q-51 0 -90 -32t-57 -87
h243q1 9 1 21q0 45 -24.5 71.5t-72.5 26.5z" />
    <glyph glyph-name="edieresis" unicode="&#xeb;" horiz-adv-x="576" 
d="M390 594l20 125h118l-20 -125h-118zM190 594l20 125h118l-20 -125h-118zM516 158q-28 -81 -93.5 -125.5t-152.5 -44.5q-105 0 -167 59.5t-62 161.5q0 135 82 223t208 88q100 0 154 -56.5t54 -152.5q0 -33 -11 -88h-365v-11q0 -62 30 -96t86 -34q80 0 119 76h118zM324 425
q-51 0 -90 -32t-57 -87h243q1 9 1 21q0 45 -24.5 71.5t-72.5 26.5z" />
    <glyph glyph-name="igrave" unicode="&#xec;" horiz-adv-x="286" 
d="M256 577h-83l-93 159h140zM119 508h129l-81 -508h-128z" />
    <glyph glyph-name="iacute" unicode="&#xed;" horiz-adv-x="286" 
d="M150 577l77 159h148l-141 -159h-84zM119 508h129l-81 -508h-128z" />
    <glyph glyph-name="icircumflex" unicode="&#xee;" horiz-adv-x="286" 
d="M173 736h117l60 -160h-71l-57 87l-106 -87h-77zM119 508h129l-81 -508h-128z" />
    <glyph glyph-name="idieresis" unicode="&#xef;" horiz-adv-x="286" 
d="M238 594l20 125h118l-20 -125h-118zM38 594l20 125h118l-20 -125h-118zM119 508h129l-81 -508h-128z" />
    <glyph glyph-name="eth" unicode="&#xf0;" horiz-adv-x="598" 
d="M559 320q0 -139 -78.5 -235.5t-211.5 -96.5q-103 0 -165.5 60t-62.5 163q0 131 79.5 217t201.5 86q58 0 94 -38q-20 63 -67 121l-143 -44l-18 51l122 38q-47 48 -110 88l1 6h147q37 -26 73 -60l99 31l18 -51l-78 -24q99 -128 99 -312zM322 421q-71 0 -112 -62.5
t-41 -152.5q0 -58 28.5 -90.5t79.5 -32.5q72 0 113 63.5t40 153.5q1 58 -28 89.5t-80 31.5z" />
    <glyph glyph-name="ntilde" unicode="&#xf1;" horiz-adv-x="623" 
d="M315 641q-36 0 -50 -66h-74q11 70 44 112.5t79 42.5q33 0 73 -33.5t58 -33.5q35 0 51 66h73q-11 -70 -44 -112.5t-79 -42.5q-32 0 -72.5 33.5t-58.5 33.5zM245 508l-14 -85q25 44 71 70.5t101 26.5q76 0 119 -41.5t43 -114.5q0 -19 -3 -40l-51 -324h-129l47 297
q3 33 3 35q0 87 -86 87q-51 0 -87.5 -35t-47.5 -108l-44 -276h-128l80 508h126z" />
    <glyph glyph-name="ograve" unicode="&#xf2;" horiz-adv-x="600" 
d="M396 577h-83l-93 159h140zM269 -12q-103 0 -165.5 60t-62.5 163q0 133 81 221t208 88q103 0 166 -60t63 -163q0 -133 -81 -221t-209 -88zM278 83q71 0 112 63.5t41 154.5q0 59 -28.5 91.5t-80.5 32.5q-71 0 -112 -63.5t-41 -154.5q0 -59 28.5 -91.5t80.5 -32.5z" />
    <glyph glyph-name="oacute" unicode="&#xf3;" horiz-adv-x="600" 
d="M305 577l77 159h148l-141 -159h-84zM269 -12q-103 0 -165.5 60t-62.5 163q0 133 81 221t208 88q103 0 166 -60t63 -163q0 -133 -81 -221t-209 -88zM278 83q71 0 112 63.5t41 154.5q0 59 -28.5 91.5t-80.5 32.5q-71 0 -112 -63.5t-41 -154.5q0 -59 28.5 -91.5t80.5 -32.5z
" />
    <glyph glyph-name="ocircumflex" unicode="&#xf4;" horiz-adv-x="600" 
d="M332 736h117l60 -160h-71l-57 87l-106 -87h-77zM269 -12q-103 0 -165.5 60t-62.5 163q0 133 81 221t208 88q103 0 166 -60t63 -163q0 -133 -81 -221t-209 -88zM278 83q71 0 112 63.5t41 154.5q0 59 -28.5 91.5t-80.5 32.5q-71 0 -112 -63.5t-41 -154.5q0 -59 28.5 -91.5
t80.5 -32.5z" />
    <glyph glyph-name="otilde" unicode="&#xf5;" horiz-adv-x="600" 
d="M300 641q-36 0 -50 -66h-74q11 70 44 112.5t79 42.5q33 0 73 -33.5t58 -33.5q35 0 51 66h73q-11 -70 -44 -112.5t-79 -42.5q-32 0 -72.5 33.5t-58.5 33.5zM269 -12q-103 0 -165.5 60t-62.5 163q0 133 81 221t208 88q103 0 166 -60t63 -163q0 -133 -81 -221t-209 -88z
M278 83q71 0 112 63.5t41 154.5q0 59 -28.5 91.5t-80.5 32.5q-71 0 -112 -63.5t-41 -154.5q0 -59 28.5 -91.5t80.5 -32.5z" />
    <glyph glyph-name="odieresis" unicode="&#xf6;" horiz-adv-x="600" 
d="M401 594l20 125h118l-20 -125h-118zM201 594l20 125h118l-20 -125h-118zM269 -12q-103 0 -165.5 60t-62.5 163q0 133 81 221t208 88q103 0 166 -60t63 -163q0 -133 -81 -221t-209 -88zM278 83q71 0 112 63.5t41 154.5q0 59 -28.5 91.5t-80.5 32.5q-71 0 -112 -63.5
t-41 -154.5q0 -59 28.5 -91.5t80.5 -32.5z" />
    <glyph glyph-name="divide" unicode="&#xf7;" 
d="M310 490l19 119h122l-18 -119h-123zM70 285l16 95h529l-16 -95h-529zM241 55l19 120h122l-18 -120h-123z" />
    <glyph glyph-name="oslash" unicode="&#xf8;" horiz-adv-x="600" 
d="M269 -12q-81 0 -139 39l-60 -63l-45 44l59 62q-43 57 -43 141q0 133 81 221t208 88q86 0 146 -43l52 54l44 -44l-52 -55q39 -55 39 -135q0 -133 -81 -221t-209 -88zM163 205q0 -26 6 -47l234 243q-30 28 -80 28q-76 0 -118 -65t-42 -159zM437 303q0 23 -4 39l-230 -240
q28 -23 74 -23q76 0 118 64.5t42 159.5z" />
    <glyph glyph-name="ugrave" unicode="&#xf9;" horiz-adv-x="616" 
d="M404 577h-83l-93 159h140zM372 0l13 85q-26 -44 -70 -70.5t-99 -26.5q-74 0 -115.5 41t-41.5 114q0 22 3 43l51 322h129l-47 -298q-4 -28 -4 -36q0 -85 83 -85q50 0 85 35t46 108l44 276h128l-80 -508h-125z" />
    <glyph glyph-name="uacute" unicode="&#xfa;" horiz-adv-x="616" 
d="M304 577l77 159h148l-141 -159h-84zM372 0l13 85q-26 -44 -70 -70.5t-99 -26.5q-74 0 -115.5 41t-41.5 114q0 22 3 43l51 322h129l-47 -298q-4 -28 -4 -36q0 -85 83 -85q50 0 85 35t46 108l44 276h128l-80 -508h-125z" />
    <glyph glyph-name="ucircumflex" unicode="&#xfb;" horiz-adv-x="616" 
d="M335 736h117l60 -160h-71l-57 87l-106 -87h-77zM372 0l13 85q-26 -44 -70 -70.5t-99 -26.5q-74 0 -115.5 41t-41.5 114q0 22 3 43l51 322h129l-47 -298q-4 -28 -4 -36q0 -85 83 -85q50 0 85 35t46 108l44 276h128l-80 -508h-125z" />
    <glyph glyph-name="udieresis" unicode="&#xfc;" horiz-adv-x="616" 
d="M400 594l20 125h118l-20 -125h-118zM200 594l20 125h118l-20 -125h-118zM372 0l13 85q-26 -44 -70 -70.5t-99 -26.5q-74 0 -115.5 41t-41.5 114q0 22 3 43l51 322h129l-47 -298q-4 -28 -4 -36q0 -85 83 -85q50 0 85 35t46 108l44 276h128l-80 -508h-125z" />
    <glyph glyph-name="yacute" unicode="&#xfd;" horiz-adv-x="577" 
d="M285 577l77 159h148l-141 -159h-84zM159 3l-98 505h127l64 -384h2l214 384h128l-301 -516q-57 -97 -111.5 -137.5t-136.5 -40.5q-34 0 -61 10l16 95q21 -7 39 -7q36 0 62.5 20.5t55.5 70.5z" />
    <glyph glyph-name="thorn" unicode="&#xfe;" horiz-adv-x="634" 
d="M181 87l-42 -265h-128l145 914h128l-50 -311q60 95 167 95q89 0 141 -59t52 -159q0 -129 -72.5 -221.5t-186.5 -92.5q-55 0 -97 28t-57 71zM358 426q-61 0 -101.5 -44t-52.5 -119q-5 -38 -5 -57q0 -57 30 -90.5t80 -33.5q71 0 114 61.5t43 154.5q0 60 -28 94t-80 34z" />
    <glyph glyph-name="ydieresis" unicode="&#xff;" horiz-adv-x="577" 
d="M377 594l20 125h118l-20 -125h-118zM177 594l20 125h118l-20 -125h-118zM159 3l-98 505h127l64 -384h2l214 384h128l-301 -516q-57 -97 -111.5 -137.5t-136.5 -40.5q-34 0 -61 10l16 95q21 -7 39 -7q36 0 62.5 20.5t55.5 70.5z" />
    <glyph glyph-name="Amacron" unicode="&#x100;" horiz-adv-x="746" 
d="M296 779l13 86h327l-14 -86h-326zM560 0l-38 175h-318l-98 -175h-135l406 714h149l168 -714h-134zM432 585l-171 -307h239l-66 307h-2z" />
    <glyph glyph-name="amacron" unicode="&#x101;" horiz-adv-x="573" 
d="M189 594l14 86h306l-13 -86h-307zM349 0q-1 41 5 81q-25 -43 -72.5 -67.5t-105.5 -24.5q-68 0 -110.5 36t-42.5 95q0 75 53.5 117.5t149.5 53.5l159 18q6 32 6 47q0 69 -81 69q-42 0 -70.5 -21t-38.5 -57h-123q21 82 85.5 127.5t157.5 45.5t144 -40.5t51 -115.5
q0 -22 -6 -60l-28 -176q-11 -64 -14 -128h-119zM368 196l5 32l-116 -13q-54 -7 -80.5 -24t-26.5 -55q0 -27 19 -42.5t53 -15.5q55 0 96 30.5t50 87.5z" />
    <glyph glyph-name="Abreve" unicode="&#x102;" horiz-adv-x="746" 
d="M641 921q-11 -73 -57.5 -116.5t-112.5 -43.5q-58 0 -90.5 33t-32.5 92q0 17 3 35h78q-1 -7 -1 -21q0 -58 55 -58q30 0 51 21t27 58h80zM560 0l-38 175h-318l-98 -175h-135l406 714h149l168 -714h-134zM432 585l-171 -307h239l-66 307h-2z" />
    <glyph glyph-name="abreve" unicode="&#x103;" horiz-adv-x="573" 
d="M348 576q-58 0 -90.5 33t-32.5 92q0 15 4 35h77q-2 -16 -2 -20q0 -29 15 -45t41 -16q31 0 52 21.5t27 59.5h80q-11 -73 -57.5 -116.5t-113.5 -43.5zM349 0q-1 41 5 81q-25 -43 -72.5 -67.5t-105.5 -24.5q-68 0 -110.5 36t-42.5 95q0 75 53.5 117.5t149.5 53.5l159 18
q6 32 6 47q0 69 -81 69q-42 0 -70.5 -21t-38.5 -57h-123q21 82 85.5 127.5t157.5 45.5t144 -40.5t51 -115.5q0 -22 -6 -60l-28 -176q-11 -64 -14 -128h-119zM368 196l5 32l-116 -13q-54 -7 -80.5 -24t-26.5 -55q0 -27 19 -42.5t53 -15.5q55 0 96 30.5t50 87.5z" />
    <glyph glyph-name="Aogonek" unicode="&#x104;" horiz-adv-x="746" 
d="M626 -181q-28 -9 -62 -9q-35 0 -59 19t-24 51t18.5 60.5t58.5 67.5l-36 167h-318l-98 -175h-135l406 714h149l168 -714h-69q-38 -41 -49.5 -58t-11.5 -34q0 -28 32 -28q18 0 40 6zM432 585l-171 -307h239l-66 307h-2z" />
    <glyph glyph-name="aogonek" unicode="&#x105;" horiz-adv-x="573" 
d="M412 -181q-28 -9 -62 -9q-35 0 -59 19t-24 51q0 33 20 62t62 70q0 32 5 69q-25 -43 -72.5 -67.5t-105.5 -24.5q-68 0 -110.5 36t-42.5 95q0 75 53.5 117.5t149.5 53.5l159 18q6 32 6 47q0 69 -81 69q-42 0 -70.5 -21t-38.5 -57h-123q21 82 85.5 127.5t157.5 45.5
t144 -40.5t51 -115.5q0 -22 -6 -60l-28 -176q-11 -64 -14 -128h-57q-38 -41 -49.5 -58t-11.5 -34q0 -28 32 -28q18 0 40 6zM368 196l5 32l-116 -13q-54 -7 -80.5 -24t-26.5 -55q0 -27 19 -42.5t53 -15.5q55 0 96 30.5t50 87.5z" />
    <glyph glyph-name="Cacute" unicode="&#x106;" horiz-adv-x="708" 
d="M403 764l78 153h154l-148 -153h-84zM355 -12q-139 0 -219.5 84t-80.5 222q0 180 108.5 306t279.5 126q124 0 192.5 -64.5t73.5 -171.5h-130q-2 58 -38.5 94.5t-104.5 36.5q-113 0 -179.5 -96.5t-66.5 -233.5q0 -91 44.5 -144.5t126.5 -53.5q129 0 176 131h130
q-34 -109 -112 -172.5t-200 -63.5z" />
    <glyph glyph-name="cacute" unicode="&#x107;" horiz-adv-x="555" 
d="M301 577l77 159h148l-141 -159h-84zM41 208q0 137 84 224.5t207 87.5q94 0 147.5 -51t51.5 -135h-120q-2 42 -24.5 66t-62.5 24q-69 0 -112.5 -63t-43.5 -152q0 -58 27 -91.5t73 -33.5q88 0 116 90h122q-25 -87 -89.5 -136.5t-157.5 -49.5q-96 0 -157 59.5t-61 160.5z
" />
    <glyph glyph-name="Ccircumflex" unicode="&#x108;" horiz-adv-x="708" 
d="M430 917h119l76 -154h-71l-72 80l-102 -80h-77zM355 -12q-139 0 -219.5 84t-80.5 222q0 180 108.5 306t279.5 126q124 0 192.5 -64.5t73.5 -171.5h-130q-2 58 -38.5 94.5t-104.5 36.5q-113 0 -179.5 -96.5t-66.5 -233.5q0 -91 44.5 -144.5t126.5 -53.5q129 0 176 131h130
q-34 -109 -112 -172.5t-200 -63.5z" />
    <glyph glyph-name="ccircumflex" unicode="&#x109;" horiz-adv-x="555" 
d="M324 736h117l60 -160h-71l-57 87l-106 -87h-77zM41 208q0 137 84 224.5t207 87.5q94 0 147.5 -51t51.5 -135h-120q-2 42 -24.5 66t-62.5 24q-69 0 -112.5 -63t-43.5 -152q0 -58 27 -91.5t73 -33.5q88 0 116 90h122q-25 -87 -89.5 -136.5t-157.5 -49.5q-96 0 -157 59.5
t-61 160.5z" />
    <glyph glyph-name="Cdotaccent" unicode="&#x10a;" horiz-adv-x="708" 
d="M392 775l20 125h135l-20 -125h-135zM355 -12q-139 0 -219.5 84t-80.5 222q0 180 108.5 306t279.5 126q124 0 192.5 -64.5t73.5 -171.5h-130q-2 58 -38.5 94.5t-104.5 36.5q-113 0 -179.5 -96.5t-66.5 -233.5q0 -91 44.5 -144.5t126.5 -53.5q129 0 176 131h130
q-34 -109 -112 -172.5t-200 -63.5z" />
    <glyph glyph-name="cdotaccent" unicode="&#x10b;" horiz-adv-x="555" 
d="M285 594l19 125h136l-19 -125h-136zM41 208q0 137 84 224.5t207 87.5q94 0 147.5 -51t51.5 -135h-120q-2 42 -24.5 66t-62.5 24q-69 0 -112.5 -63t-43.5 -152q0 -58 27 -91.5t73 -33.5q88 0 116 90h122q-25 -87 -89.5 -136.5t-157.5 -49.5q-96 0 -157 59.5t-61 160.5z
" />
    <glyph glyph-name="Ccaron" unicode="&#x10c;" horiz-adv-x="708" 
d="M514 763h-119l-76 154h71l72 -80l102 80h77zM355 -12q-139 0 -219.5 84t-80.5 222q0 180 108.5 306t279.5 126q124 0 192.5 -64.5t73.5 -171.5h-130q-2 58 -38.5 94.5t-104.5 36.5q-113 0 -179.5 -96.5t-66.5 -233.5q0 -91 44.5 -144.5t126.5 -53.5q129 0 176 131h130
q-34 -109 -112 -172.5t-200 -63.5z" />
    <glyph glyph-name="ccaron" unicode="&#x10d;" horiz-adv-x="555" 
d="M409 576h-117l-60 160h71l57 -87l106 87h77zM41 208q0 137 84 224.5t207 87.5q94 0 147.5 -51t51.5 -135h-120q-2 42 -24.5 66t-62.5 24q-69 0 -112.5 -63t-43.5 -152q0 -58 27 -91.5t73 -33.5q88 0 116 90h122q-25 -87 -89.5 -136.5t-157.5 -49.5q-96 0 -157 59.5
t-61 160.5z" />
    <glyph glyph-name="Dcaron" unicode="&#x10e;" horiz-adv-x="754" 
d="M488 763h-119l-76 154h71l72 -80l102 80h77zM154 714h268q148 0 228.5 -81t80.5 -218q0 -184 -115.5 -299.5t-296.5 -115.5h-278zM403 609h-134l-81 -504h143q120 0 192.5 84t72.5 224q0 196 -193 196z" />
    <glyph glyph-name="dcaron" unicode="&#x10f;" horiz-adv-x="649" 
d="M454 422l50 314h128l-116 -735h-125l13 85q-27 -42 -71 -70t-100 -28q-87 0 -139.5 58.5t-52.5 155.5q0 131 72 225t186 94q56 0 98.5 -28t56.5 -71zM738 533h-62l58 203h136zM277 82q61 0 101 44t53 120q5 36 5 57q0 57 -30 90.5t-81 33.5q-71 0 -113.5 -63t-42.5 -157
q0 -57 28 -91t80 -34z" />
    <glyph glyph-name="Dcroat" unicode="&#x110;" horiz-adv-x="774" 
d="M751 415q0 -184 -115.5 -299.5t-296.5 -115.5h-278l49 312h-73l16 101h73l48 301h268q148 0 228.5 -81t80.5 -218zM208 105h143q120 0 192.5 84t72.5 224q0 196 -193 196h-134l-31 -196h124l-17 -101h-124z" />
    <glyph glyph-name="dcroat" unicode="&#x111;" horiz-adv-x="643" 
d="M403 85q-27 -42 -71 -70t-100 -28q-87 0 -139.5 58.5t-52.5 155.5q0 131 72 225t186 94q56 0 98.5 -28t56.5 -71l25 157h-116l12 76h116l13 81h128l-13 -81h73l-11 -76h-74l-91 -578h-125zM276 81q61 0 101 44t53 120q5 36 5 57q0 57 -30 90.5t-81 33.5q-71 0 -113.5 -63
t-42.5 -157q0 -57 28 -91t80 -34z" />
    <glyph glyph-name="Emacron" unicode="&#x112;" horiz-adv-x="654" 
d="M260 779l13 86h327l-14 -86h-326zM41 0l113 714h514l-16 -105h-384l-32 -199h339l-17 -105h-339l-31 -200h387l-17 -105h-517z" />
    <glyph glyph-name="emacron" unicode="&#x113;" horiz-adv-x="576" 
d="M195 594l14 86h306l-13 -86h-307zM516 158q-28 -81 -93.5 -125.5t-152.5 -44.5q-105 0 -167 59.5t-62 161.5q0 135 82 223t208 88q100 0 154 -56.5t54 -152.5q0 -33 -11 -88h-365v-11q0 -62 30 -96t86 -34q80 0 119 76h118zM324 425q-51 0 -90 -32t-57 -87h243q1 9 1 21
q0 45 -24.5 71.5t-72.5 26.5z" />
    <glyph glyph-name="Ebreve" unicode="&#x114;" horiz-adv-x="654" 
d="M585 921q-11 -73 -57.5 -116.5t-112.5 -43.5q-58 0 -90.5 33t-32.5 92q0 17 3 35h78q-1 -7 -1 -21q0 -58 55 -58q30 0 51 21t27 58h80zM41 0l113 714h514l-16 -105h-384l-32 -199h339l-17 -105h-339l-31 -200h387l-17 -105h-517z" />
    <glyph glyph-name="ebreve" unicode="&#x115;" horiz-adv-x="576" 
d="M348 576q-58 0 -90.5 33t-32.5 92q0 15 4 35h77q-2 -16 -2 -20q0 -29 15 -45t41 -16q31 0 52 21.5t27 59.5h80q-11 -73 -57.5 -116.5t-113.5 -43.5zM516 158q-28 -81 -93.5 -125.5t-152.5 -44.5q-105 0 -167 59.5t-62 161.5q0 135 82 223t208 88q100 0 154 -56.5
t54 -152.5q0 -33 -11 -88h-365v-11q0 -62 30 -96t86 -34q80 0 119 76h118zM324 425q-51 0 -90 -32t-57 -87h243q1 9 1 21q0 45 -24.5 71.5t-72.5 26.5z" />
    <glyph glyph-name="Edotaccent" unicode="&#x116;" horiz-adv-x="654" 
d="M360 775l20 125h135l-20 -125h-135zM41 0l113 714h514l-16 -105h-384l-32 -199h339l-17 -105h-339l-31 -200h387l-17 -105h-517z" />
    <glyph glyph-name="edotaccent" unicode="&#x117;" horiz-adv-x="576" 
d="M281 594l19 125h136l-19 -125h-136zM516 158q-28 -81 -93.5 -125.5t-152.5 -44.5q-105 0 -167 59.5t-62 161.5q0 135 82 223t208 88q100 0 154 -56.5t54 -152.5q0 -33 -11 -88h-365v-11q0 -62 30 -96t86 -34q80 0 119 76h118zM324 425q-51 0 -90 -32t-57 -87h243
q1 9 1 21q0 45 -24.5 71.5t-72.5 26.5z" />
    <glyph glyph-name="Eogonek" unicode="&#x118;" horiz-adv-x="654" 
d="M489 -181q-28 -9 -62 -9q-35 0 -59 19t-24 51q0 52 70 120h-373l113 714h514l-16 -105h-384l-32 -199h339l-17 -105h-339l-31 -200h387l-17 -105h-70q-38 -41 -49.5 -58t-11.5 -34q0 -28 32 -28q18 0 40 6z" />
    <glyph glyph-name="eogonek" unicode="&#x119;" horiz-adv-x="576" 
d="M383 -181q-28 -9 -62 -9q-35 0 -59 19t-24 51q0 48 59 109q-9 -1 -27 -1q-105 0 -167 59.5t-62 161.5q0 135 82 223t208 88q100 0 154 -56.5t54 -152.5q0 -33 -11 -88h-365v-11q0 -62 30 -96t86 -34q80 0 119 76h118q-25 -74 -116 -143q-79 -59 -79 -107q0 -28 32 -28
q18 0 40 6zM324 425q-51 0 -90 -32t-57 -87h243q1 9 1 21q0 45 -24.5 71.5t-72.5 26.5z" />
    <glyph glyph-name="Ecaron" unicode="&#x11a;" horiz-adv-x="654" 
d="M481 763h-119l-76 154h71l72 -80l102 80h77zM41 0l113 714h514l-16 -105h-384l-32 -199h339l-17 -105h-339l-31 -200h387l-17 -105h-517z" />
    <glyph glyph-name="ecaron" unicode="&#x11b;" horiz-adv-x="576" 
d="M402 576h-117l-60 160h71l57 -87l106 87h77zM516 158q-28 -81 -93.5 -125.5t-152.5 -44.5q-105 0 -167 59.5t-62 161.5q0 135 82 223t208 88q100 0 154 -56.5t54 -152.5q0 -33 -11 -88h-365v-11q0 -62 30 -96t86 -34q80 0 119 76h118zM324 425q-51 0 -90 -32t-57 -87h243
q1 9 1 21q0 45 -24.5 71.5t-72.5 26.5z" />
    <glyph glyph-name="Gcircumflex" unicode="&#x11c;" horiz-adv-x="763" 
d="M419 917h119l76 -154h-71l-72 80l-102 -80h-77zM340 -12q-127 0 -206 83.5t-79 220.5q0 181 108.5 307.5t279.5 126.5q125 0 195 -64.5t75 -170.5h-129q-3 57 -41 93.5t-106 36.5q-114 0 -180.5 -96.5t-66.5 -233.5q0 -90 44 -144.5t126 -54.5q83 0 137.5 45t66.5 131
h-138l15 96h271l-58 -363h-103l7 101q-27 -52 -87 -83t-131 -31z" />
    <glyph glyph-name="gcircumflex" unicode="&#x11d;" horiz-adv-x="635" 
d="M347 736h117l60 -160h-71l-57 87l-106 -87h-77zM393 33l12 77q-60 -97 -171 -97q-87 0 -139 57.5t-52 153.5q0 119 70.5 207.5t181.5 88.5q58 0 103.5 -29.5t58.5 -71.5l14 89h125l-73 -460q-19 -121 -93.5 -179.5t-191.5 -58.5q-100 0 -161.5 42.5t-66.5 115.5h127
q8 -68 107 -68q129 0 149 133zM432 259q5 34 5 51q0 54 -30.5 85.5t-81.5 31.5q-70 0 -112.5 -56.5t-42.5 -141.5q0 -58 28 -90t81 -32q60 0 100.5 40.5t52.5 111.5z" />
    <glyph glyph-name="Gbreve" unicode="&#x11e;" horiz-adv-x="763" 
d="M629 921q-11 -73 -57.5 -116.5t-112.5 -43.5q-58 0 -90.5 33t-32.5 92q0 17 3 35h78q-1 -7 -1 -21q0 -58 55 -58q30 0 51 21t27 58h80zM340 -12q-127 0 -206 83.5t-79 220.5q0 181 108.5 307.5t279.5 126.5q125 0 195 -64.5t75 -170.5h-129q-3 57 -41 93.5t-106 36.5
q-114 0 -180.5 -96.5t-66.5 -233.5q0 -90 44 -144.5t126 -54.5q83 0 137.5 45t66.5 131h-138l15 96h271l-58 -363h-103l7 101q-27 -52 -87 -83t-131 -31z" />
    <glyph glyph-name="gbreve" unicode="&#x11f;" horiz-adv-x="635" 
d="M373 576q-58 0 -90.5 33t-32.5 92q0 15 4 35h77q-2 -16 -2 -20q0 -29 15 -45t41 -16q31 0 52 21.5t27 59.5h80q-11 -73 -57.5 -116.5t-113.5 -43.5zM393 33l12 77q-60 -97 -171 -97q-87 0 -139 57.5t-52 153.5q0 119 70.5 207.5t181.5 88.5q58 0 103.5 -29.5t58.5 -71.5
l14 89h125l-73 -460q-19 -121 -93.5 -179.5t-191.5 -58.5q-100 0 -161.5 42.5t-66.5 115.5h127q8 -68 107 -68q129 0 149 133zM432 259q5 34 5 51q0 54 -30.5 85.5t-81.5 31.5q-70 0 -112.5 -56.5t-42.5 -141.5q0 -58 28 -90t81 -32q60 0 100.5 40.5t52.5 111.5z" />
    <glyph glyph-name="Gdotaccent" unicode="&#x120;" horiz-adv-x="763" 
d="M393 775l20 125h135l-20 -125h-135zM340 -12q-127 0 -206 83.5t-79 220.5q0 181 108.5 307.5t279.5 126.5q125 0 195 -64.5t75 -170.5h-129q-3 57 -41 93.5t-106 36.5q-114 0 -180.5 -96.5t-66.5 -233.5q0 -90 44 -144.5t126 -54.5q83 0 137.5 45t66.5 131h-138l15 96
h271l-58 -363h-103l7 101q-27 -52 -87 -83t-131 -31z" />
    <glyph glyph-name="gdotaccent" unicode="&#x121;" horiz-adv-x="635" 
d="M305 594l19 125h136l-19 -125h-136zM393 33l12 77q-60 -97 -171 -97q-87 0 -139 57.5t-52 153.5q0 119 70.5 207.5t181.5 88.5q58 0 103.5 -29.5t58.5 -71.5l14 89h125l-73 -460q-19 -121 -93.5 -179.5t-191.5 -58.5q-100 0 -161.5 42.5t-66.5 115.5h127q8 -68 107 -68
q129 0 149 133zM432 259q5 34 5 51q0 54 -30.5 85.5t-81.5 31.5q-70 0 -112.5 -56.5t-42.5 -141.5q0 -58 28 -90t81 -32q60 0 100.5 40.5t52.5 111.5z" />
    <glyph glyph-name="uni0122" unicode="&#x122;" horiz-adv-x="763" 
d="M340 -12q-127 0 -206 83.5t-79 220.5q0 181 108.5 307.5t279.5 126.5q125 0 195 -64.5t75 -170.5h-129q-3 57 -41 93.5t-106 36.5q-114 0 -180.5 -96.5t-66.5 -233.5q0 -90 44 -144.5t126 -54.5q83 0 137.5 45t66.5 131h-138l15 96h271l-58 -363h-103l7 101
q-27 -52 -87 -83t-131 -31zM261 -132l13 83h128l-9 -63q-10 -62 -46 -91t-104 -29l7 47q55 0 61 53h-50z" />
    <glyph glyph-name="uni0123" unicode="&#x123;" horiz-adv-x="635" 
d="M448 663l-13 -83h-128l9 63q10 62 46 91t104 29l-7 -47q-55 0 -61 -53h50zM393 33l12 77q-60 -97 -171 -97q-87 0 -139 57.5t-52 153.5q0 119 70.5 207.5t181.5 88.5q58 0 103.5 -29.5t58.5 -71.5l14 89h125l-73 -460q-19 -121 -93.5 -179.5t-191.5 -58.5
q-100 0 -161.5 42.5t-66.5 115.5h127q8 -68 107 -68q129 0 149 133zM432 259q5 34 5 51q0 54 -30.5 85.5t-81.5 31.5q-70 0 -112.5 -56.5t-42.5 -141.5q0 -58 28 -90t81 -32q60 0 100.5 40.5t52.5 111.5z" />
    <glyph glyph-name="Hcircumflex" unicode="&#x124;" horiz-adv-x="793" 
d="M435 917h119l76 -154h-71l-72 80l-102 -80h-77zM41 0l113 714h132l-47 -300h367l47 300h132l-113 -714h-132l49 310h-367l-49 -310h-132z" />
    <glyph glyph-name="hcircumflex" unicode="&#x125;" horiz-adv-x="623" 
d="M336 927h119l76 -154h-71l-72 80l-102 -80h-77zM284 736l-50 -312q25 44 69.5 70t99.5 26q76 0 119 -41.5t43 -114.5q0 -19 -3 -40l-51 -324h-129l47 297q3 33 3 35q0 87 -86 87q-51 0 -87.5 -35t-47.5 -108l-44 -276h-128l117 736h128z" />
    <glyph glyph-name="Hbar" unicode="&#x126;" horiz-adv-x="833" 
d="M232 246l-39 -246h-132l75 477h-72l16 101h72l22 136h132l-21 -136h367l21 136h132l-22 -136h74l-17 -101h-73l-75 -477h-132l39 246h-367zM249 350h367l20 127h-367z" />
    <glyph glyph-name="hbar" unicode="&#x127;" horiz-adv-x="633" 
d="M221 276l-44 -276h-128l92 578h-74l12 76h74l13 82h128l-13 -82h116l-12 -76h-116l-25 -154q25 44 69.5 70t99.5 26q76 0 119 -41.5t43 -114.5q0 -19 -3 -40l-51 -324h-129l47 297q3 33 3 35q0 87 -86 87q-51 0 -87.5 -35t-47.5 -108z" />
    <glyph glyph-name="Itilde" unicode="&#x128;" horiz-adv-x="294" 
d="M177 832q-36 0 -50 -63h-74q11 70 44 112.5t79 42.5q33 0 74 -32.5t57 -32.5q38 0 51 63h73q-11 -70 -44 -112.5t-79 -42.5q-33 0 -73.5 32.5t-57.5 32.5zM154 714h132l-113 -714h-132z" />
    <glyph glyph-name="itilde" unicode="&#x129;" horiz-adv-x="286" 
d="M155 641q-33 0 -45 -66h-72q11 71 41.5 113t75.5 42q24 0 42.5 -17t32.5 -33.5t28 -16.5q32 0 46 66h71q-12 -72 -42 -113.5t-75 -41.5q-19 0 -34.5 10.5t-24.5 23t-21 23t-23 10.5zM119 508h129l-81 -508h-128z" />
    <glyph glyph-name="Imacron" unicode="&#x12a;" horiz-adv-x="294" 
d="M66 779l13 86h327l-14 -86h-326zM154 714h132l-113 -714h-132z" />
    <glyph glyph-name="imacron" unicode="&#x12b;" horiz-adv-x="286" 
d="M64 594l13 86h266l-13 -86h-266zM119 508h129l-81 -508h-128z" />
    <glyph glyph-name="Ibreve" unicode="&#x12c;" horiz-adv-x="294" 
d="M398 921q-11 -73 -57.5 -116.5t-112.5 -43.5q-58 0 -90.5 33t-32.5 92q0 17 3 35h78q-1 -7 -1 -21q0 -58 55 -58q30 0 51 21t27 58h80zM154 714h132l-113 -714h-132z" />
    <glyph glyph-name="ibreve" unicode="&#x12d;" horiz-adv-x="286" 
d="M194 576q-58 0 -90.5 33t-32.5 92q0 15 4 35h77q-2 -16 -2 -20q0 -29 15 -45t41 -16q31 0 52 21.5t27 59.5h80q-11 -73 -57.5 -116.5t-113.5 -43.5zM119 508h129l-81 -508h-128z" />
    <glyph glyph-name="Iogonek" unicode="&#x12e;" horiz-adv-x="294" 
d="M146 -181q-28 -9 -62 -9q-35 0 -59 19t-24 51q0 30 17 56t55 64h-32l113 714h132l-113 -714q-89 -47 -89 -92q0 -28 32 -28q20 0 40 6z" />
    <glyph glyph-name="iogonek" unicode="&#x12f;" horiz-adv-x="286" 
d="M128 594l20 125h136l-20 -125h-136zM67 0h-28l80 508h129l-81 -508q-89 -47 -89 -92q0 -28 32 -28q20 0 40 6l-10 -67q-28 -9 -62 -9q-35 0 -59 19t-24 51q0 30 17 56t55 64z" />
    <glyph glyph-name="Idotaccent" unicode="&#x130;" horiz-adv-x="294" 
d="M163 775l20 125h135l-20 -125h-135zM154 714h132l-113 -714h-132z" />
    <glyph glyph-name="dotlessi" unicode="&#x131;" horiz-adv-x="286" 
d="M119 508h129l-81 -508h-128z" />
    <glyph glyph-name="Jcircumflex" unicode="&#x134;" horiz-adv-x="604" 
d="M504 917h119l76 -154h-71l-72 80l-102 -80h-77zM399 253l73 461h132l-72 -457q-20 -126 -94.5 -197.5t-197.5 -71.5q-112 0 -174.5 63.5t-56.5 169.5h124q-1 -62 28 -98.5t88 -36.5q125 0 150 167z" />
    <glyph glyph-name="jcircumflex" unicode="&#x135;" horiz-adv-x="286" 
d="M172 736h117l60 -160h-71l-57 87l-106 -87h-77zM-14 -184q-39 0 -68 9l15 93q20 -5 35 -5q31 0 46 14t21 49l84 532h129l-85 -535q-24 -157 -177 -157z" />
    <glyph glyph-name="uni0136" unicode="&#x136;" horiz-adv-x="734" 
d="M530 0l-205 313l-119 -107l-33 -206h-132l113 714h132l-56 -355l384 355h157l-349 -313l258 -401h-150zM246 -132l13 83h128l-9 -63q-10 -62 -46 -91t-104 -29l7 47q55 0 61 53h-50z" />
    <glyph glyph-name="uni0137" unicode="&#x137;" horiz-adv-x="597" 
d="M402 0l-134 221l-76 -64l-25 -157h-128l117 736h128l-71 -444l249 216h148l-247 -211l179 -297h-140zM187 -132l13 83h128l-9 -63q-10 -62 -46 -91t-104 -29l7 47q55 0 61 53h-50z" />
    <glyph glyph-name="kgreenlandic" unicode="&#x138;" horiz-adv-x="597" 
d="M402 0l-134 221l-76 -64l-25 -157h-128l80 508h129l-34 -216l248 216h148l-247 -211l179 -297h-140z" />
    <glyph glyph-name="Lacute" unicode="&#x139;" horiz-adv-x="634" 
d="M192 764l78 153h154l-148 -153h-84zM42 0l113 714h132l-97 -609h370l-17 -105h-501z" />
    <glyph glyph-name="lacute" unicode="&#x13a;" horiz-adv-x="286" 
d="M184 774l78 153h154l-148 -153h-84zM167 0h-128l117 736h128z" />
    <glyph glyph-name="uni013B" unicode="&#x13b;" horiz-adv-x="634" 
d="M42 0l113 714h132l-97 -609h370l-17 -105h-501zM212 -132l13 83h128l-9 -63q-10 -62 -46 -91t-104 -29l7 47q55 0 61 53h-50z" />
    <glyph glyph-name="uni013C" unicode="&#x13c;" horiz-adv-x="286" 
d="M167 0h-128l117 736h128zM17 -132l13 83h128l-9 -63q-10 -62 -46 -91t-104 -29l7 47q55 0 61 53h-50z" />
    <glyph glyph-name="Lcaron" unicode="&#x13d;" horiz-adv-x="634" 
d="M448 512h-62l58 203h136zM42 0l113 714h132l-97 -609h370l-17 -105h-501z" />
    <glyph glyph-name="lcaron" unicode="&#x13e;" horiz-adv-x="300" 
d="M167 0h-128l117 736h128zM389 533h-62l58 203h136z" />
    <glyph glyph-name="Ldot" unicode="&#x13f;" horiz-adv-x="634" 
d="M42 0l113 714h132l-97 -609h370l-17 -105h-501zM393 319l19 125h136l-19 -125h-136z" />
    <glyph glyph-name="ldot" unicode="&#x140;" horiz-adv-x="449" 
d="M167 0h-128l117 736h128zM303 278l19 125h136l-19 -125h-136z" />
    <glyph glyph-name="Lslash" unicode="&#x141;" horiz-adv-x="655" 
d="M582 105l-17 -105h-501l45 286l-80 -27l19 102l77 26l52 327h132l-46 -287l157 51l-16 -102l-157 -52l-35 -219h370z" />
    <glyph glyph-name="lslash" unicode="&#x142;" horiz-adv-x="339" 
d="M346 425l-96 -41l-61 -384h-128l53 335l-87 -37l15 94l87 37l49 307h128l-41 -257l96 41z" />
    <glyph glyph-name="Nacute" unicode="&#x143;" horiz-adv-x="779" 
d="M410 764l78 153h154l-148 -153h-84zM304 714l258 -510h2l80 510h126l-113 -714h-117l-282 556h-2l-88 -556h-127l113 714h150z" />
    <glyph glyph-name="nacute" unicode="&#x144;" horiz-adv-x="623" 
d="M308 577l77 159h148l-141 -159h-84zM245 508l-14 -85q25 44 71 70.5t101 26.5q76 0 119 -41.5t43 -114.5q0 -19 -3 -40l-51 -324h-129l47 297q3 33 3 35q0 87 -86 87q-51 0 -87.5 -35t-47.5 -108l-44 -276h-128l80 508h126z" />
    <glyph glyph-name="uni0145" unicode="&#x145;" horiz-adv-x="779" 
d="M304 714l258 -510h2l80 510h126l-113 -714h-117l-282 556h-2l-88 -556h-127l113 714h150zM272 -132l13 83h128l-9 -63q-10 -62 -46 -91t-104 -29l7 47q55 0 61 53h-50z" />
    <glyph glyph-name="uni0146" unicode="&#x146;" horiz-adv-x="623" 
d="M245 508l-14 -85q25 44 71 70.5t101 26.5q76 0 119 -41.5t43 -114.5q0 -19 -3 -40l-51 -324h-129l47 297q3 33 3 35q0 87 -86 87q-51 0 -87.5 -35t-47.5 -108l-44 -276h-128l80 508h126zM190 -132l13 83h128l-9 -63q-10 -62 -46 -91t-104 -29l7 47q55 0 61 53h-50z" />
    <glyph glyph-name="Ncaron" unicode="&#x147;" horiz-adv-x="779" 
d="M525 763h-119l-76 154h71l72 -80l102 80h77zM304 714l258 -510h2l80 510h126l-113 -714h-117l-282 556h-2l-88 -556h-127l113 714h150z" />
    <glyph glyph-name="ncaron" unicode="&#x148;" horiz-adv-x="623" 
d="M417 576h-117l-60 160h71l57 -87l106 87h77zM245 508l-14 -85q25 44 71 70.5t101 26.5q76 0 119 -41.5t43 -114.5q0 -19 -3 -40l-51 -324h-129l47 297q3 33 3 35q0 87 -86 87q-51 0 -87.5 -35t-47.5 -108l-44 -276h-128l80 508h126z" />
    <glyph glyph-name="Eng" unicode="&#x14a;" horiz-adv-x="779" 
d="M476 -184q-40 0 -68 9l15 93q20 -5 35 -5q31 0 47.5 14.5t22.5 48.5l7 41l-277 539h-2l-88 -556h-127l113 714h150l258 -510h2l80 510h126l-117 -741q-24 -157 -177 -157z" />
    <glyph glyph-name="eng" unicode="&#x14b;" horiz-adv-x="623" 
d="M329 -184q-38 0 -68 9l16 93q18 -5 35 -5q31 0 45.5 14t20.5 49l51 321q3 33 3 35q0 87 -86 87q-51 0 -87.5 -35t-47.5 -108l-44 -276h-128l80 508h126l-14 -85q25 44 71 70.5t101 26.5q76 0 119 -41.5t43 -114.5q0 -19 -3 -40l-56 -351q-22 -157 -177 -157z" />
    <glyph glyph-name="Omacron" unicode="&#x14c;" horiz-adv-x="762" 
d="M306 779l13 86h327l-14 -86h-326zM441 726q139 0 219 -84.5t80 -222.5q0 -115 -46.5 -213t-135.5 -158t-203 -60q-139 0 -219.5 84.5t-80.5 222.5q0 115 46.5 213t136 158t203.5 60zM434 621q-114 0 -179 -96t-65 -234q0 -91 44.5 -144.5t126.5 -53.5q114 0 179 96
t65 234q0 91 -44.5 144.5t-126.5 53.5z" />
    <glyph glyph-name="omacron" unicode="&#x14d;" horiz-adv-x="600" 
d="M202 594l14 86h306l-13 -86h-307zM269 -12q-103 0 -165.5 60t-62.5 163q0 133 81 221t208 88q103 0 166 -60t63 -163q0 -133 -81 -221t-209 -88zM278 83q71 0 112 63.5t41 154.5q0 59 -28.5 91.5t-80.5 32.5q-71 0 -112 -63.5t-41 -154.5q0 -59 28.5 -91.5t80.5 -32.5z
" />
    <glyph glyph-name="Obreve" unicode="&#x14e;" horiz-adv-x="762" 
d="M637 921q-11 -73 -57.5 -116.5t-112.5 -43.5q-58 0 -90.5 33t-32.5 92q0 17 3 35h78q-1 -7 -1 -21q0 -58 55 -58q30 0 51 21t27 58h80zM441 726q139 0 219 -84.5t80 -222.5q0 -115 -46.5 -213t-135.5 -158t-203 -60q-139 0 -219.5 84.5t-80.5 222.5q0 115 46.5 213
t136 158t203.5 60zM434 621q-114 0 -179 -96t-65 -234q0 -91 44.5 -144.5t126.5 -53.5q114 0 179 96t65 234q0 91 -44.5 144.5t-126.5 53.5z" />
    <glyph glyph-name="obreve" unicode="&#x14f;" horiz-adv-x="600" 
d="M357 576q-58 0 -90.5 33t-32.5 92q0 15 4 35h77q-2 -16 -2 -20q0 -29 15 -45t41 -16q31 0 52 21.5t27 59.5h80q-11 -73 -57.5 -116.5t-113.5 -43.5zM269 -12q-103 0 -165.5 60t-62.5 163q0 133 81 221t208 88q103 0 166 -60t63 -163q0 -133 -81 -221t-209 -88zM278 83
q71 0 112 63.5t41 154.5q0 59 -28.5 91.5t-80.5 32.5q-71 0 -112 -63.5t-41 -154.5q0 -59 28.5 -91.5t80.5 -32.5z" />
    <glyph glyph-name="Ohungarumlaut" unicode="&#x150;" horiz-adv-x="762" 
d="M501 764l79 153h130l-135 -153h-74zM323 764l79 153h131l-136 -153h-74zM441 726q139 0 219 -84.5t80 -222.5q0 -115 -46.5 -213t-135.5 -158t-203 -60q-139 0 -219.5 84.5t-80.5 222.5q0 115 46.5 213t136 158t203.5 60zM434 621q-114 0 -179 -96t-65 -234
q0 -91 44.5 -144.5t126.5 -53.5q114 0 179 96t65 234q0 91 -44.5 144.5t-126.5 53.5z" />
    <glyph glyph-name="ohungarumlaut" unicode="&#x151;" horiz-adv-x="600" 
d="M387 577l79 159h130l-135 -159h-74zM209 577l79 159h130l-135 -159h-74zM269 -12q-103 0 -165.5 60t-62.5 163q0 133 81 221t208 88q103 0 166 -60t63 -163q0 -133 -81 -221t-209 -88zM278 83q71 0 112 63.5t41 154.5q0 59 -28.5 91.5t-80.5 32.5q-71 0 -112 -63.5
t-41 -154.5q0 -59 28.5 -91.5t80.5 -32.5z" />
    <glyph glyph-name="OE" unicode="&#x152;" horiz-adv-x="1116" 
d="M364 0q-147 0 -227.5 80.5t-80.5 218.5q0 184 115 299.5t296 115.5h664l-17 -105h-384l-31 -199h339l-18 -105h-338l-32 -200h387l-16 -105h-657zM383 105h135l80 504h-142q-120 0 -193 -84t-73 -224q0 -196 193 -196z" />
    <glyph glyph-name="oe" unicode="&#x153;" horiz-adv-x="958" 
d="M898 158q-28 -81 -93.5 -125.5t-151.5 -44.5q-124 0 -182 103q-36 -46 -89 -74.5t-113 -28.5q-103 0 -165.5 60t-62.5 163q0 133 81 221t208 88q59 0 106 -28t73 -76q87 104 205 104q99 0 153 -56.5t54 -152.5q0 -35 -10 -85h-366v-14q0 -62 30.5 -96t86.5 -34
q81 0 118 76h118zM706 427q-53 0 -92.5 -35.5t-57.5 -95.5h246q2 10 2 23q0 50 -24.5 79t-73.5 29zM278 83q71 0 112 63.5t41 154.5q0 59 -28.5 91.5t-80.5 32.5q-71 0 -112 -63.5t-41 -154.5q0 -59 28.5 -91.5t80.5 -32.5z" />
    <glyph glyph-name="Racute" unicode="&#x154;" horiz-adv-x="707" 
d="M353 764l78 153h154l-148 -153h-84zM171 0h-130l113 714h306q112 0 171.5 -51.5t59.5 -145.5q0 -89 -55 -149.5t-132 -81.5l132 -286h-138l-121 267h-163zM230 371h162q82 0 125 36t43 101q0 101 -131 101h-161z" />
    <glyph glyph-name="racute" unicode="&#x155;" horiz-adv-x="419" 
d="M237 577l77 159h148l-141 -159h-84zM440 512l-20 -117q-20 4 -48 4q-61 0 -108 -42.5t-60 -121.5l-37 -235h-128l80 508h126l-18 -114q27 59 73.5 91t101.5 32q26 0 38 -5z" />
    <glyph glyph-name="uni0156" unicode="&#x156;" horiz-adv-x="707" 
d="M171 0h-130l113 714h306q112 0 171.5 -51.5t59.5 -145.5q0 -89 -55 -149.5t-132 -81.5l132 -286h-138l-121 267h-163zM230 371h162q82 0 125 36t43 101q0 101 -131 101h-161zM231 -132l13 83h128l-9 -63q-10 -62 -46 -91t-104 -29l7 47q55 0 61 53h-50z" />
    <glyph glyph-name="uni0157" unicode="&#x157;" horiz-adv-x="419" 
d="M440 512l-20 -117q-20 4 -48 4q-61 0 -108 -42.5t-60 -121.5l-37 -235h-128l80 508h126l-18 -114q27 59 73.5 91t101.5 32q26 0 38 -5zM19 -132l13 83h128l-9 -63q-10 -62 -46 -91t-104 -29l7 47q55 0 61 53h-50z" />
    <glyph glyph-name="Rcaron" unicode="&#x158;" horiz-adv-x="707" 
d="M474 763h-119l-76 154h71l72 -80l102 80h77zM171 0h-130l113 714h306q112 0 171.5 -51.5t59.5 -145.5q0 -89 -55 -149.5t-132 -81.5l132 -286h-138l-121 267h-163zM230 371h162q82 0 125 36t43 101q0 101 -131 101h-161z" />
    <glyph glyph-name="rcaron" unicode="&#x159;" horiz-adv-x="419" 
d="M346 576h-117l-60 160h71l57 -87l106 87h77zM440 512l-20 -117q-20 4 -48 4q-61 0 -108 -42.5t-60 -121.5l-37 -235h-128l80 508h126l-18 -114q27 59 73.5 91t101.5 32q26 0 38 -5z" />
    <glyph glyph-name="Sacute" unicode="&#x15a;" horiz-adv-x="662" 
d="M351 764l78 153h154l-148 -153h-84zM21 216h128q4 -67 51.5 -98.5t118.5 -31.5q73 0 119 34t46 87q0 33 -24 52.5t-79 32.5l-128 29q-72 17 -116.5 58t-44.5 109q0 105 82 171.5t207 66.5t194.5 -56t72.5 -152h-124q-2 51 -42.5 80t-107.5 29q-71 0 -112 -34t-41 -85
q0 -33 23.5 -51t76.5 -31l134 -31q159 -37 159 -163q0 -107 -85.5 -175.5t-215.5 -68.5t-210.5 59.5t-81.5 168.5z" />
    <glyph glyph-name="sacute" unicode="&#x15b;" horiz-adv-x="523" 
d="M261 577l77 159h148l-141 -159h-84zM14 154h122q1 -38 32.5 -57.5t75.5 -19.5q45 0 73 18.5t28 49.5q0 19 -16 31t-53 21l-89 21q-122 29 -122 127q0 76 62 125.5t159 49.5q95 0 150.5 -41t56.5 -115h-117q-8 66 -98 66q-43 0 -67 -16.5t-24 -46.5q0 -21 15.5 -31.5
t52.5 -20.5l95 -24q116 -29 116 -125q0 -81 -64 -129.5t-163 -48.5q-100 0 -162 41.5t-63 124.5z" />
    <glyph glyph-name="Scircumflex" unicode="&#x15c;" horiz-adv-x="662" 
d="M378 917h119l76 -154h-71l-72 80l-102 -80h-77zM21 216h128q4 -67 51.5 -98.5t118.5 -31.5q73 0 119 34t46 87q0 33 -24 52.5t-79 32.5l-128 29q-72 17 -116.5 58t-44.5 109q0 105 82 171.5t207 66.5t194.5 -56t72.5 -152h-124q-2 51 -42.5 80t-107.5 29q-71 0 -112 -34
t-41 -85q0 -33 23.5 -51t76.5 -31l134 -31q159 -37 159 -163q0 -107 -85.5 -175.5t-215.5 -68.5t-210.5 59.5t-81.5 168.5z" />
    <glyph glyph-name="scircumflex" unicode="&#x15d;" horiz-adv-x="523" 
d="M292 736h117l60 -160h-71l-57 87l-106 -87h-77zM14 154h122q1 -38 32.5 -57.5t75.5 -19.5q45 0 73 18.5t28 49.5q0 19 -16 31t-53 21l-89 21q-122 29 -122 127q0 76 62 125.5t159 49.5q95 0 150.5 -41t56.5 -115h-117q-8 66 -98 66q-43 0 -67 -16.5t-24 -46.5
q0 -21 15.5 -31.5t52.5 -20.5l95 -24q116 -29 116 -125q0 -81 -64 -129.5t-163 -48.5q-100 0 -162 41.5t-63 124.5z" />
    <glyph glyph-name="uni015E" unicode="&#x15e;" horiz-adv-x="662" 
d="M384 -103q0 -44 -41 -70.5t-95 -26.5q-55 0 -91 18l9 58q48 -21 86 -21q26 0 42 9.5t16 26.5q0 26 -43 26q-15 0 -37 -6l-19 22l45 58q-107 12 -170.5 70.5t-64.5 154.5h128q4 -67 51.5 -98.5t118.5 -31.5q73 0 119 34t46 87q0 33 -24 52.5t-79 32.5l-128 29
q-72 17 -116.5 58t-44.5 109q0 105 82 171.5t207 66.5t194.5 -56t72.5 -152h-124q-2 51 -42.5 80t-107.5 29q-71 0 -112 -34t-41 -85q0 -33 23.5 -51t76.5 -31l134 -31q159 -37 159 -163q0 -107 -85.5 -175.5t-215.5 -68.5h-7l-22 -27q7 1 18 1q33 0 57.5 -16.5t24.5 -48.5z
" />
    <glyph glyph-name="uni015F" unicode="&#x15f;" horiz-adv-x="523" 
d="M309 -103q0 -44 -41 -70.5t-95 -26.5q-55 0 -91 18l9 58q48 -21 86 -21q26 0 42 9.5t16 26.5q0 26 -43 26q-15 0 -37 -6l-19 22l46 59q-77 11 -122 51.5t-46 110.5h122q1 -38 32.5 -57.5t75.5 -19.5q45 0 73 18.5t28 49.5q0 19 -16 31t-53 21l-89 21q-122 29 -122 127
q0 76 62 125.5t159 49.5q95 0 150.5 -41t56.5 -115h-117q-8 66 -98 66q-43 0 -67 -16.5t-24 -46.5q0 -21 15.5 -31.5t52.5 -20.5l95 -24q116 -29 116 -125q0 -81 -64 -129.5t-163 -48.5h-8l-22 -27q7 1 18 1q33 0 57.5 -16.5t24.5 -48.5z" />
    <glyph glyph-name="Scaron" unicode="&#x160;" horiz-adv-x="662" 
d="M456 763h-119l-76 154h71l72 -80l102 80h77zM21 216h128q4 -67 51.5 -98.5t118.5 -31.5q73 0 119 34t46 87q0 33 -24 52.5t-79 32.5l-128 29q-72 17 -116.5 58t-44.5 109q0 105 82 171.5t207 66.5t194.5 -56t72.5 -152h-124q-2 51 -42.5 80t-107.5 29q-71 0 -112 -34
t-41 -85q0 -33 23.5 -51t76.5 -31l134 -31q159 -37 159 -163q0 -107 -85.5 -175.5t-215.5 -68.5t-210.5 59.5t-81.5 168.5z" />
    <glyph glyph-name="scaron" unicode="&#x161;" horiz-adv-x="523" 
d="M370 576h-117l-60 160h71l57 -87l106 87h77zM14 154h122q1 -38 32.5 -57.5t75.5 -19.5q45 0 73 18.5t28 49.5q0 19 -16 31t-53 21l-89 21q-122 29 -122 127q0 76 62 125.5t159 49.5q95 0 150.5 -41t56.5 -115h-117q-8 66 -98 66q-43 0 -67 -16.5t-24 -46.5
q0 -21 15.5 -31.5t52.5 -20.5l95 -24q116 -29 116 -125q0 -81 -64 -129.5t-163 -48.5q-100 0 -162 41.5t-63 124.5z" />
    <glyph glyph-name="Tcommaaccent" unicode="&#x162;" horiz-adv-x="720" 
d="M408 -103q0 -44 -41 -70.5t-95 -26.5q-55 0 -91 18l9 58q48 -21 86 -21q26 0 42 9.5t16 26.5q0 26 -43 26q-15 0 -37 -6l-19 22l52 67h-33l97 609h-257l17 105h644l-16 -105h-256l-97 -609h-47l-31 -39q7 1 18 1q33 0 57.5 -16.5t24.5 -48.5z" />
    <glyph glyph-name="tcommaaccent" unicode="&#x163;" horiz-adv-x="386" 
d="M258 -103q0 -44 -41 -70.5t-95 -26.5q-55 0 -91 18l9 58q48 -21 86 -21q26 0 42 9.5t16 26.5q0 26 -43 26q-15 0 -37 -6l-19 22l54 69q-70 24 -70 103q0 15 3 34l43 277h-68l14 92h72l22 127h122l-20 -127h121l-14 -92h-123l-42 -253q-2 -18 -2 -23q0 -25 14 -35.5
t43 -10.5q33 0 68 11l-14 -97q-53 -16 -102 -16q-15 0 -23 1l-25 -32q7 1 18 1q33 0 57.5 -16.5t24.5 -48.5z" />
    <glyph glyph-name="Tcaron" unicode="&#x164;" horiz-adv-x="720" 
d="M497 763h-119l-76 154h71l72 -80l102 80h77zM254 0l97 609h-257l17 105h644l-16 -105h-256l-97 -609h-132z" />
    <glyph glyph-name="tcaron" unicode="&#x165;" horiz-adv-x="386" 
d="M380 563h-62l58 203h136zM322 105l-14 -97q-53 -16 -102 -16q-64 0 -100.5 28t-36.5 85q0 15 3 34l43 277h-68l14 92h72l22 127h122l-20 -127h121l-14 -92h-123l-42 -253q-2 -18 -2 -23q0 -25 14 -35.5t43 -10.5q33 0 68 11z" />
    <glyph glyph-name="Tbar" unicode="&#x166;" horiz-adv-x="725" 
d="M549 312h-113l-50 -312h-132l50 312h-114l16 101h114l31 196h-257l17 105h644l-16 -105h-256l-31 -196h113z" />
    <glyph glyph-name="tbar" unicode="&#x167;" horiz-adv-x="417" 
d="M325 8q-53 -16 -102 -16q-64 0 -100.5 28t-36.5 85q0 15 3 34l17 108h-70l13 84h70l14 91h-68l13 86h72l22 127h122l-20 -127h121l-13 -86h-125l-14 -91h127l-13 -84h-128l-13 -84q-2 -18 -2 -23q0 -25 14 -35.5t43 -10.5q33 0 68 11z" />
    <glyph glyph-name="Utilde" unicode="&#x168;" horiz-adv-x="754" 
d="M401 832q-36 0 -50 -63h-74q11 70 44 112.5t79 42.5q33 0 74 -32.5t57 -32.5q38 0 51 63h73q-11 -70 -44 -112.5t-79 -42.5q-33 0 -73.5 32.5t-57.5 32.5zM687 289q-22 -146 -112 -223.5t-235 -77.5q-127 0 -197 61.5t-70 174.5q0 29 5 67l67 423h132l-67 -424
q-5 -32 -5 -53q0 -69 37.5 -106t109.5 -37q85 0 136.5 50.5t66.5 145.5l67 424h130z" />
    <glyph glyph-name="utilde" unicode="&#x169;" horiz-adv-x="616" 
d="M298 641q-36 0 -50 -66h-74q11 70 44 112.5t79 42.5q33 0 73 -33.5t58 -33.5q35 0 51 66h73q-11 -70 -44 -112.5t-79 -42.5q-32 0 -72.5 33.5t-58.5 33.5zM372 0l13 85q-26 -44 -70 -70.5t-99 -26.5q-74 0 -115.5 41t-41.5 114q0 22 3 43l51 322h129l-47 -298
q-4 -28 -4 -36q0 -85 83 -85q50 0 85 35t46 108l44 276h128l-80 -508h-125z" />
    <glyph glyph-name="Umacron" unicode="&#x16a;" horiz-adv-x="754" 
d="M296 779l13 86h327l-14 -86h-326zM687 289q-22 -146 -112 -223.5t-235 -77.5q-127 0 -197 61.5t-70 174.5q0 29 5 67l67 423h132l-67 -424q-5 -32 -5 -53q0 -69 37.5 -106t109.5 -37q85 0 136.5 50.5t66.5 145.5l67 424h130z" />
    <glyph glyph-name="umacron" unicode="&#x16b;" horiz-adv-x="616" 
d="M205 594l14 86h306l-13 -86h-307zM372 0l13 85q-26 -44 -70 -70.5t-99 -26.5q-74 0 -115.5 41t-41.5 114q0 22 3 43l51 322h129l-47 -298q-4 -28 -4 -36q0 -85 83 -85q50 0 85 35t46 108l44 276h128l-80 -508h-125z" />
    <glyph glyph-name="Ubreve" unicode="&#x16c;" horiz-adv-x="754" 
d="M628 921q-11 -73 -57.5 -116.5t-112.5 -43.5q-58 0 -90.5 33t-32.5 92q0 17 3 35h78q-1 -7 -1 -21q0 -58 55 -58q30 0 51 21t27 58h80zM687 289q-22 -146 -112 -223.5t-235 -77.5q-127 0 -197 61.5t-70 174.5q0 29 5 67l67 423h132l-67 -424q-5 -32 -5 -53
q0 -69 37.5 -106t109.5 -37q85 0 136.5 50.5t66.5 145.5l67 424h130z" />
    <glyph glyph-name="ubreve" unicode="&#x16d;" horiz-adv-x="616" 
d="M360 576q-58 0 -90.5 33t-32.5 92q0 15 4 35h77q-2 -16 -2 -20q0 -29 15 -45t41 -16q31 0 52 21.5t27 59.5h80q-11 -73 -57.5 -116.5t-113.5 -43.5zM372 0l13 85q-26 -44 -70 -70.5t-99 -26.5q-74 0 -115.5 41t-41.5 114q0 22 3 43l51 322h129l-47 -298q-4 -28 -4 -36
q0 -85 83 -85q50 0 85 35t46 108l44 276h128l-80 -508h-125z" />
    <glyph glyph-name="Uring" unicode="&#x16e;" horiz-adv-x="754" 
d="M451 714q-50 0 -82.5 33t-32.5 82q0 58 41.5 100.5t103.5 42.5q50 0 82.5 -33t32.5 -82q0 -58 -41.5 -100.5t-103.5 -42.5zM473 907q-30 0 -50.5 -20.5t-20.5 -50.5q0 -25 16 -41t40 -16q31 0 51.5 21t20.5 50q0 25 -16.5 41t-40.5 16zM687 289q-22 -146 -112 -223.5
t-235 -77.5q-127 0 -197 61.5t-70 174.5q0 29 5 67l67 423h132l-67 -424q-5 -32 -5 -53q0 -69 37.5 -106t109.5 -37q85 0 136.5 50.5t66.5 145.5l67 424h130z" />
    <glyph glyph-name="uring" unicode="&#x16f;" horiz-adv-x="616" 
d="M385 787q43 0 71.5 -28.5t27.5 -70.5q1 -50 -34.5 -86t-89.5 -36q-43 0 -71 28t-28 70q0 50 35.5 86.5t88.5 36.5zM366 624q26 0 42.5 16.5t16.5 41.5q0 20 -13.5 33.5t-33.5 13.5q-25 0 -41.5 -17t-16.5 -41q0 -20 13.5 -33.5t32.5 -13.5zM372 0l13 85
q-26 -44 -70 -70.5t-99 -26.5q-74 0 -115.5 41t-41.5 114q0 22 3 43l51 322h129l-47 -298q-4 -28 -4 -36q0 -85 83 -85q50 0 85 35t46 108l44 276h128l-80 -508h-125z" />
    <glyph glyph-name="Uhungarumlaut" unicode="&#x170;" horiz-adv-x="754" 
d="M497 764l79 153h130l-135 -153h-74zM319 764l79 153h131l-136 -153h-74zM687 289q-22 -146 -112 -223.5t-235 -77.5q-127 0 -197 61.5t-70 174.5q0 29 5 67l67 423h132l-67 -424q-5 -32 -5 -53q0 -69 37.5 -106t109.5 -37q85 0 136.5 50.5t66.5 145.5l67 424h130z" />
    <glyph glyph-name="uhungarumlaut" unicode="&#x171;" horiz-adv-x="616" 
d="M394 577l79 159h130l-135 -159h-74zM216 577l79 159h130l-135 -159h-74zM372 0l13 85q-26 -44 -70 -70.5t-99 -26.5q-74 0 -115.5 41t-41.5 114q0 22 3 43l51 322h129l-47 -298q-4 -28 -4 -36q0 -85 83 -85q50 0 85 35t46 108l44 276h128l-80 -508h-125z" />
    <glyph glyph-name="Uogonek" unicode="&#x172;" horiz-adv-x="754" 
d="M482 -181q-28 -9 -62 -9q-35 0 -59 19.5t-24 51.5q0 54 58 110q-27 -3 -55 -3q-127 0 -197 61.5t-70 174.5q0 29 5 67l67 423h132l-67 -424q-5 -32 -5 -53q0 -69 37.5 -106t109.5 -37q85 0 136.5 50.5t66.5 145.5l67 424h130l-65 -425q-32 -204 -190 -272
q-77 -60 -77 -107q0 -30 32 -30q18 0 40 6z" />
    <glyph glyph-name="uogonek" unicode="&#x173;" horiz-adv-x="616" 
d="M435 -181q-28 -9 -62 -9q-35 0 -59 19t-24 51q0 33 20 62.5t64 71.5l11 71q-26 -44 -70 -70.5t-99 -26.5q-74 0 -115.5 41t-41.5 114q0 22 3 43l51 322h129l-47 -298q-4 -28 -4 -36q0 -85 83 -85q50 0 85 35t46 108l44 276h128l-80 -508h-63q-38 -41 -49.5 -58t-11.5 -34
q0 -28 32 -28q18 0 40 6z" />
    <glyph glyph-name="Wcircumflex" unicode="&#x174;" horiz-adv-x="998" 
d="M554 917h119l76 -154h-71l-72 80l-102 -80h-77zM577 0l-35 557h-2l-246 -557h-141l-63 714h132l40 -553h2l243 553h135l31 -553h2l249 553h131l-335 -714h-143z" />
    <glyph glyph-name="wcircumflex" unicode="&#x175;" horiz-adv-x="815" 
d="M434 736h117l60 -160h-71l-57 87l-106 -87h-77zM503 508l21 -374h2l183 374h126l-267 -508h-126l-28 367h-2l-175 -367h-127l-49 508h126l24 -374h2l172 374h118z" />
    <glyph glyph-name="Ycircumflex" unicode="&#x176;" horiz-adv-x="702" 
d="M390 917h119l76 -154h-71l-72 80l-102 -80h-77zM377 0h-132l46 293l-208 421h142l149 -306h3l242 306h146l-341 -421z" />
    <glyph glyph-name="ycircumflex" unicode="&#x177;" horiz-adv-x="577" 
d="M311 736h117l60 -160h-71l-57 87l-106 -87h-77zM159 3l-98 505h127l64 -384h2l214 384h128l-301 -516q-57 -97 -111.5 -137.5t-136.5 -40.5q-34 0 -61 10l16 95q21 -7 39 -7q36 0 62.5 20.5t55.5 70.5z" />
    <glyph glyph-name="Ydieresis" unicode="&#x178;" horiz-adv-x="702" 
d="M470 775l19 125h118l-20 -125h-117zM270 775l20 125h118l-20 -125h-118zM377 0h-132l46 293l-208 421h142l149 -306h3l242 306h146l-341 -421z" />
    <glyph glyph-name="Zacute" unicode="&#x179;" horiz-adv-x="678" 
d="M366 764l78 153h154l-148 -153h-84zM682 614l-490 -509h415l-16 -105h-584l15 93l495 516h-400l16 105h565z" />
    <glyph glyph-name="zacute" unicode="&#x17a;" horiz-adv-x="535" 
d="M273 577l77 159h148l-141 -159h-84zM509 419l-328 -325h282l-15 -94h-440l14 83l328 331h-262l14 94h421z" />
    <glyph glyph-name="Zdotaccent" unicode="&#x17b;" horiz-adv-x="678" 
d="M351 775l20 125h135l-20 -125h-135zM682 614l-490 -509h415l-16 -105h-584l15 93l495 516h-400l16 105h565z" />
    <glyph glyph-name="zdotaccent" unicode="&#x17c;" horiz-adv-x="535" 
d="M260 594l19 125h136l-19 -125h-136zM509 419l-328 -325h282l-15 -94h-440l14 83l328 331h-262l14 94h421z" />
    <glyph glyph-name="Zcaron" unicode="&#x17d;" horiz-adv-x="678" 
d="M487 763h-119l-76 154h71l72 -80l102 80h77zM682 614l-490 -509h415l-16 -105h-584l15 93l495 516h-400l16 105h565z" />
    <glyph glyph-name="zcaron" unicode="&#x17e;" horiz-adv-x="535" 
d="M381 576h-117l-60 160h71l57 -87l106 87h77zM509 419l-328 -325h282l-15 -94h-440l14 83l328 331h-262l14 94h421z" />
    <glyph glyph-name="uni0192" unicode="&#x192;" horiz-adv-x="510" 
d="M415 307h-123l-139 -417h-124l141 417h-81l15 97h98l57 168q29 86 87.5 131t134.5 45q39 0 71 -13l-18 -115q-26 11 -57 11q-76 0 -108 -94l-44 -133h105z" />
    <glyph glyph-name="AEacute" unicode="&#x1fc;" horiz-adv-x="1117" 
d="M771 764l78 153h154l-148 -153h-84zM506 0l28 179h-281l-141 -179h-142l565 714h598l-17 -105h-384l-32 -199h339l-17 -105h-338l-32 -200h387l-17 -105h-516zM604 625l-269 -342h215z" />
    <glyph glyph-name="aeacute" unicode="&#x1fd;" horiz-adv-x="901" 
d="M468 577l77 159h148l-141 -159h-84zM841 158q-28 -81 -93.5 -125.5t-152.5 -44.5q-132 0 -190 97q-81 -96 -205 -96q-78 0 -127 39t-49 105q0 73 57.5 118t164.5 45h138l5 33q2 20 2 26q0 69 -83 69q-42 0 -70.5 -20.5t-38.5 -56.5h-123q21 82 84.5 127.5t152.5 45.5
q117 0 159 -78q76 78 184 78q100 0 153.5 -56.5t53.5 -152.5q0 -40 -9 -85h-363v-14q0 -62 28.5 -96t84.5 -34q80 0 119 76h118zM648 427q-53 0 -91.5 -35.5t-54.5 -95.5h243q1 10 1 23q0 50 -24.5 79t-73.5 29zM227 78q55 0 94 32t47 86l5 30h-109q-115 0 -115 -82
q0 -32 21.5 -49t56.5 -17z" />
    <glyph glyph-name="Oslashacute" unicode="&#x1fe;" horiz-adv-x="762" 
d="M396 764l78 153h154l-148 -153h-84zM355 -12q-119 0 -196 63l-77 -81l-56 46l83 88q-54 79 -54 191q0 115 46.5 213t136 158t203.5 60q118 0 195 -63l67 71l55 -45l-73 -78q55 -78 55 -192q0 -115 -46.5 -213t-135.5 -158t-203 -60zM190 291q0 -51 13 -87l351 371
q-44 46 -120 46q-114 0 -179 -96t-65 -234zM605 423q0 47 -13 89l-351 -373q44 -46 120 -46q114 0 179 96t65 234z" />
    <glyph glyph-name="oslashacute" unicode="&#x1ff;" horiz-adv-x="600" 
d="M300 577l77 159h148l-141 -159h-84zM269 -12q-81 0 -139 39l-60 -63l-45 44l59 62q-43 57 -43 141q0 133 81 221t208 88q86 0 146 -43l52 54l44 -44l-52 -55q39 -55 39 -135q0 -133 -81 -221t-209 -88zM163 205q0 -26 6 -47l234 243q-30 28 -80 28q-76 0 -118 -65
t-42 -159zM437 303q0 23 -4 39l-230 -240q28 -23 74 -23q76 0 118 64.5t42 159.5z" />
    <glyph glyph-name="uni0218" unicode="&#x218;" horiz-adv-x="662" 
d="M21 216h128q4 -67 51.5 -98.5t118.5 -31.5q73 0 119 34t46 87q0 33 -24 52.5t-79 32.5l-128 29q-72 17 -116.5 58t-44.5 109q0 105 82 171.5t207 66.5t194.5 -56t72.5 -152h-124q-2 51 -42.5 80t-107.5 29q-71 0 -112 -34t-41 -85q0 -33 23.5 -51t76.5 -31l134 -31
q159 -37 159 -163q0 -107 -85.5 -175.5t-215.5 -68.5t-210.5 59.5t-81.5 168.5zM221 -132l13 83h128l-9 -63q-10 -62 -46 -91t-104 -29l7 47q55 0 61 53h-50z" />
    <glyph glyph-name="uni0219" unicode="&#x219;" horiz-adv-x="523" 
d="M14 154h122q1 -38 32.5 -57.5t75.5 -19.5q45 0 73 18.5t28 49.5q0 19 -16 31t-53 21l-89 21q-122 29 -122 127q0 76 62 125.5t159 49.5q95 0 150.5 -41t56.5 -115h-117q-8 66 -98 66q-43 0 -67 -16.5t-24 -46.5q0 -21 15.5 -31.5t52.5 -20.5l95 -24q116 -29 116 -125
q0 -81 -64 -129.5t-163 -48.5q-100 0 -162 41.5t-63 124.5zM138 -132l13 83h128l-9 -63q-10 -62 -46 -91t-104 -29l7 47q55 0 61 53h-50z" />
    <glyph glyph-name="uni021A" unicode="&#x21a;" horiz-adv-x="720" 
d="M254 0l97 609h-257l17 105h644l-16 -105h-256l-97 -609h-132zM236 -132l13 83h128l-9 -63q-10 -62 -46 -91t-104 -29l7 47q55 0 61 53h-50z" />
    <glyph glyph-name="uni021B" unicode="&#x21b;" horiz-adv-x="386" 
d="M322 105l-14 -97q-53 -16 -102 -16q-64 0 -100.5 28t-36.5 85q0 15 3 34l43 277h-68l14 92h72l22 127h122l-20 -127h121l-14 -92h-123l-42 -253q-2 -18 -2 -23q0 -25 14 -35.5t43 -10.5q33 0 68 11zM91 -132l13 83h128l-9 -63q-10 -62 -46 -91t-104 -29l7 47q55 0 61 53
h-50z" />
    <glyph glyph-name="uni0237" unicode="&#x237;" horiz-adv-x="286" 
d="M-14 -184q-39 0 -68 9l15 93q20 -5 35 -5q31 0 46 14t21 49l84 532h129l-85 -535q-24 -157 -177 -157z" />
    <glyph glyph-name="circumflex" unicode="&#x2c6;" horiz-adv-x="564" 
d="M318 736h117l60 -160h-71l-57 87l-106 -87h-77z" />
    <glyph glyph-name="caron" unicode="&#x2c7;" horiz-adv-x="564" 
d="M379 576h-117l-60 160h71l57 -87l106 87h77z" />
    <glyph glyph-name="breve" unicode="&#x2d8;" horiz-adv-x="564" 
d="M326 576q-58 0 -90.5 33t-32.5 92q0 15 4 35h77q-2 -16 -2 -20q0 -29 15 -45t41 -16q31 0 52 21.5t27 59.5h80q-11 -73 -57.5 -116.5t-113.5 -43.5z" />
    <glyph glyph-name="dotaccent" unicode="&#x2d9;" horiz-adv-x="564" 
d="M268 594l19 125h136l-19 -125h-136z" />
    <glyph glyph-name="ring" unicode="&#x2da;" horiz-adv-x="564" 
d="M361 787q43 0 71.5 -28.5t27.5 -70.5q1 -50 -34.5 -86t-89.5 -36q-43 0 -71 28t-28 70q0 50 35.5 86.5t88.5 36.5zM342 624q26 0 42.5 16.5t16.5 41.5q0 20 -13.5 33.5t-33.5 13.5q-25 0 -41.5 -17t-16.5 -41q0 -20 13.5 -33.5t32.5 -13.5z" />
    <glyph glyph-name="ogonek" unicode="&#x2db;" horiz-adv-x="564" 
d="M255 20h73q-51 -54 -65.5 -74t-14.5 -38q0 -28 32 -28q18 0 40 6l-10 -67q-28 -9 -62 -9q-35 0 -59 19t-24 51q0 34 21 64t69 76z" />
    <glyph glyph-name="tilde" unicode="&#x2dc;" horiz-adv-x="564" 
d="M279 641q-36 0 -50 -66h-74q11 70 44 112.5t79 42.5q33 0 73 -33.5t58 -33.5q35 0 51 66h73q-11 -70 -44 -112.5t-79 -42.5q-32 0 -72.5 33.5t-58.5 33.5z" />
    <glyph glyph-name="hungarumlaut" unicode="&#x2dd;" horiz-adv-x="564" 
d="M328 577l79 159h130l-135 -159h-74zM150 577l79 159h130l-135 -159h-74z" />
    <glyph glyph-name="Wgrave" unicode="&#x1e80;" horiz-adv-x="998" 
d="M625 764h-84l-100 153h147zM577 0l-35 557h-2l-246 -557h-141l-63 714h132l40 -553h2l243 553h135l31 -553h2l249 553h131l-335 -714h-143z" />
    <glyph glyph-name="wgrave" unicode="&#x1e81;" horiz-adv-x="815" 
d="M493 577h-83l-93 159h140zM503 508l21 -374h2l183 374h126l-267 -508h-126l-28 367h-2l-175 -367h-127l-49 508h126l24 -374h2l172 374h118z" />
    <glyph glyph-name="Wacute" unicode="&#x1e82;" horiz-adv-x="998" 
d="M547 764l78 153h154l-148 -153h-84zM577 0l-35 557h-2l-246 -557h-141l-63 714h132l40 -553h2l243 553h135l31 -553h2l249 553h131l-335 -714h-143z" />
    <glyph glyph-name="wacute" unicode="&#x1e83;" horiz-adv-x="815" 
d="M417 577l77 159h148l-141 -159h-84zM503 508l21 -374h2l183 374h126l-267 -508h-126l-28 367h-2l-175 -367h-127l-49 508h126l24 -374h2l172 374h118z" />
    <glyph glyph-name="Wdieresis" unicode="&#x1e84;" horiz-adv-x="998" 
d="M624 775l19 125h118l-20 -125h-117zM424 775l20 125h118l-20 -125h-118zM577 0l-35 557h-2l-246 -557h-141l-63 714h132l40 -553h2l243 553h135l31 -553h2l249 553h131l-335 -714h-143z" />
    <glyph glyph-name="wdieresis" unicode="&#x1e85;" horiz-adv-x="815" 
d="M503 594l20 125h118l-20 -125h-118zM303 594l20 125h118l-20 -125h-118zM503 508l21 -374h2l183 374h126l-267 -508h-126l-28 367h-2l-175 -367h-127l-49 508h126l24 -374h2l172 374h118z" />
    <glyph glyph-name="Ygrave" unicode="&#x1ef2;" horiz-adv-x="702" 
d="M475 764h-84l-100 153h147zM377 0h-132l46 293l-208 421h142l149 -306h3l242 306h146l-341 -421z" />
    <glyph glyph-name="ygrave" unicode="&#x1ef3;" horiz-adv-x="577" 
d="M381 577h-83l-93 159h140zM159 3l-98 505h127l64 -384h2l214 384h128l-301 -516q-57 -97 -111.5 -137.5t-136.5 -40.5q-34 0 -61 10l16 95q21 -7 39 -7q36 0 62.5 20.5t55.5 70.5z" />
    <glyph glyph-name="endash" unicode="&#x2013;" horiz-adv-x="677" 
d="M85 236l14 95h504l-15 -95h-503z" />
    <glyph glyph-name="emdash" unicode="&#x2014;" horiz-adv-x="1003" 
d="M85 236l15 95h829l-15 -95h-829z" />
    <glyph glyph-name="quoteleft" unicode="&#x2018;" horiz-adv-x="329" 
d="M290 574l-22 -131h-149l22 142q13 75 64 116t131 41l-11 -69q-90 0 -104 -87l-2 -12h71z" />
    <glyph glyph-name="quoteright" unicode="&#x2019;" horiz-adv-x="329" 
d="M146 605l22 131h149l-22 -142q-13 -75 -64 -116t-131 -41l11 69q90 0 104 87l2 12h-71z" />
    <glyph glyph-name="quotesinglbase" unicode="&#x201a;" horiz-adv-x="329" 
d="M54 24l22 131h149l-22 -142q-13 -75 -64 -116t-131 -41l11 69q90 0 104 87l2 12h-71z" />
    <glyph glyph-name="quotedblleft" unicode="&#x201c;" horiz-adv-x="564" 
d="M526 574l-22 -131h-149l22 142q13 75 64 116t131 41l-11 -69q-90 0 -104 -87l-2 -12h71zM290 574l-22 -131h-149l22 142q13 75 64 116t131 41l-11 -69q-90 0 -104 -87l-2 -12h71z" />
    <glyph glyph-name="quotedblright" unicode="&#x201d;" horiz-adv-x="564" 
d="M145 605l22 131h149l-22 -142q-13 -75 -64 -116t-131 -41l11 69q90 0 104 87l2 12h-71zM381 605l22 131h149l-22 -142q-13 -75 -64 -116t-131 -41l11 69q90 0 104 87l2 12h-71z" />
    <glyph glyph-name="quotedblbase" unicode="&#x201e;" horiz-adv-x="565" 
d="M54 24l22 131h149l-22 -142q-13 -75 -64 -116t-131 -41l11 69q90 0 104 87l2 12h-71zM289 24l22 131h149l-22 -142q-13 -75 -64 -116t-131 -41l11 69q90 0 104 87l2 12h-71z" />
    <glyph glyph-name="dagger" unicode="&#x2020;" horiz-adv-x="388" 
d="M398 542h-119l-37 -231h-77l37 231h-120l12 74h120l17 110h77l-17 -110h119z" />
    <glyph glyph-name="daggerdbl" unicode="&#x2021;" horiz-adv-x="388" 
d="M376 406h-120l-15 -95h-77l15 95h-119l12 71h118l14 83h-119l10 72h120l15 94h78l-15 -94h119l-12 -72h-119l-13 -83h119z" />
    <glyph glyph-name="bullet" unicode="&#x2022;" horiz-adv-x="485" 
d="M96 304q0 62 46 107t109 45q64 0 109 -45t45 -107q0 -64 -45 -109t-109 -45q-63 0 -109 45.5t-46 108.5z" />
    <glyph glyph-name="ellipsis" unicode="&#x2026;" horiz-adv-x="802" 
d="M524 0l23 149h150l-24 -149h-149zM287 0l23 149h150l-24 -149h-149zM49 0l23 149h150l-24 -149h-149z" />
    <glyph glyph-name="guilsinglleft" unicode="&#x2039;" horiz-adv-x="338" 
d="M250 44h-89l-107 204l167 204h94l-144 -204z" />
    <glyph glyph-name="guilsinglright" unicode="&#x203a;" horiz-adv-x="339" 
d="M88 452h89l107 -204l-167 -204h-94l144 204z" />
    <glyph glyph-name="fraction" unicode="&#x2044;" horiz-adv-x="184" 
d="M-165 -12h-86l633 739h86z" />
    <glyph glyph-name="uni2070" unicode="&#x2070;" horiz-adv-x="427" 
d="M232 316q-70 0 -111 46t-41 120q0 97 55 169t145 72q70 0 110.5 -45.5t40.5 -120.5q0 -98 -55 -169.5t-144 -71.5zM275 655q-77 0 -99 -131q-6 -24 -6 -50q0 -43 17.5 -66.5t48.5 -23.5q39 0 64.5 35t35.5 95q5 26 5 51q0 42 -17 66t-49 24z" />
    <glyph glyph-name="uni2074" unicode="&#x2074;" horiz-adv-x="418" 
d="M382 714l-39 -243h78l-10 -62h-78l-13 -86h-82l13 86h-194l10 63l222 242h93zM286 632l-143 -161h118z" />
    <glyph glyph-name="uni2075" unicode="&#x2075;" horiz-adv-x="386" 
d="M237 522q-42 0 -66 -30h-81l58 223h252l-12 -70h-187l-23 -85q34 26 85 26q54 0 85.5 -30t31.5 -80q0 -67 -47.5 -113.5t-123.5 -46.5q-69 0 -106.5 34.5t-37.5 93.5h90q0 -28 15.5 -45t44.5 -17q35 0 56 25t21 60q0 25 -14 40t-41 15z" />
    <glyph glyph-name="uni2076" unicode="&#x2076;" horiz-adv-x="394" 
d="M272 655q-38 0 -66.5 -34t-36.5 -84q37 46 98 46q49 0 85 -31t36 -83q0 -63 -48 -108t-119 -45q-64 0 -103.5 41.5t-39.5 112.5q0 101 58 177t143 76q56 0 92 -31t37 -83h-81q-3 46 -55 46zM227 381q33 0 55 24t22 58q0 27 -18 43t-44 16q-33 0 -55.5 -23.5t-22.5 -57.5
q0 -27 18 -43.5t45 -16.5z" />
    <glyph glyph-name="uni2077" unicode="&#x2077;" horiz-adv-x="361" 
d="M299 645h-205l11 69h294l-11 -70q-78 -79 -115 -152t-53 -169h-93q29 167 172 322z" />
    <glyph glyph-name="uni2078" unicode="&#x2078;" horiz-adv-x="397" 
d="M218 316q-69 0 -110.5 28.5t-41.5 76.5q0 39 29.5 69t67.5 36q-50 21 -50 72q0 56 44 90.5t111 34.5q59 0 96 -26.5t37 -73.5q0 -35 -21.5 -63t-56.5 -40q27 -6 46 -28.5t19 -51.5q0 -54 -48.5 -89t-121.5 -35zM252 553q31 0 50.5 16.5t19.5 45.5q0 23 -17 34t-42 11
q-32 0 -51.5 -16t-19.5 -45q0 -46 60 -46zM233 492q-38 0 -59 -18t-21 -45q0 -49 72 -49q38 0 58.5 18.5t20.5 45.5q0 22 -18.5 35t-52.5 13z" />
    <glyph glyph-name="uni2079" unicode="&#x2079;" horiz-adv-x="394" 
d="M205 384q38 0 66.5 33.5t36.5 84.5q-38 -47 -97 -47q-49 0 -85 31.5t-36 82.5q0 63 47.5 108.5t118.5 45.5q65 0 104.5 -42t39.5 -113q0 -101 -58 -176.5t-144 -75.5q-55 0 -91.5 30.5t-37.5 83.5h81q3 -46 55 -46zM251 657q-33 0 -55 -23.5t-22 -57.5q0 -27 17.5 -43
t44.5 -16q33 0 55.5 23.5t22.5 56.5q0 28 -18 44t-45 16z" />
    <glyph glyph-name="uni2080" unicode="&#x2080;" horiz-adv-x="427" 
d="M159 -147q-70 0 -111 46t-41 120q0 97 55 169t145 72q70 0 110.5 -45.5t40.5 -120.5q0 -98 -55 -169.5t-144 -71.5zM202 192q-77 0 -99 -131q-6 -24 -6 -50q0 -43 17.5 -66.5t48.5 -23.5q39 0 64.5 35t35.5 95q5 26 5 51q0 42 -17 66t-49 24z" />
    <glyph glyph-name="uni2081" unicode="&#x2081;" horiz-adv-x="346" 
d="M266 -78l-10 -62h-277l10 62h97l34 214h-96l9 58q65 0 89.5 12.5t37.5 45.5h63l-52 -330h95z" />
    <glyph glyph-name="uni2082" unicode="&#x2082;" horiz-adv-x="367" 
d="M316 153q0 -54 -35 -87t-107 -68q-44 -22 -64.5 -37t-24.5 -31h199l-12 -70h-298l5 32q5 29 19.5 54t38.5 45.5t43.5 33t49.5 29.5q59 31 79.5 48.5t20.5 45.5q0 42 -48 42q-28 0 -48.5 -19t-25.5 -47h-88q13 59 57.5 97t111.5 38q58 0 92.5 -29t34.5 -77z" />
    <glyph glyph-name="uni2083" unicode="&#x2083;" horiz-adv-x="379" 
d="M297 -23q0 -49 -42 -86.5t-117 -37.5q-70 0 -110 34.5t-40 90.5h86q0 -58 69 -58q32 0 51.5 17t19.5 42q0 44 -59 44h-39l10 65h38q31 0 49.5 16t18.5 43q0 20 -13.5 32.5t-37.5 12.5q-60 0 -72 -56h-84q13 54 55 88.5t108 34.5q61 0 94.5 -29.5t33.5 -73.5
q0 -38 -24.5 -66t-60.5 -34q30 -7 48 -28t18 -51z" />
    <glyph glyph-name="uni2084" unicode="&#x2084;" horiz-adv-x="418" 
d="M309 251l-39 -243h78l-10 -62h-78l-13 -86h-82l13 86h-194l10 63l222 242h93zM213 169l-143 -161h118z" />
    <glyph glyph-name="uni2085" unicode="&#x2085;" horiz-adv-x="386" 
d="M164 59q-42 0 -66 -30h-81l58 223h252l-12 -70h-187l-23 -85q34 26 85 26q54 0 85.5 -30t31.5 -80q0 -67 -47.5 -113.5t-123.5 -46.5q-69 0 -106.5 34.5t-37.5 93.5h90q0 -28 15.5 -45t44.5 -17q35 0 56 25t21 60q0 25 -14 40t-41 15z" />
    <glyph glyph-name="uni2086" unicode="&#x2086;" horiz-adv-x="394" 
d="M199 192q-38 0 -66.5 -34t-36.5 -84q37 46 98 46q49 0 85 -31t36 -83q0 -63 -48 -108t-119 -45q-64 0 -103.5 41.5t-39.5 112.5q0 101 58 177t143 76q56 0 92 -31t37 -83h-81q-3 46 -55 46zM154 -82q33 0 55 24t22 58q0 27 -18 43t-44 16q-33 0 -55.5 -23.5t-22.5 -57.5
q0 -27 18 -43.5t45 -16.5z" />
    <glyph glyph-name="uni2087" unicode="&#x2087;" horiz-adv-x="361" 
d="M226 182h-205l11 69h294l-11 -70q-78 -79 -115 -152t-53 -169h-93q29 167 172 322z" />
    <glyph glyph-name="uni2088" unicode="&#x2088;" horiz-adv-x="397" 
d="M145 -147q-69 0 -110.5 28.5t-41.5 76.5q0 39 29.5 69t67.5 36q-50 21 -50 72q0 56 44 90.5t111 34.5q59 0 96 -26.5t37 -73.5q0 -35 -21.5 -63t-56.5 -40q27 -6 46 -28.5t19 -51.5q0 -54 -48.5 -89t-121.5 -35zM179 90q31 0 50.5 16.5t19.5 45.5q0 23 -17 34t-42 11
q-32 0 -51.5 -16t-19.5 -45q0 -46 60 -46zM160 29q-38 0 -59 -18t-21 -45q0 -49 72 -49q38 0 58.5 18.5t20.5 45.5q0 22 -18.5 35t-52.5 13z" />
    <glyph glyph-name="uni2089" unicode="&#x2089;" horiz-adv-x="394" 
d="M132 -79q38 0 66.5 33.5t36.5 84.5q-38 -47 -97 -47q-49 0 -85 31.5t-36 82.5q0 63 47.5 108.5t118.5 45.5q65 0 104.5 -42t39.5 -113q0 -101 -58 -176.5t-144 -75.5q-55 0 -91.5 30.5t-37.5 83.5h81q3 -46 55 -46zM178 194q-33 0 -55 -23.5t-22 -57.5q0 -27 17.5 -43
t44.5 -16q33 0 55.5 23.5t22.5 56.5q0 28 -18 44t-45 16z" />
    <glyph glyph-name="Euro" unicode="&#x20ac;" horiz-adv-x="715" 
d="M672 224q-34 -108 -111 -172t-189 -64q-110 0 -176 69t-75 189h-80l12 77h69q2 36 9 69h-67l12 77h76q42 117 129 187t197 70t167.5 -63.5t58.5 -172.5h-120q-4 131 -120 131q-59 0 -107.5 -41t-78.5 -111h205l-23 -77h-206q-7 -30 -10 -69h192l-23 -77h-168
q8 -73 44.5 -113t98.5 -40q118 0 161 131h123z" />
    <glyph glyph-name="trademark" unicode="&#x2122;" horiz-adv-x="886" 
d="M258 390h-82l40 253h-110l13 71h302l-12 -71h-111zM634 390h-58l-33 244h-3l-38 -244h-75l52 324h121l24 -221h4l98 221h114l-53 -324h-79l38 244h-2z" />
    <glyph glyph-name="uni2153" unicode="&#x2153;" horiz-adv-x="907" 
d="M202 -12h-86l633 739h86zM354 385l-10 -62h-277l10 62h97l34 214h-96l9 58q65 0 89.5 12.5t37.5 45.5h63l-52 -330h95zM847 117q0 -49 -42 -86.5t-117 -37.5q-70 0 -110 34.5t-40 90.5h86q0 -58 69 -58q32 0 51.5 17t19.5 42q0 44 -59 44h-39l10 65h38q31 0 49.5 16
t18.5 43q0 20 -13.5 32.5t-37.5 12.5q-60 0 -72 -56h-84q13 54 55 88.5t108 34.5q61 0 94.5 -29.5t33.5 -73.5q0 -38 -24.5 -66t-60.5 -34q30 -7 48 -28t18 -51z" />
    <glyph glyph-name="uni2154" unicode="&#x2154;" horiz-adv-x="931" 
d="M226 -12h-86l633 739h86zM405 616q0 -54 -35 -87t-107 -68q-44 -22 -64.5 -37t-24.5 -31h199l-12 -70h-298l5 32q5 29 19.5 54t38.5 45.5t43.5 33t49.5 29.5q59 31 79.5 48.5t20.5 45.5q0 42 -48 42q-28 0 -48.5 -19t-25.5 -47h-88q13 59 57.5 97t111.5 38q58 0 92.5 -29
t34.5 -77zM871 117q0 -49 -42 -86.5t-117 -37.5q-70 0 -110 34.5t-40 90.5h86q0 -58 69 -58q32 0 51.5 17t19.5 42q0 44 -59 44h-39l10 65h38q31 0 49.5 16t18.5 43q0 20 -13.5 32.5t-37.5 12.5q-60 0 -72 -56h-84q13 54 55 88.5t108 34.5q61 0 94.5 -29.5t33.5 -73.5
q0 -38 -24.5 -66t-60.5 -34q30 -7 48 -28t18 -51z" />
    <glyph glyph-name="uni215B" unicode="&#x215b;" horiz-adv-x="925" 
d="M202 -12h-86l633 739h86zM354 385l-10 -62h-277l10 62h97l34 214h-96l9 58q65 0 89.5 12.5t37.5 45.5h63l-52 -330h95zM695 -7q-69 0 -110.5 28.5t-41.5 76.5q0 39 29.5 69t67.5 36q-50 21 -50 72q0 56 44 90.5t111 34.5q59 0 96 -26.5t37 -73.5q0 -35 -21.5 -63
t-56.5 -40q27 -6 46 -28.5t19 -51.5q0 -54 -48.5 -89t-121.5 -35zM729 230q31 0 50.5 16.5t19.5 45.5q0 23 -17 34t-42 11q-32 0 -51.5 -16t-19.5 -45q0 -46 60 -46zM710 169q-38 0 -59 -18t-21 -45q0 -49 72 -49q38 0 58.5 18.5t20.5 45.5q0 22 -18.5 35t-52.5 13z" />
    <glyph glyph-name="uni215C" unicode="&#x215c;" horiz-adv-x="939" 
d="M216 -12h-86l633 739h86zM386 440q0 -49 -42 -86.5t-117 -37.5q-70 0 -110 34.5t-40 90.5h86q0 -58 69 -58q32 0 51.5 17t19.5 42q0 44 -59 44h-39l10 65h38q31 0 49.5 16t18.5 43q0 20 -13.5 32.5t-37.5 12.5q-60 0 -72 -56h-84q13 54 55 88.5t108 34.5q61 0 94.5 -29.5
t33.5 -73.5q0 -38 -24.5 -66t-60.5 -34q30 -7 48 -28t18 -51zM709 -7q-69 0 -110.5 28.5t-41.5 76.5q0 39 29.5 69t67.5 36q-50 21 -50 72q0 56 44 90.5t111 34.5q59 0 96 -26.5t37 -73.5q0 -35 -21.5 -63t-56.5 -40q27 -6 46 -28.5t19 -51.5q0 -54 -48.5 -89t-121.5 -35z
M743 230q31 0 50.5 16.5t19.5 45.5q0 23 -17 34t-42 11q-32 0 -51.5 -16t-19.5 -45q0 -46 60 -46zM724 169q-38 0 -59 -18t-21 -45q0 -49 72 -49q38 0 58.5 18.5t20.5 45.5q0 22 -18.5 35t-52.5 13z" />
    <glyph glyph-name="uni215D" unicode="&#x215d;" horiz-adv-x="930" 
d="M207 -12h-86l633 739h86zM253 522q-42 0 -66 -30h-81l58 223h252l-12 -70h-187l-23 -85q34 26 85 26q54 0 85.5 -30t31.5 -80q0 -67 -47.5 -113.5t-123.5 -46.5q-69 0 -106.5 34.5t-37.5 93.5h90q0 -28 15.5 -45t44.5 -17q35 0 56 25t21 60q0 25 -14 40t-41 15zM700 -7
q-69 0 -110.5 28.5t-41.5 76.5q0 39 29.5 69t67.5 36q-50 21 -50 72q0 56 44 90.5t111 34.5q59 0 96 -26.5t37 -73.5q0 -35 -21.5 -63t-56.5 -40q27 -6 46 -28.5t19 -51.5q0 -54 -48.5 -89t-121.5 -35zM734 230q31 0 50.5 16.5t19.5 45.5q0 23 -17 34t-42 11
q-32 0 -51.5 -16t-19.5 -45q0 -46 60 -46zM715 169q-38 0 -59 -18t-21 -45q0 -49 72 -49q38 0 58.5 18.5t20.5 45.5q0 22 -18.5 35t-52.5 13z" />
    <glyph glyph-name="uni215E" unicode="&#x215e;" horiz-adv-x="865" 
d="M142 -12h-86l633 739h86zM315 645h-205l11 69h294l-11 -70q-78 -79 -115 -152t-53 -169h-93q29 167 172 322zM635 -7q-69 0 -110.5 28.5t-41.5 76.5q0 39 29.5 69t67.5 36q-50 21 -50 72q0 56 44 90.5t111 34.5q59 0 96 -26.5t37 -73.5q0 -35 -21.5 -63t-56.5 -40
q27 -6 46 -28.5t19 -51.5q0 -54 -48.5 -89t-121.5 -35zM669 230q31 0 50.5 16.5t19.5 45.5q0 23 -17 34t-42 11q-32 0 -51.5 -16t-19.5 -45q0 -46 60 -46zM650 169q-38 0 -59 -18t-21 -45q0 -49 72 -49q38 0 58.5 18.5t20.5 45.5q0 22 -18.5 35t-52.5 13z" />
    <glyph glyph-name="minus" unicode="&#x2212;" 
d="M70 285l16 95h529l-16 -95h-529z" />
    <glyph glyph-name="i.dot" horiz-adv-x="286" 
d="M129 594l19 125h136l-19 -125h-136zM119 508h129l-81 -508h-128z" />
    <glyph glyph-name="a.ord" horiz-adv-x="408" 
d="M277 316q1 20 5 51q-36 -59 -117 -59q-46 0 -74.5 24t-28.5 63q0 51 36.5 79.5t101.5 34.5l101 9q4 29 4 30q0 42 -49 42q-52 0 -65 -47h-93q14 56 57.5 87t108.5 31q64 0 99.5 -28t35.5 -80q0 -13 -3 -28l-19 -119q-7 -49 -10 -90h-90zM289 445l4 21l-70 -9
q-33 -4 -48.5 -15.5t-15.5 -35.5q0 -16 11.5 -26t31.5 -10q32 0 57 20t30 55z" />
    <glyph glyph-name="b.ord" horiz-adv-x="452" 
d="M175 371l-9 -55h-95l77 484h97l-32 -201q38 62 107 62q59 0 93.5 -39.5t34.5 -106.5q0 -85 -48 -146.5t-124 -61.5q-35 0 -63.5 18.5t-37.5 45.5zM286 591q-37 0 -61.5 -27.5t-31.5 -73.5q-4 -25 -4 -37q0 -35 17.5 -55.5t48.5 -20.5q44 0 70 38t26 97q0 37 -17 58
t-48 21z" />
    <glyph glyph-name="c.ord" horiz-adv-x="397" 
d="M73 456q0 92 57 149t140 57q65 0 101.5 -35t34.5 -93h-91q0 26 -14 41t-38 15q-42 0 -67.5 -39.5t-25.5 -96.5q0 -35 15.5 -55t42.5 -20q54 0 71 56h92q-17 -59 -61 -93t-108 -34q-65 0 -107 40t-42 108z" />
    <glyph glyph-name="d.ord" horiz-adv-x="447" 
d="M344 597l32 203h97l-77 -484h-95l8 53q-38 -62 -110 -62q-58 0 -92.5 38.5t-34.5 102.5q0 87 47.5 150t123.5 63q36 0 64 -18.5t37 -45.5zM234 377q37 0 61.5 27t32.5 74q3 27 3 36q0 35 -18 56t-48 21q-44 0 -70 -39.5t-26 -98.5q0 -35 17 -55.5t48 -20.5z" />
    <glyph glyph-name="e.ord" horiz-adv-x="408" 
d="M397 423q-19 -54 -63 -84.5t-104 -30.5q-71 0 -114 40t-43 107q0 90 55.5 148.5t140.5 58.5q69 0 105.5 -38t36.5 -100q0 -27 -7 -56h-239v-10q0 -80 71 -80q49 0 72 45h89zM264 592q-32 0 -56 -21.5t-35 -57.5h149q2 10 2 15q0 28 -15.5 46t-44.5 18z" />
    <glyph glyph-name="f.ord" horiz-adv-x="254" 
d="M122 584h-45l11 68h45l7 43q17 109 130 109q22 0 54 -4l-11 -74q-20 4 -32 4q-39 0 -46 -40l-5 -38h66l-11 -68h-67l-42 -268h-97z" />
    <glyph glyph-name="g.ord" horiz-adv-x="446" 
d="M304 338l8 50q-39 -62 -110 -62q-58 0 -92.5 38.5t-34.5 102.5q0 77 46.5 135.5t118.5 58.5q38 0 68.5 -19t38.5 -46l9 56h95l-47 -300q-14 -81 -65.5 -121.5t-131.5 -40.5q-70 0 -111 29t-44 78h95q7 -42 65 -42q80 0 92 83zM330 487q4 24 4 33q0 33 -18.5 52t-49.5 19
q-43 0 -68.5 -34t-25.5 -86q0 -76 65 -76q37 0 61 24.5t32 67.5z" />
    <glyph glyph-name="h.ord" horiz-adv-x="442" 
d="M244 801l-32 -201q38 61 111 61q50 0 78.5 -28t28.5 -76q0 -17 -2 -27l-34 -214h-97l31 193q2 16 2 22q0 55 -53 55q-30 0 -52 -22t-29 -66l-29 -182h-97l77 485h97z" />
    <glyph glyph-name="i.ord" horiz-adv-x="217" 
d="M130 704l14 89h100l-13 -89h-101zM124 652h97l-53 -336h-97z" />
    <glyph glyph-name="j.ord" horiz-adv-x="218" 
d="M130 705l14 88h101l-14 -88h-101zM37 195q-22 0 -45 5l12 69q14 -2 23 -2q37 0 42 39l55 346h97l-55 -350q-16 -107 -129 -107z" />
    <glyph glyph-name="k.ord" horiz-adv-x="428" 
d="M313 316l-82 140l-48 -41l-16 -99h-97l77 485h97l-45 -285l154 136h111l-161 -139l115 -197h-105z" />
    <glyph glyph-name="l.ord" horiz-adv-x="218" 
d="M167 316h-97l77 485h97z" />
    <glyph glyph-name="m.ord" horiz-adv-x="653" 
d="M321 661q77 0 97 -63q46 63 120 63q49 0 76.5 -28t27.5 -75q0 -18 -2 -28l-34 -214h-97l31 194q1 8 1 23q0 53 -48 53q-29 0 -50 -21.5t-28 -65.5l-29 -183h-97l31 194q2 9 2 24q0 52 -49 52q-29 0 -49.5 -21.5t-27.5 -65.5l-29 -183h-97l54 336h95l-9 -53
q17 27 47.5 44.5t63.5 17.5z" />
    <glyph glyph-name="n.ord" horiz-adv-x="442" 
d="M219 652l-9 -53q17 28 47 45t66 17q50 0 78.5 -28t28.5 -76q0 -18 -2 -28l-34 -213h-97l31 193q2 14 2 22q0 55 -53 55q-30 0 -52 -22t-29 -66l-29 -182h-97l54 336h95z" />
    <glyph glyph-name="o.ord" horiz-adv-x="425" 
d="M230 308q-70 0 -113 40t-43 108q0 89 55 147.5t141 58.5q70 0 112.5 -40t42.5 -109q0 -89 -54.5 -147t-140.5 -58zM264 590q-44 0 -68.5 -40t-24.5 -97q0 -36 17 -55.5t48 -19.5q43 0 68 41t25 97q0 36 -17 55t-48 19z" />
    <glyph glyph-name="p.ord" horiz-adv-x="448" 
d="M177 370l-28 -171h-97l72 453h95l-8 -53q40 62 109 62q59 0 93.5 -40t34.5 -106q0 -85 -48 -146t-124 -61q-35 0 -62.5 17.5t-36.5 44.5zM286 590q-37 0 -61 -26.5t-32 -72.5q-4 -27 -4 -37q0 -36 17.5 -56.5t48.5 -20.5q43 0 69.5 38.5t26.5 96.5q0 37 -17 57.5
t-48 20.5z" />
    <glyph glyph-name="q.ord" horiz-adv-x="447" 
d="M345 597l10 55h95l-72 -453h-97l27 170q-39 -61 -108 -61q-58 0 -92.5 38.5t-34.5 102.5q0 87 47.5 149.5t123.5 62.5q36 0 64.5 -18.5t36.5 -45.5zM235 377q36 0 60.5 27t32.5 74q4 25 4 36q0 36 -18 56t-48 20q-44 0 -70.5 -39t-26.5 -97q0 -35 17 -56t49 -21z" />
    <glyph glyph-name="r.ord" horiz-adv-x="309" 
d="M346 655l-14 -88q-22 2 -33 2q-40 0 -70 -26t-38 -75l-24 -152h-97l54 336h95l-12 -73q18 38 48 58.5t66 20.5q16 0 25 -3z" />
    <glyph glyph-name="s.ord" horiz-adv-x="383" 
d="M59 418h90q1 -23 20.5 -35t46.5 -12q28 0 44.5 11.5t16.5 30.5q0 12 -10 19t-34 12l-58 14q-83 19 -83 83q0 53 42.5 87t109.5 34q66 0 103 -28t38 -78h-86q-2 43 -61 43q-25 0 -39.5 -12t-14.5 -30q0 -21 42 -31l63 -14q79 -18 79 -83q0 -56 -43.5 -88.5t-110.5 -32.5
q-69 0 -111.5 28t-43.5 82z" />
    <glyph glyph-name="t.ord" horiz-adv-x="283" 
d="M267 392l-11 -70q-33 -11 -71 -11q-94 0 -94 74q0 16 2 25l28 174h-46l11 68h46l15 84h93l-13 -84h76l-11 -68h-78l-26 -158q-1 -4 -1 -12q0 -27 36 -27q20 0 44 5z" />
    <glyph glyph-name="u.ord" horiz-adv-x="438" 
d="M292 317l9 52q-39 -61 -111 -61q-49 0 -77 27.5t-28 76.5q0 10 2 28l33 212h98l-31 -195q-2 -18 -2 -23q0 -52 50 -52q30 0 51.5 22t27.5 67l29 181h98l-54 -335h-95z" />
    <glyph glyph-name="v.ord" horiz-adv-x="416" 
d="M155 316l-67 336h95l40 -241h1l133 241h97l-197 -336h-102z" />
    <glyph glyph-name="w.ord" horiz-adv-x="578" 
d="M393 652l16 -236h2l110 236h95l-171 -336h-94l-21 231h-1l-106 -231h-95l-40 336h95l18 -236h2l104 236h86z" />
    <glyph glyph-name="x.ord" horiz-adv-x="425" 
d="M143 316h-105l161 173l-94 163h107l52 -96l86 96h106l-149 -160l100 -176h-106l-59 108z" />
    <glyph glyph-name="y.ord" horiz-adv-x="416" 
d="M152 324l-63 333h96l38 -244h1l135 244h96l-198 -340q-37 -64 -75.5 -91t-94.5 -28q-20 0 -42 6l12 71q13 -4 25 -4q22 0 37.5 11.5t32.5 41.5z" />
    <glyph glyph-name="z.ord" horiz-adv-x="379" 
d="M388 586l-205 -200h178l-11 -70h-297l10 62l205 204h-166l11 70h285z" />
    <glyph glyph-name="caron.Slovak" horiz-adv-x="564" 
d="M312 533h-62l58 203h136z" />
    <glyph glyph-name="commaturn" horiz-adv-x="564" 
d="M409 663l-13 -83h-128l9 63q10 62 46 91t104 29l-7 -47q-55 0 -61 -53h50z" />
    <glyph glyph-name="uni00200326" horiz-adv-x="564" 
d="M159 -132l13 83h128l-9 -63q-10 -62 -46 -91t-104 -29l7 47q55 0 61 53h-50z" />
    <glyph glyph-name="guilsinglleft.cap" horiz-adv-x="339" 
d="M262 122h-89l-107 204l167 204h94l-144 -204z" />
    <glyph glyph-name="guilsinglright.cap" horiz-adv-x="338" 
d="M99 530h89l107 -204l-167 -204h-94l144 204z" />
    <glyph glyph-name="guillemotleft.cap" horiz-adv-x="547" 
d="M471 122h-87l-107 204l167 204h92l-142 -204zM259 122h-85l-108 204l167 204h92l-142 -204z" />
    <glyph glyph-name="guillemotright.cap" horiz-adv-x="547" 
d="M99 530h87l107 -204l-167 -204h-92l142 204zM311 530h85l108 -204l-167 -204h-92l142 204z" />
    <glyph glyph-name="slash.cap" horiz-adv-x="537" 
d="M-8 -75l459 844h124l-459 -844h-124z" />
    <glyph glyph-name="backslash.cap" horiz-adv-x="531" 
d="M126 769h116l193 -844h-116z" />
    <glyph glyph-name="bar.cap" horiz-adv-x="330" 
d="M191 769h112l-134 -844h-112z" />
    <glyph glyph-name="periodcentered.cap" horiz-adv-x="322" 
d="M90 273l23 149h150l-24 -149h-149z" />
    <glyph glyph-name="bullet.cap" horiz-adv-x="485" 
d="M106 364q0 62 45.5 107t108.5 45q64 0 109 -44.5t45 -107.5q0 -64 -45 -109t-109 -45q-63 0 -108.5 45t-45.5 109z" />
    <glyph glyph-name="hyphen.cap" horiz-adv-x="454" 
d="M93 291l17 107h280l-17 -107h-280z" />
    <glyph glyph-name="endash.cap" horiz-adv-x="678" 
d="M94 296l15 95h503l-15 -95h-503z" />
    <glyph glyph-name="emdash.cap" horiz-adv-x="1004" 
d="M95 296l14 95h830l-15 -95h-829z" />
    <glyph glyph-name="parenleft.cap" horiz-adv-x="424" 
d="M456 769q-234 -262 -234 -509q0 -173 101 -335h-119q-106 158 -106 339q0 267 236 505h122z" />
    <glyph glyph-name="parenright.cap" horiz-adv-x="424" 
d="M-2 -75q234 262 234 509q0 173 -101 335h119q106 -158 106 -339q0 -267 -236 -505h-122z" />
    <glyph glyph-name="bracketleft.cap" horiz-adv-x="412" 
d="M288 678l-105 -662h131l-13 -91h-254l134 844h252l-14 -91h-131z" />
    <glyph glyph-name="bracketright.cap" horiz-adv-x="412" 
d="M154 16l105 662h-131l13 91h254l-134 -844h-252l14 91h131z" />
    <glyph glyph-name="braceleft.cap" horiz-adv-x="438" 
d="M49 301l15 92h45q26 0 42.5 15t20.5 41l33 205q18 115 149 115h106l-14 -90h-73q-26 0 -39.5 -9t-17.5 -34l-31 -200q-13 -77 -99 -89q72 -10 72 -71q0 -17 -17 -117t-17 -112q0 -18 10.5 -25t33.5 -7h73l-15 -90h-106q-115 0 -115 88q0 20 17.5 127t17.5 118
q0 43 -46 43h-45z" />
    <glyph glyph-name="braceright.cap" horiz-adv-x="437" 
d="M418 393l-15 -92h-45q-26 0 -42.5 -15t-20.5 -41l-33 -205q-18 -115 -149 -115h-106l14 90h73q26 0 39.5 9t17.5 34l31 200q13 77 99 89q-72 10 -72 71q0 17 17 117t17 112q0 18 -10.5 25t-33.5 7h-73l15 90h106q115 0 115 -88q0 -20 -17.5 -127t-17.5 -118q0 -43 46 -43
h45z" />
    <glyph glyph-name="at.cap" horiz-adv-x="914" 
d="M706 549l-73 -289q-4 -12 -4 -23q0 -35 41 -35q65 0 107.5 67.5t42.5 170.5q0 114 -79.5 181t-211.5 67q-175 0 -284 -116.5t-109 -281.5q0 -79 29.5 -138.5t79.5 -93t108.5 -49.5t124.5 -16q121 0 228 44l22 -59q-115 -54 -255 -54q-82 0 -155 22.5t-131.5 65.5
t-93 114.5t-34.5 162.5q0 94 36 180t98 150t151.5 101.5t190.5 37.5q161 0 260 -89.5t99 -227.5q0 -136 -75 -221.5t-178 -85.5q-85 0 -112 66q-20 -29 -55 -46t-72 -17q-67 0 -103.5 44.5t-36.5 113.5q0 98 63 180.5t167 82.5q36 0 63.5 -17.5t36.5 -41.5l14 50h100z
M547 321q14 53 14 75q0 35 -18 54.5t-47 19.5q-57 0 -92.5 -52.5t-35.5 -112.5q0 -38 18.5 -59.5t52.5 -21.5t65 25t43 72z" />
    <glyph glyph-name="uni0192.lt" 
d="M490 307h-123l-139 -417h-124l141 417h-81l15 97h98l57 168q29 86 87.5 131t134.5 45q39 0 71 -13l-18 -115q-26 11 -57 11q-76 0 -108 -94l-44 -133h105z" />
    <glyph glyph-name="Euro.lt" 
d="M632 224q-33 -109 -106.5 -172.5t-182.5 -63.5q-106 0 -167.5 69t-69.5 189h-80l13 77h67q3 36 9 69h-65l12 77h73q40 117 122.5 187t189.5 70t161.5 -63.5t56.5 -172.5h-117q-2 131 -113 131q-59 0 -105.5 -40.5t-74.5 -111.5h201l-24 -77h-199q-6 -33 -9 -69h184
l-23 -77h-160q13 -153 134 -153q116 0 155 131h118z" />
    <glyph glyph-name="dollar.lt" 
d="M612 231q0 -103 -79.5 -170t-201.5 -71l-17 -99h-72l17 102q-104 13 -165.5 70t-62.5 152h121q6 -108 123 -125l37 221l-54 11q-68 14 -113 55.5t-45 110.5q0 105 80 171t201 66l16 94h72l-17 -99q92 -15 142 -67.5t52 -133.5h-115q-1 38 -26 64t-69 37l-36 -213l56 -12
q156 -35 156 -164zM318 425l13 -3l34 204q-67 -3 -106 -36.5t-39 -82.5q0 -34 23 -52t75 -30zM395 293l-13 3l-35 -209q68 5 107.5 37.5t39.5 82.5q0 33 -22.5 53t-76.5 33z" />
    <glyph glyph-name="cent.lt" 
d="M555 179q-24 -81 -82.5 -130.5t-143.5 -56.5l-17 -98h-71l18 101q-77 14 -123.5 73.5t-46.5 146.5q0 126 75.5 214.5t188.5 99.5l20 114h72l-21 -116q75 -12 115 -60.5t41 -124.5h-103q-2 36 -19.5 61t-49.5 33l-62 -350q73 13 102 93h107zM203 218q0 -102 72 -128
l61 345q-65 -16 -99 -76.5t-34 -140.5z" />
    <glyph glyph-name="sterling.lt" 
d="M582 105l-17 -105h-549l17 105h14q49 0 84.5 49.5t35.5 125.5v2h-95l15 92h65q-16 64 -16 105q0 101 75 174t196 73q111 0 170 -59.5t59 -153.5q0 -17 -1 -26h-124q1 9 1 19q0 52 -27.5 85t-83.5 33q-63 0 -100.5 -38.5t-37.5 -100.5q0 -13 2 -28.5t4.5 -26t7.5 -29.5
t7 -27h177l-15 -92h-155q-8 -109 -92 -177h383z" />
    <glyph glyph-name="yen.lt" 
d="M567 168h-186l-27 -168h-126l27 168h-188l12 77h188l12 74h-187l12 78h144l-148 317h135l127 -282h2l207 282h136l-247 -317h145l-12 -78h-188l-12 -74h186z" />
    <glyph glyph-name="zero.lt" 
d="M302 -12q-114 0 -180 81.5t-66 214.5q0 116 40.5 216t118.5 163t177 63q113 0 179 -81.5t66 -214.5q0 -116 -40.5 -216t-118.5 -163t-176 -63zM308 92q73 0 123 70t68 188q6 44 8 94q-1 86 -31.5 132t-89.5 46q-74 0 -124 -69.5t-68 -187.5q-7 -52 -7 -95q0 -86 31 -132
t90 -46z" />
    <glyph glyph-name="one.lt" 
d="M591 102l-16 -102h-533l16 102h211l66 419h-189l13 88q86 0 136.5 12t73.5 33.5t39 60.5h90l-97 -613h190z" />
    <glyph glyph-name="two.lt" 
d="M625 539q0 -35 -9 -65.5t-29 -57t-40 -47t-54.5 -43t-60 -37t-67.5 -36.5q-82 -44 -125.5 -78.5t-51.5 -69.5h375l-17 -105h-521l9 51q25 160 273 293q106 57 149 95.5t43 92.5q0 40 -26 65.5t-78 25.5q-60 0 -101 -39t-54 -98h-127q22 105 99 172.5t193 67.5
q102 0 161 -52.5t59 -134.5z" />
    <glyph glyph-name="three.lt" 
d="M583 211q0 -87 -74.5 -155t-207.5 -68q-120 0 -190.5 61t-70.5 164h127q0 -60 37 -92t104 -32q70 0 111 36.5t41 88.5q0 46 -32.5 71t-89.5 25h-71l16 98h70q62 0 101 32t39 90q0 41 -28.5 68t-79.5 27q-61 0 -101.5 -35.5t-52.5 -92.5h-122q21 99 96 164t189 65
q106 0 165 -53t59 -132q0 -69 -46.5 -118.5t-112.5 -61.5q55 -12 89.5 -53.5t34.5 -96.5z" />
    <glyph glyph-name="four.lt" 
d="M571 714l-68 -434h132l-15 -101h-133l-28 -179h-127l29 179h-345l16 102l389 433h150zM425 590l-279 -310h230z" />
    <glyph glyph-name="five.lt" 
d="M355 381q-85 0 -137 -66h-120l104 399h436l-17 -105h-339l-49 -187q26 24 69 41.5t89 17.5q98 0 153.5 -57t55.5 -148q0 -120 -83 -204t-215 -84q-119 0 -185 61t-66 168h131q0 -60 33 -94.5t94 -34.5q75 0 118.5 51.5t43.5 122.5q0 52 -29 85.5t-87 33.5z" />
    <glyph glyph-name="six.lt" 
d="M411 624q-80 0 -139.5 -73t-74.5 -181q67 107 193 107q90 0 153 -59.5t63 -151.5q0 -114 -83.5 -196t-208.5 -82q-112 0 -181 75.5t-69 203.5q0 189 103.5 324t253.5 135q99 0 161 -54t63 -148h-119q-3 48 -32.5 74t-82.5 26zM321 86q70 0 116 50t46 121q0 56 -35.5 90
t-92.5 34q-69 0 -116 -48.5t-47 -118.5q0 -58 36 -93t93 -35z" />
    <glyph glyph-name="seven.lt" 
d="M502 609h-412l17 105h547l-17 -101q-151 -152 -230 -295.5t-108 -317.5h-137q54 311 340 609z" />
    <glyph glyph-name="eight.lt" 
d="M303 -12q-120 0 -193 51t-73 136q0 74 55 128.5t126 64.5q-93 42 -93 135q0 100 78 161.5t195 61.5q102 0 166.5 -47t64.5 -128q0 -68 -40.5 -119t-106.5 -73q52 -12 87 -52.5t35 -93.5q0 -99 -85.5 -162t-215.5 -63zM364 410q64 0 105.5 34.5t41.5 93.5q0 46 -34.5 69.5
t-87.5 23.5q-64 0 -105 -34t-41 -93q0 -46 34.5 -70t86.5 -24zM333 317q-76 0 -121.5 -36.5t-45.5 -94.5q0 -47 39 -74.5t108 -27.5q77 0 121.5 38.5t44.5 94.5q0 46 -38.5 73t-107.5 27z" />
    <glyph glyph-name="nine.lt" 
d="M282 90q80 0 139.5 73t74.5 181q-67 -107 -193 -107q-90 0 -153 59.5t-63 151.5q0 114 83.5 196t208.5 82q112 0 181 -75.5t69 -203.5q0 -189 -103.5 -324t-253.5 -135q-99 0 -161 54t-63 148h119q3 -48 32.5 -74t82.5 -26zM372 628q-70 0 -116 -50t-46 -121
q0 -56 35.5 -90t92.5 -34q69 0 116 48.5t47 118.5q0 58 -36 93t-93 35z" />
    <glyph glyph-name="zero.dnom" horiz-adv-x="427" 
d="M181 -7q-70 0 -111 46t-41 120q0 97 55 169t145 72q70 0 110.5 -45.5t40.5 -120.5q0 -98 -55 -169.5t-144 -71.5zM224 332q-77 0 -99 -131q-6 -24 -6 -50q0 -43 17.5 -66.5t48.5 -23.5q39 0 64.5 35t35.5 95q5 26 5 51q0 42 -17 66t-49 24z" />
    <glyph glyph-name="one.dnom" horiz-adv-x="346" 
d="M288 62l-10 -62h-277l10 62h97l34 214h-96l9 58q65 0 89.5 12.5t37.5 45.5h63l-52 -330h95z" />
    <glyph glyph-name="two.dnom" horiz-adv-x="367" 
d="M338 293q0 -54 -35 -87t-107 -68q-44 -22 -64.5 -37t-24.5 -31h199l-12 -70h-298l5 32q5 29 19.5 54t38.5 45.5t43.5 33t49.5 29.5q59 31 79.5 48.5t20.5 45.5q0 42 -48 42q-28 0 -48.5 -19t-25.5 -47h-88q13 59 57.5 97t111.5 38q58 0 92.5 -29t34.5 -77z" />
    <glyph glyph-name="three.dnom" horiz-adv-x="379" 
d="M319 117q0 -49 -42 -86.5t-117 -37.5q-70 0 -110 34.5t-40 90.5h86q0 -58 69 -58q32 0 51.5 17t19.5 42q0 44 -59 44h-39l10 65h38q31 0 49.5 16t18.5 43q0 20 -13.5 32.5t-37.5 12.5q-60 0 -72 -56h-84q13 54 55 88.5t108 34.5q61 0 94.5 -29.5t33.5 -73.5
q0 -38 -24.5 -66t-60.5 -34q30 -7 48 -28t18 -51z" />
    <glyph glyph-name="four.dnom" horiz-adv-x="418" 
d="M331 391l-39 -243h78l-10 -62h-78l-13 -86h-82l13 86h-194l10 63l222 242h93zM235 309l-143 -161h118z" />
    <glyph glyph-name="five.dnom" horiz-adv-x="386" 
d="M186 199q-42 0 -66 -30h-81l58 223h252l-12 -70h-187l-23 -85q34 26 85 26q54 0 85.5 -30t31.5 -80q0 -67 -47.5 -113.5t-123.5 -46.5q-69 0 -106.5 34.5t-37.5 93.5h90q0 -28 15.5 -45t44.5 -17q35 0 56 25t21 60q0 25 -14 40t-41 15z" />
    <glyph glyph-name="six.dnom" horiz-adv-x="393" 
d="M221 332q-38 0 -66.5 -34t-36.5 -84q37 46 98 46q49 0 85 -31t36 -83q0 -63 -48 -108t-119 -45q-64 0 -103.5 41.5t-39.5 112.5q0 101 58 177t143 76q56 0 92 -31t37 -83h-81q-3 46 -55 46zM176 58q33 0 55 24t22 58q0 27 -18 43t-44 16q-33 0 -55.5 -23.5t-22.5 -57.5
q0 -27 18 -43.5t45 -16.5z" />
    <glyph glyph-name="seven.dnom" horiz-adv-x="361" 
d="M248 322h-205l11 69h294l-11 -70q-78 -79 -115 -152t-53 -169h-93q29 167 172 322z" />
    <glyph glyph-name="eight.dnom" horiz-adv-x="397" 
d="M167 -7q-69 0 -110.5 28.5t-41.5 76.5q0 39 29.5 69t67.5 36q-50 21 -50 72q0 56 44 90.5t111 34.5q59 0 96 -26.5t37 -73.5q0 -35 -21.5 -63t-56.5 -40q27 -6 46 -28.5t19 -51.5q0 -54 -48.5 -89t-121.5 -35zM201 230q31 0 50.5 16.5t19.5 45.5q0 23 -17 34t-42 11
q-32 0 -51.5 -16t-19.5 -45q0 -46 60 -46zM182 169q-38 0 -59 -18t-21 -45q0 -49 72 -49q38 0 58.5 18.5t20.5 45.5q0 22 -18.5 35t-52.5 13z" />
    <glyph glyph-name="nine.dnom" horiz-adv-x="394" 
d="M154 61q38 0 66.5 33.5t36.5 84.5q-38 -47 -97 -47q-49 0 -85 31.5t-36 82.5q0 63 47.5 108.5t118.5 45.5q65 0 104.5 -42t39.5 -113q0 -101 -58 -176.5t-144 -75.5q-55 0 -91.5 30.5t-37.5 83.5h81q3 -46 55 -46zM200 334q-33 0 -55 -23.5t-22 -57.5q0 -27 17.5 -43
t44.5 -16q33 0 55.5 23.5t22.5 56.5q0 28 -18 44t-45 16z" />
    <glyph glyph-name="percent.lt" 
d="M199 410q-60 0 -99.5 39t-39.5 97q0 72 55 126t127 54q60 0 99 -39t39 -98q0 -72 -54.5 -125.5t-126.5 -53.5zM626 714h87l-647 -713h-86zM208 480q40 0 69 30.5t29 69.5q0 33 -21 54t-54 21q-40 0 -68.5 -30.5t-28.5 -68.5q0 -33 21 -54.5t53 -21.5zM454 -11
q-60 0 -99.5 39t-39.5 97q0 72 54.5 126t126.5 54q60 0 99.5 -39.5t39.5 -97.5q0 -72 -54.5 -125.5t-126.5 -53.5zM463 59q40 0 69 30.5t29 68.5q0 33 -21.5 54.5t-53.5 21.5q-39 0 -68 -30t-29 -69q0 -33 21 -54.5t53 -21.5z" />
    <glyph glyph-name="period.tab" horiz-adv-x="330" 
d="M51 0l23 149h150l-24 -149h-149z" />
    <glyph glyph-name="comma.tab" horiz-adv-x="330" 
d="M51 4l23 145h150l-26 -159q-11 -74 -63 -115.5t-132 -41.5l11 69q44 0 70 19.5t33 68.5l3 14h-69z" />
    <glyph glyph-name="colon.tab" horiz-adv-x="330" 
d="M102 325l23 149h150l-24 -149h-149zM51 0l23 149h150l-24 -149h-149z" />
    <glyph glyph-name="semicolon.tab" horiz-adv-x="330" 
d="M102 325l23 149h150l-24 -149h-149zM51 4l23 145h150l-26 -159q-11 -74 -63 -115.5t-132 -41.5l11 69q44 0 70 19.5t33 68.5l3 14h-69z" />
    <glyph glyph-name="space.tab" horiz-adv-x="330" 
 />
    <glyph glyph-name="thinspace" horiz-adv-x="63" 
 />
    <glyph glyph-name="zero.slash" horiz-adv-x="695" 
d="M318 -12q-121 0 -190.5 81.5t-69.5 214.5q0 116 42 216t124 163t186 63q120 0 189.5 -81.5t69.5 -214.5q0 -116 -42 -216t-123.5 -163t-185.5 -63zM186 273q0 -74 26 -121l257 459q-29 17 -67 17q-81 0 -135 -71t-73 -192q-8 -49 -8 -92zM541 441q0 70 -23 116l-256 -457
q28 -14 63 -14q81 0 135 71t73 192q8 49 8 92z" />
    <glyph glyph-name="zero.slashlt" 
d="M302 -12q-114 0 -180 81.5t-66 214.5q0 116 40.5 216t118.5 163t177 63q113 0 179 -81.5t66 -214.5q0 -116 -40.5 -216t-118.5 -163t-176 -63zM182 268q0 -55 14 -97l259 435q-30 22 -69 22q-77 0 -128 -71t-69 -192q-7 -52 -7 -97zM512 446q0 56 -16 101l-260 -437
q28 -24 71 -24q77 0 128 71.5t69 191.5q6 46 8 97z" />
    <glyph glyph-name="CR" horiz-adv-x="221" 
 />
    </font>
</defs>
</svg>
