<?xml version="1.0" standalone="no"?>
<!DOCTYPE svg PUBLIC "-//W3C//DTD SVG 1.1//EN" "http://www.w3.org/Graphics/SVG/1.1/DTD/svg11.dtd" >
<svg xmlns="http://www.w3.org/2000/svg" xmlns:xlink="http://www.w3.org/1999/xlink" version="1.1">
<metadata>
Created by FontForge 20170731 at Mon Mar 20 13:25:12 2017
 By Aleksey,,,
(c) 2016 Klim Type Foundry. All Rights Reserved.
</metadata>
<defs>
<font id="UntitledSans-Black" horiz-adv-x="660" >
  <font-face 
    font-family="Untitled Sans Black"
    font-weight="800"
    font-stretch="normal"
    units-per-em="1000"
    panose-1="2 11 5 3 3 2 2 6 2 3"
    ascent="800"
    descent="-200"
    x-height="516"
    cap-height="714"
    bbox="-223 -247 1108 1002"
    underline-thickness="50"
    underline-position="-200"
    unicode-range="U+0020-2212"
  />
<missing-glyph horiz-adv-x="1178" 
d="M992 473v-55q-24 -8 -53 -8q-84 0 -84 84v125h-36v52h36v65h74v-65h57v-52h-57v-116q0 -34 30 -34q14 0 33 4zM320 671v-40q21 47 79 47q45 0 70 -26t25 -73v-165h-75v148q0 59 -47 59q-52 0 -52 -68v-139h-75v257h75zM533 544q0 62 37 98t97 36q59 0 96 -36.5t37 -97.5
q0 -62 -37 -98.5t-96 -36.5q-60 0 -97 36.5t-37 98.5zM607 544q0 -82 60 -82q28 0 43 22t15 60t-15 59t-43 21q-60 0 -60 -80zM100 414v85h85v-85h-85zM992 303q-19 4 -33 4q-30 0 -30 -34v-15h57v-52h-57v-206h-74v206h-36v52h36v24q0 84 84 84q29 0 53 -8v-55zM420 0v41
q-9 -20 -30.5 -33.5t-49.5 -13.5q-51 0 -82 37.5t-31 97.5t31 97.5t82 37.5q55 0 79 -46v145h75v-363h-74zM794 81q-24 -87 -125 -87q-60 0 -98 36t-38 98q0 61 39 98t97 37q62 0 95.5 -37.5t33.5 -92.5v-23h-193q8 -63 64 -63q41 0 53 34h72zM669 211q-51 0 -62 -56h118
q-1 24 -15 40t-41 16zM421 124v9q0 36 -16 56.5t-44 20.5t-44 -22t-16 -59q0 -38 16 -60t44 -22t44 20.5t16 56.5z" />
    <glyph glyph-name="f_idieresis" unicode="f&#xef;" horiz-adv-x="711" 
d="M76 375h-65v141h65v14q0 96 72 153t180 57q56 0 116 -11v-153q-32 10 -81 10q-40 0 -61.5 -16.5t-21.5 -43.5v-10h96v-141h-96v-375h-204v375zM565 572v164h174v-164h-174zM447 516h204v-516h-204v516z" />
    <glyph glyph-name=".notdef" horiz-adv-x="1178" 
d="M992 473v-55q-24 -8 -53 -8q-84 0 -84 84v125h-36v52h36v65h74v-65h57v-52h-57v-116q0 -34 30 -34q14 0 33 4zM320 671v-40q21 47 79 47q45 0 70 -26t25 -73v-165h-75v148q0 59 -47 59q-52 0 -52 -68v-139h-75v257h75zM533 544q0 62 37 98t97 36q59 0 96 -36.5t37 -97.5
q0 -62 -37 -98.5t-96 -36.5q-60 0 -97 36.5t-37 98.5zM607 544q0 -82 60 -82q28 0 43 22t15 60t-15 59t-43 21q-60 0 -60 -80zM100 414v85h85v-85h-85zM992 303q-19 4 -33 4q-30 0 -30 -34v-15h57v-52h-57v-206h-74v206h-36v52h36v24q0 84 84 84q29 0 53 -8v-55zM420 0v41
q-9 -20 -30.5 -33.5t-49.5 -13.5q-51 0 -82 37.5t-31 97.5t31 97.5t82 37.5q55 0 79 -46v145h75v-363h-74zM794 81q-24 -87 -125 -87q-60 0 -98 36t-38 98q0 61 39 98t97 37q62 0 95.5 -37.5t33.5 -92.5v-23h-193q8 -63 64 -63q41 0 53 34h72zM669 211q-51 0 -62 -56h118
q-1 24 -15 40t-41 16zM421 124v9q0 36 -16 56.5t-44 20.5t-44 -22t-16 -59q0 -38 16 -60t44 -22t44 20.5t16 56.5z" />
    <glyph glyph-name=".null" horiz-adv-x="0" 
 />
    <glyph glyph-name="nonmarkingreturn" horiz-adv-x="333" 
 />
    <glyph glyph-name="space" unicode=" " horiz-adv-x="200" 
 />
    <glyph glyph-name="exclam" unicode="!" horiz-adv-x="359" 
d="M63 714h233l-33 -450h-167zM71 0v207h217v-207h-217z" />
    <glyph glyph-name="quotedbl" unicode="&#x22;" horiz-adv-x="544" 
d="M333 411l-32 325h189l-33 -325h-124zM87 411l-33 325h191l-33 -325h-125z" />
    <glyph glyph-name="numbersign" unicode="#" horiz-adv-x="755" 
d="M353 40l40 159h-114l-40 -159h-131l40 159h-105l28 119h107l23 90h-109l28 120h111l40 159h131l-40 -159h114l40 159h132l-40 -159h104l-27 -120h-107l-23 -90h108l-27 -119h-111l-40 -159h-132zM309 318h114l23 90h-114z" />
    <glyph glyph-name="dollar" unicode="$" horiz-adv-x="694" 
d="M670 216q0 -98 -76 -157.5t-196 -68.5v-100h-96v102q-124 11 -199 70.5t-86 159.5h193q5 -67 92 -85v143l-57 9q-206 33 -206 206q0 97 73.5 158t189.5 70v95h96v-97q117 -12 184 -71.5t77 -152.5h-187q-6 60 -74 75v-135l73 -12q199 -35 199 -209zM227 513
q0 -27 16.5 -39t58.5 -20v121q-75 -10 -75 -62zM482 201q0 28 -18 41t-66 22v-129q84 11 84 66z" />
    <glyph glyph-name="percent" unicode="%" horiz-adv-x="866" 
d="M43 549q0 73 52.5 125t125.5 52q72 0 124 -52t52 -125t-52 -125t-124 -52q-73 0 -125.5 52t-52.5 125zM623 714h118l-498 -714h-118zM147 549q0 -32 22 -54t52 -22q29 0 50.5 22t21.5 54q0 31 -21.5 53.5t-50.5 22.5q-30 0 -52 -22.5t-22 -53.5zM470 165q0 73 52 125
t125 52t124.5 -52t51.5 -125t-51.5 -125t-124.5 -52t-125 52t-52 125zM573 165q0 -31 22 -53.5t52 -22.5q29 0 51 22.5t22 53.5q0 32 -21.5 54t-51.5 22t-52 -22t-22 -54z" />
    <glyph glyph-name="ampersand" unicode="&#x26;" horiz-adv-x="807" 
d="M565 0l-45 43q-99 -55 -210 -55q-123 0 -199.5 54.5t-76.5 148.5q0 112 133 190q-67 71 -67 143q0 91 71.5 146.5t178.5 55.5q105 0 171.5 -52t66.5 -128q0 -61 -35 -102.5t-117 -82.5l103 -99q38 60 49 130h177q-21 -130 -113 -239l159 -153h-246zM283 536q0 -20 12 -36
t41 -43q46 20 61.5 35.5t15.5 45.5q0 24 -17.5 41.5t-46.5 17.5t-47.5 -18t-18.5 -43zM230 214q0 -37 26.5 -58.5t69.5 -21.5q42 0 82 16l-139 133q-39 -27 -39 -69z" />
    <glyph glyph-name="quotesingle" unicode="'" horiz-adv-x="303" 
d="M87 411l-33 325h195l-33 -325h-129z" />
    <glyph glyph-name="parenleft" unicode="(" horiz-adv-x="480" 
d="M287 314q0 -217 161 -422h-189q-172 194 -172 422t172 422h189q-161 -221 -161 -422z" />
    <glyph glyph-name="parenright" unicode=")" horiz-adv-x="480" 
d="M32 -108q161 205 161 422q0 201 -161 422h189q172 -194 172 -422t-172 -422h-189z" />
    <glyph glyph-name="asterisk" unicode="*" horiz-adv-x="454" 
d="M174 726h106v-113l108 34l34 -101l-108 -36l66 -91l-85 -63l-68 91l-66 -91l-87 62l66 92l-107 35l32 102l109 -36v115z" />
    <glyph glyph-name="plus" unicode="+" 
d="M600 262h-201v-200h-139v200h-201v140h201v200h139v-200h201v-140z" />
    <glyph glyph-name="comma" unicode="," horiz-adv-x="361" 
d="M72 8v209h217v-215q0 -94 -59 -140t-162 -46v100q52 1 79 18t27 67v7h-102z" />
    <glyph glyph-name="hyphen" unicode="-" horiz-adv-x="460" 
d="M87 210v164h286v-164h-286z" />
    <glyph glyph-name="period" unicode="." horiz-adv-x="361" 
d="M72 0v217h217v-217h-217z" />
    <glyph glyph-name="slash" unicode="/" horiz-adv-x="579" 
d="M33 -108l326 844h188l-326 -844h-188z" />
    <glyph glyph-name="zero" unicode="0" horiz-adv-x="738" 
d="M32 357q0 163 91.5 266t245.5 103t245.5 -103t91.5 -266t-91.5 -266t-245.5 -103t-245.5 103t-91.5 266zM246 357q0 -215 123 -215t123 215t-123 215t-123 -215z" />
    <glyph glyph-name="one" unicode="1" horiz-adv-x="474" 
d="M36 471v138q91 0 136 24.5t58 80.5h156v-714h-211v471h-139z" />
    <glyph glyph-name="two" unicode="2" horiz-adv-x="637" 
d="M603 496q0 -87 -52 -141t-163 -104q-67 -31 -93.5 -50t-31.5 -41h339v-160h-574v71q0 57 19.5 105t57 84.5t71 60.5t82.5 51q8 5 23 13q75 42 99.5 63t24.5 53q0 69 -78 69q-40 0 -64 -28t-26 -71h-204q9 112 87 183.5t209 71.5q120 0 197 -62t77 -168z" />
    <glyph glyph-name="three" unicode="3" horiz-adv-x="639" 
d="M612 195q0 -87 -78 -147t-213 -60q-132 0 -213.5 64.5t-91.5 168.5h200q3 -38 33.5 -59t71.5 -21q46 0 71.5 19.5t25.5 53.5q0 68 -101 68h-67v145h65q43 0 66.5 19t23.5 55q0 32 -21.5 51.5t-58.5 19.5q-40 0 -65 -21.5t-27 -58.5h-193q8 99 84.5 166.5t203.5 67.5
t197.5 -61.5t70.5 -153.5q0 -59 -34.5 -101t-93.5 -53q68 -12 106 -55t38 -107z" />
    <glyph glyph-name="four" unicode="4" horiz-adv-x="721" 
d="M575 714v-408h124v-157h-124v-149h-201v149h-352v158l329 407h224zM374 531l-178 -225h178v225z" />
    <glyph glyph-name="five" unicode="5" horiz-adv-x="652" 
d="M327 339q-57 0 -83 -40h-190l42 415h472v-160h-320l-11 -101q51 37 136 37q109 0 177 -69t68 -181q0 -108 -78.5 -180t-210.5 -72q-138 0 -217 64.5t-88 171.5h212q3 -37 27 -61t63 -24q42 0 66.5 27.5t24.5 70.5q0 45 -23.5 73.5t-66.5 28.5z" />
    <glyph glyph-name="six" unicode="6" horiz-adv-x="664" 
d="M348 572q-55 0 -89.5 -45.5t-34.5 -112.5q57 63 153 63q110 0 183.5 -68.5t73.5 -172.5q0 -107 -80 -177.5t-209 -70.5q-141 0 -227 96t-86 261q0 173 89.5 277t234.5 104q110 0 182.5 -59.5t86.5 -152.5h-191q-21 58 -86 58zM344 133q43 0 70.5 28.5t27.5 73.5t-27 73
t-71 28q-46 0 -74.5 -28t-28.5 -73t28.5 -73.5t74.5 -28.5z" />
    <glyph glyph-name="seven" unicode="7" horiz-adv-x="608" 
d="M380 554h-354v160h557v-169q-116 -142 -158.5 -261t-44.5 -284h-215q2 156 57.5 288.5t157.5 265.5z" />
    <glyph glyph-name="eight" unicode="8" horiz-adv-x="672" 
d="M336 726q122 0 198.5 -55t76.5 -154q0 -51 -28 -91.5t-71 -63.5q49 -11 89.5 -58t40.5 -105q0 -99 -83.5 -155t-222.5 -56t-222.5 56t-83.5 155q0 58 40.5 105t89.5 58q-43 23 -71 63.5t-28 91.5q0 99 76.5 154t198.5 55zM336 432q43 0 68 20t25 57t-25 57t-68 20
t-68 -20t-25 -57t25 -57t68 -20zM336 132q54 0 82 21.5t28 58.5q0 38 -28 60t-82 22t-82 -22t-28 -60q0 -37 28 -58.5t82 -21.5z" />
    <glyph glyph-name="nine" unicode="9" horiz-adv-x="664" 
d="M316 142q55 0 89.5 45.5t34.5 112.5q-57 -63 -153 -63q-110 0 -183.5 68.5t-73.5 172.5q0 107 80 177.5t209 70.5q141 0 227 -96t86 -261q0 -173 -89.5 -277t-234.5 -104q-110 0 -182.5 59.5t-86.5 152.5h191q21 -58 86 -58zM320 581q-43 0 -70.5 -28.5t-27.5 -73.5
t27 -73t71 -28q46 0 74.5 28t28.5 73t-28.5 73.5t-74.5 28.5z" />
    <glyph glyph-name="colon" unicode=":" horiz-adv-x="361" 
d="M72 299v217h217v-217h-217zM72 0v217h217v-217h-217z" />
    <glyph glyph-name="semicolon" unicode=";" horiz-adv-x="361" 
d="M72 299v217h217v-217h-217zM72 8v209h217v-215q0 -94 -59 -140t-162 -46v100q52 1 79 18t27 67v7h-102z" />
    <glyph glyph-name="less" unicode="&#x3c;" 
d="M86 236v187l487 175v-158l-340 -111l340 -110v-158z" />
    <glyph glyph-name="equal" unicode="=" 
d="M59 375v126h541v-126h-541zM59 153v126h541v-126h-541z" />
    <glyph glyph-name="greater" unicode="&#x3e;" 
d="M573 236l-487 -175v158l341 110l-341 111v158l487 -175v-187z" />
    <glyph glyph-name="question" unicode="?" horiz-adv-x="625" 
d="M598 502q0 -61 -31.5 -107.5t-102.5 -89.5q-50 -30 -54 -58h-198q0 78 114 156q40 28 57 49t17 49q0 33 -20.5 51.5t-55.5 18.5q-41 0 -65.5 -28t-26.5 -71h-205q9 111 88.5 182.5t208.5 71.5q121 0 197.5 -59.5t76.5 -164.5zM202 0v196h218v-196h-218z" />
    <glyph glyph-name="at" unicode="@" horiz-adv-x="917" 
d="M701 464l-51 -289q-4 -25 3.5 -37t28.5 -12q52 0 81 52t29 147q0 122 -84 191t-218 69q-157 0 -257.5 -99.5t-100.5 -259.5q0 -72 22 -129t57 -92t83 -57.5t96.5 -31.5t100.5 -9q120 0 230 46l36 -78q-112 -59 -266 -59q-91 0 -172 24.5t-147.5 72.5t-105 128.5
t-38.5 184.5q0 124 58 227t164.5 163.5t239.5 60.5q175 0 287 -100.5t112 -251.5q0 -141 -70.5 -216.5t-178.5 -75.5q-87 0 -132 60q-18 -27 -52.5 -41.5t-69.5 -14.5q-75 0 -119 51.5t-44 130.5q0 104 62 179t160 75q32 0 59.5 -13.5t38.5 -34.5l8 39h150zM509 233l4 28
q6 35 -7.5 58.5t-40.5 23.5q-36 0 -56 -24.5t-25 -64.5q-6 -43 8.5 -67t45.5 -24q24 0 44.5 17.5t26.5 52.5z" />
    <glyph glyph-name="A" unicode="A" horiz-adv-x="806" 
d="M590 0l-48 133h-285l-50 -133h-205l282 714h237l283 -714h-214zM400 515l-84 -223h168l-81 223h-3z" />
    <glyph glyph-name="B" unicode="B" horiz-adv-x="734" 
d="M425 0h-364v714h349q269 0 269 -201q0 -45 -31 -89t-72 -57q51 -16 88 -58.5t37 -99.5q0 -103 -71.5 -156t-204.5 -53zM267 433h131q82 0 82 67q0 32 -21 50t-61 18h-131v-135zM267 291v-145h138q90 0 90 74q0 71 -90 71h-138z" />
    <glyph glyph-name="C" unicode="C" horiz-adv-x="741" 
d="M242 357q0 -102 38 -156t111 -54q102 0 122 105h204q-23 -123 -104 -193.5t-222 -70.5q-166 0 -264.5 102.5t-98.5 266.5q0 163 98.5 266t264.5 103q141 0 222 -70.5t104 -193.5h-204q-20 105 -122 105q-73 0 -111 -54t-38 -156z" />
    <glyph glyph-name="D" unicode="D" horiz-adv-x="772" 
d="M372 714q171 0 271.5 -97.5t100.5 -258.5q0 -162 -100.5 -260t-271.5 -98h-311v714h311zM372 554h-105v-394h105q158 0 158 198q0 196 -158 196z" />
    <glyph glyph-name="E" unicode="E" horiz-adv-x="683" 
d="M636 0h-575v714h565v-160h-359v-115h315v-160h-315v-119h369v-160z" />
    <glyph glyph-name="F" unicode="F" horiz-adv-x="658" 
d="M61 0v714h554v-160h-343v-147h299v-160h-299v-247h-211z" />
    <glyph glyph-name="G" unicode="G" horiz-adv-x="791" 
d="M28 358q0 163 100 265.5t270 102.5q140 0 222.5 -68.5t109.5 -190.5h-208q-22 100 -124 100q-76 0 -116 -54t-40 -155q0 -102 40.5 -156.5t117.5 -54.5q56 0 88.5 25t32.5 59v3h-86v144h300v-378h-162l-10 72q-18 -38 -71.5 -61t-111.5 -23q-162 0 -257 103t-95 267z" />
    <glyph glyph-name="H" unicode="H" horiz-adv-x="822" 
d="M61 0v714h211v-273h278v273h211v-714h-211v282h-278v-282h-211z" />
    <glyph glyph-name="I" unicode="I" horiz-adv-x="333" 
d="M61 0v714h211v-714h-211z" />
    <glyph glyph-name="J" unicode="J" horiz-adv-x="666" 
d="M400 256v458h211v-450q0 -127 -82 -201.5t-225 -74.5q-134 0 -211.5 69.5t-77.5 190.5h198q0 -54 24 -82t67 -28q96 0 96 118z" />
    <glyph glyph-name="K" unicode="K" horiz-adv-x="789" 
d="M546 0l-193 260l-81 -91v-169h-211v714h211v-310l254 310h234l-270 -302l311 -412h-255z" />
    <glyph glyph-name="L" unicode="L" horiz-adv-x="654" 
d="M61 0v714h211v-554h342v-160h-553z" />
    <glyph glyph-name="M" unicode="M" horiz-adv-x="968" 
d="M549 0h-141l-155 451h-2v-451h-190v713h281l144 -426h2l144 426h275v-713h-202v451h-2z" />
    <glyph glyph-name="N" unicode="N" horiz-adv-x="820" 
d="M299 714l258 -398h2v398h200v-714h-195l-301 458h-2v-458h-200v714h238z" />
    <glyph glyph-name="O" unicode="O" horiz-adv-x="792" 
d="M764 357q0 -164 -99 -266.5t-269 -102.5t-269 102.5t-99 266.5t99 266.5t269 102.5t269 -102.5t99 -266.5zM550 357q0 210 -154 210t-154 -210t154 -210t154 210z" />
    <glyph glyph-name="P" unicode="P" horiz-adv-x="716" 
d="M409 221h-142v-221h-206v714h346q142 0 218 -63t76 -185q0 -120 -76 -182.5t-216 -62.5zM267 380h115q113 0 113 86q0 44 -26.5 66t-86.5 22h-115v-174z" />
    <glyph glyph-name="Q" unicode="Q" horiz-adv-x="791" 
d="M715 23l-102 -86l-69 76q-67 -25 -148 -25q-170 0 -269 102.5t-99 266.5t99 266.5t269 102.5t269 -102.5t99 -266.5q0 -170 -105 -272zM242 357q0 -210 154 -210q10 0 26 2l-52 58l103 87l56 -62q21 50 21 125q0 210 -154 210t-154 -210z" />
    <glyph glyph-name="R" unicode="R" horiz-adv-x="744" 
d="M267 0h-206v714h357q137 0 213 -62.5t76 -180.5q0 -145 -130 -209l150 -262h-225l-126 228h-109v-228zM267 388h121q61 0 87 20t26 63t-26 63t-87 20h-121v-166z" />
    <glyph glyph-name="S" unicode="S" horiz-adv-x="685" 
d="M13 223h203q4 -46 42 -67t91 -21q46 0 77.5 17t31.5 50q0 28 -21 41t-76 22l-122 21q-205 34 -205 209q0 105 85.5 168t215.5 63q145 0 225.5 -60.5t92.5 -168.5h-198q-3 40 -34.5 60.5t-83.5 20.5q-43 0 -70 -18t-27 -48q0 -28 20.5 -39.5t72.5 -20.5l134 -24
q198 -35 198 -211q0 -106 -87.5 -167.5t-220.5 -61.5q-150 0 -241 60t-103 175z" />
    <glyph glyph-name="T" unicode="T" horiz-adv-x="757" 
d="M273 0v554h-239v160h689v-160h-239v-554h-211z" />
    <glyph glyph-name="U" unicode="U" horiz-adv-x="774" 
d="M719 283q0 -145 -86.5 -220t-245.5 -75q-158 0 -245 75.5t-87 220.5v430h211v-419q0 -68 26.5 -106.5t94.5 -38.5t94.5 38.5t26.5 106.5v419h211v-431z" />
    <glyph glyph-name="V" unicode="V" horiz-adv-x="780" 
d="M273 0l-271 714h225l166 -481h2l166 481h217l-272 -714h-233z" />
    <glyph glyph-name="W" unicode="W" horiz-adv-x="1050" 
d="M630 0l-105 469h-2l-103 -469h-227l-191 714h215l106 -463h3l102 463h204l102 -463h2l107 463h205l-192 -714h-226z" />
    <glyph glyph-name="X" unicode="X" horiz-adv-x="780" 
d="M542 0l-158 222l-163 -222h-219l273 365l-252 349h236l137 -193l140 193h220l-252 -337l274 -377h-236z" />
    <glyph glyph-name="Y" unicode="Y" horiz-adv-x="777" 
d="M494 0h-212v288l-282 426h235l156 -244h2l155 244h229l-283 -426v-288z" />
    <glyph glyph-name="Z" unicode="Z" horiz-adv-x="699" 
d="M654 560l-362 -400h372v-160h-628v148l364 406h-354v160h608v-154z" />
    <glyph glyph-name="bracketleft" unicode="[" horiz-adv-x="440" 
d="M283 600v-572h114v-136h-310v844h310v-136h-114z" />
    <glyph glyph-name="backslash" unicode="\" horiz-adv-x="579" 
d="M33 736h188l326 -844h-188z" />
    <glyph glyph-name="bracketright" unicode="]" horiz-adv-x="440" 
d="M157 28v572h-114v136h310v-844h-310v136h114z" />
    <glyph glyph-name="asciicircum" unicode="^" horiz-adv-x="530" 
d="M172 726h187l139 -293h-169l-64 151l-64 -151h-168z" />
    <glyph glyph-name="underscore" unicode="_" horiz-adv-x="434" 
d="M32 -151v134h370v-134h-370z" />
    <glyph glyph-name="grave" unicode="`" horiz-adv-x="563" 
d="M414 572h-138l-127 164h217z" />
    <glyph glyph-name="a" unicode="a" horiz-adv-x="611" 
d="M373 0q-3 42 -3 71q-43 -83 -160 -83q-87 0 -135.5 41.5t-48.5 111.5q0 139 197 158l135 12v19q0 26 -15 41t-43 15q-27 0 -42 -14.5t-17 -38.5h-194q8 92 76 143.5t184 51.5q250 0 250 -227v-137q0 -91 8 -164h-192zM276 111q35 0 58.5 21.5t23.5 59.5v19l-71 -9
q-62 -7 -62 -45q0 -22 14 -34t37 -12z" />
    <glyph glyph-name="b" unicode="b" horiz-adv-x="665" 
d="M262 71v-71h-202v736h204v-291q19 38 59.5 60.5t90.5 22.5q103 0 163 -75.5t60 -194.5t-60 -194.5t-163 -75.5q-50 0 -91.5 22.5t-60.5 60.5zM261 271v-26q0 -54 22.5 -84t62.5 -30q87 0 87 127q0 61 -22.5 94t-64.5 33q-40 0 -62.5 -30t-22.5 -84z" />
    <glyph glyph-name="c" unicode="c" horiz-adv-x="588" 
d="M28 258q0 124 79.5 197t205.5 73q111 0 177.5 -57.5t76.5 -152.5h-193q-2 27 -18 46.5t-45 19.5q-38 0 -58 -33.5t-20 -92.5q0 -60 20 -92.5t58 -32.5q29 0 45 19.5t18 46.5h193q-10 -95 -77 -153t-177 -58q-126 0 -205.5 72.5t-79.5 197.5z" />
    <glyph glyph-name="d" unicode="d" horiz-adv-x="665" 
d="M403 0v71q-19 -38 -60.5 -60.5t-91.5 -22.5q-103 0 -163 75.5t-60 194.5t60 194.5t163 75.5q50 0 90.5 -22.5t59.5 -60.5v291h204v-736h-202zM404 245v26q0 54 -22.5 84t-62.5 30q-42 0 -64.5 -33t-22.5 -94q0 -127 87 -127q40 0 62.5 30t22.5 84z" />
    <glyph glyph-name="e" unicode="e" horiz-adv-x="605" 
d="M575 176q-16 -86 -85.5 -137t-178.5 -51q-122 0 -202.5 73t-80.5 198q0 124 80.5 196.5t202.5 72.5q126 0 196 -75.5t70 -188.5v-48h-354q13 -87 88 -87q62 0 77 47h187zM311 390q-71 0 -86 -80h165q0 33 -21.5 56.5t-57.5 23.5z" />
    <glyph glyph-name="f" unicode="f" horiz-adv-x="387" 
d="M76 375h-65v141h65v34q0 190 199 190q66 0 104 -6v-149q-27 3 -47 3q-28 0 -40 -12t-12 -38v-22h96v-141h-96v-375h-204v375z" />
    <glyph glyph-name="g" unicode="g" horiz-adv-x="670" 
d="M406 38v70q-19 -39 -59 -63t-91 -24q-105 0 -165.5 71t-60.5 183t60.5 182.5t165.5 70.5q51 0 92 -23.5t60 -61.5v73h202v-445q0 -129 -77.5 -195t-214.5 -66q-121 0 -194.5 48t-87.5 130h201q15 -43 80 -43q89 0 89 93zM409 267v17q0 48 -23.5 75.5t-63.5 27.5
q-42 0 -64.5 -29t-22.5 -83q0 -55 22.5 -84.5t64.5 -29.5q40 0 63.5 28t23.5 78z" />
    <glyph glyph-name="h" unicode="h" horiz-adv-x="665" 
d="M264 442q47 86 153 86q91 0 142.5 -52.5t51.5 -145.5v-330h-204v280q0 92 -70 92q-73 0 -73 -99v-273h-204v736h204v-294z" />
    <glyph glyph-name="i" unicode="i" horiz-adv-x="324" 
d="M59 572v164h206v-164h-206zM60 0v516h204v-516h-204z" />
    <glyph glyph-name="j" unicode="j" horiz-adv-x="324" 
d="M59 572v164h206v-164h-206zM57 -185q-46 0 -85 7v144q20 -3 37 -3q27 0 39 11.5t12 38.5v503h204v-515q0 -92 -53.5 -139t-153.5 -47z" />
    <glyph glyph-name="k" unicode="k" horiz-adv-x="666" 
d="M440 0l-128 179l-48 -49v-130h-204v736h204v-399l163 179h225l-202 -208l215 -308h-225z" />
    <glyph glyph-name="l" unicode="l" horiz-adv-x="324" 
d="M264 0h-204v736h204v-736z" />
    <glyph glyph-name="m" unicode="m" horiz-adv-x="994" 
d="M578 443q27 38 73 61.5t101 23.5q89 0 138.5 -52t49.5 -146v-330h-204v283q0 89 -66 89q-68 0 -68 -97v-275h-204v283q0 89 -66 89q-68 0 -68 -97v-275h-204v516h202v-74q20 38 60 62t92 24q113 0 164 -85z" />
    <glyph glyph-name="n" unicode="n" horiz-adv-x="665" 
d="M262 516v-74q47 86 155 86q91 0 142.5 -52.5t51.5 -145.5v-330h-204v280q0 92 -70 92q-73 0 -73 -99v-273h-204v516h202z" />
    <glyph glyph-name="o" unicode="o" horiz-adv-x="630" 
d="M602 258q0 -125 -79 -197.5t-208 -72.5t-208 72.5t-79 197.5t79 197.5t208 72.5t208 -72.5t79 -197.5zM233 258q0 -127 82 -127t82 127t-82 127t-82 -127z" />
    <glyph glyph-name="p" unicode="p" horiz-adv-x="665" 
d="M264 71v-249h-204v694h202v-71q19 38 60.5 60.5t91.5 22.5q103 0 163 -75.5t60 -194.5t-60 -194.5t-163 -75.5q-50 0 -90.5 22.5t-59.5 60.5zM261 271v-26q0 -54 22.5 -84t62.5 -30q87 0 87 127q0 61 -22.5 94t-64.5 33q-40 0 -62.5 -30t-22.5 -84z" />
    <glyph glyph-name="q" unicode="q" horiz-adv-x="665" 
d="M401 -178v249q-19 -38 -59.5 -60.5t-90.5 -22.5q-103 0 -163 75.5t-60 194.5t60 194.5t163 75.5q50 0 91.5 -22.5t60.5 -60.5v71h202v-694h-204zM404 245v26q0 54 -22.5 84t-62.5 30q-42 0 -64.5 -33t-22.5 -94q0 -127 87 -127q40 0 62.5 30t22.5 84z" />
    <glyph glyph-name="r" unicode="r" horiz-adv-x="474" 
d="M448 517v-187q-27 4 -59 4q-58 0 -91.5 -30t-33.5 -90v-214h-204v516h202v-105q41 112 150 112q24 0 36 -6z" />
    <glyph glyph-name="s" unicode="s" horiz-adv-x="567" 
d="M22 163h187q8 -48 80 -48q58 0 58 32q0 16 -13 22t-50 12l-92 15q-156 26 -156 150q0 82 69.5 132t171.5 50q113 0 177.5 -47t73.5 -126h-178q-3 21 -23 34.5t-48 13.5q-24 0 -39 -9t-15 -24t12.5 -21t46.5 -12l98 -16q155 -25 155 -155q0 -83 -70 -130.5t-175 -47.5
q-116 0 -187.5 45t-82.5 130z" />
    <glyph glyph-name="t" unicode="t" horiz-adv-x="424" 
d="M388 157v-149q-65 -16 -123 -16q-98 0 -143.5 38.5t-45.5 124.5v220h-65v141h65v126h201v-126h102v-141h-103v-173q0 -28 12.5 -39t41.5 -11t58 5z" />
    <glyph glyph-name="u" unicode="u" horiz-adv-x="657" 
d="M597 0h-202v74q-20 -38 -60 -62t-93 -24q-88 0 -138 52.5t-50 145.5v330h205v-283q0 -88 64 -88q31 0 50 24t19 74v273h205v-516z" />
    <glyph glyph-name="v" unicode="v" horiz-adv-x="629" 
d="M204 0l-198 516h204l107 -319h2l106 319h198l-198 -516h-221z" />
    <glyph glyph-name="w" unicode="w" horiz-adv-x="893" 
d="M538 516l70 -315h2l79 315h198l-162 -516h-203l-74 299h-2l-75 -299h-203l-162 516h203l78 -315h3l69 315h179z" />
    <glyph glyph-name="x" unicode="x" horiz-adv-x="633" 
d="M219 0h-217l200 263l-186 253h229l75 -109l80 109h217l-186 -245l200 -271h-229l-89 126z" />
    <glyph glyph-name="y" unicode="y" horiz-adv-x="629" 
d="M198 9l-192 507h204l108 -335h2l105 335h198l-191 -514q-38 -101 -105 -144.5t-170 -43.5q-47 0 -77 5v145q13 -1 25 -1q32 0 46 2t26.5 12t20.5 32z" />
    <glyph glyph-name="z" unicode="z" horiz-adv-x="560" 
d="M513 380l-228 -234h238v-146h-484v132l227 239h-223v145h470v-136z" />
    <glyph glyph-name="braceleft" unicode="{" horiz-adv-x="452" 
d="M33 245v138h34q26 0 42.5 17t16.5 43v161q0 63 41 97.5t119 34.5h123v-134h-59q-43 0 -43 -40v-147q0 -44 -31.5 -71t-81.5 -30q50 -3 81.5 -30t31.5 -71v-147q0 -40 43 -40h59v-134h-123q-78 0 -119 34.5t-41 97.5v161q0 26 -16.5 43t-42.5 17h-34z" />
    <glyph glyph-name="bar" unicode="|" horiz-adv-x="370" 
d="M98 736h174v-844h-174v844z" />
    <glyph glyph-name="braceright" unicode="}" horiz-adv-x="452" 
d="M419 383v-138h-34q-26 0 -42.5 -17t-16.5 -43v-161q0 -63 -41 -97.5t-119 -34.5h-123v134h59q43 0 43 40v147q0 44 31.5 71t81.5 30q-50 3 -81.5 30t-31.5 71v147q0 40 -43 40h-59v134h123q78 0 119 -34.5t41 -97.5v-161q0 -26 16.5 -43t42.5 -17h34z" />
    <glyph glyph-name="asciitilde" unicode="~" horiz-adv-x="619" 
d="M241 268q-14 0 -26 -14.5t-13 -41.5h-115q0 93 34 149.5t88 56.5q37 0 93.5 -29.5t73.5 -29.5q34 0 40 54h116q0 -93 -34.5 -149t-88.5 -56q-38 0 -94 30t-74 30z" />
    <glyph glyph-name="uni00A0" unicode="&#xa0;" horiz-adv-x="200" 
 />
    <glyph glyph-name="exclamdown" unicode="&#xa1;" horiz-adv-x="359" 
d="M71 507v207h217v-207h-217zM296 0h-233l33 450h167z" />
    <glyph glyph-name="cent" unicode="&#xa2;" horiz-adv-x="597" 
d="M571 207q-9 -84 -66 -142t-145 -71v-100h-96v100q-104 16 -170 88.5t-66 185.5t66 185.5t170 88.5v106h96v-106q88 -13 145 -71t66 -142h-158q-2 50 -53 71v-264q51 21 53 71h158zM201 268q0 -98 63 -129v258q-63 -31 -63 -129z" />
    <glyph glyph-name="sterling" unicode="&#xa3;" horiz-adv-x="666" 
d="M636 160v-160h-598v160h16q63 0 69 101h-83v136h58q-16 62 -16 100q0 101 77.5 165t195.5 64q129 0 200.5 -70.5t81.5 -183.5h-197q-4 99 -85 99q-34 0 -54.5 -21.5t-20.5 -56.5q0 -12 2.5 -25t5 -21.5t7.5 -25t7 -24.5h130v-136h-119q-11 -58 -51 -101h374z" />
    <glyph glyph-name="yen" unicode="&#xa5;" horiz-adv-x="777" 
d="M689 172h-194v-172h-212v172h-195v105h195v47h-195v105h124l-201 285h230l150 -234h2l150 234h223l-200 -285h123v-105h-194v-47h194v-105z" />
    <glyph glyph-name="section" unicode="&#xa7;" horiz-adv-x="665" 
d="M557 43q0 -84 -68.5 -133t-171.5 -49q-113 0 -177.5 48t-73.5 127h179q3 -21 22.5 -35.5t48.5 -14.5q24 0 39 12.5t15 32.5q0 14 -12 24.5t-40 22.5l-140 63q-79 36 -112 79.5t-33 108.5q0 93 93 143q-17 31 -17 73q0 83 68 132t171 49q113 0 177.5 -48t73.5 -127h-178
q-4 22 -23.5 36t-48.5 14q-24 0 -38.5 -12t-14.5 -32q0 -15 12 -25.5t39 -22.5l140 -63q80 -36 113 -79t33 -109q0 -93 -93 -142q17 -31 17 -73zM409 216q14 -6 20 -10q23 18 23 41q0 18 -11 30.5t-44 28.5l-140 65q-3 2 -10 5t-11 5q-23 -18 -23 -41q0 -19 11 -31t44 -27z
" />
    <glyph glyph-name="dieresis" unicode="&#xa8;" horiz-adv-x="563" 
d="M309 572v164h174v-164h-174zM80 572v164h174v-164h-174z" />
    <glyph glyph-name="copyright" unicode="&#xa9;" horiz-adv-x="871" 
d="M805 356q0 -152 -108 -260t-261 -108q-152 0 -261 108t-109 260q0 153 108.5 261.5t261.5 108.5t261 -108t108 -262zM110 356q0 -134 95.5 -229.5t230.5 -95.5t230.5 95.5t95.5 229.5q0 136 -95.5 231.5t-230.5 95.5t-230.5 -95.5t-95.5 -231.5zM360 358q0 -55 20 -88
t59 -34q53 3 62 59h136q-29 -155 -195 -158q-99 1 -157.5 63t-58.5 159t58.5 158t157.5 61q166 0 195 -157h-136q-9 58 -62 58q-39 0 -59 -32.5t-20 -88.5z" />
    <glyph glyph-name="ordfeminine" unicode="&#xaa;" horiz-adv-x="428" 
d="M253 422q-28 -54 -104 -54q-58 0 -90.5 28t-32.5 74q0 52 35.5 74t96.5 28l87 7v15q0 32 -34 32q-33 0 -35 -32h-137q6 62 52 97t124 35q170 0 170 -154v-83q0 -65 5 -113h-135q-2 38 -2 46zM245 504v13l-43 -6q-37 -3 -37 -30t31 -27q21 0 35 13.5t14 36.5zM51 218v100
h321v-100h-321z" />
    <glyph glyph-name="guillemotleft" unicode="&#xab;" horiz-adv-x="607" 
d="M563 42h-133l-146 217l146 218h133l-110 -218zM324 42h-133l-147 217l147 218h133l-110 -218z" />
    <glyph glyph-name="registered" unicode="&#xae;" horiz-adv-x="571" 
d="M286 726q96 0 163 -66t67 -165q0 -100 -67 -166t-163 -66q-97 0 -164 66t-67 166q0 99 67.5 165t163.5 66zM286 293q84 0 141 57.5t57 144.5t-57.5 144t-140.5 57t-140.5 -57t-57.5 -144t57 -144.5t141 -57.5zM252 376h-71v245h123q47 0 73 -21.5t26 -62.5q0 -50 -44 -72
l51 -89h-77l-44 78h-37v-78zM252 509h42q39 0 39 28t-39 28h-42v-56z" />
    <glyph glyph-name="macron" unicode="&#xaf;" horiz-adv-x="563" 
d="M110 572v124h342v-124h-342z" />
    <glyph glyph-name="degree" unicode="&#xb0;" horiz-adv-x="383" 
d="M191 424q-66 0 -110 43t-44 108q0 66 44 108.5t110 42.5t110.5 -42.5t44.5 -108.5q0 -64 -44.5 -107.5t-110.5 -43.5zM191 638q-28 0 -46.5 -17.5t-18.5 -45.5t18.5 -45.5t46.5 -17.5t47 18t19 45t-19 45t-47 18z" />
    <glyph glyph-name="twosuperior" unicode="&#xb2;" horiz-adv-x="391" 
d="M358 593q0 -47 -28.5 -74t-93.5 -57q-60 -28 -67 -48h186v-92h-323v42q0 56 35 93.5t91 69.5q62 33 72 45q8 11 8 23q0 33 -37 33q-20 0 -32.5 -14t-12.5 -35h-123q5 62 49.5 102t119.5 40q67 0 111.5 -34t44.5 -94z" />
    <glyph glyph-name="threesuperior" unicode="&#xb3;" horiz-adv-x="389" 
d="M360 429q0 -48 -44.5 -81t-119.5 -33q-74 0 -120 36t-52 93h122q1 -17 16 -26.5t34 -9.5q21 0 33 9t12 24q0 32 -50 32h-36v88h35q45 0 45 34q0 33 -37 33q-39 0 -44 -37h-117q4 55 47.5 92t115.5 37q71 0 111 -34t40 -84q0 -32 -19 -54.5t-50 -29.5q78 -16 78 -89z" />
    <glyph glyph-name="acute" unicode="&#xb4;" horiz-adv-x="563" 
d="M287 572h-138l48 164h217z" />
    <glyph glyph-name="paragraph" unicode="&#xb6;" horiz-adv-x="752" 
d="M310 -127v416q-127 0 -197 57t-70 156t70 155.5t197 56.5h366v-841h-135v719h-96v-719h-135z" />
    <glyph glyph-name="periodcentered" unicode="&#xb7;" horiz-adv-x="391" 
d="M87 187v217h217v-217h-217z" />
    <glyph glyph-name="cedilla" unicode="&#xb8;" horiz-adv-x="925" 
d="M595 -115q0 -46 -41.5 -71t-100.5 -25q-58 0 -101 18v74q62 -21 98 -21q43 0 43 25q0 19 -26.5 24.5t-48.5 -3.5l-29 26l49 77h67l-28 -45q47 4 82.5 -16t35.5 -63z" />
    <glyph glyph-name="onesuperior" unicode="&#xb9;" horiz-adv-x="357" 
d="M332 404v-82h-294v82h90v174h-91v78q63 0 85 12.5t29 44.5h96v-309h85z" />
    <glyph glyph-name="ordmasculine" unicode="&#xba;" horiz-adv-x="441" 
d="M27 547q0 83 53 131t141 48q87 0 139.5 -48t52.5 -131q0 -84 -52.5 -131.5t-139.5 -47.5q-88 0 -141 47.5t-53 131.5zM171 547q0 -79 50 -79q49 0 49 79q0 78 -49 78q-50 0 -50 -78zM60 218v100h321v-100h-321z" />
    <glyph glyph-name="guillemotright" unicode="&#xbb;" horiz-adv-x="607" 
d="M177 42h-133l110 217l-110 218h133l146 -218zM416 42h-133l110 217l-110 218h133l147 -218z" />
    <glyph glyph-name="onequarter" unicode="&#xbc;" horiz-adv-x="908" 
d="M253 -12h-114l515 739h115zM332 404v-82h-294v82h90v174h-91v78q63 0 85 12.5t29 44.5h96v-309h85zM808 391v-234h71v-85h-71v-72h-117v72h-194v85l181 234h130zM691 279l-92 -122h92v122z" />
    <glyph glyph-name="onehalf" unicode="&#xbd;" horiz-adv-x="919" 
d="M253 -12h-114l515 739h115zM332 404v-82h-294v82h90v174h-91v78q63 0 85 12.5t29 44.5h96v-309h85zM882 271q0 -47 -28.5 -74t-93.5 -57q-60 -28 -67 -48h186v-92h-323v42q0 56 35 93.5t91 69.5q62 33 72 45q8 10 8 23q0 33 -37 33q-20 0 -32.5 -14t-12.5 -35h-123
q5 62 49.5 102t119.5 40q67 0 111.5 -34t44.5 -94z" />
    <glyph glyph-name="threequarters" unicode="&#xbe;" horiz-adv-x="927" 
d="M262 -12h-114l515 739h115zM360 429q0 -48 -44.5 -81t-119.5 -33q-74 0 -120 36t-52 93h122q1 -17 16 -26.5t34 -9.5q21 0 33 9t12 24q0 32 -50 32h-36v88h35q45 0 45 34q0 33 -37 33q-39 0 -44 -37h-117q4 55 47.5 92t115.5 37q71 0 111 -34t40 -84q0 -32 -19 -54.5
t-50 -29.5q78 -16 78 -89zM827 391v-234h71v-85h-71v-72h-117v72h-194v85l181 234h130zM710 279l-92 -122h92v122z" />
    <glyph glyph-name="questiondown" unicode="&#xbf;" horiz-adv-x="625" 
d="M423 714v-196h-218v196h218zM27 212q0 61 31.5 107.5t102.5 89.5q50 30 54 58h198q0 -78 -114 -156q-40 -28 -57 -49t-17 -49q0 -33 20.5 -51.5t55.5 -18.5q41 0 65.5 28t26.5 71h205q-9 -111 -88.5 -182.5t-208.5 -71.5q-121 0 -197.5 59.5t-76.5 164.5z" />
    <glyph glyph-name="Agrave" unicode="&#xc0;" horiz-adv-x="806" 
d="M468 758h-127l-128 164h207zM590 0l-48 133h-285l-50 -133h-205l282 714h237l283 -714h-214zM400 515l-84 -223h168l-81 223h-3z" />
    <glyph glyph-name="Aacute" unicode="&#xc1;" horiz-adv-x="806" 
d="M462 758h-127l48 164h207zM590 0l-48 133h-285l-50 -133h-205l282 714h237l283 -714h-214zM400 515l-84 -223h168l-81 223h-3z" />
    <glyph glyph-name="Acircumflex" unicode="&#xc2;" horiz-adv-x="806" 
d="M321 922h165l104 -164h-110l-76 59l-77 -59h-110zM590 0l-48 133h-285l-50 -133h-205l282 714h237l283 -714h-214zM400 515l-84 -223h168l-81 223h-3z" />
    <glyph glyph-name="Atilde" unicode="&#xc3;" horiz-adv-x="806" 
d="M349 813q-14 0 -24 -12.5t-11 -36.5h-103q0 83 30 133t78 50q33 0 83 -26.5t66 -26.5q13 0 23.5 12.5t11.5 36.5h103q0 -83 -30 -133t-78 -50q-34 0 -84 26.5t-65 26.5zM590 0l-48 133h-285l-50 -133h-205l282 714h237l283 -714h-214zM400 515l-84 -223h168l-81 223h-3z
" />
    <glyph glyph-name="Adieresis" unicode="&#xc4;" horiz-adv-x="806" 
d="M431 758v164h174v-164h-174zM202 758v164h174v-164h-174zM590 0l-48 133h-285l-50 -133h-205l282 714h237l283 -714h-214zM400 515l-84 -223h168l-81 223h-3z" />
    <glyph glyph-name="Aring" unicode="&#xc5;" horiz-adv-x="806" 
d="M257 133l-50 -133h-205l281 711q-21 36 -21 73q0 58 41 99.5t99 41.5t99 -41.5t41 -99.5q0 -40 -20 -72l282 -712h-214l-48 133h-285zM402 841q-23 0 -40 -16.5t-17 -40.5q0 -23 17 -39.5t40 -16.5t40 16.5t17 39.5q0 24 -17 40.5t-40 16.5zM400 515l-84 -223h168
l-81 223h-3z" />
    <glyph glyph-name="AE" unicode="&#xc6;" horiz-adv-x="1155" 
d="M533 0v144h-242l-81 -144h-210l404 714h694v-160h-359v-115h315v-160h-315v-119h369v-160h-575zM533 577l-153 -273h153v273z" />
    <glyph glyph-name="Ccedilla" unicode="&#xc7;" horiz-adv-x="741" 
d="M510 -115q0 -46 -41.5 -71t-100.5 -25q-58 0 -101 18v74q62 -21 98 -21q43 0 43 25q0 19 -26.5 24.5t-48.5 -3.5l-29 26l37 59q-145 16 -229 115.5t-84 250.5q0 163 98.5 266t264.5 103q141 0 222 -70.5t104 -193.5h-204q-20 105 -122 105q-73 0 -111 -54t-38 -156
t38 -156t111 -54q102 0 122 105h204q-22 -119 -99 -189.5t-211 -74.5l-15 -24q47 4 82.5 -16t35.5 -63z" />
    <glyph glyph-name="Egrave" unicode="&#xc8;" horiz-adv-x="683" 
d="M427 758h-127l-128 164h207zM636 0h-575v714h565v-160h-359v-115h315v-160h-315v-119h369v-160z" />
    <glyph glyph-name="Eacute" unicode="&#xc9;" horiz-adv-x="683" 
d="M393 758h-127l48 164h207zM636 0h-575v714h565v-160h-359v-115h315v-160h-315v-119h369v-160z" />
    <glyph glyph-name="Ecircumflex" unicode="&#xca;" horiz-adv-x="683" 
d="M264 922h165l104 -164h-110l-76 59l-77 -59h-110zM636 0h-575v714h565v-160h-359v-115h315v-160h-315v-119h369v-160z" />
    <glyph glyph-name="Edieresis" unicode="&#xcb;" horiz-adv-x="683" 
d="M374 758v164h174v-164h-174zM145 758v164h174v-164h-174zM636 0h-575v714h565v-160h-359v-115h315v-160h-315v-119h369v-160z" />
    <glyph glyph-name="Igrave" unicode="&#xcc;" horiz-adv-x="333" 
d="M240 758h-127l-128 164h207zM61 0v714h211v-714h-211z" />
    <glyph glyph-name="Iacute" unicode="&#xcd;" horiz-adv-x="333" 
d="M226 758h-127l48 164h207zM61 0v714h211v-714h-211z" />
    <glyph glyph-name="Icircumflex" unicode="&#xce;" horiz-adv-x="333" 
d="M84 922h165l104 -164h-110l-76 59l-77 -59h-110zM61 0v714h211v-714h-211z" />
    <glyph glyph-name="Idieresis" unicode="&#xcf;" horiz-adv-x="333" 
d="M194 758v164h174v-164h-174zM-35 758v164h174v-164h-174zM61 0v714h211v-714h-211z" />
    <glyph glyph-name="Eth" unicode="&#xd0;" horiz-adv-x="802" 
d="M774 358q0 -162 -100.5 -260t-271.5 -98h-311v286h-60v151h60v277h311q171 0 271.5 -97.5t100.5 -258.5zM297 160h105q158 0 158 198q0 196 -158 196h-105v-117h80v-151h-80v-126z" />
    <glyph glyph-name="Ntilde" unicode="&#xd1;" horiz-adv-x="820" 
d="M345 813q-14 0 -24 -12.5t-11 -36.5h-103q0 83 30 133t78 50q33 0 83 -26.5t66 -26.5q13 0 23.5 12.5t11.5 36.5h103q0 -83 -30 -133t-78 -50q-34 0 -84 26.5t-65 26.5zM299 714l258 -398h2v398h200v-714h-195l-301 458h-2v-458h-200v714h238z" />
    <glyph glyph-name="Ograve" unicode="&#xd2;" horiz-adv-x="792" 
d="M467 758h-127l-128 164h207zM764 357q0 -164 -99 -266.5t-269 -102.5t-269 102.5t-99 266.5t99 266.5t269 102.5t269 -102.5t99 -266.5zM550 357q0 210 -154 210t-154 -210t154 -210t154 210z" />
    <glyph glyph-name="Oacute" unicode="&#xd3;" horiz-adv-x="792" 
d="M453 758h-127l48 164h207zM764 357q0 -164 -99 -266.5t-269 -102.5t-269 102.5t-99 266.5t99 266.5t269 102.5t269 -102.5t99 -266.5zM550 357q0 210 -154 210t-154 -210t154 -210t154 210z" />
    <glyph glyph-name="Ocircumflex" unicode="&#xd4;" horiz-adv-x="792" 
d="M314 922h165l104 -164h-110l-76 59l-77 -59h-110zM764 357q0 -164 -99 -266.5t-269 -102.5t-269 102.5t-99 266.5t99 266.5t269 102.5t269 -102.5t99 -266.5zM550 357q0 210 -154 210t-154 -210t154 -210t154 210z" />
    <glyph glyph-name="Otilde" unicode="&#xd5;" horiz-adv-x="792" 
d="M337 813q-14 0 -24 -12.5t-11 -36.5h-103q0 83 30 133t78 50q33 0 83 -26.5t66 -26.5q13 0 23.5 12.5t11.5 36.5h103q0 -83 -30 -133t-78 -50q-34 0 -84 26.5t-65 26.5zM764 357q0 -164 -99 -266.5t-269 -102.5t-269 102.5t-99 266.5t99 266.5t269 102.5t269 -102.5
t99 -266.5zM550 357q0 210 -154 210t-154 -210t154 -210t154 210z" />
    <glyph glyph-name="Odieresis" unicode="&#xd6;" horiz-adv-x="792" 
d="M424 758v164h174v-164h-174zM195 758v164h174v-164h-174zM764 357q0 -164 -99 -266.5t-269 -102.5t-269 102.5t-99 266.5t99 266.5t269 102.5t269 -102.5t99 -266.5zM550 357q0 210 -154 210t-154 -210t154 -210t154 210z" />
    <glyph glyph-name="multiply" unicode="&#xd7;" 
d="M486 80l-156 157l-158 -158l-96 97l157 157l-157 157l96 96l157 -157l157 157l97 -96l-157 -157l156 -157z" />
    <glyph glyph-name="Oslash" unicode="&#xd8;" horiz-adv-x="792" 
d="M396 -12q-116 0 -204 52l-61 -70l-82 65l63 72q-84 100 -84 250q0 164 99 266.5t269 102.5q122 0 211 -56l54 61l82 -64l-58 -66q79 -99 79 -244q0 -164 -99 -266.5t-269 -102.5zM242 357q0 -54 10 -91l238 270q-35 31 -94 31q-154 0 -154 -210zM550 357q0 43 -8 81
l-233 -265q35 -26 87 -26q154 0 154 210z" />
    <glyph glyph-name="Ugrave" unicode="&#xd9;" horiz-adv-x="774" 
d="M473 758h-127l-128 164h207zM719 283q0 -145 -86.5 -220t-245.5 -75q-158 0 -245 75.5t-87 220.5v430h211v-419q0 -68 26.5 -106.5t94.5 -38.5t94.5 38.5t26.5 106.5v419h211v-431z" />
    <glyph glyph-name="Uacute" unicode="&#xda;" horiz-adv-x="774" 
d="M439 758h-127l48 164h207zM719 283q0 -145 -86.5 -220t-245.5 -75q-158 0 -245 75.5t-87 220.5v430h211v-419q0 -68 26.5 -106.5t94.5 -38.5t94.5 38.5t26.5 106.5v419h211v-431z" />
    <glyph glyph-name="Ucircumflex" unicode="&#xdb;" horiz-adv-x="774" 
d="M305 922h165l104 -164h-110l-76 59l-77 -59h-110zM719 283q0 -145 -86.5 -220t-245.5 -75q-158 0 -245 75.5t-87 220.5v430h211v-419q0 -68 26.5 -106.5t94.5 -38.5t94.5 38.5t26.5 106.5v419h211v-431z" />
    <glyph glyph-name="Udieresis" unicode="&#xdc;" horiz-adv-x="774" 
d="M415 758v164h174v-164h-174zM186 758v164h174v-164h-174zM719 283q0 -145 -86.5 -220t-245.5 -75q-158 0 -245 75.5t-87 220.5v430h211v-419q0 -68 26.5 -106.5t94.5 -38.5t94.5 38.5t26.5 106.5v419h211v-431z" />
    <glyph glyph-name="Yacute" unicode="&#xdd;" horiz-adv-x="777" 
d="M456 758h-127l48 164h207zM494 0h-212v288l-282 426h235l156 -244h2l155 244h229l-283 -426v-288z" />
    <glyph glyph-name="Thorn" unicode="&#xde;" horiz-adv-x="716" 
d="M409 118h-142v-118h-206v714h206v-103h140q142 0 218 -63t76 -185q0 -120 -76 -182.5t-216 -62.5zM267 277h115q113 0 113 86q0 44 -26.5 66t-86.5 22h-115v-174z" />
    <glyph glyph-name="germandbls" unicode="&#xdf;" horiz-adv-x="667" 
d="M509 400q57 -21 93.5 -67.5t36.5 -115.5q0 -103 -68 -162.5t-180 -59.5q-38 0 -74 7v152q13 -2 42 -2q95 0 95 78t-109 78h-22v149h9q34 0 53.5 18.5t19.5 53.5q0 30 -18 49t-46 19q-38 0 -57.5 -24.5t-19.5 -66.5v-506h-204v493q0 118 76 186.5t204 68.5
q117 0 182 -55.5t65 -143.5q0 -51 -23 -91t-55 -58z" />
    <glyph glyph-name="agrave" unicode="&#xe0;" horiz-adv-x="611" 
d="M387 572h-138l-127 164h217zM373 0q-3 42 -3 71q-43 -83 -160 -83q-87 0 -135.5 41.5t-48.5 111.5q0 139 197 158l135 12v19q0 26 -15 41t-43 15q-27 0 -42 -14.5t-17 -38.5h-194q8 92 76 143.5t184 51.5q250 0 250 -227v-137q0 -91 8 -164h-192zM276 111q35 0 58.5 21.5
t23.5 59.5v19l-71 -9q-62 -7 -62 -45q0 -22 14 -34t37 -12z" />
    <glyph glyph-name="aacute" unicode="&#xe1;" horiz-adv-x="611" 
d="M354 572h-138l48 164h217zM373 0q-3 42 -3 71q-43 -83 -160 -83q-87 0 -135.5 41.5t-48.5 111.5q0 139 197 158l135 12v19q0 26 -15 41t-43 15q-27 0 -42 -14.5t-17 -38.5h-194q8 92 76 143.5t184 51.5q250 0 250 -227v-137q0 -91 8 -164h-192zM276 111q35 0 58.5 21.5
t23.5 59.5v19l-71 -9q-62 -7 -62 -45q0 -22 14 -34t37 -12z" />
    <glyph glyph-name="acircumflex" unicode="&#xe2;" horiz-adv-x="611" 
d="M219 736h165l104 -164h-110l-76 59l-77 -59h-110zM373 0q-3 42 -3 71q-43 -83 -160 -83q-87 0 -135.5 41.5t-48.5 111.5q0 139 197 158l135 12v19q0 26 -15 41t-43 15q-27 0 -42 -14.5t-17 -38.5h-194q8 92 76 143.5t184 51.5q250 0 250 -227v-137q0 -91 8 -164h-192z
M276 111q35 0 58.5 21.5t23.5 59.5v19l-71 -9q-62 -7 -62 -45q0 -22 14 -34t37 -12z" />
    <glyph glyph-name="atilde" unicode="&#xe3;" horiz-adv-x="611" 
d="M247 608q-14 0 -24 -12.5t-11 -36.5h-103q0 83 30 133t78 50q34 0 83.5 -26.5t65.5 -26.5q13 0 23.5 12.5t11.5 36.5h103q0 -83 -30 -133t-78 -50q-34 0 -84 26.5t-65 26.5zM373 0q-3 42 -3 71q-43 -83 -160 -83q-87 0 -135.5 41.5t-48.5 111.5q0 139 197 158l135 12v19
q0 26 -15 41t-43 15q-27 0 -42 -14.5t-17 -38.5h-194q8 92 76 143.5t184 51.5q250 0 250 -227v-137q0 -91 8 -164h-192zM276 111q35 0 58.5 21.5t23.5 59.5v19l-71 -9q-62 -7 -62 -45q0 -22 14 -34t37 -12z" />
    <glyph glyph-name="adieresis" unicode="&#xe4;" horiz-adv-x="611" 
d="M331 572v164h174v-164h-174zM102 572v164h174v-164h-174zM373 0q-3 42 -3 71q-43 -83 -160 -83q-87 0 -135.5 41.5t-48.5 111.5q0 139 197 158l135 12v19q0 26 -15 41t-43 15q-27 0 -42 -14.5t-17 -38.5h-194q8 92 76 143.5t184 51.5q250 0 250 -227v-137q0 -91 8 -164
h-192zM276 111q35 0 58.5 21.5t23.5 59.5v19l-71 -9q-62 -7 -62 -45q0 -22 14 -34t37 -12z" />
    <glyph glyph-name="aring" unicode="&#xe5;" horiz-adv-x="611" 
d="M177 685q0 53 38 91t91 38t90.5 -38t37.5 -91t-38 -90.5t-90 -37.5q-53 0 -91 37.5t-38 90.5zM358 685q0 22 -15.5 37t-36.5 15q-22 0 -37.5 -15t-15.5 -37q0 -21 15.5 -36.5t37.5 -15.5q21 0 36.5 15.5t15.5 36.5zM373 0q-3 42 -3 71q-43 -83 -160 -83
q-87 0 -135.5 41.5t-48.5 111.5q0 139 197 158l135 12v19q0 26 -15 41t-43 15q-27 0 -42 -14.5t-17 -38.5h-194q8 92 76 143.5t184 51.5q250 0 250 -227v-137q0 -91 8 -164h-192zM276 111q35 0 58.5 21.5t23.5 59.5v19l-71 -9q-62 -7 -62 -45q0 -22 14 -34t37 -12z" />
    <glyph glyph-name="ae" unicode="&#xe6;" horiz-adv-x="924" 
d="M894 176q-16 -86 -86 -137t-179 -51q-114 0 -196 77q-75 -77 -194 -77q-99 0 -156 41.5t-57 117.5q0 163 275 163h57v20q0 26 -15 41t-43 15q-27 0 -42 -14.5t-17 -38.5h-194q8 91 75 143t178 52q105 0 165 -51q73 51 164 51q126 0 196.5 -76t70.5 -188v-48h-354
q13 -87 87 -87q63 0 78 47h187zM629 390q-70 0 -86 -80h166q0 33 -21.5 56.5t-58.5 23.5zM279 121q33 0 56 18t23 54v23h-69q-31 0 -48 -12.5t-17 -35.5q0 -22 15 -34.5t40 -12.5z" />
    <glyph glyph-name="ccedilla" unicode="&#xe7;" horiz-adv-x="588" 
d="M433 -115q0 -46 -41.5 -71t-100.5 -25q-58 0 -101 18v74q62 -21 98 -21q43 0 43 25q0 19 -26.5 24.5t-48.5 -3.5l-29 26l38 59q-107 14 -172 84.5t-65 182.5q0 124 79.5 197t205.5 73q111 0 177.5 -57.5t76.5 -152.5h-193q-2 27 -18 46.5t-45 19.5q-38 0 -58 -33.5
t-20 -92.5q0 -60 20 -92.5t58 -32.5q29 0 45 19.5t18 46.5h193q-9 -91 -71.5 -148.5t-165.5 -62.5l-15 -24q47 4 82.5 -16t35.5 -63z" />
    <glyph glyph-name="egrave" unicode="&#xe8;" horiz-adv-x="605" 
d="M392 572h-138l-127 164h217zM575 176q-16 -86 -85.5 -137t-178.5 -51q-122 0 -202.5 73t-80.5 198q0 124 80.5 196.5t202.5 72.5q126 0 196 -75.5t70 -188.5v-48h-354q13 -87 88 -87q62 0 77 47h187zM311 390q-71 0 -86 -80h165q0 33 -21.5 56.5t-57.5 23.5z" />
    <glyph glyph-name="eacute" unicode="&#xe9;" horiz-adv-x="605" 
d="M373 572h-138l48 164h217zM575 176q-16 -86 -85.5 -137t-178.5 -51q-122 0 -202.5 73t-80.5 198q0 124 80.5 196.5t202.5 72.5q126 0 196 -75.5t70 -188.5v-48h-354q13 -87 88 -87q62 0 77 47h187zM311 390q-71 0 -86 -80h165q0 33 -21.5 56.5t-57.5 23.5z" />
    <glyph glyph-name="ecircumflex" unicode="&#xea;" horiz-adv-x="605" 
d="M232 736h165l104 -164h-110l-76 59l-77 -59h-110zM575 176q-16 -86 -85.5 -137t-178.5 -51q-122 0 -202.5 73t-80.5 198q0 124 80.5 196.5t202.5 72.5q126 0 196 -75.5t70 -188.5v-48h-354q13 -87 88 -87q62 0 77 47h187zM311 390q-71 0 -86 -80h165q0 33 -21.5 56.5
t-57.5 23.5z" />
    <glyph glyph-name="edieresis" unicode="&#xeb;" horiz-adv-x="605" 
d="M340 572v164h174v-164h-174zM111 572v164h174v-164h-174zM575 176q-16 -86 -85.5 -137t-178.5 -51q-122 0 -202.5 73t-80.5 198q0 124 80.5 196.5t202.5 72.5q126 0 196 -75.5t70 -188.5v-48h-354q13 -87 88 -87q62 0 77 47h187zM311 390q-71 0 -86 -80h165
q0 33 -21.5 56.5t-57.5 23.5z" />
    <glyph glyph-name="igrave" unicode="&#xec;" horiz-adv-x="324" 
d="M238 572h-138l-127 164h217zM60 516h204v-516h-204v516z" />
    <glyph glyph-name="iacute" unicode="&#xed;" horiz-adv-x="324" 
d="M237 572h-138l48 164h217zM60 516h204v-516h-204v516z" />
    <glyph glyph-name="icircumflex" unicode="&#xee;" horiz-adv-x="324" 
d="M80 736h165l104 -164h-110l-76 59l-77 -59h-110zM60 516h204v-516h-204v516z" />
    <glyph glyph-name="idieresis" unicode="&#xef;" horiz-adv-x="324" 
d="M190 572v164h174v-164h-174zM-39 572v164h174v-164h-174zM60 516h204v-516h-204v516z" />
    <glyph glyph-name="eth" unicode="&#xf0;" horiz-adv-x="630" 
d="M602 280q0 -139 -80.5 -215.5t-206.5 -76.5q-129 0 -208 72.5t-79 198.5q0 115 81 186.5t198 71.5q36 0 48 -6q-23 34 -65 76l-130 -44l-37 65l104 35q-58 47 -123 87v6h226q20 -12 58 -40l95 32l37 -64l-69 -23q151 -156 151 -361zM233 255q0 -124 82 -124t82 124
q0 123 -82 123t-82 -123z" />
    <glyph glyph-name="ntilde" unicode="&#xf1;" horiz-adv-x="665" 
d="M273 608q-14 0 -24 -12.5t-11 -36.5h-103q0 83 30 133t78 50q33 0 83 -26.5t66 -26.5q13 0 23.5 12.5t11.5 36.5h103q0 -83 -30 -133t-78 -50q-34 0 -84 26.5t-65 26.5zM262 516v-74q47 86 155 86q91 0 142.5 -52.5t51.5 -145.5v-330h-204v280q0 92 -70 92q-73 0 -73 -99
v-273h-204v516h202z" />
    <glyph glyph-name="ograve" unicode="&#xf2;" horiz-adv-x="630" 
d="M394 572h-138l-127 164h217zM602 258q0 -125 -79 -197.5t-208 -72.5t-208 72.5t-79 197.5t79 197.5t208 72.5t208 -72.5t79 -197.5zM233 258q0 -127 82 -127t82 127t-82 127t-82 -127z" />
    <glyph glyph-name="oacute" unicode="&#xf3;" horiz-adv-x="630" 
d="M375 572h-138l48 164h217zM602 258q0 -125 -79 -197.5t-208 -72.5t-208 72.5t-79 197.5t79 197.5t208 72.5t208 -72.5t79 -197.5zM233 258q0 -127 82 -127t82 127t-82 127t-82 -127z" />
    <glyph glyph-name="ocircumflex" unicode="&#xf4;" horiz-adv-x="630" 
d="M233 736h165l104 -164h-110l-76 59l-77 -59h-110zM602 258q0 -125 -79 -197.5t-208 -72.5t-208 72.5t-79 197.5t79 197.5t208 72.5t208 -72.5t79 -197.5zM233 258q0 -127 82 -127t82 127t-82 127t-82 -127z" />
    <glyph glyph-name="otilde" unicode="&#xf5;" horiz-adv-x="630" 
d="M256 608q-14 0 -24 -12.5t-11 -36.5h-103q0 83 30 133t78 50q34 0 84 -26.5t65 -26.5q13 0 23.5 12.5t11.5 36.5h103q0 -83 -30 -133t-78 -50q-33 0 -83 26.5t-66 26.5zM602 258q0 -125 -79 -197.5t-208 -72.5t-208 72.5t-79 197.5t79 197.5t208 72.5t208 -72.5
t79 -197.5zM233 258q0 -127 82 -127t82 127t-82 127t-82 -127z" />
    <glyph glyph-name="odieresis" unicode="&#xf6;" horiz-adv-x="630" 
d="M343 572v164h174v-164h-174zM114 572v164h174v-164h-174zM602 258q0 -125 -79 -197.5t-208 -72.5t-208 72.5t-79 197.5t79 197.5t208 72.5t208 -72.5t79 -197.5zM233 258q0 -127 82 -127t82 127t-82 127t-82 -127z" />
    <glyph glyph-name="divide" unicode="&#xf7;" 
d="M248 476v156h164v-156h-164zM59 262v140h541v-140h-541zM248 31v157h164v-157h-164z" />
    <glyph glyph-name="oslash" unicode="&#xf8;" horiz-adv-x="630" 
d="M315 -12q-95 0 -162 39l-60 -60l-64 67l53 53q-54 70 -54 171q0 125 79 197.5t208 72.5q96 0 168 -42l54 54l63 -68l-48 -48q50 -69 50 -166q0 -125 -79 -197.5t-208 -72.5zM223 258q0 -20 1 -29l146 145q-22 20 -55 20q-46 0 -69 -36t-23 -100zM407 258q0 14 -1 21
l-141 -141q21 -16 50 -16q46 0 69 36t23 100z" />
    <glyph glyph-name="ugrave" unicode="&#xf9;" horiz-adv-x="657" 
d="M407 572h-138l-127 164h217zM597 0h-202v74q-20 -38 -60 -62t-93 -24q-88 0 -138 52.5t-50 145.5v330h205v-283q0 -88 64 -88q31 0 50 24t19 74v273h205v-516z" />
    <glyph glyph-name="uacute" unicode="&#xfa;" horiz-adv-x="657" 
d="M384 572h-138l48 164h217zM597 0h-202v74q-20 -38 -60 -62t-93 -24q-88 0 -138 52.5t-50 145.5v330h205v-283q0 -88 64 -88q31 0 50 24t19 74v273h205v-516z" />
    <glyph glyph-name="ucircumflex" unicode="&#xfb;" horiz-adv-x="657" 
d="M244 736h165l104 -164h-110l-76 59l-77 -59h-110zM597 0h-202v74q-20 -38 -60 -62t-93 -24q-88 0 -138 52.5t-50 145.5v330h205v-283q0 -88 64 -88q31 0 50 24t19 74v273h205v-516z" />
    <glyph glyph-name="udieresis" unicode="&#xfc;" horiz-adv-x="657" 
d="M354 572v164h174v-164h-174zM125 572v164h174v-164h-174zM597 0h-202v74q-20 -38 -60 -62t-93 -24q-88 0 -138 52.5t-50 145.5v330h205v-283q0 -88 64 -88q31 0 50 24t19 74v273h205v-516z" />
    <glyph glyph-name="yacute" unicode="&#xfd;" horiz-adv-x="629" 
d="M389 572h-138l48 164h217zM198 9l-192 507h204l108 -335h2l105 335h198l-191 -514q-38 -101 -105 -144.5t-170 -43.5q-47 0 -77 5v145q13 -1 25 -1q32 0 46 2t26.5 12t20.5 32z" />
    <glyph glyph-name="thorn" unicode="&#xfe;" horiz-adv-x="665" 
d="M264 71v-249h-204v914h202v-291q19 38 60.5 60.5t91.5 22.5q103 0 163 -75.5t60 -194.5t-60 -194.5t-163 -75.5q-50 0 -90.5 22.5t-59.5 60.5zM261 271v-26q0 -54 22.5 -84t62.5 -30q87 0 87 127q0 61 -22.5 94t-64.5 33q-40 0 -62.5 -30t-22.5 -84z" />
    <glyph glyph-name="ydieresis" unicode="&#xff;" horiz-adv-x="629" 
d="M354 572v164h174v-164h-174zM125 572v164h174v-164h-174zM198 9l-192 507h204l108 -335h2l105 335h198l-191 -514q-38 -101 -105 -144.5t-170 -43.5q-47 0 -77 5v145q13 -1 25 -1q32 0 46 2t26.5 12t20.5 32z" />
    <glyph glyph-name="Amacron" unicode="&#x100;" horiz-adv-x="806" 
d="M212 768v124h382v-124h-382zM590 0l-48 133h-285l-50 -133h-205l282 714h237l283 -714h-214zM400 515l-84 -223h168l-81 223h-3z" />
    <glyph glyph-name="amacron" unicode="&#x101;" horiz-adv-x="611" 
d="M131 572v124h342v-124h-342zM373 0q-3 42 -3 71q-43 -83 -160 -83q-87 0 -135.5 41.5t-48.5 111.5q0 139 197 158l135 12v19q0 26 -15 41t-43 15q-27 0 -42 -14.5t-17 -38.5h-194q8 92 76 143.5t184 51.5q250 0 250 -227v-137q0 -91 8 -164h-192zM276 111q35 0 58.5 21.5
t23.5 59.5v19l-71 -9q-62 -7 -62 -45q0 -22 14 -34t37 -12z" />
    <glyph glyph-name="Abreve" unicode="&#x102;" horiz-adv-x="806" 
d="M403 756q-77 0 -120.5 48t-43.5 126h113q0 -28 13.5 -44.5t37.5 -16.5t37.5 17t13.5 44h113q0 -78 -44 -126t-120 -48zM590 0l-48 133h-285l-50 -133h-205l282 714h237l283 -714h-214zM400 515l-84 -223h168l-81 223h-3z" />
    <glyph glyph-name="abreve" unicode="&#x103;" horiz-adv-x="611" 
d="M301 562q-77 0 -120.5 48t-43.5 126h113q0 -28 13.5 -44.5t37.5 -16.5t37.5 17t13.5 44h113q0 -78 -44 -126t-120 -48zM373 0q-3 42 -3 71q-43 -83 -160 -83q-87 0 -135.5 41.5t-48.5 111.5q0 139 197 158l135 12v19q0 26 -15 41t-43 15q-27 0 -42 -14.5t-17 -38.5h-194
q8 92 76 143.5t184 51.5q250 0 250 -227v-137q0 -91 8 -164h-192zM276 111q35 0 58.5 21.5t23.5 59.5v19l-71 -9q-62 -7 -62 -45q0 -22 14 -34t37 -12z" />
    <glyph glyph-name="Aogonek" unicode="&#x104;" horiz-adv-x="806" 
d="M725 -176q-42 -14 -83 -14q-49 0 -79.5 24t-30.5 66q0 44 55 109l-45 124h-285l-50 -133h-205l282 714h237l283 -714h-124q-36 -45 -36 -65q0 -25 29 -25q21 0 52 7v-93zM400 515l-84 -223h168l-81 223h-3z" />
    <glyph glyph-name="aogonek" unicode="&#x105;" horiz-adv-x="611" 
d="M517 -176q-42 -14 -83 -14q-49 0 -79.5 24t-30.5 66q0 41 49 102q-3 41 -3 69q-43 -83 -160 -83q-87 0 -135.5 41.5t-48.5 111.5q0 139 197 158l135 12v19q0 26 -15 41t-43 15q-27 0 -42 -14.5t-17 -38.5h-194q8 92 76 143.5t184 51.5q250 0 250 -227v-137q0 -91 8 -164
h-93q-36 -45 -36 -65q0 -25 29 -25q21 0 52 7v-93zM276 111q35 0 58.5 21.5t23.5 59.5v19l-71 -9q-62 -7 -62 -45q0 -22 14 -34t37 -12z" />
    <glyph glyph-name="Cacute" unicode="&#x106;" horiz-adv-x="741" 
d="M450 758h-127l48 164h207zM242 357q0 -102 38 -156t111 -54q102 0 122 105h204q-23 -123 -104 -193.5t-222 -70.5q-166 0 -264.5 102.5t-98.5 266.5q0 163 98.5 266t264.5 103q141 0 222 -70.5t104 -193.5h-204q-20 105 -122 105q-73 0 -111 -54t-38 -156z" />
    <glyph glyph-name="cacute" unicode="&#x107;" horiz-adv-x="588" 
d="M373 572h-138l48 164h217zM28 258q0 124 79.5 197t205.5 73q111 0 177.5 -57.5t76.5 -152.5h-193q-2 27 -18 46.5t-45 19.5q-38 0 -58 -33.5t-20 -92.5q0 -60 20 -92.5t58 -32.5q29 0 45 19.5t18 46.5h193q-10 -95 -77 -153t-177 -58q-126 0 -205.5 72.5t-79.5 197.5z
" />
    <glyph glyph-name="Ccircumflex" unicode="&#x108;" horiz-adv-x="741" 
d="M311 922h165l104 -164h-110l-76 59l-77 -59h-110zM242 357q0 -102 38 -156t111 -54q102 0 122 105h204q-23 -123 -104 -193.5t-222 -70.5q-166 0 -264.5 102.5t-98.5 266.5q0 163 98.5 266t264.5 103q141 0 222 -70.5t104 -193.5h-204q-20 105 -122 105q-73 0 -111 -54
t-38 -156z" />
    <glyph glyph-name="ccircumflex" unicode="&#x109;" horiz-adv-x="588" 
d="M228 736h165l104 -164h-110l-76 59l-77 -59h-110zM28 258q0 124 79.5 197t205.5 73q111 0 177.5 -57.5t76.5 -152.5h-193q-2 27 -18 46.5t-45 19.5q-38 0 -58 -33.5t-20 -92.5q0 -60 20 -92.5t58 -32.5q29 0 45 19.5t18 46.5h193q-10 -95 -77 -153t-177 -58
q-126 0 -205.5 72.5t-79.5 197.5z" />
    <glyph glyph-name="Cdotaccent" unicode="&#x10a;" horiz-adv-x="741" 
d="M288 758v164h207v-164h-207zM242 357q0 -102 38 -156t111 -54q102 0 122 105h204q-23 -123 -104 -193.5t-222 -70.5q-166 0 -264.5 102.5t-98.5 266.5q0 163 98.5 266t264.5 103q141 0 222 -70.5t104 -193.5h-204q-20 105 -122 105q-73 0 -111 -54t-38 -156z" />
    <glyph glyph-name="cdotaccent" unicode="&#x10b;" horiz-adv-x="588" 
d="M207 572v164h207v-164h-207zM28 258q0 124 79.5 197t205.5 73q111 0 177.5 -57.5t76.5 -152.5h-193q-2 27 -18 46.5t-45 19.5q-38 0 -58 -33.5t-20 -92.5q0 -60 20 -92.5t58 -32.5q29 0 45 19.5t18 46.5h193q-10 -95 -77 -153t-177 -58q-126 0 -205.5 72.5t-79.5 197.5z
" />
    <glyph glyph-name="Ccaron" unicode="&#x10c;" horiz-adv-x="741" 
d="M476 758h-165l-104 164h110l77 -59l76 59h110zM242 357q0 -102 38 -156t111 -54q102 0 122 105h204q-23 -123 -104 -193.5t-222 -70.5q-166 0 -264.5 102.5t-98.5 266.5q0 163 98.5 266t264.5 103q141 0 222 -70.5t104 -193.5h-204q-20 105 -122 105q-73 0 -111 -54
t-38 -156z" />
    <glyph glyph-name="ccaron" unicode="&#x10d;" horiz-adv-x="588" 
d="M393 572h-165l-104 164h110l77 -59l76 59h110zM28 258q0 124 79.5 197t205.5 73q111 0 177.5 -57.5t76.5 -152.5h-193q-2 27 -18 46.5t-45 19.5q-38 0 -58 -33.5t-20 -92.5q0 -60 20 -92.5t58 -32.5q29 0 45 19.5t18 46.5h193q-10 -95 -77 -153t-177 -58
q-126 0 -205.5 72.5t-79.5 197.5z" />
    <glyph glyph-name="Dcaron" unicode="&#x10e;" horiz-adv-x="772" 
d="M449 758h-165l-104 164h110l77 -59l76 59h110zM372 714q171 0 271.5 -97.5t100.5 -258.5q0 -162 -100.5 -260t-271.5 -98h-311v714h311zM372 554h-105v-394h105q158 0 158 198q0 196 -158 196z" />
    <glyph glyph-name="dcaron" unicode="&#x10f;" horiz-adv-x="695" 
d="M403 0v71q-19 -38 -60.5 -60.5t-91.5 -22.5q-103 0 -163 75.5t-60 194.5t60 194.5t163 75.5q50 0 90.5 -22.5t59.5 -60.5v291h204v-736h-202zM771 540h-96l20 196h199zM404 245v26q0 54 -22.5 84t-62.5 30q-42 0 -64.5 -33t-22.5 -94q0 -127 87 -127q40 0 62.5 30
t22.5 84z" />
    <glyph glyph-name="Dcroat" unicode="&#x110;" horiz-adv-x="802" 
d="M774 358q0 -162 -100.5 -260t-271.5 -98h-311v286h-60v151h60v277h311q171 0 271.5 -97.5t100.5 -258.5zM297 160h105q158 0 158 198q0 196 -158 196h-105v-117h80v-151h-80v-126z" />
    <glyph glyph-name="dcroat" unicode="&#x111;" horiz-adv-x="685" 
d="M403 71q-19 -38 -60.5 -60.5t-91.5 -22.5q-103 0 -163 75.5t-60 194.5t60 194.5t163 75.5q50 0 90.5 -22.5t59.5 -60.5v115h-101v111h101v65h204v-65h60v-111h-60v-560h-202v71zM404 245v26q0 54 -22.5 84t-62.5 30q-42 0 -64.5 -33t-22.5 -94q0 -127 87 -127
q40 0 62.5 30t22.5 84z" />
    <glyph glyph-name="Emacron" unicode="&#x112;" horiz-adv-x="683" 
d="M156 768v124h382v-124h-382zM636 0h-575v714h565v-160h-359v-115h315v-160h-315v-119h369v-160z" />
    <glyph glyph-name="emacron" unicode="&#x113;" horiz-adv-x="605" 
d="M140 572v124h342v-124h-342zM575 176q-16 -86 -85.5 -137t-178.5 -51q-122 0 -202.5 73t-80.5 198q0 124 80.5 196.5t202.5 72.5q126 0 196 -75.5t70 -188.5v-48h-354q13 -87 88 -87q62 0 77 47h187zM311 390q-71 0 -86 -80h165q0 33 -21.5 56.5t-57.5 23.5z" />
    <glyph glyph-name="Ebreve" unicode="&#x114;" horiz-adv-x="683" 
d="M346 756q-77 0 -120.5 48t-43.5 126h113q0 -28 13.5 -44.5t37.5 -16.5t37.5 17t13.5 44h113q0 -78 -44 -126t-120 -48zM636 0h-575v714h565v-160h-359v-115h315v-160h-315v-119h369v-160z" />
    <glyph glyph-name="ebreve" unicode="&#x115;" horiz-adv-x="605" 
d="M306 562q-77 0 -120.5 48t-43.5 126h113q0 -28 13.5 -44.5t37.5 -16.5t37.5 17t13.5 44h113q0 -78 -44 -126t-120 -48zM575 176q-16 -86 -85.5 -137t-178.5 -51q-122 0 -202.5 73t-80.5 198q0 124 80.5 196.5t202.5 72.5q126 0 196 -75.5t70 -188.5v-48h-354
q13 -87 88 -87q62 0 77 47h187zM311 390q-71 0 -86 -80h165q0 33 -21.5 56.5t-57.5 23.5z" />
    <glyph glyph-name="Edotaccent" unicode="&#x116;" horiz-adv-x="683" 
d="M243 758v164h207v-164h-207zM636 0h-575v714h565v-160h-359v-115h315v-160h-315v-119h369v-160z" />
    <glyph glyph-name="edotaccent" unicode="&#x117;" horiz-adv-x="605" 
d="M208 572v164h207v-164h-207zM575 176q-16 -86 -85.5 -137t-178.5 -51q-122 0 -202.5 73t-80.5 198q0 124 80.5 196.5t202.5 72.5q126 0 196 -75.5t70 -188.5v-48h-354q13 -87 88 -87q62 0 77 47h187zM311 390q-71 0 -86 -80h165q0 33 -21.5 56.5t-57.5 23.5z" />
    <glyph glyph-name="Eogonek" unicode="&#x118;" horiz-adv-x="683" 
d="M600 -176q-42 -14 -83 -14q-49 0 -79.5 24t-30.5 66q0 41 47 100h-393v714h565v-160h-359v-115h315v-160h-315v-119h369v-160h-81q-36 -45 -36 -65q0 -25 29 -25q20 0 52 7v-93z" />
    <glyph glyph-name="eogonek" unicode="&#x119;" horiz-adv-x="605" 
d="M490 -176q-42 -14 -83 -14q-49 0 -79.5 24t-30.5 66q0 38 38 89q-8 -1 -24 -1q-122 0 -202.5 73t-80.5 198q0 124 80.5 196.5t202.5 72.5q126 0 196 -75.5t70 -188.5v-48h-354q13 -87 88 -87q62 0 77 47h187q-8 -47 -36 -82.5t-75 -70.5q-56 -42 -56 -83q0 -30 34 -30
q19 0 48 7v-93zM311 390q-71 0 -86 -80h165q0 33 -21.5 56.5t-57.5 23.5z" />
    <glyph glyph-name="Ecaron" unicode="&#x11a;" horiz-adv-x="683" 
d="M429 758h-165l-104 164h110l77 -59l76 59h110zM636 0h-575v714h565v-160h-359v-115h315v-160h-315v-119h369v-160z" />
    <glyph glyph-name="ecaron" unicode="&#x11b;" horiz-adv-x="605" 
d="M397 572h-165l-104 164h110l77 -59l76 59h110zM575 176q-16 -86 -85.5 -137t-178.5 -51q-122 0 -202.5 73t-80.5 198q0 124 80.5 196.5t202.5 72.5q126 0 196 -75.5t70 -188.5v-48h-354q13 -87 88 -87q62 0 77 47h187zM311 390q-71 0 -86 -80h165q0 33 -21.5 56.5
t-57.5 23.5z" />
    <glyph glyph-name="Gcircumflex" unicode="&#x11c;" horiz-adv-x="791" 
d="M319 922h165l104 -164h-110l-76 59l-77 -59h-110zM28 358q0 163 100 265.5t270 102.5q140 0 222.5 -68.5t109.5 -190.5h-208q-22 100 -124 100q-76 0 -116 -54t-40 -155q0 -102 40.5 -156.5t117.5 -54.5q56 0 88.5 25t32.5 59v3h-86v144h300v-378h-162l-10 72
q-18 -38 -71.5 -61t-111.5 -23q-162 0 -257 103t-95 267z" />
    <glyph glyph-name="gcircumflex" unicode="&#x11d;" horiz-adv-x="670" 
d="M264 736h165l104 -164h-110l-76 59l-77 -59h-110zM406 38v70q-19 -39 -59 -63t-91 -24q-105 0 -165.5 71t-60.5 183t60.5 182.5t165.5 70.5q51 0 92 -23.5t60 -61.5v73h202v-445q0 -129 -77.5 -195t-214.5 -66q-121 0 -194.5 48t-87.5 130h201q15 -43 80 -43q89 0 89 93z
M409 267v17q0 48 -23.5 75.5t-63.5 27.5q-42 0 -64.5 -29t-22.5 -83q0 -55 22.5 -84.5t64.5 -29.5q40 0 63.5 28t23.5 78z" />
    <glyph glyph-name="Gbreve" unicode="&#x11e;" horiz-adv-x="791" 
d="M402 756q-77 0 -120.5 48t-43.5 126h113q0 -28 13.5 -44.5t37.5 -16.5t37.5 17t13.5 44h113q0 -78 -44 -126t-120 -48zM28 358q0 163 100 265.5t270 102.5q140 0 222.5 -68.5t109.5 -190.5h-208q-22 100 -124 100q-76 0 -116 -54t-40 -155q0 -102 40.5 -156.5
t117.5 -54.5q56 0 88.5 25t32.5 59v3h-86v144h300v-378h-162l-10 72q-18 -38 -71.5 -61t-111.5 -23q-162 0 -257 103t-95 267z" />
    <glyph glyph-name="gbreve" unicode="&#x11f;" horiz-adv-x="670" 
d="M346 562q-77 0 -120.5 48t-43.5 126h113q0 -28 13.5 -44.5t37.5 -16.5t37.5 17t13.5 44h113q0 -78 -44 -126t-120 -48zM406 38v70q-19 -39 -59 -63t-91 -24q-105 0 -165.5 71t-60.5 183t60.5 182.5t165.5 70.5q51 0 92 -23.5t60 -61.5v73h202v-445q0 -129 -77.5 -195
t-214.5 -66q-121 0 -194.5 48t-87.5 130h201q15 -43 80 -43q89 0 89 93zM409 267v17q0 48 -23.5 75.5t-63.5 27.5q-42 0 -64.5 -29t-22.5 -83q0 -55 22.5 -84.5t64.5 -29.5q40 0 63.5 28t23.5 78z" />
    <glyph glyph-name="Gdotaccent" unicode="&#x120;" horiz-adv-x="791" 
d="M299 758v164h207v-164h-207zM28 358q0 163 100 265.5t270 102.5q140 0 222.5 -68.5t109.5 -190.5h-208q-22 100 -124 100q-76 0 -116 -54t-40 -155q0 -102 40.5 -156.5t117.5 -54.5q56 0 88.5 25t32.5 59v3h-86v144h300v-378h-162l-10 72q-18 -38 -71.5 -61t-111.5 -23
q-162 0 -257 103t-95 267z" />
    <glyph glyph-name="gdotaccent" unicode="&#x121;" horiz-adv-x="670" 
d="M233 572v164h207v-164h-207zM406 38v70q-19 -39 -59 -63t-91 -24q-105 0 -165.5 71t-60.5 183t60.5 182.5t165.5 70.5q51 0 92 -23.5t60 -61.5v73h202v-445q0 -129 -77.5 -195t-214.5 -66q-121 0 -194.5 48t-87.5 130h201q15 -43 80 -43q89 0 89 93zM409 267v17
q0 48 -23.5 75.5t-63.5 27.5q-42 0 -64.5 -29t-22.5 -83q0 -55 22.5 -84.5t64.5 -29.5q40 0 63.5 28t23.5 78z" />
    <glyph glyph-name="uni0122" unicode="&#x122;" horiz-adv-x="791" 
d="M28 358q0 163 100 265.5t270 102.5q140 0 222.5 -68.5t109.5 -190.5h-208q-22 100 -124 100q-76 0 -116 -54t-40 -155q0 -102 40.5 -156.5t117.5 -54.5q56 0 88.5 25t32.5 59v3h-86v144h300v-378h-162l-10 72q-18 -38 -71.5 -61t-111.5 -23q-162 0 -257 103t-95 267z
M315 -143v102h177v-50q0 -82 -44 -119t-133 -37v64q60 0 60 40h-60z" />
    <glyph glyph-name="uni0123" unicode="&#x123;" horiz-adv-x="670" 
d="M425 674v-102h-177v50q0 82 44 119t133 37v-64q-60 0 -60 -40h60zM406 38v70q-19 -39 -59 -63t-91 -24q-105 0 -165.5 71t-60.5 183t60.5 182.5t165.5 70.5q51 0 92 -23.5t60 -61.5v73h202v-445q0 -129 -77.5 -195t-214.5 -66q-121 0 -194.5 48t-87.5 130h201
q15 -43 80 -43q89 0 89 93zM409 267v17q0 48 -23.5 75.5t-63.5 27.5q-42 0 -64.5 -29t-22.5 -83q0 -55 22.5 -84.5t64.5 -29.5q40 0 63.5 28t23.5 78z" />
    <glyph glyph-name="Hcircumflex" unicode="&#x124;" horiz-adv-x="822" 
d="M329 922h165l104 -164h-110l-76 59l-77 -59h-110zM61 0v714h211v-273h278v273h211v-714h-211v282h-278v-282h-211z" />
    <glyph glyph-name="hcircumflex" unicode="&#x125;" horiz-adv-x="665" 
d="M248 942h165l104 -164h-110l-76 59l-77 -59h-110zM264 442q47 86 153 86q91 0 142.5 -52.5t51.5 -145.5v-330h-204v280q0 92 -70 92q-73 0 -73 -99v-273h-204v736h204v-294z" />
    <glyph glyph-name="Hbar" unicode="&#x126;" horiz-adv-x="882" 
d="M302 192v-192h-211v446h-60v151h60v117h211v-117h278v117h211v-117h60v-151h-60v-446h-211v192h-278zM302 351h278v95h-278v-95z" />
    <glyph glyph-name="hbar" unicode="&#x127;" horiz-adv-x="685" 
d="M284 273v-273h-204v560h-60v111h60v65h204v-65h101v-111h-101v-118q47 86 153 86q91 0 142.5 -52.5t51.5 -145.5v-330h-204v280q0 92 -70 92q-73 0 -73 -99z" />
    <glyph glyph-name="Itilde" unicode="&#x128;" horiz-adv-x="333" 
d="M107 813q-14 0 -24 -12.5t-11 -36.5h-103q0 83 30 133t78 50q33 0 83 -26.5t66 -26.5q13 0 23.5 12.5t11.5 36.5h103q0 -83 -30 -133t-78 -50q-34 0 -83.5 26.5t-65.5 26.5zM61 0v714h211v-714h-211z" />
    <glyph glyph-name="itilde" unicode="&#x129;" horiz-adv-x="324" 
d="M123 608q-14 0 -24 -12.5t-11 -36.5h-103q0 83 30 133t78 50q26 0 45.5 -13t34 -26.5t29.5 -13.5q13 0 23.5 12.5t11.5 36.5h103q0 -83 -30 -133t-78 -50q-26 0 -45.5 13.5t-34 26.5t-29.5 13zM60 516h204v-516h-204v516z" />
    <glyph glyph-name="Imacron" unicode="&#x12a;" horiz-adv-x="333" 
d="M-25 768v124h382v-124h-382zM61 0v714h211v-714h-211z" />
    <glyph glyph-name="imacron" unicode="&#x12b;" horiz-adv-x="324" 
d="M14 572v124h302v-124h-302zM60 516h204v-516h-204v516z" />
    <glyph glyph-name="Ibreve" unicode="&#x12c;" horiz-adv-x="333" 
d="M166 756q-77 0 -120.5 48t-43.5 126h113q0 -28 13.5 -44.5t37.5 -16.5t37.5 17t13.5 44h113q0 -78 -44 -126t-120 -48zM61 0v714h211v-714h-211z" />
    <glyph glyph-name="ibreve" unicode="&#x12d;" horiz-adv-x="324" 
d="M162 562q-77 0 -120.5 48t-43.5 126h113q0 -28 13.5 -44.5t37.5 -16.5t37.5 17t13.5 44h113q0 -78 -44 -126t-120 -48zM60 516h204v-516h-204v516z" />
    <glyph glyph-name="Iogonek" unicode="&#x12e;" horiz-adv-x="333" 
d="M270 -176q-42 -14 -83 -14q-49 0 -79.5 24t-30.5 66q0 45 50 100h-66v714h211v-714q-83 -11 -83 -62q0 -12 8.5 -20t22.5 -8q18 0 50 7v-93z" />
    <glyph glyph-name="iogonek" unicode="&#x12f;" horiz-adv-x="324" 
d="M59 572v164h206v-164h-206zM69 -100q0 45 50 100h-59v516h204v-516q-83 -11 -83 -62q0 -12 8.5 -20t22.5 -8q18 0 50 7v-93q-42 -14 -83 -14q-49 0 -79.5 24t-30.5 66z" />
    <glyph glyph-name="Idotaccent" unicode="&#x130;" horiz-adv-x="333" 
d="M62 758v164h207v-164h-207zM61 0v714h211v-714h-211z" />
    <glyph glyph-name="dotlessi" unicode="&#x131;" horiz-adv-x="324" 
d="M60 516h204v-516h-204v516z" />
    <glyph glyph-name="Jcircumflex" unicode="&#x134;" horiz-adv-x="666" 
d="M422 922h165l104 -164h-110l-76 59l-77 -59h-110zM400 256v458h211v-450q0 -127 -82 -201.5t-225 -74.5q-134 0 -211.5 69.5t-77.5 190.5h198q0 -54 24 -82t67 -28q96 0 96 118z" />
    <glyph glyph-name="jcircumflex" unicode="&#x135;" horiz-adv-x="324" 
d="M77 736h165l104 -164h-110l-76 59l-77 -59h-110zM57 -185q-46 0 -85 7v144q20 -3 37 -3q27 0 39 11.5t12 38.5v503h204v-515q0 -92 -53.5 -139t-153.5 -47z" />
    <glyph glyph-name="uni0136" unicode="&#x136;" horiz-adv-x="789" 
d="M546 0l-193 260l-81 -91v-169h-211v714h211v-310l254 310h234l-270 -302l311 -412h-255zM320 -143v102h177v-50q0 -82 -44 -119t-133 -37v64q60 0 60 40h-60z" />
    <glyph glyph-name="uni0137" unicode="&#x137;" horiz-adv-x="666" 
d="M440 0l-128 179l-48 -49v-130h-204v736h204v-399l163 179h225l-202 -208l215 -308h-225zM274 -143v102h177v-50q0 -82 -44 -119t-133 -37v64q60 0 60 40h-60z" />
    <glyph glyph-name="kgreenlandic" unicode="&#x138;" horiz-adv-x="666" 
d="M440 0l-128 179l-48 -49v-130h-204v516h204v-179l163 179h225l-202 -208l215 -308h-225z" />
    <glyph glyph-name="Lacute" unicode="&#x139;" horiz-adv-x="654" 
d="M223 758h-127l48 164h207zM61 0v714h211v-554h342v-160h-553z" />
    <glyph glyph-name="lacute" unicode="&#x13a;" horiz-adv-x="324" 
d="M218 778h-127l48 164h207zM264 0h-204v736h204v-736z" />
    <glyph glyph-name="uni013B" unicode="&#x13b;" horiz-adv-x="654" 
d="M61 0v714h211v-554h342v-160h-553zM255 -143v102h177v-50q0 -82 -44 -119t-133 -37v64q60 0 60 40h-60z" />
    <glyph glyph-name="uni013C" unicode="&#x13c;" horiz-adv-x="324" 
d="M264 0h-204v736h204v-736zM75 -143v102h177v-50q0 -82 -44 -119t-133 -37v64q60 0 60 40h-60z" />
    <glyph glyph-name="Lcaron" unicode="&#x13d;" horiz-adv-x="654" 
d="M61 0v714h211v-554h342v-160h-553zM455 518h-96l20 196h199z" />
    <glyph glyph-name="lcaron" unicode="&#x13e;" horiz-adv-x="354" 
d="M264 0h-204v736h204v-736zM430 540h-96l20 196h199z" />
    <glyph glyph-name="Ldot" unicode="&#x13f;" horiz-adv-x="654" 
d="M61 0v714h211v-554h342v-160h-553zM383 300v164h207v-164h-207z" />
    <glyph glyph-name="ldot" unicode="&#x140;" horiz-adv-x="586" 
d="M264 0h-204v736h204v-736zM350 280v164h207v-164h-207z" />
    <glyph glyph-name="Lslash" unicode="&#x141;" horiz-adv-x="632" 
d="M644 160v-160h-553v242l-60 -22v150l60 22v322h211v-254l154 56v-150l-154 -56v-150h342z" />
    <glyph glyph-name="lslash" unicode="&#x142;" horiz-adv-x="384" 
d="M374 392l-80 -31v-361h-204v290l-80 -31v134l80 31v312h204v-241l80 31v-134z" />
    <glyph glyph-name="Nacute" unicode="&#x143;" horiz-adv-x="820" 
d="M450 758h-127l48 164h207zM299 714l258 -398h2v398h200v-714h-195l-301 458h-2v-458h-200v714h238z" />
    <glyph glyph-name="nacute" unicode="&#x144;" horiz-adv-x="665" 
d="M394 572h-138l48 164h217zM262 516v-74q47 86 155 86q91 0 142.5 -52.5t51.5 -145.5v-330h-204v280q0 92 -70 92q-73 0 -73 -99v-273h-204v516h202z" />
    <glyph glyph-name="uni0145" unicode="&#x145;" horiz-adv-x="820" 
d="M299 714l258 -398h2v398h200v-714h-195l-301 458h-2v-458h-200v714h238zM322 -143v102h177v-50q0 -82 -44 -119t-133 -37v64q60 0 60 40h-60z" />
    <glyph glyph-name="uni0146" unicode="&#x146;" horiz-adv-x="665" 
d="M262 516v-74q47 86 155 86q91 0 142.5 -52.5t51.5 -145.5v-330h-204v280q0 92 -70 92q-73 0 -73 -99v-273h-204v516h202zM250 -143v102h177v-50q0 -82 -44 -119t-133 -37v64q60 0 60 40h-60z" />
    <glyph glyph-name="Ncaron" unicode="&#x147;" horiz-adv-x="820" 
d="M486 758h-165l-104 164h110l77 -59l76 59h110zM299 714l258 -398h2v398h200v-714h-195l-301 458h-2v-458h-200v714h238z" />
    <glyph glyph-name="ncaron" unicode="&#x148;" horiz-adv-x="665" 
d="M414 572h-165l-104 164h110l77 -59l76 59h110zM262 516v-74q47 86 155 86q91 0 142.5 -52.5t51.5 -145.5v-330h-204v280q0 92 -70 92q-73 0 -73 -99v-273h-204v516h202z" />
    <glyph glyph-name="Eng" unicode="&#x14a;" horiz-adv-x="820" 
d="M552 -185q-46 0 -85 7v144q19 -3 37 -3q55 0 55 50v4l-296 441h-2v-458h-200v714h238l258 -398h2v398h200v-713q0 -92 -53.5 -139t-153.5 -47z" />
    <glyph glyph-name="eng" unicode="&#x14b;" horiz-adv-x="665" 
d="M404 -185q-46 0 -85 7v144q19 -3 37 -3q28 0 39.5 11.5t11.5 38.5v267q0 92 -70 92q-73 0 -73 -99v-273h-204v516h202v-74q47 86 155 86q91 0 142.5 -52.5t51.5 -145.5v-329q0 -92 -53.5 -139t-153.5 -47z" />
    <glyph glyph-name="Omacron" unicode="&#x14c;" horiz-adv-x="792" 
d="M205 768v124h382v-124h-382zM764 357q0 -164 -99 -266.5t-269 -102.5t-269 102.5t-99 266.5t99 266.5t269 102.5t269 -102.5t99 -266.5zM550 357q0 210 -154 210t-154 -210t154 -210t154 210z" />
    <glyph glyph-name="omacron" unicode="&#x14d;" horiz-adv-x="630" 
d="M144 572v124h342v-124h-342zM602 258q0 -125 -79 -197.5t-208 -72.5t-208 72.5t-79 197.5t79 197.5t208 72.5t208 -72.5t79 -197.5zM233 258q0 -127 82 -127t82 127t-82 127t-82 -127z" />
    <glyph glyph-name="Obreve" unicode="&#x14e;" horiz-adv-x="792" 
d="M396 756q-77 0 -120.5 48t-43.5 126h113q0 -28 13.5 -44.5t37.5 -16.5t37.5 17t13.5 44h113q0 -78 -44 -126t-120 -48zM764 357q0 -164 -99 -266.5t-269 -102.5t-269 102.5t-99 266.5t99 266.5t269 102.5t269 -102.5t99 -266.5zM550 357q0 210 -154 210t-154 -210
t154 -210t154 210z" />
    <glyph glyph-name="obreve" unicode="&#x14f;" horiz-adv-x="630" 
d="M315 562q-77 0 -120.5 48t-43.5 126h113q0 -28 13.5 -44.5t37.5 -16.5t37.5 17t13.5 44h113q0 -78 -44 -126t-120 -48zM602 258q0 -125 -79 -197.5t-208 -72.5t-208 72.5t-79 197.5t79 197.5t208 72.5t208 -72.5t79 -197.5zM233 258q0 -127 82 -127t82 127t-82 127
t-82 -127z" />
    <glyph glyph-name="Ohungarumlaut" unicode="&#x150;" horiz-adv-x="792" 
d="M443 758l50 164h185l-119 -164h-116zM225 758l50 164h185l-118 -164h-117zM764 357q0 -164 -99 -266.5t-269 -102.5t-269 102.5t-99 266.5t99 266.5t269 102.5t269 -102.5t99 -266.5zM550 357q0 210 -154 210t-154 -210t154 -210t154 210z" />
    <glyph glyph-name="ohungarumlaut" unicode="&#x151;" horiz-adv-x="630" 
d="M353 572l50 164h185l-119 -164h-116zM135 572l50 164h185l-118 -164h-117zM602 258q0 -125 -79 -197.5t-208 -72.5t-208 72.5t-79 197.5t79 197.5t208 72.5t208 -72.5t79 -197.5zM233 258q0 -127 82 -127t82 127t-82 127t-82 -127z" />
    <glyph glyph-name="OE" unicode="&#x152;" horiz-adv-x="1127" 
d="M400 0q-171 0 -271.5 97.5t-100.5 258.5q0 162 100.5 260t271.5 98h670v-160h-359v-115h315v-160h-315v-119h369v-160h-680zM400 160h105v394h-105q-158 0 -158 -198q0 -196 158 -196z" />
    <glyph glyph-name="oe" unicode="&#x153;" horiz-adv-x="979" 
d="M949 176q-16 -86 -85.5 -137t-178.5 -51q-108 0 -182 72q-75 -72 -188 -72q-129 0 -208 72.5t-79 197.5t79 197.5t208 72.5q113 0 188 -72q74 72 182 72q126 0 196 -75.5t70 -188.5v-48h-354q13 -87 88 -87q62 0 77 47h187zM685 390q-71 0 -86 -80h165q0 33 -21.5 56.5
t-57.5 23.5zM233 258q0 -127 82 -127t82 127t-82 127t-82 -127z" />
    <glyph glyph-name="Racute" unicode="&#x154;" horiz-adv-x="744" 
d="M400 758h-127l48 164h207zM267 0h-206v714h357q137 0 213 -62.5t76 -180.5q0 -145 -130 -209l150 -262h-225l-126 228h-109v-228zM267 388h121q61 0 87 20t26 63t-26 63t-87 20h-121v-166z" />
    <glyph glyph-name="racute" unicode="&#x155;" horiz-adv-x="474" 
d="M324 572h-138l48 164h217zM448 517v-187q-27 4 -59 4q-58 0 -91.5 -30t-33.5 -90v-214h-204v516h202v-105q41 112 150 112q24 0 36 -6z" />
    <glyph glyph-name="uni0156" unicode="&#x156;" horiz-adv-x="744" 
d="M267 0h-206v714h357q137 0 213 -62.5t76 -180.5q0 -145 -130 -209l150 -262h-225l-126 228h-109v-228zM267 388h121q61 0 87 20t26 63t-26 63t-87 20h-121v-166zM302 -143v102h177v-50q0 -82 -44 -119t-133 -37v64q60 0 60 40h-60z" />
    <glyph glyph-name="uni0157" unicode="&#x157;" horiz-adv-x="474" 
d="M448 517v-187q-27 4 -59 4q-58 0 -91.5 -30t-33.5 -90v-214h-204v516h202v-105q41 112 150 112q24 0 36 -6zM73 -143v102h177v-50q0 -82 -44 -119t-133 -37v64q60 0 60 40h-60z" />
    <glyph glyph-name="Rcaron" unicode="&#x158;" horiz-adv-x="744" 
d="M436 758h-165l-104 164h110l77 -59l76 59h110zM267 0h-206v714h357q137 0 213 -62.5t76 -180.5q0 -145 -130 -209l150 -262h-225l-126 228h-109v-228zM267 388h121q61 0 87 20t26 63t-26 63t-87 20h-121v-166z" />
    <glyph glyph-name="rcaron" unicode="&#x159;" horiz-adv-x="474" 
d="M354 572h-165l-104 164h110l77 -59l76 59h110zM448 517v-187q-27 4 -59 4q-58 0 -91.5 -30t-33.5 -90v-214h-204v516h202v-105q41 112 150 112q24 0 36 -6z" />
    <glyph glyph-name="Sacute" unicode="&#x15a;" horiz-adv-x="685" 
d="M410 758h-127l48 164h207zM13 223h203q4 -46 42 -67t91 -21q46 0 77.5 17t31.5 50q0 28 -21 41t-76 22l-122 21q-205 34 -205 209q0 105 85.5 168t215.5 63q145 0 225.5 -60.5t92.5 -168.5h-198q-3 40 -34.5 60.5t-83.5 20.5q-43 0 -70 -18t-27 -48q0 -28 20.5 -39.5
t72.5 -20.5l134 -24q198 -35 198 -211q0 -106 -87.5 -167.5t-220.5 -61.5q-150 0 -241 60t-103 175z" />
    <glyph glyph-name="sacute" unicode="&#x15b;" horiz-adv-x="567" 
d="M345 572h-138l48 164h217zM22 163h187q8 -48 80 -48q58 0 58 32q0 16 -13 22t-50 12l-92 15q-156 26 -156 150q0 82 69.5 132t171.5 50q113 0 177.5 -47t73.5 -126h-178q-3 21 -23 34.5t-48 13.5q-24 0 -39 -9t-15 -24t12.5 -21t46.5 -12l98 -16q155 -25 155 -155
q0 -83 -70 -130.5t-175 -47.5q-116 0 -187.5 45t-82.5 130z" />
    <glyph glyph-name="Scircumflex" unicode="&#x15c;" horiz-adv-x="685" 
d="M271 922h165l104 -164h-110l-76 59l-77 -59h-110zM13 223h203q4 -46 42 -67t91 -21q46 0 77.5 17t31.5 50q0 28 -21 41t-76 22l-122 21q-205 34 -205 209q0 105 85.5 168t215.5 63q145 0 225.5 -60.5t92.5 -168.5h-198q-3 40 -34.5 60.5t-83.5 20.5q-43 0 -70 -18
t-27 -48q0 -28 20.5 -39.5t72.5 -20.5l134 -24q198 -35 198 -211q0 -106 -87.5 -167.5t-220.5 -61.5q-150 0 -241 60t-103 175z" />
    <glyph glyph-name="scircumflex" unicode="&#x15d;" horiz-adv-x="567" 
d="M204 736h165l104 -164h-110l-76 59l-77 -59h-110zM22 163h187q8 -48 80 -48q58 0 58 32q0 16 -13 22t-50 12l-92 15q-156 26 -156 150q0 82 69.5 132t171.5 50q113 0 177.5 -47t73.5 -126h-178q-3 21 -23 34.5t-48 13.5q-24 0 -39 -9t-15 -24t12.5 -21t46.5 -12l98 -16
q155 -25 155 -155q0 -83 -70 -130.5t-175 -47.5q-116 0 -187.5 45t-82.5 130z" />
    <glyph glyph-name="uni015E" unicode="&#x15e;" horiz-adv-x="685" 
d="M480 -115q0 -46 -41.5 -71t-100.5 -25q-58 0 -101 18v74q62 -21 98 -21q43 0 43 25q0 19 -26.5 24.5t-48.5 -3.5l-29 26l37 58q-130 8 -208.5 67.5t-89.5 165.5h203q4 -46 42 -67t91 -21q46 0 77.5 17t31.5 50q0 28 -21 41t-76 22l-122 21q-205 34 -205 209
q0 105 85.5 168t215.5 63q145 0 225.5 -60.5t92.5 -168.5h-198q-3 40 -34.5 60.5t-83.5 20.5q-43 0 -70 -18t-27 -48q0 -28 20.5 -39.5t72.5 -20.5l134 -24q198 -35 198 -211q0 -101 -81 -162.5t-207 -66.5l-15 -24q47 4 82.5 -16t35.5 -63z" />
    <glyph glyph-name="uni015F" unicode="&#x15f;" horiz-adv-x="567" 
d="M415 -115q0 -46 -41.5 -71t-100.5 -25q-58 0 -101 18v74q62 -21 98 -21q43 0 43 25q0 19 -26.5 24.5t-48.5 -3.5l-29 26l37 58q-97 8 -155.5 52t-68.5 121h187q8 -48 80 -48q58 0 58 32q0 16 -13 22t-50 12l-92 15q-156 26 -156 150q0 82 69.5 132t171.5 50
q113 0 177.5 -47t73.5 -126h-178q-3 21 -23 34.5t-48 13.5q-24 0 -39 -9t-15 -24t12.5 -21t46.5 -12l98 -16q155 -25 155 -155q0 -78 -63.5 -125.5t-161.5 -52.5l-15 -24q47 4 82.5 -16t35.5 -63z" />
    <glyph glyph-name="Scaron" unicode="&#x160;" horiz-adv-x="685" 
d="M436 758h-165l-104 164h110l77 -59l76 59h110zM13 223h203q4 -46 42 -67t91 -21q46 0 77.5 17t31.5 50q0 28 -21 41t-76 22l-122 21q-205 34 -205 209q0 105 85.5 168t215.5 63q145 0 225.5 -60.5t92.5 -168.5h-198q-3 40 -34.5 60.5t-83.5 20.5q-43 0 -70 -18t-27 -48
q0 -28 20.5 -39.5t72.5 -20.5l134 -24q198 -35 198 -211q0 -106 -87.5 -167.5t-220.5 -61.5q-150 0 -241 60t-103 175z" />
    <glyph glyph-name="scaron" unicode="&#x161;" horiz-adv-x="567" 
d="M369 572h-165l-104 164h110l77 -59l76 59h110zM22 163h187q8 -48 80 -48q58 0 58 32q0 16 -13 22t-50 12l-92 15q-156 26 -156 150q0 82 69.5 132t171.5 50q113 0 177.5 -47t73.5 -126h-178q-3 21 -23 34.5t-48 13.5q-24 0 -39 -9t-15 -24t12.5 -21t46.5 -12l98 -16
q155 -25 155 -155q0 -83 -70 -130.5t-175 -47.5q-116 0 -187.5 45t-82.5 130z" />
    <glyph glyph-name="Tcommaaccent" unicode="&#x162;" horiz-adv-x="757" 
d="M497 -115q0 -46 -41.5 -71t-100.5 -25q-58 0 -101 18v74q62 -21 98 -21q43 0 43 25q0 19 -26.5 24.5t-48.5 -3.5l-29 26l43 68h-61v554h-239v160h689v-160h-239v-554h-83l-22 -36q47 4 82.5 -16t35.5 -63z" />
    <glyph glyph-name="tcommaaccent" unicode="&#x163;" horiz-adv-x="424" 
d="M345 -115q0 -46 -41.5 -71t-100.5 -25q-58 0 -101 18v74q62 -21 98 -21q43 0 43 25q0 19 -26.5 24.5t-48.5 -3.5l-29 26l44 69q-107 26 -107 154v220h-65v141h65v126h201v-126h102v-141h-103v-173q0 -28 12.5 -39t41.5 -11t58 5v-149q-65 -16 -123 -16h-20l-18 -28
q47 4 82.5 -16t35.5 -63z" />
    <glyph glyph-name="Tcaron" unicode="&#x164;" horiz-adv-x="757" 
d="M461 758h-165l-104 164h110l77 -59l76 59h110zM273 0v554h-239v160h689v-160h-239v-554h-211z" />
    <glyph glyph-name="tcaron" unicode="&#x165;" horiz-adv-x="424" 
d="M401 560h-96l20 196h199zM388 157v-149q-65 -16 -123 -16q-98 0 -143.5 38.5t-45.5 124.5v220h-65v141h65v126h201v-126h102v-141h-103v-173q0 -28 12.5 -39t41.5 -11t58 5z" />
    <glyph glyph-name="Tbar" unicode="&#x166;" horiz-adv-x="757" 
d="M579 286h-95v-286h-211v286h-95v151h95v117h-239v160h689v-160h-239v-117h95v-151z" />
    <glyph glyph-name="tbar" unicode="&#x167;" horiz-adv-x="456" 
d="M405 8q-64 -16 -122 -16q-99 0 -144.5 38.5t-45.5 124.5v59h-65v124h65v50h-65v128h65v126h202v-126h102v-128h-104v-50h104v-124h-104v-12q0 -28 13 -39t42 -11q30 0 57 5v-149z" />
    <glyph glyph-name="Utilde" unicode="&#x168;" horiz-adv-x="774" 
d="M328 813q-14 0 -24 -12.5t-11 -36.5h-103q0 83 30 133t78 50q34 0 84 -26.5t65 -26.5q13 0 23.5 12.5t11.5 36.5h103q0 -83 -30 -133t-78 -50q-33 0 -83 26.5t-66 26.5zM719 283q0 -145 -86.5 -220t-245.5 -75q-158 0 -245 75.5t-87 220.5v430h211v-419
q0 -68 26.5 -106.5t94.5 -38.5t94.5 38.5t26.5 106.5v419h211v-431z" />
    <glyph glyph-name="utilde" unicode="&#x169;" horiz-adv-x="657" 
d="M267 608q-14 0 -24 -12.5t-11 -36.5h-103q0 83 30 133t78 50q33 0 83 -26.5t66 -26.5q13 0 23.5 12.5t11.5 36.5h103q0 -83 -30 -133t-78 -50q-34 0 -83.5 26.5t-65.5 26.5zM597 0h-202v74q-20 -38 -60 -62t-93 -24q-88 0 -138 52.5t-50 145.5v330h205v-283q0 -88 64 -88
q31 0 50 24t19 74v273h205v-516z" />
    <glyph glyph-name="Umacron" unicode="&#x16a;" horiz-adv-x="774" 
d="M196 768v124h382v-124h-382zM719 283q0 -145 -86.5 -220t-245.5 -75q-158 0 -245 75.5t-87 220.5v430h211v-419q0 -68 26.5 -106.5t94.5 -38.5t94.5 38.5t26.5 106.5v419h211v-431z" />
    <glyph glyph-name="umacron" unicode="&#x16b;" horiz-adv-x="657" 
d="M159 572v124h342v-124h-342zM597 0h-202v74q-20 -38 -60 -62t-93 -24q-88 0 -138 52.5t-50 145.5v330h205v-283q0 -88 64 -88q31 0 50 24t19 74v273h205v-516z" />
    <glyph glyph-name="Ubreve" unicode="&#x16c;" horiz-adv-x="774" 
d="M387 756q-77 0 -120.5 48t-43.5 126h113q0 -28 13.5 -44.5t37.5 -16.5t37.5 17t13.5 44h113q0 -78 -44 -126t-120 -48zM719 283q0 -145 -86.5 -220t-245.5 -75q-158 0 -245 75.5t-87 220.5v430h211v-419q0 -68 26.5 -106.5t94.5 -38.5t94.5 38.5t26.5 106.5v419h211v-431
z" />
    <glyph glyph-name="ubreve" unicode="&#x16d;" horiz-adv-x="657" 
d="M331 562q-77 0 -120.5 48t-43.5 126h113q0 -28 13.5 -44.5t37.5 -16.5t37.5 17t13.5 44h113q0 -78 -44 -126t-120 -48zM597 0h-202v74q-20 -38 -60 -62t-93 -24q-88 0 -138 52.5t-50 145.5v330h205v-283q0 -88 64 -88q31 0 50 24t19 74v273h205v-516z" />
    <glyph glyph-name="Uring" unicode="&#x16e;" horiz-adv-x="774" 
d="M387 722q-58 0 -99 41t-41 98q0 58 41 99.5t99 41.5t99 -41.5t41 -99.5q0 -57 -41 -98t-99 -41zM387 918q-23 0 -40 -16.5t-17 -40.5q0 -23 17 -39.5t40 -16.5t40 16.5t17 39.5q0 24 -17 40.5t-40 16.5zM719 283q0 -145 -86.5 -220t-245.5 -75q-158 0 -245 75.5
t-87 220.5v430h211v-419q0 -68 26.5 -106.5t94.5 -38.5t94.5 38.5t26.5 106.5v419h211v-431z" />
    <glyph glyph-name="uring" unicode="&#x16f;" horiz-adv-x="657" 
d="M199 685q0 53 38 91t91 38t90.5 -38t37.5 -91t-38 -90.5t-90 -37.5q-53 0 -91 37.5t-38 90.5zM380 685q0 22 -15.5 37t-36.5 15q-22 0 -37.5 -15t-15.5 -37q0 -21 15.5 -36.5t37.5 -15.5q21 0 36.5 15.5t15.5 36.5zM597 0h-202v74q-20 -38 -60 -62t-93 -24
q-88 0 -138 52.5t-50 145.5v330h205v-283q0 -88 64 -88q31 0 50 24t19 74v273h205v-516z" />
    <glyph glyph-name="Uhungarumlaut" unicode="&#x170;" horiz-adv-x="774" 
d="M430 758l50 164h185l-119 -164h-116zM212 758l50 164h185l-118 -164h-117zM719 283q0 -145 -86.5 -220t-245.5 -75q-158 0 -245 75.5t-87 220.5v430h211v-419q0 -68 26.5 -106.5t94.5 -38.5t94.5 38.5t26.5 106.5v419h211v-431z" />
    <glyph glyph-name="uhungarumlaut" unicode="&#x171;" horiz-adv-x="657" 
d="M359 572l50 164h185l-119 -164h-116zM141 572l50 164h185l-118 -164h-117zM597 0h-202v74q-20 -38 -60 -62t-93 -24q-88 0 -138 52.5t-50 145.5v330h205v-283q0 -88 64 -88q31 0 50 24t19 74v273h205v-516z" />
    <glyph glyph-name="Uogonek" unicode="&#x172;" horiz-adv-x="774" 
d="M600 -176q-42 -14 -83 -14q-49 0 -79.5 24t-30.5 66q0 41 39 91q-28 -3 -59 -3q-158 0 -245 75.5t-87 220.5v430h211v-419q0 -68 26.5 -106.5t94.5 -38.5t94.5 38.5t26.5 106.5v419h211v-431q0 -188 -144 -258q-56 -41 -56 -88q0 -12 8 -19.5t21 -7.5q20 0 52 7v-93z" />
    <glyph glyph-name="uogonek" unicode="&#x173;" horiz-adv-x="657" 
d="M535 -176q-42 -14 -83 -14q-49 0 -79.5 24t-30.5 66t53 107v67q-20 -38 -60 -62t-93 -24q-88 0 -138 52.5t-50 145.5v330h205v-283q0 -88 64 -88q31 0 50 24t19 74v273h205v-516h-107q-36 -45 -36 -65q0 -25 29 -25q21 0 52 7v-93z" />
    <glyph glyph-name="Wcircumflex" unicode="&#x174;" horiz-adv-x="1050" 
d="M443 922h165l104 -164h-110l-76 59l-77 -59h-110zM630 0l-105 469h-2l-103 -469h-227l-191 714h215l106 -463h3l102 463h204l102 -463h2l107 463h205l-192 -714h-226z" />
    <glyph glyph-name="wcircumflex" unicode="&#x175;" horiz-adv-x="893" 
d="M364 736h165l104 -164h-110l-76 59l-77 -59h-110zM538 516l70 -315h2l79 315h198l-162 -516h-203l-74 299h-2l-75 -299h-203l-162 516h203l78 -315h3l69 315h179z" />
    <glyph glyph-name="Ycircumflex" unicode="&#x176;" horiz-adv-x="777" 
d="M306 922h165l104 -164h-110l-76 59l-77 -59h-110zM494 0h-212v288l-282 426h235l156 -244h2l155 244h229l-283 -426v-288z" />
    <glyph glyph-name="ycircumflex" unicode="&#x177;" horiz-adv-x="629" 
d="M246 736h165l104 -164h-110l-76 59l-77 -59h-110zM198 9l-192 507h204l108 -335h2l105 335h198l-191 -514q-38 -101 -105 -144.5t-170 -43.5q-47 0 -77 5v145q13 -1 25 -1q32 0 46 2t26.5 12t20.5 32z" />
    <glyph glyph-name="Ydieresis" unicode="&#x178;" horiz-adv-x="777" 
d="M416 758v164h174v-164h-174zM187 758v164h174v-164h-174zM494 0h-212v288l-282 426h235l156 -244h2l155 244h229l-283 -426v-288z" />
    <glyph glyph-name="Zacute" unicode="&#x179;" horiz-adv-x="699" 
d="M395 758h-127l48 164h207zM654 560l-362 -400h372v-160h-628v148l364 406h-354v160h608v-154z" />
    <glyph glyph-name="zacute" unicode="&#x17a;" horiz-adv-x="560" 
d="M333 572h-138l48 164h217zM513 380l-228 -234h238v-146h-484v132l227 239h-223v145h470v-136z" />
    <glyph glyph-name="Zdotaccent" unicode="&#x17b;" horiz-adv-x="699" 
d="M245 758v164h207v-164h-207zM654 560l-362 -400h372v-160h-628v148l364 406h-354v160h608v-154z" />
    <glyph glyph-name="zdotaccent" unicode="&#x17c;" horiz-adv-x="560" 
d="M177 572v164h207v-164h-207zM513 380l-228 -234h238v-146h-484v132l227 239h-223v145h470v-136z" />
    <glyph glyph-name="Zcaron" unicode="&#x17d;" horiz-adv-x="699" 
d="M441 758h-165l-104 164h110l77 -59l76 59h110zM654 560l-362 -400h372v-160h-628v148l364 406h-354v160h608v-154z" />
    <glyph glyph-name="zcaron" unicode="&#x17e;" horiz-adv-x="560" 
d="M363 572h-165l-104 164h110l77 -59l76 59h110zM513 380l-228 -234h238v-146h-484v132l227 239h-223v145h470v-136z" />
    <glyph glyph-name="uni0192" unicode="&#x192;" horiz-adv-x="515" 
d="M426 251h-118l-62 -360h-196l64 360h-71v154h99l24 136q19 107 83 157t159 50q51 0 82 -12v-182q-25 8 -53 8q-39 0 -60 -18t-29 -65l-13 -74h91v-154z" />
    <glyph glyph-name="AEacute" unicode="&#x1fc;" horiz-adv-x="1155" 
d="M821 758h-127l48 164h207zM533 0v144h-242l-81 -144h-210l404 714h694v-160h-359v-115h315v-160h-315v-119h369v-160h-575zM533 577l-153 -273h153v273z" />
    <glyph glyph-name="aeacute" unicode="&#x1fd;" horiz-adv-x="924" 
d="M529 572h-138l48 164h217zM894 176q-16 -86 -86 -137t-179 -51q-114 0 -196 77q-75 -77 -194 -77q-99 0 -156 41.5t-57 117.5q0 163 275 163h57v20q0 26 -15 41t-43 15q-27 0 -42 -14.5t-17 -38.5h-194q8 91 75 143t178 52q105 0 165 -51q73 51 164 51q126 0 196.5 -76
t70.5 -188v-48h-354q13 -87 87 -87q63 0 78 47h187zM629 390q-70 0 -86 -80h166q0 33 -21.5 56.5t-58.5 23.5zM279 121q33 0 56 18t23 54v23h-69q-31 0 -48 -12.5t-17 -35.5q0 -22 15 -34.5t40 -12.5z" />
    <glyph glyph-name="Oslashacute" unicode="&#x1fe;" horiz-adv-x="792" 
d="M456 758h-127l48 164h207zM396 -12q-116 0 -204 52l-61 -70l-82 65l63 72q-84 100 -84 250q0 164 99 266.5t269 102.5q122 0 211 -56l54 61l82 -64l-58 -66q79 -99 79 -244q0 -164 -99 -266.5t-269 -102.5zM242 357q0 -54 10 -91l238 270q-35 31 -94 31q-154 0 -154 -210
zM550 357q0 43 -8 81l-233 -265q35 -26 87 -26q154 0 154 210z" />
    <glyph glyph-name="oslashacute" unicode="&#x1ff;" horiz-adv-x="630" 
d="M375 572h-138l48 164h217zM315 -12q-95 0 -162 39l-60 -60l-64 67l53 53q-54 70 -54 171q0 125 79 197.5t208 72.5q96 0 168 -42l54 54l63 -68l-48 -48q50 -69 50 -166q0 -125 -79 -197.5t-208 -72.5zM223 258q0 -20 1 -29l146 145q-22 20 -55 20q-46 0 -69 -36t-23 -100
zM407 258q0 14 -1 21l-141 -141q21 -16 50 -16q46 0 69 36t23 100z" />
    <glyph glyph-name="uni0218" unicode="&#x218;" horiz-adv-x="685" 
d="M13 223h203q4 -46 42 -67t91 -21q46 0 77.5 17t31.5 50q0 28 -21 41t-76 22l-122 21q-205 34 -205 209q0 105 85.5 168t215.5 63q145 0 225.5 -60.5t92.5 -168.5h-198q-3 40 -34.5 60.5t-83.5 20.5q-43 0 -70 -18t-27 -48q0 -28 20.5 -39.5t72.5 -20.5l134 -24
q198 -35 198 -211q0 -106 -87.5 -167.5t-220.5 -61.5q-150 0 -241 60t-103 175zM266 -143v102h177v-50q0 -82 -44 -119t-133 -37v64q60 0 60 40h-60z" />
    <glyph glyph-name="uni0219" unicode="&#x219;" horiz-adv-x="567" 
d="M22 163h187q8 -48 80 -48q58 0 58 32q0 16 -13 22t-50 12l-92 15q-156 26 -156 150q0 82 69.5 132t171.5 50q113 0 177.5 -47t73.5 -126h-178q-3 21 -23 34.5t-48 13.5q-24 0 -39 -9t-15 -24t12.5 -21t46.5 -12l98 -16q155 -25 155 -155q0 -83 -70 -130.5t-175 -47.5
q-116 0 -187.5 45t-82.5 130zM211 -143v102h177v-50q0 -82 -44 -119t-133 -37v64q60 0 60 40h-60z" />
    <glyph glyph-name="uni021A" unicode="&#x21a;" horiz-adv-x="757" 
d="M273 0v554h-239v160h689v-160h-239v-554h-211zM299 -143v102h177v-50q0 -82 -44 -119t-133 -37v64q60 0 60 40h-60z" />
    <glyph glyph-name="uni021B" unicode="&#x21b;" horiz-adv-x="424" 
d="M388 157v-149q-65 -16 -123 -16q-98 0 -143.5 38.5t-45.5 124.5v220h-65v141h65v126h201v-126h102v-141h-103v-173q0 -28 12.5 -39t41.5 -11t58 5zM141 -143v102h177v-50q0 -82 -44 -119t-133 -37v64q60 0 60 40h-60z" />
    <glyph glyph-name="uni0237" unicode="&#x237;" horiz-adv-x="324" 
d="M57 -185q-46 0 -85 7v144q20 -3 37 -3q27 0 39 11.5t12 38.5v503h204v-515q0 -92 -53.5 -139t-153.5 -47z" />
    <glyph glyph-name="circumflex" unicode="&#x2c6;" horiz-adv-x="563" 
d="M199 736h165l104 -164h-110l-76 59l-77 -59h-110z" />
    <glyph glyph-name="caron" unicode="&#x2c7;" horiz-adv-x="563" 
d="M364 572h-165l-104 164h110l77 -59l76 59h110z" />
    <glyph glyph-name="breve" unicode="&#x2d8;" horiz-adv-x="563" 
d="M272 562q-77 0 -120.5 48t-43.5 126h113q0 -28 13.5 -44.5t37.5 -16.5t37.5 17t13.5 44h113q0 -78 -44 -126t-120 -48z" />
    <glyph glyph-name="dotaccent" unicode="&#x2d9;" horiz-adv-x="563" 
d="M178 572v164h207v-164h-207z" />
    <glyph glyph-name="ring" unicode="&#x2da;" horiz-adv-x="563" 
d="M154 685q0 53 38 91t91 38t90.5 -38t37.5 -91t-37.5 -90.5t-90.5 -37.5t-91 37.5t-38 90.5zM335 685q0 22 -15.5 37t-36.5 15q-22 0 -37.5 -15t-15.5 -37q0 -21 15.5 -36.5t37.5 -15.5q21 0 36.5 15.5t15.5 36.5z" />
    <glyph glyph-name="ogonek" unicode="&#x2db;" horiz-adv-x="563" 
d="M205 -100q0 29 17.5 57.5t52.5 69.5h100q-3 -4 -8 -10q-31 -39 -40.5 -53.5t-9.5 -28.5q0 -25 29 -25q20 0 52 7v-93q-42 -14 -83 -14q-49 0 -79.5 24t-30.5 66z" />
    <glyph glyph-name="tilde" unicode="&#x2dc;" horiz-adv-x="563" 
d="M233 608q-14 0 -24 -12.5t-11 -36.5h-103q0 83 30 133t78 50q33 0 83 -26.5t66 -26.5q13 0 23.5 12.5t11.5 36.5h103q0 -83 -30 -133t-78 -50q-34 0 -84 26.5t-65 26.5z" />
    <glyph glyph-name="hungarumlaut" unicode="&#x2dd;" horiz-adv-x="563" 
d="M273 572l50 164h185l-119 -164h-116zM55 572l50 164h185l-118 -164h-117z" />
    <glyph glyph-name="Wgrave" unicode="&#x1e80;" horiz-adv-x="1050" 
d="M594 758h-127l-128 164h207zM630 0l-105 469h-2l-103 -469h-227l-191 714h215l106 -463h3l102 463h204l102 -463h2l107 463h205l-192 -714h-226z" />
    <glyph glyph-name="wgrave" unicode="&#x1e81;" horiz-adv-x="893" 
d="M519 572h-138l-127 164h217zM538 516l70 -315h2l79 315h198l-162 -516h-203l-74 299h-2l-75 -299h-203l-162 516h203l78 -315h3l69 315h179z" />
    <glyph glyph-name="Wacute" unicode="&#x1e82;" horiz-adv-x="1050" 
d="M602 758h-127l48 164h207zM630 0l-105 469h-2l-103 -469h-227l-191 714h215l106 -463h3l102 463h204l102 -463h2l107 463h205l-192 -714h-226z" />
    <glyph glyph-name="wacute" unicode="&#x1e83;" horiz-adv-x="893" 
d="M520 572h-138l48 164h217zM538 516l70 -315h2l79 315h198l-162 -516h-203l-74 299h-2l-75 -299h-203l-162 516h203l78 -315h3l69 315h179z" />
    <glyph glyph-name="Wdieresis" unicode="&#x1e84;" horiz-adv-x="1050" 
d="M553 758v164h174v-164h-174zM324 758v164h174v-164h-174zM630 0l-105 469h-2l-103 -469h-227l-191 714h215l106 -463h3l102 463h204l102 -463h2l107 463h205l-192 -714h-226z" />
    <glyph glyph-name="wdieresis" unicode="&#x1e85;" horiz-adv-x="893" 
d="M474 572v164h174v-164h-174zM245 572v164h174v-164h-174zM538 516l70 -315h2l79 315h198l-162 -516h-203l-74 299h-2l-75 -299h-203l-162 516h203l78 -315h3l69 315h179z" />
    <glyph glyph-name="Ygrave" unicode="&#x1ef2;" horiz-adv-x="777" 
d="M470 758h-127l-128 164h207zM494 0h-212v288l-282 426h235l156 -244h2l155 244h229l-283 -426v-288z" />
    <glyph glyph-name="ygrave" unicode="&#x1ef3;" horiz-adv-x="629" 
d="M402 572h-138l-127 164h217zM198 9l-192 507h204l108 -335h2l105 335h198l-191 -514q-38 -101 -105 -144.5t-170 -43.5q-47 0 -77 5v145q13 -1 25 -1q32 0 46 2t26.5 12t20.5 32z" />
    <glyph glyph-name="endash" unicode="&#x2013;" horiz-adv-x="677" 
d="M87 220v142h503v-142h-503z" />
    <glyph glyph-name="emdash" unicode="&#x2014;" horiz-adv-x="1003" 
d="M87 220v142h829v-142h-829z" />
    <glyph glyph-name="quoteleft" unicode="&#x2018;" horiz-adv-x="364" 
d="M289 556v-187h-217v193q0 94 58.5 140t161.5 46v-100q-51 -1 -78 -18t-27 -66v-8h102z" />
    <glyph glyph-name="quoteright" unicode="&#x2019;" horiz-adv-x="364" 
d="M75 549v187h217v-193q0 -94 -58.5 -140t-161.5 -46v100q51 1 78 18t27 66v8h-102z" />
    <glyph glyph-name="quotesinglbase" unicode="&#x201a;" horiz-adv-x="364" 
d="M75 15v187h217v-193q0 -94 -58.5 -140t-161.5 -46v100q51 1 78 18t27 66v8h-102z" />
    <glyph glyph-name="quotedblleft" unicode="&#x201c;" horiz-adv-x="636" 
d="M561 556v-187h-217v193q0 94 58.5 140t161.5 46v-100q-51 -1 -78 -18t-27 -66v-8h102zM289 556v-187h-217v193q0 94 58.5 140t161.5 46v-100q-51 -1 -78 -18t-27 -66v-8h102z" />
    <glyph glyph-name="quotedblright" unicode="&#x201d;" horiz-adv-x="636" 
d="M75 549v187h217v-193q0 -94 -58.5 -140t-161.5 -46v100q51 1 78 18t27 66v8h-102zM347 549v187h217v-193q0 -94 -58.5 -140t-161.5 -46v100q51 1 78 18t27 66v8h-102z" />
    <glyph glyph-name="quotedblbase" unicode="&#x201e;" horiz-adv-x="636" 
d="M75 15v187h217v-193q0 -94 -58.5 -140t-161.5 -46v100q51 1 78 18t27 66v8h-102zM347 15v187h217v-193q0 -94 -58.5 -140t-161.5 -46v100q51 1 78 18t27 66v8h-102z" />
    <glyph glyph-name="dagger" unicode="&#x2020;" horiz-adv-x="417" 
d="M385 518h-122v-197h-109v197h-121v105h121v103h109v-103h122v-105z" />
    <glyph glyph-name="daggerdbl" unicode="&#x2021;" horiz-adv-x="417" 
d="M385 392h-122v-71h-109v71h-121v100h121v64h-121v100h121v70h109v-70h122v-100h-122v-64h122v-100z" />
    <glyph glyph-name="bullet" unicode="&#x2022;" horiz-adv-x="554" 
d="M87 314q0 77 56.5 132.5t134.5 55.5t133.5 -55t55.5 -133t-55.5 -134t-133.5 -56t-134.5 56t-56.5 134z" />
    <glyph glyph-name="ellipsis" unicode="&#x2026;" horiz-adv-x="961" 
d="M672 0v217h217v-217h-217zM372 0v217h217v-217h-217zM72 0v217h217v-217h-217z" />
    <glyph glyph-name="guilsinglleft" unicode="&#x2039;" horiz-adv-x="373" 
d="M329 42h-138l-147 217l147 218h138l-110 -218z" />
    <glyph glyph-name="guilsinglright" unicode="&#x203a;" horiz-adv-x="373" 
d="M182 42h-138l110 217l-110 218h138l147 -218z" />
    <glyph glyph-name="fraction" unicode="&#x2044;" horiz-adv-x="184" 
d="M-109 -12h-114l515 739h115z" />
    <glyph glyph-name="uni2070" unicode="&#x2070;" horiz-adv-x="448" 
d="M225 315q-87 0 -139 57t-52 146q0 90 52 147t139 57q86 0 137.5 -57t51.5 -147q0 -89 -51.5 -146t-137.5 -57zM225 408q59 0 59 110q0 111 -59 111q-60 0 -60 -111q0 -110 60 -110z" />
    <glyph glyph-name="uni2074" unicode="&#x2074;" horiz-adv-x="437" 
d="M338 714v-234h71v-85h-71v-72h-117v72h-194v85l181 234h130zM221 602l-92 -122h92v122z" />
    <glyph glyph-name="uni2075" unicode="&#x2075;" horiz-adv-x="401" 
d="M201 503q-28 0 -39 -20h-117l23 231h270v-97h-181l-6 -54q31 25 81 25q60 0 97.5 -36t37.5 -97q0 -60 -45 -100t-120 -40q-80 0 -124.5 36t-49.5 96h131q2 -17 13 -28.5t28 -11.5q20 0 31 13t11 34q0 49 -41 49z" />
    <glyph glyph-name="uni2076" unicode="&#x2076;" horiz-adv-x="405" 
d="M211 628q-26 0 -43 -21t-17 -49q29 25 78 25q62 0 103 -37t41 -94q0 -59 -45 -98t-118 -39q-80 0 -128.5 52.5t-48.5 143.5q0 96 50.5 153.5t131.5 57.5q62 0 103.5 -34t48.5 -85h-116q-10 25 -40 25zM209 403q20 0 33 13.5t13 34.5t-13 34.5t-33 13.5q-23 0 -36 -13.5
t-13 -34.5t13 -34.5t36 -13.5z" />
    <glyph glyph-name="uni2077" unicode="&#x2077;" horiz-adv-x="372" 
d="M221 618h-189v96h310v-103q-62 -77 -84 -139t-23 -149h-132q2 147 118 295z" />
    <glyph glyph-name="uni2078" unicode="&#x2078;" horiz-adv-x="407" 
d="M203 315q-78 0 -124.5 30.5t-46.5 85.5q0 33 21 59t48 32q-23 12 -38 34t-15 49q0 55 43.5 86t111.5 31q69 0 112.5 -31t43.5 -86q0 -54 -52 -83q25 -7 46.5 -33t21.5 -58q0 -55 -47 -85.5t-125 -30.5zM203 637q-43 0 -43 -37t43 -37q45 0 45 37t-45 37zM203 480
q-52 0 -52 -40q0 -38 52 -38q54 0 54 38q0 40 -54 40z" />
    <glyph glyph-name="uni2079" unicode="&#x2079;" horiz-adv-x="405" 
d="M195 408q25 0 42.5 21t17.5 50q-30 -26 -79 -26q-61 0 -102 37.5t-41 95.5t45.5 97t118.5 39q79 0 127.5 -52.5t48.5 -143.5q0 -95 -50.5 -153t-132.5 -58q-62 0 -102.5 33.5t-49.5 84.5h117q11 -25 40 -25zM197 633q-20 0 -33.5 -13t-13.5 -34q0 -22 13 -35t34 -13
q22 0 35.5 13t13.5 35q0 21 -13.5 34t-35.5 13z" />
    <glyph glyph-name="uni2080" unicode="&#x2080;" horiz-adv-x="448" 
d="M225 -147q-87 0 -139 57t-52 146q0 90 52 147t139 57q86 0 137.5 -57t51.5 -147q0 -89 -51.5 -146t-137.5 -57zM225 -54q59 0 59 110q0 111 -59 111q-60 0 -60 -111q0 -110 60 -110z" />
    <glyph glyph-name="uni2081" unicode="&#x2081;" horiz-adv-x="367" 
d="M332 -58v-82h-294v82h90v174h-91v78q63 0 85 12.5t29 44.5h96v-309h85z" />
    <glyph glyph-name="uni2082" unicode="&#x2082;" horiz-adv-x="391" 
d="M358 131q0 -47 -28.5 -74t-93.5 -57q-60 -28 -67 -48h186v-92h-323v42q0 56 35 93.5t91 69.5q62 33 72 45q8 10 8 23q0 33 -37 33q-20 0 -32.5 -14t-12.5 -35h-123q5 62 49.5 102t119.5 40q67 0 111.5 -34t44.5 -94z" />
    <glyph glyph-name="uni2083" unicode="&#x2083;" horiz-adv-x="389" 
d="M360 -33q0 -48 -44.5 -81t-119.5 -33q-74 0 -120 36t-52 93h122q1 -17 16 -26.5t34 -9.5q21 0 33 9t12 24q0 32 -50 32h-36v88h35q45 0 45 34q0 33 -37 33q-39 0 -44 -37h-117q4 55 47.5 92t115.5 37q71 0 111 -34t40 -84q0 -32 -19 -54.5t-50 -29.5q78 -16 78 -89z" />
    <glyph glyph-name="uni2084" unicode="&#x2084;" horiz-adv-x="437" 
d="M338 251v-234h71v-85h-71v-72h-117v72h-194v85l181 234h130zM221 139l-92 -122h92v122z" />
    <glyph glyph-name="uni2085" unicode="&#x2085;" horiz-adv-x="401" 
d="M201 41q-28 0 -39 -20h-117l23 231h270v-97h-181l-6 -54q31 25 81 25q60 0 97.5 -36t37.5 -97q0 -60 -45 -100t-120 -40q-80 0 -124.5 36t-49.5 96h131q2 -17 13 -28.5t28 -11.5q20 0 31 13t11 34q0 49 -41 49z" />
    <glyph glyph-name="uni2086" unicode="&#x2086;" horiz-adv-x="405" 
d="M211 166q-26 0 -43 -21t-17 -49q29 25 78 25q62 0 103 -37t41 -94q0 -59 -45 -98t-118 -39q-80 0 -128.5 52.5t-48.5 143.5q0 96 50.5 153.5t131.5 57.5q62 0 103.5 -34t48.5 -85h-116q-10 25 -40 25zM209 -59q20 0 33 13.5t13 34.5t-13 34.5t-33 13.5q-23 0 -36 -13.5
t-13 -34.5t13 -34.5t36 -13.5z" />
    <glyph glyph-name="uni2087" unicode="&#x2087;" horiz-adv-x="372" 
d="M221 155h-189v96h310v-103q-62 -77 -84 -139t-23 -149h-132q2 147 118 295z" />
    <glyph glyph-name="uni2088" unicode="&#x2088;" horiz-adv-x="407" 
d="M203 -147q-78 0 -124.5 30.5t-46.5 85.5q0 33 21 59t48 32q-23 12 -38 34t-15 49q0 55 43.5 86t111.5 31q69 0 112.5 -31t43.5 -86q0 -54 -52 -83q25 -7 46.5 -33t21.5 -58q0 -55 -47 -85.5t-125 -30.5zM203 175q-43 0 -43 -37t43 -37q45 0 45 37t-45 37zM203 18
q-52 0 -52 -40q0 -38 52 -38q54 0 54 38q0 40 -54 40z" />
    <glyph glyph-name="uni2089" unicode="&#x2089;" horiz-adv-x="405" 
d="M195 -54q25 0 42.5 21t17.5 50q-30 -26 -79 -26q-61 0 -102 37.5t-41 95.5t45.5 97t118.5 39q79 0 127.5 -52.5t48.5 -143.5q0 -95 -50.5 -153t-132.5 -58q-62 0 -102.5 33.5t-49.5 84.5h117q11 -25 40 -25zM197 171q-20 0 -33.5 -13t-13.5 -34q0 -22 13 -35t34 -13
q22 0 35.5 13t13.5 35q0 21 -13.5 34t-35.5 13z" />
    <glyph glyph-name="Euro" unicode="&#x20ac;" horiz-adv-x="732" 
d="M705 252q-20 -122 -93 -193t-197 -71q-116 0 -194.5 65t-107.5 177h-79v106h63v22q0 17 1 25h-64v105h79q30 110 108.5 174t193.5 64q124 0 197 -70.5t93 -193.5h-189q-15 105 -98 105q-73 0 -105 -79h137l-11 -105h-145q-1 -8 -1 -25v-22h142l-11 -106h-112
q32 -83 106 -83q83 0 98 105h189z" />
    <glyph glyph-name="trademark" unicode="&#x2122;" horiz-adv-x="950" 
d="M265 375h-112v241h-110v98h334v-98h-112v-241zM672 375h-76l-60 226h-2v-226h-105v339h167l43 -201h3l53 201h150v-339h-111v226h-2z" />
    <glyph glyph-name="uni2153" unicode="&#x2153;" horiz-adv-x="912" 
d="M253 -12h-114l515 739h115zM332 404v-82h-294v82h90v174h-91v78q63 0 85 12.5t29 44.5h96v-309h85zM883 107q0 -48 -44.5 -81t-119.5 -33q-74 0 -120 36t-52 93h122q1 -17 16 -26.5t34 -9.5q21 0 33 9t12 24q0 32 -50 32h-36v88h35q45 0 45 34q0 33 -37 33q-39 0 -44 -37
h-117q4 55 47.5 92t115.5 37q71 0 111 -34t40 -84q0 -32 -19 -54.5t-50 -29.5q78 -16 78 -89z" />
    <glyph glyph-name="uni2154" unicode="&#x2154;" horiz-adv-x="941" 
d="M282 -12h-114l515 739h115zM358 593q0 -47 -28.5 -74t-93.5 -57q-60 -28 -67 -48h186v-92h-323v42q0 56 35 93.5t91 69.5q62 33 72 45q8 11 8 23q0 33 -37 33q-20 0 -32.5 -14t-12.5 -35h-123q5 62 49.5 102t119.5 40q67 0 111.5 -34t44.5 -94zM912 107q0 -48 -44.5 -81
t-119.5 -33q-74 0 -120 36t-52 93h122q1 -17 16 -26.5t34 -9.5q21 0 33 9t12 24q0 32 -50 32h-36v88h35q45 0 45 34q0 33 -37 33q-39 0 -44 -37h-117q4 55 47.5 92t115.5 37q71 0 111 -34t40 -84q0 -32 -19 -54.5t-50 -29.5q78 -16 78 -89z" />
    <glyph glyph-name="uni215B" unicode="&#x215b;" horiz-adv-x="927" 
d="M253 -12h-114l515 739h115zM332 404v-82h-294v82h90v174h-91v78q63 0 85 12.5t29 44.5h96v-309h85zM726 -7q-78 0 -124.5 30.5t-46.5 85.5q0 33 21 59t48 32q-23 12 -38 34t-15 49q0 55 43.5 86t111.5 31q69 0 112.5 -31t43.5 -86q0 -54 -52 -83q25 -7 46.5 -33t21.5 -58
q0 -55 -47 -85.5t-125 -30.5zM726 315q-43 0 -43 -37t43 -37q45 0 45 37t-45 37zM726 158q-52 0 -52 -40q0 -38 52 -38q54 0 54 38q0 40 -54 40z" />
    <glyph glyph-name="uni215C" unicode="&#x215c;" horiz-adv-x="936" 
d="M262 -12h-114l515 739h115zM360 429q0 -48 -44.5 -81t-119.5 -33q-74 0 -120 36t-52 93h122q1 -17 16 -26.5t34 -9.5q21 0 33 9t12 24q0 32 -50 32h-36v88h35q45 0 45 34q0 33 -37 33q-39 0 -44 -37h-117q4 55 47.5 92t115.5 37q71 0 111 -34t40 -84q0 -32 -19 -54.5
t-50 -29.5q78 -16 78 -89zM735 -7q-78 0 -124.5 30.5t-46.5 85.5q0 33 21 59t48 32q-23 12 -38 34t-15 49q0 55 43.5 86t111.5 31q69 0 112.5 -31t43.5 -86q0 -54 -52 -83q25 -7 46.5 -33t21.5 -58q0 -55 -47 -85.5t-125 -30.5zM735 315q-43 0 -43 -37t43 -37q45 0 45 37
t-45 37zM735 158q-52 0 -52 -40q0 -38 52 -38q54 0 54 38q0 40 -54 40z" />
    <glyph glyph-name="uni215D" unicode="&#x215d;" horiz-adv-x="932" 
d="M258 -12h-114l515 739h115zM201 503q-28 0 -39 -20h-117l23 231h270v-97h-181l-6 -54q31 25 81 25q60 0 97.5 -36t37.5 -97q0 -60 -45 -100t-120 -40q-80 0 -124.5 36t-49.5 96h131q2 -17 13 -28.5t28 -11.5q20 0 31 13t11 34q0 49 -41 49zM731 -7q-78 0 -124.5 30.5
t-46.5 85.5q0 33 21 59t48 32q-23 12 -38 34t-15 49q0 55 43.5 86t111.5 31q69 0 112.5 -31t43.5 -86q0 -54 -52 -83q25 -7 46.5 -33t21.5 -58q0 -55 -47 -85.5t-125 -30.5zM731 315q-43 0 -43 -37t43 -37q45 0 45 37t-45 37zM731 158q-52 0 -52 -40q0 -38 52 -38
q54 0 54 38q0 40 -54 40z" />
    <glyph glyph-name="uni215E" unicode="&#x215e;" horiz-adv-x="867" 
d="M193 -12h-114l515 739h115zM221 618h-189v96h310v-103q-62 -77 -84 -139t-23 -149h-132q2 147 118 295zM666 -7q-78 0 -124.5 30.5t-46.5 85.5q0 33 21 59t48 32q-23 12 -38 34t-15 49q0 55 43.5 86t111.5 31q69 0 112.5 -31t43.5 -86q0 -54 -52 -83q25 -7 46.5 -33
t21.5 -58q0 -55 -47 -85.5t-125 -30.5zM666 315q-43 0 -43 -37t43 -37q45 0 45 37t-45 37zM666 158q-52 0 -52 -40q0 -38 52 -38q54 0 54 38q0 40 -54 40z" />
    <glyph glyph-name="minus" unicode="&#x2212;" 
d="M59 262v140h541v-140h-541z" />
    <glyph glyph-name="i.dot" horiz-adv-x="324" 
d="M59 572v164h207v-164h-207zM60 516h204v-516h-204v516z" />
    <glyph glyph-name="a.ord" horiz-adv-x="428" 
d="M253 362q-28 -54 -104 -54q-58 0 -90.5 28t-32.5 74q0 52 35.5 74t96.5 28l87 7v15q0 32 -34 32q-33 0 -35 -32h-137q6 62 52 97t124 35q170 0 170 -154v-83q0 -65 5 -113h-135q-2 38 -2 46zM245 444v13l-43 -6q-37 -3 -37 -30t31 -27q21 0 35 13.5t14 36.5z" />
    <glyph glyph-name="b.ord" horiz-adv-x="464" 
d="M190 362v-46h-142v485h143v-189q14 25 40.5 39.5t57.5 14.5q69 0 108 -50.5t39 -128.5q0 -79 -39 -129.5t-108 -50.5q-32 0 -59 15t-40 40zM189 495v-17q0 -34 14 -52.5t37 -18.5q52 0 52 80q0 78 -52 78q-23 0 -37 -18t-14 -52z" />
    <glyph glyph-name="c.ord" horiz-adv-x="413" 
d="M27 487q0 82 53.5 130.5t137.5 48.5q76 0 121.5 -39t50.5 -103h-136q0 15 -10 28t-27 13q-46 0 -46 -78t46 -78q17 0 27 13t10 28h136q-5 -64 -50.5 -103t-121.5 -39q-84 0 -137.5 48t-53.5 131z" />
    <glyph glyph-name="d.ord" horiz-adv-x="464" 
d="M274 316v46q-13 -25 -40 -40t-59 -15q-69 0 -108 50.5t-39 129.5q0 78 39 128.5t108 50.5q31 0 57.5 -14.5t40.5 -39.5v189h143v-485h-142zM275 478v17q0 34 -14 52t-37 18q-52 0 -52 -78q0 -80 52 -80q23 0 37 18.5t14 52.5z" />
    <glyph glyph-name="e.ord" horiz-adv-x="424" 
d="M396 434q-11 -57 -58 -91.5t-121 -34.5q-81 0 -135.5 48.5t-54.5 130.5t54.5 130.5t135.5 48.5q86 0 133 -50.5t47 -125.5v-25h-234q6 -58 54 -58q40 0 47 27h132zM217 569q-44 0 -52 -49h100q-1 20 -13.5 34.5t-34.5 14.5z" />
    <glyph glyph-name="f.ord" horiz-adv-x="283" 
d="M59 559h-43v99h43v18q0 130 136 130q33 0 71 -5v-104q-24 2 -31 2q-33 0 -33 -31v-10h63v-99h-63v-243h-143v243z" />
    <glyph glyph-name="g.ord" horiz-adv-x="467" 
d="M276 340v48q-28 -57 -99 -57q-69 0 -109 47.5t-40 120.5t40 120t109 47q72 0 100 -56v47h143v-293q0 -86 -52.5 -130t-145.5 -44q-82 0 -131.5 32t-57.5 86h140q10 -25 49 -25q54 0 54 57zM277 493v11q0 63 -52 63t-52 -68q0 -70 52 -70t52 64z" />
    <glyph glyph-name="h.ord" horiz-adv-x="465" 
d="M191 610q33 56 101 56q61 0 95 -35t34 -97v-218h-144v183q0 57 -42 57q-44 0 -44 -61v-179h-143v484h143v-190z" />
    <glyph glyph-name="i.ord" horiz-adv-x="239" 
d="M48 689v113h144v-113h-144zM48 657h143v-341h-143v341z" />
    <glyph glyph-name="j.ord" horiz-adv-x="239" 
d="M48 689v113h144v-113h-144zM49 193q-32 0 -59 4v101q18 -2 25 -2q33 0 33 31v330h143v-338q0 -62 -37 -94t-105 -32z" />
    <glyph glyph-name="k.ord" horiz-adv-x="468" 
d="M302 316l-80 113l-31 -31v-82h-143v484h143v-258l102 115h157l-132 -136l142 -205h-158z" />
    <glyph glyph-name="l.ord" horiz-adv-x="239" 
d="M191 316h-143v484h143v-484z" />
    <glyph glyph-name="m.ord" horiz-adv-x="684" 
d="M399 612q43 54 115 54q59 0 92 -35t33 -97v-218h-143v185q0 55 -41 55q-40 0 -40 -58v-182h-143v185q0 55 -40 55q-41 0 -41 -58v-182h-143v341h142v-46q31 55 100 55q72 0 109 -54z" />
    <glyph glyph-name="n.ord" horiz-adv-x="465" 
d="M190 657v-46q33 55 102 55q61 0 95 -35t34 -97v-218h-144v184q0 56 -42 56q-44 0 -44 -61v-179h-143v341h142z" />
    <glyph glyph-name="o.ord" horiz-adv-x="441" 
d="M27 487q0 83 53 131t141 48q87 0 139.5 -48t52.5 -131q0 -84 -52.5 -131.5t-139.5 -47.5q-88 0 -141 47.5t-53 131.5zM171 487q0 -79 50 -79q49 0 49 79q0 78 -49 78q-50 0 -50 -78z" />
    <glyph glyph-name="p.ord" horiz-adv-x="464" 
d="M191 361v-163h-143v459h142v-46q13 25 40 40t59 15q69 0 108 -50.5t39 -129.5q0 -78 -39 -128.5t-108 -50.5q-31 0 -57.5 14.5t-40.5 39.5zM189 495v-17q0 -34 14 -52.5t37 -18.5q52 0 52 79t-52 79q-23 0 -37 -18t-14 -52z" />
    <glyph glyph-name="q.ord" horiz-adv-x="464" 
d="M273 198v163q-14 -25 -40.5 -39.5t-57.5 -14.5q-69 0 -108 50.5t-39 128.5q0 79 39 129.5t108 50.5q32 0 59 -15t40 -40v46h142v-459h-143zM275 478v17q0 34 -14 52t-37 18q-52 0 -52 -79t52 -79q23 0 37 18.5t14 52.5z" />
    <glyph glyph-name="r.ord" horiz-adv-x="340" 
d="M312 659v-132q-26 2 -40 2q-37 0 -59 -19t-22 -55v-139h-143v341h142v-68q29 73 98 73q18 0 24 -3z" />
    <glyph glyph-name="s.ord" horiz-adv-x="399" 
d="M23 422h131q6 -32 49 -32q36 0 36 23q0 10 -9 14t-33 8l-60 10q-104 16 -104 102q0 56 46.5 87.5t116.5 31.5q77 0 120 -30.5t49 -83.5h-125q-2 15 -15 23.5t-28 8.5q-34 0 -34 -24q0 -16 39 -22l64 -10q102 -18 102 -105q0 -56 -45.5 -85.5t-117.5 -29.5
q-78 0 -126 28.5t-56 85.5z" />
    <glyph glyph-name="t.ord" horiz-adv-x="305" 
d="M272 425v-104q-43 -11 -84 -11q-67 0 -97.5 25t-30.5 84v139h-43v99h43v82h141v-82h65v-99h-66v-105q0 -18 8 -24.5t27 -6.5q22 0 37 3z" />
    <glyph glyph-name="u.ord" horiz-adv-x="460" 
d="M270 316v46q-33 -55 -100 -55q-59 0 -92 35t-33 97v218h143v-186q0 -54 38 -54q41 0 41 60v180h144v-341h-141z" />
    <glyph glyph-name="v.ord" horiz-adv-x="450" 
d="M147 316l-131 342h144l66 -204h1l68 204h139l-132 -342h-155z" />
    <glyph glyph-name="w.ord" horiz-adv-x="627" 
d="M377 658l44 -201h1l49 201h140l-108 -342h-142l-47 189h-1l-47 -189h-142l-108 342h144l49 -201h1l42 201h125z" />
    <glyph glyph-name="x.ord" horiz-adv-x="458" 
d="M168 316h-152l132 174l-123 168h161l46 -67l48 67h153l-123 -162l131 -180h-161l-54 79z" />
    <glyph glyph-name="y.ord" horiz-adv-x="450" 
d="M142 323l-126 335h148l64 -213h1l67 213h138l-126 -340q-25 -67 -71.5 -96t-116.5 -29q-20 0 -54 4v101h16q23 0 31 0.5t16.5 6t12.5 18.5z" />
    <glyph glyph-name="z.ord" horiz-adv-x="393" 
d="M353 562l-145 -143h152v-103h-324v93l144 146h-142v103h315v-96z" />
    <glyph glyph-name="caron.Slovak" horiz-adv-x="563" 
d="M286 540h-96l20 196h199z" />
    <glyph glyph-name="commaturn" horiz-adv-x="563" 
d="M370 674v-102h-177v50q0 82 44 119t133 37v-64q-60 0 -60 -40h60z" />
    <glyph glyph-name="uni00200326" horiz-adv-x="563" 
d="M200 -143v102h177v-50q0 -82 -44 -119t-133 -37v64q60 0 60 40h-60z" />
    <glyph glyph-name="guilsinglleft.cap" horiz-adv-x="373" 
d="M329 122h-138l-147 217l147 218h138l-110 -218z" />
    <glyph glyph-name="guilsinglright.cap" horiz-adv-x="373" 
d="M182 122h-138l110 217l-110 218h138l147 -218z" />
    <glyph glyph-name="guillemotleft.cap" horiz-adv-x="607" 
d="M563 122h-133l-146 217l146 218h133l-110 -218zM324 122h-133l-147 217l147 218h133l-110 -218z" />
    <glyph glyph-name="guillemotright.cap" horiz-adv-x="607" 
d="M177 122h-133l110 217l-110 218h133l146 -218zM416 122h-133l110 217l-110 218h133l147 -218z" />
    <glyph glyph-name="slash.cap" horiz-adv-x="579" 
d="M33 -75l326 844h188l-326 -844h-188z" />
    <glyph glyph-name="backslash.cap" horiz-adv-x="579" 
d="M33 769h188l326 -844h-188z" />
    <glyph glyph-name="bar.cap" horiz-adv-x="370" 
d="M98 769h174v-844h-174v844z" />
    <glyph glyph-name="periodcentered.cap" horiz-adv-x="391" 
d="M87 247v217h217v-217h-217z" />
    <glyph glyph-name="bullet.cap" horiz-adv-x="554" 
d="M87 374q0 77 56.5 132.5t134.5 55.5t133.5 -55t55.5 -133t-55.5 -134t-133.5 -56t-134.5 56t-56.5 134z" />
    <glyph glyph-name="hyphen.cap" horiz-adv-x="460" 
d="M87 270v164h286v-164h-286z" />
    <glyph glyph-name="endash.cap" horiz-adv-x="677" 
d="M87 280v142h503v-142h-503z" />
    <glyph glyph-name="emdash.cap" horiz-adv-x="1003" 
d="M87 280v142h829v-142h-829z" />
    <glyph glyph-name="parenleft.cap" horiz-adv-x="480" 
d="M287 347q0 -217 161 -422h-189q-172 194 -172 422t172 422h189q-161 -221 -161 -422z" />
    <glyph glyph-name="parenright.cap" horiz-adv-x="480" 
d="M32 -75q161 205 161 422q0 201 -161 422h189q172 -194 172 -422t-172 -422h-189z" />
    <glyph glyph-name="bracketleft.cap" horiz-adv-x="440" 
d="M283 633v-572h114v-136h-310v844h310v-136h-114z" />
    <glyph glyph-name="bracketright.cap" horiz-adv-x="440" 
d="M157 61v572h-114v136h310v-844h-310v136h114z" />
    <glyph glyph-name="braceleft.cap" horiz-adv-x="452" 
d="M33 278v138h34q26 0 42.5 17t16.5 43v161q0 63 41 97.5t119 34.5h123v-134h-59q-43 0 -43 -40v-147q0 -44 -31.5 -71t-81.5 -30q50 -3 81.5 -30t31.5 -71v-147q0 -40 43 -40h59v-134h-123q-78 0 -119 34.5t-41 97.5v161q0 26 -16.5 43t-42.5 17h-34z" />
    <glyph glyph-name="braceright.cap" horiz-adv-x="452" 
d="M419 416v-138h-34q-26 0 -42.5 -17t-16.5 -43v-161q0 -63 -41 -97.5t-119 -34.5h-123v134h59q43 0 43 40v147q0 44 31.5 71t81.5 30q-50 3 -81.5 30t-31.5 71v147q0 40 -43 40h-59v134h123q78 0 119 -34.5t41 -97.5v-161q0 -26 16.5 -43t42.5 -17h34z" />
    <glyph glyph-name="at.cap" horiz-adv-x="917" 
d="M701 562l-51 -289q-4 -25 3.5 -37t28.5 -12q52 0 81 52t29 147q0 122 -84 191t-218 69q-157 0 -257.5 -99.5t-100.5 -259.5q0 -72 22 -129t57 -92t83 -57.5t96.5 -31.5t100.5 -9q120 0 230 46l36 -78q-112 -59 -266 -59q-91 0 -172 24.5t-147.5 72.5t-105 128.5
t-38.5 184.5q0 124 58 227t164.5 163.5t239.5 60.5q175 0 287 -100.5t112 -251.5q0 -141 -70.5 -216.5t-178.5 -75.5q-87 0 -132 60q-18 -27 -52.5 -41.5t-69.5 -14.5q-75 0 -119 51.5t-44 130.5q0 104 62 179t160 75q32 0 59.5 -13.5t38.5 -34.5l8 39h150zM509 331l4 28
q6 35 -7.5 58.5t-40.5 23.5q-36 0 -56 -24.5t-25 -64.5q-6 -43 8.5 -67t45.5 -24q24 0 44.5 17.5t26.5 52.5z" />
    <glyph glyph-name="uni0192.lt" 
d="M522 251h-118l-62 -360h-196l64 360h-71v154h99l24 136q19 107 83 157t159 50q51 0 82 -12v-182q-25 8 -53 8q-39 0 -60 -18t-29 -65l-13 -74h91v-154z" />
    <glyph glyph-name="Euro.lt" 
d="M647 252q-19 -122 -89 -193t-188 -71q-110 0 -182.5 64.5t-99.5 177.5h-69v106h55v47h-55v105h70q27 111 99.5 174.5t181.5 63.5q118 0 188 -71t89 -193h-180q-15 105 -94 105q-68 0 -94 -79h125l-11 -105h-131v-47h127l-10 -106h-101q26 -83 95 -83q79 0 94 105h180z
" />
    <glyph glyph-name="dollar.lt" 
d="M641 216q0 -98 -72 -157.5t-187 -68.5v-100h-96v102q-118 11 -189.5 70.5t-81.5 159.5h183q5 -68 88 -84v142l-53 9q-198 33 -198 206q0 97 70 157.5t181 69.5v96h96v-97q112 -12 175 -71.5t73 -152.5h-178q-6 58 -70 75v-135l69 -12q190 -36 190 -209zM216 513
q0 -26 16 -38.5t54 -20.5v121q-70 -12 -70 -62zM460 201q0 27 -16.5 40.5t-61.5 21.5v-127q78 11 78 65z" />
    <glyph glyph-name="cent.lt" 
d="M602 207q-9 -84 -66 -142t-145 -71v-100h-96v100q-104 16 -170 88.5t-66 185.5t66 185.5t170 88.5v106h96v-106q88 -13 145 -71t66 -142h-158q-2 50 -53 71v-264q51 21 53 71h158zM232 268q0 -98 63 -129v258q-63 -31 -63 -129z" />
    <glyph glyph-name="sterling.lt" 
d="M629 160v-160h-598v160h16q63 0 69 101h-83v136h58q-16 62 -16 100q0 101 77.5 165t195.5 64q129 0 200.5 -70.5t81.5 -183.5h-197q-4 99 -85 99q-34 0 -54.5 -21.5t-20.5 -56.5q0 -12 2.5 -25t5 -21.5t7.5 -25t7 -24.5h130v-136h-119q-11 -58 -51 -101h374z" />
    <glyph glyph-name="yen.lt" 
d="M590 172h-159v-172h-200v172h-159v105h159v47h-159v105h101l-162 285h214l108 -225h1l108 225h207l-161 -285h102v-105h-159v-47h159v-105z" />
    <glyph glyph-name="zero.lt" 
d="M330 -12q-138 0 -221 103t-83 266t83 266t221 103t221 -103t83 -266t-83 -266t-221 -103zM330 142q99 0 99 215t-99 215t-99 -215t99 -215z" />
    <glyph glyph-name="one.lt" 
d="M619 159v-159h-561v159h190v312h-172v138q122 0 168 23t60 82h155v-555h160z" />
    <glyph glyph-name="two.lt" 
d="M617 496q0 -87 -52 -141t-163 -104q-67 -31 -93.5 -50t-31.5 -41h339v-160h-574v71q0 57 19.5 105t57 84.5t71 60.5t82.5 51q8 5 23 13q75 42 99.5 63t24.5 53q0 69 -78 69q-40 0 -64 -28t-26 -71h-204q9 112 87 183.5t209 71.5q120 0 197 -62t77 -168z" />
    <glyph glyph-name="three.lt" 
d="M622 195q0 -87 -78 -147t-213 -60q-132 0 -213.5 64.5t-91.5 168.5h200q3 -38 33.5 -59t71.5 -21q46 0 71.5 19.5t25.5 53.5q0 68 -101 68h-67v145h65q43 0 66.5 19t23.5 55q0 32 -21.5 51.5t-58.5 19.5q-40 0 -65 -21.5t-27 -58.5h-193q8 99 84.5 166.5t203.5 67.5
t197.5 -61.5t70.5 -153.5q0 -59 -34.5 -101t-93.5 -53q68 -12 106 -55t38 -107z" />
    <glyph glyph-name="four.lt" 
d="M541 714v-408h103v-157h-103v-149h-201v149h-324v158l301 407h224zM340 531l-157 -225h157v225z" />
    <glyph glyph-name="five.lt" 
d="M330 339q-57 0 -83 -40h-190l42 415h472v-160h-320l-11 -101q51 37 136 37q109 0 177 -69t68 -181q0 -108 -78.5 -180t-210.5 -72q-138 0 -217 64.5t-88 171.5h212q3 -37 27 -61t63 -24q42 0 66.5 27.5t24.5 70.5q0 45 -23.5 73.5t-66.5 28.5z" />
    <glyph glyph-name="six.lt" 
d="M346 572q-55 0 -89.5 -45.5t-34.5 -112.5q57 63 153 63q110 0 183.5 -68.5t73.5 -172.5q0 -107 -80 -177.5t-209 -70.5q-141 0 -227 96t-86 261q0 173 89.5 277t234.5 104q110 0 182.5 -59.5t86.5 -152.5h-191q-21 58 -86 58zM342 133q43 0 70.5 28.5t27.5 73.5t-27 73
t-71 28q-46 0 -74.5 -28t-28.5 -73t28.5 -73.5t74.5 -28.5z" />
    <glyph glyph-name="seven.lt" 
d="M417 554h-376v160h578v-169q-122 -150 -172.5 -270t-51.5 -276h-215q1 105 37 209t82 178t118 168z" />
    <glyph glyph-name="eight.lt" 
d="M330 726q122 0 198.5 -55t76.5 -154q0 -51 -28 -91.5t-71 -63.5q49 -11 89.5 -58t40.5 -105q0 -99 -83.5 -155t-222.5 -56t-222.5 56t-83.5 155q0 58 40.5 105t89.5 58q-43 23 -71 63.5t-28 91.5q0 99 76.5 154t198.5 55zM330 432q43 0 68 20t25 57t-25 57t-68 20
t-68 -20t-25 -57t25 -57t68 -20zM330 132q54 0 82 21.5t28 58.5q0 38 -28 60t-82 22t-82 -22t-28 -60q0 -37 28 -58.5t82 -21.5z" />
    <glyph glyph-name="nine.lt" 
d="M314 142q55 0 89.5 45.5t34.5 112.5q-57 -63 -153 -63q-110 0 -183.5 68.5t-73.5 172.5q0 107 80 177.5t209 70.5q141 0 227 -96t86 -261q0 -173 -89.5 -277t-234.5 -104q-110 0 -182.5 59.5t-86.5 152.5h191q21 -58 86 -58zM318 581q-43 0 -70.5 -28.5t-27.5 -73.5
t27 -73t71 -28q46 0 74.5 28t28.5 73t-28.5 73.5t-74.5 28.5z" />
    <glyph glyph-name="zero.dnom" horiz-adv-x="448" 
d="M225 -7q-87 0 -139 57t-52 146q0 90 52 147t139 57q86 0 137.5 -57t51.5 -147q0 -89 -51.5 -146t-137.5 -57zM225 86q59 0 59 110q0 111 -59 111q-60 0 -60 -111q0 -110 60 -110z" />
    <glyph glyph-name="one.dnom" horiz-adv-x="367" 
d="M332 82v-82h-294v82h90v174h-91v78q63 0 85 12.5t29 44.5h96v-309h85z" />
    <glyph glyph-name="two.dnom" horiz-adv-x="391" 
d="M358 271q0 -47 -28.5 -74t-93.5 -57q-60 -28 -67 -48h186v-92h-323v42q0 56 35 93.5t91 69.5q62 33 72 45q8 10 8 23q0 33 -37 33q-20 0 -32.5 -14t-12.5 -35h-123q5 62 49.5 102t119.5 40q67 0 111.5 -34t44.5 -94z" />
    <glyph glyph-name="three.dnom" horiz-adv-x="389" 
d="M360 107q0 -48 -44.5 -81t-119.5 -33q-74 0 -120 36t-52 93h122q1 -17 16 -26.5t34 -9.5q21 0 33 9t12 24q0 32 -50 32h-36v88h35q45 0 45 34q0 33 -37 33q-39 0 -44 -37h-117q4 55 47.5 92t115.5 37q71 0 111 -34t40 -84q0 -32 -19 -54.5t-50 -29.5q78 -16 78 -89z" />
    <glyph glyph-name="four.dnom" horiz-adv-x="437" 
d="M338 391v-234h71v-85h-71v-72h-117v72h-194v85l181 234h130zM221 279l-92 -122h92v122z" />
    <glyph glyph-name="five.dnom" horiz-adv-x="401" 
d="M201 181q-28 0 -39 -20h-117l23 231h270v-97h-181l-6 -54q31 25 81 25q60 0 97.5 -36t37.5 -97q0 -60 -45 -100t-120 -40q-80 0 -124.5 36t-49.5 96h131q2 -17 13 -28.5t28 -11.5q20 0 31 13t11 34q0 49 -41 49z" />
    <glyph glyph-name="six.dnom" horiz-adv-x="405" 
d="M211 306q-26 0 -43 -21t-17 -49q29 25 78 25q62 0 103 -37t41 -94q0 -59 -45 -98t-118 -39q-80 0 -128.5 52.5t-48.5 143.5q0 96 50.5 153.5t131.5 57.5q62 0 103.5 -34t48.5 -85h-116q-10 25 -40 25zM209 81q20 0 33 13.5t13 34.5t-13 34.5t-33 13.5q-23 0 -36 -13.5
t-13 -34.5t13 -34.5t36 -13.5z" />
    <glyph glyph-name="seven.dnom" horiz-adv-x="372" 
d="M221 295h-189v96h310v-103q-62 -77 -84 -139t-23 -149h-132q2 147 118 295z" />
    <glyph glyph-name="eight.dnom" horiz-adv-x="407" 
d="M203 -7q-78 0 -124.5 30.5t-46.5 85.5q0 33 21 59t48 32q-23 12 -38 34t-15 49q0 55 43.5 86t111.5 31q69 0 112.5 -31t43.5 -86q0 -54 -52 -83q25 -7 46.5 -33t21.5 -58q0 -55 -47 -85.5t-125 -30.5zM203 315q-43 0 -43 -37t43 -37q45 0 45 37t-45 37zM203 158
q-52 0 -52 -40q0 -38 52 -38q54 0 54 38q0 40 -54 40z" />
    <glyph glyph-name="nine.dnom" horiz-adv-x="405" 
d="M195 86q25 0 42.5 21t17.5 50q-30 -26 -79 -26q-61 0 -102 37.5t-41 95.5t45.5 97t118.5 39q79 0 127.5 -52.5t48.5 -143.5q0 -95 -50.5 -153t-132.5 -58q-62 0 -102.5 33.5t-49.5 84.5h117q11 -25 40 -25zM197 311q-20 0 -33.5 -13t-13.5 -34q0 -22 13 -35t34 -13
q22 0 35.5 13t13.5 35q0 21 -13.5 34t-35.5 13z" />
    <glyph glyph-name="percent.lt" 
d="M5 565q0 66 47 113.5t113 47.5q67 0 114 -47.5t47 -113.5t-47.5 -114t-113.5 -48t-113 48t-47 114zM533 714h118l-523 -714h-119zM105 565q0 -26 18 -44.5t42 -18.5t42 18.5t18 44.5q0 25 -18 43.5t-42 18.5t-42 -18.5t-18 -43.5zM334 150q0 66 47.5 114t113.5 48
t113.5 -48t47.5 -114t-47 -113.5t-114 -47.5q-66 0 -113.5 47.5t-47.5 113.5zM435 150q0 -25 18 -43.5t42 -18.5t42.5 18.5t18.5 43.5q0 26 -18.5 44.5t-42.5 18.5t-42 -18.5t-18 -44.5z" />
    <glyph glyph-name="period.tab" horiz-adv-x="330" 
d="M57 0v217h217v-217h-217z" />
    <glyph glyph-name="comma.tab" horiz-adv-x="330" 
d="M59 8v209h217v-215q0 -94 -59 -140t-162 -46v100q52 1 79 18t27 67v7h-102z" />
    <glyph glyph-name="colon.tab" horiz-adv-x="330" 
d="M57 299v217h217v-217h-217zM57 0v217h217v-217h-217z" />
    <glyph glyph-name="semicolon.tab" horiz-adv-x="330" 
d="M59 299v217h217v-217h-217zM59 8v209h217v-215q0 -94 -59 -140t-162 -46v100q52 1 79 18t27 67v7h-102z" />
    <glyph glyph-name="space.tab" horiz-adv-x="330" 
 />
    <glyph glyph-name="thinspace" horiz-adv-x="60" 
 />
    <glyph glyph-name="zero.slash" horiz-adv-x="738" 
d="M32 357q0 163 91.5 266t245.5 103t245.5 -103t91.5 -266t-91.5 -266t-245.5 -103t-245.5 103t-91.5 266zM236 357q0 -83 23 -140l139 363q-12 4 -28 4q-63 0 -98.5 -61t-35.5 -166zM502 357q0 82 -22 139l-139 -362q12 -4 29 -4q62 0 97 61t35 166z" />
    <glyph glyph-name="zero.slashlt" 
d="M330 -12q-138 0 -221 103t-83 266t83 266t221 103t221 -103t83 -266t-83 -266t-221 -103zM220 357q0 -67 8 -107l149 320q-19 13 -47 13q-110 0 -110 -226zM439 357q0 64 -7 107l-150 -320q21 -13 48 -13q59 0 84 58t25 168z" />
    <glyph glyph-name="CR" horiz-adv-x="221" 
 />
    </font>
</defs>
</svg>
