<?xml version="1.0" standalone="no"?>
<!DOCTYPE svg PUBLIC "-//W3C//DTD SVG 1.1//EN" "http://www.w3.org/Graphics/SVG/1.1/DTD/svg11.dtd" >
<svg xmlns="http://www.w3.org/2000/svg" xmlns:xlink="http://www.w3.org/1999/xlink" version="1.1">
<metadata>
Created by FontForge 20170731 at Mon Mar 20 13:25:11 2017
 By Aleksey,,,
(c) 2016 Klim Type Foundry. All Rights Reserved.
</metadata>
<defs>
<font id="UntitledSans-LightItalic" horiz-adv-x="660" >
  <font-face 
    font-family="Untitled Sans Light"
    font-weight="300"
    font-style="italic"
    font-stretch="normal"
    units-per-em="1000"
    panose-1="2 11 3 3 3 2 2 13 2 3"
    ascent="800"
    descent="-200"
    x-height="500"
    cap-height="714"
    bbox="-238 -219 1114 954"
    underline-thickness="50"
    underline-position="-200"
    slope="-9"
    unicode-range="U+0020-2212"
  />
<missing-glyph horiz-adv-x="1232" 
d="M1031 473v-55q-24 -8 -53 -8q-84 0 -84 84v125h-36v52h36v65h74v-65h57v-52h-57v-116q0 -34 30 -34q14 0 33 4zM359 671v-40q21 47 79 47q45 0 70 -26t25 -73v-165h-75v148q0 59 -47 59q-52 0 -52 -68v-139h-75v257h75zM572 544q0 62 37 98t97 36q59 0 96 -36.5t37 -97.5
q0 -62 -37 -98.5t-96 -36.5q-60 0 -97 36.5t-37 98.5zM646 544q0 -82 60 -82q28 0 43 22t15 60t-15 59t-43 21q-60 0 -60 -80zM139 414v85h85v-85h-85zM1031 303q-19 4 -33 4q-30 0 -30 -34v-15h57v-52h-57v-206h-74v206h-36v52h36v24q0 84 84 84q29 0 53 -8v-55zM459 0v41
q-9 -20 -30.5 -33.5t-49.5 -13.5q-51 0 -82 37.5t-31 97.5t31 97.5t82 37.5q55 0 79 -46v145h75v-363h-74zM833 81q-24 -87 -125 -87q-60 0 -98 36t-38 98q0 61 39 98t97 37q62 0 95.5 -37.5t33.5 -92.5v-23h-193q8 -63 64 -63q41 0 53 34h72zM708 211q-51 0 -62 -56h118
q-1 24 -15 40t-41 16zM460 124v9q0 36 -16 56.5t-44 20.5t-44 -22t-16 -59q0 -38 16 -60t44 -22t44 20.5t16 56.5z" />
    <glyph glyph-name="f_idieresis" unicode="f&#xef;" horiz-adv-x="551" 
d="M215 574l-12 -74h111l-7 -47h-111l-72 -453h-57l72 453h-74l7 47h74l13 78q11 75 57 118t119 43q51 0 78 -16l-8 -49q-36 14 -75 14q-97 0 -115 -114zM538 615l14 88h66l-14 -88h-66zM437 500h59l-79 -500h-59z" />
    <glyph glyph-name=".notdef" horiz-adv-x="1232" 
d="M1031 473v-55q-24 -8 -53 -8q-84 0 -84 84v125h-36v52h36v65h74v-65h57v-52h-57v-116q0 -34 30 -34q14 0 33 4zM359 671v-40q21 47 79 47q45 0 70 -26t25 -73v-165h-75v148q0 59 -47 59q-52 0 -52 -68v-139h-75v257h75zM572 544q0 62 37 98t97 36q59 0 96 -36.5t37 -97.5
q0 -62 -37 -98.5t-96 -36.5q-60 0 -97 36.5t-37 98.5zM646 544q0 -82 60 -82q28 0 43 22t15 60t-15 59t-43 21q-60 0 -60 -80zM139 414v85h85v-85h-85zM1031 303q-19 4 -33 4q-30 0 -30 -34v-15h57v-52h-57v-206h-74v206h-36v52h36v24q0 84 84 84q29 0 53 -8v-55zM459 0v41
q-9 -20 -30.5 -33.5t-49.5 -13.5q-51 0 -82 37.5t-31 97.5t31 97.5t82 37.5q55 0 79 -46v145h75v-363h-74zM833 81q-24 -87 -125 -87q-60 0 -98 36t-38 98q0 61 39 98t97 37q62 0 95.5 -37.5t33.5 -92.5v-23h-193q8 -63 64 -63q41 0 53 34h72zM708 211q-51 0 -62 -56h118
q-1 24 -15 40t-41 16zM460 124v9q0 36 -16 56.5t-44 20.5t-44 -22t-16 -59q0 -38 16 -60t44 -22t44 20.5t16 56.5z" />
    <glyph glyph-name=".null" horiz-adv-x="0" 
 />
    <glyph glyph-name="nonmarkingreturn" horiz-adv-x="333" 
 />
    <glyph glyph-name="space" unicode=" " horiz-adv-x="220" 
 />
    <glyph glyph-name="exclam" unicode="!" horiz-adv-x="296" 
d="M186 714h70l-93 -507h-45zM64 0l14 87h87l-14 -87h-87z" />
    <glyph glyph-name="quotedbl" unicode="&#x22;" horiz-adv-x="392" 
d="M284 472l33 264h66l-50 -264h-49zM132 472l32 264h67l-50 -264h-49z" />
    <glyph glyph-name="numbersign" unicode="#" 
d="M298 40l80 196h-167l-80 -196h-55l80 196h-125l17 46h127l67 163h-133l16 47h136l80 196h56l-80 -196h166l80 196h55l-80 -196h125l-16 -47h-128l-67 -163h134l-17 -46h-136l-80 -196h-55zM230 282h167l67 163h-167z" />
    <glyph glyph-name="dollar" unicode="$" horiz-adv-x="646" 
d="M581 216q0 -95 -76 -160.5t-190 -65.5l-16 -99h-50l17 101q-98 11 -159.5 66.5t-62.5 149.5h59q8 -145 171 -163l48 293l-51 13q-71 17 -112.5 52t-41.5 100q0 94 73.5 158t186.5 64h9l15 94h50l-16 -98q84 -13 131.5 -60t49.5 -122h-58q-1 51 -36.5 84t-95.5 44
l-47 -287l50 -12q152 -38 152 -152zM292 402l39 -10l46 279h-4q-93 0 -145 -47.5t-52 -117.5q0 -42 28 -65.5t88 -38.5zM404 318l-34 8l-46 -283q85 2 141.5 47.5t56.5 113.5q0 85 -118 114z" />
    <glyph glyph-name="percent" unicode="%" horiz-adv-x="790" 
d="M231 416q-58 0 -97 39t-39 96q0 69 53.5 122t121.5 53q58 0 97 -39t39 -96q0 -69 -53.5 -122t-121.5 -53zM693 714h64l-627 -714h-63zM238 467q48 0 81.5 36t33.5 82q0 39 -25.5 64.5t-63.5 25.5q-48 0 -82 -36t-34 -81q0 -40 26 -65.5t64 -25.5zM554 -11q-58 0 -97 39
t-39 96q0 69 53.5 122t121.5 53q58 0 97 -39t39 -96q0 -69 -53.5 -122t-121.5 -53zM560 40q48 0 82 36t34 81q0 40 -25.5 65.5t-63.5 25.5q-48 0 -82 -36t-34 -82q0 -39 25.5 -64.5t63.5 -25.5z" />
    <glyph glyph-name="ampersand" unicode="&#x26;" horiz-adv-x="736" 
d="M571 0l-67 80q-109 -92 -255 -92q-85 0 -141.5 50t-56.5 125q0 83 48.5 133t147.5 94q-57 77 -57 146q0 76 56.5 133t144.5 57q72 0 114 -39.5t42 -97.5q0 -76 -51 -120.5t-164 -92.5l181 -218q66 77 93 197h55q-31 -139 -116 -235l100 -120h-74zM249 537q0 -56 52 -123
l4 1q103 42 143.5 78t40.5 91q0 42 -28 67.5t-75 25.5q-57 0 -97 -40t-40 -100zM110 169q0 -55 41 -92t105 -37q126 0 217 77l-196 236q-83 -37 -125 -77.5t-42 -106.5z" />
    <glyph glyph-name="quotesingle" unicode="'" horiz-adv-x="240" 
d="M132 472l32 264h67l-50 -264h-49z" />
    <glyph glyph-name="parenleft" unicode="(" horiz-adv-x="374" 
d="M384 736q-234 -262 -234 -509q0 -173 101 -335h-55q-104 162 -104 336q0 263 233 508h59z" />
    <glyph glyph-name="parenright" unicode=")" horiz-adv-x="374" 
d="M10 -108q234 262 234 509q0 173 -101 335h55q104 -163 104 -336q0 -263 -233 -508h-59z" />
    <glyph glyph-name="asterisk" unicode="*" horiz-adv-x="404" 
d="M257 726l47 -9l-25 -136l134 20l7 -48l-136 -20l59 -119l-43 -23l-57 124l-97 -97l-33 37l98 91l-121 67l23 42l119 -65z" />
    <glyph glyph-name="plus" unicode="+" 
d="M597 307h-231l-37 -233h-53l37 233h-233l8 53h233l37 232h53l-37 -232h231z" />
    <glyph glyph-name="comma" unicode="," horiz-adv-x="296" 
d="M64 0l14 87h87l-17 -108q-9 -57 -47.5 -93.5t-97.5 -36.5l7 40q75 0 89 90l3 21h-38z" />
    <glyph glyph-name="hyphen" unicode="-" horiz-adv-x="449" 
d="M86 251l9 54h275l-9 -54h-275z" />
    <glyph glyph-name="period" unicode="." horiz-adv-x="296" 
d="M64 0l14 87h87l-14 -87h-87z" />
    <glyph glyph-name="slash" unicode="/" horiz-adv-x="492" 
d="M-5 -108l459 844h61l-459 -844h-61z" />
    <glyph glyph-name="zero" unicode="0" horiz-adv-x="658" 
d="M295 -12q-106 0 -165.5 78t-59.5 208q0 185 93.5 318.5t232.5 133.5q106 0 165.5 -78t59.5 -208q0 -185 -93.5 -318.5t-232.5 -133.5zM300 45q99 0 166 85.5t88 225.5q6 46 6 86q0 105 -43 166t-126 61q-99 0 -166 -85.5t-88 -225.5q-6 -47 -6 -86q0 -105 43 -166
t126 -61z" />
    <glyph glyph-name="one" unicode="1" horiz-adv-x="342" 
d="M72 567l6 42q88 0 132 25.5t67 82.5h31l-114 -717h-60l90 567h-152z" />
    <glyph glyph-name="two" unicode="2" horiz-adv-x="558" 
d="M551 551q0 -27 -7 -52.5t-16 -45t-29 -41.5t-33 -35t-42 -34t-43 -30t-48 -30t-45 -28q-50 -31 -74.5 -48t-62 -46t-55.5 -55t-22 -52h410l-9 -54h-472l6 32q6 43 32 83.5t68 76.5t80 61.5t90 56.5q105 62 160 115.5t55 123.5q0 53 -34 87.5t-106 34.5q-77 0 -130.5 -49
t-70.5 -122h-56q21 97 89.5 161.5t172.5 64.5q95 0 143.5 -51t48.5 -124z" />
    <glyph glyph-name="three" unicode="3" horiz-adv-x="604" 
d="M536 209q0 -86 -69.5 -153.5t-191.5 -67.5q-103 0 -169 57.5t-66 160.5h60q0 -77 46 -121t129 -44q93 0 148 49t55 120q0 57 -40 91.5t-112 34.5h-74l9 55h75q75 0 125 40.5t50 117.5q0 54 -37 89t-105 35q-82 0 -135 -48.5t-67 -123.5h-57q18 97 88 161t173 64
q95 0 148 -50.5t53 -125.5q0 -74 -49 -125t-113 -61q54 -12 90 -56.5t36 -98.5z" />
    <glyph glyph-name="four" unicode="4" 
d="M529 714l-72 -458h159l-8 -50h-159l-33 -206h-58l33 206h-356l8 51l416 457h70zM460 646l-353 -390h292z" />
    <glyph glyph-name="five" unicode="5" horiz-adv-x="600" 
d="M334 419q-111 0 -180 -89h-54l99 384h388l-9 -55h-343l-70 -264q30 33 79 55t97 22q98 0 151 -57t53 -146q0 -115 -76.5 -198t-195.5 -83q-102 0 -164 58t-62 164h58q0 -79 44.5 -124t125.5 -45q99 0 155.5 67t56.5 157q0 67 -38 110.5t-115 43.5z" />
    <glyph glyph-name="six" unicode="6" horiz-adv-x="620" 
d="M397 671q-104 0 -177 -98.5t-92 -249.5q27 66 83.5 110t141.5 44q93 0 151.5 -61t58.5 -150q0 -114 -78 -196t-193 -82q-102 0 -162.5 74t-60.5 201q0 126 45.5 233t122 168.5t164.5 61.5q92 0 146 -52t54 -140h-57q-3 67 -41.5 102t-105.5 35zM298 42q89 0 148 64.5
t59 156.5q0 70 -44 114.5t-118 44.5q-88 0 -148.5 -62t-60.5 -152q0 -73 45 -119.5t119 -46.5z" />
    <glyph glyph-name="seven" unicode="7" horiz-adv-x="563" 
d="M509 659h-418l9 55h491l-7 -39q-149 -152 -231 -316.5t-115 -358.5h-65q33 188 120.5 355.5t215.5 303.5z" />
    <glyph glyph-name="eight" unicode="8" horiz-adv-x="633" 
d="M284 -12q-110 0 -175.5 49.5t-65.5 130.5q0 79 58 134t133 66q-100 41 -100 140q0 97 74.5 157.5t180.5 60.5q90 0 147 -45.5t57 -121.5q0 -72 -43 -124.5t-112 -74.5q55 -13 92 -53.5t37 -94.5q0 -95 -81 -159.5t-202 -64.5zM347 390q79 0 133 45t54 119
q0 58 -43.5 88.5t-109.5 30.5q-80 0 -133.5 -44t-53.5 -118q0 -58 43 -89.5t110 -31.5zM322 339q-96 0 -156 -46.5t-60 -121.5q0 -60 49.5 -95.5t134.5 -35.5q97 0 154.5 50t57.5 121q0 58 -48 93t-132 35z" />
    <glyph glyph-name="nine" unicode="9" horiz-adv-x="619" 
d="M257 48q104 0 177 98.5t92 249.5q-27 -66 -83.5 -110t-141.5 -44q-93 0 -151.5 61t-58.5 150q0 114 78 196t193 82q102 0 162.5 -74t60.5 -201q0 -126 -45.5 -233t-122 -168.5t-164.5 -61.5q-92 0 -146 52t-54 140h57q3 -67 41.5 -102t105.5 -35zM356 677
q-89 0 -148 -64.5t-59 -156.5q0 -70 44 -114.5t118 -44.5q88 0 148.5 62t60.5 152q0 73 -45 119.5t-119 46.5z" />
    <glyph glyph-name="colon" unicode=":" horiz-adv-x="296" 
d="M119 348l14 87h87l-14 -87h-87zM64 0l14 87h87l-14 -87h-87z" />
    <glyph glyph-name="semicolon" unicode=";" horiz-adv-x="296" 
d="M119 348l14 87h87l-14 -87h-87zM64 0l14 87h87l-17 -108q-9 -57 -47.5 -93.5t-97.5 -36.5l7 40q75 0 89 90l3 21h-38z" />
    <glyph glyph-name="less" unicode="&#x3c;" 
d="M108 300l10 62l472 225l-10 -65l-409 -194l348 -192l-10 -62z" />
    <glyph glyph-name="equal" unicode="=" 
d="M102 387l9 55h496l-8 -55h-497zM74 207l8 54h497l-9 -54h-496z" />
    <glyph glyph-name="greater" unicode="&#x3e;" 
d="M567 300l-473 -226l11 66l409 193l-348 193l9 61l402 -225z" />
    <glyph glyph-name="question" unicode="?" horiz-adv-x="552" 
d="M544 549q0 -55 -31 -105t-55 -70t-79 -59q-9 -7 -13 -10q-27 -18 -41.5 -30t-30.5 -36.5t-23 -55.5h-59q11 53 44 92.5t93 81.5q32 23 47.5 35.5t41.5 38t37.5 54t11.5 62.5q0 54 -33.5 89.5t-106.5 35.5q-79 0 -131 -49t-69 -123h-56q17 96 87 161t174 65
q95 0 143.5 -51.5t48.5 -125.5zM169 0l14 87h87l-14 -87h-87z" />
    <glyph glyph-name="at" unicode="@" horiz-adv-x="913" 
d="M661 436l-69 -290q-3 -13 -3 -23q0 -44 49 -44q71 0 119.5 72.5t48.5 176.5q0 118 -82 190.5t-219 72.5q-93 0 -169.5 -35t-123.5 -92t-72.5 -127t-25.5 -144q0 -79 29.5 -141t79.5 -98.5t111 -55t130 -18.5q122 0 222 42l15 -42q-113 -48 -240 -48q-107 0 -195.5 37
t-146.5 120t-58 201q0 188 127 319.5t320 131.5q158 0 255 -88t97 -224q0 -124 -69.5 -209.5t-161.5 -85.5q-39 0 -65.5 19t-32.5 53q-20 -30 -54 -49.5t-73 -19.5q-65 0 -100 43.5t-35 110.5q0 92 59.5 173t158.5 81q39 0 67 -21t37 -48l15 60h55zM553 210q16 66 16 92
q0 45 -23 68.5t-60 23.5q-70 0 -115 -64t-45 -137q0 -49 23.5 -76.5t66.5 -27.5q42 0 82 31.5t55 89.5z" />
    <glyph glyph-name="A" unicode="A" horiz-adv-x="690" 
d="M568 0l-49 213h-354l-122 -213h-63l412 714h68l170 -714h-62zM416 651l-221 -386h312l-89 386h-2z" />
    <glyph glyph-name="B" unicode="B" horiz-adv-x="667" 
d="M333 0h-272l113 714h236q107 0 162 -42.5t55 -123.5q0 -65 -40.5 -116t-98.5 -66q60 -14 91 -52.5t31 -93.5q0 -103 -76.5 -161.5t-200.5 -58.5zM182 392h186q198 0 198 156q0 112 -155 112h-186zM174 340l-45 -286h212q100 0 154.5 45t54.5 116q0 59 -42.5 92t-123.5 33
h-210z" />
    <glyph glyph-name="C" unicode="C" horiz-adv-x="675" 
d="M340 -12q-125 0 -198.5 84.5t-73.5 220.5q0 116 45 214.5t129 158.5t190 60q108 0 169.5 -58t66.5 -153h-61q-3 68 -48 112t-131 44q-134 0 -215.5 -110t-81.5 -270q0 -112 55 -180t158 -68q158 0 213 156h63q-32 -98 -102.5 -154.5t-177.5 -56.5z" />
    <glyph glyph-name="D" unicode="D" horiz-adv-x="737" 
d="M173 714h237q136 0 213.5 -80.5t77.5 -217.5q0 -186 -114.5 -301t-284.5 -115h-242zM402 660h-177l-96 -606h181q147 0 237.5 100.5t90.5 260.5q0 115 -60 180t-176 65z" />
    <glyph glyph-name="E" unicode="E" horiz-adv-x="633" 
d="M60 0l113 714h466l-9 -54h-406l-44 -277h362l-9 -54h-362l-43 -275h404l-9 -54h-463z" />
    <glyph glyph-name="F" unicode="F" horiz-adv-x="606" 
d="M60 0l113 714h437l-8 -54h-377l-45 -284h346l-9 -54h-346l-51 -322h-60z" />
    <glyph glyph-name="G" unicode="G" horiz-adv-x="736" 
d="M340 -12q-125 0 -198.5 84.5t-73.5 220.5q0 116 45 214.5t129.5 158.5t190.5 60q109 0 171.5 -58.5t67.5 -153.5h-61q-3 68 -49 112.5t-133 44.5q-134 0 -216 -110t-82 -270q0 -112 55 -180.5t158 -68.5q105 0 176 65.5t85 191.5h-186l9 53h244l-56 -351h-49l13 128
q-29 -64 -96.5 -102.5t-143.5 -38.5z" />
    <glyph glyph-name="H" unicode="H" horiz-adv-x="767" 
d="M60 0l113 714h59l-51 -324h449l51 324h59l-113 -714h-59l53 336h-449l-53 -336h-59z" />
    <glyph glyph-name="I" unicode="I" horiz-adv-x="259" 
d="M173 714h59l-113 -714h-59z" />
    <glyph glyph-name="J" unicode="J" horiz-adv-x="544" 
d="M396 251l73 463h60l-73 -463q-19 -124 -82.5 -193.5t-167.5 -69.5q-99 0 -151 56.5t-52 152.5h56q0 -72 37 -115t111 -43q156 0 189 212z" />
    <glyph glyph-name="K" unicode="K" horiz-adv-x="692" 
d="M545 0l-248 359l-140 -119l-38 -240h-59l113 714h59l-64 -403l465 403h80l-371 -316l273 -398h-70z" />
    <glyph glyph-name="L" unicode="L" horiz-adv-x="615" 
d="M61 0l113 714h59l-104 -660h394l-9 -54h-453z" />
    <glyph glyph-name="M" unicode="M" horiz-adv-x="873" 
d="M424 0h-55l-144 662h-2l-105 -662h-58l113 714h98l136 -640h2l338 640h99l-113 -714h-56l105 662h-2z" />
    <glyph glyph-name="N" unicode="N" horiz-adv-x="746" 
d="M246 714l317 -608h2l96 608h58l-113 -714h-51l-332 642h-2l-102 -642h-59l113 714h73z" />
    <glyph glyph-name="O" unicode="O" horiz-adv-x="738" 
d="M430 726q125 0 199 -84.5t74 -220.5q0 -117 -43.5 -215t-127.5 -158t-191 -60q-125 0 -199 84.5t-74 220.5q0 117 43.5 215t127.5 158t191 60zM426 671q-135 0 -215 -109.5t-80 -270.5q0 -112 55.5 -180t158.5 -68q135 0 215 109.5t80 270.5q0 112 -55.5 180t-158.5 68z
" />
    <glyph glyph-name="P" unicode="P" horiz-adv-x="640" 
d="M355 301h-188l-48 -301h-59l113 714h247q102 0 157 -45t55 -129q0 -113 -75 -176t-202 -63zM175 355h191q96 0 150 45t54 135q0 125 -156 125h-190z" />
    <glyph glyph-name="Q" unicode="Q" horiz-adv-x="738" 
d="M595 -15l-41 -34l-58 75q-70 -38 -155 -38q-125 0 -199 84.5t-74 220.5q0 117 43.5 215t127.5 158t191 60q125 0 199 -84.5t74 -220.5q0 -114 -42.5 -211t-119.5 -155zM131 291q0 -112 55.5 -180t158.5 -68q64 0 116 26l-77 99l43 35l81 -105q63 50 97.5 136t34.5 189
q0 112 -55.5 180t-158.5 68q-135 0 -215 -109.5t-80 -270.5z" />
    <glyph glyph-name="R" unicode="R" horiz-adv-x="676" 
d="M119 0h-59l113 714h258q103 0 157.5 -48t54.5 -137q0 -92 -63.5 -151t-142.5 -68l155 -310h-63l-150 302h-212zM175 355h201q93 0 150 45.5t57 128.5q0 64 -40.5 97.5t-119.5 33.5h-199z" />
    <glyph glyph-name="S" unicode="S" horiz-adv-x="639" 
d="M33 209h59q5 -87 64.5 -127.5t150.5 -40.5q88 0 147.5 47t59.5 116q0 43 -27.5 70.5t-90.5 42.5l-133 33q-154 38 -154 153q0 94 73.5 158.5t186.5 64.5q109 0 173 -50.5t66 -137.5h-58q-2 62 -53 98.5t-132 36.5q-93 0 -145 -49.5t-52 -117.5q0 -41 27.5 -64.5
t88.5 -38.5l137 -34q152 -38 152 -153q0 -96 -77 -162t-195 -66q-114 0 -190.5 57.5t-77.5 163.5z" />
    <glyph glyph-name="T" unicode="T" horiz-adv-x="685" 
d="M273 0l105 660h-272l8 54h603l-8 -54h-272l-105 -660h-59z" />
    <glyph glyph-name="U" unicode="U" horiz-adv-x="736" 
d="M654 293q-22 -146 -105.5 -225.5t-216.5 -79.5q-115 0 -179 61t-64 174q0 35 6 72l66 419h59l-68 -430q-5 -37 -5 -60q0 -91 49.5 -136.5t138.5 -45.5q101 0 169.5 60.5t87.5 181.5l68 430h57z" />
    <glyph glyph-name="V" unicode="V" horiz-adv-x="695" 
d="M260 0l-167 714h60l149 -656h2l381 656h64l-419 -714h-70z" />
    <glyph glyph-name="W" unicode="W" horiz-adv-x="955" 
d="M595 0l-55 639h-2l-292 -639h-70l-73 714h59l60 -643h2l294 643h69l57 -643h2l293 643h60l-333 -714h-71z" />
    <glyph glyph-name="X" unicode="X" horiz-adv-x="687" 
d="M559 0l-203 336l-303 -336h-73l345 378l-205 336h68l177 -296l263 296h73l-306 -335l232 -379h-68z" />
    <glyph glyph-name="Y" unicode="Y" horiz-adv-x="641" 
d="M310 0h-59l47 298l-205 416h63l179 -361h3l287 361h69l-337 -416z" />
    <glyph glyph-name="Z" unicode="Z" horiz-adv-x="659" 
d="M664 664l-560 -610h465l-9 -54h-543l7 43l564 617h-449l8 54h525z" />
    <glyph glyph-name="bracketleft" unicode="[" horiz-adv-x="386" 
d="M233 687l-118 -746h147l-7 -49h-202l134 844h200l-7 -49h-147z" />
    <glyph glyph-name="backslash" unicode="\" horiz-adv-x="490" 
d="M131 736h54l194 -844h-55z" />
    <glyph glyph-name="bracketright" unicode="]" horiz-adv-x="386" 
d="M173 -59l118 746h-147l7 49h202l-134 -844h-200l7 49h147z" />
    <glyph glyph-name="asciicircum" unicode="^" horiz-adv-x="422" 
d="M263 726h44l124 -239h-57l-94 183l-152 -183h-63z" />
    <glyph glyph-name="underscore" unicode="_" horiz-adv-x="436" 
d="M-25 -111l9 53h370l-8 -53h-371z" />
    <glyph glyph-name="grave" unicode="`" horiz-adv-x="565" 
d="M405 582h-35l-83 154h78z" />
    <glyph glyph-name="a" unicode="a" horiz-adv-x="539" 
d="M361 0q-3 41 5 89q-23 -44 -75 -72t-109 -28q-62 0 -104 34.5t-42 92.5q0 69 48.5 112t139.5 53l177 21q8 48 8 66q0 93 -112 93q-56 0 -96 -27t-53 -74h-57q18 72 77.5 112t133.5 40q77 0 120.5 -35t43.5 -99q0 -16 -6 -57l-36 -228q-7 -41 -5 -93h-58zM385 199l8 54
l-158 -18q-70 -8 -105 -32.5t-35 -82.5q0 -37 25 -59.5t72 -22.5q71 0 126.5 42.5t66.5 118.5z" />
    <glyph glyph-name="b" unicode="b" horiz-adv-x="605" 
d="M127 103l-16 -103h-55l117 736h59l-53 -329q64 105 180 105q85 0 138.5 -56t53.5 -155q0 -127 -73 -220t-184 -93q-61 0 -107 34.5t-60 80.5zM352 463q-80 0 -133 -56t-69 -151q-6 -45 -6 -62q0 -71 40.5 -114t109.5 -43q90 0 144.5 77.5t54.5 186.5q0 75 -36.5 118.5
t-104.5 43.5z" />
    <glyph glyph-name="c" unicode="c" horiz-adv-x="524" 
d="M54 200q0 133 76.5 222.5t189.5 89.5q75 0 121 -44t47 -119h-54q-4 55 -35 83.5t-83 28.5q-90 0 -147.5 -75t-57.5 -184q0 -75 37 -119t97 -44q116 0 157 112h55q-24 -78 -79.5 -120.5t-132.5 -42.5q-85 0 -138 58.5t-53 153.5z" />
    <glyph glyph-name="d" unicode="d" horiz-adv-x="605" 
d="M473 400l54 336h58l-116 -735h-54l15 97q-27 -45 -75 -77.5t-110 -32.5q-85 0 -138 56.5t-53 155.5q0 128 72.5 221t183.5 93q61 0 105 -33.5t58 -80.5zM253 37q79 0 132 57t69 152q6 43 6 62q0 71 -40.5 114t-109.5 43q-90 0 -144.5 -77.5t-54.5 -187.5q0 -75 37 -119
t105 -44z" />
    <glyph glyph-name="e" unicode="e" horiz-adv-x="547" 
d="M472 142q-27 -76 -87 -115t-130 -39q-93 0 -147.5 56.5t-54.5 154.5q0 133 77.5 223t188.5 90q87 0 132 -54t45 -144q0 -35 -8 -78h-377q-2 -22 -2 -35q0 -77 40.5 -119.5t112.5 -42.5q103 0 155 103h55zM313 461q-68 0 -121.5 -48.5t-72.5 -128.5h318q2 13 2 30
q0 70 -31.5 108.5t-94.5 38.5z" />
    <glyph glyph-name="f" unicode="f" horiz-adv-x="297" 
d="M139 453h-74l7 47h74l18 111q10 63 50.5 95.5t96.5 32.5q25 0 53 -6l-8 -49q-26 4 -50 4q-73 0 -85 -76l-18 -112h111l-7 -47h-111l-72 -453h-57z" />
    <glyph glyph-name="g" unicode="g" horiz-adv-x="605" 
d="M415 30l13 81q-28 -44 -74.5 -74.5t-108.5 -30.5q-85 0 -138.5 55t-53.5 150q0 123 73 212t184 89q61 0 106.5 -34.5t60.5 -80.5l16 103h55l-75 -472q-18 -113 -84 -165.5t-167 -52.5q-84 0 -137.5 35.5t-57.5 104.5h58q10 -91 139 -91q84 0 130.5 41.5t60.5 129.5z
M454 255q6 42 6 59q0 68 -41.5 108.5t-108.5 40.5q-90 0 -144.5 -73.5t-54.5 -178.5q0 -71 37 -112.5t105 -41.5q79 0 132 53.5t69 144.5z" />
    <glyph glyph-name="h" unicode="h" horiz-adv-x="585" 
d="M232 736l-53 -329q25 50 70.5 77.5t104.5 27.5q74 0 114.5 -39t40.5 -109q0 -19 -3 -40l-51 -324h-59l49 312q4 30 4 42q0 109 -110 109q-68 0 -116.5 -45t-63.5 -139l-44 -279h-59l117 736h59z" />
    <glyph glyph-name="i" unicode="i" horiz-adv-x="251" 
d="M146 615l14 88h71l-14 -88h-71zM135 500h59l-79 -500h-59z" />
    <glyph glyph-name="j" unicode="j" horiz-adv-x="251" 
d="M146 615l14 88h71l-14 -88h-71zM-25 -184q-23 0 -43 9l8 48q20 -6 33 -6q34 0 50.5 16t23.5 58l88 559h59l-87 -553q-10 -66 -42 -98.5t-90 -32.5z" />
    <glyph glyph-name="k" unicode="k" horiz-adv-x="540" 
d="M404 0l-173 255l-87 -71l-29 -184h-59l117 736h59l-77 -485l301 249h77l-259 -212l197 -288h-67z" />
    <glyph glyph-name="l" unicode="l" horiz-adv-x="251" 
d="M115 0h-59l117 736h59z" />
    <glyph glyph-name="m" unicode="m" horiz-adv-x="891" 
d="M349 512q123 0 137 -111q66 111 183 111q73 0 110 -37.5t37 -105.5q0 -24 -4 -45l-51 -324h-59l49 312q4 24 4 49q0 102 -99 102q-65 0 -112 -47t-61 -137l-44 -279h-59l49 312q4 24 4 48q0 103 -100 103q-65 0 -112 -46.5t-62 -137.5l-44 -279h-59l79 500h55l-15 -95
q26 50 72.5 78.5t101.5 28.5z" />
    <glyph glyph-name="n" unicode="n" horiz-adv-x="585" 
d="M190 500l-15 -95q25 50 72.5 78.5t106.5 28.5q74 0 114.5 -39t40.5 -109q0 -19 -3 -40l-51 -324h-59l49 312q4 30 4 42q0 109 -110 109q-68 0 -116.5 -45t-63.5 -139l-44 -279h-59l79 500h55z" />
    <glyph glyph-name="o" unicode="o" horiz-adv-x="572" 
d="M253 -12q-90 0 -144.5 57.5t-54.5 156.5q0 129 75 219.5t189 90.5q90 0 144.5 -57.5t54.5 -156.5q0 -129 -75 -219.5t-189 -90.5zM258 39q91 0 146.5 75t55.5 184q0 76 -39 119.5t-108 43.5q-91 0 -146.5 -75t-55.5 -184q0 -76 39 -119.5t108 -43.5z" />
    <glyph glyph-name="p" unicode="p" horiz-adv-x="605" 
d="M131 101l-44 -279h-59l107 678h55l-15 -96q27 45 74 76.5t110 31.5q85 0 138.5 -56t53.5 -155q0 -127 -73 -220t-184 -93q-61 0 -105 33.5t-58 79.5zM352 463q-80 0 -133 -56t-69 -151q-6 -45 -6 -62q0 -71 40.5 -114t109.5 -43q90 0 144.5 77.5t54.5 186.5
q0 75 -36.5 118.5t-104.5 43.5z" />
    <glyph glyph-name="q" unicode="q" horiz-adv-x="605" 
d="M477 397l16 103h55l-107 -678h-59l43 271q-64 -105 -180 -105q-85 0 -138.5 56t-53.5 155q0 127 73 220t184 93q61 0 107 -34.5t60 -80.5zM252 37q80 0 133 56t69 151q6 45 6 62q0 71 -40.5 114t-109.5 43q-90 0 -144.5 -77.5t-54.5 -186.5q0 -75 36.5 -118.5
t104.5 -43.5z" />
    <glyph glyph-name="r" unicode="r" horiz-adv-x="370" 
d="M394 508l-9 -53q-15 4 -39 4q-65 0 -120 -53.5t-71 -150.5l-40 -255h-59l79 500h55l-19 -122q25 62 75 98t108 36q23 0 40 -4z" />
    <glyph glyph-name="s" unicode="s" horiz-adv-x="483" 
d="M19 146h56q-1 -56 41.5 -82.5t104.5 -26.5q61 0 99 30.5t38 73.5q0 52 -79 74l-89 25q-54 16 -83 43t-29 75q0 66 52 110t134 44q75 0 126.5 -34t53.5 -105h-54q-4 45 -39 67.5t-92 22.5q-58 0 -92 -29t-34 -74q0 -28 19.5 -43t62.5 -27l96 -27q103 -29 103 -113
q0 -70 -56 -116t-142 -46q-54 0 -96 15t-71 51.5t-30 91.5z" />
    <glyph glyph-name="t" unicode="t" horiz-adv-x="359" 
d="M284 59l-7 -51q-44 -16 -81 -16q-54 0 -84 25.5t-30 76.5q0 14 3 30l52 329h-75l7 47h76l23 129h56l-21 -129h138l-7 -47h-140l-53 -334q-2 -14 -2 -20q0 -56 66 -56q32 0 79 16z" />
    <glyph glyph-name="u" unicode="u" horiz-adv-x="579" 
d="M388 0l15 95q-25 -50 -70.5 -78.5t-104.5 -28.5q-72 0 -112.5 39t-40.5 109q0 19 3 40l51 324h59l-49 -312q-4 -30 -4 -42q0 -109 108 -109q67 0 114 45t62 139l44 279h59l-79 -500h-55z" />
    <glyph glyph-name="v" unicode="v" horiz-adv-x="527" 
d="M173 0l-100 500h58l83 -442h3l254 442h61l-294 -500h-65z" />
    <glyph glyph-name="w" unicode="w" horiz-adv-x="742" 
d="M435 500l38 -433h2l215 433h57l-255 -500h-62l-40 430h-2l-207 -430h-64l-44 500h56l35 -433h2l206 433h63z" />
    <glyph glyph-name="x" unicode="x" horiz-adv-x="543" 
d="M71 0h-65l238 259l-138 241h63l113 -200l183 200h65l-222 -241l149 -259h-63l-123 218z" />
    <glyph glyph-name="y" unicode="y" horiz-adv-x="527" 
d="M178 -4l-105 504h59l85 -434h2l251 434h62l-307 -519q-54 -92 -96.5 -129.5t-102.5 -37.5q-25 0 -43 9l8 50q23 -8 40 -8q40 0 72 29t75 102z" />
    <glyph glyph-name="z" unicode="z" horiz-adv-x="512" 
d="M486 455l-388 -408h325l-7 -47h-399l6 38l390 415h-302l7 47h375z" />
    <glyph glyph-name="braceleft" unicode="{" horiz-adv-x="424" 
d="M56 289l8 50h55q50 0 58 53l39 245q15 99 121 99h90l-8 -49h-85q-29 0 -44 -9t-20 -38l-39 -248q-9 -63 -72 -78q49 -13 49 -58q0 -21 -21 -144.5t-21 -136.5q0 -20 12.5 -27t37.5 -7h85l-8 -49h-90q-91 0 -91 72q0 25 20.5 149t20.5 138q0 38 -42 38h-55z" />
    <glyph glyph-name="bar" unicode="|" horiz-adv-x="293" 
d="M196 736h55l-134 -844h-55z" />
    <glyph glyph-name="braceright" unicode="}" horiz-adv-x="424" 
d="M388 339l-8 -50h-55q-50 0 -58 -53l-39 -245q-15 -99 -121 -99h-90l8 49h85q29 0 44 9t20 38l39 248q9 63 72 78q-49 13 -49 58q0 21 21 144.5t21 136.5q0 20 -12.5 27t-37.5 7h-85l8 49h90q91 0 91 -72q0 -25 -20.5 -149t-20.5 -138q0 -38 42 -38h55z" />
    <glyph glyph-name="asciitilde" unicode="~" horiz-adv-x="489" 
d="M189 319q-41 0 -58 -77h-46q9 59 37 94t71 35q21 0 39.5 -12t30 -26t26 -26t27.5 -12q41 0 58 77h47q-9 -59 -37.5 -94t-71.5 -35q-21 0 -39.5 12t-30 26t-26 26t-27.5 12z" />
    <glyph glyph-name="uni00A0" unicode="&#xa0;" horiz-adv-x="220" 
 />
    <glyph glyph-name="exclamdown" unicode="&#xa1;" horiz-adv-x="296" 
d="M264 714l-14 -87h-87l14 87h87zM142 0h-70l93 507h45z" />
    <glyph glyph-name="cent" unicode="&#xa2;" horiz-adv-x="530" 
d="M460 154q-24 -76 -76.5 -118t-124.5 -45l-17 -97h-50l18 100q-70 13 -111 68.5t-41 140.5q0 126 69.5 215t174.5 98l21 122h50l-22 -123q64 -8 101 -50.5t38 -110.5h-53q-3 48 -28.5 77t-65.5 35l-75 -425q98 9 137 113h55zM117 205q0 -66 27 -108.5t74 -53.5l75 423
q-80 -12 -128 -85.5t-48 -175.5z" />
    <glyph glyph-name="sterling" unicode="&#xa3;" horiz-adv-x="624" 
d="M538 54l-9 -54h-504l9 54h11q60 0 104 62.5t44 145.5q0 20 -3 40h-98l8 51h77q-1 4 -8 25.5t-9 29.5t-6.5 25.5t-6 32.5t-1.5 31q0 91 65 160t177 69q99 0 153 -55.5t54 -141.5q0 -9 -2 -29h-56q1 10 1 18q0 67 -38 110.5t-112 43.5q-84 0 -133 -47t-49 -125
q0 -23 4.5 -45.5t14.5 -57t13 -44.5h221l-8 -51h-203q3 -18 3 -37q0 -135 -104 -211h391z" />
    <glyph glyph-name="yen" unicode="&#xa5;" horiz-adv-x="649" 
d="M552 164h-212l-26 -164h-58l26 164h-214l8 51h214l16 100h-213l8 52h187l-180 347h63l173 -335h2l270 335h71l-289 -347h188l-8 -52h-214l-16 -100h212z" />
    <glyph glyph-name="section" unicode="&#xa7;" horiz-adv-x="559" 
d="M406 37q0 -74 -51 -125t-141 -51q-76 0 -125 39t-49 110h54q0 -44 33.5 -71.5t89.5 -27.5q63 0 98 33.5t35 82.5t-58 89l-103 71q-53 37 -76.5 66.5t-23.5 68.5q0 92 97 149q-30 33 -30 79q0 73 50.5 124.5t139.5 51.5q77 0 125 -36.5t48 -102.5h-54q0 42 -33 65.5
t-89 23.5q-64 0 -98 -32.5t-34 -83.5q0 -48 60 -89l102 -71q54 -37 77.5 -66t23.5 -66q0 -93 -97 -153q29 -32 29 -78zM315 166q25 -18 27 -19q33 15 56 44t23 67q0 25 -17.5 47t-60.5 51l-95 65q-23 16 -28 20q-33 -15 -55.5 -43.5t-22.5 -66.5q0 -27 17 -48.5t60 -50.5z
" />
    <glyph glyph-name="dieresis" unicode="&#xa8;" horiz-adv-x="565" 
d="M393 615l14 88h66l-14 -88h-66zM220 615l14 88h66l-14 -88h-66z" />
    <glyph glyph-name="copyright" unicode="&#xa9;" horiz-adv-x="879" 
d="M825 356q0 -152 -108 -260t-261 -108t-261.5 108t-108.5 260q0 154 108.5 262.5t261.5 108.5t261 -108.5t108 -262.5zM130 356q0 -134 95.5 -229.5t230.5 -95.5t230.5 95.5t95.5 229.5q0 136 -95.5 232t-230.5 96t-230.5 -96t-95.5 -232zM321 358q0 -75 36.5 -120
t104.5 -45q98 0 116 85h56q-12 -64 -55.5 -102t-116.5 -38q-87 0 -143.5 61t-56.5 159t56.5 159t143.5 61q73 0 116.5 -37.5t55.5 -102.5h-56q-8 37 -36 61.5t-80 24.5q-67 0 -104 -45.5t-37 -120.5z" />
    <glyph glyph-name="ordfeminine" unicode="&#xaa;" horiz-adv-x="392" 
d="M301 386q-1 22 3 56q-16 -29 -49.5 -46.5t-71.5 -17.5q-42 0 -69.5 23t-27.5 62q0 47 33 75t95 35l112 13q5 34 5 39q0 57 -68 57q-70 0 -87 -62h-52q13 50 51 78t91 28q55 0 86 -25t31 -70q0 -7 -2 -23l-24 -154q-5 -30 -5 -68h-51zM315 516l5 32l-95 -11
q-43 -6 -64 -20.5t-21 -49.5q0 -22 15 -35.5t43 -13.5q43 0 76.5 26t40.5 72zM52 258l7 43h280l-7 -43h-280z" />
    <glyph glyph-name="guillemotleft" unicode="&#xab;" horiz-adv-x="491" 
d="M394 46h-45l-101 191l158 192h49l-138 -192zM209 46h-45l-101 191l158 192h49l-138 -192z" />
    <glyph glyph-name="registered" unicode="&#xae;" horiz-adv-x="576" 
d="M326 726q97 0 164 -66t67 -165q0 -100 -67 -166t-164 -66q-96 0 -163 66t-67 166q0 99 67 165t163 66zM326 293q84 0 141 57.5t57 144.5t-57.5 144t-140.5 57t-140.5 -57t-57.5 -144t57.5 -144.5t140.5 -57.5zM281 376h-44v245h102q88 0 88 -76q0 -54 -50 -70l60 -99h-48
l-55 91h-53v-91zM281 504h53q50 0 50 41q0 40 -50 40h-53v-81z" />
    <glyph glyph-name="macron" unicode="&#xaf;" horiz-adv-x="565" 
d="M202 615l8 50h274l-8 -50h-274z" />
    <glyph glyph-name="degree" unicode="&#xb0;" horiz-adv-x="356" 
d="M94 580q0 58 45 102t107 44q55 0 89.5 -34.5t34.5 -89.5q0 -59 -44.5 -102.5t-107.5 -43.5q-55 0 -89.5 34.5t-34.5 89.5zM140 580q0 -35 22.5 -56.5t59.5 -21.5q41 0 71.5 27.5t30.5 72.5q0 34 -23 56t-59 22q-41 0 -71.5 -27.5t-30.5 -72.5z" />
    <glyph glyph-name="twosuperior" unicode="&#xb2;" horiz-adv-x="345" 
d="M366 622q0 -29 -10.5 -52t-36 -44t-42 -31.5t-54.5 -32.5q-48 -28 -75.5 -50t-31.5 -44h216l-8 -45h-274l4 23q5 34 31 65.5t52 49.5t66 41q58 32 85 57.5t27 60.5q0 25 -16 41t-50 16q-37 0 -63 -24t-34 -59h-52q12 55 52.5 91.5t100.5 36.5q54 0 83.5 -28.5t29.5 -71.5
z" />
    <glyph glyph-name="threesuperior" unicode="&#xb3;" horiz-adv-x="370" 
d="M353 439q0 -48 -40 -85.5t-110 -37.5q-61 0 -98 32.5t-37 88.5h53q0 -37 22.5 -57.5t62.5 -20.5q44 0 70 23.5t26 57.5q0 28 -19 43t-54 15h-41l7 43h40q37 0 61 21t24 58q0 26 -17.5 42.5t-50.5 16.5q-39 0 -63.5 -20.5t-31.5 -55.5h-51q12 53 51 86.5t99 33.5
q56 0 86.5 -28.5t30.5 -70.5q0 -40 -26 -69.5t-61 -35.5q30 -6 48.5 -28t18.5 -52z" />
    <glyph glyph-name="acute" unicode="&#xb4;" horiz-adv-x="565" 
d="M263 582l81 154h84l-127 -154h-38z" />
    <glyph glyph-name="paragraph" unicode="&#xb6;" horiz-adv-x="597" 
d="M213 -127l73 465q-101 0 -153.5 41.5t-52.5 117.5q0 101 71.5 159t194.5 58h224l-133 -841h-57l124 784h-109l-124 -784h-58z" />
    <glyph glyph-name="periodcentered" unicode="&#xb7;" horiz-adv-x="259" 
d="M84 237l14 87h87l-14 -87h-87z" />
    <glyph glyph-name="cedilla" unicode="&#xb8;" horiz-adv-x="565" 
d="M307 -103q0 -38 -35.5 -62.5t-80.5 -24.5q-52 0 -85 19l7 43q35 -21 79 -21q30 0 49 11t19 31q0 29 -47 29q-19 0 -40 -7l-15 19l74 96h39l-58 -72q8 2 20 2q29 0 51.5 -15.5t22.5 -47.5z" />
    <glyph glyph-name="onesuperior" unicode="&#xb9;" horiz-adv-x="327" 
d="M321 366l-7 -43h-261l7 43h103l40 251h-101l6 40q67 0 92.5 13t38.5 46h33l-55 -350h104z" />
    <glyph glyph-name="ordmasculine" unicode="&#xba;" horiz-adv-x="414" 
d="M231 377q-62 0 -100 38.5t-38 104.5q0 87 51 146.5t129 59.5q63 0 100.5 -38.5t37.5 -105.5q0 -86 -51 -145.5t-129 -59.5zM270 682q-56 0 -89.5 -47.5t-33.5 -115.5q0 -46 23.5 -72.5t64.5 -26.5q56 0 89.5 48t32.5 116q1 46 -22.5 72t-64.5 26zM65 258l7 43h280l-7 -43
h-280z" />
    <glyph glyph-name="guillemotright" unicode="&#xbb;" horiz-adv-x="491" 
d="M93 429h45l101 -191l-158 -192h-49l138 192zM278 429h45l101 -191l-158 -192h-49l138 192z" />
    <glyph glyph-name="onequarter" unicode="&#xbc;" horiz-adv-x="881" 
d="M184 -12h-60l633 739h60zM351 366l-7 -43h-261l7 43h103l40 251h-101l6 40q67 0 92.5 13t38.5 46h33l-55 -350h104zM786 391l-41 -251h83l-6 -42h-83l-15 -98h-52l15 98h-195l7 43l226 250h61zM725 337l-175 -197h143z" />
    <glyph glyph-name="onehalf" unicode="&#xbd;" horiz-adv-x="888" 
d="M194 -12h-60l633 739h60zM351 366l-7 -43h-261l7 43h103l40 251h-101l6 40q67 0 92.5 13t38.5 46h33l-55 -350h104zM859 299q0 -29 -10.5 -52t-36 -44t-42 -31.5t-54.5 -32.5q-48 -28 -75.5 -50t-31.5 -44h216l-8 -45h-274l4 23q5 34 31 65.5t52 49.5t66 41
q58 32 85 57.5t27 60.5q0 25 -16 41t-50 16q-37 0 -63 -24t-34 -59h-52q12 55 52.5 91.5t100.5 36.5q54 0 83.5 -28.5t29.5 -71.5z" />
    <glyph glyph-name="threequarters" unicode="&#xbe;" horiz-adv-x="910" 
d="M213 -12h-60l633 739h60zM383 439q0 -48 -40 -85.5t-110 -37.5q-61 0 -98 32.5t-37 88.5h53q0 -37 22.5 -57.5t62.5 -20.5q44 0 70 23.5t26 57.5q0 28 -19 43t-54 15h-41l7 43h40q37 0 61 21t24 58q0 26 -17.5 42.5t-50.5 16.5q-39 0 -63.5 -20.5t-31.5 -55.5h-51
q12 53 51 86.5t99 33.5q56 0 86.5 -28.5t30.5 -70.5q0 -40 -26 -69.5t-61 -35.5q30 -6 48.5 -28t18.5 -52zM815 391l-41 -251h83l-6 -42h-83l-15 -98h-52l15 98h-195l7 43l226 250h61zM754 337l-175 -197h143z" />
    <glyph glyph-name="questiondown" unicode="&#xbf;" horiz-adv-x="552" 
d="M416 714l-14 -87h-87l14 87h87zM41 165q0 55 31 105t55 70t79 59q9 7 13 10q27 18 41.5 30t30.5 36.5t23 55.5h59q-11 -53 -44 -92.5t-93 -81.5q-32 -23 -47.5 -35.5t-41.5 -38t-37.5 -54t-11.5 -62.5q0 -54 33.5 -89.5t106.5 -35.5q79 0 131 49t69 123h56
q-17 -96 -87 -161t-174 -65q-95 0 -143.5 51.5t-48.5 125.5z" />
    <glyph glyph-name="Agrave" unicode="&#xc0;" horiz-adv-x="690" 
d="M449 770h-35l-88 143h83zM568 0l-49 213h-354l-122 -213h-63l412 714h68l170 -714h-62zM416 651l-221 -386h312l-89 386h-2z" />
    <glyph glyph-name="Aacute" unicode="&#xc1;" horiz-adv-x="690" 
d="M412 770l81 143h85l-128 -143h-38zM568 0l-49 213h-354l-122 -213h-63l412 714h68l170 -714h-62zM416 651l-221 -386h312l-89 386h-2z" />
    <glyph glyph-name="Acircumflex" unicode="&#xc2;" horiz-adv-x="690" 
d="M409 913h76l75 -146h-39l-78 99l-116 -99h-41zM568 0l-49 213h-354l-122 -213h-63l412 714h68l170 -714h-62zM416 651l-221 -386h312l-89 386h-2z" />
    <glyph glyph-name="Atilde" unicode="&#xc3;" horiz-adv-x="690" 
d="M376 849q-42 0 -57 -77h-44q9 59 37.5 94t71.5 35q26 0 49 -19t42 -38t35 -19q41 0 58 77h43q-9 -59 -37.5 -94t-71.5 -35q-26 0 -48.5 19t-41.5 38t-36 19zM568 0l-49 213h-354l-122 -213h-63l412 714h68l170 -714h-62zM416 651l-221 -386h312l-89 386h-2z" />
    <glyph glyph-name="Adieresis" unicode="&#xc4;" horiz-adv-x="690" 
d="M490 791l14 88h66l-14 -88h-66zM317 791l14 88h66l-14 -88h-66zM568 0l-49 213h-354l-122 -213h-63l412 714h68l170 -714h-62zM416 651l-221 -386h312l-89 386h-2z" />
    <glyph glyph-name="Aring" unicode="&#xc5;" horiz-adv-x="690" 
d="M165 213l-122 -213h-63l392 679q-58 30 -58 94q0 52 38.5 92.5t95.5 40.5q46 0 77 -30.5t31 -74.5q0 -40 -24 -75t-63 -50l161 -676h-62l-49 213h-354zM442 859q-35 0 -57 -24t-22 -56q0 -28 18.5 -46t46.5 -18q35 0 57 24t22 56q0 28 -18.5 46t-46.5 18zM416 651
l-221 -386h312l-89 386h-2z" />
    <glyph glyph-name="AE" unicode="&#xc6;" horiz-adv-x="1080" 
d="M508 0l34 213h-313l-180 -213h-69l605 714h502l-9 -54h-406l-44 -277h362l-9 -54h-362l-43 -275h404l-9 -54h-463zM614 669l-341 -404h277z" />
    <glyph glyph-name="Ccedilla" unicode="&#xc7;" horiz-adv-x="675" 
d="M376 -103q0 -38 -35.5 -62.5t-80.5 -24.5q-52 0 -85 19l7 43q34 -21 79 -21q30 0 49 11t19 31q0 29 -47 29q-19 0 -40 -7l-15 19l47 61q-96 22 -151 102t-55 196t45 214.5t129 158.5t190 60q108 0 169.5 -58t66.5 -153h-61q-3 68 -48 112t-131 44q-134 0 -215.5 -110
t-81.5 -270q0 -112 55 -180t158 -68q158 0 213 156h63q-32 -98 -102.5 -154.5t-177.5 -56.5q-11 0 -33 2l-25 -32q8 2 20 2q29 0 51.5 -15.5t22.5 -47.5z" />
    <glyph glyph-name="Egrave" unicode="&#xc8;" horiz-adv-x="633" 
d="M440 770h-35l-88 143h83zM60 0l113 714h466l-9 -54h-406l-44 -277h362l-9 -54h-362l-43 -275h404l-9 -54h-463z" />
    <glyph glyph-name="Eacute" unicode="&#xc9;" horiz-adv-x="633" 
d="M373 770l81 143h85l-128 -143h-38zM60 0l113 714h466l-9 -54h-406l-44 -277h362l-9 -54h-362l-43 -275h404l-9 -54h-463z" />
    <glyph glyph-name="Ecircumflex" unicode="&#xca;" horiz-adv-x="633" 
d="M404 913h76l75 -146h-39l-78 99l-116 -99h-41zM60 0l113 714h466l-9 -54h-406l-44 -277h362l-9 -54h-362l-43 -275h404l-9 -54h-463z" />
    <glyph glyph-name="Edieresis" unicode="&#xcb;" horiz-adv-x="633" 
d="M480 791l14 88h66l-14 -88h-66zM307 791l14 88h66l-14 -88h-66zM60 0l113 714h466l-9 -54h-406l-44 -277h362l-9 -54h-362l-43 -275h404l-9 -54h-463z" />
    <glyph glyph-name="Igrave" unicode="&#xcc;" horiz-adv-x="259" 
d="M233 770h-35l-88 143h83zM173 714h59l-113 -714h-59z" />
    <glyph glyph-name="Iacute" unicode="&#xcd;" horiz-adv-x="259" 
d="M196 770l81 143h85l-128 -143h-38zM173 714h59l-113 -714h-59z" />
    <glyph glyph-name="Icircumflex" unicode="&#xce;" horiz-adv-x="259" 
d="M195 913h76l75 -146h-39l-78 99l-116 -99h-41zM173 714h59l-113 -714h-59z" />
    <glyph glyph-name="Idieresis" unicode="&#xcf;" horiz-adv-x="259" 
d="M268 791l14 88h66l-14 -88h-66zM95 791l14 88h66l-14 -88h-66zM173 714h59l-113 -714h-59z" />
    <glyph glyph-name="Eth" unicode="&#xd0;" horiz-adv-x="747" 
d="M712 416q0 -186 -114.5 -301t-284.5 -115h-242l53 336h-86l9 54h86l51 324h237q136 0 213.5 -80.5t77.5 -217.5zM140 54h181q147 0 237.5 100.5t90.5 260.5q0 115 -60 180t-176 65h-177l-43 -270h166l-9 -54h-165z" />
    <glyph glyph-name="Ntilde" unicode="&#xd1;" horiz-adv-x="746" 
d="M394 849q-42 0 -57 -77h-44q9 59 37.5 94t71.5 35q26 0 49 -19t42 -38t35 -19q41 0 58 77h43q-9 -59 -37.5 -94t-71.5 -35q-26 0 -48.5 19t-41.5 38t-36 19zM246 714l317 -608h2l96 608h58l-113 -714h-51l-332 642h-2l-102 -642h-59l113 714h73z" />
    <glyph glyph-name="Ograve" unicode="&#xd2;" horiz-adv-x="738" 
d="M473 770h-35l-88 143h83zM430 726q125 0 199 -84.5t74 -220.5q0 -117 -43.5 -215t-127.5 -158t-191 -60q-125 0 -199 84.5t-74 220.5q0 117 43.5 215t127.5 158t191 60zM426 671q-135 0 -215 -109.5t-80 -270.5q0 -112 55.5 -180t158.5 -68q135 0 215 109.5t80 270.5
q0 112 -55.5 180t-158.5 68z" />
    <glyph glyph-name="Oacute" unicode="&#xd3;" horiz-adv-x="738" 
d="M416 770l81 143h85l-128 -143h-38zM430 726q125 0 199 -84.5t74 -220.5q0 -117 -43.5 -215t-127.5 -158t-191 -60q-125 0 -199 84.5t-74 220.5q0 117 43.5 215t127.5 158t191 60zM426 671q-135 0 -215 -109.5t-80 -270.5q0 -112 55.5 -180t158.5 -68q135 0 215 109.5
t80 270.5q0 112 -55.5 180t-158.5 68z" />
    <glyph glyph-name="Ocircumflex" unicode="&#xd4;" horiz-adv-x="738" 
d="M427 913h76l75 -146h-39l-78 99l-116 -99h-41zM430 726q125 0 199 -84.5t74 -220.5q0 -117 -43.5 -215t-127.5 -158t-191 -60q-125 0 -199 84.5t-74 220.5q0 117 43.5 215t127.5 158t191 60zM426 671q-135 0 -215 -109.5t-80 -270.5q0 -112 55.5 -180t158.5 -68
q135 0 215 109.5t80 270.5q0 112 -55.5 180t-158.5 68z" />
    <glyph glyph-name="Otilde" unicode="&#xd5;" horiz-adv-x="738" 
d="M390 849q-42 0 -57 -77h-44q9 59 37.5 94t71.5 35q26 0 49 -19t42 -38t35 -19q41 0 58 77h43q-9 -59 -37.5 -94t-71.5 -35q-26 0 -48.5 19t-41.5 38t-36 19zM430 726q125 0 199 -84.5t74 -220.5q0 -117 -43.5 -215t-127.5 -158t-191 -60q-125 0 -199 84.5t-74 220.5
q0 117 43.5 215t127.5 158t191 60zM426 671q-135 0 -215 -109.5t-80 -270.5q0 -112 55.5 -180t158.5 -68q135 0 215 109.5t80 270.5q0 112 -55.5 180t-158.5 68z" />
    <glyph glyph-name="Odieresis" unicode="&#xd6;" horiz-adv-x="738" 
d="M503 791l14 88h66l-14 -88h-66zM330 791l14 88h66l-14 -88h-66zM430 726q125 0 199 -84.5t74 -220.5q0 -117 -43.5 -215t-127.5 -158t-191 -60q-125 0 -199 84.5t-74 220.5q0 117 43.5 215t127.5 158t191 60zM426 671q-135 0 -215 -109.5t-80 -270.5q0 -112 55.5 -180
t158.5 -68q135 0 215 109.5t80 270.5q0 112 -55.5 180t-158.5 68z" />
    <glyph glyph-name="multiply" unicode="&#xd7;" 
d="M497 109l-157 186l-220 -189l-33 39l220 190l-157 185l41 35l156 -185l217 187l33 -40l-217 -187l157 -186z" />
    <glyph glyph-name="Oslash" unicode="&#xd8;" horiz-adv-x="738" 
d="M341 -12q-118 0 -193 78l-88 -96l-34 33l93 100q-51 79 -51 190q0 117 43.5 215t127.5 158t191 60q118 0 193 -78l81 87l33 -32l-85 -92q51 -79 51 -190q0 -117 -43.5 -215t-127.5 -158t-191 -60zM131 291q0 -83 30 -142l422 456q-57 66 -157 66q-135 0 -215 -109.5
t-80 -270.5zM640 423q0 83 -30 142l-422 -456q57 -66 157 -66q135 0 215 109.5t80 270.5z" />
    <glyph glyph-name="Ugrave" unicode="&#xd9;" horiz-adv-x="736" 
d="M472 770h-35l-88 143h83zM654 293q-22 -146 -105.5 -225.5t-216.5 -79.5q-115 0 -179 61t-64 174q0 35 6 72l66 419h59l-68 -430q-5 -37 -5 -60q0 -91 49.5 -136.5t138.5 -45.5q101 0 169.5 60.5t87.5 181.5l68 430h57z" />
    <glyph glyph-name="Uacute" unicode="&#xda;" horiz-adv-x="736" 
d="M406 770l81 143h85l-128 -143h-38zM654 293q-22 -146 -105.5 -225.5t-216.5 -79.5q-115 0 -179 61t-64 174q0 35 6 72l66 419h59l-68 -430q-5 -37 -5 -60q0 -91 49.5 -136.5t138.5 -45.5q101 0 169.5 60.5t87.5 181.5l68 430h57z" />
    <glyph glyph-name="Ucircumflex" unicode="&#xdb;" horiz-adv-x="736" 
d="M437 913h76l75 -146h-39l-78 99l-116 -99h-41zM654 293q-22 -146 -105.5 -225.5t-216.5 -79.5q-115 0 -179 61t-64 174q0 35 6 72l66 419h59l-68 -430q-5 -37 -5 -60q0 -91 49.5 -136.5t138.5 -45.5q101 0 169.5 60.5t87.5 181.5l68 430h57z" />
    <glyph glyph-name="Udieresis" unicode="&#xdc;" horiz-adv-x="736" 
d="M500 791l14 88h66l-14 -88h-66zM327 791l14 88h66l-14 -88h-66zM654 293q-22 -146 -105.5 -225.5t-216.5 -79.5q-115 0 -179 61t-64 174q0 35 6 72l66 419h59l-68 -430q-5 -37 -5 -60q0 -91 49.5 -136.5t138.5 -45.5q101 0 169.5 60.5t87.5 181.5l68 430h57z" />
    <glyph glyph-name="Yacute" unicode="&#xdd;" horiz-adv-x="641" 
d="M373 770l81 143h85l-128 -143h-38zM310 0h-59l47 298l-205 416h63l179 -361h3l287 361h69l-337 -416z" />
    <glyph glyph-name="Thorn" unicode="&#xde;" horiz-adv-x="640" 
d="M332 160h-188l-25 -160h-59l113 714h58l-22 -141h188q102 0 157 -45t55 -129q0 -113 -75 -176t-202 -63zM153 214h190q96 0 150 45t54 135q0 125 -156 125h-190z" />
    <glyph glyph-name="germandbls" unicode="&#xdf;" horiz-adv-x="604" 
d="M416 431q59 -13 96.5 -62t37.5 -117q0 -66 -24 -117.5t-64.5 -81.5t-87.5 -45t-97 -15q-32 0 -61 9l8 51q27 -9 53 -9q90 0 154 52.5t64 155.5q0 69 -42 111.5t-117 42.5h-40l9 53h40q69 0 111 37.5t42 97.5q0 45 -32.5 74.5t-84.5 29.5q-78 0 -124.5 -54t-60.5 -147
l-79 -497h-58l79 499q19 114 83 181.5t164 67.5q76 0 121.5 -42.5t45.5 -111.5q0 -62 -43.5 -107t-92.5 -56z" />
    <glyph glyph-name="agrave" unicode="&#xe0;" horiz-adv-x="539" 
d="M353 582h-35l-83 154h78zM361 0q-3 41 5 89q-23 -44 -75 -72t-109 -28q-62 0 -104 34.5t-42 92.5q0 69 48.5 112t139.5 53l177 21q8 48 8 66q0 93 -112 93q-56 0 -96 -27t-53 -74h-57q18 72 77.5 112t133.5 40q77 0 120.5 -35t43.5 -99q0 -16 -6 -57l-36 -228
q-7 -41 -5 -93h-58zM385 199l8 54l-158 -18q-70 -8 -105 -32.5t-35 -82.5q0 -37 25 -59.5t72 -22.5q71 0 126.5 42.5t66.5 118.5z" />
    <glyph glyph-name="aacute" unicode="&#xe1;" horiz-adv-x="539" 
d="M301 582l81 154h84l-127 -154h-38zM361 0q-3 41 5 89q-23 -44 -75 -72t-109 -28q-62 0 -104 34.5t-42 92.5q0 69 48.5 112t139.5 53l177 21q8 48 8 66q0 93 -112 93q-56 0 -96 -27t-53 -74h-57q18 72 77.5 112t133.5 40q77 0 120.5 -35t43.5 -99q0 -16 -6 -57l-36 -228
q-7 -41 -5 -93h-58zM385 199l8 54l-158 -18q-70 -8 -105 -32.5t-35 -82.5q0 -37 25 -59.5t72 -22.5q71 0 126.5 42.5t66.5 118.5z" />
    <glyph glyph-name="acircumflex" unicode="&#xe2;" horiz-adv-x="539" 
d="M318 736h72l60 -157h-39l-61 114l-113 -114h-41zM361 0q-3 41 5 89q-23 -44 -75 -72t-109 -28q-62 0 -104 34.5t-42 92.5q0 69 48.5 112t139.5 53l177 21q8 48 8 66q0 93 -112 93q-56 0 -96 -27t-53 -74h-57q18 72 77.5 112t133.5 40q77 0 120.5 -35t43.5 -99
q0 -16 -6 -57l-36 -228q-7 -41 -5 -93h-58zM385 199l8 54l-158 -18q-70 -8 -105 -32.5t-35 -82.5q0 -37 25 -59.5t72 -22.5q71 0 126.5 42.5t66.5 118.5z" />
    <glyph glyph-name="atilde" unicode="&#xe3;" horiz-adv-x="539" 
d="M274 672q-41 0 -57 -82h-44q9 59 37.5 94t71.5 35q26 0 48 -20t41 -40t37 -20q40 0 58 81h43q-9 -59 -37.5 -94t-71.5 -35q-20 0 -38.5 12.5t-30 28t-27 28t-30.5 12.5zM361 0q-3 41 5 89q-23 -44 -75 -72t-109 -28q-62 0 -104 34.5t-42 92.5q0 69 48.5 112t139.5 53
l177 21q8 48 8 66q0 93 -112 93q-56 0 -96 -27t-53 -74h-57q18 72 77.5 112t133.5 40q77 0 120.5 -35t43.5 -99q0 -16 -6 -57l-36 -228q-7 -41 -5 -93h-58zM385 199l8 54l-158 -18q-70 -8 -105 -32.5t-35 -82.5q0 -37 25 -59.5t72 -22.5q71 0 126.5 42.5t66.5 118.5z" />
    <glyph glyph-name="adieresis" unicode="&#xe4;" horiz-adv-x="539" 
d="M378 615l14 88h66l-14 -88h-66zM205 615l14 88h66l-14 -88h-66zM361 0q-3 41 5 89q-23 -44 -75 -72t-109 -28q-62 0 -104 34.5t-42 92.5q0 69 48.5 112t139.5 53l177 21q8 48 8 66q0 93 -112 93q-56 0 -96 -27t-53 -74h-57q18 72 77.5 112t133.5 40q77 0 120.5 -35
t43.5 -99q0 -16 -6 -57l-36 -228q-7 -41 -5 -93h-58zM385 199l8 54l-158 -18q-70 -8 -105 -32.5t-35 -82.5q0 -37 25 -59.5t72 -22.5q71 0 126.5 42.5t66.5 118.5z" />
    <glyph glyph-name="aring" unicode="&#xe5;" horiz-adv-x="539" 
d="M352 762q37 0 61.5 -24t23.5 -59q1 -41 -29.5 -73t-76.5 -32q-36 0 -60.5 24t-24.5 59q0 41 30 73t76 32zM336 615q26 0 42.5 18t15.5 41q1 20 -12.5 33.5t-34.5 13.5q-25 0 -41.5 -17.5t-16.5 -41.5q0 -20 13.5 -33.5t33.5 -13.5zM361 0q-3 41 5 89q-23 -44 -75 -72
t-109 -28q-62 0 -104 34.5t-42 92.5q0 69 48.5 112t139.5 53l177 21q8 48 8 66q0 93 -112 93q-56 0 -96 -27t-53 -74h-57q18 72 77.5 112t133.5 40q77 0 120.5 -35t43.5 -99q0 -16 -6 -57l-36 -228q-7 -41 -5 -93h-58zM385 199l8 54l-158 -18q-70 -8 -105 -32.5t-35 -82.5
q0 -37 25 -59.5t72 -22.5q71 0 126.5 42.5t66.5 118.5z" />
    <glyph glyph-name="ae" unicode="&#xe6;" horiz-adv-x="879" 
d="M804 142q-27 -76 -87 -115t-130 -39t-115.5 35.5t-64.5 97.5q-22 -51 -82 -91.5t-139 -40.5q-64 0 -106.5 36.5t-42.5 98.5q0 69 55.5 114.5t167.5 45.5h139l8 49q2 13 2 33q0 95 -113 95q-56 0 -95 -26.5t-52 -74.5h-57q18 72 75.5 112t131.5 40q68 0 109.5 -28
t49.5 -79q80 107 193 107q87 0 132 -54t45 -144q0 -35 -8 -78h-370q-2 -22 -2 -35q0 -78 37.5 -120t108.5 -42q103 0 155 103h55zM645 461q-68 0 -118.5 -48t-69.5 -129h312q2 13 2 30q0 70 -31.5 108.5t-94.5 38.5zM194 38q71 0 126 42.5t66 118.5l6 37h-141
q-157 0 -157 -111q0 -41 27 -64t73 -23z" />
    <glyph glyph-name="ccedilla" unicode="&#xe7;" horiz-adv-x="524" 
d="M299 -103q0 -38 -35.5 -62.5t-80.5 -24.5q-52 0 -85 19l7 43q35 -21 79 -21q30 0 49 11t19 31q0 29 -47 29q-19 0 -40 -7l-15 19l46 60q-65 16 -103.5 71t-38.5 135q0 133 76.5 222.5t189.5 89.5q75 0 121 -44t47 -119h-54q-4 55 -35 83.5t-83 28.5q-90 0 -147.5 -75
t-57.5 -184q0 -75 37 -119t97 -44q116 0 157 112h55q-24 -78 -79.5 -120.5t-132.5 -42.5q-10 0 -15 1l-25 -31q8 2 20 2q29 0 51.5 -15.5t22.5 -47.5z" />
    <glyph glyph-name="egrave" unicode="&#xe8;" horiz-adv-x="547" 
d="M366 582h-35l-83 154h78zM472 142q-27 -76 -87 -115t-130 -39q-93 0 -147.5 56.5t-54.5 154.5q0 133 77.5 223t188.5 90q87 0 132 -54t45 -144q0 -35 -8 -78h-377q-2 -22 -2 -35q0 -77 40.5 -119.5t112.5 -42.5q103 0 155 103h55zM313 461q-68 0 -121.5 -48.5
t-72.5 -128.5h318q2 13 2 30q0 70 -31.5 108.5t-94.5 38.5z" />
    <glyph glyph-name="eacute" unicode="&#xe9;" horiz-adv-x="547" 
d="M304 582l81 154h84l-127 -154h-38zM472 142q-27 -76 -87 -115t-130 -39q-93 0 -147.5 56.5t-54.5 154.5q0 133 77.5 223t188.5 90q87 0 132 -54t45 -144q0 -35 -8 -78h-377q-2 -22 -2 -35q0 -77 40.5 -119.5t112.5 -42.5q103 0 155 103h55zM313 461q-68 0 -121.5 -48.5
t-72.5 -128.5h318q2 13 2 30q0 70 -31.5 108.5t-94.5 38.5z" />
    <glyph glyph-name="ecircumflex" unicode="&#xea;" horiz-adv-x="547" 
d="M329 736h72l60 -157h-39l-61 114l-113 -114h-41zM472 142q-27 -76 -87 -115t-130 -39q-93 0 -147.5 56.5t-54.5 154.5q0 133 77.5 223t188.5 90q87 0 132 -54t45 -144q0 -35 -8 -78h-377q-2 -22 -2 -35q0 -77 40.5 -119.5t112.5 -42.5q103 0 155 103h55zM313 461
q-68 0 -121.5 -48.5t-72.5 -128.5h318q2 13 2 30q0 70 -31.5 108.5t-94.5 38.5z" />
    <glyph glyph-name="edieresis" unicode="&#xeb;" horiz-adv-x="547" 
d="M392 615l14 88h66l-14 -88h-66zM219 615l14 88h66l-14 -88h-66zM472 142q-27 -76 -87 -115t-130 -39q-93 0 -147.5 56.5t-54.5 154.5q0 133 77.5 223t188.5 90q87 0 132 -54t45 -144q0 -35 -8 -78h-377q-2 -22 -2 -35q0 -77 40.5 -119.5t112.5 -42.5q103 0 155 103h55z
M313 461q-68 0 -121.5 -48.5t-72.5 -128.5h318q2 13 2 30q0 70 -31.5 108.5t-94.5 38.5z" />
    <glyph glyph-name="igrave" unicode="&#xec;" horiz-adv-x="251" 
d="M217 582h-35l-83 154h78zM135 500h59l-79 -500h-59z" />
    <glyph glyph-name="iacute" unicode="&#xed;" horiz-adv-x="251" 
d="M155 582l81 154h84l-127 -154h-38zM135 500h59l-79 -500h-59z" />
    <glyph glyph-name="icircumflex" unicode="&#xee;" horiz-adv-x="251" 
d="M172 736h72l60 -157h-39l-61 114l-113 -114h-41zM135 500h59l-79 -500h-59z" />
    <glyph glyph-name="idieresis" unicode="&#xef;" horiz-adv-x="251" 
d="M236 615l14 88h66l-14 -88h-66zM63 615l14 88h66l-14 -88h-66zM135 500h59l-79 -500h-59z" />
    <glyph glyph-name="eth" unicode="&#xf0;" horiz-adv-x="572" 
d="M517 308q0 -133 -74 -226.5t-190 -93.5q-90 0 -144.5 57.5t-54.5 156.5q0 129 75 219.5t189 90.5q82 0 133 -68q-27 91 -82 163l-149 -45l-9 38l130 39q-49 52 -110 91l1 6h74q54 -38 91 -80l101 31l10 -38l-85 -26q94 -127 94 -315zM313 461q-91 0 -146.5 -75
t-55.5 -184q0 -76 39 -119.5t108 -43.5q91 0 146.5 76t54.5 185q1 75 -38 118t-108 43z" />
    <glyph glyph-name="ntilde" unicode="&#xf1;" horiz-adv-x="585" 
d="M294 672q-41 0 -57 -82h-44q9 59 37.5 94t71.5 35q26 0 48 -20t41 -40t37 -20q40 0 58 81h43q-9 -59 -37.5 -94t-71.5 -35q-20 0 -38.5 12.5t-30 28t-27 28t-30.5 12.5zM190 500l-15 -95q25 50 72.5 78.5t106.5 28.5q74 0 114.5 -39t40.5 -109q0 -19 -3 -40l-51 -324h-59
l49 312q4 30 4 42q0 109 -110 109q-68 0 -116.5 -45t-63.5 -139l-44 -279h-59l79 500h55z" />
    <glyph glyph-name="ograve" unicode="&#xf2;" horiz-adv-x="572" 
d="M365 582h-35l-83 154h78zM253 -12q-90 0 -144.5 57.5t-54.5 156.5q0 129 75 219.5t189 90.5q90 0 144.5 -57.5t54.5 -156.5q0 -129 -75 -219.5t-189 -90.5zM258 39q91 0 146.5 75t55.5 184q0 76 -39 119.5t-108 43.5q-91 0 -146.5 -75t-55.5 -184q0 -76 39 -119.5
t108 -43.5z" />
    <glyph glyph-name="oacute" unicode="&#xf3;" horiz-adv-x="572" 
d="M313 582l81 154h84l-127 -154h-38zM253 -12q-90 0 -144.5 57.5t-54.5 156.5q0 129 75 219.5t189 90.5q90 0 144.5 -57.5t54.5 -156.5q0 -129 -75 -219.5t-189 -90.5zM258 39q91 0 146.5 75t55.5 184q0 76 -39 119.5t-108 43.5q-91 0 -146.5 -75t-55.5 -184
q0 -76 39 -119.5t108 -43.5z" />
    <glyph glyph-name="ocircumflex" unicode="&#xf4;" horiz-adv-x="572" 
d="M337 736h72l60 -157h-39l-61 114l-113 -114h-41zM253 -12q-90 0 -144.5 57.5t-54.5 156.5q0 129 75 219.5t189 90.5q90 0 144.5 -57.5t54.5 -156.5q0 -129 -75 -219.5t-189 -90.5zM258 39q91 0 146.5 75t55.5 184q0 76 -39 119.5t-108 43.5q-91 0 -146.5 -75t-55.5 -184
q0 -76 39 -119.5t108 -43.5z" />
    <glyph glyph-name="otilde" unicode="&#xf5;" horiz-adv-x="571" 
d="M286 672q-41 0 -57 -82h-44q9 59 37.5 94t71.5 35q26 0 48 -20t41 -40t37 -20q40 0 58 81h43q-9 -59 -37.5 -94t-71.5 -35q-20 0 -38.5 12.5t-30 28t-27 28t-30.5 12.5zM253 -12q-90 0 -144.5 57.5t-54.5 156.5q0 129 75 219.5t189 90.5q90 0 144.5 -57.5t54.5 -156.5
q0 -129 -75 -219.5t-189 -90.5zM258 39q91 0 146.5 75t55.5 184q0 76 -39 119.5t-108 43.5q-91 0 -146.5 -75t-55.5 -184q0 -76 39 -119.5t108 -43.5z" />
    <glyph glyph-name="odieresis" unicode="&#xf6;" horiz-adv-x="572" 
d="M401 615l14 88h66l-14 -88h-66zM228 615l14 88h66l-14 -88h-66zM253 -12q-90 0 -144.5 57.5t-54.5 156.5q0 129 75 219.5t189 90.5q90 0 144.5 -57.5t54.5 -156.5q0 -129 -75 -219.5t-189 -90.5zM258 39q91 0 146.5 75t55.5 184q0 76 -39 119.5t-108 43.5
q-91 0 -146.5 -75t-55.5 -184q0 -76 39 -119.5t108 -43.5z" />
    <glyph glyph-name="divide" unicode="&#xf7;" 
d="M329 502l13 85h85l-13 -85h-85zM80 306l9 54h517l-9 -54h-517zM262 78l13 85h84l-13 -85h-84z" />
    <glyph glyph-name="oslash" unicode="&#xf8;" horiz-adv-x="572" 
d="M253 -12q-81 0 -133 46l-68 -72l-31 29l71 75q-38 55 -38 136q0 129 75 219.5t189 90.5q89 0 141 -54l61 64l31 -29l-65 -69q31 -53 31 -126q0 -129 -75 -219.5t-189 -90.5zM111 202q0 -56 21 -93l289 308q-39 44 -108 44q-91 0 -146.5 -75t-55.5 -184zM460 298
q0 48 -15 82l-287 -305q39 -36 100 -36q91 0 146.5 75t55.5 184z" />
    <glyph glyph-name="ugrave" unicode="&#xf9;" horiz-adv-x="579" 
d="M364 582h-35l-83 154h78zM388 0l15 95q-25 -50 -70.5 -78.5t-104.5 -28.5q-72 0 -112.5 39t-40.5 109q0 19 3 40l51 324h59l-49 -312q-4 -30 -4 -42q0 -109 108 -109q67 0 114 45t62 139l44 279h59l-79 -500h-55z" />
    <glyph glyph-name="uacute" unicode="&#xfa;" horiz-adv-x="579" 
d="M311 582l81 154h84l-127 -154h-38zM388 0l15 95q-25 -50 -70.5 -78.5t-104.5 -28.5q-72 0 -112.5 39t-40.5 109q0 19 3 40l51 324h59l-49 -312q-4 -30 -4 -42q0 -109 108 -109q67 0 114 45t62 139l44 279h59l-79 -500h-55z" />
    <glyph glyph-name="ucircumflex" unicode="&#xfb;" horiz-adv-x="579" 
d="M336 736h72l60 -157h-39l-61 114l-113 -114h-41zM388 0l15 95q-25 -50 -70.5 -78.5t-104.5 -28.5q-72 0 -112.5 39t-40.5 109q0 19 3 40l51 324h59l-49 -312q-4 -30 -4 -42q0 -109 108 -109q67 0 114 45t62 139l44 279h59l-79 -500h-55z" />
    <glyph glyph-name="udieresis" unicode="&#xfc;" horiz-adv-x="579" 
d="M399 615l14 88h66l-14 -88h-66zM226 615l14 88h66l-14 -88h-66zM388 0l15 95q-25 -50 -70.5 -78.5t-104.5 -28.5q-72 0 -112.5 39t-40.5 109q0 19 3 40l51 324h59l-49 -312q-4 -30 -4 -42q0 -109 108 -109q67 0 114 45t62 139l44 279h59l-79 -500h-55z" />
    <glyph glyph-name="yacute" unicode="&#xfd;" horiz-adv-x="527" 
d="M277 582l81 154h84l-127 -154h-38zM178 -4l-105 504h59l85 -434h2l251 434h62l-307 -519q-54 -92 -96.5 -129.5t-102.5 -37.5q-25 0 -43 9l8 50q23 -8 40 -8q40 0 72 29t75 102z" />
    <glyph glyph-name="thorn" unicode="&#xfe;" horiz-adv-x="605" 
d="M131 101l-44 -279h-59l145 914h59l-53 -329q64 105 180 105q85 0 138.5 -56t53.5 -155q0 -127 -73 -220t-184 -93q-61 0 -105 33.5t-58 79.5zM352 463q-80 0 -133 -56t-69 -151q-6 -45 -6 -62q0 -71 40.5 -114t109.5 -43q90 0 144.5 77.5t54.5 186.5q0 75 -36.5 118.5
t-104.5 43.5z" />
    <glyph glyph-name="ydieresis" unicode="&#xff;" horiz-adv-x="527" 
d="M364 615l14 88h66l-14 -88h-66zM191 615l14 88h66l-14 -88h-66zM178 -4l-105 504h59l85 -434h2l251 434h62l-307 -519q-54 -92 -96.5 -129.5t-102.5 -37.5q-25 0 -43 9l8 50q23 -8 40 -8q40 0 72 29t75 102z" />
    <glyph glyph-name="Amacron" unicode="&#x100;" horiz-adv-x="690" 
d="M298 790l8 50h274l-8 -50h-274zM568 0l-49 213h-354l-122 -213h-63l412 714h68l170 -714h-62zM416 651l-221 -386h312l-89 386h-2z" />
    <glyph glyph-name="amacron" unicode="&#x101;" horiz-adv-x="539" 
d="M189 615l8 50h274l-8 -50h-274zM361 0q-3 41 5 89q-23 -44 -75 -72t-109 -28q-62 0 -104 34.5t-42 92.5q0 69 48.5 112t139.5 53l177 21q8 48 8 66q0 93 -112 93q-56 0 -96 -27t-53 -74h-57q18 72 77.5 112t133.5 40q77 0 120.5 -35t43.5 -99q0 -16 -6 -57l-36 -228
q-7 -41 -5 -93h-58zM385 199l8 54l-158 -18q-70 -8 -105 -32.5t-35 -82.5q0 -37 25 -59.5t72 -22.5q71 0 126.5 42.5t66.5 118.5z" />
    <glyph glyph-name="Abreve" unicode="&#x102;" horiz-adv-x="690" 
d="M595 913q-11 -69 -52.5 -108.5t-98.5 -39.5q-49 0 -78.5 30.5t-29.5 83.5q0 10 4 34h46q-2 -18 -2 -25q0 -71 67 -71q37 0 62 25t32 71h50zM568 0l-49 213h-354l-122 -213h-63l412 714h68l170 -714h-62zM416 651l-221 -386h312l-89 386h-2z" />
    <glyph glyph-name="abreve" unicode="&#x103;" horiz-adv-x="539" 
d="M330 588q-49 0 -78.5 30.5t-29.5 83.5q0 18 4 34h44q-2 -18 -2 -25q0 -35 18.5 -54.5t50.5 -19.5q37 0 63 26.5t33 72.5h48q-11 -69 -52.5 -108.5t-98.5 -39.5zM361 0q-3 41 5 89q-23 -44 -75 -72t-109 -28q-62 0 -104 34.5t-42 92.5q0 69 48.5 112t139.5 53l177 21
q8 48 8 66q0 93 -112 93q-56 0 -96 -27t-53 -74h-57q18 72 77.5 112t133.5 40q77 0 120.5 -35t43.5 -99q0 -16 -6 -57l-36 -228q-7 -41 -5 -93h-58zM385 199l8 54l-158 -18q-70 -8 -105 -32.5t-35 -82.5q0 -37 25 -59.5t72 -22.5q71 0 126.5 42.5t66.5 118.5z" />
    <glyph glyph-name="Aogonek" unicode="&#x104;" horiz-adv-x="690" 
d="M589 -185q-16 -5 -40 -5q-27 0 -49 18t-22 48q0 34 20 62t67 73l-46 202h-354l-122 -213h-63l412 714h68l170 -714h-27q-46 -48 -60.5 -70.5t-14.5 -42.5q0 -16 11 -25t28 -9t28 4zM416 651l-221 -386h312l-89 386h-2z" />
    <glyph glyph-name="aogonek" unicode="&#x105;" horiz-adv-x="539" 
d="M384 -185q-16 -5 -40 -5q-27 0 -49 18t-22 48q0 34 20 62t67 74q0 35 6 77q-23 -44 -75 -72t-109 -28q-62 0 -104 34.5t-42 92.5q0 69 48.5 112t139.5 53l177 21q8 48 8 66q0 93 -112 93q-56 0 -96 -27t-53 -74h-57q18 72 77.5 112t133.5 40q77 0 120.5 -35t43.5 -99
q0 -16 -6 -57l-36 -228q-7 -41 -5 -93h-21q-46 -48 -60.5 -70.5t-14.5 -42.5q0 -16 11 -25t28 -9t28 4zM385 199l8 54l-158 -18q-70 -8 -105 -32.5t-35 -82.5q0 -37 25 -59.5t72 -22.5q71 0 126.5 42.5t66.5 118.5z" />
    <glyph glyph-name="Cacute" unicode="&#x106;" horiz-adv-x="675" 
d="M414 770l81 143h85l-128 -143h-38zM340 -12q-125 0 -198.5 84.5t-73.5 220.5q0 116 45 214.5t129 158.5t190 60q108 0 169.5 -58t66.5 -153h-61q-3 68 -48 112t-131 44q-134 0 -215.5 -110t-81.5 -270q0 -112 55 -180t158 -68q158 0 213 156h63q-32 -98 -102.5 -154.5
t-177.5 -56.5z" />
    <glyph glyph-name="cacute" unicode="&#x107;" horiz-adv-x="524" 
d="M307 582l81 154h84l-127 -154h-38zM54 200q0 133 76.5 222.5t189.5 89.5q75 0 121 -44t47 -119h-54q-4 55 -35 83.5t-83 28.5q-90 0 -147.5 -75t-57.5 -184q0 -75 37 -119t97 -44q116 0 157 112h55q-24 -78 -79.5 -120.5t-132.5 -42.5q-85 0 -138 58.5t-53 153.5z" />
    <glyph glyph-name="Ccircumflex" unicode="&#x108;" horiz-adv-x="675" 
d="M445 913h76l75 -146h-39l-78 99l-116 -99h-41zM340 -12q-125 0 -198.5 84.5t-73.5 220.5q0 116 45 214.5t129 158.5t190 60q108 0 169.5 -58t66.5 -153h-61q-3 68 -48 112t-131 44q-134 0 -215.5 -110t-81.5 -270q0 -112 55 -180t158 -68q158 0 213 156h63
q-32 -98 -102.5 -154.5t-177.5 -56.5z" />
    <glyph glyph-name="ccircumflex" unicode="&#x109;" horiz-adv-x="524" 
d="M331 736h72l60 -157h-39l-61 114l-113 -114h-41zM54 200q0 133 76.5 222.5t189.5 89.5q75 0 121 -44t47 -119h-54q-4 55 -35 83.5t-83 28.5q-90 0 -147.5 -75t-57.5 -184q0 -75 37 -119t97 -44q116 0 157 112h55q-24 -78 -79.5 -120.5t-132.5 -42.5q-85 0 -138 58.5
t-53 153.5z" />
    <glyph glyph-name="Cdotaccent" unicode="&#x10a;" horiz-adv-x="675" 
d="M413 791l14 88h70l-14 -88h-70zM340 -12q-125 0 -198.5 84.5t-73.5 220.5q0 116 45 214.5t129 158.5t190 60q108 0 169.5 -58t66.5 -153h-61q-3 68 -48 112t-131 44q-134 0 -215.5 -110t-81.5 -270q0 -112 55 -180t158 -68q158 0 213 156h63q-32 -98 -102.5 -154.5
t-177.5 -56.5z" />
    <glyph glyph-name="cdotaccent" unicode="&#x10b;" horiz-adv-x="524" 
d="M306 615l14 88h71l-14 -88h-71zM54 200q0 133 76.5 222.5t189.5 89.5q75 0 121 -44t47 -119h-54q-4 55 -35 83.5t-83 28.5q-90 0 -147.5 -75t-57.5 -184q0 -75 37 -119t97 -44q116 0 157 112h55q-24 -78 -79.5 -120.5t-132.5 -42.5q-85 0 -138 58.5t-53 153.5z" />
    <glyph glyph-name="Ccaron" unicode="&#x10c;" horiz-adv-x="675" 
d="M481 767h-76l-75 146h39l78 -99l116 99h41zM340 -12q-125 0 -198.5 84.5t-73.5 220.5q0 116 45 214.5t129 158.5t190 60q108 0 169.5 -58t66.5 -153h-61q-3 68 -48 112t-131 44q-134 0 -215.5 -110t-81.5 -270q0 -112 55 -180t158 -68q158 0 213 156h63
q-32 -98 -102.5 -154.5t-177.5 -56.5z" />
    <glyph glyph-name="ccaron" unicode="&#x10d;" horiz-adv-x="524" 
d="M374 579h-72l-60 157h39l61 -114l113 114h41zM54 200q0 133 76.5 222.5t189.5 89.5q75 0 121 -44t47 -119h-54q-4 55 -35 83.5t-83 28.5q-90 0 -147.5 -75t-57.5 -184q0 -75 37 -119t97 -44q116 0 157 112h55q-24 -78 -79.5 -120.5t-132.5 -42.5q-85 0 -138 58.5
t-53 153.5z" />
    <glyph glyph-name="Dcaron" unicode="&#x10e;" horiz-adv-x="737" 
d="M469 767h-76l-75 146h39l78 -99l116 99h41zM173 714h237q136 0 213.5 -80.5t77.5 -217.5q0 -186 -114.5 -301t-284.5 -115h-242zM402 660h-177l-96 -606h181q147 0 237.5 100.5t90.5 260.5q0 115 -60 180t-176 65z" />
    <glyph glyph-name="dcaron" unicode="&#x10f;" horiz-adv-x="604" 
d="M473 400l54 336h58l-116 -735h-54l15 97q-27 -45 -75 -77.5t-110 -32.5q-85 0 -138 56.5t-53 155.5q0 128 72.5 221t183.5 93q61 0 105 -33.5t58 -80.5zM663 526h-31l66 210h77zM253 37q79 0 132 57t69 152q6 43 6 62q0 71 -40.5 114t-109.5 43q-90 0 -144.5 -77.5
t-54.5 -187.5q0 -75 37 -119t105 -44z" />
    <glyph glyph-name="Dcroat" unicode="&#x110;" horiz-adv-x="747" 
d="M712 416q0 -186 -114.5 -301t-284.5 -115h-242l53 336h-86l9 54h86l51 324h237q136 0 213.5 -80.5t77.5 -217.5zM140 54h181q147 0 237.5 100.5t90.5 260.5q0 115 -60 180t-176 65h-177l-43 -270h166l-9 -54h-165z" />
    <glyph glyph-name="dcroat" unicode="&#x111;" horiz-adv-x="603" 
d="M429 97q-27 -45 -75 -77.5t-110 -32.5q-85 0 -138 56.5t-53 155.5q0 128 72.5 221t183.5 93q61 0 105 -33.5t58 -80.5l31 195h-131l7 44h131l16 97h58l-15 -97h84l-7 -44h-84l-94 -594h-54zM252 36q79 0 132 57t69 152q6 44 6 62q0 71 -40.5 114t-109.5 43
q-90 0 -144.5 -77.5t-54.5 -187.5q0 -75 37 -119t105 -44z" />
    <glyph glyph-name="Emacron" unicode="&#x112;" horiz-adv-x="633" 
d="M279 790l8 50h274l-8 -50h-274zM60 0l113 714h466l-9 -54h-406l-44 -277h362l-9 -54h-362l-43 -275h404l-9 -54h-463z" />
    <glyph glyph-name="emacron" unicode="&#x113;" horiz-adv-x="547" 
d="M201 615l8 50h274l-8 -50h-274zM472 142q-27 -76 -87 -115t-130 -39q-93 0 -147.5 56.5t-54.5 154.5q0 133 77.5 223t188.5 90q87 0 132 -54t45 -144q0 -35 -8 -78h-377q-2 -22 -2 -35q0 -77 40.5 -119.5t112.5 -42.5q103 0 155 103h55zM313 461q-68 0 -121.5 -48.5
t-72.5 -128.5h318q2 13 2 30q0 70 -31.5 108.5t-94.5 38.5z" />
    <glyph glyph-name="Ebreve" unicode="&#x114;" horiz-adv-x="633" 
d="M553 913q-11 -69 -52.5 -108.5t-98.5 -39.5q-49 0 -78.5 30.5t-29.5 83.5q0 10 4 34h46q-2 -18 -2 -25q0 -71 67 -71q37 0 62 25t32 71h50zM60 0l113 714h466l-9 -54h-406l-44 -277h362l-9 -54h-362l-43 -275h404l-9 -54h-463z" />
    <glyph glyph-name="ebreve" unicode="&#x115;" horiz-adv-x="547" 
d="M334 588q-49 0 -78.5 30.5t-29.5 83.5q0 18 4 34h44q-2 -18 -2 -25q0 -35 18.5 -54.5t50.5 -19.5q37 0 63 26.5t33 72.5h48q-11 -69 -52.5 -108.5t-98.5 -39.5zM472 142q-27 -76 -87 -115t-130 -39q-93 0 -147.5 56.5t-54.5 154.5q0 133 77.5 223t188.5 90q87 0 132 -54
t45 -144q0 -35 -8 -78h-377q-2 -22 -2 -35q0 -77 40.5 -119.5t112.5 -42.5q103 0 155 103h55zM313 461q-68 0 -121.5 -48.5t-72.5 -128.5h318q2 13 2 30q0 70 -31.5 108.5t-94.5 38.5z" />
    <glyph glyph-name="Edotaccent" unicode="&#x116;" horiz-adv-x="633" 
d="M392 791l14 88h70l-14 -88h-70zM60 0l113 714h466l-9 -54h-406l-44 -277h362l-9 -54h-362l-43 -275h404l-9 -54h-463z" />
    <glyph glyph-name="edotaccent" unicode="&#x117;" horiz-adv-x="547" 
d="M303 615l14 88h71l-14 -88h-71zM472 142q-27 -76 -87 -115t-130 -39q-93 0 -147.5 56.5t-54.5 154.5q0 133 77.5 223t188.5 90q87 0 132 -54t45 -144q0 -35 -8 -78h-377q-2 -22 -2 -35q0 -77 40.5 -119.5t112.5 -42.5q103 0 155 103h55zM313 461q-68 0 -121.5 -48.5
t-72.5 -128.5h318q2 13 2 30q0 70 -31.5 108.5t-94.5 38.5z" />
    <glyph glyph-name="Eogonek" unicode="&#x118;" horiz-adv-x="633" 
d="M441 -185q-16 -5 -40 -5q-27 0 -49 18t-22 48q0 32 18 59t58 65h-346l113 714h466l-9 -54h-406l-44 -277h362l-9 -54h-362l-43 -275h404l-9 -54h-68q-46 -48 -60.5 -70.5t-14.5 -42.5q0 -16 11 -25t28 -9t28 4z" />
    <glyph glyph-name="eogonek" unicode="&#x119;" horiz-adv-x="547" 
d="M340 -185q-16 -5 -40 -5q-27 0 -49 18t-22 48t16 55.5t51 60.5q-19 -4 -41 -4q-93 0 -147.5 56.5t-54.5 154.5q0 133 77.5 223t188.5 90q87 0 132 -54t45 -144q0 -35 -8 -78h-377q-2 -22 -2 -35q0 -77 40.5 -119.5t112.5 -42.5q103 0 155 103h55q-5 -13 -11 -25
t-14.5 -23.5t-15 -20t-18 -19.5t-16.5 -16t-17 -15.5t-14 -12.5q-50 -44 -68.5 -71.5t-18.5 -51.5q0 -16 11 -25t28 -9t28 4zM313 461q-68 0 -121.5 -48.5t-72.5 -128.5h318q2 13 2 30q0 70 -31.5 108.5t-94.5 38.5z" />
    <glyph glyph-name="Ecaron" unicode="&#x11a;" horiz-adv-x="633" 
d="M452 767h-76l-75 146h39l78 -99l116 99h41zM60 0l113 714h466l-9 -54h-406l-44 -277h362l-9 -54h-362l-43 -275h404l-9 -54h-463z" />
    <glyph glyph-name="ecaron" unicode="&#x11b;" horiz-adv-x="547" 
d="M371 579h-72l-60 157h39l61 -114l113 114h41zM472 142q-27 -76 -87 -115t-130 -39q-93 0 -147.5 56.5t-54.5 154.5q0 133 77.5 223t188.5 90q87 0 132 -54t45 -144q0 -35 -8 -78h-377q-2 -22 -2 -35q0 -77 40.5 -119.5t112.5 -42.5q103 0 155 103h55zM313 461
q-68 0 -121.5 -48.5t-72.5 -128.5h318q2 13 2 30q0 70 -31.5 108.5t-94.5 38.5z" />
    <glyph glyph-name="Gcircumflex" unicode="&#x11c;" horiz-adv-x="736" 
d="M426 913h76l75 -146h-39l-78 99l-116 -99h-41zM340 -12q-125 0 -198.5 84.5t-73.5 220.5q0 116 45 214.5t129.5 158.5t190.5 60q109 0 171.5 -58.5t67.5 -153.5h-61q-3 68 -49 112.5t-133 44.5q-134 0 -216 -110t-82 -270q0 -112 55 -180.5t158 -68.5q105 0 176 65.5
t85 191.5h-186l9 53h244l-56 -351h-49l13 128q-29 -64 -96.5 -102.5t-143.5 -38.5z" />
    <glyph glyph-name="gcircumflex" unicode="&#x11d;" horiz-adv-x="605" 
d="M351 736h72l60 -157h-39l-61 114l-113 -114h-41zM415 30l13 81q-28 -44 -74.5 -74.5t-108.5 -30.5q-85 0 -138.5 55t-53.5 150q0 123 73 212t184 89q61 0 106.5 -34.5t60.5 -80.5l16 103h55l-75 -472q-18 -113 -84 -165.5t-167 -52.5q-84 0 -137.5 35.5t-57.5 104.5h58
q10 -91 139 -91q84 0 130.5 41.5t60.5 129.5zM454 255q6 42 6 59q0 68 -41.5 108.5t-108.5 40.5q-90 0 -144.5 -73.5t-54.5 -178.5q0 -71 37 -112.5t105 -41.5q79 0 132 53.5t69 144.5z" />
    <glyph glyph-name="Gbreve" unicode="&#x11e;" horiz-adv-x="736" 
d="M595 913q-11 -69 -52.5 -108.5t-98.5 -39.5q-49 0 -78.5 30.5t-29.5 83.5q0 10 4 34h46q-2 -18 -2 -25q0 -71 67 -71q37 0 62 25t32 71h50zM340 -12q-125 0 -198.5 84.5t-73.5 220.5q0 116 45 214.5t129.5 158.5t190.5 60q109 0 171.5 -58.5t67.5 -153.5h-61
q-3 68 -49 112.5t-133 44.5q-134 0 -216 -110t-82 -270q0 -112 55 -180.5t158 -68.5q105 0 176 65.5t85 191.5h-186l9 53h244l-56 -351h-49l13 128q-29 -64 -96.5 -102.5t-143.5 -38.5z" />
    <glyph glyph-name="gbreve" unicode="&#x11f;" horiz-adv-x="605" 
d="M356 588q-49 0 -78.5 30.5t-29.5 83.5q0 18 4 34h44q-2 -18 -2 -25q0 -35 18.5 -54.5t50.5 -19.5q37 0 63 26.5t33 72.5h48q-11 -69 -52.5 -108.5t-98.5 -39.5zM415 30l13 81q-28 -44 -74.5 -74.5t-108.5 -30.5q-85 0 -138.5 55t-53.5 150q0 123 73 212t184 89
q61 0 106.5 -34.5t60.5 -80.5l16 103h55l-75 -472q-18 -113 -84 -165.5t-167 -52.5q-84 0 -137.5 35.5t-57.5 104.5h58q10 -91 139 -91q84 0 130.5 41.5t60.5 129.5zM454 255q6 42 6 59q0 68 -41.5 108.5t-108.5 40.5q-90 0 -144.5 -73.5t-54.5 -178.5q0 -71 37 -112.5
t105 -41.5q79 0 132 53.5t69 144.5z" />
    <glyph glyph-name="Gdotaccent" unicode="&#x120;" horiz-adv-x="736" 
d="M414 791l14 88h70l-14 -88h-70zM340 -12q-125 0 -198.5 84.5t-73.5 220.5q0 116 45 214.5t129.5 158.5t190.5 60q109 0 171.5 -58.5t67.5 -153.5h-61q-3 68 -49 112.5t-133 44.5q-134 0 -216 -110t-82 -270q0 -112 55 -180.5t158 -68.5q105 0 176 65.5t85 191.5h-186
l9 53h244l-56 -351h-49l13 128q-29 -64 -96.5 -102.5t-143.5 -38.5z" />
    <glyph glyph-name="gdotaccent" unicode="&#x121;" horiz-adv-x="605" 
d="M326 615l14 88h71l-14 -88h-71zM415 30l13 81q-28 -44 -74.5 -74.5t-108.5 -30.5q-85 0 -138.5 55t-53.5 150q0 123 73 212t184 89q61 0 106.5 -34.5t60.5 -80.5l16 103h55l-75 -472q-18 -113 -84 -165.5t-167 -52.5q-84 0 -137.5 35.5t-57.5 104.5h58q10 -91 139 -91
q84 0 130.5 41.5t60.5 129.5zM454 255q6 42 6 59q0 68 -41.5 108.5t-108.5 40.5q-90 0 -144.5 -73.5t-54.5 -178.5q0 -71 37 -112.5t105 -41.5q79 0 132 53.5t69 144.5z" />
    <glyph glyph-name="uni0122" unicode="&#x122;" horiz-adv-x="736" 
d="M340 -12q-125 0 -198.5 84.5t-73.5 220.5q0 116 45 214.5t129.5 158.5t190.5 60q109 0 171.5 -58.5t67.5 -153.5h-61q-3 68 -49 112.5t-133 44.5q-134 0 -216 -110t-82 -270q0 -112 55 -180.5t158 -68.5q105 0 176 65.5t85 191.5h-186l9 53h244l-56 -351h-49l13 128
q-29 -64 -96.5 -102.5t-143.5 -38.5zM277 -121l10 65h84l-10 -66q-16 -97 -105 -97l5 33q49 0 57 65h-41z" />
    <glyph glyph-name="uni0123" unicode="&#x123;" horiz-adv-x="605" 
d="M405 652l-10 -65h-84l10 66q16 97 105 97l-5 -33q-49 0 -57 -65h41zM415 30l13 81q-28 -44 -74.5 -74.5t-108.5 -30.5q-85 0 -138.5 55t-53.5 150q0 123 73 212t184 89q61 0 106.5 -34.5t60.5 -80.5l16 103h55l-75 -472q-18 -113 -84 -165.5t-167 -52.5
q-84 0 -137.5 35.5t-57.5 104.5h58q10 -91 139 -91q84 0 130.5 41.5t60.5 129.5zM454 255q6 42 6 59q0 68 -41.5 108.5t-108.5 40.5q-90 0 -144.5 -73.5t-54.5 -178.5q0 -71 37 -112.5t105 -41.5q79 0 132 53.5t69 144.5z" />
    <glyph glyph-name="Hcircumflex" unicode="&#x124;" horiz-adv-x="767" 
d="M447 913h76l75 -146h-39l-78 99l-116 -99h-41zM60 0l113 714h59l-51 -324h449l51 324h59l-113 -714h-59l53 336h-449l-53 -336h-59z" />
    <glyph glyph-name="hcircumflex" unicode="&#x125;" horiz-adv-x="585" 
d="M351 913h76l75 -146h-39l-78 99l-116 -99h-41zM232 736l-53 -329q25 50 70.5 77.5t104.5 27.5q74 0 114.5 -39t40.5 -109q0 -19 -3 -40l-51 -324h-59l49 312q4 30 4 42q0 109 -110 109q-68 0 -116.5 -45t-63.5 -139l-44 -279h-59l117 736h59z" />
    <glyph glyph-name="Hbar" unicode="&#x126;" horiz-adv-x="787" 
d="M176 296l-47 -296h-59l80 506h-85l9 54h85l24 154h59l-25 -154h449l25 154h59l-24 -154h85l-9 -54h-85l-80 -506h-59l47 296h-449zM184 350h449l25 156h-449z" />
    <glyph glyph-name="hbar" unicode="&#x127;" horiz-adv-x="585" 
d="M159 279l-44 -279h-59l94 594h-84l7 44h84l16 98h59l-16 -98h131l-7 -44h-131l-30 -187q25 50 70.5 77.5t104.5 27.5q74 0 114.5 -39t40.5 -109q0 -19 -3 -40l-51 -324h-59l49 312q4 30 4 42q0 109 -110 109q-68 0 -116.5 -45t-63.5 -139z" />
    <glyph glyph-name="Itilde" unicode="&#x128;" horiz-adv-x="259" 
d="M155 849q-42 0 -57 -77h-44q9 59 37.5 94t71.5 35q26 0 49 -19t42 -38t35 -19q41 0 58 77h43q-9 -59 -37.5 -94t-71.5 -35q-26 0 -48.5 19t-41.5 38t-36 19zM173 714h59l-113 -714h-59z" />
    <glyph glyph-name="itilde" unicode="&#x129;" horiz-adv-x="251" 
d="M132 672q-29 0 -40 -50q-2 -8 -6 -25l-1 -7h-44q21 129 99 129q22 0 41 -20t35 -40t30 -20q6 0 10.5 1t8.5 4.5t6.5 6t5.5 9t4.5 10t3.5 11.5l3 12t3 14t3 13h43q-21 -129 -99 -129q-17 0 -33 12.5t-26 28t-22.5 28t-24.5 12.5zM135 500h59l-79 -500h-59z" />
    <glyph glyph-name="Imacron" unicode="&#x12a;" horiz-adv-x="259" 
d="M75 790l8 50h274l-8 -50h-274zM173 714h59l-113 -714h-59z" />
    <glyph glyph-name="imacron" unicode="&#x12b;" horiz-adv-x="251" 
d="M65 615l8 50h234l-8 -50h-234zM135 500h59l-79 -500h-59z" />
    <glyph glyph-name="Ibreve" unicode="&#x12c;" horiz-adv-x="259" 
d="M361 913q-11 -69 -52.5 -108.5t-98.5 -39.5q-49 0 -78.5 30.5t-29.5 83.5q0 10 4 34h46q-2 -18 -2 -25q0 -71 67 -71q37 0 62 25t32 71h50zM173 714h59l-113 -714h-59z" />
    <glyph glyph-name="ibreve" unicode="&#x12d;" horiz-adv-x="251" 
d="M179 588q-49 0 -78.5 30.5t-29.5 83.5q0 18 4 34h44q-2 -18 -2 -25q0 -35 18.5 -54.5t50.5 -19.5q37 0 63 26.5t33 72.5h48q-11 -69 -52.5 -108.5t-98.5 -39.5zM135 500h59l-79 -500h-59z" />
    <glyph glyph-name="Iogonek" unicode="&#x12e;" horiz-adv-x="259" 
d="M94 -185q-16 -5 -40 -5q-27 0 -49 18t-22 48q0 31 18 57t60 67h-1l113 714h59l-113 -714q-86 -69 -86 -113q0 -16 11 -25t28 -9t28 4z" />
    <glyph glyph-name="iogonek" unicode="&#x12f;" horiz-adv-x="251" 
d="M146 615l14 88h71l-14 -88h-71zM57 0h-1l79 500h59l-79 -500q-86 -69 -86 -113q0 -16 11 -25t28 -9t28 4l-6 -42q-16 -5 -40 -5q-27 0 -49 18t-22 48q0 31 18 57t60 67z" />
    <glyph glyph-name="Idotaccent" unicode="&#x130;" horiz-adv-x="259" 
d="M181 791l14 88h70l-14 -88h-70zM173 714h59l-113 -714h-59z" />
    <glyph glyph-name="dotlessi" unicode="&#x131;" horiz-adv-x="251" 
d="M135 500h59l-79 -500h-59z" />
    <glyph glyph-name="Jcircumflex" unicode="&#x134;" horiz-adv-x="545" 
d="M488 913h76l75 -146h-39l-78 99l-116 -99h-41zM396 251l73 463h60l-73 -463q-19 -124 -82.5 -193.5t-167.5 -69.5q-99 0 -151 56.5t-52 152.5h56q0 -72 37 -115t111 -43q156 0 189 212z" />
    <glyph glyph-name="jcircumflex" unicode="&#x135;" horiz-adv-x="251" 
d="M172 736h72l60 -157h-39l-61 114l-113 -114h-41zM-25 -184q-23 0 -43 9l8 48q20 -6 33 -6q34 0 50.5 16t23.5 58l88 559h59l-87 -553q-10 -66 -42 -98.5t-90 -32.5z" />
    <glyph glyph-name="uni0136" unicode="&#x136;" horiz-adv-x="692" 
d="M545 0l-248 359l-140 -119l-38 -240h-59l113 714h59l-64 -403l465 403h80l-371 -316l273 -398h-70zM243 -121l10 65h84l-10 -66q-16 -97 -105 -97l5 33q49 0 57 65h-41z" />
    <glyph glyph-name="uni0137" unicode="&#x137;" horiz-adv-x="540" 
d="M404 0l-173 255l-87 -71l-29 -184h-59l117 736h59l-77 -485l301 249h77l-259 -212l197 -288h-67zM182 -121l10 65h84l-10 -66q-16 -97 -105 -97l5 33q49 0 57 65h-41z" />
    <glyph glyph-name="kgreenlandic" unicode="&#x138;" horiz-adv-x="540" 
d="M404 0l-173 255l-87 -71l-29 -184h-59l79 500h59l-39 -249l301 249h77l-259 -212l197 -288h-67z" />
    <glyph glyph-name="Lacute" unicode="&#x139;" horiz-adv-x="615" 
d="M205 770l81 143h85l-128 -143h-38zM61 0l113 714h59l-104 -660h394l-9 -54h-453z" />
    <glyph glyph-name="lacute" unicode="&#x13a;" horiz-adv-x="251" 
d="M192 770l81 143h85l-128 -143h-38zM115 0h-59l117 736h59z" />
    <glyph glyph-name="uni013B" unicode="&#x13b;" horiz-adv-x="615" 
d="M61 0l113 714h59l-104 -660h394l-9 -54h-453zM222 -121l10 65h84l-10 -66q-16 -97 -105 -97l5 33q49 0 57 65h-41z" />
    <glyph glyph-name="uni013C" unicode="&#x13c;" horiz-adv-x="251" 
d="M115 0h-59l117 736h59zM25 -121l10 65h84l-10 -66q-16 -97 -105 -97l5 33q49 0 57 65h-41z" />
    <glyph glyph-name="Lcaron" unicode="&#x13d;" horiz-adv-x="615" 
d="M413 505h-31l66 210h77zM61 0l113 714h59l-104 -660h394l-9 -54h-453z" />
    <glyph glyph-name="lcaron" unicode="&#x13e;" horiz-adv-x="251" 
d="M115 0h-59l117 736h59zM310 526h-31l66 210h77z" />
    <glyph glyph-name="Ldot" unicode="&#x13f;" horiz-adv-x="615" 
d="M61 0l113 714h59l-104 -660h394l-9 -54h-453zM398 337l14 88h71l-14 -88h-71z" />
    <glyph glyph-name="ldot" unicode="&#x140;" horiz-adv-x="343" 
d="M115 0h-59l117 736h59zM268 276l14 88h71l-14 -88h-71z" />
    <glyph glyph-name="Lslash" unicode="&#x141;" horiz-adv-x="624" 
d="M533 54l-9 -54h-453l50 315l-91 -31l8 53l91 30l55 347h59l-52 -329l167 55l-9 -53l-166 -55l-44 -278h394z" />
    <glyph glyph-name="lslash" unicode="&#x142;" horiz-adv-x="296" 
d="M299 458l-107 -60l-63 -398h-59l59 372l-90 -51l9 54l90 51l49 310h59l-45 -284l106 60z" />
    <glyph glyph-name="Nacute" unicode="&#x143;" horiz-adv-x="746" 
d="M420 770l81 143h85l-128 -143h-38zM246 714l317 -608h2l96 608h58l-113 -714h-51l-332 642h-2l-102 -642h-59l113 714h73z" />
    <glyph glyph-name="nacute" unicode="&#x144;" horiz-adv-x="585" 
d="M309 582l81 154h84l-127 -154h-38zM190 500l-15 -95q25 50 72.5 78.5t106.5 28.5q74 0 114.5 -39t40.5 -109q0 -19 -3 -40l-51 -324h-59l49 312q4 30 4 42q0 109 -110 109q-68 0 -116.5 -45t-63.5 -139l-44 -279h-59l79 500h55z" />
    <glyph glyph-name="uni0145" unicode="&#x145;" horiz-adv-x="746" 
d="M246 714l317 -608h2l96 608h58l-113 -714h-51l-332 642h-2l-102 -642h-59l113 714h73zM272 -121l10 65h84l-10 -66q-16 -97 -105 -97l5 33q49 0 57 65h-41z" />
    <glyph glyph-name="uni0146" unicode="&#x146;" horiz-adv-x="585" 
d="M190 500l-15 -95q25 50 72.5 78.5t106.5 28.5q74 0 114.5 -39t40.5 -109q0 -19 -3 -40l-51 -324h-59l49 312q4 30 4 42q0 109 -110 109q-68 0 -116.5 -45t-63.5 -139l-44 -279h-59l79 500h55zM198 -121l10 65h84l-10 -66q-16 -97 -105 -97l5 33q49 0 57 65h-41z" />
    <glyph glyph-name="Ncaron" unicode="&#x147;" horiz-adv-x="746" 
d="M487 767h-76l-75 146h39l78 -99l116 99h41zM246 714l317 -608h2l96 608h58l-113 -714h-51l-332 642h-2l-102 -642h-59l113 714h73z" />
    <glyph glyph-name="ncaron" unicode="&#x148;" horiz-adv-x="585" 
d="M376 579h-72l-60 157h39l61 -114l113 114h41zM190 500l-15 -95q25 50 72.5 78.5t106.5 28.5q74 0 114.5 -39t40.5 -109q0 -19 -3 -40l-51 -324h-59l49 312q4 30 4 42q0 109 -110 109q-68 0 -116.5 -45t-63.5 -139l-44 -279h-59l79 500h55z" />
    <glyph glyph-name="Eng" unicode="&#x14a;" horiz-adv-x="746" 
d="M466 -184q-23 0 -43 9l8 48q20 -6 33 -6q34 0 51.5 16.5t24.5 57.5l11 67l-328 634h-2l-102 -642h-59l113 714h73l317 -608h2l96 608h58l-121 -767q-10 -66 -42 -98.5t-90 -32.5z" />
    <glyph glyph-name="eng" unicode="&#x14b;" horiz-adv-x="585" 
d="M315 -184q-23 0 -43 9l8 48q20 -6 33 -6q34 0 50.5 16t23.5 58l58 371q4 30 4 42q0 109 -110 109q-68 0 -116.5 -45t-63.5 -139l-44 -279h-59l79 500h55l-15 -95q25 50 72.5 78.5t106.5 28.5q74 0 114.5 -39t40.5 -109q0 -19 -3 -40l-59 -377q-10 -66 -42 -98.5
t-90 -32.5z" />
    <glyph glyph-name="Omacron" unicode="&#x14c;" horiz-adv-x="738" 
d="M312 790l8 50h274l-8 -50h-274zM430 726q125 0 199 -84.5t74 -220.5q0 -117 -43.5 -215t-127.5 -158t-191 -60q-125 0 -199 84.5t-74 220.5q0 117 43.5 215t127.5 158t191 60zM426 671q-135 0 -215 -109.5t-80 -270.5q0 -112 55.5 -180t158.5 -68q135 0 215 109.5
t80 270.5q0 112 -55.5 180t-158.5 68z" />
    <glyph glyph-name="omacron" unicode="&#x14d;" horiz-adv-x="572" 
d="M209 615l8 50h274l-8 -50h-274zM253 -12q-90 0 -144.5 57.5t-54.5 156.5q0 129 75 219.5t189 90.5q90 0 144.5 -57.5t54.5 -156.5q0 -129 -75 -219.5t-189 -90.5zM258 39q91 0 146.5 75t55.5 184q0 76 -39 119.5t-108 43.5q-91 0 -146.5 -75t-55.5 -184q0 -76 39 -119.5
t108 -43.5z" />
    <glyph glyph-name="Obreve" unicode="&#x14e;" horiz-adv-x="738" 
d="M596 913q-11 -69 -52.5 -108.5t-98.5 -39.5q-49 0 -78.5 30.5t-29.5 83.5q0 10 4 34h46q-2 -18 -2 -25q0 -71 67 -71q37 0 62 25t32 71h50zM430 726q125 0 199 -84.5t74 -220.5q0 -117 -43.5 -215t-127.5 -158t-191 -60q-125 0 -199 84.5t-74 220.5q0 117 43.5 215
t127.5 158t191 60zM426 671q-135 0 -215 -109.5t-80 -270.5q0 -112 55.5 -180t158.5 -68q135 0 215 109.5t80 270.5q0 112 -55.5 180t-158.5 68z" />
    <glyph glyph-name="obreve" unicode="&#x14f;" horiz-adv-x="572" 
d="M342 588q-49 0 -78.5 30.5t-29.5 83.5q0 18 4 34h44q-2 -18 -2 -25q0 -35 18.5 -54.5t50.5 -19.5q37 0 63 26.5t33 72.5h48q-11 -69 -52.5 -108.5t-98.5 -39.5zM253 -12q-90 0 -144.5 57.5t-54.5 156.5q0 129 75 219.5t189 90.5q90 0 144.5 -57.5t54.5 -156.5
q0 -129 -75 -219.5t-189 -90.5zM258 39q91 0 146.5 75t55.5 184q0 76 -39 119.5t-108 43.5q-91 0 -146.5 -75t-55.5 -184q0 -76 39 -119.5t108 -43.5z" />
    <glyph glyph-name="Ohungarumlaut" unicode="&#x150;" horiz-adv-x="738" 
d="M483 770l83 143h79l-127 -143h-35zM342 770l82 143h80l-128 -143h-34zM430 726q125 0 199 -84.5t74 -220.5q0 -117 -43.5 -215t-127.5 -158t-191 -60q-125 0 -199 84.5t-74 220.5q0 117 43.5 215t127.5 158t191 60zM426 671q-135 0 -215 -109.5t-80 -270.5
q0 -112 55.5 -180t158.5 -68q135 0 215 109.5t80 270.5q0 112 -55.5 180t-158.5 68z" />
    <glyph glyph-name="ohungarumlaut" unicode="&#x151;" horiz-adv-x="571" 
d="M380 582l83 154h79l-127 -154h-35zM239 582l82 154h80l-128 -154h-34zM253 -12q-90 0 -144.5 57.5t-54.5 156.5q0 129 75 219.5t189 90.5q90 0 144.5 -57.5t54.5 -156.5q0 -129 -75 -219.5t-189 -90.5zM258 39q91 0 146.5 75t55.5 184q0 76 -39 119.5t-108 43.5
q-91 0 -146.5 -75t-55.5 -184q0 -76 39 -119.5t108 -43.5z" />
    <glyph glyph-name="OE" unicode="&#x152;" horiz-adv-x="1107" 
d="M359 0q-136 0 -213.5 80.5t-77.5 217.5q0 186 114.5 301t284.5 115h647l-9 -54h-406l-44 -277h362l-9 -54h-362l-43 -275h404l-9 -54h-639zM367 54h177l96 606h-181q-147 0 -237.5 -100.5t-90.5 -260.5q0 -115 60 -180t176 -65z" />
    <glyph glyph-name="oe" unicode="&#x153;" horiz-adv-x="946" 
d="M872 142q-27 -76 -87 -115t-130 -39q-69 0 -117.5 35.5t-69.5 95.5q-37 -59 -93 -95t-122 -36q-90 0 -144.5 57.5t-54.5 156.5q0 129 75 219.5t189 90.5q66 0 115 -35.5t70 -97.5q37 60 94 96.5t122 36.5q87 0 132 -54t45 -144q0 -35 -8 -78h-377q-2 -22 -2 -35
q0 -77 40.5 -119.5t112.5 -42.5q103 0 155 103h55zM713 461q-68 0 -121.5 -48.5t-72.5 -128.5h318q2 13 2 30q0 70 -31.5 108.5t-94.5 38.5zM258 39q91 0 146.5 75t55.5 184q0 76 -39 119.5t-108 43.5q-91 0 -146.5 -75t-55.5 -184q0 -76 39 -119.5t108 -43.5z" />
    <glyph glyph-name="Racute" unicode="&#x154;" horiz-adv-x="676" 
d="M363 770l81 143h85l-128 -143h-38zM119 0h-59l113 714h258q103 0 157.5 -48t54.5 -137q0 -92 -63.5 -151t-142.5 -68l155 -310h-63l-150 302h-212zM175 355h201q93 0 150 45.5t57 128.5q0 64 -40.5 97.5t-119.5 33.5h-199z" />
    <glyph glyph-name="racute" unicode="&#x155;" horiz-adv-x="370" 
d="M243 582l81 154h84l-127 -154h-38zM394 508l-9 -53q-15 4 -39 4q-65 0 -120 -53.5t-71 -150.5l-40 -255h-59l79 500h55l-19 -122q25 62 75 98t108 36q23 0 40 -4z" />
    <glyph glyph-name="uni0156" unicode="&#x156;" horiz-adv-x="676" 
d="M119 0h-59l113 714h258q103 0 157.5 -48t54.5 -137q0 -92 -63.5 -151t-142.5 -68l155 -310h-63l-150 302h-212zM175 355h201q93 0 150 45.5t57 128.5q0 64 -40.5 97.5t-119.5 33.5h-199zM225 -121l10 65h84l-10 -66q-16 -97 -105 -97l5 33q49 0 57 65h-41z" />
    <glyph glyph-name="uni0157" unicode="&#x157;" horiz-adv-x="370" 
d="M394 508l-9 -53q-15 4 -39 4q-65 0 -120 -53.5t-71 -150.5l-40 -255h-59l79 500h55l-19 -122q25 62 75 98t108 36q23 0 40 -4zM27 -121l10 65h84l-10 -66q-16 -97 -105 -97l5 33q49 0 57 65h-41z" />
    <glyph glyph-name="Rcaron" unicode="&#x158;" horiz-adv-x="676" 
d="M440 767h-76l-75 146h39l78 -99l116 99h41zM119 0h-59l113 714h258q103 0 157.5 -48t54.5 -137q0 -92 -63.5 -151t-142.5 -68l155 -310h-63l-150 302h-212zM175 355h201q93 0 150 45.5t57 128.5q0 64 -40.5 97.5t-119.5 33.5h-199z" />
    <glyph glyph-name="rcaron" unicode="&#x159;" horiz-adv-x="370" 
d="M310 579h-72l-60 157h39l61 -114l113 114h41zM394 508l-9 -53q-15 4 -39 4q-65 0 -120 -53.5t-71 -150.5l-40 -255h-59l79 500h55l-19 -122q25 62 75 98t108 36q23 0 40 -4z" />
    <glyph glyph-name="Sacute" unicode="&#x15a;" horiz-adv-x="639" 
d="M358 770l81 143h85l-128 -143h-38zM33 209h59q5 -87 64.5 -127.5t150.5 -40.5q88 0 147.5 47t59.5 116q0 43 -27.5 70.5t-90.5 42.5l-133 33q-154 38 -154 153q0 94 73.5 158.5t186.5 64.5q109 0 173 -50.5t66 -137.5h-58q-2 62 -53 98.5t-132 36.5q-93 0 -145 -49.5
t-52 -117.5q0 -41 27.5 -64.5t88.5 -38.5l137 -34q152 -38 152 -153q0 -96 -77 -162t-195 -66q-114 0 -190.5 57.5t-77.5 163.5z" />
    <glyph glyph-name="sacute" unicode="&#x15b;" horiz-adv-x="483" 
d="M261 582l81 154h84l-127 -154h-38zM19 146h56q-1 -56 41.5 -82.5t104.5 -26.5q61 0 99 30.5t38 73.5q0 52 -79 74l-89 25q-54 16 -83 43t-29 75q0 66 52 110t134 44q75 0 126.5 -34t53.5 -105h-54q-4 45 -39 67.5t-92 22.5q-58 0 -92 -29t-34 -74q0 -28 19.5 -43
t62.5 -27l96 -27q103 -29 103 -113q0 -70 -56 -116t-142 -46q-54 0 -96 15t-71 51.5t-30 91.5z" />
    <glyph glyph-name="Scircumflex" unicode="&#x15c;" horiz-adv-x="639" 
d="M389 913h76l75 -146h-39l-78 99l-116 -99h-41zM33 209h59q5 -87 64.5 -127.5t150.5 -40.5q88 0 147.5 47t59.5 116q0 43 -27.5 70.5t-90.5 42.5l-133 33q-154 38 -154 153q0 94 73.5 158.5t186.5 64.5q109 0 173 -50.5t66 -137.5h-58q-2 62 -53 98.5t-132 36.5
q-93 0 -145 -49.5t-52 -117.5q0 -41 27.5 -64.5t88.5 -38.5l137 -34q152 -38 152 -153q0 -96 -77 -162t-195 -66q-114 0 -190.5 57.5t-77.5 163.5z" />
    <glyph glyph-name="scircumflex" unicode="&#x15d;" horiz-adv-x="483" 
d="M285 736h72l60 -157h-39l-61 114l-113 -114h-41zM19 146h56q-1 -56 41.5 -82.5t104.5 -26.5q61 0 99 30.5t38 73.5q0 52 -79 74l-89 25q-54 16 -83 43t-29 75q0 66 52 110t134 44q75 0 126.5 -34t53.5 -105h-54q-4 45 -39 67.5t-92 22.5q-58 0 -92 -29t-34 -74
q0 -28 19.5 -43t62.5 -27l96 -27q103 -29 103 -113q0 -70 -56 -116t-142 -46q-54 0 -96 15t-71 51.5t-30 91.5z" />
    <glyph glyph-name="uni015E" unicode="&#x15e;" horiz-adv-x="639" 
d="M350 -103q0 -38 -35.5 -62.5t-80.5 -24.5q-52 0 -85 19l7 43q34 -21 79 -21q30 0 49 11t19 31q0 29 -47 29q-19 0 -40 -7l-15 19l45 58q-94 13 -153 69t-60 148h59q5 -87 64.5 -127.5t150.5 -40.5q88 0 147.5 47t59.5 116q0 43 -27.5 70.5t-90.5 42.5l-133 33
q-154 38 -154 153q0 94 73.5 158.5t186.5 64.5q109 0 173 -50.5t66 -137.5h-58q-2 62 -53 98.5t-132 36.5q-93 0 -145 -49.5t-52 -117.5q0 -41 27.5 -64.5t88.5 -38.5l137 -34q152 -38 152 -153q0 -96 -77 -162t-195 -66q-14 0 -20 1l-25 -31q8 2 20 2q29 0 51.5 -15.5
t22.5 -47.5z" />
    <glyph glyph-name="uni015F" unicode="&#x15f;" horiz-adv-x="483" 
d="M281 -103q0 -38 -35.5 -62.5t-80.5 -24.5q-52 0 -85 19l7 43q35 -21 79 -21q30 0 49 11t19 31q0 29 -47 29q-19 0 -40 -7l-15 19l44 56q-69 9 -112.5 47.5t-44.5 108.5h56q-1 -56 41.5 -82.5t104.5 -26.5q61 0 99 30.5t38 73.5q0 52 -79 74l-89 25q-54 16 -83 43t-29 75
q0 66 52 110t134 44q75 0 126.5 -34t53.5 -105h-54q-4 45 -39 67.5t-92 22.5q-58 0 -92 -29t-34 -74q0 -28 19.5 -43t62.5 -27l96 -27q103 -29 103 -113q0 -70 -56 -116t-142 -46h-5l-24 -30q8 2 20 2q29 0 51.5 -15.5t22.5 -47.5z" />
    <glyph glyph-name="Scaron" unicode="&#x160;" horiz-adv-x="639" 
d="M415 767h-76l-75 146h39l78 -99l116 99h41zM33 209h59q5 -87 64.5 -127.5t150.5 -40.5q88 0 147.5 47t59.5 116q0 43 -27.5 70.5t-90.5 42.5l-133 33q-154 38 -154 153q0 94 73.5 158.5t186.5 64.5q109 0 173 -50.5t66 -137.5h-58q-2 62 -53 98.5t-132 36.5
q-93 0 -145 -49.5t-52 -117.5q0 -41 27.5 -64.5t88.5 -38.5l137 -34q152 -38 152 -153q0 -96 -77 -162t-195 -66q-114 0 -190.5 57.5t-77.5 163.5z" />
    <glyph glyph-name="scaron" unicode="&#x161;" horiz-adv-x="483" 
d="M328 579h-72l-60 157h39l61 -114l113 114h41zM19 146h56q-1 -56 41.5 -82.5t104.5 -26.5q61 0 99 30.5t38 73.5q0 52 -79 74l-89 25q-54 16 -83 43t-29 75q0 66 52 110t134 44q75 0 126.5 -34t53.5 -105h-54q-4 45 -39 67.5t-92 22.5q-58 0 -92 -29t-34 -74
q0 -28 19.5 -43t62.5 -27l96 -27q103 -29 103 -113q0 -70 -56 -116t-142 -46q-54 0 -96 15t-71 51.5t-30 91.5z" />
    <glyph glyph-name="Tcommaaccent" unicode="&#x162;" horiz-adv-x="685" 
d="M367 -103q0 -38 -35.5 -62.5t-80.5 -24.5q-52 0 -85 19l7 43q35 -21 79 -21q30 0 49 11t19 31q0 29 -47 29q-19 0 -40 -7l-15 19l56 73l104 653h-272l8 54h603l-8 -54h-272l-105 -660h-25l-34 -42q8 2 20 2q29 0 51.5 -15.5t22.5 -47.5z" />
    <glyph glyph-name="tcommaaccent" unicode="&#x163;" horiz-adv-x="359" 
d="M227 -103q0 -38 -35.5 -62.5t-80.5 -24.5q-52 0 -85 19l7 43q34 -21 79 -21q30 0 49 11t19 31q0 29 -47 29q-19 0 -40 -7l-15 19l54 71q-50 23 -50 89q0 14 3 30l52 329h-75l7 47h76l23 129h56l-21 -129h138l-7 -47h-140l-53 -334q-2 -14 -2 -20q0 -56 66 -56q32 0 79 16
l-7 -51q-44 -16 -81 -16q-18 0 -33 3l-30 -37q8 2 20 2q29 0 51.5 -15.5t22.5 -47.5z" />
    <glyph glyph-name="Tcaron" unicode="&#x164;" horiz-adv-x="685" 
d="M460 767h-76l-75 146h39l78 -99l116 99h41zM273 0l105 660h-272l8 54h603l-8 -54h-272l-105 -660h-59z" />
    <glyph glyph-name="tcaron" unicode="&#x165;" horiz-adv-x="359" 
d="M296 566h-31l66 210h77zM284 59l-7 -51q-44 -16 -81 -16q-54 0 -84 25.5t-30 76.5q0 14 3 30l52 329h-75l7 47h76l23 129h56l-21 -129h138l-7 -47h-140l-53 -334q-2 -14 -2 -20q0 -56 66 -56q32 0 79 16z" />
    <glyph glyph-name="Tbar" unicode="&#x166;" horiz-adv-x="695" 
d="M516 336h-131l-53 -336h-59l53 336h-130l9 54h130l43 270h-272l8 54h603l-8 -54h-272l-43 -270h131z" />
    <glyph glyph-name="tbar" unicode="&#x167;" horiz-adv-x="388" 
d="M293 8q-44 -16 -81 -16q-54 0 -84 25.5t-30 76.5q0 14 3 30l24 153h-76l7 47h77l20 129h-75l7 47h76l23 129h56l-21 -129h138l-7 -47h-140l-20 -129h143l-7 -47h-144l-25 -158q-2 -14 -2 -20q0 -56 66 -56q32 0 79 16z" />
    <glyph glyph-name="Utilde" unicode="&#x168;" horiz-adv-x="736" 
d="M390 849q-42 0 -57 -77h-44q9 59 37.5 94t71.5 35q26 0 49 -19t42 -38t35 -19q41 0 58 77h43q-9 -59 -37.5 -94t-71.5 -35q-26 0 -48.5 19t-41.5 38t-36 19zM654 293q-22 -146 -105.5 -225.5t-216.5 -79.5q-115 0 -179 61t-64 174q0 35 6 72l66 419h59l-68 -430
q-5 -37 -5 -60q0 -91 49.5 -136.5t138.5 -45.5q101 0 169.5 60.5t87.5 181.5l68 430h57z" />
    <glyph glyph-name="utilde" unicode="&#x169;" horiz-adv-x="579" 
d="M285 672q-41 0 -57 -82h-44q9 59 37.5 94t71.5 35q26 0 48 -20t41 -40t37 -20q40 0 58 81h43q-9 -59 -37.5 -94t-71.5 -35q-20 0 -38.5 12.5t-30 28t-27 28t-30.5 12.5zM388 0l15 95q-25 -50 -70.5 -78.5t-104.5 -28.5q-72 0 -112.5 39t-40.5 109q0 19 3 40l51 324h59
l-49 -312q-4 -30 -4 -42q0 -109 108 -109q67 0 114 45t62 139l44 279h59l-79 -500h-55z" />
    <glyph glyph-name="Umacron" unicode="&#x16a;" horiz-adv-x="736" 
d="M311 790l8 50h274l-8 -50h-274zM654 293q-22 -146 -105.5 -225.5t-216.5 -79.5q-115 0 -179 61t-64 174q0 35 6 72l66 419h59l-68 -430q-5 -37 -5 -60q0 -91 49.5 -136.5t138.5 -45.5q101 0 169.5 60.5t87.5 181.5l68 430h57z" />
    <glyph glyph-name="umacron" unicode="&#x16b;" horiz-adv-x="579" 
d="M208 615l8 50h274l-8 -50h-274zM388 0l15 95q-25 -50 -70.5 -78.5t-104.5 -28.5q-72 0 -112.5 39t-40.5 109q0 19 3 40l51 324h59l-49 -312q-4 -30 -4 -42q0 -109 108 -109q67 0 114 45t62 139l44 279h59l-79 -500h-55z" />
    <glyph glyph-name="Ubreve" unicode="&#x16c;" horiz-adv-x="736" 
d="M596 913q-11 -69 -52.5 -108.5t-98.5 -39.5q-49 0 -78.5 30.5t-29.5 83.5q0 10 4 34h46q-2 -18 -2 -25q0 -71 67 -71q37 0 62 25t32 71h50zM654 293q-22 -146 -105.5 -225.5t-216.5 -79.5q-115 0 -179 61t-64 174q0 35 6 72l66 419h59l-68 -430q-5 -37 -5 -60
q0 -91 49.5 -136.5t138.5 -45.5q101 0 169.5 60.5t87.5 181.5l68 430h57z" />
    <glyph glyph-name="ubreve" unicode="&#x16d;" horiz-adv-x="579" 
d="M341 588q-49 0 -78.5 30.5t-29.5 83.5q0 18 4 34h44q-2 -18 -2 -25q0 -35 18.5 -54.5t50.5 -19.5q37 0 63 26.5t33 72.5h48q-11 -69 -52.5 -108.5t-98.5 -39.5zM388 0l15 95q-25 -50 -70.5 -78.5t-104.5 -28.5q-72 0 -112.5 39t-40.5 109q0 19 3 40l51 324h59l-49 -312
q-4 -30 -4 -42q0 -109 108 -109q67 0 114 45t62 139l44 279h59l-79 -500h-55z" />
    <glyph glyph-name="Uring" unicode="&#x16e;" horiz-adv-x="736" 
d="M446 716q-46 0 -77 30.5t-31 74.5q0 52 38.5 92.5t95.5 40.5q46 0 77 -30.5t31 -74.5q0 -52 -38.5 -92.5t-95.5 -40.5zM466 907q-35 0 -57 -24t-22 -56q0 -28 18.5 -46t46.5 -18q35 0 57 24t22 56q0 28 -18.5 46t-46.5 18zM654 293q-22 -146 -105.5 -225.5t-216.5 -79.5
q-115 0 -179 61t-64 174q0 35 6 72l66 419h59l-68 -430q-5 -37 -5 -60q0 -91 49.5 -136.5t138.5 -45.5q101 0 169.5 60.5t87.5 181.5l68 430h57z" />
    <glyph glyph-name="uring" unicode="&#x16f;" horiz-adv-x="579" 
d="M363 762q37 0 61.5 -24t23.5 -59q1 -41 -29.5 -73t-76.5 -32q-36 0 -60.5 24t-24.5 59q0 41 30 73t76 32zM347 615q26 0 42.5 18t15.5 41q1 20 -12.5 33.5t-34.5 13.5q-25 0 -41.5 -17.5t-16.5 -41.5q0 -20 13.5 -33.5t33.5 -13.5zM388 0l15 95q-25 -50 -70.5 -78.5
t-104.5 -28.5q-72 0 -112.5 39t-40.5 109q0 19 3 40l51 324h59l-49 -312q-4 -30 -4 -42q0 -109 108 -109q67 0 114 45t62 139l44 279h59l-79 -500h-55z" />
    <glyph glyph-name="Uhungarumlaut" unicode="&#x170;" horiz-adv-x="736" 
d="M483 770l83 143h79l-127 -143h-35zM342 770l82 143h80l-128 -143h-34zM654 293q-22 -146 -105.5 -225.5t-216.5 -79.5q-115 0 -179 61t-64 174q0 35 6 72l66 419h59l-68 -430q-5 -37 -5 -60q0 -91 49.5 -136.5t138.5 -45.5q101 0 169.5 60.5t87.5 181.5l68 430h57z" />
    <glyph glyph-name="uhungarumlaut" unicode="&#x171;" horiz-adv-x="579" 
d="M378 582l83 154h79l-127 -154h-35zM237 582l82 154h80l-128 -154h-34zM388 0l15 95q-25 -50 -70.5 -78.5t-104.5 -28.5q-72 0 -112.5 39t-40.5 109q0 19 3 40l51 324h59l-49 -312q-4 -30 -4 -42q0 -109 108 -109q67 0 114 45t62 139l44 279h59l-79 -500h-55z" />
    <glyph glyph-name="Uogonek" unicode="&#x172;" horiz-adv-x="736" 
d="M437 -185q-16 -5 -40 -5q-27 0 -49 19t-22 49q0 59 62 114q-24 -4 -56 -4q-115 0 -179 61t-64 174q0 35 6 72l66 419h59l-68 -430q-5 -37 -5 -60q0 -91 49.5 -136.5t138.5 -45.5q101 0 169.5 60.5t87.5 181.5l68 430h57l-63 -421q-32 -217 -193 -282q-85 -73 -85 -122
q0 -17 10.5 -26.5t28.5 -9.5q17 0 28 4z" />
    <glyph glyph-name="uogonek" unicode="&#x173;" horiz-adv-x="579" 
d="M413 -185q-16 -5 -40 -5q-27 0 -49 18t-22 48q0 34 20 62t68 74l13 83q-25 -50 -70.5 -78.5t-104.5 -28.5q-72 0 -112.5 39t-40.5 109q0 19 3 40l51 324h59l-49 -312q-4 -30 -4 -42q0 -109 108 -109q67 0 114 45t62 139l44 279h59l-79 -500h-16q-46 -48 -60.5 -70.5
t-14.5 -42.5q0 -16 11 -25t28 -9t28 4z" />
    <glyph glyph-name="Wcircumflex" unicode="&#x174;" horiz-adv-x="956" 
d="M551 913h76l75 -146h-39l-78 99l-116 -99h-41zM595 0l-55 639h-2l-292 -639h-70l-73 714h59l60 -643h2l294 643h69l57 -643h2l293 643h60l-333 -714h-71z" />
    <glyph glyph-name="wcircumflex" unicode="&#x175;" horiz-adv-x="742" 
d="M406 736h72l60 -157h-39l-61 114l-113 -114h-41zM435 500l38 -433h2l215 433h57l-255 -500h-62l-40 430h-2l-207 -430h-64l-44 500h56l35 -433h2l206 433h63z" />
    <glyph glyph-name="Ycircumflex" unicode="&#x176;" horiz-adv-x="641" 
d="M377 913h76l75 -146h-39l-78 99l-116 -99h-41zM310 0h-59l47 298l-205 416h63l179 -361h3l287 361h69l-337 -416z" />
    <glyph glyph-name="ycircumflex" unicode="&#x177;" horiz-adv-x="527" 
d="M301 736h72l60 -157h-39l-61 114l-113 -114h-41zM178 -4l-105 504h59l85 -434h2l251 434h62l-307 -519q-54 -92 -96.5 -129.5t-102.5 -37.5q-25 0 -43 9l8 50q23 -8 40 -8q40 0 72 29t75 102z" />
    <glyph glyph-name="Ydieresis" unicode="&#x178;" horiz-adv-x="641" 
d="M450 791l14 88h66l-14 -88h-66zM277 791l14 88h66l-14 -88h-66zM310 0h-59l47 298l-205 416h63l179 -361h3l287 361h69l-337 -416z" />
    <glyph glyph-name="Zacute" unicode="&#x179;" horiz-adv-x="659" 
d="M392 770l81 143h85l-128 -143h-38zM664 664l-560 -610h465l-9 -54h-543l7 43l564 617h-449l8 54h525z" />
    <glyph glyph-name="zacute" unicode="&#x17a;" horiz-adv-x="512" 
d="M284 582l81 154h84l-127 -154h-38zM486 455l-388 -408h325l-7 -47h-399l6 38l390 415h-302l7 47h375z" />
    <glyph glyph-name="Zdotaccent" unicode="&#x17b;" horiz-adv-x="659" 
d="M381 791l14 88h70l-14 -88h-70zM664 664l-560 -610h465l-9 -54h-543l7 43l564 617h-449l8 54h525z" />
    <glyph glyph-name="zdotaccent" unicode="&#x17c;" horiz-adv-x="512" 
d="M283 615l14 88h71l-14 -88h-71zM486 455l-388 -408h325l-7 -47h-399l6 38l390 415h-302l7 47h375z" />
    <glyph glyph-name="Zcaron" unicode="&#x17d;" horiz-adv-x="659" 
d="M469 767h-76l-75 146h39l78 -99l116 99h41zM664 664l-560 -610h465l-9 -54h-543l7 43l564 617h-449l8 54h525z" />
    <glyph glyph-name="zcaron" unicode="&#x17e;" horiz-adv-x="512" 
d="M351 579h-72l-60 157h39l61 -114l113 114h41zM486 455l-388 -408h325l-7 -47h-399l6 38l390 415h-302l7 47h375z" />
    <glyph glyph-name="uni0192" unicode="&#x192;" horiz-adv-x="505" 
d="M404 358h-126l-158 -468h-57l157 468h-90l7 46h99l66 197q23 67 69 107t105 40q31 0 63 -13l-8 -55q-29 15 -62 15q-78 0 -112 -104l-63 -187h117z" />
    <glyph glyph-name="AEacute" unicode="&#x1fc;" horiz-adv-x="1080" 
d="M800 770l81 143h85l-128 -143h-38zM508 0l34 213h-313l-180 -213h-69l605 714h502l-9 -54h-406l-44 -277h362l-9 -54h-362l-43 -275h404l-9 -54h-463zM614 669l-341 -404h277z" />
    <glyph glyph-name="aeacute" unicode="&#x1fd;" horiz-adv-x="879" 
d="M481 582l81 154h84l-127 -154h-38zM804 142q-27 -76 -87 -115t-130 -39t-115.5 35.5t-64.5 97.5q-22 -51 -82 -91.5t-139 -40.5q-64 0 -106.5 36.5t-42.5 98.5q0 69 55.5 114.5t167.5 45.5h139l8 49q2 13 2 33q0 95 -113 95q-56 0 -95 -26.5t-52 -74.5h-57
q18 72 75.5 112t131.5 40q68 0 109.5 -28t49.5 -79q80 107 193 107q87 0 132 -54t45 -144q0 -35 -8 -78h-370q-2 -22 -2 -35q0 -78 37.5 -120t108.5 -42q103 0 155 103h55zM645 461q-68 0 -118.5 -48t-69.5 -129h312q2 13 2 30q0 70 -31.5 108.5t-94.5 38.5zM194 38
q71 0 126 42.5t66 118.5l6 37h-141q-157 0 -157 -111q0 -41 27 -64t73 -23z" />
    <glyph glyph-name="Oslashacute" unicode="&#x1fe;" horiz-adv-x="738" 
d="M410 770l81 143h85l-128 -143h-38zM341 -12q-118 0 -193 78l-88 -96l-34 33l93 100q-51 79 -51 190q0 117 43.5 215t127.5 158t191 60q118 0 193 -78l81 87l33 -32l-85 -92q51 -79 51 -190q0 -117 -43.5 -215t-127.5 -158t-191 -60zM131 291q0 -83 30 -142l422 456
q-57 66 -157 66q-135 0 -215 -109.5t-80 -270.5zM640 423q0 83 -30 142l-422 -456q57 -66 157 -66q135 0 215 109.5t80 270.5z" />
    <glyph glyph-name="oslashacute" unicode="&#x1ff;" horiz-adv-x="572" 
d="M313 582l81 154h84l-127 -154h-38zM253 -12q-81 0 -133 46l-68 -72l-31 29l71 75q-38 55 -38 136q0 129 75 219.5t189 90.5q89 0 141 -54l61 64l31 -29l-65 -69q31 -53 31 -126q0 -129 -75 -219.5t-189 -90.5zM111 202q0 -56 21 -93l289 308q-39 44 -108 44
q-91 0 -146.5 -75t-55.5 -184zM460 298q0 48 -15 82l-287 -305q39 -36 100 -36q91 0 146.5 75t55.5 184z" />
    <glyph glyph-name="uni0218" unicode="&#x218;" horiz-adv-x="639" 
d="M33 209h59q5 -87 64.5 -127.5t150.5 -40.5q88 0 147.5 47t59.5 116q0 43 -27.5 70.5t-90.5 42.5l-133 33q-154 38 -154 153q0 94 73.5 158.5t186.5 64.5q109 0 173 -50.5t66 -137.5h-58q-2 62 -53 98.5t-132 36.5q-93 0 -145 -49.5t-52 -117.5q0 -41 27.5 -64.5
t88.5 -38.5l137 -34q152 -38 152 -153q0 -96 -77 -162t-195 -66q-114 0 -190.5 57.5t-77.5 163.5zM230 -121l10 65h84l-10 -66q-16 -97 -105 -97l5 33q49 0 57 65h-41z" />
    <glyph glyph-name="uni0219" unicode="&#x219;" horiz-adv-x="483" 
d="M19 146h56q-1 -56 41.5 -82.5t104.5 -26.5q61 0 99 30.5t38 73.5q0 52 -79 74l-89 25q-54 16 -83 43t-29 75q0 66 52 110t134 44q75 0 126.5 -34t53.5 -105h-54q-4 45 -39 67.5t-92 22.5q-58 0 -92 -29t-34 -74q0 -28 19.5 -43t62.5 -27l96 -27q103 -29 103 -113
q0 -70 -56 -116t-142 -46q-54 0 -96 15t-71 51.5t-30 91.5zM140 -121l10 65h84l-10 -66q-16 -97 -105 -97l5 33q49 0 57 65h-41z" />
    <glyph glyph-name="uni021A" unicode="&#x21a;" horiz-adv-x="685" 
d="M273 0l105 660h-272l8 54h603l-8 -54h-272l-105 -660h-59zM244 -121l10 65h84l-10 -66q-16 -97 -105 -97l5 33q49 0 57 65h-41z" />
    <glyph glyph-name="uni021B" unicode="&#x21b;" horiz-adv-x="358" 
d="M284 59l-7 -51q-44 -16 -81 -16q-54 0 -84 25.5t-30 76.5q0 14 3 30l52 329h-75l7 47h76l23 129h56l-21 -129h138l-7 -47h-140l-53 -334q-2 -14 -2 -20q0 -56 66 -56q32 0 79 16zM95 -121l10 65h84l-10 -66q-16 -97 -105 -97l5 33q49 0 57 65h-41z" />
    <glyph glyph-name="uni0237" unicode="&#x237;" horiz-adv-x="251" 
d="M-25 -184q-23 0 -43 9l8 48q20 -6 33 -6q34 0 50.5 16t23.5 58l88 559h59l-87 -553q-10 -66 -42 -98.5t-90 -32.5z" />
    <glyph glyph-name="circumflex" unicode="&#x2c6;" horiz-adv-x="565" 
d="M341 736h72l60 -157h-39l-61 114l-113 -114h-41z" />
    <glyph glyph-name="caron" unicode="&#x2c7;" horiz-adv-x="565" 
d="M361 579h-72l-60 157h39l61 -114l113 114h41z" />
    <glyph glyph-name="breve" unicode="&#x2d8;" horiz-adv-x="565" 
d="M323 588q-49 0 -78.5 30.5t-29.5 83.5q0 18 4 34h44q-2 -18 -2 -25q0 -35 18.5 -54.5t50.5 -19.5q37 0 63 26.5t33 72.5h48q-11 -69 -52.5 -108.5t-98.5 -39.5z" />
    <glyph glyph-name="dotaccent" unicode="&#x2d9;" horiz-adv-x="564" 
d="M303 615l14 88h71l-14 -88h-71z" />
    <glyph glyph-name="ring" unicode="&#x2da;" horiz-adv-x="565" 
d="M358 762q37 0 61.5 -24t23.5 -59q1 -41 -29.5 -73t-76.5 -32q-36 0 -60.5 24t-24.5 59q0 41 30 73t76 32zM342 615q26 0 42.5 18t15.5 41q1 20 -12.5 33.5t-34.5 13.5q-25 0 -41.5 -17.5t-16.5 -41.5q0 -20 13.5 -33.5t33.5 -13.5z" />
    <glyph glyph-name="ogonek" unicode="&#x2db;" horiz-adv-x="565" 
d="M247 13h48q-54 -57 -70.5 -81t-16.5 -45q0 -16 11 -25t28 -9t28 4l-6 -42q-16 -5 -40 -5q-27 0 -49 18t-22 48q0 34 20.5 62t68.5 75z" />
    <glyph glyph-name="tilde" unicode="&#x2dc;" horiz-adv-x="564" 
d="M277 672q-41 0 -57 -82h-44q9 59 37.5 94t71.5 35q26 0 48 -20t41 -40t37 -20q40 0 58 81h43q-9 -59 -37.5 -94t-71.5 -35q-20 0 -38.5 12.5t-30 28t-27 28t-30.5 12.5z" />
    <glyph glyph-name="hungarumlaut" unicode="&#x2dd;" horiz-adv-x="564" 
d="M335 582l83 154h79l-127 -154h-35zM194 582l82 154h80l-128 -154h-34z" />
    <glyph glyph-name="Wgrave" unicode="&#x1e80;" horiz-adv-x="956" 
d="M576 770h-35l-88 143h83zM595 0l-55 639h-2l-292 -639h-70l-73 714h59l60 -643h2l294 643h69l57 -643h2l293 643h60l-333 -714h-71z" />
    <glyph glyph-name="wgrave" unicode="&#x1e81;" horiz-adv-x="742" 
d="M431 582h-35l-83 154h78zM435 500l38 -433h2l215 433h57l-255 -500h-62l-40 430h-2l-207 -430h-64l-44 500h56l35 -433h2l206 433h63z" />
    <glyph glyph-name="Wacute" unicode="&#x1e82;" horiz-adv-x="956" 
d="M549 770l81 143h85l-128 -143h-38zM595 0l-55 639h-2l-292 -639h-70l-73 714h59l60 -643h2l294 643h69l57 -643h2l293 643h60l-333 -714h-71z" />
    <glyph glyph-name="wacute" unicode="&#x1e83;" horiz-adv-x="742" 
d="M399 582l81 154h84l-127 -154h-38zM435 500l38 -433h2l215 433h57l-255 -500h-62l-40 430h-2l-207 -430h-64l-44 500h56l35 -433h2l206 433h63z" />
    <glyph glyph-name="Wdieresis" unicode="&#x1e84;" horiz-adv-x="956" 
d="M616 791l14 88h66l-14 -88h-66zM443 791l14 88h66l-14 -88h-66zM595 0l-55 639h-2l-292 -639h-70l-73 714h59l60 -643h2l294 643h69l57 -643h2l293 643h60l-333 -714h-71z" />
    <glyph glyph-name="wdieresis" unicode="&#x1e85;" horiz-adv-x="742" 
d="M477 615l14 88h66l-14 -88h-66zM304 615l14 88h66l-14 -88h-66zM435 500l38 -433h2l215 433h57l-255 -500h-62l-40 430h-2l-207 -430h-64l-44 500h56l35 -433h2l206 433h63z" />
    <glyph glyph-name="Ygrave" unicode="&#x1ef2;" horiz-adv-x="641" 
d="M429 770h-35l-88 143h83zM310 0h-59l47 298l-205 416h63l179 -361h3l287 361h69l-337 -416z" />
    <glyph glyph-name="ygrave" unicode="&#x1ef3;" horiz-adv-x="527" 
d="M329 582h-35l-83 154h78zM178 -4l-105 504h59l85 -434h2l251 434h62l-307 -519q-54 -92 -96.5 -129.5t-102.5 -37.5q-25 0 -43 9l8 50q23 -8 40 -8q40 0 72 29t75 102z" />
    <glyph glyph-name="endash" unicode="&#x2013;" horiz-adv-x="677" 
d="M87 251l9 51h503l-9 -51h-503z" />
    <glyph glyph-name="emdash" unicode="&#x2014;" horiz-adv-x="1003" 
d="M87 251l9 51h829l-9 -51h-829z" />
    <glyph glyph-name="quoteleft" unicode="&#x2018;" horiz-adv-x="296" 
d="M245 591l-13 -80h-87l15 95q9 57 47.5 93.5t97.5 36.5l-7 -40q-77 0 -91 -90l-2 -15h40z" />
    <glyph glyph-name="quoteright" unicode="&#x2019;" horiz-adv-x="296" 
d="M169 656l13 80h87l-15 -95q-9 -57 -47.5 -93.5t-97.5 -36.5l7 40q77 0 91 90l2 15h-40z" />
    <glyph glyph-name="quotesinglbase" unicode="&#x201a;" horiz-adv-x="296" 
d="M70 32l13 80h87l-15 -95q-9 -57 -47.5 -93.5t-97.5 -36.5l7 40q77 0 91 90l2 15h-40z" />
    <glyph glyph-name="quotedblleft" unicode="&#x201c;" horiz-adv-x="498" 
d="M447 591l-13 -80h-87l15 95q9 57 47.5 93.5t97.5 36.5l-7 -40q-77 0 -91 -90l-2 -15h40zM245 591l-13 -80h-87l15 95q9 57 47.5 93.5t97.5 36.5l-7 -40q-77 0 -91 -90l-2 -15h40z" />
    <glyph glyph-name="quotedblright" unicode="&#x201d;" horiz-adv-x="498" 
d="M168 656l13 80h87l-15 -95q-9 -57 -47.5 -93.5t-97.5 -36.5l7 40q77 0 91 90l2 15h-40zM371 656l13 80h87l-15 -95q-9 -57 -47.5 -93.5t-97.5 -36.5l7 40q77 0 91 90l2 15h-40z" />
    <glyph glyph-name="quotedblbase" unicode="&#x201e;" horiz-adv-x="498" 
d="M70 32l13 80h87l-15 -95q-9 -57 -47.5 -93.5t-97.5 -36.5l7 40q77 0 91 90l2 15h-40zM272 32l13 80h87l-15 -95q-9 -57 -47.5 -93.5t-97.5 -36.5l7 40q77 0 91 90l2 15h-40z" />
    <glyph glyph-name="dagger" unicode="&#x2020;" horiz-adv-x="359" 
d="M370 564h-117l-41 -262h-48l41 262h-117l7 46h118l18 116h48l-18 -116h117z" />
    <glyph glyph-name="daggerdbl" unicode="&#x2021;" horiz-adv-x="359" 
d="M347 418h-118l-18 -116h-48l18 116h-117l8 46h117l15 100h-117l7 46h118l18 116h48l-18 -116h117l-8 -46h-117l-15 -100h117z" />
    <glyph glyph-name="bullet" unicode="&#x2022;" horiz-adv-x="417" 
d="M94 294q0 49 36 84.5t86 35.5t85.5 -35.5t35.5 -84.5q0 -50 -35.5 -85.5t-85.5 -35.5t-86 35.5t-36 85.5z" />
    <glyph glyph-name="ellipsis" unicode="&#x2026;" horiz-adv-x="655" 
d="M424 0l14 87h87l-14 -87h-87zM244 0l14 87h87l-14 -87h-87zM64 0l14 87h87l-14 -87h-87z" />
    <glyph glyph-name="guilsinglleft" unicode="&#x2039;" horiz-adv-x="307" 
d="M209 46h-45l-101 191l158 192h49l-138 -192z" />
    <glyph glyph-name="guilsinglright" unicode="&#x203a;" horiz-adv-x="307" 
d="M94 429h45l101 -191l-158 -192h-49l138 192z" />
    <glyph glyph-name="fraction" unicode="&#x2044;" horiz-adv-x="184" 
d="M-178 -12h-60l633 739h60z" />
    <glyph glyph-name="uni2070" unicode="&#x2070;" horiz-adv-x="408" 
d="M221 316q-63 0 -99 44.5t-36 116.5q0 100 52.5 173t134.5 73q63 0 98.5 -44t35.5 -117q0 -100 -52.5 -173t-133.5 -73zM270 678q-49 0 -81.5 -43t-43.5 -114q-5 -23 -5 -48q0 -52 21.5 -82t62.5 -30q48 0 81 43t44 113q4 25 4 49q0 52 -21.5 82t-61.5 30z" />
    <glyph glyph-name="uni2074" unicode="&#x2074;" horiz-adv-x="401" 
d="M357 714l-41 -251h83l-6 -42h-83l-15 -98h-52l15 98h-195l7 43l226 250h61zM296 660l-175 -197h143z" />
    <glyph glyph-name="uni2075" unicode="&#x2075;" horiz-adv-x="372" 
d="M235 541q-54 0 -87 -41h-49l56 215h228l-8 -45h-187l-33 -122q36 36 92 36q54 0 84 -30.5t30 -79.5q0 -65 -44.5 -111.5t-113.5 -46.5q-61 0 -96 33t-35 92h54q0 -38 21 -60t60 -22q46 0 73.5 32.5t27.5 76.5q0 32 -18.5 52.5t-54.5 20.5z" />
    <glyph glyph-name="uni2076" unicode="&#x2076;" horiz-adv-x="383" 
d="M270 678q-50 0 -86 -46.5t-46 -117.5q37 69 114 69q51 0 84.5 -32t33.5 -82q0 -63 -45 -108t-111 -45q-59 0 -94.5 41.5t-35.5 110.5q0 103 55.5 179t133.5 76q53 0 84.5 -29.5t32.5 -79.5h-50q-3 64 -70 64zM219 359q42 0 70.5 31.5t28.5 75.5q0 35 -21.5 55.5
t-57.5 20.5q-42 0 -71 -30t-29 -73q0 -35 22 -57.5t58 -22.5z" />
    <glyph glyph-name="uni2077" unicode="&#x2077;" horiz-adv-x="350" 
d="M319 670h-221l8 44h278l-7 -39q-79 -82 -121 -165.5t-60 -186.5h-57q32 189 180 347z" />
    <glyph glyph-name="uni2078" unicode="&#x2078;" horiz-adv-x="388" 
d="M211 316q-64 0 -102 27.5t-38 73.5q0 42 31 72.5t71 36.5q-53 21 -53 75t42 88t103 34q53 0 86.5 -26t33.5 -70q0 -38 -22.5 -66.5t-59.5 -40.5q29 -6 48.5 -28.5t19.5 -51.5q0 -54 -45.5 -89t-114.5 -35zM245 543q39 0 64.5 22t25.5 58q0 28 -21 42.5t-53 14.5
q-39 0 -65 -21t-26 -57q0 -29 21 -44t54 -15zM229 503q-47 0 -75.5 -23t-28.5 -59q0 -29 24.5 -46t65.5 -17q48 0 75.5 24.5t27.5 58.5q0 28 -23.5 45t-65.5 17z" />
    <glyph glyph-name="uni2079" unicode="&#x2079;" horiz-adv-x="383" 
d="M197 361q50 0 85.5 46.5t45.5 117.5q-37 -70 -114 -70q-50 0 -83.5 32.5t-33.5 81.5q0 63 44.5 108.5t110.5 45.5q59 0 95 -41.5t36 -111.5q0 -103 -55.5 -178.5t-133.5 -75.5q-53 0 -85 29t-33 80h50q3 -64 71 -64zM248 679q-43 0 -71 -30.5t-28 -74.5q0 -35 21 -56.5
t57 -21.5q43 0 71.5 30t28.5 74q0 35 -21.5 57t-57.5 22z" />
    <glyph glyph-name="uni2080" unicode="&#x2080;" horiz-adv-x="408" 
d="M148 -147q-63 0 -99 44.5t-36 116.5q0 100 52.5 173t134.5 73q63 0 98.5 -44t35.5 -117q0 -100 -52.5 -173t-133.5 -73zM197 215q-49 0 -81.5 -43t-43.5 -114q-5 -23 -5 -48q0 -52 21.5 -82t62.5 -30q48 0 81 43t44 113q4 25 4 49q0 52 -21.5 82t-61.5 30z" />
    <glyph glyph-name="uni2081" unicode="&#x2081;" horiz-adv-x="327" 
d="M250 -97l-7 -43h-261l7 43h103l40 251h-101l6 40q67 0 92.5 13t38.5 46h33l-55 -350h104z" />
    <glyph glyph-name="uni2082" unicode="&#x2082;" horiz-adv-x="345" 
d="M293 159q0 -29 -10.5 -52t-36 -44t-42 -31.5t-54.5 -32.5q-48 -28 -75.5 -50t-31.5 -44h216l-8 -45h-274l4 23q5 34 31 65.5t52 49.5t66 41q58 32 85 57.5t27 60.5q0 25 -16 41t-50 16q-37 0 -63 -24t-34 -59h-52q12 55 52.5 91.5t100.5 36.5q54 0 83.5 -28.5t29.5 -71.5
z" />
    <glyph glyph-name="uni2083" unicode="&#x2083;" horiz-adv-x="370" 
d="M280 -24q0 -48 -40 -85.5t-110 -37.5q-61 0 -98 32.5t-37 88.5h53q0 -37 22.5 -57.5t62.5 -20.5q44 0 70 23.5t26 57.5q0 28 -19 43t-54 15h-41l7 43h40q37 0 61 21t24 58q0 26 -17.5 42.5t-50.5 16.5q-39 0 -63.5 -20.5t-31.5 -55.5h-51q12 53 51 86.5t99 33.5
q56 0 86.5 -28.5t30.5 -70.5q0 -40 -26 -69.5t-61 -35.5q30 -6 48.5 -28t18.5 -52z" />
    <glyph glyph-name="uni2084" unicode="&#x2084;" horiz-adv-x="401" 
d="M284 251l-41 -251h83l-6 -42h-83l-15 -98h-52l15 98h-195l7 43l226 250h61zM223 197l-175 -197h143z" />
    <glyph glyph-name="uni2085" unicode="&#x2085;" horiz-adv-x="372" 
d="M162 78q-54 0 -87 -41h-49l56 215h228l-8 -45h-187l-33 -122q36 36 92 36q54 0 84 -30.5t30 -79.5q0 -65 -44.5 -111.5t-113.5 -46.5q-61 0 -96 33t-35 92h54q0 -38 21 -60t60 -22q46 0 73.5 32.5t27.5 76.5q0 32 -18.5 52.5t-54.5 20.5z" />
    <glyph glyph-name="uni2086" unicode="&#x2086;" horiz-adv-x="383" 
d="M197 215q-50 0 -86 -46.5t-46 -117.5q37 69 114 69q51 0 84.5 -32t33.5 -82q0 -63 -45 -108t-111 -45q-59 0 -94.5 41.5t-35.5 110.5q0 103 55.5 179t133.5 76q53 0 84.5 -29.5t32.5 -79.5h-50q-3 64 -70 64zM146 -104q42 0 70.5 31.5t28.5 75.5q0 35 -21.5 55.5
t-57.5 20.5q-42 0 -71 -30t-29 -73q0 -35 22 -57.5t58 -22.5z" />
    <glyph glyph-name="uni2087" unicode="&#x2087;" horiz-adv-x="350" 
d="M246 207h-221l8 44h278l-7 -39q-79 -82 -121 -165.5t-60 -186.5h-57q32 189 180 347z" />
    <glyph glyph-name="uni2088" unicode="&#x2088;" horiz-adv-x="388" 
d="M138 -147q-64 0 -102 27.5t-38 73.5q0 42 31 72.5t71 36.5q-53 21 -53 75t42 88t103 34q53 0 86.5 -26t33.5 -70q0 -38 -22.5 -66.5t-59.5 -40.5q29 -6 48.5 -28.5t19.5 -51.5q0 -54 -45.5 -89t-114.5 -35zM172 80q39 0 64.5 22t25.5 58q0 28 -21 42.5t-53 14.5
q-39 0 -65 -21t-26 -57q0 -29 21 -44t54 -15zM156 40q-47 0 -75.5 -23t-28.5 -59q0 -29 24.5 -46t65.5 -17q48 0 75.5 24.5t27.5 58.5q0 28 -23.5 45t-65.5 17z" />
    <glyph glyph-name="uni2089" unicode="&#x2089;" horiz-adv-x="383" 
d="M124 -102q50 0 85.5 46.5t45.5 117.5q-37 -70 -114 -70q-50 0 -83.5 32.5t-33.5 81.5q0 63 44.5 108.5t110.5 45.5q59 0 95 -41.5t36 -111.5q0 -103 -55.5 -178.5t-133.5 -75.5q-53 0 -85 29t-33 80h50q3 -64 71 -64zM175 216q-43 0 -71 -30.5t-28 -74.5q0 -35 21 -56.5
t57 -21.5q43 0 71.5 30t28.5 74q0 35 -21.5 57t-57.5 22z" />
    <glyph glyph-name="Euro" unicode="&#x20ac;" horiz-adv-x="697" 
d="M638 199q-30 -97 -101 -154t-173 -57t-165.5 73t-67.5 199h-80l8 51h73q3 47 12 90h-71l8 51h76q39 124 125 199t190 75q98 0 150.5 -57t52.5 -153h-57q-6 155 -155 155q-81 0 -146.5 -60t-98.5 -159h262l-20 -51h-257q-9 -43 -12 -90h234l-18 -51h-217
q5 -102 51.5 -159.5t131.5 -57.5q151 0 204 156h61z" />
    <glyph glyph-name="trademark" unicode="&#x2122;" horiz-adv-x="826" 
d="M233 403h-54l42 265h-110l8 46h274l-8 -46h-110zM581 403h-41l-43 261h-2l-41 -261h-48l50 311h80l36 -240h4l111 240h80l-50 -311h-51l41 261h-2z" />
    <glyph glyph-name="uni2153" unicode="&#x2153;" horiz-adv-x="902" 
d="M194 -12h-60l633 739h60zM351 366l-7 -43h-261l7 43h103l40 251h-101l6 40q67 0 92.5 13t38.5 46h33l-55 -350h104zM835 116q0 -48 -40 -85.5t-110 -37.5q-61 0 -98 32.5t-37 88.5h53q0 -37 22.5 -57.5t62.5 -20.5q44 0 70 23.5t26 57.5q0 28 -19 43t-54 15h-41l7 43h40
q37 0 61 21t24 58q0 26 -17.5 42.5t-50.5 16.5q-39 0 -63.5 -20.5t-31.5 -55.5h-51q12 53 51 86.5t99 33.5q56 0 86.5 -28.5t30.5 -70.5q0 -40 -26 -69.5t-61 -35.5q30 -6 48.5 -28t18.5 -52z" />
    <glyph glyph-name="uni2154" unicode="&#x2154;" horiz-adv-x="921" 
d="M213 -12h-60l633 739h60zM396 622q0 -29 -10.5 -52t-36 -44t-42 -31.5t-54.5 -32.5q-48 -28 -75.5 -50t-31.5 -44h216l-8 -45h-274l4 23q5 34 31 65.5t52 49.5t66 41q58 32 85 57.5t27 60.5q0 25 -16 41t-50 16q-37 0 -63 -24t-34 -59h-52q12 55 52.5 91.5t100.5 36.5
q54 0 83.5 -28.5t29.5 -71.5zM854 116q0 -48 -40 -85.5t-110 -37.5q-61 0 -98 32.5t-37 88.5h53q0 -37 22.5 -57.5t62.5 -20.5q44 0 70 23.5t26 57.5q0 28 -19 43t-54 15h-41l7 43h40q37 0 61 21t24 58q0 26 -17.5 42.5t-50.5 16.5q-39 0 -63.5 -20.5t-31.5 -55.5h-51
q12 53 51 86.5t99 33.5q56 0 86.5 -28.5t30.5 -70.5q0 -40 -26 -69.5t-61 -35.5q30 -6 48.5 -28t18.5 -52z" />
    <glyph glyph-name="uni215B" unicode="&#x215b;" horiz-adv-x="920" 
d="M194 -12h-60l633 739h60zM351 366l-7 -43h-261l7 43h103l40 251h-101l6 40q67 0 92.5 13t38.5 46h33l-55 -350h104zM693 -7q-64 0 -102 27.5t-38 73.5q0 42 31 72.5t71 36.5q-53 21 -53 75t42 88t103 34q53 0 86.5 -26t33.5 -70q0 -38 -22.5 -66.5t-59.5 -40.5
q29 -6 48.5 -28.5t19.5 -51.5q0 -54 -45.5 -89t-114.5 -35zM727 220q39 0 64.5 22t25.5 58q0 28 -21 42.5t-53 14.5q-39 0 -65 -21t-26 -57q0 -29 21 -44t54 -15zM711 180q-47 0 -75.5 -23t-28.5 -59q0 -29 24.5 -46t65.5 -17q48 0 75.5 24.5t27.5 58.5q0 28 -23.5 45
t-65.5 17z" />
    <glyph glyph-name="uni215C" unicode="&#x215c;" horiz-adv-x="939" 
d="M213 -12h-60l633 739h60zM383 439q0 -48 -40 -85.5t-110 -37.5q-61 0 -98 32.5t-37 88.5h53q0 -37 22.5 -57.5t62.5 -20.5q44 0 70 23.5t26 57.5q0 28 -19 43t-54 15h-41l7 43h40q37 0 61 21t24 58q0 26 -17.5 42.5t-50.5 16.5q-39 0 -63.5 -20.5t-31.5 -55.5h-51
q12 53 51 86.5t99 33.5q56 0 86.5 -28.5t30.5 -70.5q0 -40 -26 -69.5t-61 -35.5q30 -6 48.5 -28t18.5 -52zM712 -7q-64 0 -102 27.5t-38 73.5q0 42 31 72.5t71 36.5q-53 21 -53 75t42 88t103 34q53 0 86.5 -26t33.5 -70q0 -38 -22.5 -66.5t-59.5 -40.5q29 -6 48.5 -28.5
t19.5 -51.5q0 -54 -45.5 -89t-114.5 -35zM746 220q39 0 64.5 22t25.5 58q0 28 -21 42.5t-53 14.5q-39 0 -65 -21t-26 -57q0 -29 21 -44t54 -15zM730 180q-47 0 -75.5 -23t-28.5 -59q0 -29 24.5 -46t65.5 -17q48 0 75.5 24.5t27.5 58.5q0 28 -23.5 45t-65.5 17z" />
    <glyph glyph-name="uni215D" unicode="&#x215d;" horiz-adv-x="925" 
d="M199 -12h-60l633 739h60zM265 541q-54 0 -87 -41h-49l56 215h228l-8 -45h-187l-33 -122q36 36 92 36q54 0 84 -30.5t30 -79.5q0 -65 -44.5 -111.5t-113.5 -46.5q-61 0 -96 33t-35 92h54q0 -38 21 -60t60 -22q46 0 73.5 32.5t27.5 76.5q0 32 -18.5 52.5t-54.5 20.5z
M698 -7q-64 0 -102 27.5t-38 73.5q0 42 31 72.5t71 36.5q-53 21 -53 75t42 88t103 34q53 0 86.5 -26t33.5 -70q0 -38 -22.5 -66.5t-59.5 -40.5q29 -6 48.5 -28.5t19.5 -51.5q0 -54 -45.5 -89t-114.5 -35zM732 220q39 0 64.5 22t25.5 58q0 28 -21 42.5t-53 14.5
q-39 0 -65 -21t-26 -57q0 -29 21 -44t54 -15zM716 180q-47 0 -75.5 -23t-28.5 -59q0 -29 24.5 -46t65.5 -17q48 0 75.5 24.5t27.5 58.5q0 28 -23.5 45t-65.5 17z" />
    <glyph glyph-name="uni215E" unicode="&#x215e;" horiz-adv-x="860" 
d="M134 -12h-60l633 739h60zM349 670h-221l8 44h278l-7 -39q-79 -82 -121 -165.5t-60 -186.5h-57q32 189 180 347zM633 -7q-64 0 -102 27.5t-38 73.5q0 42 31 72.5t71 36.5q-53 21 -53 75t42 88t103 34q53 0 86.5 -26t33.5 -70q0 -38 -22.5 -66.5t-59.5 -40.5
q29 -6 48.5 -28.5t19.5 -51.5q0 -54 -45.5 -89t-114.5 -35zM667 220q39 0 64.5 22t25.5 58q0 28 -21 42.5t-53 14.5q-39 0 -65 -21t-26 -57q0 -29 21 -44t54 -15zM651 180q-47 0 -75.5 -23t-28.5 -59q0 -29 24.5 -46t65.5 -17q48 0 75.5 24.5t27.5 58.5q0 28 -23.5 45
t-65.5 17z" />
    <glyph glyph-name="minus" unicode="&#x2212;" 
d="M80 307l8 53h517l-8 -53h-517z" />
    <glyph glyph-name="i.dot" horiz-adv-x="251" 
d="M147 615l14 88h71l-14 -88h-71zM135 500h59l-79 -500h-59z" />
    <glyph glyph-name="a.ord" horiz-adv-x="387" 
d="M286 316q-1 22 3 56q-16 -29 -49.5 -46.5t-71.5 -17.5q-42 0 -69.5 23t-27.5 62q0 47 33 75t95 35l112 13q5 34 5 39q0 57 -68 57q-70 0 -87 -62h-52q13 50 51 78t91 28q55 0 86 -25t31 -70q0 -7 -2 -23l-24 -154q-5 -30 -5 -68h-51zM300 446l5 32l-95 -11
q-43 -6 -64 -20.5t-21 -49.5q0 -22 15 -35.5t43 -13.5q43 0 76.5 26t40.5 72z" />
    <glyph glyph-name="b.ord" horiz-adv-x="432" 
d="M146 382l-11 -66h-52l77 484h54l-34 -213q41 69 116 69q57 0 92 -38t35 -103q0 -85 -48 -146.5t-122 -61.5q-40 0 -69.5 22t-37.5 53zM284 614q-49 0 -81.5 -35t-41.5 -93q-5 -32 -5 -40q0 -44 24.5 -70.5t66.5 -26.5q55 0 89 48t34 117q0 46 -22.5 73t-63.5 27z" />
    <glyph glyph-name="c.ord" horiz-adv-x="381" 
d="M83 450q0 89 52 148t129 59q53 0 84.5 -30.5t32.5 -82.5h-50q-5 69 -71 69q-55 0 -89 -47t-34 -116q0 -45 21 -72t58 -27q72 0 95 70h51q-16 -54 -55 -83.5t-92 -29.5q-59 0 -95.5 38.5t-36.5 103.5z" />
    <glyph glyph-name="d.ord" horiz-adv-x="430" 
d="M356 584l34 216h55l-77 -484h-52l10 61q-17 -29 -48 -49.5t-71 -20.5q-56 0 -91 37.5t-35 102.5q0 85 47.5 147t121.5 62q39 0 68 -21.5t38 -50.5zM220 349q48 0 80 35t43 94q3 27 3 39q0 44 -24.5 70.5t-65.5 26.5q-56 0 -89 -48.5t-33 -117.5q0 -45 22.5 -72t63.5 -27z
" />
    <glyph glyph-name="e.ord" horiz-adv-x="394" 
d="M372 413q-18 -51 -59 -78t-91 -27q-65 0 -102.5 38t-37.5 103q0 89 52.5 148.5t128.5 59.5q59 0 91.5 -36t32.5 -95q0 -21 -7 -56h-245q-1 -6 -1 -19q0 -48 24.5 -74t67.5 -26q64 0 95 62h51zM259 613q-42 0 -73.5 -29t-44.5 -77h193q2 16 2 22q0 39 -19.5 61.5
t-57.5 22.5z" />
    <glyph glyph-name="f.ord" horiz-adv-x="229" 
d="M137 607h-48l7 41h47l10 65q7 45 36 68t71 23q18 0 40 -4l-7 -44q-12 3 -33 3q-45 0 -54 -47l-9 -64h70l-6 -41h-71l-47 -291h-53z" />
    <glyph glyph-name="g.ord" horiz-adv-x="429" 
d="M319 336l9 53q-43 -67 -117 -67q-57 0 -92 36.5t-35 99.5q0 80 47.5 139t120.5 59q39 0 69.5 -22t39.5 -51l11 65h52l-49 -308q-13 -76 -59.5 -113t-117.5 -37q-59 0 -95 25t-38 72h53q7 -57 82 -57q104 0 119 106zM346 485q4 24 4 38q0 42 -25 66.5t-66 24.5
q-55 0 -88 -44.5t-33 -109.5q0 -45 22 -71t64 -26q48 0 79.5 33t42.5 89z" />
    <glyph glyph-name="h.ord" horiz-adv-x="420" 
d="M213 801l-34 -212q16 31 46.5 49t68.5 18q48 0 75.5 -26.5t27.5 -72.5q0 -17 -2 -27l-34 -214h-54l32 202q2 18 2 26q0 69 -67 69q-41 0 -70.5 -28t-38.5 -85l-29 -184h-54l77 485h54z" />
    <glyph glyph-name="i.ord" horiz-adv-x="197" 
d="M142 717l10 66h61l-10 -66h-61zM135 648h54l-52 -332h-54z" />
    <glyph glyph-name="j.ord" horiz-adv-x="199" 
d="M143 718l10 66h61l-10 -66h-61zM35 196q-18 0 -33 5l7 42q7 -2 22 -2q22 0 32.5 9t14.5 35l58 363h54l-57 -361q-13 -91 -98 -91z" />
    <glyph glyph-name="k.ord" horiz-adv-x="396" 
d="M315 316l-106 161l-55 -45l-18 -116h-54l77 485h54l-49 -310l187 157h66l-167 -140l125 -192h-60z" />
    <glyph glyph-name="l.ord" horiz-adv-x="199" 
d="M136 316h-54l77 485h54z" />
    <glyph glyph-name="m.ord" horiz-adv-x="625" 
d="M290 656q80 0 93 -70q45 70 120 70q49 0 74 -25.5t25 -71.5q0 -19 -2 -29l-34 -214h-54l32 203q2 20 2 28q0 66 -61 66q-39 0 -67.5 -28.5t-37.5 -84.5l-29 -184h-54l32 203q3 17 3 30q0 64 -62 64q-39 0 -67.5 -28.5t-37.5 -84.5l-29 -184h-54l53 332h52l-10 -60
q17 31 47.5 49.5t65.5 18.5z" />
    <glyph glyph-name="n.ord" horiz-adv-x="420" 
d="M187 648l-10 -60q17 31 48 49.5t69 18.5q48 0 75.5 -26.5t27.5 -72.5q0 -18 -2 -28l-34 -213h-54l32 201q2 9 2 27q0 69 -67 69q-41 0 -70.5 -28t-38.5 -85l-29 -184h-54l53 332h52z" />
    <glyph glyph-name="o.ord" horiz-adv-x="410" 
d="M221 308q-62 0 -100 38.5t-38 104.5q0 87 51 146.5t129 59.5q63 0 100.5 -38.5t37.5 -105.5q0 -86 -51 -145.5t-129 -59.5zM260 613q-56 0 -89.5 -47.5t-33.5 -115.5q0 -46 23.5 -72.5t64.5 -26.5q56 0 89.5 48t32.5 116q1 46 -22.5 72t-64.5 26z" />
    <glyph glyph-name="p.ord" horiz-adv-x="432" 
d="M147 379l-29 -180h-54l72 449h51l-10 -61q43 70 119 70q57 0 92 -38.5t35 -103.5q0 -84 -48 -145.5t-122 -61.5q-39 0 -67.5 20.5t-38.5 50.5zM284 614q-49 0 -81 -34.5t-42 -92.5q-1 -9 -3 -22t-2 -18q0 -44 24.5 -70.5t66.5 -26.5q55 0 89 48t34 116q0 46 -22.5 73
t-63.5 27z" />
    <glyph glyph-name="q.ord" horiz-adv-x="431" 
d="M359 585l11 63h52l-72 -449h-54l28 177q-40 -68 -115 -68q-57 0 -92 37.5t-35 102.5q0 85 47.5 147t121.5 62q40 0 69.5 -21t38.5 -51zM221 350q48 0 80 34.5t43 93.5q4 38 4 39q0 44 -24.5 70.5t-65.5 26.5q-55 0 -89 -48t-34 -117q0 -45 22.5 -72t63.5 -27z" />
    <glyph glyph-name="r.ord" horiz-adv-x="280" 
d="M319 653l-8 -50q-8 2 -28 2q-43 0 -77.5 -32.5t-43.5 -92.5l-26 -164h-54l53 332h52l-13 -79q17 40 49 63t69 23q11 0 27 -2z" />
    <glyph glyph-name="s.ord" horiz-adv-x="367" 
d="M68 413h51q0 -32 26 -48.5t63 -16.5t60 18t23 44q0 31 -50 45l-59 15q-76 20 -76 80q0 46 36 76.5t94 30.5q54 0 89 -24t36 -72h-50q-3 56 -79 56q-35 0 -55 -17.5t-20 -43.5q0 -17 12 -27t38 -17l64 -17q71 -18 71 -76q0 -49 -39 -80t-98 -31t-97.5 26t-39.5 79z" />
    <glyph glyph-name="t.ord" horiz-adv-x="267" 
d="M243 365l-7 -43q-28 -11 -58 -11q-80 0 -80 68q0 6 2 22l33 207h-49l6 40h49l16 85h51l-13 -85h87l-7 -40h-88l-33 -205q-1 -4 -1 -12q0 -35 42 -35q22 0 50 9z" />
    <glyph glyph-name="u.ord" horiz-adv-x="417" 
d="M303 317l10 59q-37 -68 -114 -68q-48 0 -75.5 26.5t-27.5 74.5q0 8 2 26l33 213h55l-33 -204q-2 -10 -2 -27q0 -67 66 -67q40 0 69 29t38 86l29 183h55l-54 -331h-51z" />
    <glyph glyph-name="v.ord" horiz-adv-x="385" 
d="M162 316l-66 332h53l51 -279h1l159 279h55l-194 -332h-59z" />
    <glyph glyph-name="w.ord" horiz-adv-x="533" 
d="M352 648l23 -273h1l134 273h53l-170 -332h-54l-26 270h-1l-128 -270h-57l-31 332h52l22 -273h1l128 273h53z" />
    <glyph glyph-name="x.ord" horiz-adv-x="394" 
d="M108 316h-59l158 172l-92 160h59l68 -123l112 123h59l-147 -160l99 -172h-58l-75 135z" />
    <glyph glyph-name="y.ord" horiz-adv-x="384" 
d="M164 325l-67 332h54l51 -275h1l158 275h55l-201 -341q-37 -62 -65 -87t-72 -26q-14 0 -30 4l7 44q18 -3 25 -3q25 0 41.5 16t42.5 61z" />
    <glyph glyph-name="z.ord" horiz-adv-x="367" 
d="M375 608l-242 -251h204l-7 -41h-271l5 35l243 255h-190l6 42h257z" />
    <glyph glyph-name="caron.Slovak" horiz-adv-x="564" 
d="M295 526h-31l66 210h77z" />
    <glyph glyph-name="commaturn" horiz-adv-x="565" 
d="M382 652l-10 -65h-84l10 66q16 97 105 97l-5 -33q-49 0 -57 -65h41z" />
    <glyph glyph-name="uni00200326" horiz-adv-x="565" 
d="M185 -121l10 65h84l-10 -66q-16 -97 -105 -97l5 33q49 0 57 65h-41z" />
    <glyph glyph-name="guilsinglleft.cap" horiz-adv-x="307" 
d="M221 122h-45l-101 191l158 192h49l-138 -192z" />
    <glyph glyph-name="guilsinglright.cap" horiz-adv-x="307" 
d="M105 505h45l101 -191l-158 -192h-49l138 192z" />
    <glyph glyph-name="guillemotleft.cap" horiz-adv-x="492" 
d="M406 122h-45l-101 191l158 192h49l-138 -192zM221 122h-45l-101 191l158 192h49l-138 -192z" />
    <glyph glyph-name="guillemotright.cap" horiz-adv-x="492" 
d="M106 505h45l101 -191l-158 -192h-49l138 192zM291 505h45l101 -191l-158 -192h-49l138 192z" />
    <glyph glyph-name="slash.cap" horiz-adv-x="493" 
d="M2 -75l459 844h60l-459 -844h-60z" />
    <glyph glyph-name="backslash.cap" horiz-adv-x="491" 
d="M136 769h56l193 -844h-55z" />
    <glyph glyph-name="bar.cap" horiz-adv-x="294" 
d="M201 769h55l-134 -844h-55z" />
    <glyph glyph-name="periodcentered.cap" horiz-adv-x="259" 
d="M93 297l14 87h87l-14 -87h-87z" />
    <glyph glyph-name="bullet.cap" horiz-adv-x="416" 
d="M103 354q0 49 35.5 84.5t85.5 35.5t85.5 -35t35.5 -85t-35.5 -85.5t-85.5 -35.5t-85.5 35.5t-35.5 85.5z" />
    <glyph glyph-name="hyphen.cap" horiz-adv-x="449" 
d="M95 311l9 54h275l-9 -54h-275z" />
    <glyph glyph-name="endash.cap" horiz-adv-x="677" 
d="M95 311l9 51h503l-9 -51h-503z" />
    <glyph glyph-name="emdash.cap" horiz-adv-x="1003" 
d="M96 311l9 51h829l-9 -51h-829z" />
    <glyph glyph-name="parenleft.cap" horiz-adv-x="374" 
d="M390 769q-234 -262 -234 -509q0 -173 101 -335h-55q-104 163 -104 336q0 263 233 508h59z" />
    <glyph glyph-name="parenright.cap" horiz-adv-x="374" 
d="M15 -75q234 262 234 509q0 173 -101 335h55q104 -162 104 -336q0 -263 -233 -508h-59z" />
    <glyph glyph-name="bracketleft.cap" horiz-adv-x="386" 
d="M238 720l-118 -746h147l-7 -49h-202l134 844h200l-7 -49h-147z" />
    <glyph glyph-name="bracketright.cap" horiz-adv-x="386" 
d="M178 -26l118 746h-147l7 49h202l-134 -844h-200l7 49h147z" />
    <glyph glyph-name="braceleft.cap" horiz-adv-x="424" 
d="M61 322l8 50h55q50 0 58 53l39 245q15 99 121 99h90l-8 -49h-85q-29 0 -44 -9t-20 -38l-39 -248q-9 -63 -72 -78q49 -13 49 -58q0 -21 -21 -144.5t-21 -136.5q0 -20 12.5 -27t37.5 -7h85l-8 -49h-90q-91 0 -91 72q0 25 20.5 149t20.5 138q0 38 -42 38h-55z" />
    <glyph glyph-name="braceright.cap" horiz-adv-x="424" 
d="M393 372l-8 -50h-55q-50 0 -58 -53l-39 -245q-15 -99 -121 -99h-90l8 49h85q29 0 44 9t20 38l39 248q9 63 72 78q-49 13 -49 58q0 21 21 144.5t21 136.5q0 20 -12.5 27t-37.5 7h-85l8 49h90q91 0 91 -72q0 -25 -20.5 -149t-20.5 -138q0 -38 42 -38h55z" />
    <glyph glyph-name="at.cap" horiz-adv-x="913" 
d="M677 538l-69 -290q-3 -14 -3 -23q0 -44 49 -44q71 0 119.5 72.5t48.5 176.5q0 118 -82 190.5t-219 72.5q-93 0 -169.5 -35t-123.5 -92t-72.5 -127t-25.5 -144q0 -79 29.5 -141t79.5 -98.5t111 -55t130 -18.5q122 0 222 42l15 -42q-113 -48 -240 -48q-107 0 -195.5 37
t-146.5 120t-58 201q0 188 127 319.5t320 131.5q158 0 255 -88t97 -224q0 -124 -69.5 -209.5t-161.5 -85.5q-39 0 -65.5 19t-32.5 53q-20 -30 -54 -49.5t-73 -19.5q-65 0 -100 43.5t-35 110.5q0 92 59.5 173t158.5 81q39 0 67 -21t37 -48l15 60h55zM569 312q16 66 16 92
q0 45 -23 68.5t-60 23.5q-70 0 -115 -64t-45 -137q0 -49 23.5 -76.5t66.5 -27.5q42 0 82 31.5t55 89.5z" />
    <glyph glyph-name="uni0192.lt" 
d="M482 358h-126l-158 -468h-57l157 468h-90l7 46h99l66 197q23 67 69 107t105 40q31 0 63 -13l-8 -55q-29 15 -62 15q-78 0 -112 -104l-63 -187h117z" />
    <glyph glyph-name="Euro.lt" 
d="M619 199q-30 -98 -98.5 -154.5t-170.5 -56.5t-165.5 73t-67.5 199h-80l8 51h73q3 47 12 90h-71l8 51h76q39 124 125 199t190 75q97 0 147.5 -56.5t50.5 -153.5h-57q-6 155 -150 155q-81 0 -146.5 -60t-98.5 -159h262l-20 -51h-257q-9 -43 -12 -90h234l-18 -51h-217
q5 -102 51.5 -159.5t131.5 -57.5q146 0 199 156h61z" />
    <glyph glyph-name="dollar.lt" 
d="M587 216q0 -95 -76 -160.5t-190 -65.5l-16 -99h-50l17 101q-98 11 -159.5 66.5t-62.5 149.5h59q8 -145 171 -163l48 293l-51 13q-71 17 -112.5 52t-41.5 100q0 94 73.5 158t186.5 64h9l15 94h50l-16 -98q84 -13 131.5 -60t49.5 -122h-58q-1 51 -36.5 84t-95.5 44
l-47 -287l50 -12q152 -38 152 -152zM298 402l39 -10l46 279h-4q-93 0 -145 -47.5t-52 -117.5q0 -42 28 -65.5t88 -38.5zM410 318l-34 8l-46 -283q85 2 141.5 47.5t56.5 113.5q0 85 -118 114z" />
    <glyph glyph-name="cent.lt" 
d="M518 154q-24 -76 -76.5 -118t-124.5 -45l-17 -97h-50l18 100q-70 13 -111 68.5t-41 140.5q0 126 69.5 215t174.5 98l21 122h50l-22 -123q64 -8 101 -50.5t38 -110.5h-53q-3 48 -28.5 77t-65.5 35l-75 -425q98 9 137 113h55zM175 205q0 -66 27 -108.5t74 -53.5l75 423
q-80 -12 -128 -85.5t-48 -175.5z" />
    <glyph glyph-name="sterling.lt" 
d="M552 54l-9 -54h-504l9 54h11q60 0 104 62.5t44 145.5q0 20 -3 40h-98l8 51h77q-1 4 -8 25.5t-9 29.5t-6.5 25.5t-6 32.5t-1.5 31q0 91 65 160t177 69q99 0 153 -55.5t54 -141.5q0 -9 -2 -29h-56q1 10 1 18q0 67 -38 110.5t-112 43.5q-84 0 -133 -47t-49 -125
q0 -23 4.5 -45.5t14.5 -57t13 -44.5h221l-8 -51h-203q3 -18 3 -37q0 -135 -104 -211h391z" />
    <glyph glyph-name="yen.lt" 
d="M558 164h-212l-26 -164h-58l26 164h-214l8 51h214l16 100h-213l8 52h187l-180 347h63l173 -335h2l270 335h71l-289 -347h188l-8 -52h-214l-16 -100h212z" />
    <glyph glyph-name="zero.lt" 
d="M296 -12q-106 0 -165.5 78t-59.5 208q0 185 93.5 318.5t232.5 133.5q106 0 165.5 -78t59.5 -208q0 -185 -93.5 -318.5t-232.5 -133.5zM301 45q99 0 166 85.5t88 225.5q6 46 6 86q0 105 -43 166t-126 61q-99 0 -166 -85.5t-88 -225.5q-6 -47 -6 -86q0 -105 43 -166
t126 -61z" />
    <glyph glyph-name="one.lt" 
d="M572 50l-8 -50h-506l8 50h231l82 517h-206l6 42q88 0 140 12.5t74.5 34t38.5 61.5h31l-106 -667h215z" />
    <glyph glyph-name="two.lt" 
d="M599 551q0 -27 -7 -52.5t-16 -45t-29 -41.5t-33 -35t-42 -34t-43 -30t-48 -30t-45 -28q-50 -31 -74.5 -48t-62 -46t-55.5 -55t-22 -52h410l-9 -54h-472l6 32q6 43 32 83.5t68 76.5t80 61.5t90 56.5q105 62 160 115.5t55 123.5q0 53 -34 87.5t-106 34.5q-77 0 -130.5 -49
t-70.5 -122h-56q21 97 89.5 161.5t172.5 64.5q95 0 143.5 -51t48.5 -124z" />
    <glyph glyph-name="three.lt" 
d="M558 209q0 -86 -69.5 -153.5t-191.5 -67.5q-103 0 -169 57.5t-66 160.5h60q0 -77 46 -121t129 -44q93 0 148 49t55 120q0 57 -40 91.5t-112 34.5h-74l9 55h75q75 0 125 40.5t50 117.5q0 54 -37 89t-105 35q-82 0 -135 -48.5t-67 -123.5h-57q18 97 88 161t173 64
q95 0 148 -50.5t53 -125.5q0 -74 -49 -125t-113 -61q54 -12 90 -56.5t36 -98.5z" />
    <glyph glyph-name="four.lt" 
d="M529 714l-72 -458h159l-8 -50h-159l-33 -206h-58l33 206h-356l8 51l416 457h70zM460 646l-353 -390h292z" />
    <glyph glyph-name="five.lt" 
d="M363 419q-111 0 -180 -89h-54l99 384h388l-9 -55h-343l-70 -264q30 33 79 55t97 22q98 0 151 -57t53 -146q0 -115 -76.5 -198t-195.5 -83q-102 0 -164 58t-62 164h58q0 -79 44.5 -124t125.5 -45q99 0 155.5 67t56.5 157q0 67 -38 110.5t-115 43.5z" />
    <glyph glyph-name="six.lt" 
d="M416 671q-104 0 -177 -98.5t-92 -249.5q27 66 83.5 110t141.5 44q93 0 151.5 -61t58.5 -150q0 -114 -78 -196t-193 -82q-102 0 -162.5 74t-60.5 201q0 126 45.5 233t122 168.5t164.5 61.5q92 0 146 -52t54 -140h-57q-3 67 -41.5 102t-105.5 35zM317 42q89 0 148 64.5
t59 156.5q0 70 -44 114.5t-118 44.5q-88 0 -148.5 -62t-60.5 -152q0 -73 45 -119.5t119 -46.5z" />
    <glyph glyph-name="seven.lt" 
d="M559 659h-448l9 55h521l-7 -39q-157 -154 -245.5 -319.5t-120.5 -355.5h-65q32 186 126 353.5t230 305.5z" />
    <glyph glyph-name="eight.lt" 
d="M299 -12q-110 0 -175.5 49.5t-65.5 130.5q0 79 58 134t133 66q-100 41 -100 140q0 97 74.5 157.5t180.5 60.5q90 0 147 -45.5t57 -121.5q0 -72 -43 -124.5t-112 -74.5q55 -13 92 -53.5t37 -94.5q0 -95 -81 -159.5t-202 -64.5zM362 390q79 0 133 45t54 119
q0 58 -43.5 88.5t-109.5 30.5q-80 0 -133.5 -44t-53.5 -118q0 -58 43 -89.5t110 -31.5zM337 339q-96 0 -156 -46.5t-60 -121.5q0 -60 49.5 -95.5t134.5 -35.5q97 0 154.5 50t57.5 121q0 58 -48 93t-132 35z" />
    <glyph glyph-name="nine.lt" 
d="M277 43q104 0 177 98.5t92 249.5q-27 -66 -83.5 -110t-141.5 -44q-93 0 -151.5 61t-58.5 150q0 114 78 196t193 82q102 0 162.5 -74t60.5 -201q0 -126 -45.5 -233t-122 -168.5t-164.5 -61.5q-92 0 -146 52t-54 140h57q3 -67 41.5 -102t105.5 -35zM376 672
q-89 0 -148 -64.5t-59 -156.5q0 -70 44 -114.5t118 -44.5q88 0 148.5 62t60.5 152q0 73 -45 119.5t-119 46.5z" />
    <glyph glyph-name="zero.dnom" horiz-adv-x="408" 
d="M170 -7q-63 0 -99 44.5t-36 116.5q0 100 52.5 173t134.5 73q63 0 98.5 -44t35.5 -117q0 -100 -52.5 -173t-133.5 -73zM219 355q-49 0 -81.5 -43t-43.5 -114q-5 -22 -5 -48q0 -52 21.5 -82t62.5 -30q48 0 81 43t44 113q4 25 4 49q0 52 -21.5 82t-61.5 30z" />
    <glyph glyph-name="one.dnom" horiz-adv-x="327" 
d="M272 43l-7 -43h-261l7 43h103l40 251h-101l6 40q67 0 92.5 13t38.5 46h33l-55 -350h104z" />
    <glyph glyph-name="two.dnom" horiz-adv-x="344" 
d="M315 299q0 -29 -10.5 -52t-36 -44t-42 -31.5t-54.5 -32.5q-48 -28 -75.5 -50t-31.5 -44h216l-8 -45h-274l4 23q5 34 31 65.5t52 49.5t66 41q58 32 85 57.5t27 60.5q0 25 -16 41t-50 16q-37 0 -63 -24t-34 -59h-52q12 55 52.5 91.5t100.5 36.5q54 0 83.5 -28.5t29.5 -71.5
z" />
    <glyph glyph-name="three.dnom" horiz-adv-x="370" 
d="M302 116q0 -48 -40 -85.5t-110 -37.5q-61 0 -98 32.5t-37 88.5h53q0 -37 22.5 -57.5t62.5 -20.5q44 0 70 23.5t26 57.5q0 28 -19 43t-54 15h-41l7 43h40q37 0 61 21t24 58q0 26 -17.5 42.5t-50.5 16.5q-39 0 -63.5 -20.5t-31.5 -55.5h-51q12 53 51 86.5t99 33.5
q56 0 86.5 -28.5t30.5 -70.5q0 -40 -26 -69.5t-61 -35.5q30 -6 48.5 -28t18.5 -52z" />
    <glyph glyph-name="four.dnom" horiz-adv-x="401" 
d="M306 391l-41 -251h83l-6 -42h-83l-15 -98h-52l15 98h-195l7 43l226 250h61zM245 337l-175 -197h143z" />
    <glyph glyph-name="five.dnom" horiz-adv-x="372" 
d="M184 218q-54 0 -87 -41h-49l56 215h228l-8 -45h-187l-33 -122q36 36 92 36q54 0 84 -30.5t30 -79.5q0 -65 -44.5 -111.5t-113.5 -46.5q-61 0 -96 33t-35 92h54q0 -38 21 -60t60 -22q46 0 73.5 32.5t27.5 76.5q0 32 -18.5 52.5t-54.5 20.5z" />
    <glyph glyph-name="six.dnom" horiz-adv-x="382" 
d="M219 355q-50 0 -86 -46.5t-46 -117.5q37 69 114 69q51 0 84.5 -32t33.5 -82q0 -63 -45 -108t-111 -45q-59 0 -94.5 41.5t-35.5 110.5q0 103 55.5 179t133.5 76q53 0 84.5 -29.5t32.5 -79.5h-50q-3 64 -70 64zM168 36q42 0 70.5 31.5t28.5 75.5q0 35 -21.5 55.5
t-57.5 20.5q-42 0 -71 -30t-29 -73q0 -35 22 -57.5t58 -22.5z" />
    <glyph glyph-name="seven.dnom" horiz-adv-x="350" 
d="M268 347h-221l8 44h278l-7 -39q-79 -82 -121 -165.5t-60 -186.5h-57q32 189 180 347z" />
    <glyph glyph-name="eight.dnom" horiz-adv-x="388" 
d="M160 -7q-64 0 -102 27.5t-38 73.5q0 42 31 72.5t71 36.5q-53 21 -53 75t42 88t103 34q53 0 86.5 -26t33.5 -70q0 -38 -22.5 -66.5t-59.5 -40.5q29 -6 48.5 -28.5t19.5 -51.5q0 -54 -45.5 -89t-114.5 -35zM194 220q39 0 64.5 22t25.5 58q0 28 -21 42.5t-53 14.5
q-39 0 -65 -21t-26 -57q0 -29 21 -44t54 -15zM178 180q-47 0 -75.5 -23t-28.5 -59q0 -29 24.5 -46t65.5 -17q48 0 75.5 24.5t27.5 58.5q0 28 -23.5 45t-65.5 17z" />
    <glyph glyph-name="nine.dnom" horiz-adv-x="383" 
d="M146 38q50 0 85.5 46.5t45.5 117.5q-37 -70 -114 -70q-50 0 -83.5 32.5t-33.5 81.5q0 63 44.5 108.5t110.5 45.5q59 0 95 -41.5t36 -111.5q0 -103 -55.5 -178.5t-133.5 -75.5q-53 0 -85 29t-33 80h50q3 -64 71 -64zM197 356q-43 0 -71 -30.5t-28 -74.5q0 -35 21 -56.5
t57 -21.5q43 0 71.5 30t28.5 74q0 35 -21.5 57t-57.5 22z" />
    <glyph glyph-name="percent.lt" 
d="M205 416q-59 0 -97.5 39t-38.5 96q0 69 53 122t122 53q58 0 97 -39t39 -96q0 -69 -53.5 -122t-121.5 -53zM654 714h64l-680 -713h-63zM211 467q47 0 81 36t34 82q0 39 -25.5 64.5t-63.5 25.5q-47 0 -81 -36t-34 -81q0 -40 25.5 -65.5t63.5 -25.5zM454 -11q-59 0 -97.5 39
t-38.5 96q0 69 53 122t122 53q58 0 97 -39t39 -96q0 -69 -53.5 -122t-121.5 -53zM460 40q47 0 81 36t34 81q0 40 -25.5 65.5t-63.5 25.5q-48 0 -81.5 -36t-33.5 -82q0 -39 25.5 -64.5t63.5 -25.5z" />
    <glyph glyph-name="period.tab" horiz-adv-x="330" 
d="M81 0l14 87h87l-14 -87h-87z" />
    <glyph glyph-name="comma.tab" horiz-adv-x="330" 
d="M82 0l14 87h87l-17 -108q-9 -57 -47.5 -93.5t-97.5 -36.5l7 40q75 0 89 90l3 21h-38z" />
    <glyph glyph-name="colon.tab" horiz-adv-x="330" 
d="M136 348l14 87h87l-14 -87h-87zM81 0l14 87h87l-14 -87h-87z" />
    <glyph glyph-name="semicolon.tab" horiz-adv-x="330" 
d="M137 348l14 87h87l-14 -87h-87zM82 0l14 87h87l-17 -108q-9 -57 -47.5 -93.5t-97.5 -36.5l7 40q75 0 89 90l3 21h-38z" />
    <glyph glyph-name="space.tab" horiz-adv-x="330" 
 />
    <glyph glyph-name="thinspace" horiz-adv-x="65" 
 />
    <glyph glyph-name="zero.slash" horiz-adv-x="658" 
d="M295 -12q-106 0 -165.5 78t-59.5 208q0 185 93.5 318.5t232.5 133.5q106 0 165.5 -78t59.5 -208q0 -185 -93.5 -318.5t-232.5 -133.5zM131 272q0 -108 43 -166l309 536q-37 27 -92 27q-99 0 -166 -85.5t-88 -225.5q-6 -47 -6 -86zM560 442q0 110 -45 170l-309 -539
q39 -28 94 -28q99 0 166 85.5t88 225.5q6 46 6 86z" />
    <glyph glyph-name="zero.slashlt" 
d="M296 -12q-106 0 -165.5 78t-59.5 208q0 185 93.5 318.5t232.5 133.5q106 0 165.5 -78t59.5 -208q0 -185 -93.5 -318.5t-232.5 -133.5zM132 272q0 -108 43 -166l309 536q-37 27 -92 27q-99 0 -166 -85.5t-88 -225.5q-6 -47 -6 -86zM561 442q0 110 -45 170l-309 -539
q39 -28 94 -28q99 0 166 85.5t88 225.5q6 46 6 86z" />
    <glyph glyph-name="CR" horiz-adv-x="221" 
 />
    </font>
</defs>
</svg>
