<?xml version="1.0" standalone="no"?>
<!DOCTYPE svg PUBLIC "-//W3C//DTD SVG 1.1//EN" "http://www.w3.org/Graphics/SVG/1.1/DTD/svg11.dtd" >
<svg xmlns="http://www.w3.org/2000/svg" xmlns:xlink="http://www.w3.org/1999/xlink" version="1.1">
<metadata>
Created by FontForge 20170731 at Mon Mar 20 13:25:14 2017
 By Aleksey,,,
(c) 2016 Klim Type Foundry. All Rights Reserved.
</metadata>
<defs>
<font id="UntitledSans-Medium" horiz-adv-x="660" >
  <font-face 
    font-family="Untitled Sans Medium"
    font-weight="500"
    font-stretch="normal"
    units-per-em="1000"
    panose-1="2 11 5 3 3 2 2 6 2 3"
    ascent="800"
    descent="-200"
    x-height="508"
    cap-height="714"
    bbox="-209 -232 1060 977"
    underline-thickness="50"
    underline-position="-200"
    unicode-range="U+0020-2212"
  />
<missing-glyph horiz-adv-x="1178" 
d="M992 473v-55q-24 -8 -53 -8q-84 0 -84 84v125h-36v52h36v65h74v-65h57v-52h-57v-116q0 -34 30 -34q14 0 33 4zM320 671v-40q21 47 79 47q45 0 70 -26t25 -73v-165h-75v148q0 59 -47 59q-52 0 -52 -68v-139h-75v257h75zM533 544q0 62 37 98t97 36q59 0 96 -36.5t37 -97.5
q0 -62 -37 -98.5t-96 -36.5q-60 0 -97 36.5t-37 98.5zM607 544q0 -82 60 -82q28 0 43 22t15 60t-15 59t-43 21q-60 0 -60 -80zM100 414v85h85v-85h-85zM992 303q-19 4 -33 4q-30 0 -30 -34v-15h57v-52h-57v-206h-74v206h-36v52h36v24q0 84 84 84q29 0 53 -8v-55zM420 0v41
q-9 -20 -30.5 -33.5t-49.5 -13.5q-51 0 -82 37.5t-31 97.5t31 97.5t82 37.5q55 0 79 -46v145h75v-363h-74zM794 81q-24 -87 -125 -87q-60 0 -98 36t-38 98q0 61 39 98t97 37q62 0 95.5 -37.5t33.5 -92.5v-23h-193q8 -63 64 -63q41 0 53 34h72zM669 211q-51 0 -62 -56h118
q-1 24 -15 40t-41 16zM421 124v9q0 36 -16 56.5t-44 20.5t-44 -22t-16 -59q0 -38 16 -60t44 -22t44 20.5t16 56.5z" />
    <glyph glyph-name="f_idieresis" unicode="f&#xef;" horiz-adv-x="628" 
d="M92 416h-70v92h70v47q0 85 56.5 134.5t146.5 49.5q55 0 94 -13v-99q-27 12 -80 12q-89 0 -89 -88v-43h103v-92h-103v-416h-128v416zM513 594v125h118v-125h-118zM421 508h129v-508h-129v508z" />
    <glyph glyph-name=".notdef" horiz-adv-x="1178" 
d="M992 473v-55q-24 -8 -53 -8q-84 0 -84 84v125h-36v52h36v65h74v-65h57v-52h-57v-116q0 -34 30 -34q14 0 33 4zM320 671v-40q21 47 79 47q45 0 70 -26t25 -73v-165h-75v148q0 59 -47 59q-52 0 -52 -68v-139h-75v257h75zM533 544q0 62 37 98t97 36q59 0 96 -36.5t37 -97.5
q0 -62 -37 -98.5t-96 -36.5q-60 0 -97 36.5t-37 98.5zM607 544q0 -82 60 -82q28 0 43 22t15 60t-15 59t-43 21q-60 0 -60 -80zM100 414v85h85v-85h-85zM992 303q-19 4 -33 4q-30 0 -30 -34v-15h57v-52h-57v-206h-74v206h-36v52h36v24q0 84 84 84q29 0 53 -8v-55zM420 0v41
q-9 -20 -30.5 -33.5t-49.5 -13.5q-51 0 -82 37.5t-31 97.5t31 97.5t82 37.5q55 0 79 -46v145h75v-363h-74zM794 81q-24 -87 -125 -87q-60 0 -98 36t-38 98q0 61 39 98t97 37q62 0 95.5 -37.5t33.5 -92.5v-23h-193q8 -63 64 -63q41 0 53 34h72zM669 211q-51 0 -62 -56h118
q-1 24 -15 40t-41 16zM421 124v9q0 36 -16 56.5t-44 20.5t-44 -22t-16 -59q0 -38 16 -60t44 -22t44 20.5t16 56.5z" />
    <glyph glyph-name=".null" horiz-adv-x="0" 
 />
    <glyph glyph-name="nonmarkingreturn" horiz-adv-x="333" 
 />
    <glyph glyph-name="space" unicode=" " horiz-adv-x="210" 
 />
    <glyph glyph-name="exclam" unicode="!" horiz-adv-x="327" 
d="M90 714h148l-22 -480h-104zM89 0v145h149v-145h-149z" />
    <glyph glyph-name="quotedbl" unicode="&#x22;" horiz-adv-x="465" 
d="M289 443l-20 293h125l-20 -293h-85zM92 443l-21 293h126l-20 -293h-85z" />
    <glyph glyph-name="numbersign" unicode="#" horiz-adv-x="738" 
d="M358 40l45 178h-141l-45 -178h-92l45 178h-115l18 81h117l32 128h-121l18 82h124l45 179h92l-45 -179h141l45 179h92l-45 -179h115l-17 -82h-119l-32 -128h122l-18 -81h-124l-45 -178h-92zM282 299h141l32 128h-141z" />
    <glyph glyph-name="dollar" unicode="$" horiz-adv-x="670" 
d="M623 204q0 -90 -69.5 -148t-178.5 -65v-100h-73v101q-112 10 -183.5 67t-79.5 156h122q5 -55 43.5 -86.5t97.5 -39.5v221l-52 9q-189 35 -189 193q0 89 67 147.5t174 64.5v95h73v-96q104 -11 164.5 -63.5t70.5 -140.5h-120q-10 87 -115 104v-213l64 -12q184 -35 184 -194
zM293 426l9 -2v201q-57 -5 -89 -33.5t-32 -71.5t25.5 -62.5t86.5 -31.5zM387 294l-12 2v-209q61 6 94.5 34t33.5 74q0 40 -26 63.5t-90 35.5z" />
    <glyph glyph-name="percent" unicode="%" horiz-adv-x="850" 
d="M60 560q0 69 49 117.5t117 48.5t116.5 -48.5t48.5 -117.5q0 -68 -48.5 -116.5t-116.5 -48.5t-117 48.5t-49 116.5zM618 714h89l-473 -713h-89zM138 560q0 -38 26 -64t62 -26t62 26t26 64t-26 64.5t-62 26.5t-62 -26.5t-26 -64.5zM460 153q0 68 48.5 117t116.5 49
t116.5 -49t48.5 -117q0 -69 -48.5 -117.5t-116.5 -48.5t-116.5 48.5t-48.5 117.5zM537 153q0 -38 26 -64.5t62 -26.5q37 0 62.5 26.5t25.5 64.5t-25.5 64.5t-62.5 26.5q-36 0 -62 -26.5t-26 -64.5z" />
    <glyph glyph-name="ampersand" unicode="&#x26;" horiz-adv-x="758" 
d="M587 0l-63 62q-100 -74 -226 -74q-109 0 -179.5 54t-70.5 144q0 65 37.5 111.5t111.5 86.5q-78 82 -78 157q0 80 59.5 132.5t153.5 52.5q92 0 147.5 -48t55.5 -121q0 -62 -38.5 -104.5t-123.5 -84.5l159 -156q44 70 55 161h113q-14 -129 -96 -233l142 -140h-159zM239 547
q0 -29 16.5 -54t50.5 -58q66 30 90.5 54.5t24.5 64.5q0 33 -24.5 58.5t-64.5 25.5t-66.5 -25t-26.5 -66zM173 198q0 -50 38.5 -81.5t94.5 -31.5q82 0 148 45l-190 187q-46 -24 -68.5 -51t-22.5 -68z" />
    <glyph glyph-name="quotesingle" unicode="'" horiz-adv-x="270" 
d="M92 443l-21 293h128l-20 -293h-87z" />
    <glyph glyph-name="parenleft" unicode="(" horiz-adv-x="425" 
d="M215 314q0 -217 161 -422h-122q-166 198 -166 422t166 422h122q-161 -219 -161 -422z" />
    <glyph glyph-name="parenright" unicode=")" horiz-adv-x="425" 
d="M49 -108q161 205 161 422q0 203 -161 422h122q166 -198 166 -422t-166 -422h-122z" />
    <glyph glyph-name="asterisk" unicode="*" horiz-adv-x="426" 
d="M175 726h76v-126l118 39l24 -72l-119 -40l73 -100l-61 -46l-73 102l-72 -102l-62 45l73 101l-119 39l23 73l119 -40v127z" />
    <glyph glyph-name="plus" unicode="+" 
d="M594 285h-217v-217h-94v217h-218v95h218v217h94v-217h217v-95z" />
    <glyph glyph-name="comma" unicode="," horiz-adv-x="327" 
d="M89 4v145h149v-159q0 -75 -45.5 -116t-125.5 -41v69q44 0 67 19.5t23 68.5v14h-68z" />
    <glyph glyph-name="hyphen" unicode="-" horiz-adv-x="454" 
d="M87 231v107h280v-107h-280z" />
    <glyph glyph-name="period" unicode="." horiz-adv-x="327" 
d="M89 0v149h149v-149h-149z" />
    <glyph glyph-name="slash" unicode="/" horiz-adv-x="534" 
d="M44 -108l326 844h120l-326 -844h-120z" />
    <glyph glyph-name="zero" unicode="0" horiz-adv-x="699" 
d="M46 357q0 163 83 266t221 103t220.5 -103t82.5 -266t-82.5 -266t-220.5 -103t-221 103t-83 266zM180 357q0 -124 43 -194.5t127 -70.5q83 0 126 70.5t43 194.5t-43 194.5t-126 70.5q-84 0 -127 -70.5t-43 -194.5z" />
    <glyph glyph-name="one" unicode="1" horiz-adv-x="405" 
d="M29 521v88q90 0 132 25t55 82h91v-716h-132v521h-146z" />
    <glyph glyph-name="two" unicode="2" horiz-adv-x="596" 
d="M553 510q0 -38 -12.5 -71t-29.5 -56t-49.5 -48.5t-57 -40.5t-68.5 -40q-76 -44 -115 -79t-40 -70h376v-105h-521v51q0 50 19.5 94t56.5 80t71 61t82 54q89 54 126 88.5t37 82.5q0 49 -30 80.5t-90 31.5q-59 0 -95 -39.5t-40 -97.5h-127q7 104 76.5 172t186.5 68
q112 0 178 -61.5t66 -154.5z" />
    <glyph glyph-name="three" unicode="3" horiz-adv-x="619" 
d="M575 194q0 -87 -71 -146.5t-193 -59.5q-121 0 -195.5 61.5t-83.5 163.5h127q5 -57 45.5 -90.5t106.5 -33.5t103.5 30.5t37.5 83.5t-36.5 80t-99.5 27h-74v98h72q54 0 87.5 26t33.5 80q0 48 -32 79.5t-89 31.5q-61 0 -97.5 -36t-40.5 -92h-122q6 98 75 163.5t186 65.5
q115 0 179.5 -60t64.5 -148q0 -61 -36 -104t-92 -53q65 -11 104.5 -56t39.5 -111z" />
    <glyph glyph-name="four" unicode="4" horiz-adv-x="683" 
d="M512 714v-434h142v-101h-142v-179h-127v179h-354v102l337 433h144zM385 590l-237 -310h237v310z" />
    <glyph glyph-name="five" unicode="5" horiz-adv-x="623" 
d="M315 381q-86 0 -127 -66h-119l41 399h428v-105h-333l-19 -186q22 24 62.5 41t87.5 17q109 0 176 -69.5t67 -176.5q0 -106 -71.5 -176.5t-192.5 -70.5q-120 0 -193.5 62t-81.5 167h132q5 -57 43 -93t100 -36q66 0 101.5 42t35.5 104q0 63 -35.5 105t-101.5 42z" />
    <glyph glyph-name="six" unicode="6" horiz-adv-x="640" 
d="M340 624q-81 0 -127 -73.5t-46 -188.5q23 50 70 82.5t114 32.5q107 0 175.5 -68.5t68.5 -172.5q0 -108 -72.5 -178t-189.5 -70q-128 0 -207.5 97t-79.5 260q0 171 83 276t215 105q100 0 165.5 -55t78.5 -147h-121q-24 100 -127 100zM332 86q64 0 102.5 41.5t38.5 106.5
t-38.5 106t-102.5 41t-104 -41.5t-40 -105.5q0 -65 40 -106.5t104 -41.5z" />
    <glyph glyph-name="seven" unicode="7" horiz-adv-x="585" 
d="M414 609h-387v105h522v-101q-121 -147 -170.5 -290t-51.5 -323h-136q4 326 223 609z" />
    <glyph glyph-name="eight" unicode="8" horiz-adv-x="652" 
d="M326 726q110 0 180 -54t70 -148q0 -56 -30.5 -98t-80.5 -64q56 -11 99.5 -58.5t43.5 -107.5q0 -94 -77 -151t-205 -57t-205 57t-77 151q0 60 43.5 107.5t99.5 58.5q-50 22 -80.5 64t-30.5 98q0 94 70 148t180 54zM326 411q58 0 95.5 28.5t37.5 81.5t-37.5 81.5
t-95.5 28.5q-59 0 -96 -28.5t-37 -81.5t37 -81.5t96 -28.5zM326 85q73 0 114 31.5t41 84.5t-41 84.5t-114 31.5t-114 -31.5t-41 -84.5t41 -84.5t114 -31.5z" />
    <glyph glyph-name="nine" unicode="9" horiz-adv-x="640" 
d="M300 90q81 0 127 73.5t46 188.5q-23 -50 -70 -82.5t-114 -32.5q-107 0 -175.5 68.5t-68.5 172.5q0 108 72.5 178t189.5 70q128 0 207.5 -97t79.5 -260q0 -171 -83 -276t-215 -105q-100 0 -165.5 55t-78.5 147h121q24 -100 127 -100zM308 628q-64 0 -102.5 -41.5
t-38.5 -106.5t38.5 -106t102.5 -41t104 41.5t40 105.5q0 65 -40 106.5t-104 41.5z" />
    <glyph glyph-name="colon" unicode=":" horiz-adv-x="327" 
d="M89 325v149h149v-149h-149zM89 0v149h149v-149h-149z" />
    <glyph glyph-name="semicolon" unicode=";" horiz-adv-x="327" 
d="M89 325v149h149v-149h-149zM89 4v145h149v-159q0 -75 -45.5 -116t-125.5 -41v69q44 0 67 19.5t23 68.5v14h-68z" />
    <glyph glyph-name="less" unicode="&#x3c;" 
d="M93 269v122l461 201v-108l-360 -154l360 -153v-109z" />
    <glyph glyph-name="equal" unicode="=" 
d="M70 381v89h519v-89h-519zM70 181v89h519v-89h-519z" />
    <glyph glyph-name="greater" unicode="&#x3e;" 
d="M566 269l-461 -201v109l360 153l-360 154v108l461 -201v-122z" />
    <glyph glyph-name="question" unicode="?" horiz-adv-x="588" 
d="M548 513q0 -67 -36 -115t-103 -93q-21 -15 -32 -25t-21.5 -27.5t-11.5 -38.5h-126q3 86 112 165q45 33 69 62.5t24 70.5q0 48 -30 80t-89 32q-62 0 -97.5 -39.5t-38.5 -97.5h-128q7 103 77 171t187 68q112 0 178 -60t66 -153zM206 0v139h150v-139h-150z" />
    <glyph glyph-name="at" unicode="@" horiz-adv-x="917" 
d="M675 449l-51 -289q-10 -58 41 -58q59 0 96 57t37 157q0 125 -85.5 198.5t-224.5 73.5q-159 0 -261 -103.5t-102 -263.5q0 -88 32 -153.5t85.5 -102.5t115.5 -54.5t131 -17.5q122 0 225 44l26 -59q-108 -54 -251 -54q-87 0 -164 23.5t-140.5 70t-100.5 125t-37 178.5
q0 184 124 310.5t317 126.5q170 0 277 -97t107 -245q0 -134 -67 -208t-162 -74q-87 0 -117 66q-18 -28 -51.5 -45.5t-70.5 -17.5q-73 0 -113.5 49t-40.5 125q0 100 59 173.5t153 73.5q35 0 63.5 -17t39.5 -42l10 50h100zM535 221l5 37q9 51 -11 81.5t-57 30.5
q-51 0 -82.5 -42t-33.5 -100q-3 -48 17.5 -76t59.5 -28q33 0 63 25t39 72z" />
    <glyph glyph-name="A" unicode="A" horiz-adv-x="746" 
d="M598 0l-67 175h-322l-68 -175h-130l287 714h149l287 -714h-136zM370 586l-120 -308h241l-118 308h-3z" />
    <glyph glyph-name="B" unicode="B" horiz-adv-x="696" 
d="M394 0h-313v714h287q126 0 192 -49.5t66 -145.5q0 -47 -32.5 -91.5t-75.5 -57.5q60 -16 98.5 -61t38.5 -106q0 -99 -68 -151t-193 -52zM211 412h156q65 0 98 27t33 75q0 102 -130 102h-157v-204zM211 317v-219h173q68 0 104 29t36 81q0 51 -36.5 80t-104.5 29h-172z" />
    <glyph glyph-name="C" unicode="C" horiz-adv-x="706" 
d="M177 358q0 -124 52.5 -194.5t148.5 -70.5q138 0 163 131h129q-20 -109 -94 -172.5t-198 -63.5q-150 0 -243 102t-93 268q0 165 93 266.5t243 101.5q124 0 198.5 -63.5t93.5 -172.5h-129q-25 131 -163 131q-96 0 -148.5 -70t-52.5 -193z" />
    <glyph glyph-name="D" unicode="D" horiz-adv-x="754" 
d="M356 714q161 0 259 -98t98 -259t-98 -259t-259 -98h-275v714h275zM356 609h-145v-504h145q106 0 163.5 66t57.5 186t-57.5 186t-163.5 66z" />
    <glyph glyph-name="E" unicode="E" horiz-adv-x="657" 
d="M598 0h-517v714h513v-105h-383v-199h339v-105h-339v-200h387v-105z" />
    <glyph glyph-name="F" unicode="F" horiz-adv-x="630" 
d="M81 0v714h493v-105h-360v-218h323v-105h-323v-286h-133z" />
    <glyph glyph-name="G" unicode="G" horiz-adv-x="763" 
d="M42 358q0 165 96 266.5t249 101.5q125 0 200.5 -62.5t97.5 -172.5h-131q-28 130 -167 130q-99 0 -154.5 -70.5t-55.5 -192.5q0 -123 54.5 -194t153.5 -71q79 0 128 42t49 108v25h-138v96h270v-364h-103l-9 102q-19 -50 -78.5 -82t-126.5 -32q-150 0 -242.5 102t-92.5 268
z" />
    <glyph glyph-name="H" unicode="H" horiz-adv-x="793" 
d="M81 0v714h133v-300h366v300h132v-714h-132v310h-366v-310h-133z" />
    <glyph glyph-name="I" unicode="I" horiz-adv-x="295" 
d="M81 0v714h133v-714h-133z" />
    <glyph glyph-name="J" unicode="J" horiz-adv-x="605" 
d="M401 253v461h132v-457q0 -124 -70.5 -196.5t-194.5 -72.5q-113 0 -183 62t-72 171h126q2 -66 37 -100.5t92 -34.5q133 0 133 167z" />
    <glyph glyph-name="K" unicode="K" horiz-adv-x="738" 
d="M564 0l-251 311l-99 -104v-207h-133v714h133v-359l330 359h152l-295 -310l323 -404h-160z" />
    <glyph glyph-name="L" unicode="L" horiz-adv-x="633" 
d="M81 0v714h133v-609h368v-105h-501z" />
    <glyph glyph-name="M" unicode="M" horiz-adv-x="919" 
d="M505 0h-96l-204 561h-2v-561h-122v714h188l192 -537h2l192 537h182v-714h-127v561h-2z" />
    <glyph glyph-name="N" unicode="N" horiz-adv-x="781" 
d="M236 714l336 -506h2v506h126v-714h-123l-367 553h-2v-553h-127v714h155z" />
    <glyph glyph-name="O" unicode="O" horiz-adv-x="765" 
d="M724 357q0 -163 -92.5 -266t-248.5 -103t-248.5 103t-92.5 266t93 266t248 103t248 -103t93 -266zM589 357q0 122 -53 193t-153 71t-153 -71t-53 -193t53 -193t153 -71t153 71t53 193z" />
    <glyph glyph-name="P" unicode="P" horiz-adv-x="675" 
d="M377 263h-166v-263h-130v714h295q128 0 197.5 -57.5t69.5 -168.5q0 -110 -69 -167.5t-197 -57.5zM211 367h154q147 0 147 121t-147 121h-154v-242z" />
    <glyph glyph-name="Q" unicode="Q" horiz-adv-x="765" 
d="M679 4l-68 -60l-72 78q-70 -34 -156 -34q-156 0 -248.5 103t-92.5 266t93 266t248 103t248 -103t93 -266q0 -180 -109 -283zM177 357q0 -122 53 -193t153 -71q42 0 78 14l-73 80l69 61l78 -85q54 69 54 194q0 122 -53 193t-153 71t-153 -71t-53 -193z" />
    <glyph glyph-name="R" unicode="R" horiz-adv-x="709" 
d="M211 0h-130v714h306q126 0 195.5 -57.5t69.5 -166.5q0 -78 -43 -130t-109 -73l179 -287h-145l-163 267h-160v-267zM211 371h161q149 0 149 119t-149 119h-161v-238z" />
    <glyph glyph-name="S" unicode="S" horiz-adv-x="667" 
d="M34 216h128q6 -68 57 -99t125 -31q66 0 108.5 29t42.5 81q0 40 -26.5 62.5t-90.5 34.5l-131 24q-190 34 -190 194q0 95 75.5 155t192.5 60q128 0 202 -54t84 -154h-125q-7 52 -49.5 80.5t-110.5 28.5q-64 0 -102 -30t-38 -78q0 -42 26 -61.5t88 -31.5l138 -27
q187 -35 187 -195q0 -96 -78.5 -156t-198.5 -60q-134 0 -219.5 57.5t-94.5 170.5z" />
    <glyph glyph-name="T" unicode="T" horiz-adv-x="721" 
d="M294 0v609h-256v105h645v-105h-257v-609h-132z" />
    <glyph glyph-name="U" unicode="U" horiz-adv-x="754" 
d="M682 288q0 -145 -79.5 -222.5t-225.5 -77.5q-145 0 -225 78t-80 224v424h133v-425q0 -95 43.5 -145t128.5 -50t129 50t44 145v425h132v-426z" />
    <glyph glyph-name="V" unicode="V" horiz-adv-x="736" 
d="M293 0l-282 714h141l217 -572h2l218 572h135l-283 -714h-148z" />
    <glyph glyph-name="W" unicode="W" horiz-adv-x="1001" 
d="M641 0l-140 551h-2l-140 -551h-145l-197 714h136l143 -554h2l139 554h134l139 -554h2l142 554h130l-197 -714h-146z" />
    <glyph glyph-name="X" unicode="X" horiz-adv-x="731" 
d="M569 0l-209 280l-209 -280h-140l280 371l-255 343h151l180 -244l181 244h140l-252 -334l284 -380h-151z" />
    <glyph glyph-name="Y" unicode="Y" horiz-adv-x="706" 
d="M419 0h-133v293l-276 421h148l198 -305h2l193 305h145l-277 -421v-293z" />
    <glyph glyph-name="Z" unicode="Z" horiz-adv-x="678" 
d="M624 614l-413 -509h419v-105h-583v93l415 516h-402v105h564v-100z" />
    <glyph glyph-name="bracketleft" unicode="[" horiz-adv-x="412" 
d="M221 645v-662h131v-91h-254v844h254v-91h-131z" />
    <glyph glyph-name="backslash" unicode="\" horiz-adv-x="534" 
d="M44 736h120l326 -844h-120z" />
    <glyph glyph-name="bracketright" unicode="]" horiz-adv-x="412" 
d="M191 -17v662h-131v91h254v-844h-254v91h131z" />
    <glyph glyph-name="asciicircum" unicode="^" horiz-adv-x="474" 
d="M181 726h112l150 -265h-111l-95 168l-95 -168h-112z" />
    <glyph glyph-name="underscore" unicode="_" horiz-adv-x="435" 
d="M33 -130v92h370v-92h-370z" />
    <glyph glyph-name="grave" unicode="`" horiz-adv-x="564" 
d="M382 577h-84l-116 159h147z" />
    <glyph glyph-name="a" unicode="a" horiz-adv-x="574" 
d="M388 0q-7 39 -7 80q-18 -43 -63 -67t-106 -24q-76 0 -123.5 39.5t-47.5 107.5q0 135 183 156l152 17v24q0 45 -25.5 68.5t-70.5 23.5q-41 0 -66 -21t-28 -57h-123q8 81 67.5 127t153.5 46q105 0 161 -49.5t56 -147.5v-196q0 -76 10 -127h-123zM247 78q53 0 91 31t38 88
v31l-113 -13q-47 -6 -71 -21t-24 -51q0 -30 20.5 -47.5t58.5 -17.5z" />
    <glyph glyph-name="b" unicode="b" horiz-adv-x="634" 
d="M204 81v-81h-126v736h128v-311q19 41 62 68t99 27q100 0 162 -74t62 -192t-62 -192t-162 -74q-56 0 -99.5 26.5t-63.5 66.5zM203 263v-18q0 -75 34 -119t94 -44q62 0 96.5 46.5t34.5 125.5t-34.5 125.5t-96.5 46.5q-60 0 -94 -44t-34 -119z" />
    <glyph glyph-name="c" unicode="c" horiz-adv-x="557" 
d="M43 254q0 121 71 193.5t184 72.5q93 0 151.5 -50t69.5 -136h-121q-16 90 -101 90q-60 0 -93 -46t-33 -124q0 -79 33 -124.5t93 -45.5q84 0 101 90h121q-11 -86 -69 -136t-152 -50q-113 0 -184 72t-71 194z" />
    <glyph glyph-name="d" unicode="d" horiz-adv-x="634" 
d="M430 0v81q-20 -40 -63.5 -66.5t-99.5 -26.5q-100 0 -162 74t-62 192t62 192t162 74q56 0 99 -27t62 -68v311h128v-736h-126zM431 245v18q0 75 -34 119t-94 44q-62 0 -96.5 -46.5t-34.5 -125.5t34.5 -125.5t96.5 -46.5q60 0 94 44t34 119z" />
    <glyph glyph-name="e" unicode="e" horiz-adv-x="575" 
d="M529 158q-16 -80 -78 -125t-151 -45q-113 0 -185 71.5t-72 193.5t72 194.5t182 72.5q113 0 174 -74t61 -182v-41h-365q6 -68 40 -104.5t93 -36.5q85 0 111 76h118zM297 425q-51 0 -83.5 -30.5t-42.5 -88.5h239q0 51 -29 85t-84 34z" />
    <glyph glyph-name="f" unicode="f" horiz-adv-x="339" 
d="M92 416h-70v92h70v72q0 78 44 118.5t122 40.5q48 0 74 -5v-97q-23 3 -49 3q-63 0 -63 -66v-66h103v-92h-103v-416h-128v416z" />
    <glyph glyph-name="g" unicode="g" horiz-adv-x="635" 
d="M428 34v72q-20 -40 -62 -66.5t-99 -26.5q-101 0 -162.5 70t-61.5 184q0 112 62 182.5t162 70.5q57 0 100 -27.5t63 -67.5v83h126v-458q0 -120 -70 -180t-188 -60q-103 0 -166.5 41t-77.5 117h127q19 -68 117 -68q130 0 130 134zM433 257v21q0 67 -36.5 108t-95.5 41
q-61 0 -95.5 -43.5t-34.5 -116.5t34.5 -116.5t95.5 -43.5q59 0 95.5 41t36.5 109z" />
    <glyph glyph-name="h" unicode="h" horiz-adv-x="622" 
d="M206 422q19 45 60 71.5t98 26.5q87 0 136.5 -51.5t49.5 -142.5v-326h-128v296q0 123 -102 123q-51 0 -82.5 -35t-31.5 -108v-276h-128v736h128v-314z" />
    <glyph glyph-name="i" unicode="i" horiz-adv-x="284" 
d="M74 594v125h136v-125h-136zM78 0v508h128v-508h-128z" />
    <glyph glyph-name="j" unicode="j" horiz-adv-x="284" 
d="M74 594v125h136v-125h-136zM45 -184q-34 0 -59 5v95q15 -3 31 -3q33 0 47 13.5t14 47.5v534h128v-536q0 -156 -161 -156z" />
    <glyph glyph-name="k" unicode="k" horiz-adv-x="598" 
d="M432 0l-167 215l-59 -57v-158h-128v736h128v-446l216 218h147l-215 -212l225 -296h-147z" />
    <glyph glyph-name="l" unicode="l" horiz-adv-x="284" 
d="M206 0h-128v736h128v-736z" />
    <glyph glyph-name="m" unicode="m" horiz-adv-x="939" 
d="M517 421q24 46 69.5 72.5t101.5 26.5q87 0 133 -51t46 -143v-326h-129v298q0 121 -93 121q-49 0 -79 -35.5t-30 -106.5v-277h-128v298q0 121 -93 121q-49 0 -79 -35.5t-30 -106.5v-277h-128v508h126v-86q18 45 60 71.5t96 26.5q116 0 157 -99z" />
    <glyph glyph-name="n" unicode="n" horiz-adv-x="622" 
d="M204 508v-86q18 44 60.5 71t99.5 27q87 0 136.5 -51.5t49.5 -142.5v-326h-128v296q0 123 -102 123q-51 0 -82.5 -35t-31.5 -108v-276h-128v508h126z" />
    <glyph glyph-name="o" unicode="o" horiz-adv-x="600" 
d="M557 254q0 -122 -71.5 -194t-185.5 -72t-185.5 72t-71.5 194q0 121 71.5 193.5t185.5 72.5t185.5 -72.5t71.5 -193.5zM171 254q0 -81 33.5 -126t95.5 -45q61 0 95 45t34 126q0 80 -34 125.5t-95 45.5q-62 0 -95.5 -45.5t-33.5 -125.5z" />
    <glyph glyph-name="p" unicode="p" horiz-adv-x="634" 
d="M206 81v-259h-128v686h126v-84q19 41 63 68.5t100 27.5q100 0 162 -74t62 -192t-62 -192t-162 -74q-55 0 -97.5 26t-63.5 67zM203 263v-18q0 -75 34 -119t94 -44q62 0 96.5 46.5t34.5 125.5t-34.5 125.5t-96.5 46.5q-60 0 -94 -44t-34 -119z" />
    <glyph glyph-name="q" unicode="q" horiz-adv-x="634" 
d="M428 -178v259q-21 -41 -63.5 -67t-97.5 -26q-100 0 -162 74t-62 192t62 192t162 74q56 0 100 -27.5t63 -68.5v84h126v-686h-128zM431 245v18q0 75 -34 119t-94 44q-62 0 -96.5 -46.5t-34.5 -125.5t34.5 -125.5t96.5 -46.5q60 0 94 44t34 119z" />
    <glyph glyph-name="r" unicode="r" horiz-adv-x="418" 
d="M398 513v-118q-20 4 -49 4q-62 0 -102.5 -42.5t-40.5 -121.5v-235h-128v508h126v-114q18 59 59.5 91t96.5 32q23 0 38 -4z" />
    <glyph glyph-name="s" unicode="s" horiz-adv-x="535" 
d="M37 154h122q4 -38 36.5 -57.5t77.5 -19.5q42 0 69 16.5t27 46.5q0 24 -18 36.5t-60 20.5l-90 16q-146 26 -146 145q0 71 58.5 116.5t147.5 45.5q98 0 154 -41t64 -115h-117q-4 30 -31 48t-69 18q-40 0 -64.5 -16.5t-24.5 -42.5q0 -25 18.5 -37.5t59.5 -19.5l99 -17
q139 -23 139 -148q0 -72 -61 -116.5t-153 -44.5q-102 0 -166 42.5t-72 123.5z" />
    <glyph glyph-name="t" unicode="t" horiz-adv-x="389" 
d="M347 105v-98q-50 -15 -101 -15q-80 0 -119 35.5t-39 111.5v277h-70v92h70v127h127v-127h121v-92h-122v-257q0 -35 16 -49.5t50 -14.5q32 0 67 10z" />
    <glyph glyph-name="u" unicode="u" horiz-adv-x="616" 
d="M538 0h-126v85q-18 -44 -60 -70.5t-98 -26.5q-86 0 -133.5 50.5t-47.5 142.5v327h129v-299q0 -122 98 -122q49 0 79 36t30 109v276h129v-508z" />
    <glyph glyph-name="v" unicode="v" horiz-adv-x="575" 
d="M220 0l-200 508h129l141 -383h2l138 383h125l-195 -508h-140z" />
    <glyph glyph-name="w" unicode="w" horiz-adv-x="813" 
d="M468 508l97 -377h2l103 377h123l-155 -508h-130l-100 367h-3l-99 -367h-131l-155 508h127l103 -377h2l97 377h119z" />
    <glyph glyph-name="x" unicode="x" horiz-adv-x="585" 
d="M161 0h-137l195 260l-183 248h147l112 -157l113 157h137l-181 -242l197 -266h-147l-126 174z" />
    <glyph glyph-name="y" unicode="y" horiz-adv-x="574" 
d="M218 1l-198 507h130l141 -383h2l134 383h127l-198 -517q-36 -95 -85 -135.5t-129 -41.5q-29 0 -59 5v97q15 -3 34 -3q39 0 60 18t41 70z" />
    <glyph glyph-name="z" unicode="z" horiz-adv-x="534" 
d="M477 419l-274 -325h284v-94h-440v83l274 331h-265v94h421v-89z" />
    <glyph glyph-name="braceleft" unicode="{" horiz-adv-x="430" 
d="M33 268v92h45q25 0 39.5 15t14.5 41v205q0 115 132 115h105v-90h-72q-26 0 -38 -9t-12 -34v-200q0 -77 -85 -89q85 -12 85 -89v-200q0 -25 12 -34t38 -9h72v-90h-105q-132 0 -132 115v205q0 26 -14.5 41t-39.5 15h-45z" />
    <glyph glyph-name="bar" unicode="|" horiz-adv-x="330" 
d="M109 736h112v-844h-112v844z" />
    <glyph glyph-name="braceright" unicode="}" horiz-adv-x="430" 
d="M397 360v-92h-45q-25 0 -39.5 -15t-14.5 -41v-205q0 -115 -132 -115h-105v90h72q26 0 38 9t12 34v200q0 77 85 89q-85 12 -85 89v200q0 25 -12 34t-38 9h-72v90h105q132 0 132 -115v-205q0 -26 14.5 -41t39.5 -15h45z" />
    <glyph glyph-name="asciitilde" unicode="~" horiz-adv-x="551" 
d="M207 295q-39 0 -42 -67h-78q0 75 28 120.5t76 45.5q36 0 85.5 -34t66.5 -34q38 0 43 66h78q0 -75 -28.5 -120.5t-76.5 -45.5q-35 0 -85 34.5t-67 34.5z" />
    <glyph glyph-name="uni00A0" unicode="&#xa0;" horiz-adv-x="210" 
 />
    <glyph glyph-name="exclamdown" unicode="&#xa1;" horiz-adv-x="327" 
d="M89 569v145h149v-145h-149zM238 0h-148l22 480h104z" />
    <glyph glyph-name="cent" unicode="&#xa2;" horiz-adv-x="573" 
d="M532 179q-10 -78 -62.5 -127.5t-131.5 -58.5v-99h-72v100q-98 12 -159.5 83.5t-61.5 183.5q0 110 61.5 182t159.5 84v116h72v-115q79 -9 131.5 -58.5t62.5 -127.5h-103q-13 80 -91 94v-351q78 15 91 94h103zM158 261q0 -69 28.5 -114.5t79.5 -59.5v347q-51 -14 -79.5 -59
t-28.5 -114z" />
    <glyph glyph-name="sterling" unicode="&#xa3;" horiz-adv-x="644" 
d="M601 105v-105h-549v105h13q43 0 68.5 39.5t25.5 112.5q0 9 -2 25h-94v92h64q-34 80 -34 136q0 87 68.5 151.5t178.5 64.5q118 0 182 -66.5t71 -172.5h-123q-4 61 -35.5 99t-94.5 38q-56 0 -88 -34t-32 -82q0 -17 4.5 -36t8.5 -30.5t14 -35t13 -32.5h177v-92h-156
q1 -6 1 -18q0 -99 -64 -159h383z" />
    <glyph glyph-name="yen" unicode="&#xa5;" horiz-adv-x="710" 
d="M625 168h-203v-168h-133v168h-204v77h204v74h-204v78h156l-218 317h145l189 -286h2l186 286h142l-218 -317h156v-78h-203v-74h203v-77z" />
    <glyph glyph-name="section" unicode="&#xa7;" horiz-adv-x="611" 
d="M501 24q0 -72 -58 -117.5t-148 -45.5q-96 0 -153.5 43.5t-65.5 117.5h114q5 -33 33.5 -54t70.5 -21q41 0 65 20t24 51q0 25 -15 41.5t-50 35.5l-127 67q-73 39 -104.5 79t-31.5 98q0 82 81 131q-30 38 -30 94q0 72 57 117t148 45q96 0 152.5 -41.5t64.5 -114.5h-114
q-4 33 -32 51.5t-71 18.5q-40 0 -63.5 -19.5t-23.5 -50.5q0 -25 14.5 -42t49.5 -36l127 -67q73 -39 104.5 -79t31.5 -98q0 -82 -81 -131q31 -39 31 -93zM369 190l27 -15q41 24 41 68q0 26 -16 45t-60 44l-123 65l-27 15q-42 -25 -42 -68q0 -26 16 -44.5t61 -43.5z" />
    <glyph glyph-name="dieresis" unicode="&#xa8;" horiz-adv-x="564" 
d="M323 594v125h118v-125h-118zM123 594v125h118v-125h-118z" />
    <glyph glyph-name="copyright" unicode="&#xa9;" horiz-adv-x="870" 
d="M804 356q0 -152 -108 -260t-261 -108q-152 0 -261 108t-109 260q0 154 108.5 262.5t261.5 108.5t261 -108.5t108 -262.5zM109 356q0 -134 95.5 -229.5t230.5 -95.5t230.5 95.5t95.5 229.5q0 136 -95.5 232t-230.5 96t-230.5 -96t-95.5 -232zM329 358q0 -66 28.5 -104.5
t82.5 -39.5q77 1 90 72h95q-13 -68 -59 -108t-125 -40q-93 0 -150 61t-57 159t57 159t150 61q80 0 125.5 -39.5t58.5 -108.5h-95q-13 72 -90 72q-54 0 -82.5 -39t-28.5 -105z" />
    <glyph glyph-name="ordfeminine" unicode="&#xaa;" horiz-adv-x="408" 
d="M262 432q-28 -59 -110 -59q-52 0 -83.5 26.5t-31.5 71.5q0 87 123 101l97 10v18q0 54 -57 54q-24 0 -39.5 -13t-17.5 -34h-92q5 56 45.5 87t106.5 31q72 0 110.5 -34t38.5 -101v-120q0 -54 6 -89h-92q-4 24 -4 51zM257 510v22l-68 -8q-57 -7 -57 -47q0 -19 12.5 -30.5
t35.5 -11.5q31 0 54 20t23 55zM53 239v70h300v-70h-300z" />
    <glyph glyph-name="guillemotleft" unicode="&#xab;" horiz-adv-x="547" 
d="M492 44h-89l-137 204l137 204h89l-109 -204zM281 44h-88l-138 204l138 204h88l-109 -204z" />
    <glyph glyph-name="registered" unicode="&#xae;" horiz-adv-x="571" 
d="M286 726q96 0 163 -66t67 -165q0 -100 -67 -166t-163 -66q-97 0 -164 66t-67 166q0 99 67.5 165t163.5 66zM286 293q84 0 141 57.5t57 144.5t-57.5 144t-140.5 57t-140.5 -57t-57.5 -144t57 -144.5t141 -57.5zM246 376h-57v245h112q94 0 94 -80q0 -51 -47 -71l55 -94h-62
l-50 85h-45v-85zM246 506h47q45 0 45 35q0 34 -45 34h-47v-69z" />
    <glyph glyph-name="macron" unicode="&#xaf;" horiz-adv-x="564" 
d="M129 594v86h306v-86h-306z" />
    <glyph glyph-name="degree" unicode="&#xb0;" horiz-adv-x="367" 
d="M183 441q-62 0 -103.5 40.5t-41.5 101.5q0 62 41.5 102.5t103.5 40.5q63 0 104.5 -40.5t41.5 -102.5q0 -61 -42 -101.5t-104 -40.5zM183 660q-34 0 -56 -21.5t-22 -55.5q0 -33 22 -54.5t56 -21.5t56.5 21.5t22.5 54.5q0 34 -22.5 55.5t-56.5 21.5z" />
    <glyph glyph-name="twosuperior" unicode="&#xb2;" horiz-adv-x="371" 
d="M333 601q0 -26 -8.5 -46t-27.5 -37t-36 -28t-49 -28q-77 -41 -80 -71h205v-68h-301v32q0 52 34.5 89t90.5 70q49 29 68 46t19 42q0 23 -15 37.5t-43 14.5q-29 0 -46.5 -19.5t-18.5 -47.5h-86q4 59 44 97t108 38q63 0 102.5 -34t39.5 -87z" />
    <glyph glyph-name="threesuperior" unicode="&#xb3;" horiz-adv-x="379" 
d="M342 429q0 -48 -40.5 -80.5t-110.5 -32.5q-69 0 -111.5 34.5t-47.5 90.5h85q2 -27 22.5 -42.5t51.5 -15.5t49 14.5t18 38.5q0 50 -67 50h-39v65h37q61 0 61 51q0 23 -16 38t-42 15q-28 0 -46 -17t-20 -43h-82q3 54 42.5 90.5t106.5 36.5q66 0 102.5 -33.5t36.5 -82.5
q0 -33 -19.5 -57t-49.5 -30q36 -6 57.5 -30.5t21.5 -59.5z" />
    <glyph glyph-name="acute" unicode="&#xb4;" horiz-adv-x="564" 
d="M266 577h-84l53 159h147z" />
    <glyph glyph-name="paragraph" unicode="&#xb6;" horiz-adv-x="671" 
d="M292 -127v442q-120 0 -185.5 53t-65.5 146q0 94 65.5 147t185.5 53h292v-841h-95v753h-102v-753h-95z" />
    <glyph glyph-name="periodcentered" unicode="&#xb7;" horiz-adv-x="323" 
d="M87 213v149h149v-149h-149z" />
    <glyph glyph-name="cedilla" unicode="&#xb8;" horiz-adv-x="738" 
d="M483 -111q0 -43 -36.5 -66t-87.5 -23t-92 18v58q53 -21 90 -21q52 0 52 31q0 23 -29.5 29t-52.5 -4l-23 22l53 87h53l-37 -59q43 4 76.5 -14t33.5 -58z" />
    <glyph glyph-name="onesuperior" unicode="&#xb9;" horiz-adv-x="341" 
d="M318 385v-62h-277v62h97v214h-96v58q65 0 87.5 12.5t30.5 45.5h63v-330h95z" />
    <glyph glyph-name="ordmasculine" unicode="&#xba;" horiz-adv-x="425" 
d="M38 549q0 81 48.5 128.5t126.5 47.5t126 -47.5t48 -128.5t-48 -129t-126 -48t-126.5 48t-48.5 129zM135 549q0 -51 20 -79t58 -28q37 0 57 28.5t20 78.5q0 49 -20 77t-57 28q-38 0 -58 -28t-20 -77zM63 239v70h299v-70h-299z" />
    <glyph glyph-name="guillemotright" unicode="&#xbb;" horiz-adv-x="547" 
d="M144 42h-89l109 204l-109 204h89l137 -204zM354 42h-88l109 204l-109 204h88l138 -204z" />
    <glyph glyph-name="onequarter" unicode="&#xbc;" horiz-adv-x="918" 
d="M239 -12h-86l516 739h85zM334 385v-62h-277v62h97v214h-96v58q65 0 87.5 12.5t30.5 45.5h63v-330h95zM785 391v-243h77v-62h-77v-86h-83v86h-195v63l184 242h94zM702 309l-119 -161h119v161z" />
    <glyph glyph-name="onehalf" unicode="&#xbd;" horiz-adv-x="929" 
d="M244 -12h-86l516 739h85zM334 385v-62h-277v62h97v214h-96v58q65 0 87.5 12.5t30.5 45.5h63v-330h95zM867 278q0 -26 -8.5 -46t-27.5 -37t-36 -28t-49 -28q-77 -41 -80 -71h205v-68h-301v32q0 52 34.5 89t90.5 70q49 29 68 46t19 42q0 23 -15 37.5t-43 14.5
q-29 0 -46.5 -19.5t-18.5 -47.5h-86q4 59 44 97t108 38q63 0 102.5 -34t39.5 -87z" />
    <glyph glyph-name="threequarters" unicode="&#xbe;" horiz-adv-x="937" 
d="M258 -12h-86l516 739h85zM358 429q0 -48 -40.5 -80.5t-110.5 -32.5q-69 0 -111.5 34.5t-47.5 90.5h85q2 -27 22.5 -42.5t51.5 -15.5t49 14.5t18 38.5q0 50 -67 50h-39v65h37q61 0 61 51q0 23 -16 38t-42 15q-28 0 -46 -17t-20 -43h-82q3 54 42.5 90.5t106.5 36.5
q66 0 102.5 -33.5t36.5 -82.5q0 -33 -19.5 -57t-49.5 -30q36 -6 57.5 -30.5t21.5 -59.5zM809 391v-243h77v-62h-77v-86h-83v86h-195v63l184 242h94zM726 309l-119 -161h119v161z" />
    <glyph glyph-name="questiondown" unicode="&#xbf;" horiz-adv-x="588" 
d="M382 714v-139h-150v139h150zM40 201q0 67 36 115t103 93q21 15 32 25t21.5 27.5t11.5 38.5h126q-3 -86 -112 -165q-45 -33 -69 -62.5t-24 -70.5q0 -48 30 -80t89 -32q62 0 97.5 39.5t38.5 97.5h128q-7 -103 -77 -171t-187 -68q-112 0 -178 60t-66 153z" />
    <glyph glyph-name="Agrave" unicode="&#xc0;" horiz-adv-x="746" 
d="M415 764h-79l-118 153h144zM598 0l-67 175h-322l-68 -175h-130l287 714h149l287 -714h-136zM370 586l-120 -308h241l-118 308h-3z" />
    <glyph glyph-name="Aacute" unicode="&#xc1;" horiz-adv-x="746" 
d="M410 764h-79l53 153h144zM598 0l-67 175h-322l-68 -175h-130l287 714h149l287 -714h-136zM370 586l-120 -308h241l-118 308h-3z" />
    <glyph glyph-name="Acircumflex" unicode="&#xc2;" horiz-adv-x="746" 
d="M314 917h119l96 -154h-74l-81 80l-83 -80h-74zM598 0l-67 175h-322l-68 -175h-130l287 714h149l287 -714h-136zM370 586l-120 -308h241l-118 308h-3z" />
    <glyph glyph-name="Atilde" unicode="&#xc3;" horiz-adv-x="746" 
d="M311 832q-38 0 -41 -64h-71q0 70 25.5 112.5t71.5 42.5q33 0 80 -32.5t63 -32.5q38 0 41 64h71q0 -71 -25.5 -113t-71.5 -42q-33 0 -80 32.5t-63 32.5zM598 0l-67 175h-322l-68 -175h-130l287 714h149l287 -714h-136zM370 586l-120 -308h241l-118 308h-3z" />
    <glyph glyph-name="Adieresis" unicode="&#xc4;" horiz-adv-x="746" 
d="M414 775v125h118v-125h-118zM214 775v125h118v-125h-118zM598 0l-67 175h-322l-68 -175h-130l287 714h149l287 -714h-136zM370 586l-120 -308h241l-118 308h-3z" />
    <glyph glyph-name="Aring" unicode="&#xc5;" horiz-adv-x="746" 
d="M209 175l-68 -175h-130l277 689q-44 39 -44 97q0 53 38 91t91 38t90.5 -38t37.5 -91q0 -60 -44 -97l277 -689h-136l-67 175h-322zM373 850q-27 0 -46 -19t-19 -45t19 -45.5t46 -19.5q26 0 45 19.5t19 45.5t-19 45t-45 19zM370 586l-120 -308h241l-118 308h-3z" />
    <glyph glyph-name="AE" unicode="&#xc6;" horiz-adv-x="1118" 
d="M542 0v180h-283l-115 -180h-134l454 714h591v-105h-383v-199h339v-105h-339v-200h387v-105h-517zM542 625l-217 -341h217v341z" />
    <glyph glyph-name="Ccedilla" unicode="&#xc7;" horiz-adv-x="706" 
d="M484 -111q0 -43 -36.5 -66t-87.5 -23t-92 18v58q52 -21 90 -21q52 0 52 31q0 23 -29.5 29t-52.5 -4l-23 22l35 57q-135 14 -216.5 113.5t-81.5 254.5q0 165 93 266.5t243 101.5q124 0 198.5 -63.5t93.5 -172.5h-129q-25 131 -163 131q-96 0 -148.5 -70t-52.5 -193
q0 -124 52.5 -194.5t148.5 -70.5q138 0 163 131h129q-19 -105 -90 -168.5t-189 -67.5l-17 -27q43 4 76.5 -14t33.5 -58z" />
    <glyph glyph-name="Egrave" unicode="&#xc8;" horiz-adv-x="657" 
d="M391 764h-79l-118 153h144zM598 0h-517v714h513v-105h-383v-199h339v-105h-339v-200h387v-105z" />
    <glyph glyph-name="Eacute" unicode="&#xc9;" horiz-adv-x="657" 
d="M367 764h-79l53 153h144zM598 0h-517v714h513v-105h-383v-199h339v-105h-339v-200h387v-105z" />
    <glyph glyph-name="Ecircumflex" unicode="&#xca;" horiz-adv-x="657" 
d="M280 917h119l96 -154h-74l-81 80l-83 -80h-74zM598 0h-517v714h513v-105h-383v-199h339v-105h-339v-200h387v-105z" />
    <glyph glyph-name="Edieresis" unicode="&#xcb;" horiz-adv-x="657" 
d="M380 775v125h118v-125h-118zM180 775v125h118v-125h-118zM598 0h-517v714h513v-105h-383v-199h339v-105h-339v-200h387v-105z" />
    <glyph glyph-name="Igrave" unicode="&#xcc;" horiz-adv-x="295" 
d="M195 764h-79l-118 153h144zM81 0v714h133v-714h-133z" />
    <glyph glyph-name="Iacute" unicode="&#xcd;" horiz-adv-x="295" 
d="M185 764h-79l53 153h144zM81 0v714h133v-714h-133z" />
    <glyph glyph-name="Icircumflex" unicode="&#xce;" horiz-adv-x="295" 
d="M89 917h119l96 -154h-74l-81 80l-83 -80h-74zM81 0v714h133v-714h-133z" />
    <glyph glyph-name="Idieresis" unicode="&#xcf;" horiz-adv-x="295" 
d="M189 775v125h118v-125h-118zM-11 775v125h118v-125h-118zM81 0v714h133v-714h-133z" />
    <glyph glyph-name="Eth" unicode="&#xd0;" horiz-adv-x="774" 
d="M733 357q0 -161 -98 -259t-259 -98h-275v312h-73v101h73v301h275q161 0 259 -98t98 -259zM231 105h145q106 0 163.5 66t57.5 186t-57.5 186t-163.5 66h-145v-196h125v-101h-125v-207z" />
    <glyph glyph-name="Ntilde" unicode="&#xd1;" horiz-adv-x="781" 
d="M323 832q-38 0 -41 -64h-71q0 70 25.5 112.5t71.5 42.5q33 0 80 -32.5t63 -32.5q38 0 41 64h71q0 -71 -25.5 -113t-71.5 -42q-33 0 -80 32.5t-63 32.5zM236 714l336 -506h2v506h126v-714h-123l-367 553h-2v-553h-127v714h155z" />
    <glyph glyph-name="Ograve" unicode="&#xd2;" horiz-adv-x="765" 
d="M432 764h-79l-118 153h144zM724 357q0 -163 -92.5 -266t-248.5 -103t-248.5 103t-92.5 266t93 266t248 103t248 -103t93 -266zM589 357q0 122 -53 193t-153 71t-153 -71t-53 -193t53 -193t153 -71t153 71t53 193z" />
    <glyph glyph-name="Oacute" unicode="&#xd3;" horiz-adv-x="765" 
d="M417 764h-79l53 153h144zM724 357q0 -163 -92.5 -266t-248.5 -103t-248.5 103t-92.5 266t93 266t248 103t248 -103t93 -266zM589 357q0 122 -53 193t-153 71t-153 -71t-53 -193t53 -193t153 -71t153 71t53 193z" />
    <glyph glyph-name="Ocircumflex" unicode="&#xd4;" horiz-adv-x="765" 
d="M324 917h119l96 -154h-74l-81 80l-83 -80h-74zM724 357q0 -163 -92.5 -266t-248.5 -103t-248.5 103t-92.5 266t93 266t248 103t248 -103t93 -266zM589 357q0 122 -53 193t-153 71t-153 -71t-53 -193t53 -193t153 -71t153 71t53 193z" />
    <glyph glyph-name="Otilde" unicode="&#xd5;" horiz-adv-x="765" 
d="M319 832q-38 0 -41 -64h-71q0 70 25.5 112.5t71.5 42.5q33 0 80 -32.5t63 -32.5q38 0 41 64h71q0 -71 -25.5 -113t-71.5 -42q-33 0 -80 32.5t-63 32.5zM724 357q0 -163 -92.5 -266t-248.5 -103t-248.5 103t-92.5 266t93 266t248 103t248 -103t93 -266zM589 357
q0 122 -53 193t-153 71t-153 -71t-53 -193t53 -193t153 -71t153 71t53 193z" />
    <glyph glyph-name="Odieresis" unicode="&#xd6;" horiz-adv-x="765" 
d="M424 775v125h118v-125h-118zM224 775v125h118v-125h-118zM724 357q0 -163 -92.5 -266t-248.5 -103t-248.5 103t-92.5 266t93 266t248 103t248 -103t93 -266zM589 357q0 122 -53 193t-153 71t-153 -71t-53 -193t53 -193t153 -71t153 71t53 193z" />
    <glyph glyph-name="multiply" unicode="&#xd7;" 
d="M503 94l-172 172l-173 -173l-66 66l173 173l-173 173l65 65l173 -173l173 173l66 -66l-173 -173l172 -172z" />
    <glyph glyph-name="Oslash" unicode="&#xd8;" horiz-adv-x="765" 
d="M383 -12q-116 0 -198 59l-62 -77l-60 46l66 82q-87 101 -87 259q0 163 93 266t248 103q118 0 202 -61l58 72l59 -46l-62 -78q84 -101 84 -256q0 -163 -92.5 -266t-248.5 -103zM177 357q0 -94 32 -160l304 378q-51 46 -130 46q-100 0 -153 -71t-53 -193zM589 357
q0 92 -30 155l-303 -376q51 -43 127 -43q100 0 153 71t53 193z" />
    <glyph glyph-name="Ugrave" unicode="&#xd9;" horiz-adv-x="754" 
d="M436 764h-79l-118 153h144zM682 288q0 -145 -79.5 -222.5t-225.5 -77.5q-145 0 -225 78t-80 224v424h133v-425q0 -95 43.5 -145t128.5 -50t129 50t44 145v425h132v-426z" />
    <glyph glyph-name="Uacute" unicode="&#xda;" horiz-adv-x="754" 
d="M401 764h-79l53 153h144zM682 288q0 -145 -79.5 -222.5t-225.5 -77.5q-145 0 -225 78t-80 224v424h133v-425q0 -95 43.5 -145t128.5 -50t129 50t44 145v425h132v-426z" />
    <glyph glyph-name="Ucircumflex" unicode="&#xdb;" horiz-adv-x="754" 
d="M319 917h119l96 -154h-74l-81 80l-83 -80h-74zM682 288q0 -145 -79.5 -222.5t-225.5 -77.5q-145 0 -225 78t-80 224v424h133v-425q0 -95 43.5 -145t128.5 -50t129 50t44 145v425h132v-426z" />
    <glyph glyph-name="Udieresis" unicode="&#xdc;" horiz-adv-x="754" 
d="M419 775v125h118v-125h-118zM219 775v125h118v-125h-118zM682 288q0 -145 -79.5 -222.5t-225.5 -77.5q-145 0 -225 78t-80 224v424h133v-425q0 -95 43.5 -145t128.5 -50t129 50t44 145v425h132v-426z" />
    <glyph glyph-name="Yacute" unicode="&#xdd;" horiz-adv-x="706" 
d="M392 764h-79l53 153h144zM419 0h-133v293l-276 421h148l198 -305h2l193 305h145l-277 -421v-293z" />
    <glyph glyph-name="Thorn" unicode="&#xde;" horiz-adv-x="675" 
d="M377 140h-166v-140h-130v714h130v-123h165q128 0 197.5 -57.5t69.5 -168.5q0 -110 -69.5 -167.5t-196.5 -57.5zM211 244h154q147 0 147 121t-147 121h-154v-242z" />
    <glyph glyph-name="germandbls" unicode="&#xdf;" horiz-adv-x="636" 
d="M446 420q63 -18 105 -70t42 -126q0 -109 -69 -169.5t-175 -60.5q-38 0 -66 7v99q21 -4 49 -4q62 0 103 34.5t41 99.5q0 59 -41 94.5t-109 35.5h-32v99h26q47 0 75 25.5t28 72.5q0 42 -26 67.5t-72 25.5q-57 0 -88 -40.5t-31 -107.5v-502h-128v497q0 113 67 182t179 69
q100 0 157.5 -50.5t57.5 -130.5q0 -54 -28 -93.5t-65 -53.5z" />
    <glyph glyph-name="agrave" unicode="&#xe0;" horiz-adv-x="574" 
d="M339 577h-84l-116 159h147zM388 0q-7 39 -7 80q-18 -43 -63 -67t-106 -24q-76 0 -123.5 39.5t-47.5 107.5q0 135 183 156l152 17v24q0 45 -25.5 68.5t-70.5 23.5q-41 0 -66 -21t-28 -57h-123q8 81 67.5 127t153.5 46q105 0 161 -49.5t56 -147.5v-196q0 -76 10 -127h-123z
M247 78q53 0 91 31t38 88v31l-113 -13q-47 -6 -71 -21t-24 -51q0 -30 20.5 -47.5t58.5 -17.5z" />
    <glyph glyph-name="aacute" unicode="&#xe1;" horiz-adv-x="574" 
d="M314 577h-84l53 159h147zM388 0q-7 39 -7 80q-18 -43 -63 -67t-106 -24q-76 0 -123.5 39.5t-47.5 107.5q0 135 183 156l152 17v24q0 45 -25.5 68.5t-70.5 23.5q-41 0 -66 -21t-28 -57h-123q8 81 67.5 127t153.5 46q105 0 161 -49.5t56 -147.5v-196q0 -76 10 -127h-123z
M247 78q53 0 91 31t38 88v31l-113 -13q-47 -6 -71 -21t-24 -51q0 -30 20.5 -47.5t58.5 -17.5z" />
    <glyph glyph-name="acircumflex" unicode="&#xe2;" horiz-adv-x="574" 
d="M226 736h116l98 -160h-74l-81 87l-83 -87h-74zM388 0q-7 39 -7 80q-18 -43 -63 -67t-106 -24q-76 0 -123.5 39.5t-47.5 107.5q0 135 183 156l152 17v24q0 45 -25.5 68.5t-70.5 23.5q-41 0 -66 -21t-28 -57h-123q8 81 67.5 127t153.5 46q105 0 161 -49.5t56 -147.5v-196
q0 -76 10 -127h-123zM247 78q53 0 91 31t38 88v31l-113 -13q-47 -6 -71 -21t-24 -51q0 -30 20.5 -47.5t58.5 -17.5z" />
    <glyph glyph-name="atilde" unicode="&#xe3;" horiz-adv-x="574" 
d="M222 641q-38 0 -41 -66h-71q0 70 25.5 112.5t71.5 42.5q33 0 80 -33.5t63 -33.5q38 0 41 66h71q0 -71 -25.5 -113t-71.5 -42q-33 0 -80 33.5t-63 33.5zM388 0q-7 39 -7 80q-18 -43 -63 -67t-106 -24q-76 0 -123.5 39.5t-47.5 107.5q0 135 183 156l152 17v24
q0 45 -25.5 68.5t-70.5 23.5q-41 0 -66 -21t-28 -57h-123q8 81 67.5 127t153.5 46q105 0 161 -49.5t56 -147.5v-196q0 -76 10 -127h-123zM247 78q53 0 91 31t38 88v31l-113 -13q-47 -6 -71 -21t-24 -51q0 -30 20.5 -47.5t58.5 -17.5z" />
    <glyph glyph-name="adieresis" unicode="&#xe4;" horiz-adv-x="574" 
d="M326 594v125h118v-125h-118zM126 594v125h118v-125h-118zM388 0q-7 39 -7 80q-18 -43 -63 -67t-106 -24q-76 0 -123.5 39.5t-47.5 107.5q0 135 183 156l152 17v24q0 45 -25.5 68.5t-70.5 23.5q-41 0 -66 -21t-28 -57h-123q8 81 67.5 127t153.5 46q105 0 161 -49.5
t56 -147.5v-196q0 -76 10 -127h-123zM247 78q53 0 91 31t38 88v31l-113 -13q-47 -6 -71 -21t-24 -51q0 -30 20.5 -47.5t58.5 -17.5z" />
    <glyph glyph-name="aring" unicode="&#xe5;" horiz-adv-x="574" 
d="M175 676q0 46 32.5 78.5t78.5 32.5t78 -32.5t32 -78.5q0 -45 -32 -77.5t-78 -32.5t-78.5 32.5t-32.5 77.5zM338 676q0 22 -15 37.5t-37 15.5t-37.5 -15.5t-15.5 -37.5q0 -21 15.5 -36.5t37.5 -15.5t37 15.5t15 36.5zM388 0q-7 39 -7 80q-18 -43 -63 -67t-106 -24
q-76 0 -123.5 39.5t-47.5 107.5q0 135 183 156l152 17v24q0 45 -25.5 68.5t-70.5 23.5q-41 0 -66 -21t-28 -57h-123q8 81 67.5 127t153.5 46q105 0 161 -49.5t56 -147.5v-196q0 -76 10 -127h-123zM247 78q53 0 91 31t38 88v31l-113 -13q-47 -6 -71 -21t-24 -51
q0 -30 20.5 -47.5t58.5 -17.5z" />
    <glyph glyph-name="ae" unicode="&#xe6;" horiz-adv-x="900" 
d="M854 158q-16 -80 -78 -125t-151 -45q-126 0 -199 92q-71 -91 -196 -91q-84 0 -136.5 40t-52.5 111q0 78 61.5 117t174.5 39h99v37q0 46 -25.5 69.5t-70.5 23.5q-41 0 -66 -21.5t-28 -57.5h-123q8 82 66.5 127.5t150.5 45.5q115 0 169 -70q70 70 172 70q114 0 175 -73.5
t61 -182.5v-38h-366q5 -69 39.5 -106.5t94.5 -37.5q83 0 111 76h118zM621 427q-52 0 -85.5 -33.5t-42.5 -97.5h244q-2 58 -31.5 94.5t-84.5 36.5zM251 78q54 0 89.5 30.5t35.5 87.5v30h-103q-106 0 -106 -76q0 -32 22.5 -52t61.5 -20z" />
    <glyph glyph-name="ccedilla" unicode="&#xe7;" horiz-adv-x="557" 
d="M403 -111q0 -43 -36.5 -66t-87.5 -23t-92 18v58q52 -21 90 -21q52 0 52 31q0 23 -29.5 29t-52.5 -4l-23 22l35 57q-98 13 -157 83t-59 181q0 121 71 193.5t184 72.5q93 0 151.5 -50t69.5 -136h-121q-16 90 -101 90q-60 0 -93 -46t-33 -124q0 -79 33 -124.5t93 -45.5
q84 0 101 90h121q-11 -83 -65.5 -132.5t-143.5 -53.5l-17 -27q43 4 76.5 -14t33.5 -58z" />
    <glyph glyph-name="egrave" unicode="&#xe8;" horiz-adv-x="575" 
d="M348 577h-84l-116 159h147zM529 158q-16 -80 -78 -125t-151 -45q-113 0 -185 71.5t-72 193.5t72 194.5t182 72.5q113 0 174 -74t61 -182v-41h-365q6 -68 40 -104.5t93 -36.5q85 0 111 76h118zM297 425q-51 0 -83.5 -30.5t-42.5 -88.5h239q0 51 -29 85t-84 34z" />
    <glyph glyph-name="eacute" unicode="&#xe9;" horiz-adv-x="575" 
d="M334 577h-84l53 159h147zM529 158q-16 -80 -78 -125t-151 -45q-113 0 -185 71.5t-72 193.5t72 194.5t182 72.5q113 0 174 -74t61 -182v-41h-365q6 -68 40 -104.5t93 -36.5q85 0 111 76h118zM297 425q-51 0 -83.5 -30.5t-42.5 -88.5h239q0 51 -29 85t-84 34z" />
    <glyph glyph-name="ecircumflex" unicode="&#xea;" horiz-adv-x="575" 
d="M241 736h116l98 -160h-74l-81 87l-83 -87h-74zM529 158q-16 -80 -78 -125t-151 -45q-113 0 -185 71.5t-72 193.5t72 194.5t182 72.5q113 0 174 -74t61 -182v-41h-365q6 -68 40 -104.5t93 -36.5q85 0 111 76h118zM297 425q-51 0 -83.5 -30.5t-42.5 -88.5h239q0 51 -29 85
t-84 34z" />
    <glyph glyph-name="edieresis" unicode="&#xeb;" horiz-adv-x="575" 
d="M339 594v125h118v-125h-118zM139 594v125h118v-125h-118zM529 158q-16 -80 -78 -125t-151 -45q-113 0 -185 71.5t-72 193.5t72 194.5t182 72.5q113 0 174 -74t61 -182v-41h-365q6 -68 40 -104.5t93 -36.5q85 0 111 76h118zM297 425q-51 0 -83.5 -30.5t-42.5 -88.5h239
q0 51 -29 85t-84 34z" />
    <glyph glyph-name="igrave" unicode="&#xec;" horiz-adv-x="284" 
d="M190 577h-84l-116 159h147zM78 508h128v-508h-128v508z" />
    <glyph glyph-name="iacute" unicode="&#xed;" horiz-adv-x="284" 
d="M184 577h-84l53 159h147zM78 508h128v-508h-128v508z" />
    <glyph glyph-name="icircumflex" unicode="&#xee;" horiz-adv-x="284" 
d="M85 736h116l98 -160h-74l-81 87l-83 -87h-74zM78 508h128v-508h-128v508z" />
    <glyph glyph-name="idieresis" unicode="&#xef;" horiz-adv-x="284" 
d="M184 594v125h118v-125h-118zM-16 594v125h118v-125h-118zM78 508h128v-508h-128v508z" />
    <glyph glyph-name="eth" unicode="&#xf0;" horiz-adv-x="600" 
d="M557 271q0 -132 -72.5 -207.5t-184.5 -75.5q-114 0 -185.5 72.5t-71.5 194.5q0 116 72.5 187.5t180.5 71.5q61 0 93 -32q-38 63 -90 116l-139 -45l-23 51l116 38q-49 43 -120 88v6h147q40 -24 81 -59l91 30l23 -51l-69 -23q71 -75 111 -168.5t40 -193.5zM171 253
q0 -80 33.5 -125t95.5 -45q61 0 94.5 45t33.5 125q0 78 -34 123t-94 45q-62 0 -95.5 -44.5t-33.5 -123.5z" />
    <glyph glyph-name="ntilde" unicode="&#xf1;" horiz-adv-x="622" 
d="M251 641q-38 0 -41 -66h-71q0 70 25.5 112.5t71.5 42.5q33 0 80 -33.5t63 -33.5q38 0 41 66h71q0 -71 -25.5 -113t-71.5 -42q-33 0 -80 33.5t-63 33.5zM204 508v-86q18 44 60.5 71t99.5 27q87 0 136.5 -51.5t49.5 -142.5v-326h-128v296q0 123 -102 123q-51 0 -82.5 -35
t-31.5 -108v-276h-128v508h126z" />
    <glyph glyph-name="ograve" unicode="&#xf2;" horiz-adv-x="600" 
d="M357 577h-84l-116 159h147zM557 254q0 -122 -71.5 -194t-185.5 -72t-185.5 72t-71.5 194q0 121 71.5 193.5t185.5 72.5t185.5 -72.5t71.5 -193.5zM171 254q0 -81 33.5 -126t95.5 -45q61 0 95 45t34 126q0 80 -34 125.5t-95 45.5q-62 0 -95.5 -45.5t-33.5 -125.5z" />
    <glyph glyph-name="oacute" unicode="&#xf3;" horiz-adv-x="600" 
d="M331 577h-84l53 159h147zM557 254q0 -122 -71.5 -194t-185.5 -72t-185.5 72t-71.5 194q0 121 71.5 193.5t185.5 72.5t185.5 -72.5t71.5 -193.5zM171 254q0 -81 33.5 -126t95.5 -45q61 0 95 45t34 126q0 80 -34 125.5t-95 45.5q-62 0 -95.5 -45.5t-33.5 -125.5z" />
    <glyph glyph-name="ocircumflex" unicode="&#xf4;" horiz-adv-x="600" 
d="M242 736h116l98 -160h-74l-81 87l-83 -87h-74zM557 254q0 -122 -71.5 -194t-185.5 -72t-185.5 72t-71.5 194q0 121 71.5 193.5t185.5 72.5t185.5 -72.5t71.5 -193.5zM171 254q0 -81 33.5 -126t95.5 -45q61 0 95 45t34 126q0 80 -34 125.5t-95 45.5q-62 0 -95.5 -45.5
t-33.5 -125.5z" />
    <glyph glyph-name="otilde" unicode="&#xf5;" horiz-adv-x="600" 
d="M236 641q-38 0 -41 -66h-71q0 70 25.5 112.5t71.5 42.5q33 0 80 -33.5t63 -33.5q38 0 41 66h71q0 -71 -25.5 -113t-71.5 -42q-33 0 -80 33.5t-63 33.5zM557 254q0 -122 -71.5 -194t-185.5 -72t-185.5 72t-71.5 194q0 121 71.5 193.5t185.5 72.5t185.5 -72.5t71.5 -193.5z
M171 254q0 -81 33.5 -126t95.5 -45q61 0 95 45t34 126q0 80 -34 125.5t-95 45.5q-62 0 -95.5 -45.5t-33.5 -125.5z" />
    <glyph glyph-name="odieresis" unicode="&#xf6;" horiz-adv-x="600" 
d="M341 594v125h118v-125h-118zM141 594v125h118v-125h-118zM557 254q0 -122 -71.5 -194t-185.5 -72t-185.5 72t-71.5 194q0 121 71.5 193.5t185.5 72.5t185.5 -72.5t71.5 -193.5zM171 254q0 -81 33.5 -126t95.5 -45q61 0 95 45t34 126q0 80 -34 125.5t-95 45.5
q-62 0 -95.5 -45.5t-33.5 -125.5z" />
    <glyph glyph-name="divide" unicode="&#xf7;" 
d="M269 490v119h123v-119h-123zM65 285v95h529v-95h-529zM269 55v120h123v-120h-123z" />
    <glyph glyph-name="oslash" unicode="&#xf8;" horiz-adv-x="600" 
d="M300 -12q-86 0 -148 41l-54 -63l-49 45l54 62q-60 71 -60 181q0 121 71.5 193.5t185.5 72.5q88 0 152 -44l50 58l49 -45l-50 -58q56 -72 56 -177q0 -122 -71.5 -194t-185.5 -72zM166 254q0 -54 15 -91l203 235q-34 31 -84 31q-64 0 -99 -47t-35 -128zM434 254
q0 50 -13 85l-202 -233q35 -27 81 -27q63 0 98.5 46.5t35.5 128.5z" />
    <glyph glyph-name="ugrave" unicode="&#xf9;" horiz-adv-x="616" 
d="M357 577h-84l-116 159h147zM538 0h-126v85q-18 -44 -60 -70.5t-98 -26.5q-86 0 -133.5 50.5t-47.5 142.5v327h129v-299q0 -122 98 -122q49 0 79 36t30 109v276h129v-508z" />
    <glyph glyph-name="uacute" unicode="&#xfa;" horiz-adv-x="616" 
d="M340 577h-84l53 159h147zM538 0h-126v85q-18 -44 -60 -70.5t-98 -26.5q-86 0 -133.5 50.5t-47.5 142.5v327h129v-299q0 -122 98 -122q49 0 79 36t30 109v276h129v-508z" />
    <glyph glyph-name="ucircumflex" unicode="&#xfb;" horiz-adv-x="616" 
d="M249 736h116l98 -160h-74l-81 87l-83 -87h-74zM538 0h-126v85q-18 -44 -60 -70.5t-98 -26.5q-86 0 -133.5 50.5t-47.5 142.5v327h129v-299q0 -122 98 -122q49 0 79 36t30 109v276h129v-508z" />
    <glyph glyph-name="udieresis" unicode="&#xfc;" horiz-adv-x="616" 
d="M348 594v125h118v-125h-118zM148 594v125h118v-125h-118zM538 0h-126v85q-18 -44 -60 -70.5t-98 -26.5q-86 0 -133.5 50.5t-47.5 142.5v327h129v-299q0 -122 98 -122q49 0 79 36t30 109v276h129v-508z" />
    <glyph glyph-name="yacute" unicode="&#xfd;" horiz-adv-x="574" 
d="M331 577h-84l53 159h147zM218 1l-198 507h130l141 -383h2l134 383h127l-198 -517q-36 -95 -85 -135.5t-129 -41.5q-29 0 -59 5v97q15 -3 34 -3q39 0 60 18t41 70z" />
    <glyph glyph-name="thorn" unicode="&#xfe;" horiz-adv-x="634" 
d="M206 81v-259h-128v914h127v-311q19 41 62 68t100 27q100 0 162 -74t62 -192t-62 -192t-162 -74q-55 0 -97.5 26t-63.5 67zM203 263v-18q0 -75 34 -119t94 -44q62 0 96.5 46.5t34.5 125.5t-34.5 125.5t-96.5 46.5q-60 0 -94 -44t-34 -119z" />
    <glyph glyph-name="ydieresis" unicode="&#xff;" horiz-adv-x="574" 
d="M337 594v125h118v-125h-118zM137 594v125h118v-125h-118zM218 1l-198 507h130l141 -383h2l134 383h127l-198 -517q-36 -95 -85 -135.5t-129 -41.5q-29 0 -59 5v97q15 -3 34 -3q39 0 60 18t41 70z" />
    <glyph glyph-name="Amacron" unicode="&#x100;" horiz-adv-x="746" 
d="M210 779v86h326v-86h-326zM598 0l-67 175h-322l-68 -175h-130l287 714h149l287 -714h-136zM370 586l-120 -308h241l-118 308h-3z" />
    <glyph glyph-name="amacron" unicode="&#x101;" horiz-adv-x="574" 
d="M131 594v86h306v-86h-306zM388 0q-7 39 -7 80q-18 -43 -63 -67t-106 -24q-76 0 -123.5 39.5t-47.5 107.5q0 135 183 156l152 17v24q0 45 -25.5 68.5t-70.5 23.5q-41 0 -66 -21t-28 -57h-123q8 81 67.5 127t153.5 46q105 0 161 -49.5t56 -147.5v-196q0 -76 10 -127h-123z
M247 78q53 0 91 31t38 88v31l-113 -13q-47 -6 -71 -21t-24 -51q0 -30 20.5 -47.5t58.5 -17.5z" />
    <glyph glyph-name="Abreve" unicode="&#x102;" horiz-adv-x="746" 
d="M374 761q-67 0 -106.5 43.5t-39.5 116.5h81q0 -38 17 -58.5t48 -20.5t47.5 20.5t16.5 58.5h81q0 -73 -39.5 -116.5t-105.5 -43.5zM598 0l-67 175h-322l-68 -175h-130l287 714h149l287 -714h-136zM370 586l-120 -308h241l-118 308h-3z" />
    <glyph glyph-name="abreve" unicode="&#x103;" horiz-adv-x="574" 
d="M284 576q-67 0 -106.5 43.5t-39.5 116.5h79q2 -81 67 -81q64 0 66 81h79q0 -73 -39.5 -116.5t-105.5 -43.5zM388 0q-7 39 -7 80q-18 -43 -63 -67t-106 -24q-76 0 -123.5 39.5t-47.5 107.5q0 135 183 156l152 17v24q0 45 -25.5 68.5t-70.5 23.5q-41 0 -66 -21t-28 -57
h-123q8 81 67.5 127t153.5 46q105 0 161 -49.5t56 -147.5v-196q0 -76 10 -127h-123zM247 78q53 0 91 31t38 88v31l-113 -13q-47 -6 -71 -21t-24 -51q0 -30 20.5 -47.5t58.5 -17.5z" />
    <glyph glyph-name="Aogonek" unicode="&#x104;" horiz-adv-x="746" 
d="M689 -181q-27 -9 -61 -9q-40 0 -67.5 21.5t-27.5 60.5q0 47 61 118l-63 165h-322l-68 -175h-130l287 714h149l287 -714h-74q-29 -37 -38.5 -54t-9.5 -33q0 -33 37 -33q20 0 40 6v-67zM370 586l-120 -308h241l-118 308h-3z" />
    <glyph glyph-name="aogonek" unicode="&#x105;" horiz-adv-x="574" 
d="M485 -181q-27 -9 -61 -9q-40 0 -67.5 21.5t-27.5 60.5q0 47 58 115q-6 38 -6 73q-18 -43 -63 -67t-106 -24q-76 0 -123.5 39.5t-47.5 107.5q0 135 183 156l152 17v24q0 45 -25.5 68.5t-70.5 23.5q-41 0 -66 -21t-28 -57h-123q8 81 67.5 127t153.5 46q105 0 161 -49.5
t56 -147.5v-196q0 -76 10 -127h-55q-29 -37 -38.5 -54t-9.5 -33q0 -33 37 -33q20 0 40 6v-67zM247 78q53 0 91 31t38 88v31l-113 -13q-47 -6 -71 -21t-24 -51q0 -30 20.5 -47.5t58.5 -17.5z" />
    <glyph glyph-name="Cacute" unicode="&#x106;" horiz-adv-x="706" 
d="M411 764h-79l53 153h144zM177 358q0 -124 52.5 -194.5t148.5 -70.5q138 0 163 131h129q-20 -109 -94 -172.5t-198 -63.5q-150 0 -243 102t-93 268q0 165 93 266.5t243 101.5q124 0 198.5 -63.5t93.5 -172.5h-129q-25 131 -163 131q-96 0 -148.5 -70t-52.5 -193z" />
    <glyph glyph-name="cacute" unicode="&#x107;" horiz-adv-x="557" 
d="M335 577h-84l53 159h147zM43 254q0 121 71 193.5t184 72.5q93 0 151.5 -50t69.5 -136h-121q-16 90 -101 90q-60 0 -93 -46t-33 -124q0 -79 33 -124.5t93 -45.5q84 0 101 90h121q-11 -86 -69 -136t-152 -50q-113 0 -184 72t-71 194z" />
    <glyph glyph-name="Ccircumflex" unicode="&#x108;" horiz-adv-x="706" 
d="M319 917h119l96 -154h-74l-81 80l-83 -80h-74zM177 358q0 -124 52.5 -194.5t148.5 -70.5q138 0 163 131h129q-20 -109 -94 -172.5t-198 -63.5q-150 0 -243 102t-93 268q0 165 93 266.5t243 101.5q124 0 198.5 -63.5t93.5 -172.5h-129q-25 131 -163 131q-96 0 -148.5 -70
t-52.5 -193z" />
    <glyph glyph-name="ccircumflex" unicode="&#x109;" horiz-adv-x="557" 
d="M239 736h116l98 -160h-74l-81 87l-83 -87h-74zM43 254q0 121 71 193.5t184 72.5q93 0 151.5 -50t69.5 -136h-121q-16 90 -101 90q-60 0 -93 -46t-33 -124q0 -79 33 -124.5t93 -45.5q84 0 101 90h121q-11 -86 -69 -136t-152 -50q-113 0 -184 72t-71 194z" />
    <glyph glyph-name="Cdotaccent" unicode="&#x10a;" horiz-adv-x="706" 
d="M309 775v125h136v-125h-136zM177 358q0 -124 52.5 -194.5t148.5 -70.5q138 0 163 131h129q-20 -109 -94 -172.5t-198 -63.5q-150 0 -243 102t-93 268q0 165 93 266.5t243 101.5q124 0 198.5 -63.5t93.5 -172.5h-129q-25 131 -163 131q-96 0 -148.5 -70t-52.5 -193z" />
    <glyph glyph-name="cdotaccent" unicode="&#x10b;" horiz-adv-x="557" 
d="M229 594v125h136v-125h-136zM43 254q0 121 71 193.5t184 72.5q93 0 151.5 -50t69.5 -136h-121q-16 90 -101 90q-60 0 -93 -46t-33 -124q0 -79 33 -124.5t93 -45.5q84 0 101 90h121q-11 -86 -69 -136t-152 -50q-113 0 -184 72t-71 194z" />
    <glyph glyph-name="Ccaron" unicode="&#x10c;" horiz-adv-x="706" 
d="M438 763h-119l-97 154h74l83 -80l81 80h74zM177 358q0 -124 52.5 -194.5t148.5 -70.5q138 0 163 131h129q-20 -109 -94 -172.5t-198 -63.5q-150 0 -243 102t-93 268q0 165 93 266.5t243 101.5q124 0 198.5 -63.5t93.5 -172.5h-129q-25 131 -163 131q-96 0 -148.5 -70
t-52.5 -193z" />
    <glyph glyph-name="ccaron" unicode="&#x10d;" horiz-adv-x="557" 
d="M355 576h-116l-98 160h74l83 -87l81 87h74zM43 254q0 121 71 193.5t184 72.5q93 0 151.5 -50t69.5 -136h-121q-16 90 -101 90q-60 0 -93 -46t-33 -124q0 -79 33 -124.5t93 -45.5q84 0 101 90h121q-11 -86 -69 -136t-152 -50q-113 0 -184 72t-71 194z" />
    <glyph glyph-name="Dcaron" unicode="&#x10e;" horiz-adv-x="754" 
d="M412 763h-119l-97 154h74l83 -80l81 80h74zM356 714q161 0 259 -98t98 -259t-98 -259t-259 -98h-275v714h275zM356 609h-145v-504h145q106 0 163.5 66t57.5 186t-57.5 186t-163.5 66z" />
    <glyph glyph-name="dcaron" unicode="&#x10f;" horiz-adv-x="648" 
d="M430 0v81q-20 -40 -63.5 -66.5t-99.5 -26.5q-100 0 -162 74t-62 192t62 192t162 74q56 0 99 -27t62 -68v311h128v-736h-126zM693 533h-62l24 203h134zM431 245v18q0 75 -34 119t-94 44q-62 0 -96.5 -46.5t-34.5 -125.5t34.5 -125.5t96.5 -46.5q60 0 94 44t34 119z" />
    <glyph glyph-name="Dcroat" unicode="&#x110;" horiz-adv-x="774" 
d="M733 357q0 -161 -98 -259t-259 -98h-275v312h-73v101h73v301h275q161 0 259 -98t98 -259zM231 105h145q106 0 163.5 66t57.5 186t-57.5 186t-163.5 66h-145v-196h125v-101h-125v-207z" />
    <glyph glyph-name="dcroat" unicode="&#x111;" horiz-adv-x="649" 
d="M430 81q-20 -40 -63.5 -66.5t-99.5 -26.5q-100 0 -162 74t-62 192t62 192t162 74q56 0 99 -27t62 -68v153h-118v76h118v82h128v-82h72v-76h-72v-578h-126v81zM431 245v18q0 75 -34 119t-94 44q-62 0 -96.5 -46.5t-34.5 -125.5t34.5 -125.5t96.5 -46.5q60 0 94 44t34 119z
" />
    <glyph glyph-name="Emacron" unicode="&#x112;" horiz-adv-x="657" 
d="M177 779v86h326v-86h-326zM598 0h-517v714h513v-105h-383v-199h339v-105h-339v-200h387v-105z" />
    <glyph glyph-name="emacron" unicode="&#x113;" horiz-adv-x="575" 
d="M144 594v86h306v-86h-306zM529 158q-16 -80 -78 -125t-151 -45q-113 0 -185 71.5t-72 193.5t72 194.5t182 72.5q113 0 174 -74t61 -182v-41h-365q6 -68 40 -104.5t93 -36.5q85 0 111 76h118zM297 425q-51 0 -83.5 -30.5t-42.5 -88.5h239q0 51 -29 85t-84 34z" />
    <glyph glyph-name="Ebreve" unicode="&#x114;" horiz-adv-x="657" 
d="M340 761q-67 0 -106.5 43.5t-39.5 116.5h81q0 -38 17 -58.5t48 -20.5t47.5 20.5t16.5 58.5h81q0 -73 -39.5 -116.5t-105.5 -43.5zM598 0h-517v714h513v-105h-383v-199h339v-105h-339v-200h387v-105z" />
    <glyph glyph-name="ebreve" unicode="&#x115;" horiz-adv-x="575" 
d="M295 576q-67 0 -106.5 43.5t-39.5 116.5h79q2 -81 67 -81q64 0 66 81h79q0 -73 -39.5 -116.5t-105.5 -43.5zM529 158q-16 -80 -78 -125t-151 -45q-113 0 -185 71.5t-72 193.5t72 194.5t182 72.5q113 0 174 -74t61 -182v-41h-365q6 -68 40 -104.5t93 -36.5q85 0 111 76
h118zM297 425q-51 0 -83.5 -30.5t-42.5 -88.5h239q0 51 -29 85t-84 34z" />
    <glyph glyph-name="Edotaccent" unicode="&#x116;" horiz-adv-x="657" 
d="M271 775v125h136v-125h-136zM598 0h-517v714h513v-105h-383v-199h339v-105h-339v-200h387v-105z" />
    <glyph glyph-name="edotaccent" unicode="&#x117;" horiz-adv-x="575" 
d="M229 594v125h136v-125h-136zM529 158q-16 -80 -78 -125t-151 -45q-113 0 -185 71.5t-72 193.5t72 194.5t182 72.5q113 0 174 -74t61 -182v-41h-365q6 -68 40 -104.5t93 -36.5q85 0 111 76h118zM297 425q-51 0 -83.5 -30.5t-42.5 -88.5h239q0 51 -29 85t-84 34z" />
    <glyph glyph-name="Eogonek" unicode="&#x118;" horiz-adv-x="657" 
d="M563 -181q-27 -9 -61 -9q-40 0 -67.5 21.5t-27.5 60.5q0 44 52 108h-378v714h513v-105h-383v-199h339v-105h-339v-200h387v-105h-64q-29 -37 -38.5 -54t-9.5 -33q0 -33 37 -33q20 0 40 6v-67z" />
    <glyph glyph-name="eogonek" unicode="&#x119;" horiz-adv-x="575" 
d="M445 -181q-27 -9 -61 -9q-40 0 -67.5 21.5t-27.5 60.5q0 43 44 98q-22 -2 -33 -2q-113 0 -185 71.5t-72 193.5t72 194.5t182 72.5q113 0 174 -74t61 -182v-41h-365q6 -68 40 -104.5t93 -36.5q85 0 111 76h118q-8 -42 -33 -74.5t-65 -66.5q-63 -53 -63 -104q0 -33 37 -33
q20 0 40 6v-67zM297 425q-51 0 -83.5 -30.5t-42.5 -88.5h239q0 51 -29 85t-84 34z" />
    <glyph glyph-name="Ecaron" unicode="&#x11a;" horiz-adv-x="657" 
d="M399 763h-119l-97 154h74l83 -80l81 80h74zM598 0h-517v714h513v-105h-383v-199h339v-105h-339v-200h387v-105z" />
    <glyph glyph-name="ecaron" unicode="&#x11b;" horiz-adv-x="575" 
d="M357 576h-116l-98 160h74l83 -87l81 87h74zM529 158q-16 -80 -78 -125t-151 -45q-113 0 -185 71.5t-72 193.5t72 194.5t182 72.5q113 0 174 -74t61 -182v-41h-365q6 -68 40 -104.5t93 -36.5q85 0 111 76h118zM297 425q-51 0 -83.5 -30.5t-42.5 -88.5h239q0 51 -29 85
t-84 34z" />
    <glyph glyph-name="Gcircumflex" unicode="&#x11c;" horiz-adv-x="763" 
d="M332 917h119l96 -154h-74l-81 80l-83 -80h-74zM42 358q0 165 96 266.5t249 101.5q125 0 200.5 -62.5t97.5 -172.5h-131q-28 130 -167 130q-99 0 -154.5 -70.5t-55.5 -192.5q0 -123 54.5 -194t153.5 -71q79 0 128 42t49 108v25h-138v96h270v-364h-103l-9 102
q-19 -50 -78.5 -82t-126.5 -32q-150 0 -242.5 102t-92.5 268z" />
    <glyph glyph-name="gcircumflex" unicode="&#x11d;" horiz-adv-x="635" 
d="M257 736h116l98 -160h-74l-81 87l-83 -87h-74zM428 34v72q-20 -40 -62 -66.5t-99 -26.5q-101 0 -162.5 70t-61.5 184q0 112 62 182.5t162 70.5q57 0 100 -27.5t63 -67.5v83h126v-458q0 -120 -70 -180t-188 -60q-103 0 -166.5 41t-77.5 117h127q19 -68 117 -68
q130 0 130 134zM433 257v21q0 67 -36.5 108t-95.5 41q-61 0 -95.5 -43.5t-34.5 -116.5t34.5 -116.5t95.5 -43.5q59 0 95.5 41t36.5 109z" />
    <glyph glyph-name="Gbreve" unicode="&#x11e;" horiz-adv-x="763" 
d="M391 761q-67 0 -106.5 43.5t-39.5 116.5h81q0 -38 17 -58.5t48 -20.5t47.5 20.5t16.5 58.5h81q0 -73 -39.5 -116.5t-105.5 -43.5zM42 358q0 165 96 266.5t249 101.5q125 0 200.5 -62.5t97.5 -172.5h-131q-28 130 -167 130q-99 0 -154.5 -70.5t-55.5 -192.5
q0 -123 54.5 -194t153.5 -71q79 0 128 42t49 108v25h-138v96h270v-364h-103l-9 102q-19 -50 -78.5 -82t-126.5 -32q-150 0 -242.5 102t-92.5 268z" />
    <glyph glyph-name="gbreve" unicode="&#x11f;" horiz-adv-x="635" 
d="M316 576q-67 0 -106.5 43.5t-39.5 116.5h79q2 -81 67 -81q64 0 66 81h79q0 -73 -39.5 -116.5t-105.5 -43.5zM428 34v72q-20 -40 -62 -66.5t-99 -26.5q-101 0 -162.5 70t-61.5 184q0 112 62 182.5t162 70.5q57 0 100 -27.5t63 -67.5v83h126v-458q0 -120 -70 -180t-188 -60
q-103 0 -166.5 41t-77.5 117h127q19 -68 117 -68q130 0 130 134zM433 257v21q0 67 -36.5 108t-95.5 41q-61 0 -95.5 -43.5t-34.5 -116.5t34.5 -116.5t95.5 -43.5q59 0 95.5 41t36.5 109z" />
    <glyph glyph-name="Gdotaccent" unicode="&#x120;" horiz-adv-x="763" 
d="M323 775v125h136v-125h-136zM42 358q0 165 96 266.5t249 101.5q125 0 200.5 -62.5t97.5 -172.5h-131q-28 130 -167 130q-99 0 -154.5 -70.5t-55.5 -192.5q0 -123 54.5 -194t153.5 -71q79 0 128 42t49 108v25h-138v96h270v-364h-103l-9 102q-19 -50 -78.5 -82t-126.5 -32
q-150 0 -242.5 102t-92.5 268z" />
    <glyph glyph-name="gdotaccent" unicode="&#x121;" horiz-adv-x="635" 
d="M242 594v125h136v-125h-136zM428 34v72q-20 -40 -62 -66.5t-99 -26.5q-101 0 -162.5 70t-61.5 184q0 112 62 182.5t162 70.5q57 0 100 -27.5t63 -67.5v83h126v-458q0 -120 -70 -180t-188 -60q-103 0 -166.5 41t-77.5 117h127q19 -68 117 -68q130 0 130 134zM433 257v21
q0 67 -36.5 108t-95.5 41q-61 0 -95.5 -43.5t-34.5 -116.5t34.5 -116.5t95.5 -43.5q59 0 95.5 41t36.5 109z" />
    <glyph glyph-name="uni0122" unicode="&#x122;" horiz-adv-x="763" 
d="M42 358q0 165 96 266.5t249 101.5q125 0 200.5 -62.5t97.5 -172.5h-131q-28 130 -167 130q-99 0 -154.5 -70.5t-55.5 -192.5q0 -123 54.5 -194t153.5 -71q79 0 128 42t49 108v25h-138v96h270v-364h-103l-9 102q-19 -50 -78.5 -82t-126.5 -32q-150 0 -242.5 102t-92.5 268
zM326 -132v83h129v-58q0 -125 -132 -125v47q54 0 54 53h-51z" />
    <glyph glyph-name="uni0123" unicode="&#x123;" horiz-adv-x="635" 
d="M373 663v-83h-129v58q0 125 132 125v-47q-54 0 -54 -53h51zM428 34v72q-20 -40 -62 -66.5t-99 -26.5q-101 0 -162.5 70t-61.5 184q0 112 62 182.5t162 70.5q57 0 100 -27.5t63 -67.5v83h126v-458q0 -120 -70 -180t-188 -60q-103 0 -166.5 41t-77.5 117h127
q19 -68 117 -68q130 0 130 134zM433 257v21q0 67 -36.5 108t-95.5 41q-61 0 -95.5 -43.5t-34.5 -116.5t34.5 -116.5t95.5 -43.5q59 0 95.5 41t36.5 109z" />
    <glyph glyph-name="Hcircumflex" unicode="&#x124;" horiz-adv-x="793" 
d="M338 917h119l96 -154h-74l-81 80l-83 -80h-74zM81 0v714h133v-300h366v300h132v-714h-132v310h-366v-310h-133z" />
    <glyph glyph-name="hcircumflex" unicode="&#x125;" horiz-adv-x="622" 
d="M254 927h119l96 -154h-74l-81 80l-83 -80h-74zM206 422q19 45 60 71.5t98 26.5q87 0 136.5 -51.5t49.5 -142.5v-326h-128v296q0 123 -102 123q-51 0 -82.5 -35t-31.5 -108v-276h-128v736h128v-314z" />
    <glyph glyph-name="Hbar" unicode="&#x126;" horiz-adv-x="833" 
d="M233 246v-246h-132v477h-73v101h73v136h132v-136h366v136h133v-136h73v-101h-73v-477h-133v246h-366zM233 350h366v127h-366v-127z" />
    <glyph glyph-name="hbar" unicode="&#x127;" horiz-adv-x="637" 
d="M221 276v-276h-128v578h-72v75h72v83h128v-83h117v-75h-117v-156q19 45 60 71.5t98 26.5q87 0 136.5 -51.5t49.5 -142.5v-326h-128v296q0 123 -102 123q-51 0 -82.5 -35t-31.5 -108z" />
    <glyph glyph-name="Itilde" unicode="&#x128;" horiz-adv-x="295" 
d="M83 832q-38 0 -41 -64h-71q0 70 25.5 112.5t71.5 42.5q33 0 80 -32.5t63 -32.5q38 0 41 64h71q0 -71 -25.5 -113t-71.5 -42q-33 0 -80 32.5t-63 32.5zM81 0v714h133v-714h-133z" />
    <glyph glyph-name="itilde" unicode="&#x129;" horiz-adv-x="284" 
d="M95 641q-37 0 -40 -66h-72q0 70 26 112.5t72 42.5q26 0 45.5 -17t34 -33.5t29.5 -16.5q37 0 40 66h71q0 -71 -25.5 -113t-71.5 -42q-26 0 -45.5 17t-34 33.5t-29.5 16.5zM78 508h128v-508h-128v508z" />
    <glyph glyph-name="Imacron" unicode="&#x12a;" horiz-adv-x="295" 
d="M-16 779v86h326v-86h-326zM81 0v714h133v-714h-133z" />
    <glyph glyph-name="imacron" unicode="&#x12b;" horiz-adv-x="284" 
d="M10 594v86h267v-86h-267zM78 508h128v-508h-128v508z" />
    <glyph glyph-name="Ibreve" unicode="&#x12c;" horiz-adv-x="295" 
d="M148 761q-67 0 -106.5 43.5t-39.5 116.5h81q0 -38 17 -58.5t48 -20.5t47.5 20.5t16.5 58.5h81q0 -73 -39.5 -116.5t-105.5 -43.5zM81 0v714h133v-714h-133z" />
    <glyph glyph-name="ibreve" unicode="&#x12d;" horiz-adv-x="284" 
d="M143 576q-67 0 -106.5 43.5t-39.5 116.5h79q2 -81 67 -81q64 0 66 81h79q0 -73 -39.5 -116.5t-105.5 -43.5zM78 508h128v-508h-128v508z" />
    <glyph glyph-name="Iogonek" unicode="&#x12e;" horiz-adv-x="295" 
d="M213 -181q-26 -9 -61 -9q-40 0 -67 21.5t-27 60.5q0 47 56 108h-33v714h133v-714q-77 -34 -77 -86q0 -16 10.5 -25t27.5 -9q18 0 38 6v-67z" />
    <glyph glyph-name="iogonek" unicode="&#x12f;" horiz-adv-x="284" 
d="M74 594v125h136v-125h-136zM53 -108q0 48 55 108h-30v508h128v-508q-74 -34 -74 -86q0 -16 10.5 -25t27.5 -9q18 0 38 6v-67q-26 -9 -61 -9q-40 0 -67 21.5t-27 60.5z" />
    <glyph glyph-name="Idotaccent" unicode="&#x130;" horiz-adv-x="295" 
d="M79 775v125h136v-125h-136zM81 0v714h133v-714h-133z" />
    <glyph glyph-name="dotlessi" unicode="&#x131;" horiz-adv-x="284" 
d="M78 508h128v-508h-128v508z" />
    <glyph glyph-name="Jcircumflex" unicode="&#x134;" horiz-adv-x="605" 
d="M405 917h119l96 -154h-74l-81 80l-83 -80h-74zM401 253v461h132v-457q0 -124 -70.5 -196.5t-194.5 -72.5q-113 0 -183 62t-72 171h126q2 -66 37 -100.5t92 -34.5q133 0 133 167z" />
    <glyph glyph-name="jcircumflex" unicode="&#x135;" horiz-adv-x="284" 
d="M82 736h116l98 -160h-74l-81 87l-83 -87h-74zM45 -184q-34 0 -59 5v95q15 -3 31 -3q33 0 47 13.5t14 47.5v534h128v-536q0 -156 -161 -156z" />
    <glyph glyph-name="uni0136" unicode="&#x136;" horiz-adv-x="738" 
d="M564 0l-251 311l-99 -104v-207h-133v714h133v-359l330 359h152l-295 -310l323 -404h-160zM307 -132v83h129v-58q0 -125 -132 -125v47q54 0 54 53h-51z" />
    <glyph glyph-name="uni0137" unicode="&#x137;" horiz-adv-x="598" 
d="M432 0l-167 215l-59 -57v-158h-128v736h128v-446l216 218h147l-215 -212l225 -296h-147zM262 -132v83h129v-58q0 -125 -132 -125v47q54 0 54 53h-51z" />
    <glyph glyph-name="kgreenlandic" unicode="&#x138;" horiz-adv-x="598" 
d="M432 0l-167 215l-59 -57v-158h-128v508h128v-218l216 218h147l-215 -212l225 -296h-147z" />
    <glyph glyph-name="Lacute" unicode="&#x139;" horiz-adv-x="633" 
d="M188 764h-79l53 153h144zM81 0v714h133v-609h368v-105h-501z" />
    <glyph glyph-name="lacute" unicode="&#x13a;" horiz-adv-x="284" 
d="M183 774h-79l53 153h144zM206 0h-128v736h128v-736z" />
    <glyph glyph-name="uni013B" unicode="&#x13b;" horiz-adv-x="633" 
d="M81 0v714h133v-609h368v-105h-501zM271 -132v83h129v-58q0 -125 -132 -125v47q54 0 54 53h-51z" />
    <glyph glyph-name="uni013C" unicode="&#x13c;" horiz-adv-x="284" 
d="M206 0h-128v736h128v-736zM79 -132v83h129v-58q0 -125 -132 -125v47q54 0 54 53h-51z" />
    <glyph glyph-name="Lcaron" unicode="&#x13d;" horiz-adv-x="633" 
d="M81 0v714h133v-609h368v-105h-501zM402 511h-62l24 203h134z" />
    <glyph glyph-name="lcaron" unicode="&#x13e;" horiz-adv-x="299" 
d="M206 0h-128v736h128v-736zM343 533h-62l24 203h134z" />
    <glyph glyph-name="Ldot" unicode="&#x13f;" horiz-adv-x="633" 
d="M81 0v714h133v-609h368v-105h-501zM392 324v125h136v-125h-136z" />
    <glyph glyph-name="ldot" unicode="&#x140;" horiz-adv-x="482" 
d="M206 0h-128v736h128v-736zM311 288v125h136v-125h-136z" />
    <glyph glyph-name="Lslash" unicode="&#x141;" horiz-adv-x="628" 
d="M602 105v-105h-501v277l-73 -26v98l73 26v339h133v-296l162 58v-98l-162 -58v-215h368z" />
    <glyph glyph-name="lslash" unicode="&#x142;" horiz-adv-x="352" 
d="M332 425l-92 -43v-382h-128v328l-92 -43v93l92 44v314h128v-261l92 44v-94z" />
    <glyph glyph-name="Nacute" unicode="&#x143;" horiz-adv-x="781" 
d="M414 764h-79l53 153h144zM236 714l336 -506h2v506h126v-714h-123l-367 553h-2v-553h-127v714h155z" />
    <glyph glyph-name="nacute" unicode="&#x144;" horiz-adv-x="622" 
d="M349 577h-84l53 159h147zM204 508v-86q18 44 60.5 71t99.5 27q87 0 136.5 -51.5t49.5 -142.5v-326h-128v296q0 123 -102 123q-51 0 -82.5 -35t-31.5 -108v-276h-128v508h126z" />
    <glyph glyph-name="uni0145" unicode="&#x145;" horiz-adv-x="781" 
d="M236 714l336 -506h2v506h126v-714h-123l-367 553h-2v-553h-127v714h155zM326 -132v83h129v-58q0 -125 -132 -125v47q54 0 54 53h-51z" />
    <glyph glyph-name="uni0146" unicode="&#x146;" horiz-adv-x="622" 
d="M204 508v-86q18 44 60.5 71t99.5 27q87 0 136.5 -51.5t49.5 -142.5v-326h-128v296q0 123 -102 123q-51 0 -82.5 -35t-31.5 -108v-276h-128v508h126zM254 -132v83h129v-58q0 -125 -132 -125v47q54 0 54 53h-51z" />
    <glyph glyph-name="Ncaron" unicode="&#x147;" horiz-adv-x="781" 
d="M446 763h-119l-97 154h74l83 -80l81 80h74zM236 714l336 -506h2v506h126v-714h-123l-367 553h-2v-553h-127v714h155z" />
    <glyph glyph-name="ncaron" unicode="&#x148;" horiz-adv-x="622" 
d="M372 576h-116l-98 160h74l83 -87l81 87h74zM204 508v-86q18 44 60.5 71t99.5 27q87 0 136.5 -51.5t49.5 -142.5v-326h-128v296q0 123 -102 123q-51 0 -82.5 -35t-31.5 -108v-276h-128v508h126z" />
    <glyph glyph-name="Eng" unicode="&#x14a;" horiz-adv-x="781" 
d="M538 -184q-33 0 -58 5v95q15 -3 31 -3q33 0 48 13.5t15 47.5v36l-364 543h-2v-553h-127v714h155l336 -506h2v506h126v-742q0 -156 -162 -156z" />
    <glyph glyph-name="eng" unicode="&#x14b;" horiz-adv-x="622" 
d="M388 -184q-34 0 -59 5v95q17 -3 31 -3q33 0 47.5 13.5t14.5 47.5v322q0 123 -102 123q-51 0 -82.5 -35t-31.5 -108v-276h-128v508h126v-86q18 44 60.5 71t99.5 27q87 0 136.5 -51.5t49.5 -142.5v-354q0 -156 -162 -156z" />
    <glyph glyph-name="Omacron" unicode="&#x14c;" horiz-adv-x="765" 
d="M219 779v86h326v-86h-326zM724 357q0 -163 -92.5 -266t-248.5 -103t-248.5 103t-92.5 266t93 266t248 103t248 -103t93 -266zM589 357q0 122 -53 193t-153 71t-153 -71t-53 -193t53 -193t153 -71t153 71t53 193z" />
    <glyph glyph-name="omacron" unicode="&#x14d;" horiz-adv-x="600" 
d="M147 594v86h306v-86h-306zM557 254q0 -122 -71.5 -194t-185.5 -72t-185.5 72t-71.5 194q0 121 71.5 193.5t185.5 72.5t185.5 -72.5t71.5 -193.5zM171 254q0 -81 33.5 -126t95.5 -45q61 0 95 45t34 126q0 80 -34 125.5t-95 45.5q-62 0 -95.5 -45.5t-33.5 -125.5z" />
    <glyph glyph-name="Obreve" unicode="&#x14e;" horiz-adv-x="765" 
d="M383 761q-67 0 -106.5 43.5t-39.5 116.5h81q0 -38 17 -58.5t48 -20.5t47.5 20.5t16.5 58.5h81q0 -73 -39.5 -116.5t-105.5 -43.5zM724 357q0 -163 -92.5 -266t-248.5 -103t-248.5 103t-92.5 266t93 266t248 103t248 -103t93 -266zM589 357q0 122 -53 193t-153 71
t-153 -71t-53 -193t53 -193t153 -71t153 71t53 193z" />
    <glyph glyph-name="obreve" unicode="&#x14f;" horiz-adv-x="600" 
d="M301 576q-67 0 -106.5 43.5t-39.5 116.5h79q2 -81 67 -81q64 0 66 81h79q0 -73 -39.5 -116.5t-105.5 -43.5zM557 254q0 -122 -71.5 -194t-185.5 -72t-185.5 72t-71.5 194q0 121 71.5 193.5t185.5 72.5t185.5 -72.5t71.5 -193.5zM171 254q0 -81 33.5 -126t95.5 -45
q61 0 95 45t34 126q0 80 -34 125.5t-95 45.5q-62 0 -95.5 -45.5t-33.5 -125.5z" />
    <glyph glyph-name="Ohungarumlaut" unicode="&#x150;" horiz-adv-x="765" 
d="M427 764l54 153h131l-111 -153h-74zM249 764l54 153h130l-110 -153h-74zM724 357q0 -163 -92.5 -266t-248.5 -103t-248.5 103t-92.5 266t93 266t248 103t248 -103t93 -266zM589 357q0 122 -53 193t-153 71t-153 -71t-53 -193t53 -193t153 -71t153 71t53 193z" />
    <glyph glyph-name="ohungarumlaut" unicode="&#x151;" horiz-adv-x="600" 
d="M345 577l54 159h131l-111 -159h-74zM167 577l54 159h130l-110 -159h-74zM557 254q0 -122 -71.5 -194t-185.5 -72t-185.5 72t-71.5 194q0 121 71.5 193.5t185.5 72.5t185.5 -72.5t71.5 -193.5zM171 254q0 -81 33.5 -126t95.5 -45q61 0 95 45t34 126q0 80 -34 125.5
t-95 45.5q-62 0 -95.5 -45.5t-33.5 -125.5z" />
    <glyph glyph-name="OE" unicode="&#x152;" horiz-adv-x="1119" 
d="M398 0q-161 0 -258.5 98t-97.5 259t97.5 259t258.5 98h658v-105h-383v-199h339v-105h-339v-200h387v-105h-662zM398 105h145v504h-145q-106 0 -163.5 -66t-57.5 -186t57.5 -186t163.5 -66z" />
    <glyph glyph-name="oe" unicode="&#x153;" horiz-adv-x="960" 
d="M915 158q-17 -81 -79 -125.5t-150 -44.5q-122 0 -193 102q-74 -102 -193 -102q-114 0 -185.5 72t-71.5 194q0 121 71.5 193.5t185.5 72.5q120 0 193 -104q71 104 189 104q114 0 174.5 -73.5t60.5 -181.5v-38h-366q5 -70 40 -107.5t95 -37.5q84 0 110 76h119zM682 427
q-52 0 -86 -33.5t-43 -96.5h244q-2 57 -31.5 93.5t-83.5 36.5zM171 254q0 -81 33.5 -126t95.5 -45q60 0 94 45.5t34 125.5t-34 125.5t-94 45.5q-62 0 -95.5 -45.5t-33.5 -125.5z" />
    <glyph glyph-name="Racute" unicode="&#x154;" horiz-adv-x="709" 
d="M369 764h-79l53 153h144zM211 0h-130v714h306q126 0 195.5 -57.5t69.5 -166.5q0 -78 -43 -130t-109 -73l179 -287h-145l-163 267h-160v-267zM211 371h161q149 0 149 119t-149 119h-161v-238z" />
    <glyph glyph-name="racute" unicode="&#x155;" horiz-adv-x="418" 
d="M270 577h-84l53 159h147zM398 513v-118q-20 4 -49 4q-62 0 -102.5 -42.5t-40.5 -121.5v-235h-128v508h126v-114q18 59 59.5 91t96.5 32q23 0 38 -4z" />
    <glyph glyph-name="uni0156" unicode="&#x156;" horiz-adv-x="709" 
d="M211 0h-130v714h306q126 0 195.5 -57.5t69.5 -166.5q0 -78 -43 -130t-109 -73l179 -287h-145l-163 267h-160v-267zM211 371h161q149 0 149 119t-149 119h-161v-238zM295 -132v83h129v-58q0 -125 -132 -125v47q54 0 54 53h-51z" />
    <glyph glyph-name="uni0157" unicode="&#x157;" horiz-adv-x="418" 
d="M398 513v-118q-20 4 -49 4q-62 0 -102.5 -42.5t-40.5 -121.5v-235h-128v508h126v-114q18 59 59.5 91t96.5 32q23 0 38 -4zM79 -132v83h129v-58q0 -125 -132 -125v47q54 0 54 53h-51z" />
    <glyph glyph-name="Rcaron" unicode="&#x158;" horiz-adv-x="709" 
d="M401 763h-119l-97 154h74l83 -80l81 80h74zM211 0h-130v714h306q126 0 195.5 -57.5t69.5 -166.5q0 -78 -43 -130t-109 -73l179 -287h-145l-163 267h-160v-267zM211 371h161q149 0 149 119t-149 119h-161v-238z" />
    <glyph glyph-name="rcaron" unicode="&#x159;" horiz-adv-x="418" 
d="M298 576h-116l-98 160h74l83 -87l81 87h74zM398 513v-118q-20 4 -49 4q-62 0 -102.5 -42.5t-40.5 -121.5v-235h-128v508h126v-114q18 59 59.5 91t96.5 32q23 0 38 -4z" />
    <glyph glyph-name="Sacute" unicode="&#x15a;" horiz-adv-x="667" 
d="M371 764h-79l53 153h144zM34 216h128q6 -68 57 -99t125 -31q66 0 108.5 29t42.5 81q0 40 -26.5 62.5t-90.5 34.5l-131 24q-190 34 -190 194q0 95 75.5 155t192.5 60q128 0 202 -54t84 -154h-125q-7 52 -49.5 80.5t-110.5 28.5q-64 0 -102 -30t-38 -78q0 -42 26 -61.5
t88 -31.5l138 -27q187 -35 187 -195q0 -96 -78.5 -156t-198.5 -60q-134 0 -219.5 57.5t-94.5 170.5z" />
    <glyph glyph-name="sacute" unicode="&#x15b;" horiz-adv-x="535" 
d="M304 577h-84l53 159h147zM37 154h122q4 -38 36.5 -57.5t77.5 -19.5q42 0 69 16.5t27 46.5q0 24 -18 36.5t-60 20.5l-90 16q-146 26 -146 145q0 71 58.5 116.5t147.5 45.5q98 0 154 -41t64 -115h-117q-4 30 -31 48t-69 18q-40 0 -64.5 -16.5t-24.5 -42.5q0 -25 18.5 -37.5
t59.5 -19.5l99 -17q139 -23 139 -148q0 -72 -61 -116.5t-153 -44.5q-102 0 -166 42.5t-72 123.5z" />
    <glyph glyph-name="Scircumflex" unicode="&#x15c;" horiz-adv-x="667" 
d="M284 917h119l96 -154h-74l-81 80l-83 -80h-74zM34 216h128q6 -68 57 -99t125 -31q66 0 108.5 29t42.5 81q0 40 -26.5 62.5t-90.5 34.5l-131 24q-190 34 -190 194q0 95 75.5 155t192.5 60q128 0 202 -54t84 -154h-125q-7 52 -49.5 80.5t-110.5 28.5q-64 0 -102 -30
t-38 -78q0 -42 26 -61.5t88 -31.5l138 -27q187 -35 187 -195q0 -96 -78.5 -156t-198.5 -60q-134 0 -219.5 57.5t-94.5 170.5z" />
    <glyph glyph-name="scircumflex" unicode="&#x15d;" horiz-adv-x="535" 
d="M212 736h116l98 -160h-74l-81 87l-83 -87h-74zM37 154h122q4 -38 36.5 -57.5t77.5 -19.5q42 0 69 16.5t27 46.5q0 24 -18 36.5t-60 20.5l-90 16q-146 26 -146 145q0 71 58.5 116.5t147.5 45.5q98 0 154 -41t64 -115h-117q-4 30 -31 48t-69 18q-40 0 -64.5 -16.5
t-24.5 -42.5q0 -25 18.5 -37.5t59.5 -19.5l99 -17q139 -23 139 -148q0 -72 -61 -116.5t-153 -44.5q-102 0 -166 42.5t-72 123.5z" />
    <glyph glyph-name="uni015E" unicode="&#x15e;" horiz-adv-x="667" 
d="M450 -111q0 -43 -36.5 -66t-87.5 -23t-92 18v58q52 -21 90 -21q52 0 52 31q0 23 -29.5 29t-52.5 -4l-23 22l34 57q-116 9 -189 65.5t-82 160.5h128q6 -68 57 -99t125 -31q66 0 108.5 29t42.5 81q0 40 -26.5 62.5t-90.5 34.5l-131 24q-190 34 -190 194q0 95 75.5 155
t192.5 60q128 0 202 -54t84 -154h-125q-7 52 -49.5 80.5t-110.5 28.5q-64 0 -102 -30t-38 -78q0 -42 26 -61.5t88 -31.5l138 -27q187 -35 187 -195q0 -95 -75.5 -154.5t-192.5 -61.5l-17 -27q43 4 76.5 -14t33.5 -58z" />
    <glyph glyph-name="uni015F" unicode="&#x15f;" horiz-adv-x="535" 
d="M378 -111q0 -43 -36.5 -66t-87.5 -23t-92 18v58q52 -21 90 -21q52 0 52 31q0 23 -29.5 29t-52.5 -4l-23 22l35 57q-85 9 -137.5 50.5t-59.5 113.5h122q4 -38 36.5 -57.5t77.5 -19.5q42 0 69 16.5t27 46.5q0 24 -18 36.5t-60 20.5l-90 16q-146 26 -146 145
q0 71 58.5 116.5t147.5 45.5q98 0 154 -41t64 -115h-117q-4 30 -31 48t-69 18q-40 0 -64.5 -16.5t-24.5 -42.5q0 -25 18.5 -37.5t59.5 -19.5l99 -17q139 -23 139 -148q0 -69 -57.5 -113.5t-146.5 -47.5l-17 -27q43 4 76.5 -14t33.5 -58z" />
    <glyph glyph-name="Scaron" unicode="&#x160;" horiz-adv-x="667" 
d="M403 763h-119l-97 154h74l83 -80l81 80h74zM34 216h128q6 -68 57 -99t125 -31q66 0 108.5 29t42.5 81q0 40 -26.5 62.5t-90.5 34.5l-131 24q-190 34 -190 194q0 95 75.5 155t192.5 60q128 0 202 -54t84 -154h-125q-7 52 -49.5 80.5t-110.5 28.5q-64 0 -102 -30t-38 -78
q0 -42 26 -61.5t88 -31.5l138 -27q187 -35 187 -195q0 -96 -78.5 -156t-198.5 -60q-134 0 -219.5 57.5t-94.5 170.5z" />
    <glyph glyph-name="scaron" unicode="&#x161;" horiz-adv-x="535" 
d="M324 576h-116l-98 160h74l83 -87l81 87h74zM37 154h122q4 -38 36.5 -57.5t77.5 -19.5q42 0 69 16.5t27 46.5q0 24 -18 36.5t-60 20.5l-90 16q-146 26 -146 145q0 71 58.5 116.5t147.5 45.5q98 0 154 -41t64 -115h-117q-4 30 -31 48t-69 18q-40 0 -64.5 -16.5t-24.5 -42.5
q0 -25 18.5 -37.5t59.5 -19.5l99 -17q139 -23 139 -148q0 -72 -61 -116.5t-153 -44.5q-102 0 -166 42.5t-72 123.5z" />
    <glyph glyph-name="Tcommaaccent" unicode="&#x162;" horiz-adv-x="721" 
d="M459 -111q0 -43 -36.5 -66t-87.5 -23t-92 18v58q53 -21 90 -21q52 0 52 31q0 23 -29.5 29t-52.5 -4l-23 22l41 67h-27v609h-256v105h645v-105h-257v-609h-53l-24 -39q43 4 76.5 -14t33.5 -58z" />
    <glyph glyph-name="tcommaaccent" unicode="&#x163;" horiz-adv-x="389" 
d="M313 -111q0 -43 -36.5 -66t-87.5 -23t-92 18v58q53 -21 90 -21q52 0 52 31q0 23 -29.5 29t-52.5 -4l-23 22l41 68q-87 27 -87 138v277h-70v92h70v127h127v-127h121v-92h-122v-257q0 -35 16 -49.5t50 -14.5q32 0 67 10v-98q-50 -15 -101 -15q-16 0 -23 1l-20 -32
q43 4 76.5 -14t33.5 -58z" />
    <glyph glyph-name="Tcaron" unicode="&#x164;" horiz-adv-x="721" 
d="M420 763h-119l-97 154h74l83 -80l81 80h74zM294 0v609h-256v105h645v-105h-257v-609h-132z" />
    <glyph glyph-name="tcaron" unicode="&#x165;" horiz-adv-x="389" 
d="M322 563h-62l24 203h134zM347 105v-98q-50 -15 -101 -15q-80 0 -119 35.5t-39 111.5v277h-70v92h70v127h127v-127h121v-92h-122v-257q0 -35 16 -49.5t50 -14.5q32 0 67 10z" />
    <glyph glyph-name="Tbar" unicode="&#x166;" horiz-adv-x="721" 
d="M539 312h-113v-312h-132v312h-113v101h113v196h-256v105h645v-105h-257v-196h113v-101z" />
    <glyph glyph-name="tbar" unicode="&#x167;" horiz-adv-x="421" 
d="M367 7q-50 -15 -101 -15q-80 0 -119 35.5t-39 111.5v108h-71v84h71v91h-71v86h71v127h127v-127h121v-86h-122v-91h120v-84h-120v-88q0 -35 16 -49.5t50 -14.5q32 0 67 10v-98z" />
    <glyph glyph-name="Utilde" unicode="&#x168;" horiz-adv-x="754" 
d="M313 832q-38 0 -41 -64h-71q0 70 25.5 112.5t71.5 42.5q33 0 80 -32.5t63 -32.5q38 0 41 64h71q0 -71 -25.5 -113t-71.5 -42q-33 0 -80 32.5t-63 32.5zM682 288q0 -145 -79.5 -222.5t-225.5 -77.5q-145 0 -225 78t-80 224v424h133v-425q0 -95 43.5 -145t128.5 -50t129 50
t44 145v425h132v-426z" />
    <glyph glyph-name="utilde" unicode="&#x169;" horiz-adv-x="616" 
d="M243 641q-38 0 -41 -66h-71q0 70 25.5 112.5t71.5 42.5q33 0 80 -33.5t63 -33.5q38 0 41 66h71q0 -71 -25.5 -113t-71.5 -42q-33 0 -80 33.5t-63 33.5zM538 0h-126v85q-18 -44 -60 -70.5t-98 -26.5q-86 0 -133.5 50.5t-47.5 142.5v327h129v-299q0 -122 98 -122
q49 0 79 36t30 109v276h129v-508z" />
    <glyph glyph-name="Umacron" unicode="&#x16a;" horiz-adv-x="754" 
d="M214 779v86h326v-86h-326zM682 288q0 -145 -79.5 -222.5t-225.5 -77.5q-145 0 -225 78t-80 224v424h133v-425q0 -95 43.5 -145t128.5 -50t129 50t44 145v425h132v-426z" />
    <glyph glyph-name="umacron" unicode="&#x16b;" horiz-adv-x="616" 
d="M156 594v86h306v-86h-306zM538 0h-126v85q-18 -44 -60 -70.5t-98 -26.5q-86 0 -133.5 50.5t-47.5 142.5v327h129v-299q0 -122 98 -122q49 0 79 36t30 109v276h129v-508z" />
    <glyph glyph-name="Ubreve" unicode="&#x16c;" horiz-adv-x="754" 
d="M378 761q-67 0 -106.5 43.5t-39.5 116.5h81q0 -38 17 -58.5t48 -20.5t47.5 20.5t16.5 58.5h81q0 -73 -39.5 -116.5t-105.5 -43.5zM682 288q0 -145 -79.5 -222.5t-225.5 -77.5q-145 0 -225 78t-80 224v424h133v-425q0 -95 43.5 -145t128.5 -50t129 50t44 145v425h132v-426
z" />
    <glyph glyph-name="ubreve" unicode="&#x16d;" horiz-adv-x="616" 
d="M310 576q-67 0 -106.5 43.5t-39.5 116.5h79q2 -81 67 -81q64 0 66 81h79q0 -73 -39.5 -116.5t-105.5 -43.5zM538 0h-126v85q-18 -44 -60 -70.5t-98 -26.5q-86 0 -133.5 50.5t-47.5 142.5v327h129v-299q0 -122 98 -122q49 0 79 36t30 109v276h129v-508z" />
    <glyph glyph-name="Uring" unicode="&#x16e;" horiz-adv-x="754" 
d="M378 719q-53 0 -91 38t-38 91t38 91t91 38t90.5 -38t37.5 -91t-37.5 -91t-90.5 -38zM378 912q-27 0 -46 -19t-19 -45t19 -45.5t46 -19.5q26 0 45 19.5t19 45.5t-19 45t-45 19zM682 288q0 -145 -79.5 -222.5t-225.5 -77.5q-145 0 -225 78t-80 224v424h133v-425
q0 -95 43.5 -145t128.5 -50t129 50t44 145v425h132v-426z" />
    <glyph glyph-name="uring" unicode="&#x16f;" horiz-adv-x="616" 
d="M197 676q0 46 32.5 78.5t78.5 32.5t78 -32.5t32 -78.5q0 -45 -32 -77.5t-78 -32.5t-78.5 32.5t-32.5 77.5zM360 676q0 22 -15 37.5t-37 15.5t-37.5 -15.5t-15.5 -37.5q0 -21 15.5 -36.5t37.5 -15.5t37 15.5t15 36.5zM538 0h-126v85q-18 -44 -60 -70.5t-98 -26.5
q-86 0 -133.5 50.5t-47.5 142.5v327h129v-299q0 -122 98 -122q49 0 79 36t30 109v276h129v-508z" />
    <glyph glyph-name="Uhungarumlaut" unicode="&#x170;" horiz-adv-x="754" 
d="M414 764l54 153h131l-111 -153h-74zM236 764l54 153h130l-110 -153h-74zM682 288q0 -145 -79.5 -222.5t-225.5 -77.5q-145 0 -225 78t-80 224v424h133v-425q0 -95 43.5 -145t128.5 -50t129 50t44 145v425h132v-426z" />
    <glyph glyph-name="uhungarumlaut" unicode="&#x171;" horiz-adv-x="616" 
d="M343 577l54 159h131l-111 -159h-74zM165 577l54 159h130l-110 -159h-74zM538 0h-126v85q-18 -44 -60 -70.5t-98 -26.5q-86 0 -133.5 50.5t-47.5 142.5v327h129v-299q0 -122 98 -122q49 0 79 36t30 109v276h129v-508z" />
    <glyph glyph-name="Uogonek" unicode="&#x172;" horiz-adv-x="754" 
d="M549 -181q-27 -9 -61 -9q-40 0 -67.5 21.5t-27.5 60.5q0 47 44 100q-25 -4 -60 -4q-145 0 -225 78t-80 224v424h133v-425q0 -95 43.5 -145t128.5 -50t129 50t44 145v425h132v-426q0 -202 -150 -270q-59 -47 -59 -104q0 -34 36 -34q20 0 40 6v-67z" />
    <glyph glyph-name="uogonek" unicode="&#x173;" horiz-adv-x="616" 
d="M508 -181q-27 -9 -61 -9q-40 0 -67.5 21.5t-27.5 60.5q0 47 60 117v76q-18 -44 -60 -70.5t-98 -26.5q-86 0 -133.5 50.5t-47.5 142.5v327h129v-299q0 -122 98 -122q49 0 79 36t30 109v276h129v-508h-59q-29 -37 -38.5 -54t-9.5 -33q0 -33 37 -33q20 0 40 6v-67z" />
    <glyph glyph-name="Wcircumflex" unicode="&#x174;" horiz-adv-x="1001" 
d="M442 917h119l96 -154h-74l-81 80l-83 -80h-74zM641 0l-140 551h-2l-140 -551h-145l-197 714h136l143 -554h2l139 554h134l139 -554h2l142 554h130l-197 -714h-146z" />
    <glyph glyph-name="wcircumflex" unicode="&#x175;" horiz-adv-x="813" 
d="M349 736h116l98 -160h-74l-81 87l-83 -87h-74zM468 508l97 -377h2l103 377h123l-155 -508h-130l-100 367h-3l-99 -367h-131l-155 508h127l103 -377h2l97 377h119z" />
    <glyph glyph-name="Ycircumflex" unicode="&#x176;" horiz-adv-x="706" 
d="M294 917h119l96 -154h-74l-81 80l-83 -80h-74zM419 0h-133v293l-276 421h148l198 -305h2l193 305h145l-277 -421v-293z" />
    <glyph glyph-name="ycircumflex" unicode="&#x177;" horiz-adv-x="574" 
d="M239 736h116l98 -160h-74l-81 87l-83 -87h-74zM218 1l-198 507h130l141 -383h2l134 383h127l-198 -517q-36 -95 -85 -135.5t-129 -41.5q-29 0 -59 5v97q15 -3 34 -3q39 0 60 18t41 70z" />
    <glyph glyph-name="Ydieresis" unicode="&#x178;" horiz-adv-x="706" 
d="M394 775v125h118v-125h-118zM194 775v125h118v-125h-118zM419 0h-133v293l-276 421h148l198 -305h2l193 305h145l-277 -421v-293z" />
    <glyph glyph-name="Zacute" unicode="&#x179;" horiz-adv-x="678" 
d="M366 764h-79l53 153h144zM624 614l-413 -509h419v-105h-583v93l415 516h-402v105h564v-100z" />
    <glyph glyph-name="zacute" unicode="&#x17a;" horiz-adv-x="534" 
d="M301 577h-84l53 159h147zM477 419l-274 -325h284v-94h-440v83l274 331h-265v94h421v-89z" />
    <glyph glyph-name="Zdotaccent" unicode="&#x17b;" horiz-adv-x="678" 
d="M270 775v125h136v-125h-136zM624 614l-413 -509h419v-105h-583v93l415 516h-402v105h564v-100z" />
    <glyph glyph-name="zdotaccent" unicode="&#x17c;" horiz-adv-x="534" 
d="M202 594v125h136v-125h-136zM477 419l-274 -325h284v-94h-440v83l274 331h-265v94h421v-89z" />
    <glyph glyph-name="Zcaron" unicode="&#x17d;" horiz-adv-x="678" 
d="M403 763h-119l-97 154h74l83 -80l81 80h74zM624 614l-413 -509h419v-105h-583v93l415 516h-402v105h564v-100z" />
    <glyph glyph-name="zcaron" unicode="&#x17e;" horiz-adv-x="534" 
d="M328 576h-116l-98 160h74l83 -87l81 87h74zM477 419l-274 -325h284v-94h-440v83l274 331h-265v94h421v-89z" />
    <glyph glyph-name="uni0192" unicode="&#x192;" horiz-adv-x="510" 
d="M403 307h-123l-73 -417h-124l75 417h-81v97h98l30 168q15 86 66.5 131t128.5 45q38 0 73 -13v-115q-27 11 -59 11q-76 0 -93 -94l-23 -133h105v-97z" />
    <glyph glyph-name="AEacute" unicode="&#x1fc;" horiz-adv-x="1118" 
d="M788 764h-79l53 153h144zM542 0v180h-283l-115 -180h-134l454 714h591v-105h-383v-199h339v-105h-339v-200h387v-105h-517zM542 625l-217 -341h217v341z" />
    <glyph glyph-name="aeacute" unicode="&#x1fd;" horiz-adv-x="900" 
d="M482 577h-84l53 159h147zM854 158q-16 -80 -78 -125t-151 -45q-126 0 -199 92q-71 -91 -196 -91q-84 0 -136.5 40t-52.5 111q0 78 61.5 117t174.5 39h99v37q0 46 -25.5 69.5t-70.5 23.5q-41 0 -66 -21.5t-28 -57.5h-123q8 82 66.5 127.5t150.5 45.5q115 0 169 -70
q70 70 172 70q114 0 175 -73.5t61 -182.5v-38h-366q5 -69 39.5 -106.5t94.5 -37.5q83 0 111 76h118zM621 427q-52 0 -85.5 -33.5t-42.5 -97.5h244q-2 58 -31.5 94.5t-84.5 36.5zM251 78q54 0 89.5 30.5t35.5 87.5v30h-103q-106 0 -106 -76q0 -32 22.5 -52t61.5 -20z" />
    <glyph glyph-name="Oslashacute" unicode="&#x1fe;" horiz-adv-x="765" 
d="M419 764h-79l53 153h144zM383 -12q-116 0 -198 59l-62 -77l-60 46l66 82q-87 101 -87 259q0 163 93 266t248 103q118 0 202 -61l58 72l59 -46l-62 -78q84 -101 84 -256q0 -163 -92.5 -266t-248.5 -103zM177 357q0 -94 32 -160l304 378q-51 46 -130 46q-100 0 -153 -71
t-53 -193zM589 357q0 92 -30 155l-303 -376q51 -43 127 -43q100 0 153 71t53 193z" />
    <glyph glyph-name="oslashacute" unicode="&#x1ff;" horiz-adv-x="600" 
d="M337 577h-84l53 159h147zM300 -12q-86 0 -148 41l-54 -63l-49 45l54 62q-60 71 -60 181q0 121 71.5 193.5t185.5 72.5q88 0 152 -44l50 58l49 -45l-50 -58q56 -72 56 -177q0 -122 -71.5 -194t-185.5 -72zM166 254q0 -54 15 -91l203 235q-34 31 -84 31q-64 0 -99 -47
t-35 -128zM434 254q0 50 -13 85l-202 -233q35 -27 81 -27q63 0 98.5 46.5t35.5 128.5z" />
    <glyph glyph-name="uni0218" unicode="&#x218;" horiz-adv-x="667" 
d="M34 216h128q6 -68 57 -99t125 -31q66 0 108.5 29t42.5 81q0 40 -26.5 62.5t-90.5 34.5l-131 24q-190 34 -190 194q0 95 75.5 155t192.5 60q128 0 202 -54t84 -154h-125q-7 52 -49.5 80.5t-110.5 28.5q-64 0 -102 -30t-38 -78q0 -42 26 -61.5t88 -31.5l138 -27
q187 -35 187 -195q0 -96 -78.5 -156t-198.5 -60q-134 0 -219.5 57.5t-94.5 170.5zM275 -132v83h129v-58q0 -125 -132 -125v47q54 0 54 53h-51z" />
    <glyph glyph-name="uni0219" unicode="&#x219;" horiz-adv-x="535" 
d="M37 154h122q4 -38 36.5 -57.5t77.5 -19.5q42 0 69 16.5t27 46.5q0 24 -18 36.5t-60 20.5l-90 16q-146 26 -146 145q0 71 58.5 116.5t147.5 45.5q98 0 154 -41t64 -115h-117q-4 30 -31 48t-69 18q-40 0 -64.5 -16.5t-24.5 -42.5q0 -25 18.5 -37.5t59.5 -19.5l99 -17
q139 -23 139 -148q0 -72 -61 -116.5t-153 -44.5q-102 0 -166 42.5t-72 123.5zM215 -132v83h129v-58q0 -125 -132 -125v47q54 0 54 53h-51z" />
    <glyph glyph-name="uni021A" unicode="&#x21a;" horiz-adv-x="721" 
d="M294 0v609h-256v105h645v-105h-257v-609h-132zM299 -132v83h129v-58q0 -125 -132 -125v47q54 0 54 53h-51z" />
    <glyph glyph-name="uni021B" unicode="&#x21b;" horiz-adv-x="389" 
d="M347 105v-98q-50 -15 -101 -15q-80 0 -119 35.5t-39 111.5v277h-70v92h70v127h127v-127h121v-92h-122v-257q0 -35 16 -49.5t50 -14.5q32 0 67 10zM153 -132v83h129v-58q0 -125 -132 -125v47q54 0 54 53h-51z" />
    <glyph glyph-name="uni0237" unicode="&#x237;" horiz-adv-x="284" 
d="M45 -184q-34 0 -59 5v95q15 -3 31 -3q33 0 47 13.5t14 47.5v534h128v-536q0 -156 -161 -156z" />
    <glyph glyph-name="circumflex" unicode="&#x2c6;" horiz-adv-x="564" 
d="M224 736h116l98 -160h-74l-81 87l-83 -87h-74z" />
    <glyph glyph-name="caron" unicode="&#x2c7;" horiz-adv-x="564" 
d="M340 576h-116l-98 160h74l83 -87l81 87h74z" />
    <glyph glyph-name="breve" unicode="&#x2d8;" horiz-adv-x="564" 
d="M278 576q-67 0 -106.5 43.5t-39.5 116.5h79q2 -81 67 -81q64 0 66 81h79q0 -73 -39.5 -116.5t-105.5 -43.5z" />
    <glyph glyph-name="dotaccent" unicode="&#x2d9;" horiz-adv-x="564" 
d="M214 594v125h136v-125h-136z" />
    <glyph glyph-name="ring" unicode="&#x2da;" horiz-adv-x="564" 
d="M172 676q0 46 32.5 78.5t78.5 32.5t78 -32.5t32 -78.5q0 -45 -32 -77.5t-78 -32.5t-78.5 32.5t-32.5 77.5zM335 676q0 22 -15 37.5t-37 15.5t-37.5 -15.5t-15.5 -37.5q0 -21 15.5 -36.5t37.5 -15.5t37 15.5t15 36.5z" />
    <glyph glyph-name="ogonek" unicode="&#x2db;" horiz-adv-x="564" 
d="M221 -108q0 30 17 58t52 70h73q-39 -51 -51 -70t-12 -37q0 -33 37 -33q20 0 40 6v-67q-27 -9 -61 -9q-40 0 -67.5 21.5t-27.5 60.5z" />
    <glyph glyph-name="tilde" unicode="&#x2dc;" horiz-adv-x="564" 
d="M223 641q-38 0 -41 -66h-71q0 70 25.5 112.5t71.5 42.5q33 0 80 -33.5t63 -33.5q38 0 41 66h71q0 -71 -25.5 -113t-71.5 -42q-33 0 -80 33.5t-63 33.5z" />
    <glyph glyph-name="hungarumlaut" unicode="&#x2dd;" horiz-adv-x="564" 
d="M278 577l54 159h131l-111 -159h-74zM100 577l54 159h130l-110 -159h-74z" />
    <glyph glyph-name="Wgrave" unicode="&#x1e80;" horiz-adv-x="1001" 
d="M549 764h-79l-118 153h144zM641 0l-140 551h-2l-140 -551h-145l-197 714h136l143 -554h2l139 554h134l139 -554h2l142 554h130l-197 -714h-146z" />
    <glyph glyph-name="wgrave" unicode="&#x1e81;" horiz-adv-x="813" 
d="M457 577h-84l-116 159h147zM468 508l97 -377h2l103 377h123l-155 -508h-130l-100 367h-3l-99 -367h-131l-155 508h127l103 -377h2l97 377h119z" />
    <glyph glyph-name="Wacute" unicode="&#x1e82;" horiz-adv-x="1001" 
d="M548 764h-79l53 153h144zM641 0l-140 551h-2l-140 -551h-145l-197 714h136l143 -554h2l139 554h134l139 -554h2l142 554h130l-197 -714h-146z" />
    <glyph glyph-name="wacute" unicode="&#x1e83;" horiz-adv-x="813" 
d="M445 577h-84l53 159h147zM468 508l97 -377h2l103 377h123l-155 -508h-130l-100 367h-3l-99 -367h-131l-155 508h127l103 -377h2l97 377h119z" />
    <glyph glyph-name="Wdieresis" unicode="&#x1e84;" horiz-adv-x="1001" 
d="M542 775v125h118v-125h-118zM342 775v125h118v-125h-118zM641 0l-140 551h-2l-140 -551h-145l-197 714h136l143 -554h2l139 554h134l139 -554h2l142 554h130l-197 -714h-146z" />
    <glyph glyph-name="wdieresis" unicode="&#x1e85;" horiz-adv-x="813" 
d="M448 594v125h118v-125h-118zM248 594v125h118v-125h-118zM468 508l97 -377h2l103 377h123l-155 -508h-130l-100 367h-3l-99 -367h-131l-155 508h127l103 -377h2l97 377h119z" />
    <glyph glyph-name="Ygrave" unicode="&#x1ef2;" horiz-adv-x="706" 
d="M404 764h-79l-118 153h144zM419 0h-133v293l-276 421h148l198 -305h2l193 305h145l-277 -421v-293z" />
    <glyph glyph-name="ygrave" unicode="&#x1ef3;" horiz-adv-x="574" 
d="M344 577h-84l-116 159h147zM218 1l-198 507h130l141 -383h2l134 383h127l-198 -517q-36 -95 -85 -135.5t-129 -41.5q-29 0 -59 5v97q15 -3 34 -3q39 0 60 18t41 70z" />
    <glyph glyph-name="endash" unicode="&#x2013;" horiz-adv-x="677" 
d="M87 236v95h503v-95h-503z" />
    <glyph glyph-name="emdash" unicode="&#x2014;" horiz-adv-x="1003" 
d="M87 236v95h829v-95h-829z" />
    <glyph glyph-name="quoteleft" unicode="&#x2018;" horiz-adv-x="329" 
d="M238 574v-131h-149v142q0 74 45.5 115.5t124.5 41.5v-69q-44 0 -67.5 -19.5t-23.5 -67.5v-12h70z" />
    <glyph glyph-name="quoteright" unicode="&#x2019;" horiz-adv-x="329" 
d="M91 605v131h149v-142q0 -74 -45.5 -115.5t-124.5 -41.5v69q44 0 67.5 19.5t23.5 67.5v12h-70z" />
    <glyph glyph-name="quotesinglbase" unicode="&#x201a;" horiz-adv-x="329" 
d="M91 24v131h149v-142q0 -74 -45.5 -115.5t-124.5 -41.5v69q44 0 67.5 19.5t23.5 67.5v12h-70z" />
    <glyph glyph-name="quotedblleft" unicode="&#x201c;" horiz-adv-x="564" 
d="M474 574v-131h-149v142q0 74 45.5 115.5t124.5 41.5v-69q-44 0 -67.5 -19.5t-23.5 -67.5v-12h70zM238 574v-131h-149v142q0 74 45.5 115.5t124.5 41.5v-69q-44 0 -67.5 -19.5t-23.5 -67.5v-12h70z" />
    <glyph glyph-name="quotedblright" unicode="&#x201d;" horiz-adv-x="564" 
d="M91 605v131h149v-142q0 -74 -45.5 -115.5t-124.5 -41.5v69q44 0 67.5 19.5t23.5 67.5v12h-70zM326 605v131h149v-142q0 -74 -45.5 -115.5t-124.5 -41.5v69q44 0 67.5 19.5t23.5 67.5v12h-70z" />
    <glyph glyph-name="quotedblbase" unicode="&#x201e;" horiz-adv-x="564" 
d="M91 24v131h149v-142q0 -74 -45.5 -115.5t-124.5 -41.5v69q44 0 67.5 19.5t23.5 67.5v12h-70zM326 24v131h149v-142q0 -74 -45.5 -115.5t-124.5 -41.5v69q44 0 67.5 19.5t23.5 67.5v12h-70z" />
    <glyph glyph-name="dagger" unicode="&#x2020;" horiz-adv-x="387" 
d="M352 542h-120v-231h-77v231h-119v74h119v110h77v-110h120v-74z" />
    <glyph glyph-name="daggerdbl" unicode="&#x2021;" horiz-adv-x="387" 
d="M352 406h-120v-95h-77v95h-119v71h119v83h-119v72h119v94h77v-94h120v-72h-120v-83h120v-71z" />
    <glyph glyph-name="bullet" unicode="&#x2022;" horiz-adv-x="482" 
d="M87 304q0 62 45.5 107t109.5 45t108.5 -45t44.5 -107q0 -64 -44.5 -109t-108.5 -45t-109.5 45t-45.5 109z" />
    <glyph glyph-name="ellipsis" unicode="&#x2026;" horiz-adv-x="802" 
d="M564 0v149h149v-149h-149zM327 0v149h149v-149h-149zM89 0v149h149v-149h-149z" />
    <glyph glyph-name="guilsinglleft" unicode="&#x2039;" horiz-adv-x="338" 
d="M283 44h-90l-138 204l138 204h90l-108 -204z" />
    <glyph glyph-name="guilsinglright" unicode="&#x203a;" horiz-adv-x="338" 
d="M145 42h-90l108 204l-108 204h90l138 -204z" />
    <glyph glyph-name="fraction" unicode="&#x2044;" horiz-adv-x="184" 
d="M-123 -12h-86l516 739h85z" />
    <glyph glyph-name="uni2070" unicode="&#x2070;" horiz-adv-x="428" 
d="M214 316q-78 0 -126 57t-48 146q0 90 47.5 147t126.5 57t126.5 -57t47.5 -147q0 -89 -47.5 -146t-126.5 -57zM214 385q83 0 83 134q0 135 -83 135q-82 0 -82 -135q0 -64 21 -99t61 -35z" />
    <glyph glyph-name="uni2074" unicode="&#x2074;" horiz-adv-x="418" 
d="M310 714v-243h77v-62h-77v-86h-83v86h-195v63l184 242h94zM227 632l-119 -161h119v161z" />
    <glyph glyph-name="uni2075" unicode="&#x2075;" horiz-adv-x="385" 
d="M194 522q-41 0 -60 -31h-82l22 223h248v-70h-184l-9 -89q28 30 83 30q60 0 97 -36.5t37 -96.5q0 -59 -41 -98t-110 -39q-71 0 -113 35t-47 93h92q2 -27 20 -44.5t47 -17.5q31 0 48 20t17 51q0 30 -16.5 50t-48.5 20z" />
    <glyph glyph-name="uni2076" unicode="&#x2076;" horiz-adv-x="392" 
d="M206 655q-38 0 -60.5 -34.5t-22.5 -86.5q30 50 93 50q60 0 98.5 -37t38.5 -94q0 -59 -41.5 -98t-108.5 -39q-73 0 -118 53t-45 143q0 95 47 153t121 58q57 0 95 -31.5t46 -82.5h-82q-11 46 -61 46zM203 381q30 0 49 20t19 50q0 31 -19 51t-49 20q-31 0 -50.5 -20
t-19.5 -51q0 -30 19.5 -50t50.5 -20z" />
    <glyph glyph-name="uni2077" unicode="&#x2077;" horiz-adv-x="361" 
d="M238 645h-205v69h293v-70q-65 -79 -90.5 -152.5t-26.5 -168.5h-93q1 167 122 322z" />
    <glyph glyph-name="uni2078" unicode="&#x2078;" horiz-adv-x="397" 
d="M198 316q-72 0 -115.5 31t-43.5 84q0 33 23 59.5t52 32.5q-59 27 -59 87q0 52 40.5 82.5t102.5 30.5q63 0 103 -30.5t40 -82.5q0 -60 -57 -87q29 -6 51.5 -32.5t22.5 -59.5q0 -53 -43.5 -84t-116.5 -31zM198 660q-28 0 -45.5 -14t-17.5 -39t17.5 -39t45.5 -14
q29 0 46.5 14t17.5 39t-17.5 39t-46.5 14zM198 492q-35 0 -54.5 -15t-19.5 -41t19.5 -41t54.5 -15q36 0 56 15t20 41t-20 41t-56 15z" />
    <glyph glyph-name="uni2079" unicode="&#x2079;" horiz-adv-x="392" 
d="M187 384q38 0 61 34.5t23 86.5q-33 -51 -95 -51q-59 0 -97.5 38t-38.5 95q0 59 41.5 97.5t108.5 38.5q72 0 117.5 -53t45.5 -143q0 -94 -47 -152.5t-122 -58.5q-57 0 -94.5 31t-45.5 82h82q12 -45 61 -45zM190 657q-30 0 -49 -19.5t-19 -49.5q0 -32 18.5 -51.5
t49.5 -19.5t50.5 19.5t19.5 51.5q0 30 -19.5 49.5t-50.5 19.5z" />
    <glyph glyph-name="uni2080" unicode="&#x2080;" horiz-adv-x="428" 
d="M214 -147q-78 0 -126 57t-48 146q0 90 47.5 147t126.5 57t126.5 -57t47.5 -147q0 -89 -47.5 -146t-126.5 -57zM214 -78q83 0 83 134q0 135 -83 135q-82 0 -82 -135q0 -64 21 -99t61 -35z" />
    <glyph glyph-name="uni2081" unicode="&#x2081;" horiz-adv-x="346" 
d="M318 -78v-62h-277v62h97v214h-96v58q65 0 87.5 12.5t30.5 45.5h63v-330h95z" />
    <glyph glyph-name="uni2082" unicode="&#x2082;" horiz-adv-x="371" 
d="M333 138q0 -26 -8.5 -46t-27.5 -37t-36 -28t-49 -28q-77 -41 -80 -71h205v-68h-301v32q0 52 34.5 89t90.5 70q49 29 68 46t19 42q0 23 -15 37.5t-43 14.5q-29 0 -46.5 -19.5t-18.5 -47.5h-86q4 59 44 97t108 38q63 0 102.5 -34t39.5 -87z" />
    <glyph glyph-name="uni2083" unicode="&#x2083;" horiz-adv-x="379" 
d="M342 -34q0 -48 -40.5 -80.5t-110.5 -32.5q-69 0 -111.5 34.5t-47.5 90.5h85q2 -27 22.5 -42.5t51.5 -15.5t49 14.5t18 38.5q0 50 -67 50h-39v65h37q61 0 61 51q0 23 -16 38t-42 15q-28 0 -46 -17t-20 -43h-82q3 54 42.5 90.5t106.5 36.5q66 0 102.5 -33.5t36.5 -82.5
q0 -33 -19.5 -57t-49.5 -30q36 -6 57.5 -30.5t21.5 -59.5z" />
    <glyph glyph-name="uni2084" unicode="&#x2084;" horiz-adv-x="418" 
d="M310 251v-243h77v-62h-77v-86h-83v86h-195v63l184 242h94zM227 169l-119 -161h119v161z" />
    <glyph glyph-name="uni2085" unicode="&#x2085;" horiz-adv-x="385" 
d="M194 60q-41 0 -60 -31h-82l22 223h248v-70h-184l-9 -89q28 30 83 30q60 0 97 -36.5t37 -96.5q0 -59 -41 -98t-110 -39q-71 0 -113 35t-47 93h92q2 -27 20 -44.5t47 -17.5q31 0 48 20t17 51q0 30 -16.5 50t-48.5 20z" />
    <glyph glyph-name="uni2086" unicode="&#x2086;" horiz-adv-x="392" 
d="M206 192q-38 0 -60.5 -34.5t-22.5 -86.5q30 50 93 50q60 0 98.5 -37t38.5 -94q0 -59 -41.5 -98t-108.5 -39q-73 0 -118 53t-45 143q0 95 47 153t121 58q57 0 95 -31.5t46 -82.5h-82q-11 46 -61 46zM203 -82q30 0 49 20t19 50q0 31 -19 51t-49 20q-31 0 -50.5 -20
t-19.5 -51q0 -30 19.5 -50t50.5 -20z" />
    <glyph glyph-name="uni2087" unicode="&#x2087;" horiz-adv-x="361" 
d="M238 182h-205v69h293v-70q-65 -79 -90.5 -152.5t-26.5 -168.5h-93q1 167 122 322z" />
    <glyph glyph-name="uni2088" unicode="&#x2088;" horiz-adv-x="397" 
d="M198 -147q-72 0 -115.5 31t-43.5 84q0 33 23 59.5t52 32.5q-59 27 -59 87q0 52 40.5 82.5t102.5 30.5q63 0 103 -30.5t40 -82.5q0 -60 -57 -87q29 -6 51.5 -32.5t22.5 -59.5q0 -53 -43.5 -84t-116.5 -31zM198 197q-28 0 -45.5 -14t-17.5 -39t17.5 -39t45.5 -14
q29 0 46.5 14t17.5 39t-17.5 39t-46.5 14zM198 29q-35 0 -54.5 -15t-19.5 -41t19.5 -41t54.5 -15q36 0 56 15t20 41t-20 41t-56 15z" />
    <glyph glyph-name="uni2089" unicode="&#x2089;" horiz-adv-x="392" 
d="M187 -79q38 0 61 34.5t23 86.5q-33 -51 -95 -51q-59 0 -97.5 38t-38.5 95q0 59 41.5 97.5t108.5 38.5q72 0 117.5 -53t45.5 -143q0 -94 -47 -152.5t-122 -58.5q-57 0 -94.5 31t-45.5 82h82q12 -45 61 -45zM190 194q-30 0 -49 -19.5t-19 -49.5q0 -32 18.5 -51.5
t49.5 -19.5t50.5 19.5t19.5 51.5q0 30 -19.5 49.5t-50.5 19.5z" />
    <glyph glyph-name="Euro" unicode="&#x20ac;" horiz-adv-x="714" 
d="M675 224q-18 -109 -85 -172.5t-179 -63.5q-111 0 -188.5 69.5t-103.5 188.5h-77v77h66q-1 11 -1 35q0 23 1 34h-66v77h76q26 119 104 188t189 69q112 0 179 -63.5t85 -172.5h-120q-23 131 -143 131q-63 0 -106 -39.5t-61 -112.5h204l-11 -77h-204q-1 -11 -1 -34
q0 -24 1 -35h191l-11 -77h-169q18 -73 61 -113t106 -40q120 0 143 131h120z" />
    <glyph glyph-name="trademark" unicode="&#x2122;" horiz-adv-x="885" 
d="M236 390h-82v253h-109v71h302v-71h-111v-253zM613 390h-59l-72 244h-2v-244h-75v324h122l59 -221h3l64 221h113v-324h-80v244h-2z" />
    <glyph glyph-name="uni2153" unicode="&#x2153;" horiz-adv-x="919" 
d="M244 -12h-86l516 739h85zM334 385v-62h-277v62h97v214h-96v58q65 0 87.5 12.5t30.5 45.5h63v-330h95zM870 106q0 -48 -40.5 -80.5t-110.5 -32.5q-69 0 -111.5 34.5t-47.5 90.5h85q2 -27 22.5 -42.5t51.5 -15.5t49 14.5t18 38.5q0 50 -67 50h-39v65h37q61 0 61 51
q0 23 -16 38t-42 15q-28 0 -46 -17t-20 -43h-82q3 54 42.5 90.5t106.5 36.5q66 0 102.5 -33.5t36.5 -82.5q0 -33 -19.5 -57t-49.5 -30q36 -6 57.5 -30.5t21.5 -59.5z" />
    <glyph glyph-name="uni2154" unicode="&#x2154;" horiz-adv-x="943" 
d="M268 -12h-86l516 739h85zM349 601q0 -26 -8.5 -46t-27.5 -37t-36 -28t-49 -28q-77 -41 -80 -71h205v-68h-301v32q0 52 34.5 89t90.5 70q49 29 68 46t19 42q0 23 -15 37.5t-43 14.5q-29 0 -46.5 -19.5t-18.5 -47.5h-86q4 59 44 97t108 38q63 0 102.5 -34t39.5 -87z
M894 106q0 -48 -40.5 -80.5t-110.5 -32.5q-69 0 -111.5 34.5t-47.5 90.5h85q2 -27 22.5 -42.5t51.5 -15.5t49 14.5t18 38.5q0 50 -67 50h-39v65h37q61 0 61 51q0 23 -16 38t-42 15q-28 0 -46 -17t-20 -43h-82q3 54 42.5 90.5t106.5 36.5q66 0 102.5 -33.5t36.5 -82.5
q0 -33 -19.5 -57t-49.5 -30q36 -6 57.5 -30.5t21.5 -59.5z" />
    <glyph glyph-name="uni215B" unicode="&#x215b;" horiz-adv-x="935" 
d="M244 -12h-86l516 739h85zM334 385v-62h-277v62h97v214h-96v58q65 0 87.5 12.5t30.5 45.5h63v-330h95zM726 -7q-72 0 -115.5 31t-43.5 84q0 33 23 59.5t52 32.5q-59 27 -59 87q0 52 40.5 82.5t102.5 30.5q63 0 103 -30.5t40 -82.5q0 -60 -57 -87q29 -6 51.5 -32.5
t22.5 -59.5q0 -53 -43.5 -84t-116.5 -31zM726 337q-28 0 -45.5 -14t-17.5 -39t17.5 -39t45.5 -14q29 0 46.5 14t17.5 39t-17.5 39t-46.5 14zM726 169q-35 0 -54.5 -15t-19.5 -41t19.5 -41t54.5 -15q36 0 56 15t20 41t-20 41t-56 15z" />
    <glyph glyph-name="uni215C" unicode="&#x215c;" horiz-adv-x="950" 
d="M258 -12h-86l516 739h85zM358 429q0 -48 -40.5 -80.5t-110.5 -32.5q-69 0 -111.5 34.5t-47.5 90.5h85q2 -27 22.5 -42.5t51.5 -15.5t49 14.5t18 38.5q0 50 -67 50h-39v65h37q61 0 61 51q0 23 -16 38t-42 15q-28 0 -46 -17t-20 -43h-82q3 54 42.5 90.5t106.5 36.5
q66 0 102.5 -33.5t36.5 -82.5q0 -33 -19.5 -57t-49.5 -30q36 -6 57.5 -30.5t21.5 -59.5zM740 -7q-72 0 -115.5 31t-43.5 84q0 33 23 59.5t52 32.5q-59 27 -59 87q0 52 40.5 82.5t102.5 30.5q63 0 103 -30.5t40 -82.5q0 -60 -57 -87q29 -6 51.5 -32.5t22.5 -59.5
q0 -53 -43.5 -84t-116.5 -31zM740 337q-28 0 -45.5 -14t-17.5 -39t17.5 -39t45.5 -14q29 0 46.5 14t17.5 39t-17.5 39t-46.5 14zM740 169q-35 0 -54.5 -15t-19.5 -41t19.5 -41t54.5 -15q36 0 56 15t20 41t-20 41t-56 15z" />
    <glyph glyph-name="uni215D" unicode="&#x215d;" horiz-adv-x="940" 
d="M249 -12h-86l516 739h85zM210 522q-41 0 -60 -31h-82l22 223h248v-70h-184l-9 -89q28 30 83 30q60 0 97 -36.5t37 -96.5q0 -59 -41 -98t-110 -39q-71 0 -113 35t-47 93h92q2 -27 20 -44.5t47 -17.5q31 0 48 20t17 51q0 30 -16.5 50t-48.5 20zM731 -7q-72 0 -115.5 31
t-43.5 84q0 33 23 59.5t52 32.5q-59 27 -59 87q0 52 40.5 82.5t102.5 30.5q63 0 103 -30.5t40 -82.5q0 -60 -57 -87q29 -6 51.5 -32.5t22.5 -59.5q0 -53 -43.5 -84t-116.5 -31zM731 337q-28 0 -45.5 -14t-17.5 -39t17.5 -39t45.5 -14q29 0 46.5 14t17.5 39t-17.5 39
t-46.5 14zM731 169q-35 0 -54.5 -15t-19.5 -41t19.5 -41t54.5 -15q36 0 56 15t20 41t-20 41t-56 15z" />
    <glyph glyph-name="uni215E" unicode="&#x215e;" horiz-adv-x="875" 
d="M184 -12h-86l516 739h85zM254 645h-205v69h293v-70q-65 -79 -90.5 -152.5t-26.5 -168.5h-93q1 167 122 322zM666 -7q-72 0 -115.5 31t-43.5 84q0 33 23 59.5t52 32.5q-59 27 -59 87q0 52 40.5 82.5t102.5 30.5q63 0 103 -30.5t40 -82.5q0 -60 -57 -87q29 -6 51.5 -32.5
t22.5 -59.5q0 -53 -43.5 -84t-116.5 -31zM666 337q-28 0 -45.5 -14t-17.5 -39t17.5 -39t45.5 -14q29 0 46.5 14t17.5 39t-17.5 39t-46.5 14zM666 169q-35 0 -54.5 -15t-19.5 -41t19.5 -41t54.5 -15q36 0 56 15t20 41t-20 41t-56 15z" />
    <glyph glyph-name="minus" unicode="&#x2212;" 
d="M65 285v95h529v-95h-529z" />
    <glyph glyph-name="i.dot" horiz-adv-x="284" 
d="M74 594v125h136v-125h-136zM78 508h128v-508h-128v508z" />
    <glyph glyph-name="a.ord" horiz-adv-x="408" 
d="M262 368q-28 -59 -110 -59q-52 0 -83.5 26.5t-31.5 71.5q0 87 123 101l97 10v18q0 54 -57 54q-24 0 -39.5 -13t-17.5 -34h-92q5 56 45.5 87t106.5 31q72 0 110.5 -34t38.5 -101v-120q0 -54 6 -89h-92q-4 24 -4 51zM257 446v22l-68 -8q-57 -7 -57 -47q0 -19 12.5 -30.5
t35.5 -11.5q31 0 54 20t23 55z" />
    <glyph glyph-name="b.ord" horiz-adv-x="447" 
d="M156 370v-54h-96v485h97v-200q13 26 41 43t63 17q67 0 107.5 -49t40.5 -128t-40.5 -127.5t-107.5 -48.5q-36 0 -64 17.5t-41 44.5zM155 490v-12q0 -47 20.5 -74t57.5 -27t58 29t21 78t-21 78t-58 29t-57.5 -27t-20.5 -74z" />
    <glyph glyph-name="c.ord" horiz-adv-x="397" 
d="M38 485q0 80 48.5 128t123.5 48q66 0 105.5 -34t46.5 -93h-91q-10 56 -61 56q-36 0 -55.5 -28.5t-19.5 -76.5q0 -50 19.5 -78t55.5 -28q51 0 61 56h91q-7 -59 -46.5 -93t-105.5 -34q-76 0 -124 48t-48 129z" />
    <glyph glyph-name="d.ord" horiz-adv-x="447" 
d="M291 316v54q-13 -27 -41 -44.5t-64 -17.5q-67 0 -107.5 48.5t-40.5 127.5t40.5 128t107.5 49q35 0 63 -17t41 -43v200h97v-485h-96zM292 478v12q0 47 -20.5 74t-57.5 27t-58 -29t-21 -78t21 -78t58 -29t57.5 27t20.5 74z" />
    <glyph glyph-name="e.ord" horiz-adv-x="408" 
d="M368 423q-10 -54 -52 -84.5t-104 -30.5q-76 0 -125 47.5t-49 128.5t49 129t123 48q77 0 118.5 -49t41.5 -121v-23h-239q6 -90 81 -90q52 0 67 45h89zM210 592q-67 0 -78 -79h148q-1 34 -19 56.5t-51 22.5z" />
    <glyph glyph-name="f.ord" horiz-adv-x="255" 
d="M70 584h-45v69h45v42q0 54 30.5 82t85.5 28q19 0 53 -4v-73q-22 2 -33 2q-39 0 -39 -39v-38h66v-69h-66v-268h-97v268z" />
    <glyph glyph-name="g.ord" horiz-adv-x="447" 
d="M291 338v49q-12 -27 -39.5 -44t-64.5 -17q-67 0 -108 46.5t-41 121.5q0 74 41 120.5t108 46.5q37 0 65 -17.5t41 -44.5v53h96v-300q0 -81 -47.5 -121.5t-129.5 -40.5q-70 0 -113.5 28t-53.5 79h96q12 -41 71 -41q79 0 79 82zM294 487v14q0 41 -22 65.5t-58 24.5
q-37 0 -57.5 -26t-20.5 -71q0 -46 20.5 -72t57.5 -26q36 0 58 25t22 66z" />
    <glyph glyph-name="h.ord" horiz-adv-x="442" 
d="M157 599q29 62 104 62q58 0 91 -34t33 -95v-216h-98v193q0 77 -61 77q-31 0 -50 -22t-19 -66v-182h-97v485h97v-202z" />
    <glyph glyph-name="i.ord" horiz-adv-x="218" 
d="M58 704v88h101v-88h-101zM60 652h97v-336h-97v336z" />
    <glyph glyph-name="j.ord" horiz-adv-x="218" 
d="M58 704v88h101v-88h-101zM43 194q-22 0 -43 4v70q8 -1 21 -1q21 0 30 8.5t9 29.5v347h97v-350q0 -108 -114 -108z" />
    <glyph glyph-name="k.ord" horiz-adv-x="429" 
d="M299 316l-105 136l-37 -36v-100h-97v485h97v-287l134 138h110l-140 -139l147 -197h-109z" />
    <glyph glyph-name="l.ord" horiz-adv-x="218" 
d="M157 316h-97v485h97v-485z" />
    <glyph glyph-name="m.ord" horiz-adv-x="653" 
d="M363 598q17 29 47 46t66 17q57 0 88 -34t31 -95v-216h-96v194q0 76 -58 76q-29 0 -47 -21.5t-18 -65.5v-183h-96v194q0 76 -57 76q-30 0 -48 -21.5t-18 -65.5v-183h-97v336h96v-53q12 28 39.5 45t62.5 17q75 0 105 -63z" />
    <glyph glyph-name="n.ord" horiz-adv-x="442" 
d="M156 652v-53q12 28 40 45t65 17q58 0 91 -34t33 -95v-216h-98v193q0 77 -61 77q-31 0 -50 -22t-19 -66v-182h-97v336h96z" />
    <glyph glyph-name="o.ord" horiz-adv-x="425" 
d="M38 485q0 81 48.5 128.5t126.5 47.5t126 -47.5t48 -128.5t-48 -129t-126 -48t-126.5 48t-48.5 129zM135 485q0 -51 20 -79t58 -28q37 0 57 28.5t20 78.5q0 49 -20 77t-57 28q-38 0 -58 -28t-20 -77z" />
    <glyph glyph-name="p.ord" horiz-adv-x="448" 
d="M157 368v-169h-97v453h96v-53q13 27 41 44.5t64 17.5q67 0 107.5 -49t40.5 -128t-40.5 -127.5t-107.5 -48.5q-35 0 -63 17t-41 43zM155 491v-13q0 -47 20.5 -74t57.5 -27t58 28.5t21 78.5q0 49 -21 78t-58 29q-36 0 -57 -27t-21 -73z" />
    <glyph glyph-name="q.ord" horiz-adv-x="448" 
d="M291 199v169q-13 -26 -41 -43t-63 -17q-67 0 -107.5 48.5t-40.5 127.5t40.5 128t107.5 49q36 0 64 -17.5t41 -44.5v53h96v-453h-97zM293 478v13q0 46 -21 73t-57 27q-37 0 -58 -29t-21 -78q0 -50 21 -78.5t58 -28.5t57.5 27t20.5 74z" />
    <glyph glyph-name="r.ord" horiz-adv-x="309" 
d="M282 656v-89q-20 2 -33 2q-40 0 -66 -26t-26 -75v-152h-97v336h96v-73q12 38 38.5 58.5t62.5 20.5q15 0 25 -2z" />
    <glyph glyph-name="s.ord" horiz-adv-x="382" 
d="M33 417h90q7 -48 72 -48q25 0 41.5 10.5t16.5 30.5q0 15 -11.5 23t-38.5 13l-60 10q-99 17 -99 97q0 49 40 78.5t102 29.5q67 0 106 -27.5t44 -76.5h-85q-4 20 -21.5 32t-42.5 12q-24 0 -39 -11t-15 -30q0 -15 11.5 -22.5t38.5 -13.5l64 -11q94 -18 94 -98
q0 -49 -40.5 -78t-104.5 -29q-69 0 -112.5 28t-50.5 81z" />
    <glyph glyph-name="t.ord" horiz-adv-x="286" 
d="M248 393v-72q-31 -10 -70 -10q-56 0 -82.5 23t-26.5 76v174h-47v68h47v84h95v-84h76v-68h-77v-157q0 -39 42 -39q21 0 43 5z" />
    <glyph glyph-name="u.ord" horiz-adv-x="437" 
d="M281 316v53q-13 -28 -40 -45t-63 -17q-58 0 -89.5 33.5t-31.5 95.5v216h97v-196q0 -74 59 -74q30 0 48 21.5t18 66.5v182h97v-336h-95z" />
    <glyph glyph-name="v.ord" horiz-adv-x="417" 
d="M156 316l-131 337h98l87 -244h1l86 244h95l-130 -337h-106z" />
    <glyph glyph-name="w.ord" horiz-adv-x="578" 
d="M334 653l60 -239h1l64 239h94l-104 -337h-97l-63 231h-1l-62 -231h-97l-104 337h96l64 -239h2l59 239h88z" />
    <glyph glyph-name="x.ord" horiz-adv-x="425" 
d="M131 316h-103l129 172l-121 165h110l69 -96l69 96h104l-121 -161l129 -176h-110l-76 108z" />
    <glyph glyph-name="y.ord" horiz-adv-x="416" 
d="M154 319l-129 334h100l86 -243h1l85 243h94l-130 -340q-24 -63 -59 -90.5t-92 -28.5q-16 0 -42 4v71q10 -1 21 -1q27 0 40.5 10t24.5 41z" />
    <glyph glyph-name="z.ord" horiz-adv-x="380" 
d="M332 586l-173 -199h181v-71h-298v63l173 203h-168v71h285v-67z" />
    <glyph glyph-name="caron.Slovak" horiz-adv-x="564" 
d="M269 533h-62l24 203h134z" />
    <glyph glyph-name="commaturn" horiz-adv-x="564" 
d="M345 663v-83h-129v58q0 125 132 125v-47q-54 0 -54 -53h51z" />
    <glyph glyph-name="uni00200326" horiz-adv-x="564" 
d="M222 -132v83h129v-58q0 -125 -132 -125v47q54 0 54 53h-51z" />
    <glyph glyph-name="guilsinglleft.cap" horiz-adv-x="338" 
d="M283 122h-90l-138 204l138 204h90l-108 -204z" />
    <glyph glyph-name="guilsinglright.cap" horiz-adv-x="338" 
d="M145 122h-90l108 204l-108 204h90l138 -204z" />
    <glyph glyph-name="guillemotleft.cap" horiz-adv-x="547" 
d="M492 122h-89l-137 204l137 204h89l-109 -204zM281 122h-88l-138 204l138 204h88l-109 -204z" />
    <glyph glyph-name="guillemotright.cap" horiz-adv-x="547" 
d="M144 122h-89l109 204l-109 204h89l137 -204zM354 122h-88l109 204l-109 204h88l138 -204z" />
    <glyph glyph-name="slash.cap" horiz-adv-x="534" 
d="M44 -75l326 844h120l-326 -844h-120z" />
    <glyph glyph-name="backslash.cap" horiz-adv-x="534" 
d="M44 769h120l326 -844h-120z" />
    <glyph glyph-name="bar.cap" horiz-adv-x="330" 
d="M109 769h112v-844h-112v844z" />
    <glyph glyph-name="periodcentered.cap" horiz-adv-x="323" 
d="M87 273v149h149v-149h-149z" />
    <glyph glyph-name="bullet.cap" horiz-adv-x="482" 
d="M87 364q0 62 45.5 107t109.5 45t108.5 -45t44.5 -107q0 -64 -44.5 -109t-108.5 -45t-109.5 45t-45.5 109z" />
    <glyph glyph-name="hyphen.cap" horiz-adv-x="454" 
d="M87 291v107h280v-107h-280z" />
    <glyph glyph-name="endash.cap" horiz-adv-x="677" 
d="M87 296v95h503v-95h-503z" />
    <glyph glyph-name="emdash.cap" horiz-adv-x="1003" 
d="M87 296v95h829v-95h-829z" />
    <glyph glyph-name="parenleft.cap" horiz-adv-x="425" 
d="M215 347q0 -217 161 -422h-122q-166 198 -166 422t166 422h122q-161 -219 -161 -422z" />
    <glyph glyph-name="parenright.cap" horiz-adv-x="425" 
d="M49 -75q161 205 161 422q0 203 -161 422h122q166 -198 166 -422t-166 -422h-122z" />
    <glyph glyph-name="bracketleft.cap" horiz-adv-x="412" 
d="M221 678v-662h131v-91h-254v844h254v-91h-131z" />
    <glyph glyph-name="bracketright.cap" horiz-adv-x="412" 
d="M191 16v662h-131v91h254v-844h-254v91h131z" />
    <glyph glyph-name="braceleft.cap" horiz-adv-x="430" 
d="M33 301v92h45q25 0 39.5 15t14.5 41v205q0 115 132 115h105v-90h-72q-26 0 -38 -9t-12 -34v-200q0 -77 -85 -89q85 -12 85 -89v-200q0 -25 12 -34t38 -9h72v-90h-105q-132 0 -132 115v205q0 26 -14.5 41t-39.5 15h-45z" />
    <glyph glyph-name="braceright.cap" horiz-adv-x="430" 
d="M397 393v-92h-45q-25 0 -39.5 -15t-14.5 -41v-205q0 -115 -132 -115h-105v90h72q26 0 38 9t12 34v200q0 77 85 89q-85 12 -85 89v200q0 25 -12 34t-38 9h-72v90h105q132 0 132 -115v-205q0 -26 14.5 -41t39.5 -15h45z" />
    <glyph glyph-name="at.cap" horiz-adv-x="917" 
d="M675 549l-51 -289q-10 -58 41 -58q59 0 96 57t37 157q0 125 -85.5 198.5t-224.5 73.5q-159 0 -261 -103.5t-102 -263.5q0 -88 32 -153.5t85.5 -102.5t115.5 -54.5t131 -17.5q122 0 225 44l26 -59q-108 -54 -251 -54q-87 0 -164 23.5t-140.5 70t-100.5 125t-37 178.5
q0 184 124 310.5t317 126.5q170 0 277 -97t107 -245q0 -134 -67 -208t-162 -74q-87 0 -117 66q-18 -28 -51.5 -45.5t-70.5 -17.5q-73 0 -113.5 49t-40.5 125q0 100 59 173.5t153 73.5q35 0 63.5 -17t39.5 -42l10 50h100zM535 321l5 37q9 51 -11 81.5t-57 30.5
q-51 0 -82.5 -42t-33.5 -100q-3 -48 17.5 -76t59.5 -28q33 0 63 25t39 72z" />
    <glyph glyph-name="uni0192.lt" 
d="M502 307h-123l-73 -417h-124l75 417h-81v97h98l30 168q15 86 66.5 131t128.5 45q38 0 73 -13v-115q-28 11 -59 11q-76 0 -93 -94l-23 -133h105v-97z" />
    <glyph glyph-name="Euro.lt" 
d="M637 224q-17 -108 -83 -172t-175 -64q-108 0 -183 69.5t-100 188.5h-71v77h61q-1 11 -1 35q0 23 1 34h-61v77h71q25 119 100 188t183 69q109 0 175 -63.5t83 -172.5h-116q-23 131 -141 131q-62 0 -102.5 -39.5t-58.5 -112.5h197l-11 -77h-196q-1 -11 -1 -34q0 -24 1 -35
h184l-11 -77h-162q17 -73 58 -113t102 -40q118 0 141 131h116z" />
    <glyph glyph-name="dollar.lt" 
d="M610 204q0 -90 -67.5 -148t-174.5 -65v-100h-73v101q-110 10 -179.5 67t-76.5 156h117q11 -108 139 -126v221l-50 9q-184 35 -184 193q0 89 64.5 147t169.5 65v95h73v-96q101 -11 160 -63.5t69 -140.5h-115q-10 87 -114 104v-213l62 -12q180 -35 180 -194zM287 426l8 -2
v201q-56 -6 -87 -34t-31 -71t25 -62.5t85 -31.5zM379 294l-11 2v-209q59 6 92 34t33 74q0 41 -25.5 64t-88.5 35z" />
    <glyph glyph-name="cent.lt" 
d="M579 179q-10 -78 -62.5 -127.5t-131.5 -58.5v-99h-72v100q-98 12 -159.5 83.5t-61.5 183.5q0 110 61.5 182t159.5 84v116h72v-115q79 -9 131.5 -58.5t62.5 -127.5h-103q-13 80 -91 94v-351q78 15 91 94h103zM205 261q0 -69 28.5 -114.5t79.5 -59.5v347q-51 -14 -79.5 -59
t-28.5 -114z" />
    <glyph glyph-name="sterling.lt" 
d="M605 105v-105h-549v105h13q43 0 68.5 39.5t25.5 112.5q0 9 -2 25h-94v92h64q-34 80 -34 136q0 87 68.5 151.5t178.5 64.5q118 0 182 -66.5t71 -172.5h-123q-4 61 -35.5 99t-94.5 38q-56 0 -88 -34t-32 -82q0 -17 4.5 -36t8.5 -30.5t14 -35t13 -32.5h177v-92h-156
q1 -6 1 -18q0 -99 -64 -159h383z" />
    <glyph glyph-name="yen.lt" 
d="M581 168h-187v-168h-127v168h-186v77h186v74h-186v78h143l-197 317h137l168 -282h2l166 282h134l-197 -317h144v-78h-187v-74h187v-77z" />
    <glyph glyph-name="zero.lt" 
d="M330 -12q-130 0 -209 103t-79 266t79 266t209 103t209 -103t79 -266t-79 -266t-209 -103zM330 92q78 0 118 70t40 195t-40 195t-118 70t-118 -70t-40 -195t40 -195t118 -70z" />
    <glyph glyph-name="one.lt" 
d="M603 102v-102h-533v102h212v419h-190v88q126 0 172 24t60 83h90v-614h189z" />
    <glyph glyph-name="two.lt" 
d="M586 510q0 -38 -12.5 -71t-29.5 -56t-49.5 -48.5t-57 -40.5t-68.5 -40q-76 -44 -115 -79t-40 -70h376v-105h-521v51q0 50 19.5 94t56.5 80t71 61t82 54q89 54 126 88.5t37 82.5q0 49 -30 80.5t-90 31.5q-59 0 -95 -39.5t-40 -97.5h-127q7 104 76.5 172t186.5 68
q112 0 178 -61.5t66 -154.5z" />
    <glyph glyph-name="three.lt" 
d="M593 194q0 -87 -71 -146.5t-193 -59.5q-121 0 -195.5 61.5t-83.5 163.5h127q5 -57 45.5 -90.5t106.5 -33.5t103.5 30.5t37.5 83.5t-36.5 80t-99.5 27h-74v98h72q54 0 87.5 26t33.5 80q0 48 -32 79.5t-89 31.5q-61 0 -97.5 -36t-40.5 -92h-122q6 98 75 163.5t186 65.5
q115 0 179.5 -60t64.5 -148q0 -61 -36 -104t-92 -53q65 -11 104.5 -56t39.5 -111z" />
    <glyph glyph-name="four.lt" 
d="M497 714v-434h132v-101h-132v-179h-128v179h-339v102l322 433h145zM369 591l-226 -311h226v311z" />
    <glyph glyph-name="five.lt" 
d="M333 381q-86 0 -127 -66h-119l41 399h428v-105h-333l-19 -186q22 24 62.5 41t87.5 17q109 0 176 -69.5t67 -176.5q0 -106 -71.5 -176.5t-192.5 -70.5q-120 0 -193.5 62t-81.5 167h132q5 -57 43 -93t100 -36q66 0 101.5 42t35.5 104q0 63 -35.5 105t-101.5 42z" />
    <glyph glyph-name="six.lt" 
d="M350 624q-81 0 -127 -73.5t-46 -188.5q23 50 70 82.5t114 32.5q107 0 175.5 -68.5t68.5 -172.5q0 -108 -72.5 -178t-189.5 -70q-128 0 -207.5 97t-79.5 260q0 171 83 276t215 105q100 0 165.5 -55t78.5 -147h-121q-24 100 -127 100zM342 86q64 0 102.5 41.5t38.5 106.5
t-38.5 106t-102.5 41t-104 -41.5t-40 -105.5q0 -65 40 -106.5t104 -41.5z" />
    <glyph glyph-name="seven.lt" 
d="M474 609h-415v105h550v-101q-128 -156 -188 -299.5t-61 -313.5h-137q2 166 69.5 314.5t181.5 294.5z" />
    <glyph glyph-name="eight.lt" 
d="M330 726q110 0 180 -54t70 -148q0 -56 -30.5 -98t-80.5 -64q56 -11 99.5 -58.5t43.5 -107.5q0 -94 -77 -151t-205 -57t-205 57t-77 151q0 60 43.5 107.5t99.5 58.5q-50 22 -80.5 64t-30.5 98q0 94 70 148t180 54zM330 411q58 0 95.5 28.5t37.5 81.5t-37.5 81.5
t-95.5 28.5q-59 0 -96 -28.5t-37 -81.5t37 -81.5t96 -28.5zM330 85q73 0 114 31.5t41 84.5t-41 84.5t-114 31.5t-114 -31.5t-41 -84.5t41 -84.5t114 -31.5z" />
    <glyph glyph-name="nine.lt" 
d="M310 90q81 0 127 73.5t46 188.5q-23 -50 -70 -82.5t-114 -32.5q-107 0 -175.5 68.5t-68.5 172.5q0 108 72.5 178t189.5 70q128 0 207.5 -97t79.5 -260q0 -171 -83 -276t-215 -105q-100 0 -165.5 55t-78.5 147h121q24 -100 127 -100zM318 628q-64 0 -102.5 -41.5
t-38.5 -106.5t38.5 -106t102.5 -41t104 41.5t40 105.5q0 65 -40 106.5t-104 41.5z" />
    <glyph glyph-name="zero.dnom" horiz-adv-x="428" 
d="M214 -7q-78 0 -126 57t-48 146q0 90 47.5 147t126.5 57t126.5 -57t47.5 -147q0 -89 -47.5 -146t-126.5 -57zM214 62q83 0 83 134q0 135 -83 135q-82 0 -82 -135q0 -64 21 -99t61 -35z" />
    <glyph glyph-name="one.dnom" horiz-adv-x="346" 
d="M318 62v-62h-277v62h97v214h-96v58q65 0 87.5 12.5t30.5 45.5h63v-330h95z" />
    <glyph glyph-name="two.dnom" horiz-adv-x="371" 
d="M333 278q0 -26 -8.5 -46t-27.5 -37t-36 -28t-49 -28q-77 -41 -80 -71h205v-68h-301v32q0 52 34.5 89t90.5 70q49 29 68 46t19 42q0 23 -15 37.5t-43 14.5q-29 0 -46.5 -19.5t-18.5 -47.5h-86q4 59 44 97t108 38q63 0 102.5 -34t39.5 -87z" />
    <glyph glyph-name="three.dnom" horiz-adv-x="379" 
d="M342 106q0 -48 -40.5 -80.5t-110.5 -32.5q-69 0 -111.5 34.5t-47.5 90.5h85q2 -27 22.5 -42.5t51.5 -15.5t49 14.5t18 38.5q0 50 -67 50h-39v65h37q61 0 61 51q0 23 -16 38t-42 15q-28 0 -46 -17t-20 -43h-82q3 54 42.5 90.5t106.5 36.5q66 0 102.5 -33.5t36.5 -82.5
q0 -33 -19.5 -57t-49.5 -30q36 -6 57.5 -30.5t21.5 -59.5z" />
    <glyph glyph-name="four.dnom" horiz-adv-x="418" 
d="M310 391v-243h77v-62h-77v-86h-83v86h-195v63l184 242h94zM227 309l-119 -161h119v161z" />
    <glyph glyph-name="five.dnom" horiz-adv-x="385" 
d="M194 200q-41 0 -60 -31h-82l22 223h248v-70h-184l-9 -89q28 30 83 30q60 0 97 -36.5t37 -96.5q0 -59 -41 -98t-110 -39q-71 0 -113 35t-47 93h92q2 -27 20 -44.5t47 -17.5q31 0 48 20t17 51q0 30 -16.5 50t-48.5 20z" />
    <glyph glyph-name="six.dnom" horiz-adv-x="392" 
d="M206 332q-38 0 -60.5 -34.5t-22.5 -86.5q30 50 93 50q60 0 98.5 -37t38.5 -94q0 -59 -41.5 -98t-108.5 -39q-73 0 -118 53t-45 143q0 95 47 153t121 58q57 0 95 -31.5t46 -82.5h-82q-11 46 -61 46zM203 58q30 0 49 20t19 50q0 31 -19 51t-49 20q-31 0 -50.5 -20
t-19.5 -51q0 -30 19.5 -50t50.5 -20z" />
    <glyph glyph-name="seven.dnom" horiz-adv-x="361" 
d="M238 322h-205v69h293v-70q-65 -79 -90.5 -152.5t-26.5 -168.5h-93q1 167 122 322z" />
    <glyph glyph-name="eight.dnom" horiz-adv-x="397" 
d="M198 -7q-72 0 -115.5 31t-43.5 84q0 33 23 59.5t52 32.5q-59 27 -59 87q0 52 40.5 82.5t102.5 30.5q63 0 103 -30.5t40 -82.5q0 -60 -57 -87q29 -6 51.5 -32.5t22.5 -59.5q0 -53 -43.5 -84t-116.5 -31zM198 337q-28 0 -45.5 -14t-17.5 -39t17.5 -39t45.5 -14
q29 0 46.5 14t17.5 39t-17.5 39t-46.5 14zM198 169q-35 0 -54.5 -15t-19.5 -41t19.5 -41t54.5 -15q36 0 56 15t20 41t-20 41t-56 15z" />
    <glyph glyph-name="nine.dnom" horiz-adv-x="392" 
d="M187 61q38 0 61 34.5t23 86.5q-33 -51 -95 -51q-59 0 -97.5 38t-38.5 95q0 59 41.5 97.5t108.5 38.5q72 0 117.5 -53t45.5 -143q0 -94 -47 -152.5t-122 -58.5q-57 0 -94.5 31t-45.5 82h82q12 -45 61 -45zM190 334q-30 0 -49 -19.5t-19 -49.5q0 -32 18.5 -51.5t49.5 -19.5
t50.5 19.5t19.5 51.5q0 30 -19.5 49.5t-50.5 19.5z" />
    <glyph glyph-name="percent.lt" 
d="M12 568q0 65 46 111.5t111 46.5q66 0 112 -46.5t46 -111.5t-46 -111.5t-112 -46.5q-65 0 -111 46.5t-46 111.5zM524 714h89l-485 -713h-89zM87 568q0 -35 24.5 -59.5t57.5 -24.5q34 0 58 24.5t24 59.5t-24 59.5t-58 24.5q-33 0 -57.5 -24.5t-24.5 -59.5zM333 145
q0 65 46.5 112t110.5 47q66 0 112.5 -47t46.5 -112t-46.5 -111t-112.5 -46q-65 0 -111 46t-46 111zM409 145q0 -34 24 -58.5t57 -24.5q34 0 58.5 24.5t24.5 58.5q0 36 -24.5 60.5t-58.5 24.5q-33 0 -57 -24.5t-24 -60.5z" />
    <glyph glyph-name="period.tab" horiz-adv-x="330" 
d="M91 0v149h149v-149h-149z" />
    <glyph glyph-name="comma.tab" horiz-adv-x="330" 
d="M92 4v145h149v-159q0 -75 -45.5 -116t-125.5 -41v69q44 0 67 19.5t23 68.5v14h-68z" />
    <glyph glyph-name="colon.tab" horiz-adv-x="330" 
d="M91 325v149h149v-149h-149zM91 0v149h149v-149h-149z" />
    <glyph glyph-name="semicolon.tab" horiz-adv-x="330" 
d="M92 325v149h149v-149h-149zM92 4v145h149v-159q0 -75 -45.5 -116t-125.5 -41v69q44 0 67 19.5t23 68.5v14h-68z" />
    <glyph glyph-name="space.tab" horiz-adv-x="330" 
 />
    <glyph glyph-name="thinspace" horiz-adv-x="63" 
 />
    <glyph glyph-name="zero.slash" horiz-adv-x="699" 
d="M46 357q0 163 83 266t221 103t220.5 -103t82.5 -266t-82.5 -266t-220.5 -103t-221 103t-83 266zM176 357q0 -134 52 -207l186 464q-30 14 -64 14q-83 0 -128.5 -73.5t-45.5 -197.5zM524 357q0 132 -50 205l-187 -463q31 -13 63 -13q83 0 128.5 73.5t45.5 197.5z" />
    <glyph glyph-name="zero.slashlt" 
d="M330 -12q-130 0 -209 103t-79 266t79 266t209 103t209 -103t79 -266t-79 -266t-209 -103zM167 357q0 -127 40 -197l196 449q-33 19 -73 19q-81 0 -122 -72.5t-41 -198.5zM493 357q0 126 -39 195l-195 -447q29 -19 71 -19q81 0 122 72.5t41 198.5z" />
    <glyph glyph-name="CR" horiz-adv-x="221" 
 />
    </font>
</defs>
</svg>
